<?xml version="1.0" encoding="utf-8"?>
<!-- Generator: Adobe Illustrator 27.8.1, SVG Export Plug-In . SVG Version: 6.00 Build 0)  -->
<svg version="1.1" id="レイヤー_1" xmlns="http://www.w3.org/2000/svg" xmlns:xlink="http://www.w3.org/1999/xlink" x="0px"
	 y="0px" width="73px" height="73px" viewBox="0 0 73 73" enable-background="new 0 0 73 73" xml:space="preserve">
<circle fill="#B47AB3" cx="36.5" cy="40.6373253" r="31.7930317"/>
<g>
	<defs>
		<path id="SVGID_1_" d="M63.2377625,21.7825928V-0.9529419H7.7571716v26.0910645
			c-2.3203735,4.4638062-3.6393433,9.5314941-3.6393433,14.9100952c0,17.8841553,14.4979858,32.3821411,32.3822021,32.3821411
			c17.8841553,0,32.3821411-14.4979858,32.3821411-32.3821411C68.8821716,33.2709961,66.7969666,26.9825439,63.2377625,21.7825928z"
			/>
	</defs>
	<clipPath id="SVGID_00000150082594271551784170000003255662973148232351_">
		<use xlink:href="#SVGID_1_"  overflow="visible"/>
	</clipPath>
	<g clip-path="url(#SVGID_00000150082594271551784170000003255662973148232351_)">
		<g>
			<path fill="#FFFFFF" d="M53.6854668,22.8032131c0.7228508-1.0964031,2.9423218-4.7617569,2.5284157-9.8296862
				c-0.337326-4.1302023-2.2517471-7.0867047-3.5537872-8.6694756c-0.3762474-0.4573689-1.1170845-0.2661366-1.2257843,0.3160353
				c-0.2800636,1.4999399-0.785038,3.3423238-1.7146378,5.3217063c-1.1486282,2.4457674-2.543541,4.2447462-3.6231041,5.4351072
				c1.0868645,0.5856028,2.4136848,1.4348269,3.7624588,2.6535578
				C51.7390327,19.7292271,52.9431038,21.4966736,53.6854668,22.8032131z"/>
			<path d="M53.6397629,24.1851292l-0.5824394-1.0250053c-0.9809608-1.7264404-2.2199821-3.2719612-3.6826363-4.593626
				c-1.0964241-0.9906788-2.3146439-1.8498249-3.6207848-2.5535755l-0.8124428-0.437746l0.6199722-0.6836138
				c1.4250374-1.5713434,2.6040726-3.3400326,3.5043182-5.2568789c0.7680931-1.6355472,1.3260612-3.3673086,1.6583443-5.1472025
				c0.1024857-0.5485756,0.5021706-0.9757993,1.0431252-1.1150105c0.5406342-0.1390707,1.0965881,0.0419893,1.4508018,0.4726188
				c1.5068779,1.8317456,3.3747444,4.8921876,3.7159348,9.0696335c0.3966637,4.8569098-1.4870872,8.5293226-2.6453133,10.2861395
				L53.6397629,24.1851292z M47.2216721,15.185503c1.1140823,0.6667614,2.1611633,1.4409828,3.1217232,2.308897
				c1.2780457,1.1548252,2.3975677,2.4679031,3.3388176,3.9144306c0.9928551-1.808279,2.1098022-4.7255592,1.8116264-8.3764877
				c-0.3082924-3.7745714-1.9888916-6.5524831-3.3587761-8.2292099c-0.3562698,1.8837872-0.9486694,3.7150869-1.7614746,5.4457579
				C49.5394173,12.0250978,48.4812126,13.6820297,47.2216721,15.185503z"/>
		</g>
		<g>
			<path fill="#FF71D4" d="M51.7573242,20.072279c0.5141029-0.8736496,1.1111526-2.1289158,1.4423714-3.7223034
				c0.3830948-1.8429289,0.2769318-3.4951954,0.035965-4.7841902c-0.1255608-0.6717033-1.0371819-0.7812605-1.324192-0.1611118
				c-0.0030632,0.0066175-0.0061302,0.0132351-0.009201,0.0198526c-1.0668373,2.2984152-2.4224777,4.0575314-3.6287842,5.3392143
				C48.2734833,16.7637405,50.6845436,18.6587162,51.7573242,20.072279z"/>
			<path d="M51.8334198,21.3675861l-0.6515808-0.8585396c-1.0035782-1.3223763-3.3314857-3.1589355-3.354866-3.1773396
				l-0.6207428-0.4880829l0.5411568-0.5750427c1.4531784-1.5439472,2.6305962-3.2760477,3.4995995-5.1482048l0.0089912-0.019453
				c0.2617302-0.5655098,0.8525581-0.8937407,1.4704781-0.8166771c0.6248894,0.0780745,1.1035156,0.5290031,1.2193871,1.1487551
				c0.318531,1.7040234,0.3054695,3.4077826-0.0388298,5.0640287c-0.2871666,1.3814564-0.8009071,2.7076225-1.5269928,3.9416237
				L51.8334198,21.3675861z M49.3208694,16.6849022c0.5978012,0.4984627,1.5312271,1.3091488,2.2944412,2.1167946
				c0.3967896-0.8320732,0.6907692-1.7025509,0.8770294-2.5987473c0.3010368-1.4480591,0.316555-2.9391727,0.0462418-4.4334316
				C51.7127571,13.538187,50.6323357,15.1880836,49.3208694,16.6849022z M52.5699844,11.702713c0,0,0,0.000021-0.0000381,0.000021
				C52.5699844,11.702734,52.5699844,11.702734,52.5699844,11.702713z M52.5242691,11.6932182L52.5242691,11.6932182
				L52.5242691,11.6932182z"/>
		</g>
		<g opacity="0.25">
			<path d="M51.5905075,12.0654278c0,0,0.8350258,3.5968971-1.1156273,6.6140289l-2.0617599-2.0656929L51.5905075,12.0654278z"/>
		</g>
		<g opacity="0.25">
			<path d="M54.5730705,8.7818623c0,0,0.7466393,8.4267845-2.7961769,11.4826641l2.108799,2.2265816
				C53.8856926,22.4911079,57.7691689,14.074316,54.5730705,8.7818623z"/>
		</g>
		<g opacity="0.25">
			<path d="M51.5104446,10.7639494c0,0-2.5032845,3.747159-5.4138756,4.6129513l2.2906647,1.2471247L51.5104446,10.7639494z"/>
		</g>
		<g>
			<path fill="#FFFFFF" d="M19.4731331,24.3019066c-0.8302097-1.0175285-3.4096107-4.4391575-3.5112867-9.5229445
				c-0.0828476-4.1431313,1.5221834-7.2783742,2.6571703-8.9849157c0.3279705-0.4931326,1.0843697-0.377944,1.2514973,0.1902246
				c0.430584,1.4638414,1.1196213,3.2455845,2.2449741,5.1206036c1.3905067,2.3168106,2.9605026,3.9652128,4.1551113,5.0400724
				c-1.0219402,0.6927032-2.2559013,1.6719837-3.4742603,3.0210934
				C21.0981159,21.0465374,20.0793076,22.926878,19.4731331,24.3019066z"/>
			<path d="M19.6586399,25.6720676l-0.7452946-0.9134483c-1.3302364-1.6303864-3.5763836-5.0930176-3.6738033-9.9652071
				c-0.0837965-4.1905499,1.4643822-7.4244518,2.7779083-9.3994541c0.3087978-0.4643168,0.843565-0.7008862,1.3954887-0.6171513
				c0.5522823,0.0836935,0.9932156,0.4682465,1.1506863,1.0035787c0.5109215,1.7371202,1.2414837,3.4034476,2.1713219,4.9526963
				c1.0897732,1.8157768,2.4419193,3.4558983,4.0188656,4.8748274l0.6860523,0.6172552l-0.7639008,0.5178146
				c-1.2282963,0.8325768-2.3531857,1.8107376-3.3434181,2.9072819c-1.3212662,1.4630566-2.3973713,3.1261559-3.1983395,4.9430847
				L19.6586399,25.6720676z M19.1919861,6.2374034c-1.1937046,1.8082757-2.5835075,4.7416434-2.5078163,8.5271225
				c0.0732365,3.6624384,1.4799881,6.4514971,2.650938,8.1498518c0.7898216-1.5344143,1.7706051-2.9541702,2.9250813-4.2325382
				c0.8675137-0.9606819,1.8308163-1.8370419,2.8717251-2.6133041c-1.4054012-1.3681717-2.6260815-2.9093571-3.6358643-4.5918922
				C20.5118618,9.8368845,19.7368145,8.0744457,19.1919861,6.2374034z"/>
		</g>
		<g>
			<path fill="#FF71D4" d="M21.1146755,21.3896751c-0.5999699-0.8170643-1.3211212-2.0053864-1.812067-3.5570164
				c-0.5678387-1.794632-0.6296215-3.4491568-0.5204868-4.7559319c0.0568638-0.6809673,0.9526939-0.8823175,1.3010578-0.2944403
				c0.0037155,0.0062704,0.0074406,0.0125456,0.0111637,0.0188208c1.2942085,2.1785002,2.8210945,3.7912216,4.1510506,4.9440937
				C24.2453938,17.7452011,22.0387249,19.8747005,21.1146755,21.3896751z"/>
			<path d="M21.1702175,22.6860104l-0.6378765-0.8687439c-0.8473949-1.1540756-1.4928665-2.4213562-1.9185219-3.7666702
				c-0.5103149-1.6128063-0.6959286-3.306489-0.5516605-5.0339947c0.0524712-0.6283178,0.4829445-1.1254139,1.0966702-1.2663956
				c0.6068707-0.1393309,1.228014,0.1273794,1.5459042,0.6637764l0.0110474,0.0186682
				c1.0538902,1.7739697,2.4007549,3.3778849,4.0028172,4.7666616l0.5966339,0.5172081l-0.5681267,0.5484943
				c-0.02141,0.0206623-2.1512032,2.0836353-3.0156536,3.5008717L21.1702175,22.6860104z M19.4962692,13.2087879
				c-0.1175385,1.5139513,0.0489655,2.9958344,0.4951382,4.4059162c0.2761402,0.8727322,0.6567993,1.7089405,1.1358337,2.4965248
				c0.6774616-0.8807945,1.5239296-1.7818909,2.0681496-2.3383274
				C21.7387486,16.4163589,20.496624,14.8841238,19.4962692,13.2087879z"/>
		</g>
		<g opacity="0.25">
			<path d="M20.4694309,13.4071245c0,0-0.4663162,3.6629877,1.7799797,6.4669657l1.8418674-2.2639484L20.4694309,13.4071245z"/>
		</g>
		<g opacity="0.25">
			<path d="M17.1695499,10.442625c0,0,0.1109447,8.4590721,3.9451332,11.1402931l-1.872364,2.428772
				C19.2423191,24.0116901,14.5260897,16.0316525,17.1695499,10.442625z"/>
		</g>
		<g opacity="0.25">
			<path d="M20.4172268,12.1042299c0,0,2.8700409,3.4742613,5.8533726,4.0407171l-2.1525326,1.4727821L20.4172268,12.1042299z"/>
		</g>
		<g>
			<path fill="#FFFFFF" d="M56.6416855,44.1406822c-0.6797447,1.1162987-0.8617783,2.4652252-0.5120926,3.7235031
				c0.9962387,3.5815163,0.1359711,4.6811905-1.0029907,4.8700066c-2.019989,0.334877-1.8882179,1.5668945-2.3406105,3.0014572
				c-0.5365639,1.7014427,0.6987572,2.2594795,0.825531,4.9704628c0.1316719,2.8159485-1.1408043,3.5041313-0.4115486,5.2037926
				c0.6728477,1.5681839,2.166153,1.9380722,1.9976196,2.8776398c-0.1514053,0.8441086-1.379776,0.6742325-2.0770035,1.6238403
				c-1.3802948,1.8799286,1.9480972,4.5694046,1.019619,8.043663c-0.5363808,2.0070877-1.9519653,2.2500458-2.0921211,4.4719772
				c-0.0633202,1.0039444-0.4452934,1.3369141,0.6495399,3.2673187c1.1034508,1.9455872,1.1253548,4.228775,0.0453262,5.8934021
				c-0.627636,0.9675064-1.5052719,1.5385056-2.277916,1.8745956c-0.8323174,0.3625336-1.3474007,1.1993637-1.3375893,2.1064529
				c0.0060463,0.6540756-0.1306648,1.4199142-0.6140289,2.136673c-0.4093552,0.6072464-0.9946899,1.0702209-1.6721878,1.3564682
				c-0.9629745,0.4078369-1.4161415,1.5218658-0.9591751,2.462204c0.5823135,1.1986084,0.5928612,2.4402924,0.0634308,3.280899
				c-0.0090752,0.0143509-0.0181427,0.0279617-0.0271797,0.0415497c-0.4063644,0.6147842-1.0649414,0.9418259-1.6427231,1.1170349
				c-0.7303772,0.2205505-1.3511925,0.7039185-1.7242928,1.3685608c-0.6472588,1.1548157-1.5913506,2.5362167-2.9501038,3.8926849
				c-2.0792923,2.0739822-4.2476807,3.2076492-5.6909981,3.814888c-0.0014076,0.0005798-0.0028114,0.0011673-0.0042152,0.0017395
				c-0.1637344,0.0675735-0.2689133,0.2281647-0.2668571,0.4052811c0.0806885,6.9529724-1.820015,12.7304077-3.3158703,16.1809235
				c-0.807476,1.8626099-3.3187428,2.1698456-4.5473728,0.5537415c-4.9088039-6.4568558-5.1320648-15.4430695-5.1320648-15.4430695
				c-4.3148746,1.5105438-8.6493988,1.941803-12.4393778,1.8723221c-6.6728153-0.1216049-11.6568871-1.7960434-11.8728848-1.8700562
				c-0.005276-0.0015106-0.0075631-0.0022659-0.0075631-0.0022659c0.6291523,2.0928574,1.5377302,6.1705856,0.5286937,11.1025238
				c-0.3354056,1.6394196-0.8235221,3.0834351-1.3518238,4.3170319c-0.6983304,1.6306305-2.8548427,1.9682465-4.0274687,0.6372375
				c-1.0996361-1.2481537-2.2299137-2.9360046-2.9287233-5.1053162c-0.2884293-0.8948746-0.4626446-1.7452621-0.5624094-2.5223618
				c-0.0783396-0.6102448-0.5329628-1.122757-1.1405077-1.2198944c-0.7126884-0.1139526-0.9393787-1.6544189-1.0047178-2.9149475
				c-0.030447-0.5873871-0.611228-0.9973907-1.1683617-0.808815c-2.6715784,0.9042587-1.7130308-8.6213226-1.7130308-8.6213226
				c-4.0490112-12.1470795-1.258297-19.6718674,0.7379055-23.0509567c0.7484894-1.2673569,0.736393-2.8511658-0.0453262-4.098877
				c-2.5203571-4.0241013,2.5785179-3.7235031,5.5142765-3.2680664c0.4871302,0.0755234,0.8119211-0.4871521,0.5045023-0.8731079
				c-1.6419506-2.0634079,2.9561515-1.7846985,5.5490112-1.4848633c1.0188456,0.1178207,2.0528131,0.0551376,3.0460258-0.2046814
				c3.2914917-0.86026,7.0323477-0.9403152,10.1251717-0.772644c3.4067917,0.1846924,7.7925901-3.5744705,7.8367434-6.3971786
				c0.0187054-1.1958923-0.7631416-2.5454407,0.0015106-4.2219696c0.3123531-0.6848526,0.6801414-0.980011,0.641983-1.6238403
				c-0.0702362-1.1850891-1.3972187-1.5497665-1.3217287-2.4546432c0.0645838-0.774128,1.0559645-0.7489662,1.5129156-1.6898155
				c0.6091881-1.2542877-0.7771606-2.0723763-0.8331699-4.2768478c-0.0549946-2.1647186,1.2315159-3.3549232,0.54986-4.1547661
				c-0.5556774-0.6520233-1.7609167-0.2721558-1.9093542-0.7545166c-0.1304016-0.42379,0.8099766-0.6841888,1.3247538-1.6049538
				c0.9519386-1.7026787-1.3372259-3.663826,0.0928955-4.9107933c1.2711983-1.1083984,1.2986927-2.0786438,0.9954662-2.9070511
				c-0.3214722-0.8782463-1.3328657-0.7025299-1.6578388-1.5286751c-0.5299034-1.3470993,1.7267456-2.9137383,1.1715031-3.9647179
				c-0.3447781-0.6526031-1.3544502-0.3127174-1.7757244-0.9445648c-0.634367-0.9514503,0.9024763-2.8510284,1.8881836-4.4561157
				c2.3061142-3.7551708,1.1621475-5.1925335,2.8700428-8.9122314c2.0427608-4.4489994,5.7445621-6.8907681,6.8695641-7.5789213
				c5.142004-3.1453409,10.388483-2.6301346,12.4276867-2.4284573
				c17.0223579,1.6835051,17.2119522,17.4196396,16.7602959,22.8591118
				c-0.0891342,1.0694809,0.2039032,2.1298828,0.794548,3.0263901
				C57.8531494,41.2857513,57.3425636,42.9904022,56.6416855,44.1406822z"/>
			<path d="M-6.7172565,134.8397064c-0.8936744,0-1.7467346-0.3805389-2.3514471-1.0669556
				c-1.4091959-1.5995331-2.4435349-3.4033356-3.0742931-5.3614197c-0.2766466-0.8582458-0.4756031-1.750473-0.5913076-2.6518478
				c-0.0395699-0.3080521-0.2608032-0.5541763-0.5380363-0.598526c-1.2888498-0.2060547-1.5373335-2.148056-1.6121187-3.5909576
				c-0.0040541-0.0783691-0.0519295-0.1221542-0.0800896-0.141304c-0.0432186-0.0293045-0.0886555-0.0362015-0.1351776-0.0205612
				c-0.5583105,0.1889191-1.1054945,0.1021576-1.5408068-0.2443542c-0.5402279-0.4300842-1.2619991-1.4453125-1.2926178-5.2797775
				c-0.0133648-1.6729355,0.1113892-3.2124329,0.1552734-3.6981506c-4.0624275-12.3140182-1.2157173-20.0060043,0.84939-23.5017776
				c0.617157-1.0449371,0.60355-2.3278275-0.0355358-3.3478546c-0.8640461-1.3795624-1.0193195-2.508316-0.4615135-3.3549423
				c0.507412-0.7701569,1.5216751-1.182663,3.1007175-1.2610779c0.8964405-0.0446243,1.9656515,0.0191116,3.1832018,0.1892853
				c-0.3837442-0.6557388-0.2784386-1.1541977-0.1011486-1.4734573c0.3847103-0.6928253,1.4759541-1.4130249,6.5417585-0.827034
				c0.9523175,0.1101761,1.8876181,0.0475693,2.7802277-0.1859818c2.8514082-0.7452698,6.3326626-1.0127258,10.3470936-0.795105
				c1.5263939,0.0830536,3.5271988-0.809494,5.0968285-2.2732315c1.2232389-1.1406937,1.9628487-2.416893,1.9784498-3.4138107
				c0.00488-0.3124924-0.0659752-0.6793671-0.1409616-1.0678024c-0.1805935-0.9351654-0.4053144-2.098999,0.2075014-3.4426804
				c0.1148424-0.25177,0.2314959-0.4500809,0.3343821-0.6250534c0.1907902-0.324379,0.2561264-0.4471817,0.2437439-0.6562576
				c-0.0196705-0.331955-0.2218971-0.5626831-0.5502062-0.9116974c-0.3714285-0.3948059-0.8336649-0.8861771-0.7702913-1.6457443
				c0.0624704-0.7488823,0.5824823-1.0938873,0.9621763-1.3457985c0.2717047-0.1802711,0.4863253-0.3226433,0.6208372-0.5995903
				c0.1633835-0.336441,0.077713-0.5914345-0.2298565-1.2927437c-0.287694-0.6559944-0.6457558-1.4724312-0.6756697-2.6501122
				c-0.0295925-1.1647987,0.2869844-2.0827866,0.5181532-2.7530746c0.1437283-0.4168205,0.2923717-0.8478394,0.2040596-0.9514465
				c-0.1101646-0.1292763-0.4285364-0.1668472-0.7094355-0.2000084c-0.4508715-0.053196-1.1322222-0.133606-1.3405743-0.8106079
				c-0.2086124-0.6780663,0.3176661-1.1113396,0.6659517-1.3980675c0.2493553-0.2052841,0.5319881-0.4379654,0.718708-0.771965
				c0.2786417-0.4983559,0.1297579-1.0591125-0.1485405-1.9233971c-0.1570129-0.4875793-0.3193636-0.9917488-0.3334122-1.503109
				c-0.0185232-0.6733932,0.2273178-1.2373657,0.7306595-1.6762466c1.043108-0.9095192,0.9970074-1.5536232,0.7918205-2.114193
				c-0.0605736-0.1654739-0.1772289-0.2365913-0.4951763-0.3976288c-0.3783846-0.1916428-0.8965797-0.4540977-1.1565361-1.1149139
				c-0.4058352-1.0316963,0.2036123-2.0136452,0.6933098-2.8026428c0.1913157-0.3082733,0.3720322-0.5994339,0.4633064-0.8392296
				c0.0554352-0.1456184,0.0593033-0.2291946,0.048399-0.249836c-0.0000401-0.0001221-0.000082-0.0002022-0.000103-0.0002632
				c-0.0510998-0.0413437-0.263341-0.0873642-0.3908195-0.1150208c-0.3893671-0.0844193-0.9777527-0.2120209-1.347084-0.765976
				c-0.7803898-1.1704254,0.27211-2.7748871,1.2899599-4.3265152c0.2079277-0.3169823,0.4043036-0.6163902,0.5836668-0.9084549
				c1.2009258-1.9555302,1.3993168-3.1902161,1.6290359-4.6198921c0.1856136-1.1551628,0.3959808-2.4644146,1.2000751-4.2157288
				c0.9113369-1.9847984,2.236433-3.8092442,3.9384785-5.4226551c0.9869289-0.9354668,2.0971394-1.7899761,3.210659-2.4711075
				c5.3539982-3.2749615,10.8186283-2.7345104,12.8758106-2.5311003c4.0771675,0.4032183,7.5173416,1.6337309,10.2249794,3.6572943
				c2.2869453,1.7091427,4.0695457,3.9943962,5.2982864,6.792223c2.1812363,4.9668083,2.1178207,10.3948288,1.8858833,13.1883392
				c-0.0734901,0.8818054,0.1672707,1.7941284,0.6778717,2.5691185c0.6441231,0.9778748,0.9289513,2.0133209,0.8467064,3.0776367
				c-0.0627708,0.811615-0.3381653,1.6229248-0.8186073,2.4115028l0,0c-0.571476,0.9385262-0.729351,2.0882263-0.4330711,3.154335
				c0.6200142,2.2289505,0.6190872,3.7867508-0.0028648,4.762207c-0.3509064,0.5503654-0.8965759,0.9009933-1.5780334,1.013958
				c-1.1796799,0.1955719-1.288166,0.6348534-1.5502586,1.6961212c-0.0636559,0.2578583-0.1294937,0.5245056-0.2195168,0.8099022
				c-0.2116623,0.671154-0.0634995,1.0648155,0.2054062,1.7794304c0.2621727,0.6967354,0.5884476,1.5638046,0.6527519,2.9399986
				c0.0672455,1.4375153-0.2008514,2.3659248-0.4163017,3.111927c-0.2186317,0.7569847-0.3390541,1.1739693-0.0529747,1.8407555
				c0.263546,0.6141663,0.6849632,1.0055466,1.0925179,1.3839951c0.519989,0.4829025,1.1094017,1.0302277,0.9522934,1.906044
				c-0.1473541,0.8214722-0.8215523,1.116745-1.3138466,1.3323517c-0.3468781,0.1519089-0.6745224,0.295433-0.8919449,0.591507
				c-0.4160957,0.5667572-0.1369514,1.3326721,0.3922348,2.6376953c0.5701828,1.4062119,1.2798195,3.1562729,0.7430153,5.1649628
				c-0.2746696,1.0278473-0.7491493,1.6544266-1.1677856,2.2072754c-0.467617,0.6175613-0.8370323,1.1053772-0.9012527,2.1236267
				c-0.0141945,0.2253265-0.0418472,0.4173508-0.0662384,0.5867996c-0.0816002,0.5665512-0.13554,0.9408417,0.6231575,2.2786407
				c0.6024361,1.0621948,0.92593,2.2387695,0.9354858,3.4025192c0.0097542,1.1848373-0.3057976,2.3054123-0.9125061,3.2405319
				c-0.6084824,0.9379883-1.481884,1.6593094-2.5958061,2.1438293c-0.5554276,0.2419281-0.9101677,0.805748-0.9033508,1.4361267
				c0.0087891,0.9526901-0.239315,1.8097229-0.7374115,2.5484238c-0.4793167,0.710968-1.1674614,1.2705078-1.9900627,1.6180344
				c-0.2903557,0.1230011-0.5195084,0.3596573-0.6280785,0.6490402c-0.1030502,0.2746277-0.0897026,0.5700684,0.0375748,0.8318787
				c0.6905632,1.421524,0.6999207,2.9099808,0.0249138,3.9817352c-0.0120544,0.0190659-0.0234642,0.0363617-0.0348701,0.0535355
				c-0.4357758,0.6592026-1.120697,1.1335907-2.0366287,1.4113693c-0.5634956,0.1701736-1.0263176,0.5361633-1.3040123,1.0308304
				c-0.8323555,1.4850311-1.8652,2.8479004-3.0696297,4.050354c-1.6568947,1.6526184-3.5899925,2.9625549-5.7483711,3.8957443
				c0.0449524,6.9096603-1.807148,12.6614914-3.377203,16.283165c-0.4828205,1.1137695-1.4899864,1.8657379-2.6941319,2.0115204
				c-1.2022953,0.145813-2.3579044-0.3433685-3.0911655-1.3079224c-1.1582298-1.5234528-2.1564827-3.307373-2.9669876-5.3022385
				c-0.6446514-1.5865784-1.173027-3.3102417-1.5704193-5.1231537c-0.4204121-1.9176559-0.6038456-3.5150757-0.6830673-4.4724197
				c-3.6229839,1.1471863-7.5835781,1.6893082-11.7891054,1.6121902c-4.8954487-0.0892258-8.8913774-0.998703-10.8308802-1.5302658
				c0.8101214,3.3578491,0.8816406,6.8520508,0.2001657,10.1829224c-0.31142,1.5220795-0.7809343,3.0215454-1.3955054,4.456665
				c-0.4250109,0.9923248-1.3146565,1.6866455-2.3798549,1.8572235
				C-6.3828583,134.8264771-6.5507488,134.8397064-6.7172565,134.8397064z M-12.98773,123.7440262
				c0.8788996,0.1667023,1.5684986,0.9117813,1.6865644,1.831459c0.1044598,0.8135681,0.2839212,1.6185913,0.5334578,2.3927307
				c0.569581,1.7681274,1.5059509,3.3996582,2.7831717,4.8493652c0.3877568,0.4401245,0.9638643,0.6477509,1.5411859,0.5552673
				c0.5813918-0.0930786,1.0479875-0.4573364,1.2800817-0.9993439c0.5761733-1.3454132,1.0162983-2.7509003,1.3081417-4.1774292
				c0.7203016-3.5206375,0.5429943-7.2378235-0.5127707-10.7497177l-0.4200902-1.3973846l1.3537188,0.5082245
				c0.2037327,0.0697784,5.0653,1.711113,11.6518707,1.8311691c4.385457,0.0804367,8.4856987-0.5359497,12.1875057-1.8319016
				l0.9362907-0.3277588l0.0246296,0.9917221c0.0005665,0.0216904,0.0643845,2.2379227,0.715765,5.1954422
				c0.5958652,2.7056198,1.8202515,6.607048,4.2692261,9.8283463c0.419323,0.5515594,1.0802174,0.8310699,1.7672367,0.7479401
				c0.6891575-0.0834198,1.2656326-0.5139923,1.5421562-1.151825c1.5286484-3.5261993,3.3345108-9.144516,3.2562981-15.88517
				c-0.0055237-0.4756851,0.2745476-0.9001694,0.7135048-1.0814285l0.0032654-0.0013733
				c2.0541229-0.8647308,3.8902206-2.0957718,5.457531-3.6590118c1.1102104-1.1083527,2.0624275-2.36483,2.8300819-3.7343979
				c0.4616508-0.8224411,1.2235756-1.4284973,2.1456375-1.7069626c0.5842934-0.1771851,1.0047455-0.4544373,1.2488937-0.8238068
				l0.0030708-0.0046005c0.0053177-0.0080185,0.0107193-0.0160446,0.0160828-0.0245132
				c0.4003754-0.6357346,0.3613472-1.6243896-0.1025238-2.5792313c-0.302124-0.621666-0.3343773-1.3216248-0.0908318-1.9709167
				c0.247097-0.6585922,0.7639427-1.1952362,1.4180222-1.4722443c0.5643425-0.2384262,1.0326462-0.6169891,1.3549309-1.0950546
				c0.3316383-0.4917679,0.4966888-1.0725174,0.4906387-1.7261505c-0.0131035-1.2111282,0.6822662-2.3010178,1.7715149-2.7754898
				c0.8494873-0.3694992,1.5089302-0.9096069,1.9603043-1.6054153c0.9237137-1.4236221,0.8971481-3.4427109-0.0676079-5.143837
				c-0.9327011-1.6444702-0.920929-2.3336716-0.7965164-3.1973953c0.0224953-0.1564636,0.0437813-0.3042145,0.0543861-0.4717712
				c0.0915985-1.4526138,0.6758919-2.2242126,1.1913681-2.9049454c0.3713913-0.4904785,0.7221718-0.9537048,0.9237938-1.7080536
				c0.4118233-1.5411453-0.146347-2.9177246-0.6861725-4.2489471c-0.5563965-1.3721848-1.1317406-2.7910919-0.217865-4.0358353
				c0.4470596-0.6088104,1.0423203-0.8695297,1.4769249-1.0598602c0.1593628-0.0697861,0.425972-0.1865768,0.4680634-0.2498779l0,0
				c-0.0001221,0,0.0015335-0.0043488,0.0033073-0.0140686c0.0177345-0.0989761-0.2892265-0.3840027-0.51334-0.5921173
				c-0.4444008-0.4127121-1.0530434-0.9778976-1.4371338-1.8730621c-0.4896736-1.1413345-0.2554016-1.9525528-0.0073814-2.8113937
				c0.1955757-0.6772003,0.4172707-1.4447708,0.3611946-2.6435165c-0.0537033-1.1483536-0.323658-1.8657112-0.5618019-2.4986267
				c-0.3049088-0.8102646-0.5928841-1.5755959-0.2310486-2.7228775c0.0761986-0.2416954,0.1364708-0.4857445,0.194725-0.7217293
				c0.2805977-1.136219,0.5986061-2.4240608,2.7167091-2.7751923c0.2807999-0.0465431,0.4646378-0.1592064,0.5960274-0.3652992
				c0.2158127-0.3385086,0.4806023-1.2560959-0.1708984-3.5983543c-0.402874-1.4497719-0.1874275-3.0143814,0.5910301-4.2928696
				l0.0001183-0.0001831c0.8278465-1.3585968,0.8276024-2.6850853-0.0006866-3.9426117
				c-0.6877823-1.0438728-1.0113945-2.2811203-0.9112129-3.4837532c0.5072899-6.109457-0.0470886-20.4914227-16.1114273-22.080183
				c-1.9251518-0.1904316-7.0393162-0.6961718-11.9795952,2.3257904c-1.3607769,0.8323555-4.7268925,3.2064018-6.5899963,7.2640953
				c-0.7218742,1.5721893-0.9072857,2.7261047-1.0865917,3.84202c-0.2327995,1.448925-0.473547,2.947197-1.8243637,5.1468163
				c-0.1906509,0.3104362-0.4022064,0.6329613-0.6067905,0.9448204c-0.4257317,0.649025-0.8659401,1.3200951-1.11868,1.883606
				c-0.290514,0.6476936-0.1897049,0.830162-0.1772451,0.8488503c0.0448914,0.0673447,0.2606993,0.114151,0.4511108,0.1554565
				c0.4101524,0.0889359,1.0299664,0.2233467,1.3622875,0.8523941c0.4626408,0.8756981-0.0815163,1.7524605-0.5616169,2.5259972
				c-0.3359699,0.5413208-0.7167549,1.1548424-0.576376,1.511734c0.0538826,0.1369553,0.1639442,0.2024879,0.4647789,0.3548393
				c0.3732834,0.1890831,0.9374237,0.4747772,1.199192,1.1899757c0.4887276,1.3351746,0.0853081,2.5800056-1.1990891,3.699913
				c-0.3404865,0.2968826-0.297205,0.6358376,0.0285244,1.647438c0.2851925,0.8856773,0.6401119,1.9879265,0.0343475,3.0713882
				c-0.216074,0.3865051-0.4821758,0.6730881-0.7286873,0.8978882c0.4091053,0.0741005,0.8808613,0.2277031,1.2325935,0.6403961
				c0.6236,0.7317696,0.3381672,1.559391,0.0621643,2.3597565c-0.216835,0.6288033-0.4626408,1.3415031-0.4396629,2.2453003
				c0.0226974,0.8939819,0.2930374,1.5103836,0.5544834,2.1064949c0.3318596,0.7567215,0.6750431,1.5392265,0.2063141,2.5043259
				c-0.3068008,0.6316833-0.7778301,0.9441948-1.1217613,1.1723595c-0.1165123,0.0773048-0.2926311,0.1941414-0.3185539,0.2445564
				c-0.0001602,0.0006638-0.0016136,0.006546-0.0025005,0.0173149c-0.0098553,0.1182251,0.1808777,0.3209686,0.3827991,0.5356293
				c0.3749752,0.3985825,0.8884754,0.944458,0.9401798,1.816246c0.0390244,0.6586761-0.2158298,1.0919876-0.44067,1.4742584
				c-0.0892372,0.1517105-0.1815224,0.3085785-0.2651958,0.4920959c-0.4212208,0.9235535-0.2668705,1.7228928-0.1034718,2.5691528
				c0.0856705,0.4435959,0.1742439,0.9022293,0.1669865,1.3643265c-0.0219288,1.4025421-0.9104691,3.0237503-2.4377251,4.4479828
				c-1.871151,1.7448578-4.2319365,2.7639236-6.1604748,2.6593018c-3.8649406-0.2096024-7.1969681,0.0428543-9.9033813,0.7501907
				c-1.0665276,0.2789841-2.1807952,0.3541336-3.3116877,0.2234344c-3.7582068-0.4347229-4.8178811-0.061203-5.0627198,0.07164
				c0.0249968,0.0521317,0.0724478,0.1331635,0.1619873,0.2456818c0.3270006,0.4105377,0.3681221,0.9693069,0.104558,1.4232635
				c-0.2630196,0.4530716-0.7673693,0.6940765-1.2851019,0.6135635c-3.3629904-0.5217209-4.9411449-0.1225128-5.2707262,0.3777237
				c-0.2127285,0.3228836-0.0424557,0.9596329,0.4794521,1.7929535c0.9269199,1.4794617,0.9480448,3.3378143,0.0551338,4.8497772
				c-1.9481564,3.2977371-4.6262627,10.600029-0.6746025,22.4550934l0.0489006,0.1467514l-0.01544,0.1539612
				c-0.001791,0.0178223-0.1786366,1.8030777-0.162672,3.7090454c0.0285225,3.4058685,0.6278152,4.054184,0.7476521,4.1495667
				c0.0313044,0.0249557,0.0583372,0.0464859,0.1775713,0.0061264c0.4769535-0.1614227,0.990777-0.0907898,1.4099178,0.193718
				c0.4256134,0.2888641,0.6849833,0.7488632,0.7115736,1.2620392
				C-13.3536148,123.1906891-13.0615482,123.6531525-12.98773,123.7440262z M-3.4475539,116.5530014c0,0,0,0-0.0000207,0H-3.4475539
				z"/>
		</g>
		<g>
			<path fill="#F1C27D" d="M46.9547348,22.6769333c2.0300446,0.8301029,3.0935287,2.5628624,3.6739731,3.5208817
				c2.8623428,4.724268,2.2170906,12.2201347-2.1644821,17.0914879c-4.3985176,4.8901978-10.6150017,4.9704514-12.0576096,4.9444847
				c-1.0366669-0.0186577-8.159235-0.2637939-12.4913368-6.0721779c-3.8528862-5.1658707-4.3627701-13.2095089-0.5351295-17.188446
				c1.7228775-1.7909775,3.9464092-2.3680058,4.286274-2.4493141c3.7399216-0.8946857,4.783535,1.3933811,9.1849289,1.5308208
				C41.9096527,24.2126312,43.5504875,21.2848988,46.9547348,22.6769333z"/>
			<path d="M36.6884766,48.9587555c-0.102478,0-0.2007294-0.0009422-0.2948265-0.002636
				c-0.7723694-0.0138931-2.826931-0.1293526-5.2183781-0.8996086c-1.4566059-0.4691277-2.8091145-1.1058578-4.0199566-1.892498
				c-1.4882889-0.9668274-2.7732296-2.1681137-3.8191814-3.5704727c-1.9509544-2.6158409-3.1503067-6.0570869-3.2904434-9.4413605
				c-0.1473522-3.5578976,0.8519497-6.6404762,2.8137913-8.679884c1.8331528-1.9055405,4.1858559-2.5427094,4.6388817-2.6510773
				c2.2776737-0.5449066,3.6800957-0.0104408,5.1647186,0.5554276c1.1583481,0.4414787,2.3561287,0.8979931,4.2108078,0.9559059
				c2.2197838,0.0693016,3.7508087-0.4975166,5.1019096-0.9975891c1.6334648-0.6045971,3.1763077-1.1756477,5.2524033-0.3267403
				c2.2688866,0.927784,3.4505348,2.8779945,4.018383,3.8152103c1.4955101,2.4683304,2.1113701,5.6457672,1.7341347,8.9469948
				c-0.3864632,3.3816986-1.7996864,6.5786896-3.9793549,9.0020218c-1.9599419,2.1790428-4.4775352,3.7028923-7.4828682,4.5292625
				C39.5807228,48.8345222,37.8656578,48.9587364,36.6884766,48.9587555z M29.2986603,23.0405674
				c-0.4401665,0-0.9191971,0.0555553-1.4641438,0.185915c-0.3842487,0.091917-2.3798752,0.6323318-3.9337177,2.2475376
				c-3.4598541,3.5966206-3.1824799,11.1927357,0.5936069,16.2556744
				c4.0058022,5.3708954,10.6366367,5.7585716,11.9252071,5.7817497c2.1541061,0.0388641,7.5830956-0.3422585,11.5075035-4.7052803
				c3.9936676-4.4401245,4.9089165-11.5709362,2.0837135-16.233984c-0.525032-0.8664856-1.502243-2.4793568-3.3295097-3.2265244
				h-0.000042c-1.5552521-0.6359596-2.6662369-0.2247429-4.2039108,0.3443756
				c-1.4020996,0.5189629-3.1471252,1.1648407-5.6485519,1.0867481c-2.0973778-0.0654907-3.4696045-0.5885258-4.6803207-1.0499592
				C31.1763191,23.3562775,30.3479557,23.0405674,29.2986603,23.0405674z"/>
		</g>
		<g opacity="0.5">
			<path fill="#FFFFFF" d="M22.991869,37.45224c0,0,3.2788429,9.7236366,13.3519535,10.0951881
				c0,0-12.1066208,1.1363068-15.3626785-12.3947792L22.991869,37.45224z"/>
		</g>
		<g>
			<path d="M36.6884766,48.9587555c-0.102478,0-0.2007294-0.0009422-0.2948265-0.002636
				c-0.7723694-0.0138931-2.826931-0.1293526-5.2183781-0.8996086c-1.4566059-0.4691277-2.8091145-1.1058578-4.0199566-1.892498
				c-1.4882889-0.9668274-2.7732296-2.1681137-3.8191814-3.5704727c-1.9509544-2.6158409-3.1503067-6.0570869-3.2904434-9.4413605
				c-0.1473522-3.5578976,0.8519497-6.6404762,2.8137913-8.679884c1.8331528-1.9055405,4.1858559-2.5427094,4.6388817-2.6510773
				c2.2776737-0.5449066,3.6800957-0.0104408,5.1647186,0.5554276c1.1583481,0.4414787,2.3561287,0.8979931,4.2108078,0.9559059
				c2.2197838,0.0693016,3.7508087-0.4975166,5.1019096-0.9975891c1.6334648-0.6045971,3.1763077-1.1756477,5.2524033-0.3267403
				c2.2688866,0.927784,3.4505348,2.8779945,4.018383,3.8152103c1.4955101,2.4683304,2.1113701,5.6457672,1.7341347,8.9469948
				c-0.3864632,3.3816986-1.7996864,6.5786896-3.9793549,9.0020218c-1.9599419,2.1790428-4.4775352,3.7028923-7.4828682,4.5292625
				C39.5807228,48.8345222,37.8656578,48.9587364,36.6884766,48.9587555z M29.2986603,23.0405674
				c-0.4401665,0-0.9191971,0.0555553-1.4641438,0.185915c-0.3842487,0.091917-2.3798752,0.6323318-3.9337177,2.2475376
				c-3.4598541,3.5966206-3.1824799,11.1927357,0.5936069,16.2556744
				c4.0058022,5.3708954,10.6366367,5.7585716,11.9252071,5.7817497c2.1541061,0.0388641,7.5830956-0.3422585,11.5075035-4.7052803
				c3.9936676-4.4401245,4.9089165-11.5709362,2.0837135-16.233984c-0.525032-0.8664856-1.502243-2.4793568-3.3295097-3.2265244
				h-0.000042c-1.5552521-0.6359596-2.6662369-0.2247429-4.2039108,0.3443756
				c-1.4020996,0.5189629-3.1471252,1.1648407-5.6485519,1.0867481c-2.0973778-0.0654907-3.4696045-0.5885258-4.6803207-1.0499592
				C31.1763191,23.3562775,30.3479557,23.0405674,29.2986603,23.0405674z"/>
		</g>
		<g>
			
				<ellipse transform="matrix(0.0103237 -0.9999467 0.9999467 0.0103237 -3.5820787 61.3569946)" cx="29.2058239" cy="32.4881248" rx="2.9404202" ry="2.3853064"/>
			<path d="M29.1963806,35.944519c-0.0087891,0-0.0174599-0.0000381-0.0262489-0.0001221
				c-0.7956676-0.0082016-1.5330811-0.3895073-2.0764561-1.0736656c-0.518137-0.6523857-0.7983723-1.5091934-0.7890167-2.412571
				c0.0093136-0.9033718,0.3071632-1.7542095,0.838686-2.3957767c0.5512333-0.665329,1.2862282-1.0306683,2.0719795-1.0306683
				c0.0087528,0,0.0174179,0.0000401,0.026207,0.0001183c1.5997257,0.016531,2.8851891,1.5804558,2.8654785,3.4862595
				c-0.0093155,0.9033699-0.307169,1.7541924-0.8386898,2.3957558C30.7170849,35.5791969,29.982132,35.944519,29.1963806,35.944519z
				 M29.2159729,30.0637951c-0.4731846,0-0.9264526,0.2328835-1.2778473,0.6570435
				c-0.3809834,0.4598217-0.594574,1.0805817-0.601469,1.7479687c-0.0068932,0.6673851,0.1938381,1.2924614,0.5652256,1.7600403
				c0.3461514,0.435833,0.8003464,0.6785965,1.2788925,0.6835098c0.4781055,0.0053444,0.9376621-0.2283478,1.2927647-0.6569443
				c0.3809814-0.4598198,0.594574-1.0806007,0.6014671-1.747963c0.0137882-1.3367481-0.8134899-2.4329281-1.8441181-2.4435711
				C29.2259312,30.0638161,29.220932,30.0637951,29.2159729,30.0637951z"/>
		</g>
		<g>
			<path fill="#FFFFFF" d="M30.9086552,31.6809063c-0.0073509,0.7119961-0.4815273,1.2843342-1.0590992,1.278368
				c-0.5775738-0.00597-1.0398254-0.587986-1.0324783-1.2999687c0.0073605-0.7119904,0.4815331-1.2843285,1.0591087-1.278368
				C30.4537601,30.3869038,30.916008,30.9689178,30.9086552,31.6809063z"/>
		</g>
		<g>
			
				<ellipse transform="matrix(0.999174 -0.0406358 0.0406358 0.999174 -1.2810427 1.798565)" cx="43.6018333" cy="32.4112625" rx="2.3853011" ry="2.9404185"/>
			<path d="M43.6395073,35.8669701c-0.7572517,0-1.4730568-0.3412895-2.0256615-0.9685822
				c-0.5507164-0.6251335-0.8742485-1.4665413-0.9109344-2.3692284c-0.0774879-1.9043121,1.1599617-3.5064735,2.7584763-3.5715027
				c0.7947884-0.0324574,1.5509453,0.3109131,2.1284676,0.966465c0.5507126,0.6251564,0.8742027,1.4665833,0.9108925,2.3692474
				c0.0774841,1.9043159-1.1599655,3.5064812-2.7584381,3.5715065
				C43.7080002,35.8662643,43.6736526,35.8669701,43.6395073,35.8669701z M43.5618973,29.9876976
				c-0.019516,0-0.0390244,0.0003853-0.0585823,0.001194c-1.0298615,0.0418854-1.8235168,1.1626434-1.769207,2.4983368
				c0.0271301,0.6668663,0.2594681,1.2808723,0.6541595,1.7289391c0.3679199,0.4176483,0.8341293,0.6370506,1.3121147,0.6174774
				c1.0298233-0.0418892,1.8234749-1.1626434,1.7691727-2.4983406c-0.0271339-0.6668663-0.2594337-1.2808933-0.6541634-1.7289391
				C44.4625473,30.2058067,44.0194397,29.9876976,43.5618973,29.9876976z"/>
		</g>
		<g>
			<path fill="#FFFFFF" d="M41.8753052,31.6560402c0.0289383,0.7114372,0.5202484,1.2691383,1.0973778,1.2456627
				c0.5771179-0.023468,1.0215187-0.6192322,0.9925842-1.3306599c-0.0289307-0.7114506-0.5202408-1.2691498-1.0973701-1.2456818
				C42.29076,30.3488407,41.8463783,30.9445934,41.8753052,31.6560402z"/>
		</g>
		<g>
			<g>
				<path d="M33.6608887,36.5578308c-0.1779976,0.8417435,1.4040833,2.3074989,3.0174103,2.2495956
					c1.4968987-0.0537071,2.9379463-1.4161415,2.7574425-2.2361946c-0.2092285-0.9504738-2.5663109-1.0339088-2.7355576-1.0385132
					C35.6974411,35.5054131,33.8351707,35.7336197,33.6608887,36.5578308z"/>
			</g>
			<g>
				<path d="M36.5667953,38.9017677c0.0381088,0.0002518,0.0762672-0.0002975,0.1145172-0.001667
					c1.0830307-0.0388603,2.0702896-0.7263412,2.5292664-1.3486557c0.264286-0.3583717,0.3750534-0.7138519,0.3118477-1.0009995
					c-0.2224617-1.0106773-2.5546722-1.1032143-2.8198738-1.1104431c-0.8008423-0.021534-2.9244995,0.1329613-3.1285172,1.0979271
					c-0.0641022,0.303112,0.0683327,0.6801949,0.3729286,1.0618057
					C34.4519997,38.2324142,35.4760551,38.8944664,36.5667953,38.9017677z M36.5684395,35.6232262
					c0.0438423,0.0002937,0.0869217,0.0010262,0.1293678,0.002182c0.8484917,0.0231171,2.4945793,0.2548866,2.6512299,0.966629
					c0.0511017,0.2321663-0.0481377,0.5327568-0.2794685,0.8464088c-0.4343338,0.588913-1.3688507,1.2395096-2.3942871,1.2762871
					c-1.0732498,0.0387077-2.0957451-0.6125107-2.5915527-1.2336884c-0.26474-0.331707-0.3872185-0.6609573-0.3359947-0.9032898
					h0.0000076C33.89188,35.8960762,35.4406166,35.6156883,36.5684395,35.6232262z"/>
			</g>
		</g>
		<g>
			<g>
				<g>
					<path d="M36.9186554,40.8076057l0.002491,0.0598679c0.0007477,0.018322,0.0011559,0.0362358,0.0011673,0.0537643
						c0.0004578,0.0356293,0.0000343,0.0701866-0.0007324,0.1051903c-0.0021782,0.0693665-0.005722,0.1384964-0.012188,0.2072067
						c-0.0056114,0.0688705-0.0143929,0.1373596-0.0241699,0.2058678l-0.0161896,0.1026382l-0.0200958,0.1022606
						c-0.0569115,0.2723083-0.1442184,0.5433159-0.276062,0.8022766c-0.0642166,0.1297417-0.1423874,0.255497-0.2289734,0.3760605
						l-0.0690346,0.0883942l-0.0347672,0.0440102l-0.0378036,0.0421066c-0.0253181,0.027977-0.0504875,0.056118-0.0762978,0.0836258
						c-0.026432,0.0270424-0.0550041,0.0524139-0.0825577,0.0785217c-0.1102562,0.1045685-0.2346573,0.1956825-0.3646355,0.2761803
						c-0.0326538,0.0198288-0.0669746,0.0368423-0.1004791,0.0551605c-0.0338974,0.0175247-0.067028,0.0368347-0.1017036,0.0524216
						l-0.1048126,0.0447769c-0.0350761,0.0143967-0.0696106,0.0307884-0.1058769,0.0408707l-0.1076851,0.0338936
						l-0.0538521,0.016613c-0.0179482,0.0055237-0.0362244,0.0085945-0.0543213,0.0129662l-0.1088371,0.0239525l-0.05439,0.0116844
						c-0.0181198,0.0037537-0.0362892,0.0053291-0.0544357,0.0080643c-0.0362663,0.0050125-0.0726013,0.0095673-0.1089058,0.0138588
						c-0.0362701,0.0039978-0.0726624,0.0098839-0.1085739,0.0102654c-0.0719681,0.0028114-0.144043,0.006588-0.2155075,0.0076942
						c-0.0708733-0.0025444-0.1416283-0.0048103-0.2121735-0.008255c-0.0356827-0.0007095-0.0692787-0.0067673-0.103817-0.0103226
						l-0.1028481-0.0124359l-0.0513268-0.0062943l-0.0256386-0.0031624l-0.0172958-0.0022926l-0.0185204-0.003006
						c-0.0445595-0.0078621-0.0818787-0.0168228-0.1200485-0.0269432c-0.0754471-0.0201111-0.147438-0.0440788-0.2175064-0.0733337
						c-0.1400108-0.0578346-0.2714424-0.1358643-0.3892288-0.2310143c-0.1171341-0.0958519-0.2204056-0.209034-0.2998085-0.3353348
						c-0.1588326-0.2533493-0.2254524-0.5479393-0.1750565-0.8205147c0.0886497,0.1075134,0.1696892,0.2053261,0.2563362,0.2897797
						c0.0857048,0.0848007,0.1741524,0.1563187,0.2639198,0.2171898c0.1793594,0.1212769,0.3685799,0.201004,0.564949,0.2537613
						c0.0488777,0.0127487,0.098156,0.024353,0.1458549,0.0316582c0.0233574,0.0037231,0.0480232,0.0067673,0.0659332,0.0076752
						c0.0024948,0.0001869,0.0039711,0.0001678,0.0049324,0.0000839c0.0014267,0.0000801-0.0006523-0.0002289,0.0008545-0.000206
						l0.0053864,0.0000992l0.0215378,0.0004158l0.0430183,0.0008621l0.0858421,0.0018806
						c0.0284004,0.0000954,0.0575371,0.0028114,0.085022,0.0001411c0.055603-0.0030022,0.1110039-0.0048332,0.1662865-0.0069351
						c0.0544357-0.0054474,0.1081085-0.0129089,0.1619682-0.0187569c0.0272636-0.0019531,0.0528297-0.0089989,0.0789566-0.0140152
						c0.0260124-0.005455,0.0520058-0.0106354,0.0780602-0.0153465c0.0129013-0.0026779,0.0262375-0.0042343,0.0387917-0.0077629
						l0.0375214-0.0107918l0.0749817-0.0210266c0.012352-0.0037231,0.02528-0.0061874,0.0371819-0.0108643l0.0357361-0.013813
						l0.0714912-0.0269661c0.1889725-0.0742912,0.354847-0.1847687,0.5000305-0.3227959
						c0.0178337-0.0176544,0.0366478-0.0340919,0.0539742-0.0524254c0.0166283-0.019165,0.0338974-0.0376778,0.0510178-0.0563774
						l0.025856-0.0278893l0.0237808-0.0303078l0.0479851-0.0603065c0.0595284-0.0848885,0.1198311-0.1709175,0.1693306-0.2666054
						c0.0265427-0.0463295,0.049572-0.0957603,0.0738945-0.1443367c0.012291-0.0242157,0.0221786-0.0500984,0.033493-0.0750618
						c0.0109711-0.0251923,0.0223732-0.0501328,0.0320206-0.0762367c0.0431213-0.1019783,0.0773163-0.209301,0.1111984-0.3173294
						c0.0328484-0.1084747,0.0602531-0.2197647,0.0847168-0.3317795c0.0121078-0.0560532,0.0228691-0.1123047,0.0331841-0.1684685
						l0.0259399-0.1588478l0.0057335-0.0351028c0.0293961-0.1799736,0.1991272-0.3020363,0.3791008-0.2726517
						C36.7993355,40.5211334,36.9123688,40.6542854,36.9186554,40.8076057z"/>
				</g>
			</g>
		</g>
		<g>
			<g>
				<g>
					<path d="M36.9284592,40.811821l0.0261421,0.1578331c0.0101089,0.055748,0.0208664,0.1115112,0.0325737,0.1671333
						c0.0118713,0.0555916,0.0248222,0.110878,0.0380516,0.1658669c0.0141449,0.0548325,0.028595,0.1092911,0.0441589,0.1632004
						c0.0071411,0.0271797,0.0161514,0.053627,0.0244865,0.0802574c0.008606,0.0265427,0.0163689,0.0533791,0.0257225,0.0793953
						l0.0269012,0.0785065l0.0296745,0.076786c0.0095901,0.0257454,0.019886,0.0509224,0.0307198,0.0757179l0.0317688,0.0747108
						c0.0238571,0.0478516,0.0450592,0.0975914,0.0709877,0.1432877c0.0467033,0.0954552,0.1049385,0.1807022,0.1615601,0.2652817
						c0.0148315,0.0205002,0.0306702,0.0399055,0.0457764,0.060009c0.0154037,0.0197983,0.0297737,0.0407257,0.046936,0.0584106
						c0.0330849,0.0367622,0.064743,0.0750923,0.1003761,0.1081123c0.0174751,0.0169296,0.0340195,0.03508,0.0519524,0.0513687
						l0.0553932,0.0466423l0.0274506,0.023632c0.0092583,0.0077133,0.019558,0.0139275,0.0292435,0.0210228
						c0.0196457,0.0137863,0.0392265,0.0276375,0.0583916,0.0421638c0.0185394,0.015522,0.0406151,0.0255508,0.0607719,0.0386276
						l0.0615082,0.0377769l0.0653458,0.0316963c0.0220718,0.0101051,0.0427475,0.0228348,0.0658264,0.0312653
						c0.1791267,0.0784378,0.3795815,0.1232376,0.5916138,0.145031l0.1615982,0.0084877
						c0.0266533,0.002697,0.0550003,0.0002327,0.0827866,0.0002975l0.0837975-0.0010757l0.0419884-0.0004425l0.0210152-0.0001984
						c0.0029755,0.0000038,0.0089836-0.0001907,0.0063477,0.0001869c0.0008392,0.0000534,0.0012894,0.0002403,0.0036354,0.0000839
						c0.0156975-0.0005455,0.039257-0.0032234,0.0613937-0.0063095c0.0453224-0.0062675,0.0928116-0.0163765,0.1393547-0.0290718
						c0.1871948-0.0529518,0.3662262-0.1278763,0.5430603-0.2398491c0.0885658-0.0563431,0.1771431-0.1229248,0.2667236-0.2022324
						l0.0671349-0.0619164l0.0679665-0.0664825c0.021759-0.0233574,0.0455818-0.0467262,0.0689964-0.0711021
						c0.0231857-0.0245056,0.046257-0.0497971,0.0727997-0.0750694c0.0683327,0.2754669,0.009201,0.5770073-0.1493645,0.8349838
						c-0.0786324,0.1291847-0.1833954,0.2440491-0.3024139,0.3407364c-0.1198502,0.0957794-0.2542267,0.1725922-0.3968735,0.2283211
						c-0.0714111,0.0281525-0.1441994,0.0523987-0.2210007,0.0721207c-0.0388794,0.0100365-0.076786,0.0186234-0.1230164,0.0260391
						l-0.0195999,0.0028534L39.191124,43.797863l-0.0257034,0.0027885l-0.0514603,0.0055237l-0.1030922,0.0108681
						c-0.0345383,0.0033836-0.0684128,0.0078049-0.1042404,0.0077972l-0.212925,0.0047722
						c-0.2863579-0.0042496-0.5830917-0.0534592-0.8679008-0.1614418c-0.035717-0.0125771-0.0699654-0.0302048-0.1049576-0.0453148
						l-0.1041679-0.0478668l-0.1003685-0.0563965c-0.0329704-0.0196266-0.0677071-0.0365372-0.0987282-0.0592499
						c-0.0318222-0.0214806-0.0632401-0.0436363-0.0945854-0.0658569c-0.015522-0.0112839-0.0316772-0.0218353-0.0465927-0.0338287
						l-0.0441971-0.0366707l-0.0879059-0.0739441c-0.0283661-0.0255013-0.0547791-0.052803-0.0820961-0.0793076
						c-0.1098022-0.1059418-0.2012062-0.2257729-0.2873306-0.3467293c-0.0200005-0.0309944-0.0401993-0.061882-0.0596352-0.0932312
						l-0.0292244-0.046936l-0.0263977-0.0479393l-0.0523453-0.0960236L36.56036,42.4413033
						c-0.0158806-0.032444-0.0306168-0.0652962-0.0434875-0.0985184l-0.0400314-0.0992851
						c-0.0123558-0.0332718-0.0237045-0.0667191-0.0355034-0.1000633l-0.0174599-0.0500374l-0.0150566-0.0504684
						c-0.0417023-0.1343498-0.0722389-0.269825-0.0965881-0.4055901l-0.0169296-0.1018181l-0.013092-0.1020813
						c-0.0077362-0.0680847-0.0143356-0.1361313-0.017971-0.2044258c-0.0044594-0.0681877-0.0059357-0.1366997-0.0062218-0.2053642
						c0.0002556-0.0346718,0.0008278-0.0688744,0.0022469-0.1040878c0.0004654-0.0173111,0.0014381-0.0350571,0.0026474-0.0531273
						l0.0040283-0.0590286c0.012394-0.1820526,0.1700249-0.3195648,0.352066-0.3071709
						c0.1558647,0.0106201,0.2790909,0.127697,0.3035316,0.2753944L36.9284592,40.811821z"/>
				</g>
			</g>
		</g>
		<g>
			<path d="M36.7077217,41.9622192c0.6413002,2.028614,2.4909973,1.6431313,2.4909973,1.6431313
				s-0.0315819,1.4322891-1.0882607,2.2107658c-0.1926689,0.1419525-0.7871552,0.5342941-1.5862198,0.4892311
				c-1.2424698-0.0700722-2.1717758-1.1534309-2.4104538-2.143177c-0.0542183-0.224823-0.0672112-0.4215965-0.0676918-0.5666084
				c0.1619606,0.0191383,0.8508072,0.0820274,1.5037117-0.3833275c0.6077232-0.4331398,0.7883034-1.0417328,0.8323479-1.2103691
				L36.7077217,41.9622192z"/>
			<path d="M36.6540909,46.8250542c-0.0522499,0-0.1051407-0.0014534-0.1589241-0.0044975
				c-1.4955101-0.0843391-2.6015701-1.3702888-2.8830109-2.537426c-0.0536613-0.2223816-0.0812798-0.4531097-0.0821266-0.6856918
				l-0.0020981-0.5826797l0.5786514,0.0683327c0.1896057,0.0223541,0.680809,0.0388489,1.1437149-0.2910957
				c0.434803-0.3099098,0.5872383-0.7470284,0.6325951-0.9205894c0.0696678-0.2668076,0.3359528-0.4300079,0.6027985-0.3750992
				c0.0212479-0.0100975,0.0434227-0.0188446,0.0664825-0.026123c0.2718086-0.0860558,0.5616379,0.0647697,0.6475906,0.3364944
				c0.2107277,0.6666031,0.5934448,1.0845337,1.1375465,1.2421837c0.4012604,0.1162529,0.7528114,0.0520096,0.7561188,0.0512848
				l0.6355324-0.1324387l-0.0143051,0.6490211c-0.0015335,0.06884-0.0515289,1.6964645-1.29813,2.6148567
				C38.1076736,46.4591484,37.4819717,46.8250122,36.6540909,46.8250542z M34.6314964,44.103241
				c0.2204857,0.798893,0.984024,1.6339951,1.9218025,1.6868858c0.605587,0.034008,1.0766716-0.2610054,1.2510757-0.3894691
				c0.46492-0.3425407,0.6846008-0.8652534,0.7878914-1.2604675c-0.1649704-0.0141296-0.3490524-0.0440674-0.5421638-0.1000252
				c-0.4721413-0.1367874-1.0631256-0.4497604-1.4935379-1.158226c-0.1597672,0.2550545-0.3864632,0.5218849-0.7072563,0.750515
				C35.4257126,43.9343605,34.9884109,44.0586929,34.6314964,44.103241z"/>
		</g>
		<g>
			<path fill="#E70054" d="M34.9528351,45.1713676c0,0,0.8022804-0.9272003,1.7799797-0.8751793
				s1.6550179,0.8071404,1.6550179,0.8071404S37.0337601,46.9139061,34.9528351,45.1713676z"/>
		</g>
		<g>
			<path d="M36.6473198,46.7214012c-0.0475769,0-0.0957527-0.0012321-0.1446953-0.0037918
				c-1.3165474-0.0690193-2.2848892-1.0725594-2.660511-2.0365067c-0.132637-0.3403625-0.2029114-0.7034225-0.2088356-1.0790482
				l-0.0074158-0.4718132l0.4686241,0.055336c0.2016602,0.0238228,0.7235069,0.0412636,1.2157211-0.3095245
				c0.4623413-0.3295212,0.6243286-0.7940979,0.6725464-0.9785423c0.0576515-0.2206078,0.2831764-0.3526421,0.5037842-0.2950706
				c0.0041924,0.0011101,0.0083466,0.0022583,0.0124588,0.0034676c0.0260811-0.0152397,0.0542641-0.0278358,0.084259-0.0373344
				c0.2172203-0.0687561,0.4493599,0.0517464,0.5180969,0.2692108c0.218029,0.6897392,0.6145706,1.1276665,1.1785851,1.3016319
				c0.4412994,0.1360855,0.8331261,0.0620232,0.836998,0.0612793l0.508419-0.1059494l-0.0138702,0.5197067
				c-0.0014915,0.0667648-0.0499916,1.6454048-1.2561531,2.5340233
				C38.0575981,46.3678322,37.4525032,46.7213783,36.6473198,46.7214012z M34.5037727,44.0127945
				c0.0253181,0.1264305,0.0612831,0.2495117,0.1076431,0.3685036c0.2792702,0.716671,0.9857178,1.4620476,1.9344292,1.5117798
				c0.6438408,0.0338821,1.1374245-0.2749977,1.3197289-0.4093285c0.5440216-0.4007797,0.7669678-1.0194626,0.8580399-1.4383202
				c-0.1873894-0.0079231-0.4089584-0.0360603-0.6447716-0.1043968c-0.4855194-0.1406593-1.1020241-0.4760094-1.5211449-1.2665596
				c-0.1545334,0.2884178-0.3951759,0.6080208-0.7682991,0.8739433
				C35.3355637,43.871891,34.8651619,43.9833031,34.5037727,44.0127945z"/>
		</g>
		<g>
			<g>
				<path fill="#FFFFFF" d="M35.2932396,36.3546257c-0.0156555,0.1479607,0.6296997,0.4156952,1.2778816,0.4115944
					c0.6404724-0.0040512,1.2755241-0.2734489,1.2592888-0.4198418c-0.0206833-0.1862755-1.0972252-0.1849251-1.2552414-0.1847305
					C36.4406662,36.1618347,35.3135147,36.1632309,35.2932396,36.3546257z"/>
			</g>
		</g>
		<g>
			<path fill="#F900BF" d="M40.7184105,28.2381191c-0.8382835-0.3920803-2.5248222-1.0446892-4.7318306-0.9717617
				c-2.0681381,0.0683365-3.6246414,0.7417641-4.4354038,1.1632004c-0.0868568,0.9329891-0.1737041,1.8659725-0.2605591,2.7989616
				c0.5701618-0.4308186,2.4727306-1.7557392,5.2127857-1.6997471c2.3713188,0.0484505,4.0367508,1.1039181,4.6536598,1.5407028
				C41.0108414,30.1256924,40.8646278,29.1819038,40.7184105,28.2381191z"/>
			<path d="M30.6683826,32.3454781l0.3950558-4.2439861l0.2497158-0.1297989
				c1.4343472-0.7455959,3.0444775-1.167841,4.6563778-1.2210999c1.7028923-0.0564003,3.4204597,0.296484,4.9674911,1.0200882
				l0.2491951,0.1165714l0.6674232,4.3076897l-0.9947472-0.7043152c-0.7369308-0.5217457-2.2840843-1.4033871-4.366066-1.4459209
				c-2.3549995-0.0489826-4.0751877,0.9790077-4.8910961,1.5955315L30.6683826,32.3454781z M32.0384712,28.7623863
				l-0.1344929,1.4445095c1.0612698-0.6099548,2.6392231-1.2336178,4.6099339-1.1940689
				c1.6566925,0.033865,3.0134354,0.5362988,3.9629517,1.0368176l-0.2255669-1.4559994
				c-0.9849129-0.4268436-2.4581718-0.8705139-4.2476578-0.811533
				C34.6375809,27.8272438,33.2726555,28.1653538,32.0384712,28.7623863z"/>
		</g>
		<g opacity="0.5">
			<path fill="#FFFFFF" d="M32.3570595,29.0178471c0,0,3.8374329-1.8968563,8.1096802,0.105505l0.5477486-0.6971874
				c0,0-4.7430344-2.1218605-9.3228455-0.0056324L32.3570595,29.0178471z"/>
		</g>
		<g>
			<path d="M30.6683826,32.3454781l0.3950558-4.2439861l0.2497158-0.1297989
				c1.4343472-0.7455959,3.0444775-1.167841,4.6563778-1.2210999c1.7028923-0.0564003,3.4204597,0.296484,4.9674911,1.0200882
				l0.2491951,0.1165714l0.6674232,4.3076897l-0.9947472-0.7043152c-0.7369308-0.5217457-2.2840843-1.4033871-4.366066-1.4459209
				c-2.3549995-0.0489826-4.0751877,0.9790077-4.8910961,1.5955315L30.6683826,32.3454781z M32.0384712,28.7623863
				l-0.1344929,1.4445095c1.0612698-0.6099548,2.6392231-1.2336178,4.6099339-1.1940689
				c1.6566925,0.033865,3.0134354,0.5362988,3.9629517,1.0368176l-0.2255669-1.4559994
				c-0.9849129-0.4268436-2.4581718-0.8705139-4.2476578-0.811533
				C34.6375809,27.8272438,33.2726555,28.1653538,32.0384712,28.7623863z"/>
		</g>
		<g>
			<circle fill="#F900BF" cx="26.9243374" cy="32.6271515" r="6.2667065"/>
			<path d="M26.9214058,39.4099312c-1.7700977,0-3.4405785-0.675705-4.7152805-1.9099731
				c-1.30159-1.2602844-2.0344467-2.951992-2.0636539-4.7634926c-0.029213-1.8114853,0.6487789-3.5259323,1.9090443-4.8275223
				c1.2603073-1.301569,2.9519939-2.0344467,4.7634983-2.0636578c3.740324-0.059164,6.8309212,2.9330044,6.8911972,6.6725483
				v0.0000153c0.0602684,3.739521-2.9330463,6.8309059-6.6725655,6.8911781
				C26.996273,39.4096298,26.9586964,39.4099312,26.9214058,39.4099312z M26.9257202,26.876482
				c-0.0314045,0-0.0625286,0.0002594-0.0940971,0.0007648c-1.5358238,0.0247517-2.9701347,0.6461182-4.03862,1.7496395
				c-1.0685253,1.1035175-1.6433487,2.5571003-1.6185951,4.0929432c0.0247536,1.5358658,0.6461391,2.9701576,1.7496624,4.038662
				c1.1034794,1.0685081,2.5554066,1.6439514,4.0929642,1.618576c3.1705074-0.0511017,5.708334-2.672081,5.6572552-5.8426056
				v0.0000191C32.6236534,29.3954811,30.0536919,26.876482,26.9257202,26.876482z"/>
		</g>
		<g opacity="0.5">
			<path fill="#FFFFFF" d="M31.092495,28.4943352c-2.1212196-1.7336845-5.1203518-1.8000355-7.2894478-0.1718121
				c-2.1231174,1.5937099-2.988184,4.4634838-2.1117115,7.0356541c-1.3320942-2.5867882-0.7338505-5.7436008,1.3223152-7.5051155
				C25.3066826,25.8886242,28.8993263,26.099432,31.092495,28.4943352z"/>
		</g>
		<g>
			<path d="M26.9147549,39.4022331c-3.6896114,0-6.7205391-2.9708633-6.7802258-6.6734123
				c-0.0602531-3.7395573,2.9330616-6.8309402,6.6725845-6.8912144c0.0369682-0.0005875,0.0740986-0.0008888,0.1109066-0.0008888
				c3.6896477,0,6.7205791,2.9708824,6.7802486,6.6734333c0.0292282,1.8115234-0.6487617,3.5259666-1.909029,4.8275375
				c-1.2603073,1.3015709-2.9519958,2.0344505-4.7634945,2.0636559
				C26.9887753,39.4019318,26.9516048,39.4022331,26.9147549,39.4022331z M26.9177761,26.8687992
				c-0.0314026,0-0.0624847,0.0002441-0.0940552,0.0007687c-3.1705036,0.0510998-5.7083359,2.672081-5.6572514,5.8426247
				c0.0506325,3.1389542,2.6205978,5.657959,5.7485657,5.657959c0.0314083,0,0.0625324-0.0002594,0.0940971-0.0007629
				c1.5358276-0.0247574,2.9701347-0.646122,4.0386238-1.7496414c1.0685234-1.1035233,1.6433449-2.5570793,1.6185913-4.0929489
				C32.6157112,29.3878231,30.0457497,26.8687992,26.9177761,26.8687992z"/>
		</g>
		<g>
			<circle cx="26.8862495" cy="32.6823349" r="4.1154504"/>
			<path d="M26.8842335,37.3138428c-1.2086601,0.000061-2.3493118-0.4613724-3.2197285-1.3041916
				c-0.8887577-0.8605576-1.3891983-2.0157242-1.4091129-3.2526894c-0.0199566-1.2369461,0.4429893-2.4076099,1.3035278-3.2963676
				c0.8605766-0.8887787,2.0157394-1.3892174,3.2527046-1.409153c1.2363625-0.0198784,2.4076138,0.4430046,3.2963715,1.3035831
				c0.8887577,0.8605614,1.3891983,2.0157032,1.4091129,3.2526684v-0.0000191
				c0.0412045,2.5534744-2.0027199,4.6643829-4.5562325,4.7055626
				C26.9353542,37.3136406,26.9097137,37.3138428,26.8842335,37.3138428z M26.8878212,29.0829144
				c-0.0198326,0-0.039669,0.0001602-0.0595837,0.0004864c-0.9613247,0.0154819-1.8590374,0.4044075-2.5278339,1.0951138
				c-0.6687965,0.6907082-1.0285721,1.6005135-1.013092,2.5618191c0.0154819,0.9613228,0.4044075,1.8590736,1.0951328,2.5278511
				c0.690691,0.6688156,1.5994873,1.0290146,2.5618191,1.013092c1.9844608-0.0319901,3.5728951-1.672493,3.540926-3.6569557
				v-0.0000153c-0.0154819-0.9613094-0.4044075-1.8590374-1.0951328-2.5278339
				C28.7136383,29.4415245,27.8270969,29.0829144,26.8878212,29.0829144z"/>
		</g>
		<g opacity="0.5">
			<polygon fill="#FFFFFF" points="25.0544834,28.6898861 23.320158,35.1468048 25.1153755,36.5570908 27.1523685,28.3795929 			"/>
		</g>
		<g opacity="0.5">
			<polygon fill="#FFFFFF" points="28.5751877,28.8835697 26.5232449,36.7601891 27.9202328,36.6346741 29.5792828,29.5179691 			
				"/>
		</g>
		<g>
			<path d="M26.9004841,37.2979965c-2.5193672,0-4.5890121-2.0286255-4.6297722-4.556839
				c-0.0199547-1.2369652,0.4429913-2.40765,1.3035679-3.2964077c0.8605366-0.8887787,2.0156994-1.3892193,3.2526665-1.4091549
				c2.5519428-0.0401344,4.66436,2.0027828,4.7055244,4.5562325v0.0000229
				c0.0411587,2.5534897-2.0027618,4.6643791-4.5562363,4.7055435
				C26.9509964,37.2977943,26.925642,37.2979965,26.9004841,37.2979965z M26.9024563,29.0670738
				c-0.0196705,0-0.0391445,0.0001602-0.0588989,0.0004826c-0.9612885,0.0154819-1.8590374,0.4044075-2.5278339,1.0951118
				c-0.6687965,0.690731-1.0285721,1.6005344-1.0130901,2.561842c0.032011,1.9844551,1.6726971,3.5728111,3.656992,3.5409241
				c1.9844189-0.031971,3.5728951-1.6724968,3.540926-3.6569748v0.0000229
				C30.4688606,30.643755,28.8602676,29.0670738,26.9024563,29.0670738z"/>
		</g>
		<g>
			<circle cx="45.9926529" cy="32.1872635" r="4.1154513"/>
		</g>
		<g opacity="0.25">
			<path d="M30.9194965,28.5169296c1.9791546,2.7733955,1.2141628,6.5545578-1.3018284,8.2217674
				c-2.6710434,1.7699547-6.7272949,0.7675667-8.3343887-2.4849167c0.0832596,0.4033203,0.6242657,2.8270264,2.8719597,4.0696945
				c2.3952694,1.3242531,5.1024799,0.4082108,6.6606007-0.7621803c0.4033775-0.303009,3.0969868-2.4012451,2.5939922-5.4362564
				C33.0487709,29.9464188,31.2837639,28.7525692,30.9194965,28.5169296z"/>
		</g>
		<g>
			<circle fill="#F900BF" cx="45.9377213" cy="32.1647606" r="6.2667093"/>
			<path d="M45.9347534,38.9475327c-1.7700958,0.0000801-3.4405365-0.6756897-4.7152367-1.9099731
				c-1.30159-1.2602654-2.0344505-2.951992-2.0636368-4.7634964c-0.029232-1.8114834,0.6487617-3.5259266,1.9090271-4.8275223
				c1.2603073-1.301569,2.951992-2.0344448,4.7634926-2.0636539c1.8115463-0.0290508,3.5259285,0.6487999,4.8275223,1.9090652
				c1.30159,1.2602863,2.0344467,2.9519958,2.0636368,4.7634983v-0.0000191
				c0.0292282,1.8115044-0.6487617,3.5259628-1.9090271,4.8275375c-1.2602692,1.3015709-2.9519958,2.0344505-4.7635002,2.0636597
				C46.0096626,38.9472313,45.9720078,38.9475327,45.9347534,38.9475327z M45.940197,26.4140816
				c-0.0316849,0-0.0633736,0.0002384-0.0951843,0.0007629c-1.5358276,0.0247536-2.9701347,0.6461201-4.0386238,1.7496414
				c-1.0685234,1.1035175-1.6433449,2.5571003-1.6185913,4.0929451c0.0247536,1.5358658,0.6461411,2.9701538,1.7496567,4.038681
				c1.0806656,1.0463943,2.4971123,1.6193199,3.9977455,1.6193199c0.0316849,0,0.0634155-0.0002403,0.0952263-0.0007668
				c1.535862-0.0247536,2.9701347-0.6461182,4.0386581-1.7496376c1.0684891-1.1035194,1.6433105-2.5571022,1.618557-4.0929451
				v-0.0000229c-0.0247536-1.5358429-0.6461411-2.9701347-1.7496643-4.0386391
				C48.8573189,26.9870052,47.4408646,26.4140816,45.940197,26.4140816z"/>
		</g>
		<g opacity="0.5">
			<path fill="#FFFFFF" d="M50.0409775,28.090519c-2.125145-1.7056961-5.1305122-1.7701302-7.3046036-0.1669998
				c-2.1280098,1.5691566-2.9957047,4.3938637-2.1181488,6.9251633c-1.3341293-2.5455513-0.7337303-5.6526852,1.3272324-7.3869781
				C44.2438431,25.5276184,47.8439255,25.7340717,50.0409775,28.090519z"/>
		</g>
		<g>
			<path d="M45.9281464,38.9398537c-3.6896133,0-6.7205429-2.9708824-6.7802124-6.6734314
				c-0.0602684-3.7395401,2.9330482-6.8309231,6.6725655-6.8911972c1.8113022-0.029026,3.5259285,0.6487789,4.8274803,1.9090691
				c1.30159,1.2602654,2.0344887,2.9519711,2.0636787,4.7634735c0.0292282,1.8115044-0.6487617,3.5259476-1.9090691,4.8275375
				c-1.2602654,1.3015747-2.9519539,2.0344505-4.7634964,2.0636597
				C46.002121,38.9395523,45.9649887,38.9398537,45.9281464,38.9398537z M45.9323349,26.4064198
				c-0.0316887,0-0.0634155,0.0002422-0.0952225,0.0007668c-3.1705055,0.0510998-5.7083359,2.6720829-5.6572571,5.8426075
				c0.0506363,3.1389542,2.6205978,5.657753,5.7485695,5.6579781c0.0314064,0,0.0624924-0.0002403,0.0940552-0.0007629
				c1.5358658-0.0247574,2.9701347-0.646122,4.038662-1.7496414c1.068531-1.1035233,1.6433487-2.5571022,1.6185951-4.0929489
				c-0.0247955-1.5358639-0.6461411-2.9701557-1.7496605-4.038681
				C48.8493767,26.9793472,47.4329643,26.4064198,45.9323349,26.4064198z"/>
		</g>
		<g>
			<circle cx="45.8996353" cy="32.219944" r="4.1154485"/>
			<path d="M45.897625,36.8514404c-1.2086639,0.000061-2.3493156-0.4613724-3.2197304-1.3041916
				c-0.8887558-0.8605576-1.3891983-2.0157013-1.409111-3.2526665c-0.0199585-1.2369461,0.4429855-2.4076309,1.303524-3.2963886
				c0.8605804-0.8887596,2.0157433-1.3891983,3.2527084-1.4091549c1.2369652-0.0193119,2.4075737,0.4429893,3.2963715,1.3035889
				c0.8887558,0.8605576,1.3891983,2.0157204,1.409111,3.2526855v-0.0000191
				c0.0199585,1.2369652-0.4429893,2.4076309-1.303566,3.2963905c-0.8605385,0.8887787-2.0157051,1.3892174-3.2526703,1.409153
				C45.9487457,36.8512383,45.9231033,36.8514404,45.897625,36.8514404z M45.9012108,28.6205177
				c-0.0198364,0-0.039669,0.0001602-0.0595818,0.0004826c-0.9613304,0.015501-1.8590393,0.4044266-2.5278358,1.0951328
				c-0.6687965,0.6906891-1.0285721,1.6005135-1.013092,2.5618172c0.0154839,0.9613266,0.4044075,1.8590546,1.0951347,2.5278511
				c0.690731,0.6687775,1.5996475,1.0284157,2.5618172,1.0130768c0.9612885-0.0154839,1.8590393-0.4044075,2.527832-1.0951157
				c0.6687965-0.6907082,1.0285759-1.6005135,1.0130959-2.561821v-0.0000153
				c-0.0154839-0.9613094-0.4044075-1.8590603-1.0951385-2.5278358
				C47.7270279,28.9791241,46.8404884,28.6205177,45.9012108,28.6205177z"/>
		</g>
		<g opacity="0.5">
			<polygon fill="#FFFFFF" points="44.0678673,28.2274933 42.3335381,34.6844101 44.1287537,36.0946999 46.16576,27.9172039 			"/>
		</g>
		<g opacity="0.5">
			<polygon fill="#FFFFFF" points="47.5885735,28.4211807 45.5366325,36.2977943 46.933609,36.172287 48.5926628,29.0555801 			"/>
		</g>
		<g>
			<path d="M45.9138336,36.835598c-2.5193672,0-4.5889702-2.0286064-4.6297302-4.5568428
				c-0.0199547-1.2369633,0.4429855-2.4076481,1.3035622-3.2964077c0.8605423-0.8887577,2.0157051-1.3891964,3.2526703-1.409132
				c1.2373695-0.0195732,2.407608,0.4430103,3.2963715,1.3035679c0.8887596,0.8605576,1.3892326,2.0157204,1.4091492,3.2526646
				v0.0000191c0.0411644,2.5534782-2.002758,4.6643639-4.5562325,4.7055283
				C45.964386,36.8353958,45.9389915,36.835598,45.9138336,36.835598z M45.9165726,28.6046925
				c-0.0199127,0-0.0396729,0.0001621-0.0596275,0.0004845c-0.9612846,0.01548-1.8590355,0.4044056-2.527832,1.0951118
				c-0.6687965,0.6907101-1.0285721,1.6005135-1.0130882,2.5618191c0.0316849,1.9647446,1.6402817,3.5414085,3.5980873,3.5414085
				c0.0196762,0,0.0391502-0.0001602,0.0589027-0.0004845c1.984417-0.031971,3.5728951-1.6724739,3.5409279-3.6569519v0.0000229
				c-0.0155258-0.9613304-0.4044495-1.8590603-1.0951805-2.5278568
				C47.7423859,28.9633217,46.8557663,28.6046925,45.9165726,28.6046925z"/>
		</g>
		<g opacity="0.25">
			<path d="M49.9328842,28.054533c1.9791527,2.7733955,1.2141609,6.5545673-1.3018303,8.2217731
				c-2.6710434,1.7699585-6.7272949,0.7675667-8.3343887-2.4849167c0.0832634,0.4033127,0.6242561,2.8270187,2.8719559,4.0696907
				c2.3952713,1.3242531,5.1024857,0.4082184,6.6605949-0.7621803c0.4033928-0.303009,3.0969963-2.4012413,2.5940056-5.4362507
				C52.0621567,29.4840298,50.2971497,28.2901821,49.9328842,28.054533z"/>
		</g>
		<g>
			<path d="M34.9528351,38.4384079c0,0,2.0102348,1.6367531,0.6891708,3.948616h1.8577461
				c0,0-1.6325684-2.4478416,0.6905518-3.948616H34.9528351z"/>
		</g>
		<g opacity="0.25">
			<g>
				<path d="M25.223917,22.0222168c0.0116138,0.2243919,0.105875,1.5988598,1.2945099,2.5890217
					c0.7895508,0.657711,1.6579685,0.8093204,2.2113132,0.829628c0.2990589,0.010973,0.565258,0.1932583,0.6834145,0.4682045
					c0.2473145,0.5754757,0.7343216,1.0039635,1.3124313,1.1293736c0.7329884,0.1590023,1.5286102-0.1873398,1.9832191-0.8578911
					c0.1578636-0.2328606,0.4792404-0.2923126,0.7022705-0.1208401c0.2943459,0.2262993,0.6598053,0.3482132,1.0362282,0.3314762
					c0.3971176-0.0176487,0.766716-0.1878223,1.044117-0.4619255c0.2173195-0.2147312,0.5795898-0.1756248,0.7325974,0.0888081
					c0.4568329,0.7894993,1.2229729,1.3519726,2.1068153,1.5058174c1.1814232,0.2056332,2.4030495-0.3484917,3.09795-1.3859234
					c0.1969833-0.2940807,0.5651283-0.4248943,0.9040451-0.3228092c1.190834,0.3586884,2.4409866,0.1632423,3.2796249-0.5566635
					c1.2721214-1.0920486,1.5104446-3.3165054,0.2683029-5.0089531c-0.1551247-0.2113571-0.2002106-0.4848175-0.1246452-0.7358646
					c0.1727982-0.5741177,0.3568382-1.596283-0.1436577-2.5076847c-0.8049583-1.465766-3.1091461-2.1508646-5.3398552-1.1326962
					L25.223917,22.0222168z"/>
			</g>
			<g>
				<path d="M25.223917,22.0222168c0.0641994,0.1004143,0.1175995,0.1955605,0.1725483,0.2883224l0.1558304,0.2706738
					l0.2945271,0.506567c0.1902924,0.3260593,0.4106445,0.6216335,0.6762028,0.8648548
					c0.0673504,0.0597649,0.1298981,0.1233711,0.2029915,0.1760483l0.1042347,0.0839291
					c0.035326,0.0271397,0.0729599,0.051384,0.1085014,0.0780087c0.1457081,0.1020393,0.2994022,0.1896133,0.4573193,0.2672215
					c0.3169098,0.1528511,0.6600685,0.2525921,1.0131931,0.2933502c0.0880203,0.0113201,0.1768856,0.0161915,0.2653694,0.019701
					l0.0663986,0.0014858l0.0238056,0.0008869l0.0336533,0.0017891c0.0224247,0.0015564,0.0449123,0.0022659,0.0672264,0.0054283
					c0.0896626,0.0093212,0.1780949,0.0292988,0.264452,0.055872c0.3449612,0.1087685,0.6426105,0.3638668,0.8031979,0.693327
					l0.0149479,0.0308189l0.0073357,0.0154476l0.0032253,0.0062256l0.0128021,0.0249348
					c0.0086689,0.0165253,0.0163479,0.0335522,0.0254593,0.0497723c0.0190811,0.0318871,0.0356197,0.0652466,0.0568256,0.0955276
					c0.038662,0.0630779,0.0847015,0.1203327,0.131649,0.1755295c0.0481281,0.0542793,0.1000462,0.1037731,0.1534824,0.1501541
					c0.0551414,0.0438194,0.1106548,0.0869522,0.1706352,0.1202049c0.2381268,0.1394138,0.4994411,0.1813831,0.769537,0.1339016
					c0.2693691-0.0464916,0.5328922-0.1955662,0.732275-0.4036179l0.0376205-0.0389748l0.0344696-0.0419102l0.0347824-0.041605
					l0.0312347-0.0444469l0.0376396-0.0520821c0.0340233-0.0479183,0.0701485-0.0942993,0.1115303-0.1368866
					c0.0815392-0.0854645,0.1760902-0.1601086,0.2807465-0.2160358c0.1042976-0.056385,0.2168388-0.0976181,0.3341675-0.1198196
					c0.1173859-0.0218029,0.2389984-0.0256824,0.3598366-0.0101891c0.1209373,0.0157375,0.2402,0.0531139,0.3503723,0.1072292
					c0.0273056,0.0139694,0.0543251,0.0286179,0.0809059,0.0438499c0.0256119,0.0162659,0.0509109,0.0331879,0.0757751,0.0506592
					l0.0570145,0.0405483c0.1035385,0.0706272,0.219326,0.1199398,0.3375397,0.1457043
					c0.1184731,0.0252171,0.2391968,0.0260086,0.3559303,0.0036087c0.1166954-0.0223045,0.2301178-0.0686321,0.3316154-0.1363411
					c0.0507774-0.0336952,0.0985909-0.0724411,0.1424484-0.1154079l0.0218353-0.0209103
					c0.0223961-0.0210533,0.0453453-0.0416622,0.0687218-0.0616932c0.0228462-0.0204525,0.0483971-0.0384922,0.0738068-0.056509
					c0.0257797-0.0175648,0.0507278-0.0361023,0.0782928-0.0510883c0.1076736-0.0642776,0.226757-0.1087227,0.3491516-0.1354866
					c0.1229057-0.0255756,0.2495461-0.0300922,0.3748779-0.0156631c0.1254425,0.01544,0.2492294,0.0528717,0.3655128,0.1093178
					c0.1163292,0.0573635,0.222683,0.1368294,0.3137436,0.2301426c0.0434799,0.047863,0.0865326,0.0974369,0.1206474,0.150774
					l0.0261726,0.04002l0.0177803,0.0282288l0.0165825,0.02598c0.0860405,0.1399097,0.1845703,0.2717228,0.2952194,0.3913498
					c0.2216263,0.2387238,0.4859543,0.4333858,0.7750587,0.5639744c0.1444092,0.0654545,0.2946548,0.1151867,0.4478645,0.1482105
					c0.1531067,0.0340366,0.3099976,0.0455971,0.4667931,0.047224c0.6300163,0.0020256,1.2630005-0.2900772,1.7101326-0.7562275
					l0.0838852-0.0876846l0.078022-0.0931149c0.0128212-0.0156631,0.0269127-0.030323,0.0388565-0.0466995l0.0355263-0.0493507
					c0.0118408-0.0164547,0.023838-0.032795,0.0362854-0.0488281l0.0185432-0.0241604l0.0093002-0.0120621l0.0170059-0.023243
					c0.1136131-0.1603184,0.2587357-0.2990265,0.4234962-0.4042492c0.1655655-0.1040554,0.3496284-0.1756268,0.5402603-0.2110481
					c0.1906357-0.035202,0.388382-0.0331459,0.578331,0.0052719c0.0476608,0.0087185,0.0940323,0.022747,0.1406288,0.0354614
					l0.0660591,0.0191555l0.124752,0.0362587l0.1263237,0.0288486l0.0631638,0.0146523l0.0637093,0.0106926l0.1274261,0.021719
					l0.1279984,0.0144691c0.042675,0.0061893,0.0853729,0.0079517,0.128067,0.0101929
					c0.0426521,0.0017262,0.0855293,0.0065517,0.1280708,0.0062428c0.0850983-0.0003586,0.1705246,0.0016232,0.2547455-0.0057964
					c0.0851173-0.0021629,0.1678429-0.0161419,0.2517586-0.0246754l0.1233902-0.0222874
					c0.041584-0.0061188,0.0817184-0.0164738,0.1218643-0.0267563c0.0398712-0.0108833,0.0814857-0.0176563,0.1201973-0.0312881
					l0.117775-0.0371056c0.0390587-0.0127907,0.0761032-0.0295219,0.1144638-0.0437107l0.0570984-0.0221405l0.0547676-0.026144
					c0.0360756-0.0180626,0.0744629-0.0326595,0.1091156-0.0528679l0.105217-0.0587463
					c0.0349617-0.0197372,0.0667419-0.0436573,0.1005859-0.0648842l0.0500908-0.0327549l0.0469055-0.0365238
					c0.2539024-0.1884079,0.4646187-0.4416103,0.6242485-0.7336693c0.1603165-0.2918682,0.2636642-0.623785,0.3121834-0.9666958
					c0.048069-0.3432865,0.0419121-0.6986485-0.0193481-1.0463066c-0.0629654-0.3471603-0.1741257-0.6883068-0.3383598-1.0050373
					c-0.0817719-0.1584148-0.1736717-0.3122654-0.2775803-0.4586887l-0.030117-0.0438766
					c-0.0124664-0.0184822-0.0252075-0.0367794-0.036438-0.0560284c-0.0235329-0.0378819-0.0447922-0.0769863-0.0646172-0.1168232
					c-0.0390167-0.0799122-0.07061-0.1631279-0.0944176-0.2482948c-0.0464859-0.1705322-0.062336-0.3486576-0.0439453-0.5233593
					c0.0089836-0.0872898,0.0253105-0.1738987,0.0501251-0.257988l0.0214195-0.0741272
					c0.0062943-0.0217209,0.012989-0.0433521,0.0184174-0.0652695c0.0113831-0.0437145,0.0235176-0.0873108,0.0330544-0.1312885
					l0.0153389-0.0658092l0.0124702-0.066103c0.0090256-0.0440407,0.0156212-0.0881119,0.0221901-0.1321487
					c0.0076103-0.0440617,0.0119133-0.0879784,0.0170364-0.1318874c0.0058327-0.0440121,0.0072937-0.0877094,0.0101891-0.1313992
					c0.0036774-0.0438271,0.003685-0.08708,0.0044022-0.1303482c0.0046234-0.3456974-0.0548592-0.6769257-0.1893387-0.96031
					c-0.129467-0.2846737-0.3329315-0.5318527-0.5839043-0.7431736c-0.2508163-0.2111912-0.5494537-0.3829765-0.8735199-0.5146236
					c-0.1625023-0.0645828-0.3302841-0.12356-0.5043068-0.1681843c-0.1736832-0.0465546-0.3524094-0.0790071-0.5340309-0.1082115
					c-0.3638496-0.0560331-0.7412262-0.0852003-1.1359673-0.0930939c-0.1975365-0.0043507-0.399147-0.0015316-0.6069908,0.0037241
					c-0.2087593,0.0035505-0.4196587,0.0195065-0.6466446,0.021348c0.0379982-0.041647,0.0777473-0.0809488,0.1182251-0.1198626
					c0.0403481-0.0392265,0.0821342-0.0764275,0.1255302-0.1109734c0.0854912-0.0723486,0.1756783-0.1380053,0.2690697-0.1994514
					c0.1871567-0.1212244,0.385891-0.2308226,0.5960388-0.3134384c0.2092476-0.0860596,0.4278603-0.1544619,0.6526794-0.1994972
					c0.2246246-0.0454779,0.4548988-0.0752268,0.6874924-0.0790491c0.2326317-0.0053463,0.4666634,0.0119591,0.7005844,0.0435991
					c0.0584183,0.0088301,0.1166039,0.0193205,0.1749725,0.0292864c0.0582123,0.0109606,0.116127,0.0244894,0.1743011,0.0368538
					c0.0582886,0.0116873,0.1157684,0.0284977,0.1735382,0.0436687c0.057785,0.0150814,0.1149406,0.0331964,0.1719704,0.0521736
					c0.4565353,0.1474438,0.8989754,0.3791456,1.2800674,0.7075205c0.1901817,0.1638203,0.3653831,0.3501654,0.5165596,0.5578432
					c0.1518173,0.2069168,0.2771072,0.4373894,0.3734512,0.6765747c0.0223885,0.06036,0.0485802,0.119688,0.0667343,0.1810856
					l0.0555267,0.1837482l0.0429611,0.1854973c0.0133896,0.0618668,0.0216408,0.1240234,0.0322342,0.1860046
					c0.0352783,0.2481499,0.0478554,0.4948788,0.0370102,0.7366924c-0.0027809,0.0604172-0.0052605,0.1209145-0.0116501,0.1804066
					c-0.0054436,0.059721-0.0105553,0.1196022-0.0188904,0.1784229c-0.0073051,0.0590878-0.0141602,0.118351-0.0243988,0.1765308
					c-0.0092621,0.0585022-0.0188179,0.1169224-0.0309258,0.1744881c-0.02211,0.1158772-0.0483932,0.2300873-0.0779076,0.3434525
					c-0.0069466,0.0284672-0.0151978,0.0565243-0.0231094,0.084692l-0.0119667,0.0422192l-0.0059929,0.0211086l-0.002594,0.0092678
					l-0.0006142,0.0029602c-0.0048676,0.015379-0.0061073,0.0315495-0.0073853,0.0473804
					c-0.0026016,0.031847,0.0026207,0.0637512,0.0114059,0.0930195c0.0049782,0.0145168,0.0109901,0.0283508,0.0178719,0.0414772
					c0.0037384,0.0064087,0.007328,0.0128155,0.0116005,0.0187798c0.0016136,0.0033207,0.0043449,0.0058918,0.0064316,0.008873
					l0.0142326,0.0200596c0.1404762,0.1890926,0.2667389,0.3893738,0.3796234,0.5973225
					c0.2265396,0.4158344,0.3871269,0.8687553,0.48172,1.3359909c0.0928688,0.4678917,0.1135178,0.9521275,0.0569153,1.4320793
					c-0.0567856,0.4797058-0.1934471,0.9561901-0.4196358,1.399538c-0.2254677,0.4420776-0.5442734,0.8528881-0.9481049,1.1720352
					l-0.0748863,0.06036c-0.0257187,0.0189457-0.0520554,0.036953-0.0781403,0.0553818
					c-0.0526428,0.0359879-0.1041069,0.0744553-0.1583099,0.1076832l-0.1638947,0.0976315
					c-0.0546379,0.0326881-0.1121597,0.0586262-0.1683578,0.0878963l-0.0849228,0.0424423l-0.0867195,0.0372505
					c-0.0580864,0.0239697-0.115696,0.0501881-0.1745453,0.0716133l-0.1774521,0.0614586
					c-0.0590591,0.0213432-0.1195984,0.0348797-0.1794739,0.0523548c-0.0600204,0.0168324-0.1201324,0.033247-0.1808891,0.0447807
					c-0.0606232,0.0126495-0.1212769,0.0257435-0.1820602,0.0374146c-0.1218872,0.0175381-0.2440033,0.0389175-0.3663826,0.0466423
					c-0.1224785,0.0130615-0.2446632,0.0150356-0.3670464,0.0178871c-0.0611839,0.0015488-0.1219215-0.0023937-0.1829414-0.0036068
					c-0.0609856-0.00173-0.1220131-0.0033531-0.1824188-0.0097065l-0.1817398-0.0160542
					c-0.0602036-0.0075474-0.1201439-0.016716-0.1802216-0.0252533l-0.090065-0.0132236l-0.089077-0.0175991l-0.1780319-0.0362206
					l-0.1756287-0.0452805l-0.0841484-0.0215168c-0.0038795,0.0008926-0.0069771-0.0016022-0.0106201-0.0008335
					c-0.013752-0.0001621-0.0271721,0.000639-0.0402184,0.0054569c-0.0127487,0.0056267-0.0242081,0.0130615-0.0333138,0.0210838
					c-0.0083618,0.0091972-0.0144997,0.0176067-0.0194893,0.0275326l-0.0463715,0.0666142L41.9259872,26.6812l-0.0555763,0.0768108
					c-0.0187263,0.0254478-0.0397491,0.0491562-0.059597,0.0737572l-0.1214714,0.145792
					c-0.0424385,0.0468769-0.0867348,0.0921898-0.1308823,0.1375275l-0.0664291,0.0677948l-0.0703087,0.0638523
					l-0.1419144,0.1262245l-0.1498718,0.1168594c-0.0252495,0.0191193-0.0497398,0.0392189-0.0757027,0.0573673
					l-0.0787888,0.0532761c-0.2075043,0.1458378-0.4340591,0.2638168-0.6666069,0.3662605l-0.1773643,0.0709915
					c-0.0592117,0.0233402-0.1209526,0.0406017-0.1814384,0.0607529l-0.0912437,0.0288773
					c-0.0304184,0.0095863-0.0619049,0.0159893-0.0928383,0.0240269l-0.1865807,0.0448818l-0.189724,0.0320415
					c-0.0317192,0.0047722-0.0631218,0.0111866-0.0951042,0.0143814l-0.0960197,0.0091286
					c-0.0641136,0.0050735-0.1278839,0.013401-0.1922874,0.014883l-0.1932831,0.0031033
					c-0.2575569-0.0047684-0.516346-0.0305328-0.768013-0.0895844c-0.2516479-0.0579529-0.4962273-0.1431332-0.7281113-0.2523594
					c-0.4640923-0.2184677-0.8766823-0.5321045-1.2103386-0.9100437c-0.1671181-0.1888294-0.3141975-0.3940067-0.4409714-0.6101875
					l-0.0241356-0.0403328l-0.0051613-0.0085297l0.0019646,0.0039997c0.0014,0.0026264,0.0029716,0.0051575,0.0047073,0.007576
					c0.0077171,0.0084057,0.0143814,0.0205517,0.0247612,0.0285149c0.0178108,0.0200138,0.0414543,0.0351028,0.0646477,0.0461216
					c0.0227165,0.0119057,0.0467339,0.017252,0.0690498,0.0195141c0.0222931,0.003294,0.0442276,0.000946,0.0652618-0.0039539
					c0.0214882-0.0036297,0.0415154-0.0135956,0.059948-0.0244122c0.0040398-0.0038223,0.0092735-0.004961,0.0132561-0.0085487
					c0.0042419-0.0030518,0.0076065-0.0074234,0.0117912-0.0097065c0.0039101-0.0028896,0.0073891-0.0063572,0.0103188-0.0102749
					c0.0023003-0.0025883-0.0011253,0.0006275-0.0049057,0.0042362l-0.0099792,0.0093822l-0.0200157,0.0187111
					c-0.1067848,0.0996819-0.2231064,0.1893406-0.3472214,0.2672749c-0.2479019,0.1561756-0.5284233,0.2642822-0.8206635,0.3129444
					c-0.2920189,0.049118-0.5943336,0.0383434-0.8801308-0.0303764c-0.2858391-0.0689964-0.5551567-0.1935978-0.7904015-0.362669
					l-0.0435677-0.0324154c-0.0127487-0.0095749-0.0365067-0.0275688-0.0252724-0.0185528
					c0.0034828,0.0027981,0.007412,0.005024,0.0116234,0.0066204c0.0037498,0.0029449,0.0079346,0.0052967,0.0123978,0.0069771
					c0.0171013,0.0087566,0.0367355,0.0130253,0.0546379,0.0150986c0.0178909,0.0024643,0.0348701,0.0012589,0.050045-0.0026188
					c0.0151253-0.0035133,0.029438-0.0080204,0.0421982-0.0159836c0.0123253-0.0082455,0.0250816-0.0166702,0.034668-0.0278702
					c0.0044289-0.0059776,0.00951-0.0107708,0.0126648-0.016964c0.0032425-0.0053825-0.0051041,0.0064144-0.0093575,0.0121746
					l-0.0149651,0.020443l-0.0300674,0.0407963l-0.0606346,0.0811634l-0.0655823,0.0773182
					c-0.0221024,0.0255547-0.0438728,0.0514069-0.0665512,0.0764332l-0.0710678,0.0723972
					c-0.3813248,0.3822041-0.8785896,0.6572342-1.4301586,0.7460098c-0.2746563,0.0446053-0.5617371,0.0435028-0.8410835-0.0126095
					l-0.0523796-0.0100441l-0.0517044-0.0131111c-0.0343876-0.0090523-0.0689011-0.0177975-0.1029758-0.0276966
					c-0.0671978-0.0223598-0.1351776-0.0431442-0.1998558-0.0710983c-0.1313896-0.0517349-0.2555733-0.1174965-0.3734035-0.1909103
					c-0.1187305-0.0726738-0.2268257-0.158432-0.330225-0.2481117c-0.1016064-0.0915165-0.1955414-0.1902256-0.2801857-0.2954979
					c-0.0835648-0.1058655-0.1615314-0.2158108-0.2272587-0.3322048c-0.0348511-0.0571499-0.0636997-0.1172771-0.0941544-0.1765156
					c-0.0145779-0.0299187-0.027338-0.0606365-0.040884-0.0909748l-0.0198936-0.0456772l-0.0059166-0.0135612l-0.0016918-0.0043545
					c-0.0158863-0.0466061-0.0532475-0.0889664-0.1028862-0.1109543c-0.0125713-0.0044613-0.0251503-0.009861-0.0386829-0.012352
					c-0.0032578-0.0014515-0.0068245-0.0009403-0.0102215-0.001749l-0.0051403-0.0010281
					c-0.0014534-0.000206-0.000412-0.0004005-0.0039005-0.0006657l-0.0111256-0.0007801l-0.0890408-0.0063858
					c-0.1185074-0.0100327-0.2364902-0.0238705-0.3537464-0.0429058c-0.468401-0.0745773-0.9300747-0.222681-1.3489628-0.4547176
					c-0.2100868-0.1142273-0.4068356-0.2515774-0.5903435-0.4020042c-0.0452118-0.0384674-0.0912514-0.0758495-0.1342812-0.1166344
					l-0.1268215-0.1245995c-0.0858612-0.0813084-0.1610012-0.1734657-0.2370281-0.2636433
					c-0.3008022-0.364994-0.5159664-0.7905617-0.6501579-1.2272224c-0.0604267-0.2213249-0.0924034-0.4491863-0.0864887-0.6772118
					c0.0022182-0.1138,0.0145664-0.2277222,0.0372829-0.3401947C25.1386051,22.2405567,25.171978,22.1288815,25.223917,22.0222168z"
					/>
			</g>
		</g>
		<g>
			<g>
				<path fill="#FFFFFF" d="M25.223917,21.4855366c0.0116138,0.22439,0.105875,1.5988579,1.2945099,2.5890198
					c0.7895508,0.657711,1.6579685,0.8093204,2.2113132,0.829628c0.2990589,0.010973,0.565258,0.1932583,0.6834145,0.4682045
					c0.2473145,0.5754757,0.7343216,1.0039635,1.3124313,1.1293736c0.7329884,0.1590023,1.5286102-0.1873398,1.9832191-0.8578911
					c0.1578636-0.2328606,0.4792404-0.2923126,0.7022705-0.1208401c0.2943459,0.2262993,0.6598053,0.3482132,1.0362282,0.3314762
					c0.3971176-0.0176487,0.766716-0.1878223,1.044117-0.4619255c0.2173195-0.2147312,0.5795898-0.1756229,0.7325974,0.0888081
					c0.4568329,0.7894993,1.2229729,1.3519726,2.1068153,1.5058174c1.1814232,0.2056332,2.4030495-0.3484917,3.09795-1.3859234
					c0.1969833-0.2940807,0.5651283-0.4248943,0.9040451-0.3228092c1.190834,0.3586884,2.4409866,0.1632423,3.2796249-0.5566635
					c1.2721214-1.0920486,1.5104446-3.3165054,0.2683029-5.0089531c-0.1551247-0.2113571-0.2002106-0.4848175-0.1246452-0.7358646
					c0.1727982-0.5741177,0.3568382-1.596283-0.1436577-2.5076847c-0.8049583-1.465765-3.1091461-2.1508646-5.3398552-1.1326962
					L25.223917,21.4855366z"/>
			</g>
			<g>
				<path d="M25.223917,21.4855366c0.0641994,0.1004124,0.1175995,0.1955585,0.1725483,0.2883205l0.1558304,0.2706738
					l0.2945271,0.506567c0.1902924,0.3260593,0.4106445,0.6216335,0.6762028,0.8648548
					c0.0673504,0.0597649,0.1298981,0.1233711,0.2029915,0.1760483l0.1042347,0.0839291
					c0.035326,0.0271397,0.0729599,0.051384,0.1085014,0.0780087c0.1457081,0.1020393,0.2994022,0.1896133,0.4573193,0.2672215
					c0.3169098,0.1528511,0.6600685,0.2525959,1.0131931,0.2933502c0.0880203,0.0113201,0.1768856,0.0161953,0.2653694,0.019701
					l0.0663986,0.0014858l0.0238056,0.0008831l0.0336533,0.0017967c0.0224247,0.0015526,0.0449123,0.0022621,0.0672264,0.0054245
					c0.0896626,0.0093174,0.1780949,0.0292988,0.264452,0.055872c0.3449612,0.1087742,0.6426105,0.3638668,0.8031979,0.693327
					l0.0149479,0.0308189l0.0073357,0.0154476l0.0032253,0.0062256l0.0128021,0.024931
					c0.0086689,0.0165253,0.0163479,0.0335598,0.0254593,0.0497704c0.0190811,0.0318966,0.0356197,0.065258,0.0568256,0.0955353
					c0.038662,0.0630722,0.0847015,0.1203308,0.131649,0.1755238c0.0481281,0.0542793,0.1000462,0.1037769,0.1534824,0.1501579
					c0.0551414,0.0438156,0.1106548,0.0869522,0.1706352,0.1202011c0.2381268,0.1394176,0.4994411,0.1813869,0.769537,0.1339054
					c0.2693691-0.0464916,0.5328922-0.1955662,0.732275-0.4036179l0.0376205-0.0389748l0.0344696-0.0419102l0.0347824-0.041605
					l0.0312347-0.0444508l0.0376396-0.0520782c0.0340233-0.0479183,0.0701485-0.0942993,0.1115303-0.1368866
					c0.0815392-0.0854645,0.1760902-0.1601086,0.2807465-0.2160358c0.1042976-0.056385,0.2168388-0.0976143,0.3341675-0.1198254
					c0.1173859-0.0217972,0.2389984-0.0256767,0.3598366-0.0101833c0.1209373,0.0157413,0.2402,0.0531139,0.3503723,0.1072254
					c0.0273056,0.0139732,0.0543251,0.0286217,0.0809059,0.0438576c0.0256119,0.0162621,0.0509109,0.0331841,0.0757751,0.0506554
					l0.0570145,0.0405445c0.1035385,0.070631,0.219326,0.1199436,0.3375397,0.1457043
					c0.1184731,0.0252247,0.2391968,0.0260124,0.3559303,0.0036125c0.1166954-0.0223045,0.2301178-0.0686321,0.3316154-0.1363449
					c0.0507774-0.0336914,0.0985909-0.0724316,0.1424484-0.1154041l0.0218353-0.0209103
					c0.0223961-0.021059,0.0453453-0.0416584,0.0687218-0.0616932c0.0228462-0.0204468,0.0483971-0.0384884,0.0738068-0.056509
					c0.0257797-0.0175648,0.0507278-0.0361023,0.0782928-0.0510883c0.1076736-0.0642815,0.226757-0.1087227,0.3491516-0.1354866
					c0.1229057-0.0255756,0.2495461-0.0300922,0.3748779-0.0156593c0.1254425,0.0154362,0.2492294,0.0528679,0.3655128,0.109314
					c0.1163292,0.0573673,0.222683,0.1368294,0.3137436,0.2301426c0.0434799,0.047863,0.0865326,0.0974369,0.1206474,0.150774
					l0.0261726,0.04002l0.0177803,0.0282288l0.0165825,0.02598c0.0860405,0.1399136,0.1845703,0.2717228,0.2952194,0.3913441
					c0.2216263,0.2387295,0.4859543,0.4333916,0.7750587,0.5639801c0.1444092,0.0654545,0.2946548,0.1151886,0.4478645,0.1482105
					c0.1531067,0.0340385,0.3099976,0.0455971,0.4667931,0.047224c0.6300163,0.0020256,1.2630005-0.2900772,1.7101326-0.7562275
					l0.0838852-0.0876884l0.078022-0.093111c0.0128212-0.0156593,0.0269127-0.030323,0.0388565-0.0466995l0.0355263-0.0493546
					c0.0118408-0.0164547,0.023838-0.0327911,0.0362854-0.0488243l0.0185432-0.0241604l0.0093002-0.0120621l0.0170059-0.0232468
					c0.1136131-0.1603146,0.2587357-0.2990265,0.4234962-0.4042454c0.1655655-0.1040554,0.3496284-0.1756268,0.5402603-0.2110519
					c0.1906357-0.0351982,0.388382-0.0331383,0.578331,0.0052757c0.0476608,0.0087185,0.0940323,0.0227509,0.1406288,0.0354576
					l0.0660591,0.0191593l0.124752,0.0362549l0.1263237,0.0288544l0.0631638,0.0146503l0.0637093,0.0106926l0.1274261,0.021719
					l0.1279984,0.0144691c0.042675,0.0061893,0.0853729,0.0079517,0.128067,0.0101929
					c0.0426521,0.0017262,0.0855293,0.0065517,0.1280708,0.0062428c0.0850983-0.0003643,0.1705246,0.0016232,0.2547455-0.0057926
					c0.0851173-0.0021667,0.1678429-0.0161419,0.2517586-0.0246792l0.1233902-0.0222874
					c0.041584-0.006115,0.0817184-0.0164738,0.1218643-0.0267563c0.0398712-0.0108833,0.0814857-0.0176525,0.1201973-0.0312881
					l0.117775-0.0371017c0.0390587-0.0127945,0.0761032-0.0295258,0.1144638-0.0437145l0.0570984-0.0221405l0.0547676-0.026144
					c0.0360756-0.0180588,0.0744629-0.0326595,0.1091156-0.0528717l0.105217-0.0587425
					c0.0349617-0.0197372,0.0667419-0.0436573,0.1005859-0.0648842l0.0500908-0.0327549l0.0469055-0.0365238
					c0.2539024-0.1884079,0.4646187-0.4416103,0.6242485-0.7336693c0.1603165-0.2918682,0.2636642-0.623785,0.3121834-0.9666958
					c0.048069-0.3432865,0.0419121-0.6986485-0.0193481-1.0463066c-0.0629654-0.3471584-0.1741257-0.6883068-0.3383598-1.0050373
					c-0.0817719-0.1584148-0.1736717-0.3122654-0.2775803-0.4586887l-0.030117-0.0438766
					c-0.0124664-0.0184822-0.0252075-0.0367794-0.036438-0.0560284c-0.0235329-0.0378819-0.0447922-0.0769863-0.0646172-0.1168232
					c-0.0390167-0.0799122-0.07061-0.1631279-0.0944176-0.2482948c-0.0464859-0.1705322-0.062336-0.3486576-0.0439453-0.5233593
					c0.0089836-0.0872898,0.0253105-0.1738987,0.0501251-0.257988l0.0214195-0.0741272
					c0.0062943-0.021719,0.012989-0.0433521,0.0184174-0.0652695c0.0113831-0.0437145,0.0235176-0.0873108,0.0330544-0.1312885
					l0.0153389-0.0658092l0.0124702-0.066103c0.0090256-0.0440407,0.0156212-0.0881119,0.0221901-0.1321487
					c0.0076103-0.0440617,0.0119133-0.0879784,0.0170364-0.1318874c0.0058327-0.0440121,0.0072937-0.0877094,0.0101891-0.1313992
					c0.0036774-0.0438271,0.003685-0.08708,0.0044022-0.1303482c0.0046234-0.3456974-0.0548592-0.6769257-0.1893387-0.96031
					c-0.129467-0.2846737-0.3329315-0.5318527-0.5839043-0.7431736c-0.2508163-0.2111921-0.5494537-0.3829756-0.8735199-0.5146236
					c-0.1625023-0.0645838-0.3302841-0.1235609-0.5043068-0.1681843c-0.1736832-0.0465546-0.3524094-0.0790071-0.5340309-0.1082115
					c-0.3638496-0.0560331-0.7412262-0.0852003-1.1359673-0.0930929c-0.1975365-0.0043516-0.399147-0.0015316-0.6069908,0.0037231
					c-0.2087593,0.0035505-0.4196587,0.0195065-0.6466446,0.021348c0.0379982-0.041647,0.0777473-0.0809488,0.1182251-0.1198616
					c0.0403481-0.0392275,0.0821342-0.0764284,0.1255302-0.1109743c0.0854912-0.0723486,0.1756783-0.1380053,0.2690697-0.1994514
					c0.1871567-0.1212234,0.385891-0.2308226,0.5960388-0.3134384c0.2092476-0.0860596,0.4278603-0.1544619,0.6526794-0.1994972
					c0.2246246-0.0454779,0.4548988-0.0752268,0.6874924-0.0790491c0.2326317-0.0053463,0.4666634,0.01196,0.7005844,0.0435991
					c0.0584183,0.0088301,0.1166039,0.0193205,0.1749725,0.0292864c0.0582123,0.0109606,0.116127,0.0244894,0.1743011,0.0368538
					c0.0582886,0.0116873,0.1157684,0.0284977,0.1735382,0.0436687c0.057785,0.0150814,0.1149406,0.0331964,0.1719704,0.0521736
					c0.4565353,0.1474438,0.8989754,0.3791456,1.2800674,0.7075205c0.1901817,0.1638203,0.3653831,0.3501644,0.5165596,0.5578442
					c0.1518173,0.2069159,0.2771072,0.4373884,0.3734512,0.6765738c0.0223885,0.06036,0.0485802,0.1196899,0.0667343,0.1810856
					l0.0555267,0.1837482l0.0429611,0.1854973c0.0133896,0.0618668,0.0216408,0.1240234,0.0322342,0.1860046
					c0.0352783,0.2481499,0.0478554,0.4948788,0.0370102,0.7366924c-0.0027809,0.0604172-0.0052605,0.1209145-0.0116501,0.1804066
					c-0.0054436,0.059721-0.0105553,0.1196022-0.0188904,0.1784229c-0.0073051,0.0590878-0.0141602,0.118351-0.0243988,0.1765308
					c-0.0092621,0.0585022-0.0188179,0.1169224-0.0309258,0.1744881c-0.02211,0.1158772-0.0483932,0.2300873-0.0779076,0.3434525
					c-0.0069466,0.0284672-0.0151978,0.0565243-0.0231094,0.084692l-0.0119667,0.0422211l-0.0059929,0.0211067l-0.002594,0.0092678
					l-0.0006142,0.0029602c-0.0048676,0.015379-0.0061073,0.0315495-0.0073853,0.0473804
					c-0.0026016,0.031847,0.0026207,0.0637512,0.0114059,0.0930195c0.0049782,0.0145168,0.0109901,0.0283508,0.0178719,0.0414772
					c0.0037384,0.0064087,0.007328,0.0128155,0.0116005,0.0187798c0.0016136,0.0033207,0.0043449,0.0058918,0.0064316,0.008873
					l0.0142326,0.0200596c0.1404762,0.1890926,0.2667389,0.3893757,0.3796234,0.5973225
					c0.2265396,0.4158344,0.3871269,0.8687553,0.48172,1.3359909c0.0928688,0.4678917,0.1135178,0.9521275,0.0569153,1.4320793
					c-0.0567856,0.4797077-0.1934471,0.9561901-0.4196358,1.399538c-0.2254677,0.4420776-0.5442734,0.8528919-0.9481049,1.1720352
					l-0.0748863,0.06036c-0.0257187,0.0189457-0.0520554,0.036953-0.0781403,0.0553818
					c-0.0526428,0.0359879-0.1041069,0.0744553-0.1583099,0.1076794l-0.1638947,0.0976353
					c-0.0546379,0.0326881-0.1121597,0.0586262-0.1683578,0.0878963l-0.0849228,0.0424385l-0.0867195,0.0372543
					c-0.0580864,0.0239697-0.115696,0.0501881-0.1745453,0.0716133l-0.1774521,0.0614586
					c-0.0590591,0.0213432-0.1195984,0.0348797-0.1794739,0.0523548c-0.0600204,0.0168324-0.1201324,0.033247-0.1808891,0.0447807
					c-0.0606232,0.0126495-0.1212769,0.0257435-0.1820602,0.0374146c-0.1218872,0.0175381-0.2440033,0.0389175-0.3663826,0.0466423
					c-0.1224785,0.0130615-0.2446632,0.0150356-0.3670464,0.0178871c-0.0611839,0.0015488-0.1219215-0.0023937-0.1829414-0.0036068
					c-0.0609856-0.00173-0.1220131-0.0033531-0.1824188-0.0097065l-0.1817398-0.0160542
					c-0.0602036-0.0075474-0.1201439-0.016716-0.1802216-0.0252533l-0.090065-0.0132236l-0.089077-0.0175991l-0.1780319-0.0362206
					l-0.1756287-0.0452805l-0.0841484-0.0215168c-0.0038795,0.0008926-0.0069771-0.0016022-0.0106201-0.0008335
					c-0.013752-0.0001621-0.0271721,0.000639-0.0402184,0.0054569c-0.0127487,0.0056267-0.0242081,0.0130615-0.0333138,0.0210838
					c-0.0083618,0.0091972-0.0144997,0.0176067-0.0194893,0.0275326l-0.0463715,0.0666142l-0.054821,0.0773354l-0.0555763,0.0768108
					c-0.0187263,0.0254478-0.0397491,0.0491562-0.059597,0.0737572l-0.1214714,0.145792
					c-0.0424385,0.0468769-0.0867348,0.0921898-0.1308823,0.1375275l-0.0664291,0.0677948l-0.0703087,0.0638523L41.279808,26.836277
					l-0.1498718,0.1168594c-0.0252495,0.0191193-0.0497398,0.0392189-0.0757027,0.0573673l-0.0787888,0.0532761
					c-0.2075043,0.1458378-0.4340591,0.2638168-0.6666069,0.3662605l-0.1773643,0.0709915
					c-0.0592117,0.0233421-0.1209526,0.0406017-0.1814384,0.0607529l-0.0912437,0.0288773
					c-0.0304184,0.0095863-0.0619049,0.0159893-0.0928383,0.0240269l-0.1865807,0.0448818l-0.189724,0.0320415
					c-0.0317192,0.0047722-0.0631218,0.0111866-0.0951042,0.0143814l-0.0960197,0.0091286
					c-0.0641136,0.0050735-0.1278839,0.013401-0.1922874,0.014883l-0.1932831,0.0031033
					c-0.2575569-0.0047665-0.516346-0.0305328-0.768013-0.0895844c-0.2516479-0.0579529-0.4962273-0.1431332-0.7281113-0.2523594
					c-0.4640923-0.2184677-0.8766823-0.5321045-1.2103386-0.9100437c-0.1671181-0.1888294-0.3141975-0.3940067-0.4409714-0.6101875
					l-0.0241356-0.0403328l-0.0051613-0.0085297l0.0019646,0.0039997c0.0014,0.0026264,0.0029716,0.0051575,0.0047073,0.007576
					c0.0077171,0.0084057,0.0143814,0.0205517,0.0247612,0.0285149c0.0178108,0.0200138,0.0414543,0.0351028,0.0646477,0.0461216
					c0.0227165,0.0119057,0.0467339,0.017252,0.0690498,0.0195141c0.0222931,0.003294,0.0442276,0.000946,0.0652618-0.0039539
					c0.0214882-0.0036297,0.0415154-0.0135956,0.059948-0.0244122c0.0040398-0.0038223,0.0092735-0.004961,0.0132561-0.0085487
					c0.0042419-0.0030518,0.0076065-0.0074234,0.0117912-0.0097065c0.0039101-0.0028896,0.0073891-0.0063572,0.0103188-0.0102749
					c0.0023003-0.0025883-0.0011253,0.0006275-0.0049057,0.0042362l-0.0099792,0.0093822l-0.0200157,0.0187111
					c-0.1067848,0.0996819-0.2231064,0.1893406-0.3472214,0.2672749c-0.2479019,0.1561756-0.5284233,0.2642841-0.8206635,0.3129444
					c-0.2920189,0.049118-0.5943336,0.0383434-0.8801308-0.0303764c-0.2858391-0.0689964-0.5551567-0.1935978-0.7904015-0.362669
					l-0.0435677-0.0324154c-0.0127487-0.0095749-0.0365067-0.0275688-0.0252724-0.0185528
					c0.0034828,0.0027981,0.007412,0.005024,0.0116234,0.0066204c0.0037498,0.0029449,0.0079346,0.0052967,0.0123978,0.0069771
					c0.0171013,0.0087566,0.0367355,0.0130253,0.0546379,0.0150986c0.0178909,0.0024643,0.0348701,0.0012589,0.050045-0.0026188
					c0.0151253-0.0035133,0.029438-0.0080204,0.0421982-0.0159836c0.0123253-0.0082455,0.0250816-0.0166702,0.034668-0.0278702
					c0.0044289-0.0059776,0.00951-0.0107708,0.0126648-0.016964c0.0032425-0.0053825-0.0051041,0.0064163-0.0093575,0.0121746
					l-0.0149651,0.020443l-0.0300674,0.0407963l-0.0606346,0.0811634l-0.0655823,0.0773182
					c-0.0221024,0.0255547-0.0438728,0.0514069-0.0665512,0.0764332l-0.0710678,0.0723972
					c-0.3813248,0.3822041-0.8785896,0.6572342-1.4301586,0.7460098c-0.2746563,0.0446053-0.5617371,0.0435028-0.8410835-0.0126076
					l-0.0523796-0.010046l-0.0517044-0.0131111c-0.0343876-0.0090523-0.0689011-0.0177975-0.1029758-0.0276966
					c-0.0671978-0.0223598-0.1351776-0.0431442-0.1998558-0.0710983c-0.1313896-0.0517349-0.2555733-0.1174965-0.3734035-0.1909103
					c-0.1187305-0.0726738-0.2268257-0.158432-0.330225-0.2481117c-0.1016064-0.0915165-0.1955414-0.1902256-0.2801857-0.2954979
					c-0.0835648-0.1058655-0.1615314-0.2158108-0.2272587-0.3322048c-0.0348511-0.0571499-0.0636997-0.1172771-0.0941544-0.1765156
					c-0.0145779-0.0299168-0.027338-0.0606365-0.040884-0.0909805l-0.0198936-0.0456753l-0.0059166-0.0135612l-0.0016918-0.0043507
					c-0.0158863-0.0466003-0.0532475-0.0889702-0.1028862-0.1109543c-0.0125713-0.0044613-0.0251503-0.009861-0.0386829-0.012352
					c-0.0032578-0.0014515-0.0068245-0.0009403-0.0102215-0.001749l-0.0051403-0.0010281
					c-0.0014534-0.000206-0.000412-0.0004005-0.0039005-0.0006599l-0.0111256-0.0007858l-0.0890408-0.006382
					c-0.1185074-0.0100365-0.2364902-0.0238743-0.3537464-0.0429058c-0.468401-0.0745811-0.9300747-0.2226849-1.3489628-0.4547215
					c-0.2100868-0.1142273-0.4068356-0.2515717-0.5903435-0.4020081c-0.0452118-0.0384598-0.0912514-0.0758457-0.1342812-0.1166306
					l-0.1268215-0.1245995c-0.0858612-0.0813084-0.1610012-0.1734638-0.2370281-0.2636433
					c-0.3008022-0.364994-0.5159664-0.7905617-0.6501579-1.2272224c-0.0604267-0.2213249-0.0924034-0.4491863-0.0864887-0.6772118
					c0.0022182-0.1138,0.0145664-0.2277222,0.0372829-0.3401928C25.1386051,21.7038746,25.171978,21.5921993,25.223917,21.4855366z"
					/>
			</g>
		</g>
		<g opacity="0.25">
			<path d="M44.1191673,15.4144068c0.2136917,0.3900728,0.6868248,1.3850183,0.4997902,2.6375856
				c-0.0303764,0.2034283-0.0748863,0.3916912-0.1272469,0.5637436c-0.129097,0.4242306-0.0728035,0.8817806,0.1425858,1.2693977
				c0.716877,1.2901173,0.3529472,2.7492981-0.443264,3.2430611c-0.4775162,0.2961292-1.1959305,0.2979755-1.8881493-0.0108738
				c-0.5875511-0.2621479-1.2722054-0.0432968-1.6116791,0.5032349c-0.3458443,0.5567951-0.8835754,0.966301-1.5069466,1.1126823
				c-0.9583435,0.2250385-1.9963264-0.2006397-2.6048431-1.0347271c-0.2236252-0.3065243-0.6631584-0.3412018-0.9358559-0.0773811
				c-0.3224297,0.3119354-0.7648468,0.476141-1.2025604,0.4173851c-0.2650261-0.0355682-0.5121422-0.1507072-0.7170372-0.3234749
				c-0.3126297-0.2636127-0.7789764-0.2399006-1.0499001,0.0664139c-0.3391342,0.3834248-0.8146515,0.6243801-1.3233681,0.6403561
				c-0.5396767,0.0169544-1.0618343-0.2209969-1.4326286-0.6298122c-0.2706356-0.2983799-0.6743908-0.4381561-1.071907-0.372942
				c-0.8738213,0.1433601-2.3954296,0.0726891-3.6281681-1.6563454c0,0,0.4204617,2.9881096,3.8874569,3.2548122
				c0,0,1.0830822,3.0991211,3.7483253,0.4851151c0,0,1.6351357,0.8116856,2.9287529-0.3861046
				c0,0,3.0903091,3.8568935,5.8452339,0.0958214c0.1086082,0.0460815,2.1394615,0.8712997,3.6173363-0.2874718
				c0.8351822-0.6548557,1.0533981-1.598053,1.148838-2.0105724c0.3986053-1.7229137-0.4231567-3.1417561-0.6536179-3.5120678
				c0.0531197-0.1026993,0.7142029-1.4358463-0.0161057-2.718174C45.21101,15.7829542,44.3387833,15.4829407,44.1191673,15.4144068z
				"/>
			<path d="M38.9321289,26.8800907c-1.6495972,0.0000572-3.0000496-1.5527-3.15168-1.7336369
				c-1.2247925,1.1159782-2.7631111,0.4542561-2.9224815,0.3809624c-0.8467484,0.8270359-1.6229057,1.1655293-2.3072662,1.0056343
				c-0.9543114-0.2228832-1.4096775-1.3621235-1.4600716-1.4959717c-1.7905788-0.1416874-2.7533569-1.0213184-3.2460155-1.7352657
				c-0.5350666-0.7754116-0.6460152-1.5287113-0.6470642-1.5362282l-0.0117741-0.0836163l0.0490246,0.068737
				c1.2439785,1.7448025,2.7945614,1.7814293,3.6080093,1.6479855c0.4069462-0.0668659,0.814539,0.0751286,1.090538,0.3794308
				c0.3740501,0.4124489,0.8890018,0.6395054,1.4166927,0.6230583c0.4891529-0.0153618,0.9661255-0.2462292,1.3085251-0.6334
				c0.277935-0.3141975,0.7517662-0.3441944,1.0786858-0.0685177c0.2066994,0.1742649,0.4510117,0.2845078,0.7064934,0.3187981
				c0.4179497,0.0561771,0.860981-0.097847,1.1854439-0.4117641c0.1352158-0.130806,0.3193779-0.1965618,0.5053139-0.1806965
				c0.1840401,0.0158443,0.3522797,0.1108913,0.4616127,0.2607613c0.6085281,0.8340912,1.6466522,1.2467213,2.5834312,1.0267811
				c0.6017075-0.1413059,1.1462936-0.5434952,1.494133-1.1034603c0.3442993-0.5543385,1.048172-0.7741604,1.6376266-0.5112019
				c0.6775017,0.3022881,1.393631,0.3068829,1.8688316,0.0121746c0.7819633-0.4849167,1.1533508-1.9247284,0.4360924-3.215498
				c-0.219841-0.3957157-0.2724533-0.8642445-0.1442871-1.2854233c0.0557976-0.1833553,0.0984077-0.3720322,0.1266289-0.560791
				c0.1752129-1.1735878-0.2364883-2.1481371-0.4974937-2.6246071l-0.0245934-0.0448542l0.0488205,0.0152206
				c0.3248253,0.1013546,1.1325912,0.4288588,1.6168633,1.2791529c0.7147179,1.2550068,0.1173973,2.5384979,0.0218086,2.7273979
				c0.32547,0.5260963,1.0241814,1.9007835,0.6500931,3.5177193c-0.0944176,0.4079571-0.3154335,1.3629131-1.1562538,2.0221558
				c-1.4503975,1.1372051-3.4154663,0.3813839-3.6230087,0.2965012c-0.7865982,1.0685463-1.6767273,1.6208496-2.6459999,1.6418343
				C38.969902,26.8798885,38.9509506,26.8800907,38.9321289,26.8800907z M35.7847633,25.0863247l0.0138664,0.0173149
				c0.0141525,0.0177402,1.4415703,1.772438,3.1894569,1.73456c0.9596329-0.0208645,1.8421402-0.5719795,2.6230164-1.6380444
				l0.0096741-0.0131855l0.0150375,0.0063705c0.0856323,0.0363865,2.1151237,0.8768883,3.5965233-0.2847061
				c0.8293724-0.6502514,1.0480843-1.5952511,1.1414566-1.9987888c0.3730392-1.6123466-0.3309937-2.9824543-0.6510201-3.4966984
				l-0.0062065-0.0099621l0.0054016-0.0104408c0.0295906-0.057127,0.7156868-1.4142513-0.015686-2.6984463
				c-0.4543533-0.7977695-1.1982193-1.1284771-1.5444908-1.2444038c0.2637863,0.49582,0.6492043,1.4557781,0.477581,2.6051369
				c-0.0285034,0.1907539-0.0715179,0.3814278-0.1279221,0.5667152c-0.124939,0.4105377-0.0735779,0.8673744,0.1408997,1.253376
				c0.728508,1.3110237,0.3473206,2.7758923-0.4504433,3.270607c-0.4867287,0.3018837-1.2176132,0.2982178-1.9074554-0.0095539
				c-0.5705872-0.2546139-1.252243-0.041626-1.5856972,0.4952755c-0.3535652,0.5691967-0.907505,0.9780998-1.5197754,1.1218834
				c-0.9527817,0.2237568-2.0080833-0.1952858-2.6262474-1.0426617c-0.1022797-0.1401978-0.2596703-0.2291126-0.431778-0.2439289
				c-0.1738434-0.0149994-0.3463936,0.0466862-0.4730644,0.1692238c-0.3334503,0.322649-0.7895393,0.4808254-1.2196274,0.4230118
				c-0.2632637-0.0353374-0.5148735-0.1488247-0.7276192-0.3281479c-0.309742-0.2612076-0.7582588-0.2329025-1.0211143,0.0642834
				c-0.3499794,0.3956795-0.8377209,0.6316032-1.3381977,0.6473503c-0.5387783,0.0165291-1.066309-0.2151642-1.4485416-0.6366043
				c-0.2666073-0.2939034-0.660532-0.4308949-1.0532875-0.3664513c-0.8113117,0.1330814-2.3468952,0.0993195-3.5945034-1.5905514
				c0.0461216,0.2205429,0.2016602,0.8186455,0.6246109,1.4310207c0.4887867,0.7076607,1.4454746,1.5799923,3.2273884,1.7170639
				l0.0134659,0.0010281l0.0044346,0.0127411c0.0043964,0.012495,0.4483891,1.2518234,1.43536,1.4821835
				c0.6723423,0.1569099,1.4391041-0.1811752,2.2790432-1.0049877l0.0104828-0.0102787l0.0131836,0.0065308
				c0.0162048,0.0080414,1.6375389,0.791214,2.9055099-0.3827572L35.7847633,25.0863247z"/>
		</g>
		<g opacity="0.25">
			<path d="M48.4131203,37.9120941c0,0-2.2232475,8.6238937-10.2321968,9.9036751c0,0,11.4059067-0.1734276,14.062809-12.9670868
				C52.2437325,34.8486824,50.0583954,37.5035667,48.4131203,37.9120941z"/>
		</g>
	</g>
</g>
<path fill="none" d="M63.2377625,21.7825928V-0.9529419H7.7571716v26.0910645
	c-2.3203735,4.4638062-3.6393433,9.5314941-3.6393433,14.9100952c0,17.8841553,14.4979858,32.3821411,32.3822021,32.3821411
	c17.8841553,0,32.3821411-14.4979858,32.3821411-32.3821411C68.8821716,33.2709961,66.7969666,26.9825439,63.2377625,21.7825928z"/>
</svg>
