<?xml version="1.0" encoding="utf-8"?>
<!-- Generator: Adobe Illustrator 27.8.1, SVG Export Plug-In . SVG Version: 6.00 Build 0)  -->
<svg version="1.1" id="レイヤー_1" xmlns="http://www.w3.org/2000/svg" xmlns:xlink="http://www.w3.org/1999/xlink" x="0px"
	 y="0px" viewBox="0 0 295 174" style="enable-background:new 0 0 295 174;" xml:space="preserve">
<style type="text/css">
	.st0{fill:#3FFFAE;}
	.st1{clip-path:url(#SVGID_00000017499140321837855040000008611002043734259358_);}
	.st2{opacity:0.25;}
	.st3{fill:#2A0049;}
	.st4{fill:#33CC66;}
	.st5{fill:#330066;}
	.st6{opacity:0.5;}
	.st7{fill:#FFFFFF;}
	.st8{fill:#333333;}
	.st9{opacity:0.6;}
	.st10{fill:#CCFF99;}
	.st11{fill:#313333;}
	.st12{fill:#FF87CA;}
	.st13{fill:#FF3366;}
	.st14{fill:#29ED49;}
	.st15{fill:#116530;}
</style>
<path class="st0" d="M10,0h275c5.5,0,10,4.5,10,10v154c0,5.5-4.5,10-10,10H10c-5.5,0-10-4.5-10-10V10C0,4.5,4.5,0,10,0z"/>
<g>
	<defs>
		<rect id="SVGID_1_" x="88" y="13" width="118.2" height="147.6"/>
	</defs>
	<clipPath id="SVGID_00000147903045942987700520000009722272182124790687_">
		<use xlink:href="#SVGID_1_"  style="overflow:visible;"/>
	</clipPath>
	<g style="clip-path:url(#SVGID_00000147903045942987700520000009722272182124790687_);">
		<g class="st2">
			<path class="st3" d="M150.9,78.2C150.9,78.2,150.9,78.2,150.9,78.2C150.9,78.1,150.9,78.1,150.9,78.2
				C150.9,78.1,150.9,78.2,150.9,78.2z"/>
		</g>
		<g class="st2">
			<path d="M138.8,75.9c-0.1,0.2-0.3,0.4-0.4,0.3c-0.2-0.1-0.2-0.3-0.1-0.5c0.1-0.2,0.3-0.4,0.4-0.3
				C138.9,75.4,138.9,75.6,138.8,75.9z"/>
			<path class="st3" d="M138.5,76.3C138.4,76.3,138.4,76.3,138.5,76.3c-0.2-0.1-0.3-0.3-0.2-0.6c0.1-0.3,0.3-0.4,0.5-0.4
				c0.2,0.1,0.2,0.3,0.1,0.6C138.8,76.1,138.6,76.3,138.5,76.3z M138.6,75.3c-0.1,0-0.3,0.1-0.4,0.3c-0.1,0.2,0,0.5,0.1,0.5
				c0.1,0,0.3-0.1,0.4-0.3C138.9,75.6,138.8,75.4,138.6,75.3C138.7,75.4,138.7,75.3,138.6,75.3z"/>
		</g>
		<path class="st4" d="M178.6,100.5c0,0-0.1,0-0.1,0c-2.6-0.3-4.9-2.1-5.9-4.7c-0.5-0.2-1.2-0.3-2-0.4c-0.8,0-1.6,0-2.1,0.1
			l-0.1,0.5c-0.1,0.5-0.4,0.9-0.9,1c-0.4,0.1-0.8,0.1-1.2,0.1c-0.2,0-0.4,0-0.6,0c-0.9-0.1-1.6-0.7-1.7-1.6c0-0.1,0-0.1,0-0.2
			c-0.2-1.5-0.3-3.1-0.1-5c0-0.4,0.1-0.8,0.1-1.2c0,0,0.3-2.6,1.4-4.7c0.3-0.6,0.7-1.3,0.7-1.3c0.1-0.1,0.1-0.1,0.1-0.1
			c0,0,0-0.1,0.1-0.1c0.4-0.5,0.9-0.8,1.5-0.8c0.4,0,0.8-0.1,1.3-0.1c0.2,0,0.5,0,0.7,0c0.2,0,0.4,0.1,0.6,0.1
			c0.4,0.2,0.7,0.7,0.7,1.2c6.6-1.2,12.5,1.9,14.2,6.5c0.8,2.1,0.6,4.2,0.2,5.7C184.6,98.7,181.7,100.8,178.6,100.5z"/>
		<path class="st5" d="M179.2,101.2c-0.2,0-0.4,0-0.6,0h0c0,0-0.1,0-0.1,0c-1.4-0.2-2.7-0.7-3.9-1.6c-1-0.8-1.9-1.9-2.4-3.2
			c-0.5-0.1-1.1-0.2-1.6-0.3c-0.5,0-1,0-1.5,0c-0.1,0.7-0.7,1.3-1.4,1.5c-0.4,0.1-0.9,0.1-1.3,0.1c-0.2,0-0.5,0-0.7,0
			c-1.1-0.1-2.1-1-2.2-2.1l0,0c0-0.1,0-0.1,0-0.2c-0.2-1.7-0.3-3.4-0.1-5.1c0-0.4,0.1-0.8,0.1-1.2l0,0c0-0.1,0.4-2.7,1.4-4.9
			c0.3-0.7,0.7-1.3,0.8-1.4c0-0.1,0.1-0.1,0.1-0.1l0,0c0,0,0.1-0.1,0.1-0.1l0,0c0.5-0.6,1.2-1,1.9-1.1c0.4,0,0.9-0.1,1.3-0.1
			c0.2,0,0.5,0,0.7,0c0.3,0,0.6,0.1,0.8,0.2c0.4,0.2,0.8,0.6,0.9,1c3-0.4,6.1,0,8.7,1.2c2.7,1.3,4.7,3.4,5.6,5.8
			c0.7,1.9,0.8,3.9,0.2,6.1c-0.4,1.6-1.4,3-2.7,4C182.1,100.7,180.6,101.2,179.2,101.2z M178.7,99.9c2.8,0.3,5.3-1.6,6-4.3
			c0.5-1.9,0.4-3.7-0.2-5.4c-1.7-4.6-7.5-7.2-13.5-6.1l-0.7,0.1l0-0.8c0-0.3-0.1-0.5-0.4-0.6c-0.1,0-0.2-0.1-0.3-0.1
			c-0.2,0-0.4,0-0.7,0c-0.4,0-0.8,0-1.2,0.1c-0.4,0-0.8,0.2-1,0.6c0,0,0,0,0,0.1l0,0c0,0,0,0.1-0.1,0.1c0,0-0.4,0.6-0.7,1.2
			c-1,1.9-1.3,4.4-1.3,4.5c0,0.4-0.1,0.8-0.1,1.1c-0.1,1.6-0.1,3.2,0.1,4.9c0,0.1,0,0.1,0,0.2l0,0c0.1,0.6,0.5,1,1.1,1
			c0.2,0,0.4,0,0.6,0c0.4,0,0.8,0,1.1-0.1c0.2,0,0.4-0.2,0.4-0.4l0.1-0.9l0.5-0.1c0.7-0.1,1.5-0.2,2.3-0.1c0.7,0,1.5,0.2,2.2,0.4
			l0.3,0.1l0.1,0.3c0.9,2.3,3,4,5.3,4.3C178.6,99.9,178.7,99.9,178.7,99.9z"/>
		<g class="st6">
			<path class="st7" d="M185.1,90c-1.7-4.7-7.7-7.7-14.2-6.5c0-0.5-0.3-1-0.7-1.2c-0.2-0.1-0.4-0.1-0.6-0.1c-0.2,0-0.4,0-0.7,0
				c-0.5,0-0.9,0-1.3,0.1c-0.6,0.1-1.1,0.4-1.5,0.8c0,0,0,0.1-0.1,0.1c0,0,0,0.1-0.1,0.1c0,0,0,0-0.1,0.1c0.2-0.1,0.5-0.2,0.7-0.2
				c0.4,0,0.8-0.1,1.3-0.1c0.2,0,0.5,0,0.7,0c0.2,0,0.4,0.1,0.6,0.1c0.4,0.2,0.7,0.7,0.7,1.2c6.6-1.2,12.5,1.9,14.2,6.5
				c0.8,2.1,0.6,4.2,0.2,5.7c-0.2,0.9-0.7,1.8-1.2,2.5c1.1-0.8,1.8-2,2.2-3.4C185.7,94.1,185.9,92.1,185.1,90z"/>
		</g>
		<path class="st5" d="M179.2,101.2c-0.2,0-0.4,0-0.6,0h0c0,0-0.1,0-0.1,0c-1.4-0.2-2.7-0.7-3.9-1.6c-1-0.8-1.9-1.9-2.4-3.2
			c-0.5-0.1-1.1-0.2-1.6-0.3c-0.5,0-1,0-1.5,0c-0.1,0.7-0.7,1.3-1.4,1.5c-0.4,0.1-0.9,0.1-1.3,0.1c-0.2,0-0.5,0-0.7,0
			c-1.1-0.1-2.1-1-2.2-2.1l0,0c0-0.1,0-0.1,0-0.2c-0.2-1.7-0.3-3.4-0.1-5.1c0-0.4,0.1-0.8,0.1-1.2l0,0c0-0.1,0.4-2.7,1.4-4.9
			c0.3-0.7,0.7-1.3,0.8-1.4c0-0.1,0.1-0.1,0.1-0.1l0,0c0,0,0.1-0.1,0.1-0.1l0,0c0.5-0.6,1.2-1,1.9-1.1c0.4,0,0.9-0.1,1.3-0.1
			c0.2,0,0.5,0,0.7,0c0.3,0,0.6,0.1,0.8,0.2c0.4,0.2,0.8,0.6,0.9,1c3-0.4,6.1,0,8.7,1.2c2.7,1.3,4.7,3.4,5.6,5.8
			c0.7,1.9,0.8,3.9,0.2,6.1c-0.4,1.6-1.4,3-2.7,4C182.1,100.7,180.6,101.2,179.2,101.2z M178.7,99.9c2.8,0.3,5.3-1.6,6-4.3
			c0.5-1.9,0.4-3.7-0.2-5.4c-1.7-4.6-7.5-7.2-13.5-6.1l-0.7,0.1l0-0.8c0-0.3-0.1-0.5-0.4-0.6c-0.1,0-0.2-0.1-0.3-0.1
			c-0.2,0-0.4,0-0.7,0c-0.4,0-0.8,0-1.2,0.1c-0.4,0-0.8,0.2-1,0.6c0,0,0,0,0,0.1l0,0c0,0,0,0.1-0.1,0.1c0,0-0.4,0.6-0.7,1.2
			c-1,1.9-1.3,4.4-1.3,4.5c0,0.4-0.1,0.8-0.1,1.1c-0.1,1.6-0.1,3.2,0.1,4.9c0,0.1,0,0.1,0,0.2l0,0c0.1,0.6,0.5,1,1.1,1
			c0.2,0,0.4,0,0.6,0c0.4,0,0.8,0,1.1-0.1c0.2,0,0.4-0.2,0.4-0.4l0.1-0.9l0.5-0.1c0.7-0.1,1.5-0.2,2.3-0.1c0.7,0,1.5,0.2,2.2,0.4
			l0.3,0.1l0.1,0.3c0.9,2.3,3,4,5.3,4.3C178.6,99.9,178.7,99.9,178.7,99.9z"/>
		<path class="st8" d="M166.2,83C166.2,83,166.2,83,166.2,83c-0.1,0.1-0.1,0.2-0.2,0.2c0,0-0.4,0.7-0.7,1.3c-1,2.1-1.4,4.7-1.4,4.7
			c0,0.4-0.1,0.8-0.1,1.2c-0.1,1.8,0,3.5,0.1,5c-1.6,0.7-3.7,1.3-6,1.8c-2.8,0.6-5.4,0.7-7.4,0.7c-0.3,2.7-0.6,5.6-1.1,8.6
			c-0.2,1-0.4,2.1-0.6,3.2c-0.6,3.3-1.4,6.5-2.2,9.3c0,0,0,0.1,0,0.1c0,0,0,0,0,0.1c0,0,0,0,0,0c0,0,0,0,0,0.1c0,0,0,0.1,0,0.1
			c0,0,0,0,0,0.1c0,0.1-0.1,0.2-0.1,0.2c0,0,0,0.1,0,0.1c0,0,0,0-0.1,0.1c0,0,0,0-0.1,0.1c0,0,0,0-0.1,0.1c0,0,0,0-0.1,0.1
			c0,0,0,0-0.1,0.1c0,0,0,0-0.1,0.1c0,0,0,0,0,0c0,0,0,0-0.1,0.1c0,0-0.1,0.1-0.1,0.1c0,0,0,0-0.1,0.1c0,0,0,0-0.1,0l0,0
			c0,0,0,0-0.1,0c0,0,0,0,0,0c0,0,0,0-0.1,0c0,0,0,0,0,0c0,0,0,0-0.1,0c0,0-0.1,0-0.1,0c0,0,0,0,0,0c0,0,0,0-0.1,0c0,0,0,0,0,0
			c0,0,0,0,0,0c0,0,0,0,0,0c0,0-0.1,0-0.1,0c0,0-0.1,0-0.1,0c0,0,0,0-0.1,0c-0.1,0-0.2,0-0.3,0.1c-4.1,0.5-12.3,0.8-21-3.6
			c-7-3.6-11.2-8.7-13.3-11.9c0,0,0-0.1-0.1-0.1c0,0,0,0,0,0c0,0,0,0,0,0c0,0,0,0,0-0.1c0,0,0,0,0,0c0,0,0-0.1,0-0.1c0,0,0,0,0,0
			c0,0,0-0.1-0.1-0.1c0,0,0-0.1-0.1-0.1c0,0,0,0,0,0c0,0,0-0.1,0-0.1c0,0,0-0.1,0-0.1c0,0,0-0.1,0-0.1c0,0,0-0.1,0-0.1
			c-0.1-0.2-0.1-0.4-0.1-0.6c0,0,0,0,0-0.1c0,0,0-0.1,0-0.1c0,0,0,0,0-0.1c0-0.2,0-0.4,0-0.6c0-0.1,0-0.2,0-0.3c0-0.1,0-0.2,0.1-0.2
			c0.2-0.7,0.4-1.4,0.5-2c0.1-0.6,0.3-1.2,0.4-1.7c0.1-0.5,0.3-1.1,0.4-1.6c-0.5,0.2-4.7,1.5-8.7-1.1c-3.1-2-4.1-5.2-4.4-6.9
			c0,0,0,0,0.1,0c1.3,0.2,3.1,0.3,5.2-0.4c0.7-0.2,2.4-0.7,4-2.1c0.2-0.2,0.4-0.4,0.6-0.5c0.4-0.3,0.5-0.9,0.3-1.3
			c-0.1-0.3-0.2-0.5-0.3-0.7c-0.1-0.2-0.3-0.4-0.4-0.6c2.4-2.8,6.1-6.2,10.9-6.6c1.1-0.1,1.8,0,4,0.6c0,0,0,0,0,0c0,0,0,0,0,0
			c0.1,0,0.1,0.1,0.2,0.1c0,0,0,0,0.1,0c0.3,0.1,0.5,0.3,0.7,0.4c0.1,0,0.2,0.1,0.2,0.1c0.3,0.2,0.7,0.4,1,0.5
			c0.1,0,0.1,0.1,0.2,0.1c0.2,0.1,0.4,0.2,0.6,0.3c0,0,0.1,0,0.1,0.1c0.1,0.1,0.2,0.1,0.4,0.2c0.1,0.1,0.3,0.1,0.4,0.2
			c0.1,0,0.1,0.1,0.2,0.1c0,0,0,0,0,0c0.1,0.1,0.2,0.1,0.3,0.2c0.2,0.1,0.3,0.1,0.5,0.2c0,0,0.1,0,0.1,0c0.1,0,0.1,0.1,0.2,0.1
			c0.1,0,0.1,0.1,0.2,0.1c0,0,0.1,0,0.1,0.1c0.1,0,0.2,0.1,0.2,0.1l0,0c0,0,0.1,0,0.1,0.1c0.4,0.2,0.7,0.3,0.9,0.4
			c0.1,0,0.1,0,0.2,0.1c0,0,0,0,0.1,0c0,0,0.1,0,0.1,0.1c0,0,0,0,0.1,0c0,0,0.1,0,0.1,0c0,0,0,0,0,0c0.1,0,0.1,0,0.2,0.1
			c0,0,0,0,0,0c0,0,0.1,0,0.1,0.1c0,0,0.1,0,0.1,0c0,0,0.1,0,0.1,0c0.1,0.1,0.3,0.1,0.4,0.2c0,0,0.1,0,0.1,0c0,0,0.1,0,0.1,0
			c0.1,0,0.1,0.1,0.2,0.1c0,0,0.1,0,0.1,0c0,0,0.1,0,0.1,0c0,0,0.1,0,0.1,0c0,0,0.1,0,0.1,0c0.1,0,0.2,0.1,0.3,0.1c0,0,0.1,0,0.1,0
			c0.1,0,0.2,0.1,0.3,0.1c0.1,0,0.2,0.1,0.3,0.1c0.1,0,0.2,0.1,0.3,0.1c0.3,0.1,0.6,0.2,0.9,0.3c0.1,0,0.2,0.1,0.3,0.1
			c0.1,0,0.2,0.1,0.3,0.1c0.1,0,0.2,0.1,0.3,0.1c0.2,0,0.3,0.1,0.5,0.1c0,0,0,0,0,0c0.1,0,0.1,0,0.2,0.1c0.1,0,0.1,0,0.2,0.1
			c0.1,0,0.3,0.1,0.4,0.1c0.2,0,0.4,0.1,0.6,0.1c0.2,0,0.3,0.1,0.5,0.1c0.1,0,0.2,0,0.3,0.1c0,0,0,0,0,0c0.2,0,0.4,0.1,0.7,0.1
			c0.1,0,0.1,0,0.2,0c0.1,0,0.1,0,0.2,0c0.2,0,0.5,0.1,0.7,0.1c0.1,0,0.2,0,0.2,0c0,0,0.1,0,0.1,0c0.1,0,0.1,0,0.2,0
			c0.4,0.1,0.8,0.1,1.2,0.2c0.2,0,0.3,0,0.5,0.1c0.1,0,0.3,0,0.4,0c0.1,0,0.3,0,0.4,0c0.1,0,0.1,0,0.2,0c0.2,0,0.4,0,0.6,0
			c0.1,0,0.1,0,0.2,0c0,0,0,0,0,0c0.1,0,0.1,0,0.2,0c0.1,0,0.2,0,0.3,0c0,0,0.1,0,0.1,0c0.1,0,0.1,0,0.2,0c0.1,0,0.1,0,0.2,0
			c0.5,0,1.1,0,1.6,0c0.1,0,0.1,0,0.2,0c0.1,0,0.1,0,0.2,0c0.1,0,0.2,0,0.3,0c0.1,0,0.2,0,0.3,0c0,0,0,0,0,0c0.1,0,0.1,0,0.2,0
			c0.1,0,0.1,0,0.2,0c0.1,0,0.1,0,0.2,0c0.1,0,0.2,0,0.2,0c0.1,0,0.3,0,0.4,0c0.1,0,0.3,0,0.4,0c0.2,0,0.4,0,0.6-0.1
			c2.4-0.3,4.8-0.9,7.2-1.9h0c1.6,0.1,3.3,0.2,5,0.3C163.5,82.5,165.2,82.8,166.2,83z"/>
		<path class="st5" d="M140.1,121.7c-1.4,0-2.9-0.1-4.3-0.2c-4.4-0.5-8.5-1.8-12.4-3.7c-6.9-3.5-11.2-8.5-13.6-12.1c0,0,0,0,0-0.1
			l0-0.1c0,0,0,0,0,0c0,0,0-0.1-0.1-0.1l0,0c0,0,0-0.1,0-0.1c0,0,0,0,0,0c0,0,0-0.1-0.1-0.1c0,0,0,0,0,0l-0.1-0.1v-0.1c0,0,0,0,0,0
			c0,0,0-0.1-0.1-0.1c0,0,0-0.1,0-0.1c0-0.1,0-0.1,0-0.2c-0.1-0.2-0.1-0.5-0.1-0.7l0,0c0,0,0,0,0-0.1c0,0,0-0.1,0-0.1c0,0,0,0,0-0.1
			c0-0.2,0-0.4,0-0.7c0-0.1,0-0.3,0.1-0.4c0-0.1,0-0.2,0.1-0.3c0.2-0.7,0.4-1.4,0.5-2c0.1-0.5,0.3-1.1,0.4-1.7
			c0-0.2,0.1-0.4,0.1-0.6c-1.7,0.4-5,0.7-8.2-1.4c-3.3-2.2-4.3-5.5-4.7-7.3l-0.2-0.9l0.9,0.2c0,0,0,0,0,0l0,0
			c1.7,0.2,3.4,0.1,4.9-0.3c0.6-0.2,2.2-0.7,3.8-2c0.2-0.2,0.4-0.3,0.5-0.5c0.2-0.2,0.2-0.4,0.1-0.6c-0.1-0.2-0.2-0.4-0.3-0.6
			c-0.1-0.2-0.2-0.4-0.3-0.5l-0.3-0.4L107,83c3.5-4.2,7.3-6.5,11.3-6.9c1.2-0.1,2,0,4.2,0.6l0.2,0l0.1,0.1c0.1,0,0.1,0.1,0.2,0.1
			c0,0,0,0,0.1,0c0.3,0.2,0.5,0.3,0.7,0.4l0.2,0.1c0.3,0.2,0.6,0.3,1,0.5c0.1,0,0.1,0.1,0.2,0.1c0.2,0.1,0.4,0.2,0.6,0.3l0.5,0.2
			c0.1,0.1,0.3,0.1,0.4,0.2c0.1,0,0.1,0.1,0.2,0.1l0,0c0,0,0,0,0,0c0.1,0.1,0.2,0.1,0.3,0.1l0,0c0.2,0.1,0.3,0.1,0.5,0.2l0.1,0
			c0.1,0,0.1,0.1,0.2,0.1l0.2,0.1c0,0,0.1,0,0.1,0.1c0.1,0,0.1,0.1,0.2,0.1l0,0c0,0,0.1,0,0.1,0c0.3,0.1,0.6,0.3,0.9,0.4l0.2,0.1
			c0,0,0,0,0,0l0.1,0c0,0,0.1,0,0.1,0l0,0c0,0,0,0,0,0l0.1,0.1c0,0,0,0,0,0c0,0,0.1,0,0.1,0.1c0,0,0,0,0.1,0l0,0c0,0,0.1,0,0.1,0
			c0,0,0,0,0.1,0l0,0c0,0,0,0,0.1,0l0,0c0.1,0,0.2,0.1,0.3,0.1l0.1,0c0,0,0.1,0,0.1,0l0,0c0,0,0,0,0.1,0l0.1,0c0,0,0.1,0,0.1,0
			c0,0,0.1,0,0.1,0c0,0,0.1,0,0.1,0l0,0c0,0,0.1,0,0.1,0l0,0c0,0,0.1,0,0.1,0l0,0c0.1,0,0.1,0,0.2,0.1l0.2,0.1
			c0.1,0,0.2,0.1,0.3,0.1c0.1,0,0.2,0.1,0.3,0.1c0.1,0,0.1,0,0.2,0.1c0,0,0.1,0,0.1,0c0.3,0.1,0.6,0.2,0.9,0.3l0.1,0
			c0.1,0,0.1,0,0.2,0.1c0.1,0,0.2,0.1,0.3,0.1l0.1,0c0.1,0,0.1,0,0.2,0.1c0.1,0,0.3,0.1,0.4,0.1l0,0c0.1,0,0.1,0,0.2,0
			c0.1,0,0.1,0,0.2,0l0,0c0.1,0,0.3,0.1,0.4,0.1c0.2,0.1,0.4,0.1,0.6,0.1c0.2,0,0.3,0.1,0.5,0.1c0.1,0,0.2,0,0.3,0.1l0.1,0
			c0,0,0,0,0,0c0.2,0.1,0.4,0.1,0.6,0.1c0.1,0,0.1,0,0.2,0c0.1,0,0.1,0,0.2,0c0.2,0,0.4,0.1,0.7,0.1l0.2,0c0,0,0,0,0.1,0
			c0.1,0,0.1,0,0.2,0c0.4,0.1,0.8,0.1,1.2,0.2c0.2,0,0.3,0,0.5,0.1c0.1,0,0.3,0,0.4,0c0.1,0,0.3,0,0.4,0c0,0,0.1,0,0.1,0
			c0,0,0.1,0,0.1,0c0.2,0,0.4,0,0.6,0l0.4,0c0,0,0.1,0,0.1,0c0,0,0.1,0,0.1,0c0,0,0.1,0,0.1,0l0.2,0c0.1,0,0.1,0,0.2,0
			c0.6,0,1.1,0,1.6,0c0.1,0,0.1,0,0.2,0l0,0c0.1,0,0.1,0,0.2,0l0,0c0.1,0,0.2,0,0.3,0c0.1,0,0.2,0,0.3,0l0,0c0,0,0,0,0,0l0,0
			c0.1,0,0.1,0,0.2,0l0,0c0.1,0,0.1,0,0.2,0l0,0c0.1,0,0.1,0,0.2,0l0,0c0.1,0,0.1,0,0.2,0c0.1,0,0.3,0,0.4,0c0.1,0,0.3,0,0.4,0
			c0.2,0,0.4,0,0.6-0.1c2.5-0.3,4.8-0.9,7-1.9l0.1-0.1l0.2,0c1.7,0.1,3.4,0.2,5,0.3c1.6,0.2,3.2,0.4,4.8,0.6l1,0.2l-0.6,0.8
			c0,0,0,0,0,0.1l0,0c0,0,0,0.1-0.1,0.1c0,0-0.4,0.6-0.7,1.2c-1,1.9-1.3,4.4-1.3,4.5c0,0.4-0.1,0.8-0.1,1.1
			c-0.1,1.6-0.1,3.2,0.1,4.9l0.1,0.5l-0.5,0.2c-2,0.8-4.1,1.4-6.2,1.9c-2.3,0.5-4.6,0.7-6.9,0.7c-0.3,2.7-0.6,5.4-1.1,8.1
			c-0.2,1-0.4,2.1-0.6,3.2c-0.6,3.1-1.3,6.3-2.2,9.4c0,0.1,0,0.1,0,0.1c0,0,0,0,0,0.1l0,0c0,0,0,0,0,0l0,0.1c0,0,0,0.1-0.1,0.1
			c0,0,0,0.1,0,0.1c-0.1,0.1-0.1,0.2-0.2,0.3c0,0,0,0.1-0.1,0.1c0,0,0,0.1-0.1,0.1c0,0,0,0.1-0.1,0.1c0,0,0,0.1-0.1,0.1
			c0,0-0.1,0.1-0.1,0.1s-0.1,0.1-0.1,0.1c0,0,0,0-0.1,0.1l-0.1,0.1c0,0,0,0,0,0c-0.1,0-0.1,0.1-0.2,0.1c0,0-0.1,0-0.1,0.1l0,0
			c0,0-0.1,0-0.1,0.1l-0.2,0.1h0c0,0,0,0,0,0l0,0c0,0,0,0,0,0l0,0c0,0,0,0,0,0c0,0-0.1,0-0.1,0l0,0l0,0c0,0,0,0-0.1,0c0,0,0,0-0.1,0
			c0,0,0,0,0,0c0,0,0,0-0.1,0l0,0c0,0-0.1,0-0.1,0c0,0-0.1,0-0.1,0c0,0-0.1,0-0.1,0c-0.1,0-0.3,0.1-0.4,0.1
			C143.2,121.6,141.6,121.7,140.1,121.7z M110.8,104.8L110.8,104.8C110.8,104.9,110.8,104.9,110.8,104.8c2.4,3.5,6.5,8.3,13.2,11.7
			c8,4.1,15.6,4.2,20.6,3.6c0.1,0,0.2,0,0.2,0l0,0c0,0,0,0,0,0l0,0c0,0,0,0,0.1,0l0,0c0,0,0,0,0.1,0c0,0,0,0,0,0l0,0c0,0,0,0,0,0
			l0,0c0,0,0,0,0,0l0,0c0,0,0,0,0,0l0,0c0,0,0,0,0,0l0.1,0c0,0,0,0,0,0l0,0c0,0,0,0,0,0c0,0,0,0,0,0l0,0c0,0,0,0,0,0c0,0,0,0,0.1,0
			c0,0,0.1-0.1,0.1-0.1c0,0,0,0,0,0l0,0c0,0,0,0,0,0c0,0,0,0,0,0c0,0,0,0,0,0l0,0c0,0,0,0,0,0l0,0c0,0,0,0,0-0.1c0,0,0,0,0-0.1
			c0,0,0,0,0-0.1c0-0.1,0.1-0.1,0.1-0.2l0,0c0,0,0,0,0,0l0,0c0,0,0,0,0-0.1l0-0.1c0,0,0,0,0,0c0,0,0,0,0,0c0,0,0-0.1,0-0.1
			c0.8-3.1,1.6-6.2,2.2-9.3c0.2-1,0.4-2.1,0.6-3.1c0.5-2.8,0.9-5.7,1.1-8.6l0.1-0.6l0.6,0c2.4,0,4.9-0.2,7.3-0.7
			c1.9-0.4,3.7-0.9,5.5-1.6c-0.2-1.5-0.2-3.1-0.1-4.6c0-0.4,0.1-0.8,0.1-1.2l0,0c0-0.1,0.4-2.7,1.4-4.9c0.1-0.3,0.3-0.6,0.4-0.8
			c-1.2-0.2-2.5-0.4-3.8-0.5c-1.5-0.2-3.2-0.3-4.8-0.3c-2.3,1-4.7,1.6-7.2,1.9c-0.2,0-0.4,0-0.7,0.1c-0.1,0-0.3,0-0.4,0
			c-0.1,0-0.3,0-0.4,0c-0.1,0-0.2,0-0.2,0c-0.1,0-0.1,0-0.2,0c-0.1,0-0.1,0-0.2,0c-0.1,0-0.1,0-0.2,0l0,0c0,0,0,0-0.1,0l0,0
			c-0.1,0-0.2,0-0.3,0c-0.1,0-0.2,0-0.3,0c-0.1,0-0.1,0-0.2,0c-0.1,0-0.1,0-0.2,0c-0.5,0-1.1,0-1.7,0c-0.1,0-0.1,0-0.2,0l-0.2,0
			c0,0-0.1,0-0.1,0c0,0-0.1,0-0.1,0c0,0-0.1,0-0.1,0l-0.2,0c0,0,0,0,0,0l-0.2,0c-0.2,0-0.4,0-0.6,0c0,0-0.1,0-0.1,0c0,0-0.1,0-0.1,0
			c-0.2,0-0.3,0-0.5,0c-0.2,0-0.3,0-0.4,0c-0.2,0-0.3,0-0.5-0.1c-0.4-0.1-0.8-0.1-1.2-0.2c-0.1,0-0.1,0-0.2,0c0,0-0.1,0-0.1,0
			l-0.2,0c-0.2,0-0.5-0.1-0.7-0.1c-0.1,0-0.1,0-0.2,0c-0.1,0-0.2,0-0.2,0c-0.2,0-0.4-0.1-0.7-0.1l-0.1,0c-0.1,0-0.2,0-0.3-0.1
			c-0.2,0-0.3-0.1-0.5-0.1c-0.2,0-0.4-0.1-0.6-0.1c-0.1,0-0.3-0.1-0.4-0.1l0,0c-0.1,0-0.1,0-0.2,0c-0.1,0-0.1,0-0.2,0c0,0,0,0-0.1,0
			c-0.2,0-0.3-0.1-0.5-0.1c-0.1,0-0.1,0-0.2-0.1l-0.1,0c-0.1,0-0.2-0.1-0.3-0.1c-0.1,0-0.1,0-0.2-0.1l-0.1,0c-0.3-0.1-0.6-0.2-1-0.3
			c-0.1,0-0.1,0-0.1,0c-0.1,0-0.1,0-0.2-0.1c-0.1,0-0.2-0.1-0.3-0.1c-0.1,0-0.2-0.1-0.3-0.1l-0.2-0.1c-0.1,0-0.1,0-0.2-0.1
			c0,0-0.1,0-0.1-0.1c0,0-0.1,0-0.1-0.1l0,0c0,0-0.1,0-0.1,0l0,0c0,0-0.1,0-0.1,0c0,0-0.1,0-0.1,0l-0.2-0.1c0,0,0,0-0.1,0l-0.1-0.1
			c-0.1,0-0.2-0.1-0.3-0.1c0,0,0,0-0.1,0l-0.1,0c0,0,0,0-0.1,0c0,0-0.1,0-0.1,0l-0.1,0c0,0,0,0,0,0c-0.1,0-0.1,0-0.2-0.1l-0.2-0.1
			c0,0,0,0-0.1,0c0,0-0.1,0-0.1,0l0,0c0,0,0,0-0.1,0l-0.2-0.1c-0.3-0.1-0.6-0.2-0.9-0.4c0,0-0.1,0-0.1-0.1l0,0
			c-0.1,0-0.1-0.1-0.2-0.1l0,0c0,0-0.1,0-0.1-0.1l0,0l-0.2-0.1c-0.1,0-0.1-0.1-0.2-0.1l-0.1,0c-0.2-0.1-0.3-0.1-0.5-0.2l0,0
			c-0.1,0-0.2-0.1-0.3-0.2l0,0c0,0,0,0,0,0c-0.1,0-0.1-0.1-0.2-0.1c-0.1-0.1-0.3-0.1-0.4-0.2l-0.5-0.2c-0.2-0.1-0.4-0.2-0.6-0.3
			c-0.1,0-0.1-0.1-0.2-0.1c-0.3-0.2-0.7-0.4-1-0.5l-0.2-0.1c-0.2-0.1-0.5-0.3-0.8-0.4c0,0,0,0-0.1,0c-0.1,0-0.1-0.1-0.2-0.1
			c-2.2-0.6-2.8-0.6-3.7-0.5c-3.6,0.3-7,2.4-10.2,6.1c0,0.1,0.1,0.1,0.1,0.2c0.1,0.2,0.2,0.5,0.3,0.7c0.3,0.7,0.1,1.5-0.4,2
			c-0.2,0.2-0.4,0.4-0.6,0.6c-1.8,1.5-3.6,2-4.2,2.2c-1.5,0.4-3.1,0.6-4.7,0.5c0.4,1.7,1.5,4,3.9,5.6c3.6,2.4,7.5,1.2,8.2,1l1.1-0.4
			l-0.3,1.1c-0.1,0.5-0.2,1-0.4,1.6c-0.2,0.6-0.3,1.2-0.4,1.7c-0.2,0.7-0.3,1.3-0.5,2c0,0.1,0,0.1,0,0.2c0,0.1,0,0.2,0,0.3
			c0,0.2,0,0.3,0,0.5c0,0,0,0,0,0l0,0c0,0,0,0.1,0,0.1l0,0c0,0,0,0,0,0c0,0.2,0.1,0.3,0.1,0.5c0,0,0,0.1,0,0.1l0,0c0,0,0,0.1,0,0.1
			c0,0,0,0.1,0,0.1c0,0,0,0.1,0,0.1l0,0.1c0,0,0,0,0,0c0,0,0,0.1,0,0.1l0,0c0,0,0,0,0,0l0,0c0,0,0,0,0,0.1L110.8,104.8
			C110.7,104.8,110.7,104.8,110.8,104.8L110.8,104.8C110.7,104.8,110.7,104.8,110.8,104.8L110.8,104.8z M145,120
			C145,120,145,120,145,120L145,120z M137.4,83.9C137.4,83.9,137.4,83.9,137.4,83.9L137.4,83.9z M129.7,81.5
			C129.7,81.5,129.7,81.5,129.7,81.5L129.7,81.5z"/>
		<g class="st6">
			<path class="st7" d="M155.2,83.2c0,0,5.2,0.1,11.2,0.4l-0.2-0.6l-9-1.4L155.2,83.2z"/>
		</g>
		<g class="st9">
			<path class="st7" d="M106.9,86.8c0.3,0.7,0.8,1.5,1.5,2.3c0.4,0.5,0.8,0.9,1.2,1.3c-0.6-1.5-1.1-3-1.7-4.5L106.9,86.8z"/>
		</g>
		<g class="st6">
			<path class="st7" d="M108.3,84.6c0,0,4.6-6.2,9.5-7.1c0,0-6.8,0.4-10.5,6.1L108.3,84.6z"/>
		</g>
		<path class="st7" d="M150.6,96.4c-0.2,2.5-0.4,4.7-0.6,6.4c-0.2,1.3-0.6,4.2-1.3,7.6c-0.1,0.5-0.2,0.9-0.3,1.3
			c-0.3,1.1-0.4,1.7-0.8,3.6c-0.1,0.6-0.3,1.1-0.4,1.7c0,0,0,0,0,0c0,0,0,0,0,0c-0.2,1-0.4,1.7-0.6,2.2c-0.1,0.3-0.3,0.5-0.5,0.8
			c-0.3,0.3-0.6,0.5-0.8,0.6c0,0,0,0,0,0c0,0,0,0,0,0c0,0,0,0,0,0c0,0,0,0,0,0c0,0,0,0,0,0c0,0-0.1,0-0.1,0c0,0-0.1,0-0.1,0
			c0,0,0,0-0.1,0c-0.1,0-0.2,0-0.3,0.1c-4.1,0.5-12.3,0.8-21-3.6c-7-3.6-11.2-8.7-13.3-11.9c0,0,0-0.1-0.1-0.1c0,0,0,0,0,0
			c0,0,0,0,0,0c0,0,0,0,0-0.1c0,0,0,0,0,0c0,0,0-0.1,0-0.1c0,0,0,0,0,0c0,0,0-0.1-0.1-0.1c0,0,0-0.1-0.1-0.1c0,0,0,0,0,0
			c0,0,0-0.1,0-0.1c0,0,0-0.1,0-0.1c0,0,0-0.1,0-0.1c0,0,0-0.1,0-0.1c0-0.9,0.1-2.1,0.4-3.6c0-0.1,0-0.2,0.1-0.2
			c0.5-2.2,1.2-4.6,2.1-7.2c0.7-2,1.5-3.9,2.2-5.6c1.2,0.8,2.6,1.6,4.2,2.5c3.1,1.6,6.8,3.3,11.3,4.5c5.2,1.4,9.9,2,13.8,2
			C146.5,96.7,148.7,96.6,150.6,96.4z"/>
		<path class="st5" d="M140.1,121.7c-1.4,0-2.9-0.1-4.3-0.2c-4.4-0.5-8.5-1.8-12.4-3.7c-6.9-3.5-11.2-8.5-13.6-12.1c0,0,0,0,0-0.1
			l0-0.1c0,0,0,0,0,0c0,0,0-0.1-0.1-0.1l0,0c0,0,0-0.1,0-0.1c0,0,0,0,0,0c0,0,0-0.1-0.1-0.1c0,0,0,0,0,0l-0.1-0.1v-0.1c0,0,0,0,0,0
			c0,0,0-0.1-0.1-0.1c0,0,0-0.1,0-0.1c0-0.1,0-0.1,0-0.2c-0.1-0.2-0.1-0.5-0.1-0.7l0,0c0,0,0,0,0-0.1c0,0,0-0.1,0-0.1c0,0,0,0,0-0.1
			c0-0.2,0-0.4,0-0.7c0-0.1,0-0.3,0.1-0.4c0-0.1,0-0.2,0.1-0.3c0.2-0.7,0.4-1.4,0.5-2c0.1-0.5,0.3-1.1,0.4-1.7
			c0-0.2,0.1-0.4,0.1-0.6c-1.7,0.4-5,0.7-8.2-1.4c-3.3-2.2-4.3-5.5-4.7-7.3l-0.2-0.9l0.9,0.2c0,0,0,0,0,0l0,0
			c1.7,0.2,3.4,0.1,4.9-0.3c0.6-0.2,2.2-0.7,3.8-2c0.2-0.2,0.4-0.3,0.5-0.5c0.2-0.2,0.2-0.4,0.1-0.6c-0.1-0.2-0.2-0.4-0.3-0.6
			c-0.1-0.2-0.2-0.4-0.3-0.5l-0.3-0.4L107,83c3.5-4.2,7.3-6.5,11.3-6.9c1.2-0.1,2,0,4.2,0.6l0.2,0l0.1,0.1c0.1,0,0.1,0.1,0.2,0.1
			c0,0,0,0,0.1,0c0.3,0.2,0.5,0.3,0.7,0.4l0.2,0.1c0.3,0.2,0.6,0.3,1,0.5c0.1,0,0.1,0.1,0.2,0.1c0.2,0.1,0.4,0.2,0.6,0.3l0.5,0.2
			c0.1,0.1,0.3,0.1,0.4,0.2c0.1,0,0.1,0.1,0.2,0.1l0,0c0,0,0,0,0,0c0.1,0.1,0.2,0.1,0.3,0.1l0,0c0.2,0.1,0.3,0.1,0.5,0.2l0.1,0
			c0.1,0,0.1,0.1,0.2,0.1l0.2,0.1c0,0,0.1,0,0.1,0.1c0.1,0,0.1,0.1,0.2,0.1l0,0c0,0,0.1,0,0.1,0c0.3,0.1,0.6,0.3,0.9,0.4l0.2,0.1
			c0,0,0,0,0,0l0.1,0c0,0,0.1,0,0.1,0l0,0c0,0,0,0,0,0l0.1,0.1c0,0,0,0,0,0c0,0,0.1,0,0.1,0.1c0,0,0,0,0.1,0l0,0c0,0,0.1,0,0.1,0
			c0,0,0,0,0.1,0l0,0c0,0,0,0,0.1,0l0,0c0.1,0,0.2,0.1,0.3,0.1l0.1,0c0,0,0.1,0,0.1,0l0,0c0,0,0,0,0.1,0l0.1,0c0,0,0.1,0,0.1,0
			c0,0,0.1,0,0.1,0c0,0,0.1,0,0.1,0l0,0c0,0,0.1,0,0.1,0l0,0c0,0,0.1,0,0.1,0l0,0c0.1,0,0.1,0,0.2,0.1l0.2,0.1
			c0.1,0,0.2,0.1,0.3,0.1c0.1,0,0.2,0.1,0.3,0.1c0.1,0,0.1,0,0.2,0.1c0,0,0.1,0,0.1,0c0.3,0.1,0.6,0.2,0.9,0.3l0.1,0
			c0.1,0,0.1,0,0.2,0.1c0.1,0,0.2,0.1,0.3,0.1l0.1,0c0.1,0,0.1,0,0.2,0.1c0.1,0,0.3,0.1,0.4,0.1l0,0c0.1,0,0.1,0,0.2,0
			c0.1,0,0.1,0,0.2,0l0,0c0.1,0,0.3,0.1,0.4,0.1c0.2,0.1,0.4,0.1,0.6,0.1c0.2,0,0.3,0.1,0.5,0.1c0.1,0,0.2,0,0.3,0.1l0.1,0
			c0,0,0,0,0,0c0.2,0.1,0.4,0.1,0.6,0.1c0.1,0,0.1,0,0.2,0c0.1,0,0.1,0,0.2,0c0.2,0,0.4,0.1,0.7,0.1l0.2,0c0,0,0,0,0.1,0
			c0.1,0,0.1,0,0.2,0c0.4,0.1,0.8,0.1,1.2,0.2c0.2,0,0.3,0,0.5,0.1c0.1,0,0.3,0,0.4,0c0.1,0,0.3,0,0.4,0c0,0,0.1,0,0.1,0
			c0,0,0.1,0,0.1,0c0.2,0,0.4,0,0.6,0l0.4,0c0,0,0.1,0,0.1,0c0,0,0.1,0,0.1,0c0,0,0.1,0,0.1,0l0.2,0c0.1,0,0.1,0,0.2,0
			c0.6,0,1.1,0,1.6,0c0.1,0,0.1,0,0.2,0l0,0c0.1,0,0.1,0,0.2,0l0,0c0.1,0,0.2,0,0.3,0c0.1,0,0.2,0,0.3,0l0,0c0,0,0,0,0,0l0,0
			c0.1,0,0.1,0,0.2,0l0,0c0.1,0,0.1,0,0.2,0l0,0c0.1,0,0.1,0,0.2,0l0,0c0.1,0,0.1,0,0.2,0c0.1,0,0.3,0,0.4,0c0.1,0,0.3,0,0.4,0
			c0.2,0,0.4,0,0.6-0.1c2.5-0.3,4.8-0.9,7-1.9l0.1-0.1l0.2,0c1.7,0.1,3.4,0.2,5,0.3c1.6,0.2,3.2,0.4,4.8,0.6l1,0.2l-0.6,0.8
			c0,0,0,0,0,0.1l0,0c0,0,0,0.1-0.1,0.1c0,0-0.4,0.6-0.7,1.2c-1,1.9-1.3,4.4-1.3,4.5c0,0.4-0.1,0.8-0.1,1.1
			c-0.1,1.6-0.1,3.2,0.1,4.9l0.1,0.5l-0.5,0.2c-2,0.8-4.1,1.4-6.2,1.9c-2.3,0.5-4.6,0.7-6.9,0.7c-0.3,2.7-0.6,5.4-1.1,8.1
			c-0.2,1-0.4,2.1-0.6,3.2c-0.6,3.1-1.3,6.3-2.2,9.4c0,0.1,0,0.1,0,0.1c0,0,0,0,0,0.1l0,0c0,0,0,0,0,0l0,0.1c0,0,0,0.1-0.1,0.1
			c0,0,0,0.1,0,0.1c-0.1,0.1-0.1,0.2-0.2,0.3c0,0,0,0.1-0.1,0.1c0,0,0,0.1-0.1,0.1c0,0,0,0.1-0.1,0.1c0,0,0,0.1-0.1,0.1
			c0,0-0.1,0.1-0.1,0.1s-0.1,0.1-0.1,0.1c0,0,0,0-0.1,0.1l-0.1,0.1c0,0,0,0,0,0c-0.1,0-0.1,0.1-0.2,0.1c0,0-0.1,0-0.1,0.1l0,0
			c0,0-0.1,0-0.1,0.1l-0.2,0.1h0c0,0,0,0,0,0l0,0c0,0,0,0,0,0l0,0c0,0,0,0,0,0c0,0-0.1,0-0.1,0l0,0l0,0c0,0,0,0-0.1,0c0,0,0,0-0.1,0
			c0,0,0,0,0,0c0,0,0,0-0.1,0l0,0c0,0-0.1,0-0.1,0c0,0-0.1,0-0.1,0c0,0-0.1,0-0.1,0c-0.1,0-0.3,0.1-0.4,0.1
			C143.2,121.6,141.6,121.7,140.1,121.7z M110.8,104.8L110.8,104.8C110.8,104.9,110.8,104.9,110.8,104.8c2.4,3.5,6.5,8.3,13.2,11.7
			c8,4.1,15.6,4.2,20.6,3.6c0.1,0,0.2,0,0.2,0l0,0c0,0,0,0,0,0l0,0c0,0,0,0,0.1,0l0,0c0,0,0,0,0.1,0c0,0,0,0,0,0l0,0c0,0,0,0,0,0
			l0,0c0,0,0,0,0,0l0,0c0,0,0,0,0,0l0,0c0,0,0,0,0,0l0.1,0c0,0,0,0,0,0l0,0c0,0,0,0,0,0c0,0,0,0,0,0l0,0c0,0,0,0,0,0c0,0,0,0,0.1,0
			c0,0,0.1-0.1,0.1-0.1c0,0,0,0,0,0l0,0c0,0,0,0,0,0c0,0,0,0,0,0c0,0,0,0,0,0l0,0c0,0,0,0,0,0l0,0c0,0,0,0,0-0.1c0,0,0,0,0-0.1
			c0,0,0,0,0-0.1c0-0.1,0.1-0.1,0.1-0.2l0,0c0,0,0,0,0,0l0,0c0,0,0,0,0-0.1l0-0.1c0,0,0,0,0,0c0,0,0,0,0,0c0,0,0-0.1,0-0.1
			c0.8-3.1,1.6-6.2,2.2-9.3c0.2-1,0.4-2.1,0.6-3.1c0.5-2.8,0.9-5.7,1.1-8.6l0.1-0.6l0.6,0c2.4,0,4.9-0.2,7.3-0.7
			c1.9-0.4,3.7-0.9,5.5-1.6c-0.2-1.5-0.2-3.1-0.1-4.6c0-0.4,0.1-0.8,0.1-1.2l0,0c0-0.1,0.4-2.7,1.4-4.9c0.1-0.3,0.3-0.6,0.4-0.8
			c-1.2-0.2-2.5-0.4-3.8-0.5c-1.5-0.2-3.2-0.3-4.8-0.3c-2.3,1-4.7,1.6-7.2,1.9c-0.2,0-0.4,0-0.7,0.1c-0.1,0-0.3,0-0.4,0
			c-0.1,0-0.3,0-0.4,0c-0.1,0-0.2,0-0.2,0c-0.1,0-0.1,0-0.2,0c-0.1,0-0.1,0-0.2,0c-0.1,0-0.1,0-0.2,0l0,0c0,0,0,0-0.1,0l0,0
			c-0.1,0-0.2,0-0.3,0c-0.1,0-0.2,0-0.3,0c-0.1,0-0.1,0-0.2,0c-0.1,0-0.1,0-0.2,0c-0.5,0-1.1,0-1.7,0c-0.1,0-0.1,0-0.2,0l-0.2,0
			c0,0-0.1,0-0.1,0c0,0-0.1,0-0.1,0c0,0-0.1,0-0.1,0l-0.2,0c0,0,0,0,0,0l-0.2,0c-0.2,0-0.4,0-0.6,0c0,0-0.1,0-0.1,0c0,0-0.1,0-0.1,0
			c-0.2,0-0.3,0-0.5,0c-0.2,0-0.3,0-0.4,0c-0.2,0-0.3,0-0.5-0.1c-0.4-0.1-0.8-0.1-1.2-0.2c-0.1,0-0.1,0-0.2,0c0,0-0.1,0-0.1,0
			l-0.2,0c-0.2,0-0.5-0.1-0.7-0.1c-0.1,0-0.1,0-0.2,0c-0.1,0-0.2,0-0.2,0c-0.2,0-0.4-0.1-0.7-0.1l-0.1,0c-0.1,0-0.2,0-0.3-0.1
			c-0.2,0-0.3-0.1-0.5-0.1c-0.2,0-0.4-0.1-0.6-0.1c-0.1,0-0.3-0.1-0.4-0.1l0,0c-0.1,0-0.1,0-0.2,0c-0.1,0-0.1,0-0.2,0c0,0,0,0-0.1,0
			c-0.2,0-0.3-0.1-0.5-0.1c-0.1,0-0.1,0-0.2-0.1l-0.1,0c-0.1,0-0.2-0.1-0.3-0.1c-0.1,0-0.1,0-0.2-0.1l-0.1,0c-0.3-0.1-0.6-0.2-1-0.3
			c-0.1,0-0.1,0-0.1,0c-0.1,0-0.1,0-0.2-0.1c-0.1,0-0.2-0.1-0.3-0.1c-0.1,0-0.2-0.1-0.3-0.1l-0.2-0.1c-0.1,0-0.1,0-0.2-0.1
			c0,0-0.1,0-0.1-0.1c0,0-0.1,0-0.1-0.1l0,0c0,0-0.1,0-0.1,0l0,0c0,0-0.1,0-0.1,0c0,0-0.1,0-0.1,0l-0.2-0.1c0,0,0,0-0.1,0l-0.1-0.1
			c-0.1,0-0.2-0.1-0.3-0.1c0,0,0,0-0.1,0l-0.1,0c0,0,0,0-0.1,0c0,0-0.1,0-0.1,0l-0.1,0c0,0,0,0,0,0c-0.1,0-0.1,0-0.2-0.1l-0.2-0.1
			c0,0,0,0-0.1,0c0,0-0.1,0-0.1,0l0,0c0,0,0,0-0.1,0l-0.2-0.1c-0.3-0.1-0.6-0.2-0.9-0.4c0,0-0.1,0-0.1-0.1l0,0
			c-0.1,0-0.1-0.1-0.2-0.1l0,0c0,0-0.1,0-0.1-0.1l0,0l-0.2-0.1c-0.1,0-0.1-0.1-0.2-0.1l-0.1,0c-0.2-0.1-0.3-0.1-0.5-0.2l0,0
			c-0.1,0-0.2-0.1-0.3-0.2l0,0c0,0,0,0,0,0c-0.1,0-0.1-0.1-0.2-0.1c-0.1-0.1-0.3-0.1-0.4-0.2l-0.5-0.2c-0.2-0.1-0.4-0.2-0.6-0.3
			c-0.1,0-0.1-0.1-0.2-0.1c-0.3-0.2-0.7-0.4-1-0.5l-0.2-0.1c-0.2-0.1-0.5-0.3-0.8-0.4c0,0,0,0-0.1,0c-0.1,0-0.1-0.1-0.2-0.1
			c-2.2-0.6-2.8-0.6-3.7-0.5c-3.6,0.3-7,2.4-10.2,6.1c0,0.1,0.1,0.1,0.1,0.2c0.1,0.2,0.2,0.5,0.3,0.7c0.3,0.7,0.1,1.5-0.4,2
			c-0.2,0.2-0.4,0.4-0.6,0.6c-1.8,1.5-3.6,2-4.2,2.2c-1.5,0.4-3.1,0.6-4.7,0.5c0.4,1.7,1.5,4,3.9,5.6c3.6,2.4,7.5,1.2,8.2,1l1.1-0.4
			l-0.3,1.1c-0.1,0.5-0.2,1-0.4,1.6c-0.2,0.6-0.3,1.2-0.4,1.7c-0.2,0.7-0.3,1.3-0.5,2c0,0.1,0,0.1,0,0.2c0,0.1,0,0.2,0,0.3
			c0,0.2,0,0.3,0,0.5c0,0,0,0,0,0l0,0c0,0,0,0.1,0,0.1l0,0c0,0,0,0,0,0c0,0.2,0.1,0.3,0.1,0.5c0,0,0,0.1,0,0.1l0,0c0,0,0,0.1,0,0.1
			c0,0,0,0.1,0,0.1c0,0,0,0.1,0,0.1l0,0.1c0,0,0,0,0,0c0,0,0,0.1,0,0.1l0,0c0,0,0,0,0,0l0,0c0,0,0,0,0,0.1L110.8,104.8
			C110.7,104.8,110.7,104.8,110.8,104.8L110.8,104.8C110.7,104.8,110.7,104.8,110.8,104.8L110.8,104.8z M145,120
			C145,120,145,120,145,120L145,120z M137.4,83.9C137.4,83.9,137.4,83.9,137.4,83.9L137.4,83.9z M129.7,81.5
			C129.7,81.5,129.7,81.5,129.7,81.5L129.7,81.5z"/>
		<path class="st10" d="M149.4,106.5c-0.2,1-0.4,2.1-0.6,3.2c-0.6,3.3-1.4,6.5-2.2,9.3c0,0,0,0.1,0,0.1c0,0,0,0,0,0.1c0,0,0,0,0,0
			c0,0,0,0,0,0.1c0,0,0,0.1,0,0.1c0,0,0,0,0,0.1c0,0.1-0.1,0.2-0.1,0.2c0,0,0,0.1,0,0.1c0,0,0,0-0.1,0.1c0,0,0,0-0.1,0.1
			c0,0,0,0-0.1,0.1c0,0,0,0-0.1,0.1c0,0,0,0-0.1,0.1c0,0,0,0-0.1,0.1c0,0,0,0,0,0c0,0,0,0-0.1,0.1c0,0-0.1,0.1-0.1,0.1
			c0,0,0,0-0.1,0.1c0,0,0,0-0.1,0l0,0c0,0,0,0-0.1,0c0,0,0,0,0,0c0,0,0,0-0.1,0c0,0,0,0,0,0c0,0,0,0-0.1,0c0,0-0.1,0-0.1,0
			c0,0,0,0,0,0c0,0,0,0-0.1,0c0,0,0,0,0,0c0,0,0,0,0,0c0,0,0,0,0,0c0,0-0.1,0-0.1,0c0,0-0.1,0-0.1,0c0,0,0,0-0.1,0
			c-0.1,0-0.2,0-0.3,0.1c-4.1,0.5-12.3,0.8-21-3.6c-7-3.6-11.2-8.7-13.3-11.9c0,0,0-0.1-0.1-0.1c0,0,0,0,0,0c0,0,0,0,0,0
			c0,0,0,0,0-0.1c0,0,0,0,0,0c0,0,0-0.1,0-0.1c0,0,0,0,0,0c0,0,0-0.1-0.1-0.1c0,0,0-0.1-0.1-0.1c0,0,0,0,0,0c0,0,0-0.1,0-0.1
			c0,0,0-0.1,0-0.1c0,0,0-0.1,0-0.1c0,0,0-0.1,0-0.1c-0.1-0.2-0.1-0.4-0.1-0.6c0,0,0,0,0-0.1c0,0,0-0.1,0-0.1c0,0,0,0,0-0.1
			c0-0.2,0-0.4,0-0.6c0-0.1,0-0.2,0-0.3c0-0.1,0-0.2,0.1-0.2c0.2-0.7,0.4-1.4,0.5-2c0.1-0.6,0.3-1.2,0.4-1.7c2-1.4,5.2-3.9,7.8-8
			c3.3-5.3,4-10.4,4.2-13c0.3,0.1,0.5,0.3,0.7,0.4c0.1,0,0.2,0.1,0.2,0.1c0.3,0.2,0.7,0.4,1,0.5c0.1,0,0.1,0.1,0.2,0.1
			c0.2,0.1,0.4,0.2,0.6,0.3c0,0,0.1,0,0.1,0.1c0.1,0.1,0.2,0.1,0.4,0.2c0.1,0.1,0.3,0.1,0.4,0.2c0.1,0,0.1,0.1,0.2,0.1
			c-1.6,3.9-1.5,7.7,0.6,10c0.5,0.5,1.2,1.1,2.3,1.6c0.2,0.1,1.6,0.7,3,0.8c1,0,2-0.2,2-0.2c0,0,0,0,0.1,0c0.2-0.1,0.9-0.2,1.6-0.8
			c0.7-0.5,1.5-1.4,2.2-2.8c0.7-1.5,1.1-3,1.3-4.3c0.1,0,0.1,0,0.2,0c0.4,0.1,0.8,0.1,1.2,0.2c0.2,0,0.3,0,0.5,0.1
			c0.1,0,0.3,0,0.4,0c0.1,0,0.3,0,0.4,0c0.1,0,0.1,0,0.2,0c0.2,0,0.4,0,0.6,0c0.1,0,0.1,0,0.2,0c0,0,0,0,0,0c0.1,0,0.1,0,0.2,0
			c0.1,0,0.2,0,0.3,0c-0.8,3.4-1.5,9.8,1.5,16.3C146.5,103,148,105,149.4,106.5z"/>
		<path class="st5" d="M140.1,121.7c-1.4,0-2.9-0.1-4.3-0.2c-4.4-0.5-8.5-1.8-12.4-3.7c-6.9-3.5-11.2-8.5-13.6-12.1c0,0,0,0,0-0.1
			l0-0.1c0,0,0,0,0,0c0,0,0-0.1-0.1-0.1l0,0c0,0,0-0.1,0-0.1c0,0,0,0,0,0c0,0,0-0.1-0.1-0.1c0,0,0,0,0,0l-0.1-0.1v-0.1c0,0,0,0,0,0
			c0,0,0-0.1-0.1-0.1c0,0,0-0.1,0-0.1c0-0.1,0-0.1,0-0.2c-0.1-0.2-0.1-0.5-0.1-0.7l0,0c0,0,0,0,0-0.1c0,0,0-0.1,0-0.1c0,0,0,0,0-0.1
			c0-0.2,0-0.4,0-0.7c0-0.1,0-0.3,0.1-0.4c0-0.1,0-0.2,0.1-0.3c0.2-0.7,0.4-1.4,0.5-2c0.1-0.5,0.3-1.1,0.4-1.7l0.1-0.2l0.2-0.1
			c3.1-2.1,5.7-4.7,7.6-7.8c3-4.8,3.9-9.5,4.1-12.7l0.1-1L123,77c0.3,0.2,0.5,0.3,0.7,0.4l0.2,0.1c0.3,0.2,0.6,0.3,1,0.5
			c0.1,0,0.1,0.1,0.2,0.1c0.2,0.1,0.4,0.2,0.6,0.3l0.5,0.2c0.1,0.1,0.3,0.1,0.4,0.2c0.1,0,0.1,0.1,0.2,0.1l0.5,0.3l-0.2,0.6
			c-1.6,3.7-1.4,7.3,0.5,9.3c0.5,0.6,1.2,1.1,2.1,1.4l0,0c0.2,0.1,1.5,0.7,2.8,0.7c0.9,0,1.8-0.2,1.8-0.2l0,0c0,0,0,0,0,0
			c0.5-0.1,0.9-0.4,1.4-0.7c0.8-0.6,1.5-1.4,2-2.6c0.6-1.2,1-2.6,1.2-4.1l0.1-0.6l0.6,0.1c0.1,0,0.1,0,0.2,0
			c0.4,0.1,0.8,0.1,1.2,0.2c0.2,0,0.3,0,0.5,0.1c0.1,0,0.3,0,0.4,0c0.1,0,0.3,0,0.4,0c0,0,0.1,0,0.1,0c0,0,0.1,0,0.1,0
			c0.2,0,0.4,0,0.6,0l0.4,0c0,0,0.1,0,0.1,0c0,0,0.1,0,0.1,0l0.8,0l-0.2,0.7c-0.9,3.9-1.4,9.9,1.4,15.9c1,2.2,2.4,4.2,4,5.9l0.2,0.2
			l-0.1,0.3c-0.2,1-0.4,2.1-0.6,3.2c-0.6,3.1-1.3,6.3-2.2,9.4c0,0.1,0,0.1,0,0.1c0,0,0,0,0,0.1l0,0c0,0,0,0,0,0l0,0.1
			c0,0,0,0.1-0.1,0.1c0,0,0,0.1,0,0.1c-0.1,0.1-0.1,0.2-0.2,0.3c0,0,0,0.1-0.1,0.1c0,0,0,0.1-0.1,0.1c0,0,0,0.1-0.1,0.1
			c0,0,0,0.1-0.1,0.1c0,0-0.1,0.1-0.1,0.1s-0.1,0.1-0.1,0.1c0,0,0,0-0.1,0.1l-0.1,0.1c0,0,0,0,0,0c-0.1,0-0.1,0.1-0.2,0.1
			c0,0-0.1,0-0.1,0.1l0,0c0,0-0.1,0-0.1,0.1l-0.2,0.1h0c0,0,0,0,0,0l0,0c0,0,0,0,0,0l0,0c0,0,0,0,0,0c0,0-0.1,0-0.1,0l0,0h0
			c0,0,0,0-0.1,0c0,0,0,0-0.1,0c0,0,0,0,0,0c0,0,0,0-0.1,0l0,0c0,0-0.1,0-0.1,0c0,0-0.1,0-0.1,0c0,0-0.1,0-0.1,0
			c-0.1,0-0.3,0.1-0.4,0.1C143.2,121.6,141.6,121.7,140.1,121.7z M110.8,104.8L110.8,104.8C110.8,104.9,110.8,104.9,110.8,104.8
			c2.4,3.5,6.5,8.3,13.2,11.7c8,4.1,15.6,4.2,20.6,3.6c0.1,0,0.2,0,0.2,0l0,0c0,0,0,0,0,0l0,0c0,0,0,0,0.1,0l0,0c0,0,0,0,0.1,0
			c0,0,0,0,0,0l0,0c0,0,0,0,0,0l0,0c0,0,0,0,0,0l0,0c0,0,0,0,0,0l0,0c0,0,0,0,0,0l0.1,0c0,0,0,0,0,0l0,0c0,0,0,0,0,0c0,0,0,0,0,0
			l0,0c0,0,0,0,0,0c0,0,0,0,0.1,0c0,0,0.1-0.1,0.1-0.1c0,0,0,0,0,0l0,0c0,0,0,0,0,0c0,0,0,0,0,0c0,0,0,0,0,0l0,0c0,0,0,0,0,0l0,0
			c0,0,0,0,0-0.1c0,0,0,0,0-0.1c0,0,0,0,0-0.1c0-0.1,0.1-0.1,0.1-0.2l0,0c0,0,0,0,0,0l0,0c0,0,0,0,0-0.1l0-0.1c0,0,0,0,0,0
			c0,0,0,0,0,0c0,0,0-0.1,0-0.1c0.8-3.1,1.6-6.2,2.2-9.3c0.2-0.9,0.4-1.9,0.5-2.8c-1.7-1.8-3-3.8-4.1-6c-1.4-2.9-2.1-6.1-2.2-9.5
			c-0.1-2.1,0.1-4.3,0.5-6.4c-0.2,0-0.4,0-0.5,0c0,0-0.1,0-0.1,0c0,0-0.1,0-0.1,0c-0.2,0-0.3,0-0.5,0c-0.2,0-0.3,0-0.4,0
			c-0.2,0-0.3,0-0.5-0.1c-0.2,0-0.5-0.1-0.7-0.1c-0.2,1.4-0.7,2.7-1.2,3.9c-0.7,1.3-1.5,2.4-2.4,3.1c-0.6,0.4-1.2,0.8-1.8,0.9
			c0,0,0,0-0.1,0l0,0c0,0-1,0.2-2.1,0.2c-1.5-0.1-2.9-0.6-3.3-0.8c-1-0.4-1.8-1-2.5-1.7c-1.1-1.2-1.7-2.9-1.8-4.8
			c-0.1-1.7,0.2-3.5,0.9-5.3c0,0,0,0-0.1,0l-0.5-0.2c-0.2-0.1-0.4-0.2-0.6-0.3c-0.1,0-0.1-0.1-0.2-0.1c-0.3-0.2-0.7-0.4-1-0.5
			l-0.1-0.1c-0.3,3.3-1.3,7.8-4.2,12.3c-2,3.2-4.6,5.9-7.8,8.1c-0.1,0.5-0.3,1-0.4,1.5c-0.2,0.7-0.3,1.3-0.5,2c0,0.1,0,0.1,0,0.2
			c0,0.1,0,0.2,0,0.3c0,0.2,0,0.3,0,0.5c0,0,0,0,0,0l0,0c0,0,0,0.1,0,0.1l0,0c0,0,0,0,0,0c0,0.2,0.1,0.3,0.1,0.5c0,0,0,0.1,0,0.1
			l0,0c0,0,0,0.1,0,0.1c0,0,0,0.1,0,0.1c0,0,0,0.1,0,0.1l0,0.1c0,0,0,0,0,0c0,0,0,0.1,0,0.1l0,0c0,0,0,0,0,0l0,0c0,0,0,0,0,0.1
			L110.8,104.8C110.7,104.8,110.7,104.8,110.8,104.8L110.8,104.8C110.7,104.8,110.7,104.8,110.8,104.8L110.8,104.8z"/>
		<g class="st6">
			<path class="st7" d="M119.4,113.9c-1.6-1.2-3.8-3.1-5.7-5.9c-0.9-1.4-1.6-2.7-2.2-3.9c-0.2-0.5-0.3-1-0.2-1.5
				c0.2-1,0.5-2.1,0.7-3.1c0.1-0.4,0.3-0.7,0.6-0.9c1-0.7,1.9-1.5,2.9-2.5c4.2-4.2,5.9-9.1,6.5-12c-0.8,2.5-2.6,6.5-6.2,10.2
				c-1.8,1.9-3.7,3.2-5.3,4.2c-0.4,1.4-0.7,2.9-1.1,4.3l0.5,2.2c0.8,1.1,1.8,2.3,2.9,3.6C115.3,110.9,117.5,112.7,119.4,113.9z"/>
		</g>
		<g class="st6">
			<path class="st7" d="M125.3,81.5c0,0-3.1,8.4,3.7,11c6.7,2.5,8.7-1.4,10.2-4.8c0,0-0.7,1.4-2,2.6c-2.5,2.2-5.7,1.4-6.3,1.3
				c-2.2-0.5-3.5-1.9-3.8-2.1c-1.1-1.2-1.5-2.4-1.7-3.1c-0.2-0.8-0.3-1.5-0.3-2C125.2,83.4,125.3,82.4,125.3,81.5z"/>
		</g>
		<path class="st5" d="M140.1,121.7c-1.4,0-2.9-0.1-4.3-0.2c-4.4-0.5-8.5-1.8-12.4-3.7c-6.9-3.5-11.2-8.5-13.6-12.1c0,0,0,0,0-0.1
			l0-0.1c0,0,0,0,0,0c0,0,0-0.1-0.1-0.1l0,0c0,0,0-0.1,0-0.1c0,0,0,0,0,0c0,0,0-0.1-0.1-0.1c0,0,0,0,0,0l-0.1-0.1v-0.1c0,0,0,0,0,0
			c0,0,0-0.1-0.1-0.1c0,0,0-0.1,0-0.1c0-0.1,0-0.1,0-0.2c-0.1-0.2-0.1-0.5-0.1-0.7l0,0c0,0,0,0,0-0.1c0,0,0-0.1,0-0.1c0,0,0,0,0-0.1
			c0-0.2,0-0.4,0-0.7c0-0.1,0-0.3,0.1-0.4c0-0.1,0-0.2,0.1-0.3c0.2-0.6,0.3-1.1,0.4-1.6l0.1-0.4c0.1-0.5,0.3-1.1,0.4-1.7l0.1-0.2
			l0.2-0.1c3.1-2.1,5.7-4.7,7.6-7.8c0.1-0.1,0.2-0.3,0.2-0.4c2.8-4.7,3.7-9.3,3.9-12.3l0.1-1L123,77c0.3,0.2,0.5,0.3,0.7,0.4
			l0.2,0.1c0.3,0.2,0.6,0.3,1,0.5c0.1,0,0.1,0.1,0.2,0.1c0.2,0.1,0.4,0.2,0.6,0.3l0.5,0.2c0.1,0.1,0.3,0.1,0.4,0.2
			c0.1,0,0.1,0.1,0.2,0.1l0.5,0.3l-0.2,0.6c-1.6,3.7-1.4,7.3,0.5,9.3c0.5,0.6,1.2,1.1,2.1,1.4l0,0c0.2,0.1,1.5,0.7,2.8,0.7
			c0.9,0,1.8-0.2,1.8-0.2l0,0c0,0,0,0,0,0c0.5-0.1,0.9-0.4,1.4-0.7c0.8-0.6,1.5-1.4,2-2.6c0.6-1.2,1-2.6,1.2-4.1l0.1-0.6l0.6,0.1
			c0.1,0,0.1,0,0.2,0c0.4,0.1,0.8,0.1,1.2,0.2c0.2,0,0.3,0,0.5,0.1c0.1,0,0.3,0,0.4,0c0.1,0,0.3,0,0.4,0c0,0,0.1,0,0.1,0
			c0,0,0.1,0,0.1,0c0.2,0,0.4,0,0.6,0l0.4,0c0,0,0.1,0,0.1,0c0,0,0.1,0,0.1,0l0.8,0l-0.2,0.7c-0.7,2.9-1.2,7.4,0.1,12.3
			c0.3,1.2,0.8,2.5,1.3,3.6c1,2.2,2.4,4.2,4,5.9l0.2,0.2l-0.1,0.3c-0.2,1-0.4,2.1-0.6,3.2c-0.1,0.7-0.3,1.4-0.4,2.1
			c-0.4,1.8-0.8,3.6-1.3,5.4l0,0c-0.2,0.6-0.3,1.3-0.5,1.9c0,0.1,0,0.1,0,0.1c0,0,0,0,0,0.1l0,0c0,0,0,0,0,0l0,0.1
			c0,0,0,0.1-0.1,0.1c0,0,0,0.1,0,0.1c-0.1,0.1-0.1,0.2-0.2,0.3c0,0,0,0.1-0.1,0.1c0,0,0,0.1-0.1,0.1c0,0,0,0.1-0.1,0.1
			c0,0,0,0.1-0.1,0.1c0,0-0.1,0.1-0.1,0.1s-0.1,0.1-0.1,0.1c0,0-0.1,0-0.1,0.1l-0.1,0.1c0,0,0,0,0,0c-0.1,0-0.1,0.1-0.2,0.1
			c0,0-0.1,0-0.1,0.1l0,0c0,0-0.1,0-0.1,0.1l-0.2,0.1h0c0,0,0,0,0,0l0,0c0,0,0,0,0,0l0,0c0,0,0,0,0,0c0,0-0.1,0-0.1,0l0,0
			c0,0,0,0-0.1,0c0,0,0,0-0.1,0c0,0,0,0,0,0c0,0,0,0-0.1,0c0,0-0.1,0-0.1,0c0,0-0.1,0-0.1,0c0,0-0.1,0-0.1,0c-0.1,0-0.3,0.1-0.4,0.1
			C143.2,121.6,141.6,121.7,140.1,121.7z M110.8,104.8L110.8,104.8C110.8,104.9,110.8,104.9,110.8,104.8c2.4,3.5,6.5,8.3,13.2,11.7
			c8,4.1,15.6,4.2,20.6,3.6c0.1,0,0.2,0,0.2,0l0,0c0,0,0,0,0,0l0,0c0,0,0,0,0.1,0l0,0c0,0,0,0,0.1,0c0,0,0,0,0,0l0,0c0,0,0,0,0,0
			l0.1,0c0,0,0,0,0,0c0,0,0,0,0,0l0,0c0,0,0,0,0,0l0,0c0,0,0,0,0,0l0.1,0c0,0,0,0,0,0l0,0c0,0,0,0,0,0c0,0,0,0,0,0l0,0c0,0,0,0,0,0
			c0,0,0,0,0.1,0c0,0,0.1-0.1,0.1-0.1c0,0,0,0,0,0l0,0c0,0,0,0,0,0c0,0,0,0,0,0c0,0,0,0,0,0l0,0c0,0,0,0,0,0l0,0c0,0,0,0,0-0.1
			c0,0,0,0,0-0.1c0,0,0,0,0-0.1c0-0.1,0.1-0.1,0.1-0.2l0,0c0,0,0,0,0,0l0,0c0,0,0,0,0-0.1l0-0.1c0,0,0,0,0,0c0,0,0,0,0,0
			c0,0,0-0.1,0-0.1c0.2-0.6,0.3-1.3,0.5-1.9c0,0,0,0,0,0c0.5-1.8,0.9-3.5,1.2-5.3c0.1-0.7,0.3-1.4,0.4-2c0.2-0.9,0.4-1.9,0.5-2.8
			c-1.7-1.8-3-3.8-4.1-6c-0.6-1.2-1-2.5-1.4-3.8c-1.3-4.7-0.9-9.1-0.3-12.1c-0.2,0-0.4,0-0.5,0c0,0-0.1,0-0.1,0c0,0-0.1,0-0.1,0
			c-0.2,0-0.3,0-0.5,0c-0.2,0-0.3,0-0.4,0c-0.2,0-0.3,0-0.5-0.1c-0.2,0-0.5-0.1-0.7-0.1c-0.2,1.4-0.7,2.7-1.2,3.9
			c-0.7,1.3-1.5,2.4-2.4,3.1c-0.6,0.4-1.2,0.8-1.8,0.9c0,0,0,0-0.1,0l0,0c0,0-1,0.2-2.1,0.2c-1.5-0.1-2.9-0.6-3.3-0.8
			c-1-0.4-1.8-1-2.5-1.7c-1.1-1.2-1.7-2.9-1.8-4.8c-0.1-1.7,0.2-3.5,0.9-5.3c0,0,0,0-0.1,0l-0.5-0.2c-0.2-0.1-0.4-0.2-0.6-0.3
			c-0.1,0-0.1-0.1-0.2-0.1c-0.3-0.2-0.7-0.4-1-0.5l-0.1-0.1c-0.3,3.2-1.3,7.5-4,11.9c-0.1,0.1-0.2,0.2-0.2,0.4
			c-2,3.2-4.6,5.9-7.8,8.1c-0.1,0.5-0.3,1-0.4,1.5l-0.1,0.4c-0.1,0.5-0.3,1.1-0.4,1.6c0,0.1,0,0.1,0,0.2c0,0.1,0,0.2,0,0.3
			c0,0.2,0,0.3,0,0.5c0,0,0,0,0,0l0,0c0,0,0,0.1,0,0.1l0,0c0,0,0,0,0,0c0,0.2,0.1,0.3,0.1,0.5c0,0,0,0.1,0,0.1l0,0c0,0,0,0.1,0,0.1
			c0,0,0,0.1,0,0.1c0,0,0,0.1,0,0.1l0,0.1c0,0,0,0,0,0c0,0,0,0.1,0,0.1l0,0c0,0,0,0,0,0l0,0c0,0,0,0,0,0.1L110.8,104.8
			C110.7,104.8,110.7,104.8,110.8,104.8L110.8,104.8L110.8,104.8L110.8,104.8z"/>
		<path class="st8" d="M132.9,148.9c1.7,3.1,2.1,6.2,1.2,8.3c-0.2,0.6-0.6,1.1-1,1.4c-1.2,1.1-2.9,1.3-3.8,1.3c-0.1,0-0.1,0-0.2,0
			c-2.8,0.2-5.4-1.3-6.7-3.7c-0.6-1.1-1.1-2.3-1.7-3.6c-0.6-1.4-1.1-2.7-1.5-4c-0.4-1.1-0.4-2.3,0.1-3.4l2.3-6
			c0.5-1.4,0.6-2.9,0.3-4.3l-0.9-3.8c-0.3-0.2-0.6-0.3-0.9-0.5c-1.1-0.6-2.3-1.4-3.5-2.2c-1-0.7-1.9-1.4-2.7-2.1
			c-0.5-0.5-1-0.9-1.5-1.3l-2,0c-1.4,0-2.7,1-3.1,2.3l-0.8,2.7c-0.4,1.3-1.5,2.3-2.9,2.5c-4.4,0.8-13.6,1.7-14.8-3.8
			c-0.9-4.1,1.5-5.9,3.8-6.7c1.7-0.6,3.4-0.6,3.4-0.6c-0.2-18.5,13.9-17.2,13.9-17.2c0.1,0.3,0.2,0.6,0.4,0.9
			c2.2,3.2,6.3,8.3,13.3,11.9c8.6,4.4,16.8,4.2,21,3.6c0.3,0,0.5-0.1,0.7-0.2C143.1,142.3,132.9,148.9,132.9,148.9z"/>
		<path class="st5" d="M128.6,160.6c-1.3,0-2.5-0.3-3.6-1c-1.3-0.7-2.3-1.8-3-3.1c-0.6-1.2-1.2-2.4-1.7-3.6c-0.6-1.3-1.1-2.7-1.6-4
			c-0.4-1.2-0.4-2.6,0.1-3.8l2.3-6c0.5-1.3,0.6-2.6,0.3-3.9l-0.8-3.5c-0.2-0.1-0.5-0.3-0.7-0.4c-1.2-0.7-2.4-1.4-3.6-2.3
			c-0.9-0.7-1.9-1.4-2.8-2.1c-0.5-0.4-0.9-0.8-1.3-1.2l-1.7,0c-1.2,0-2.2,0.8-2.5,1.9l-0.8,2.7c-0.5,1.6-1.8,2.7-3.4,3
			c-2.3,0.4-5.7,0.8-8.8,0.4c-1.7-0.2-3.2-0.7-4.3-1.3c-1.3-0.8-2.2-2-2.5-3.4c-0.4-2-0.2-3.7,0.8-5.1c0.7-1,1.9-1.8,3.4-2.3
			c1.2-0.4,2.3-0.6,3-0.6c0-6.2,1.7-10.9,4.9-13.8c2.2-2,4.7-2.8,6.4-3.1c1.9-0.3,3.2-0.2,3.3-0.2l0.4,0l0.1,0.4
			c0.1,0.3,0.2,0.5,0.4,0.7c2.3,3.4,6.5,8.3,13.1,11.7c8,4.1,15.6,4.2,20.6,3.6c0.2,0,0.4-0.1,0.5-0.2l1-0.5l-0.1,1.1
			c-0.5,5-1.5,9.6-2.9,13.7c-1.1,3.3-2.6,6.3-4.2,8.8c-2.2,3.4-4.2,5.2-5.1,5.9c0.7,1.4,1.2,2.9,1.4,4.3c0.2,1.5,0.1,3-0.4,4.1
			c-0.3,0.7-0.7,1.2-1.1,1.7c-1.3,1.2-3.2,1.4-4.2,1.5l0,0c0,0-0.1,0-0.1,0C129,160.6,128.8,160.6,128.6,160.6z M112.7,124.4
			l0.2,0.2c0.5,0.4,1,0.9,1.5,1.3c0.9,0.7,1.8,1.4,2.7,2.1c1.1,0.8,2.3,1.5,3.5,2.2c0.3,0.2,0.6,0.3,0.9,0.5l0.3,0.1l0.9,4.1
			c0.4,1.6,0.2,3.2-0.3,4.7l-2.3,6c-0.4,0.9-0.4,2,0,3c0.5,1.3,1,2.6,1.5,3.9c0.5,1.2,1.1,2.4,1.7,3.5c1.1,2.1,3.2,3.4,5.5,3.4
			c0.2,0,0.3,0,0.5,0c0,0,0.1,0,0.1,0l0,0c0.8-0.1,2.4-0.2,3.4-1.2c0.3-0.3,0.6-0.7,0.8-1.2c0.8-2,0.4-4.9-1.2-7.8l-0.3-0.5l0.5-0.3
			c0.1,0,2.5-1.7,5.2-5.9c2.4-3.8,5.6-10.5,6.8-21c-2.9,0.4-5.9,0.4-8.9,0c-4.4-0.5-8.5-1.8-12.4-3.7c-6.9-3.5-11.2-8.5-13.6-12.1
			c-0.1-0.2-0.2-0.4-0.3-0.6c-0.5,0-1.4,0-2.6,0.2c-1.5,0.3-3.8,1-5.8,2.8c-3,2.8-4.6,7.3-4.5,13.5l0,0.6l-0.6,0c0,0-1.6,0-3.2,0.6
			c-2.9,1-4,3-3.3,6c1.1,5,10.2,4,14.1,3.3c1.1-0.2,2-1,2.4-2.1l0.8-2.7c0.5-1.6,2-2.8,3.7-2.8L112.7,124.4z"/>
		<g class="st6">
			<path class="st7" d="M106.8,105.9c-1.1,0.3-3.1,1-5,2.8c-1.5,1.4-2.2,2.8-2.7,3.8c-1.2,2.3-1.5,4.3-1.8,6.4
				c-0.5,3.3,0,4.5,0.2,4.8c0.5,1.2,1.3,1.9,1.8,2.4c-1.5-0.5-2.3-1.2-2.6-1.7c-1.9-2.4-0.8-6.2,0.4-10.3c0.6-2.1,0.9-3.1,1.6-4.2
				c2.4-3.7,6.5-4.9,8.2-5.3C106.9,105,106.9,105.4,106.8,105.9z"/>
		</g>
		<path class="st7" d="M145.3,120.6c-0.3,1.9-0.6,3.8-1,5.8c-0.3,1.8-0.7,3.6-1.1,5.3c0.2-0.8,0.3-2.4-0.6-3.7c-1.6-2.4-6.1-2-6.7-2
			c-1.7,0.2-3,0.7-3.9,1.1c-3.1,1.3-3.5,2.8-6.3,3.7c-0.7,0.2-1.9,0.6-3.4,0.5c-2.1-0.2-3.7-1.2-4.4-1.8c-0.9-0.5-1.9-1.2-2.9-2.1
			c-1.4-1.3-3.5-3.2-3.6-5.7c0-1.7,0.4-3,0.4-3c0-0.1,0.1-0.2,0.1-0.4c0.1-0.3,0.2-0.6,0.2-0.8c0.1-0.6,0.3-1.4,0.3-1.5
			c0.1-0.7,0.5-5.7-3-8.6c-0.4-0.4-1.4-1.1-2.8-1.4c-2.4-0.6-4.4,0.5-5,0.8c1.1-0.7,2.9-1.7,5.2-2.2c1.1-0.2,2-0.3,2.9-0.3
			c0,0,0,0.1,0,0.1c0,0,0,0.1,0,0.1c0,0,0,0.1,0,0.1c0,0,0,0.1,0,0.1c0,0,0,0,0,0c0,0,0,0.1,0.1,0.1c0,0,0,0.1,0.1,0.1c0,0,0,0,0,0
			c0,0,0,0,0,0.1c0,0,0,0,0,0c0,0,0,0,0,0.1c0,0,0,0,0,0c0,0,0,0,0,0c0,0,0,0.1,0.1,0.1c2.2,3.2,6.3,8.3,13.3,11.9
			c8.6,4.4,16.8,4.2,21,3.6c0.1,0,0.2,0,0.3-0.1c0,0,0,0,0.1,0c0,0,0.1,0,0.1,0c0,0,0,0,0.1,0C145.2,120.6,145.2,120.6,145.3,120.6z
			"/>
		<path class="st5" d="M128.6,160.6c-1.3,0-2.5-0.3-3.6-1c-1.3-0.7-2.3-1.8-3-3.1c-0.6-1.2-1.2-2.4-1.7-3.6c-0.6-1.3-1.1-2.7-1.6-4
			c-0.4-1.2-0.4-2.6,0.1-3.8l2.3-6c0.5-1.3,0.6-2.6,0.3-3.9l-0.8-3.5c-0.2-0.1-0.5-0.3-0.7-0.4c-1.2-0.7-2.4-1.4-3.6-2.3
			c-0.9-0.7-1.9-1.4-2.8-2.1c-0.5-0.4-0.9-0.8-1.3-1.2l-1.7,0c-1.2,0-2.2,0.8-2.5,1.9l-0.8,2.7c-0.5,1.6-1.8,2.7-3.4,3
			c-2.3,0.4-5.7,0.8-8.8,0.4c-1.7-0.2-3.2-0.7-4.3-1.3c-1.3-0.8-2.2-2-2.5-3.4c-0.4-2-0.2-3.7,0.8-5.1c0.7-1,1.9-1.8,3.4-2.3
			c1.2-0.4,2.3-0.6,3-0.6c0-6.2,1.7-10.9,4.9-13.8c2.2-2,4.7-2.8,6.4-3.1c1.9-0.3,3.2-0.2,3.3-0.2l0.4,0l0.1,0.4
			c0.1,0.3,0.2,0.5,0.4,0.7c2.3,3.4,6.5,8.3,13.1,11.7c8,4.1,15.6,4.2,20.6,3.6c0.2,0,0.4-0.1,0.5-0.2l1-0.5l-0.1,1.1
			c-0.5,5-1.5,9.6-2.9,13.7c-1.1,3.3-2.6,6.3-4.2,8.8c-2.2,3.4-4.2,5.2-5.1,5.9c0.7,1.4,1.2,2.9,1.4,4.3c0.2,1.5,0.1,3-0.4,4.1
			c-0.3,0.7-0.7,1.2-1.1,1.7c-1.3,1.2-3.2,1.4-4.2,1.5l0,0c0,0-0.1,0-0.1,0C129,160.6,128.8,160.6,128.6,160.6z M112.7,124.4
			l0.2,0.2c0.5,0.4,1,0.9,1.5,1.3c0.9,0.7,1.8,1.4,2.7,2.1c1.1,0.8,2.3,1.5,3.5,2.2c0.3,0.2,0.6,0.3,0.9,0.5l0.3,0.1l0.9,4.1
			c0.4,1.6,0.2,3.2-0.3,4.7l-2.3,6c-0.4,0.9-0.4,2,0,3c0.5,1.3,1,2.6,1.5,3.9c0.5,1.2,1.1,2.4,1.7,3.5c1.1,2.1,3.2,3.4,5.5,3.4
			c0.2,0,0.3,0,0.5,0c0,0,0.1,0,0.1,0l0,0c0.8-0.1,2.4-0.2,3.4-1.2c0.3-0.3,0.6-0.7,0.8-1.2c0.8-2,0.4-4.9-1.2-7.8l-0.3-0.5l0.5-0.3
			c0.1,0,2.5-1.7,5.2-5.9c2.4-3.8,5.6-10.5,6.8-21c-2.9,0.4-5.9,0.4-8.9,0c-4.4-0.5-8.5-1.8-12.4-3.7c-6.9-3.5-11.2-8.5-13.6-12.1
			c-0.1-0.2-0.2-0.4-0.3-0.6c-0.5,0-1.4,0-2.6,0.2c-1.5,0.3-3.8,1-5.8,2.8c-3,2.8-4.6,7.3-4.5,13.5l0,0.6l-0.6,0c0,0-1.6,0-3.2,0.6
			c-2.9,1-4,3-3.3,6c1.1,5,10.2,4,14.1,3.3c1.1-0.2,2-1,2.4-2.1l0.8-2.7c0.5-1.6,2-2.8,3.7-2.8L112.7,124.4z"/>
		<path class="st5" d="M110.4,97.5c0.3-1.1,0.6-2.3,1-3.4c0.2-0.6,0.4-1.1,0.6-1.6c0.1-0.1,0.1-0.3,0.2-0.4c0.1-0.1,0.1-0.3,0.2-0.4
			c0.1-0.3,0.2-0.5,0.3-0.8c0.2-0.5,0.5-1.1,0.8-1.6c0.1-0.3,0.3-0.5,0.4-0.8c0.1-0.1,0.1-0.3,0.2-0.4c0.1-0.1,0.1-0.3,0.2-0.4
			c0.3-0.5,0.6-1,0.9-1.5c0.3-0.5,0.6-1,1-1.4c-0.5,1.1-0.9,2.1-1.4,3.2c-0.4,1.1-0.9,2.1-1.2,3.2c-0.4,1.1-0.7,2.2-1,3.2
			c-0.3,1.1-0.6,2.2-0.8,3.3L110.4,97.5z"/>
		<path class="st5" d="M133.7,149c-0.4,0.3-0.8,0.5-1.2,0.7c-0.1,0-0.2,0.1-0.3,0.1c-0.1,0-0.2,0.1-0.3,0.1c-0.1,0-0.2,0.1-0.3,0.1
			c-0.1,0-0.2,0.1-0.3,0.1c-0.4,0.1-0.9,0.2-1.3,0.2c-0.5,0-0.9,0-1.3-0.1c-0.2,0-0.4-0.1-0.7-0.2l-0.2,0l-0.1,0l-0.1,0l-0.3-0.1
			c-0.4-0.2-0.8-0.4-1.2-0.6c-0.1-0.1-0.2-0.1-0.3-0.2c-0.1-0.1-0.2-0.1-0.3-0.2c-0.2-0.1-0.3-0.3-0.5-0.4c-0.3-0.3-0.6-0.6-0.8-1
			c0.6,0.6,1.3,1,2.1,1.3c0.4,0.2,0.7,0.3,1.1,0.4l0.3,0.1l0.1,0l0.1,0l0.1,0c0.2,0,0.4,0,0.6,0.1c0.8,0,1.5-0.1,2.3-0.3
			c0.2-0.1,0.4-0.1,0.5-0.2c0.1,0,0.2-0.1,0.3-0.1c0,0,0.1,0,0.1-0.1l0.1-0.1c0.2-0.1,0.3-0.2,0.5-0.3c0.2-0.1,0.3-0.2,0.5-0.3
			L133.7,149z"/>
		<path class="st5" d="M96.6,121.7c0,0.1,0,0.2,0,0.3c0,0.1,0,0.2,0,0.4c0,0.1,0,0.1,0,0.2c0,0.1,0,0.1,0,0.2c0,0.1,0.1,0.2,0.1,0.3
			c0.1,0.2,0.2,0.4,0.3,0.7c0.1,0.2,0.3,0.4,0.4,0.6c0.1,0.1,0.2,0.2,0.2,0.3c0.1,0.1,0.2,0.2,0.3,0.3c0.2,0.2,0.4,0.3,0.6,0.4
			c0.4,0.3,0.9,0.5,1.5,0.6c-0.3,0.1-0.6,0.1-0.9,0.1c-0.3,0-0.6-0.1-0.9-0.1c-0.3-0.1-0.6-0.2-0.8-0.3l-0.2-0.1c0,0-0.1,0-0.1-0.1
			l-0.1-0.1c-0.1-0.1-0.2-0.2-0.4-0.3c-0.5-0.4-0.8-0.9-1.1-1.5c0-0.1-0.1-0.1-0.1-0.2c0-0.1-0.1-0.1-0.1-0.2c0-0.1,0-0.1-0.1-0.2
			c0-0.1,0-0.2-0.1-0.2c-0.1-0.3-0.1-0.6-0.1-0.9L96.6,121.7z"/>
		<path class="st5" d="M120.5,130.2c0.4,0.2,0.8,0.4,1.2,0.6c0.4,0.2,0.8,0.4,1.2,0.5c0.4,0.2,0.8,0.3,1.2,0.5l0.6,0.2
			c0.2,0.1,0.4,0.2,0.6,0.3c-0.5,0.1-0.9,0.1-1.4,0.1c-0.5,0-0.9-0.1-1.4-0.2c-0.5-0.1-0.9-0.2-1.3-0.3c-0.4-0.1-0.9-0.3-1.3-0.5
			L120.5,130.2z"/>
		<path class="st5" d="M149.8,98.4c0-0.5,0.1-1,0.1-1.5c0.1-0.5,0.1-1,0.2-1.5c0.1-0.5,0.1-1,0.2-1.5c0.1-0.5,0.2-1,0.3-1.6
			c0.1,0.5,0.2,1,0.3,1.6c0.1,0.5,0.1,1,0.2,1.6c0,0.5,0.1,1,0.1,1.6c0,0.5,0,1-0.1,1.6L149.8,98.4z"/>
		<path class="st5" d="M108.6,85.8c0.1,0.2,0.2,0.4,0.2,0.5c0.1,0.2,0.1,0.4,0.2,0.6c0.1,0.4,0.2,0.8,0.3,1.1
			c0.1,0.4,0.2,0.8,0.2,1.2c0.1,0.4,0.1,0.8,0.1,1.2c-0.2-0.3-0.4-0.7-0.6-1c-0.2-0.3-0.4-0.7-0.6-1c-0.2-0.3-0.4-0.7-0.5-1
			c-0.1-0.2-0.2-0.3-0.3-0.5c-0.1-0.2-0.2-0.3-0.2-0.5L108.6,85.8z"/>
		<path class="st5" d="M112.5,125.9c-0.3-0.3-0.6-0.7-0.8-1.1c-0.3-0.4-0.5-0.8-0.7-1.2c-0.2-0.4-0.4-0.8-0.5-1.3
			c-0.1-0.4-0.3-0.9-0.3-1.3c0.1,0.2,0.3,0.4,0.4,0.5l0.4,0.5c0.3,0.4,0.5,0.7,0.8,1c0.3,0.3,0.5,0.7,0.8,1c0.3,0.3,0.6,0.6,0.9,1
			L112.5,125.9z"/>
		<path class="st4" d="M107.9,86c-0.2,0.2-0.4,0.3-0.6,0.5c-1.7,1.4-3.3,1.9-4,2.1c-2.1,0.6-4,0.5-5.2,0.4c0,0,0,0-0.1,0
			c-0.5-0.1-0.9-0.4-1.1-0.9c-0.1-0.3-0.2-0.6-0.3-1c-0.1-0.3-0.1-0.6-0.1-0.9c0-0.3,0.2-0.6,0.5-0.8l0.4-0.1
			c-0.5-0.6-2.1-2.9-2-6.1c0.1-2.9,1.5-5,2-5.6c1.4-2,3.8-2.9,5.9-2.4c2.3,0.5,3.4,2.5,3.6,2.8c0.3,0.7,0.7,1.7,0.7,3.1
			c0.1,2.5-1.1,4.3-1.6,5l0.4,0.7c0.1,0.2,0.3,0.3,0.6,0.3c0,0,0,0,0.1,0c0.1,0,0.3,0.1,0.5,0.4c0.1,0.1,0.2,0.3,0.4,0.6
			c0.1,0.2,0.2,0.4,0.3,0.7C108.4,85.1,108.3,85.6,107.9,86z"/>
		<path class="st5" d="M99.9,89.7c-0.6,0-1.3,0-1.9-0.1c0,0-0.1,0-0.1,0c-0.7-0.1-1.3-0.6-1.5-1.2c-0.2-0.4-0.3-0.7-0.4-1.1
			c-0.1-0.3-0.1-0.7-0.2-1c0-0.5,0.2-0.9,0.5-1.2c-0.8-1.2-1.8-3.3-1.7-5.9c0.1-2.9,1.4-5,2.1-6c0.8-1.1,1.8-1.9,2.9-2.4
			c1.2-0.5,2.4-0.6,3.6-0.3c2.4,0.6,3.7,2.5,4,3.1l0,0c0.5,1.1,0.8,2.2,0.8,3.3c0.1,2.2-0.8,4-1.5,5l0.2,0.4c0,0,0.1,0,0.1,0l0,0
			c0.4,0,0.7,0.2,1,0.7c0.1,0.2,0.3,0.4,0.4,0.6c0.1,0.2,0.2,0.5,0.3,0.7c0.3,0.7,0.1,1.5-0.4,2v0c-0.2,0.2-0.4,0.4-0.6,0.6
			c-1.8,1.5-3.6,2-4.2,2.2C102.3,89.5,101.1,89.7,99.9,89.7z M102,71.6c-1.6,0-3.2,0.9-4.3,2.3l0,0c-0.7,0.9-1.8,2.7-1.9,5.2
			c-0.1,2.9,1.3,5,1.9,5.7l0.5,0.7L97.2,86c0,0-0.1,0.1-0.1,0.1c0,0.3,0.1,0.6,0.1,0.8c0.1,0.3,0.2,0.6,0.3,0.9
			c0.1,0.3,0.3,0.4,0.6,0.5c0,0,0,0,0,0c1.7,0.3,3.4,0.1,4.9-0.3c0.6-0.2,2.2-0.7,3.8-2c0.2-0.2,0.4-0.3,0.5-0.5
			c0.2-0.2,0.2-0.4,0.1-0.6c-0.1-0.2-0.2-0.4-0.3-0.6c-0.1-0.2-0.2-0.4-0.3-0.5c-0.1-0.1-0.1-0.1-0.1-0.1c-0.4,0-0.9-0.2-1.1-0.6
			l-0.6-1.1l0.2-0.3c0.6-0.8,1.5-2.4,1.5-4.6c0-1-0.3-1.9-0.7-2.8c-0.3-0.5-1.3-2-3.1-2.5C102.7,71.6,102.4,71.6,102,71.6z"/>
		<g class="st6">
			<path class="st7" d="M108.2,84.6c-0.1-0.3-0.2-0.5-0.3-0.7c-0.1-0.2-0.3-0.4-0.4-0.6c-0.3-0.4-0.4-0.4-0.5-0.4c0,0,0,0-0.1,0
				c-0.2,0-0.5-0.1-0.6-0.3l-0.4-0.7c0.5-0.6,1.7-2.4,1.6-5c0-1.3-0.4-2.4-0.7-3.1c-0.2-0.3-1.3-2.3-3.6-2.8
				c-1.3-0.3-2.7-0.1-3.9,0.6c0.8-0.2,1.6-0.2,2.3,0c2.3,0.5,3.4,2.5,3.6,2.8c0.3,0.7,0.7,1.7,0.7,3.1c0.1,2.5-1.1,4.3-1.6,5
				l0.4,0.7c0.1,0.2,0.3,0.3,0.6,0.3c0,0,0,0,0.1,0c0.1,0,0.3,0.1,0.5,0.4c0.1,0.1,0.2,0.3,0.4,0.6c0.1,0.2,0.2,0.4,0.3,0.7
				c0.2,0.5,0.1,1-0.3,1.3c-0.2,0.2-0.4,0.3-0.6,0.5c-0.8,0.7-1.6,1.1-2.2,1.4c0.8-0.2,2.3-0.8,3.8-2c0.2-0.2,0.4-0.4,0.6-0.5
				C108.3,85.6,108.4,85.1,108.2,84.6z"/>
		</g>
		<path class="st5" d="M99.9,89.7c-0.6,0-1.3,0-1.9-0.1c0,0-0.1,0-0.1,0c-0.7-0.1-1.3-0.6-1.5-1.2c-0.2-0.4-0.3-0.7-0.4-1.1
			c-0.1-0.3-0.1-0.7-0.2-1c0-0.5,0.2-0.9,0.5-1.2c-0.8-1.2-1.8-3.3-1.7-5.9c0.1-2.9,1.4-5,2.1-6c0.8-1.1,1.8-1.9,2.9-2.4
			c1.2-0.5,2.4-0.6,3.6-0.3c2.4,0.6,3.7,2.5,4,3.1l0,0c0.5,1.1,0.8,2.2,0.8,3.3c0.1,2.2-0.8,4-1.5,5l0.2,0.4c0,0,0.1,0,0.1,0l0,0
			c0.4,0,0.7,0.2,1,0.7c0.1,0.2,0.3,0.4,0.4,0.6c0.1,0.2,0.2,0.5,0.3,0.7c0.3,0.7,0.1,1.5-0.4,2v0c-0.2,0.2-0.4,0.4-0.6,0.6
			c-1.8,1.5-3.6,2-4.2,2.2C102.3,89.5,101.1,89.7,99.9,89.7z M102,71.6c-1.6,0-3.2,0.9-4.3,2.3l0,0c-0.7,0.9-1.8,2.7-1.9,5.2
			c-0.1,2.9,1.3,5,1.9,5.7l0.5,0.7L97.2,86c0,0-0.1,0.1-0.1,0.1c0,0.3,0.1,0.6,0.1,0.8c0.1,0.3,0.2,0.6,0.3,0.9
			c0.1,0.3,0.3,0.4,0.6,0.5c0,0,0,0,0,0c1.7,0.3,3.4,0.1,4.9-0.3c0.6-0.2,2.2-0.7,3.8-2c0.2-0.2,0.4-0.3,0.5-0.5
			c0.2-0.2,0.2-0.4,0.1-0.6c-0.1-0.2-0.2-0.4-0.3-0.6c-0.1-0.2-0.2-0.4-0.3-0.5c-0.1-0.1-0.1-0.1-0.1-0.1c-0.4,0-0.9-0.2-1.1-0.6
			l-0.6-1.1l0.2-0.3c0.6-0.8,1.5-2.4,1.5-4.6c0-1-0.3-1.9-0.7-2.8c-0.3-0.5-1.3-2-3.1-2.5C102.7,71.6,102.4,71.6,102,71.6z"/>
		<path class="st5" d="M106.8,81.7c-0.4,0.5-0.9,1-1.4,1.3c-0.5,0.4-1.1,0.6-1.8,0.7c0,0-0.1,0-0.1,0l-0.1,0l-0.2,0l-0.2,0
			c0,0-0.1,0-0.1,0l-0.1,0c-0.3,0-0.6,0-0.9-0.1c-0.6-0.1-1.2-0.3-1.7-0.5c0.6,0.2,1.2,0.3,1.7,0.2c0.3,0,0.6,0,0.8-0.1l0.1,0
			c0,0,0.1,0,0.1,0l0.2-0.1l0.2-0.1l0.1,0c0,0,0.1,0,0.1,0c0.5-0.2,1-0.5,1.4-0.9c0.4-0.4,0.7-0.8,1-1.3L106.8,81.7z"/>
		<path class="st5" d="M96.6,85.1c1.1,0.3,2.2,0.4,3.3,0.4c1.1,0,2.2-0.1,3.4-0.4c-1,0.5-2.1,0.9-3.3,1.1c-1.2,0.2-2.3,0.3-3.5,0.2
			L96.6,85.1z"/>
		<path class="st5" d="M107.3,83.6c-0.4,0.3-0.9,0.5-1.4,0.7c-0.5,0.2-1,0.2-1.5,0.3c0.4-0.2,0.8-0.5,1.2-0.8c0.3-0.3,0.6-0.7,0.9-1
			L107.3,83.6z"/>
		<path class="st5" d="M91.9,132.4c0-0.4,0.1-0.8,0.3-1.1c0.2-0.4,0.4-0.7,0.6-0.9l0,0l0.1,0l0.1-0.1c0.1-0.1,0.1-0.1,0.2-0.2
			c0.1-0.1,0.3-0.2,0.5-0.3c0.3-0.1,0.7-0.2,1-0.3c-0.3,0.1-0.6,0.3-0.8,0.5c-0.1,0.1-0.2,0.2-0.3,0.3c0,0.1-0.1,0.1-0.1,0.2
			l-0.1,0.1l0,0l0,0c-0.1,0.3-0.2,0.5-0.2,0.8c0,0.3,0,0.6,0.1,0.8L91.9,132.4z"/>
		<path class="st5" d="M88.2,128.8c0-0.4,0.1-0.8,0.3-1.1c0.2-0.4,0.4-0.7,0.6-0.9l0,0l0.1,0l0.1-0.1c0.1-0.1,0.1-0.1,0.2-0.2
			c0.1-0.1,0.3-0.2,0.5-0.3c0.3-0.1,0.7-0.2,1-0.3c-0.3,0.1-0.6,0.3-0.8,0.5c-0.1,0.1-0.2,0.2-0.3,0.3c0,0.1-0.1,0.1-0.1,0.2
			l-0.1,0.1l0,0l0,0.1c-0.1,0.3-0.2,0.5-0.2,0.8c0,0.3,0,0.6,0.1,0.8L88.2,128.8z"/>
		<path class="st5" d="M167.9,95.6c0-0.7,0-1.3,0-2c0-0.7,0.1-1.3,0.2-2c0.1-0.7,0.2-1.3,0.4-2c0-0.2,0.1-0.3,0.1-0.5
			c0-0.1,0-0.2,0.1-0.2l0.1-0.2c0.1-0.3,0.2-0.6,0.3-0.9c0,0.3,0,0.7,0,1l0,1c0,0.7,0,1.3,0,2c0,0.7,0,1.3,0.1,1.9
			c0,0.6,0.1,1.3,0.1,1.9L167.9,95.6z"/>
		<path class="st5" d="M171.6,83.8c-0.4,0.2-0.7,0.5-1.1,0.8c-0.3,0.3-0.6,0.7-0.8,1.1c0-0.5,0.1-1,0.3-1.5c0.2-0.5,0.4-1,0.7-1.4
			L171.6,83.8z"/>
		<path class="st5" d="M172,95.9c-0.1-0.6-0.2-1.2-0.2-1.8c0-0.6,0.1-1.2,0.3-1.7c0.2-0.6,0.4-1.1,0.7-1.6c0.3-0.5,0.6-0.9,1-1.3
			c-0.3,0.5-0.5,1-0.7,1.5c-0.2,0.5-0.3,1-0.3,1.6c0,0.5,0,1,0.1,1.5c0.1,0.5,0.2,1,0.4,1.5L172,95.9z"/>
		<g class="st2">
			<path d="M130.9,94C130.9,94,130.9,94,130.9,94L130.9,94C130.9,94,130.9,94,130.9,94L130.9,94z"/>
			<path class="st5" d="M130.9,94.1L130.9,94.1L130.9,94.1L130.9,94.1L130.9,94.1L130.9,94.1L130.9,94.1L130.9,94.1z"/>
		</g>
		<g class="st2">
			<path d="M134,97.5C134,97.5,134,97.5,134,97.5L134,97.5C134,97.5,134,97.5,134,97.5L134,97.5z"/>
			<path class="st5" d="M134,97.6L134,97.6L134,97.6L134,97.6L134,97.6z"/>
		</g>
		<g class="st2">
			<path class="st5" d="M110.4,121.6c0.8,1.4,1.9,3.1,3.6,4.7c-0.5-0.5-1-0.9-1.5-1.3l-2,0c-1.4,0-2.7,1-3.1,2.3l-0.8,2.7
				c-0.4,1.3-1.5,2.3-2.9,2.5c-4.4,0.8-13.6,1.7-14.8-3.8c-0.9-4.1,1.5-5.9,3.8-6.7c-0.2,0.1-1.9,1.5-1.9,3.8c0,0,0,0.1,0,0.1
				c0.1,1.8,1.4,3.3,3.1,3.8c1,0.3,2.3,0.5,3.8,0.5c1.9,0.1,3.5-0.2,4.8-0.6c0.8-0.2,1.4-0.8,1.6-1.5c0.3-0.9,0.5-1.8,0.8-2.7
				c0.4-1.2,1.3-2.2,2.4-2.7c0.5-0.2,1-0.4,1.5-0.6C109.4,122,110,121.8,110.4,121.6z"/>
		</g>
		<g class="st2">
			<path class="st5" d="M134.2,153.8l-0.1,3.4c-0.2,0.6-0.6,1.1-1,1.4c-1.2,1.1-2.9,1.3-3.8,1.3c-0.1,0-0.1,0-0.2,0
				c-2.8,0.2-5.4-1.3-6.7-3.7c-0.6-1.1-1.1-2.3-1.7-3.6c-0.6-1.4-1.1-2.7-1.5-4c-0.4-1.1-0.4-2.3,0.1-3.4l2.3-6
				c0.5-1.4,0.6-2.9,0.3-4.3l-0.9-3.8c-0.3-0.2-0.6-0.3-0.9-0.5c1.3,0.6,2.8,1.1,4.4,1.5c0,0,0,0,0,0l0.6,2.8c0.2,1,0.1,1.9-0.2,2.9
				l-2.3,7.3c-0.3,1-0.2,2.1,0.2,3c1.1,2.2,2.1,4.4,3.2,6.6c0.8,1.6,2.6,2.6,4.4,2.3C132.4,156.9,133.8,155.6,134.2,153.8z"/>
		</g>
		<g class="st2">
			<path class="st5" d="M128.1,89.6c0.1,0.2,0.2,0.3,0.2,0.3C128.3,89.8,128.2,89.7,128.1,89.6z"/>
		</g>
		<g class="st2">
			<path class="st5" d="M185.2,94c-0.1,0.2-2.7,2.9-6.1,2.3c-3-0.5-5.3-3.2-5.5-6.5c-0.2,0.2-0.4,0.5-0.6,0.8
				c-0.1,0.1-0.1,0.2-0.2,0.3c-0.3,0.4-0.8,0.6-1.2,0.4c-0.2-0.1-0.4-0.1-0.6-0.1c-0.2,0-0.4-0.1-0.6-0.1c-0.6,0-1-0.4-1.1-1
				c-0.1-0.6-0.2-1.2-0.3-1.8c-0.2,0.8-0.4,1.5-0.7,2.3c-0.1,0.3-0.4,0.5-0.7,0.5c-0.3,0-0.6,0-0.9,0c-0.2,0-0.4,0-0.6,0
				c-0.5,0-0.9-0.4-0.9-0.9c0-0.7,0-1.6,0.1-2.5c0.1-1.2,0.4-2.2,0.6-3.1c-0.5,0.5-1.1,1.4-1.6,2.5c-0.6,1.6-0.6,3.1-0.5,3.8
				c0,0-5.7,2.4-13.2,2.4c-0.7,2.3-1.8,4.1-3,4.1c-1.8,0-3-4.1-3.2-5.1c-0.7-2.3-0.6-4.4-0.5-5.7c1.5-0.1,3.1-0.3,4.9-0.7
				c2.9-0.7,6.7-2,10.2-4.6c-2.4,0.9-5.7,1.8-9.5,2.2c-2,0.2-3.9,0.3-5.7,0.2l-0.8,0c0.5,0,0.8,0.1,0.8,0.1c0,0-0.3,0-0.8-0.1
				c-2.2-0.1-4.2-0.4-5.8-0.7c-3-0.7-5.4-1.5-7.1-2.2c-2-0.7-3.5-1.4-5-2.1c-2.6-1.2-4.7-2.3-6.3-3.1c0.6,0.8,1.4,1.7,2.3,2.5
				c1.7,1.7,3.5,2.9,5,3.7c-0.2,0.5-0.8,2.2-0.2,4.2c0.6,2.1,2.2,3.4,2.3,3.3c0.1-0.1-0.7-0.8-1-2.1c-0.3-1-0.4-2.3,0.2-3.9
				c0.1-0.4,0.6-0.6,1-0.5c2,0.8,8.1,3,13,3.6c0.5,0.1,0.9,0.5,0.7,1c-0.7,3-0.9,6.1-0.2,9.4c0.3,1.5,1.1,3.7,2.7,6.2
				c0.3,0.4,0.4,1,0.3,1.5c-0.2,0.8-0.3,1.5-0.3,1.9c0,0-0.8,4.2-2.2,9.3c-0.2,0.7-0.7,1.3-1.3,1.6c-0.2,0.1-0.5,0.2-0.7,0.2
				c-4.1,0.5-12.3,0.8-21-3.6c-0.5-0.3-1-0.5-1.4-0.8c1.7,1.3,3.6,2.6,5.9,3.8c8.6,4.4,16.8,4.2,21,3.6c0.3,0,0.5-0.1,0.7-0.2
				c0.7-0.3,1.1-0.9,1.3-1.6c0.8-2.9,1.5-6,2.2-9.3c0.2-1.1,0.4-2.1,0.6-3.2c-0.7-0.7-1.4-1.6-2.1-2.6c0.6,0.7,1.4,1.4,2.2,2
				l1.1-8.3c1.3,0.2,2.8,0.2,4.6,0.1c3.8-0.3,6.8-1.6,8.7-2.6c0,0,0.3,2,1.7,2s2.3,0.1,2.3,0.1s0.9-0.5,0.8-1.5c0,0,1.8-0.3,3.9,0.2
				c0.3,0.7,1.1,2.5,3,3.7c1.9,1.1,4.9,1.6,7.1-0.2C185.3,97.5,185.2,94.4,185.2,94z"/>
		</g>
		<g class="st2">
			<path class="st5" d="M119,89.1c0,0-5.9,7.1-4.4-1.4c0,0-5.9,9.7-10.9,3.6c-0.7-0.8-0.4-2,0.6-2.5c0.3-0.2,0.7-0.4,1.1-0.6
				c1.2-0.8,2.1-1.7,2.5-2.3c-0.9,0.5-2.3,1.2-4.1,1.5c-1.2,0.2-2.3,0.3-3.2,0.2c-0.7,0-1.3-0.5-1.5-1.1c-0.1-0.2-0.2-0.4-0.2-0.6
				l3.7-0.8c0,0-9.9-2.5-4.5-12c0,0-6.1,4.9-0.4,12.5c0,0-1.6-0.5-1.1,1.6c0.5,2.1,1.6,1.7,1.6,1.7s1.8,10.3,13,7.8l-0.1,1.6
				C111,98.5,117.4,93.2,119,89.1z"/>
		</g>
		<g class="st2">
			<path class="st5" d="M121.9,115.1l-0.1,0.2c-0.2-0.1-0.3-0.2-0.5-0.3c-6.5-3.9-10.2-8.9-12.1-11.8c0.4,1.3,1,3.2,2.3,5.3
				c-0.1-0.2-0.2-0.3-0.2-0.4c0.1,0.2,0.5,0.9,1.3,2.1c0.4,0.5,0.6,0.9,0.9,1.3c0,0,0,0,0,0c0.6,0.8,1.5,1.8,2.7,3
				c1.3,1.2,2.8,2.3,4.2,3.1l0,0c1.1,0.8,3,2,5.6,3.2c7.9,3.6,11.8,1.5,14.2,4.6c1.1,1.4,1.1,3,1.3,5.3c0.2,3.7-0.9,6.4-2,8.9
				c-1.4,3.4-2.1,5.2-3.8,6.4c-1.7,1.3-3,3-4.9,4c0,0,0,0,0,0c0,0,0,0,0,0c0.3-0.2,4.7-3,4.7-3c1.9-1.2,2.8-3.1,4.6-6.5
				c1.3-2.4,1.9-4.3,2.5-6.2c2.3-7.2,2.8-14.5,2.8-14.5C130.7,121.4,121.9,115.1,121.9,115.1z M111.1,107.9c0,0,0,0,0.1,0.1
				C111.1,107.9,111.1,107.9,111.1,107.9z"/>
		</g>
		<path class="st7" d="M190.3,85.8c0.3,0,0.7,0,1-0.1l0.5,0l0.5,0c0.3,0,0.7,0,1-0.1c0.3,0,0.7-0.1,1-0.1l0.3,0l-0.5,0.4l-0.6,0.5
			l-0.6,0.5l-0.6,0.5l-0.6,0.5c-0.2,0.2-0.4,0.3-0.6,0.5l-1.8,1.5l2.2-0.5l0.8-0.2c0.3-0.1,0.5-0.1,0.8-0.2l0.8-0.2l0.8-0.2
			c1-0.2,2-0.5,3.1-0.7c1-0.3,2-0.5,3-0.8c0.5-0.1,1-0.3,1.5-0.4c0.5-0.1,1-0.3,1.5-0.5c-0.5,0-1,0.1-1.6,0.2
			c-0.5,0.1-1,0.1-1.6,0.2c-1,0.1-2.1,0.3-3.1,0.5c-1,0.2-2.1,0.4-3.1,0.6l-0.8,0.1l-0.1,0l0,0l0.6-0.5l0.6-0.5l0.6-0.5
			c0.4-0.3,0.8-0.7,1.1-1l1.3-1.1l-1.6,0.2c-0.3,0-0.6,0.1-1,0.2l-0.5,0.1l-0.5,0.1c-0.3,0.1-0.6,0.1-1,0.2c-0.3,0.1-0.6,0.1-1,0.2
			l-0.5,0.1l-0.5,0.1c-0.3,0.1-0.6,0.1-1,0.2c-0.6,0.1-1.3,0.3-1.9,0.4C189,85.9,189.7,85.9,190.3,85.8z"/>
		<path class="st7" d="M198.2,98.8c-1.3-0.4-2.7-0.7-4-1c-0.5-0.1-1-0.3-1.5-0.4c0.5-0.1,0.9-0.2,1.4-0.3l1-0.2l1-0.2
			c0.7-0.1,1.3-0.3,2-0.4l1.8-0.4l-1.8-0.4c-0.6-0.2-1.3-0.3-1.9-0.5c-0.3-0.1-0.6-0.2-1-0.2c-0.3-0.1-0.6-0.2-1-0.2
			c-0.6-0.2-1.3-0.3-1.9-0.4c-0.6-0.1-1.3-0.3-1.9-0.4c0.6,0.2,1.2,0.5,1.8,0.7c0.6,0.2,1.2,0.4,1.9,0.7c0.3,0.1,0.6,0.2,0.9,0.3
			c0.3,0.1,0.6,0.2,0.9,0.3c0.1,0,0.1,0,0.2,0.1c-0.1,0-0.2,0-0.3,0l-1,0.2l-1,0.2c-0.7,0.1-1.3,0.2-2,0.3l-0.5,0.1l-0.5,0.1l-1,0.2
			l-2.6,0.5l2.6,0.6c0.3,0.1,0.7,0.2,1,0.2l1,0.2c0.7,0.2,1.4,0.3,2,0.5c1.4,0.3,2.7,0.6,4.1,0.9c1.4,0.3,2.7,0.5,4.1,0.8l1,0.2
			c0.3,0.1,0.7,0.1,1,0.2c0.3,0.1,0.7,0.1,1,0.2l0.5,0.1l0.3,0l0.3,0l-0.2-0.1l-0.2-0.1l-0.5-0.2c-0.3-0.1-0.7-0.2-1-0.3
			c-0.3-0.1-0.7-0.2-1-0.3l-1-0.3C200.8,99.6,199.5,99.2,198.2,98.8z"/>
		<path class="st7" d="M194.5,114.2c-0.2-0.2-0.3-0.5-0.5-0.7c-0.7-1-1.4-2-2.1-2.9l-0.3-0.4l-0.3-0.4l-0.5-0.7l-0.5-0.7l-0.3-0.4
			l-0.3-0.4l-0.5-0.7c0,0-0.1-0.1-0.1-0.1l0.4,0.2l0.7,0.3l0.7,0.3c0.4,0.2,0.9,0.4,1.3,0.6l1.5,0.7l-0.9-1.4
			c-0.2-0.2-0.3-0.5-0.5-0.7c-0.2-0.2-0.3-0.5-0.5-0.7c-0.3-0.5-0.7-0.9-1-1.4c-0.3-0.4-0.7-0.9-1-1.3c-0.3-0.4-0.7-0.9-1-1.3
			c0.2,0.5,0.5,1,0.8,1.5c0.3,0.5,0.5,1,0.8,1.5c0.3,0.5,0.5,1,0.8,1.5c0,0,0,0,0,0l-0.5-0.3l-0.6-0.4l-0.6-0.4l-0.6-0.4l-0.6-0.4
			l-0.6-0.3l-2.3-1.2l1.6,2.1l0.5,0.7l0.6,0.7c0.2,0.2,0.4,0.5,0.6,0.7l0.6,0.7l0.3,0.3l0.3,0.3l0.6,0.7l0.6,0.7l0.3,0.3l0.3,0.3
			c0.8,0.9,1.5,1.8,2.3,2.7c0.2,0.2,0.4,0.4,0.6,0.7c0.2,0.2,0.4,0.4,0.6,0.7c0.4,0.4,0.8,0.9,1.2,1.3c-0.3-0.5-0.6-1-1-1.5
			C194.9,114.7,194.7,114.5,194.5,114.2z"/>
		<path class="st7" d="M164.3,75c-0.3,0.5-0.7,1-1,1.4c0,0-0.1,0.1-0.1,0.1c-1.6,2.1-3.5,3.8-5.7,5.1c-0.1,0-0.1,0.1-0.2,0.1
			c-2.5,1.4-5.1,2-7.4,2.2c-1.3,0.1-2.5,0.2-3.6,0.2c-0.6,0-1.2,0-1.7,0c-1.5,0-2.7-0.2-4-0.3c-0.2,0-0.5-0.1-0.8-0.1
			c-1.3-0.2-4.6-0.7-8.8-1.8c-2-0.5-3.5-1.1-5-1.6c-0.6-0.2-1.3-0.5-1.9-0.7c-0.3-0.1-3.5-1.3-7-3c-1.4-0.7-2.9-1.4-4.1-2.2
			c-0.9-0.5-1.8-1.1-2.7-1.9c-0.7-0.5-1.6-1.2-2.6-2.3c-0.2-0.3-0.9-0.9-1.6-1.9c-0.2-0.3-0.4-0.5-0.6-0.8c-0.6-0.9-1.3-2-1.9-3.6
			c-0.9-2.4-0.9-4.4-0.9-4.9c0-2,0.4-3.5,0.6-4.1c0.7-2.3,1.8-3.7,2.7-4.9c0.8-1,1.5-1.8,2.3-2.4c0.4-0.4,0.7-0.8,0.8-1.4
			c0.6-3.2,2.1-8.5,6.4-13.4c9.1-10.6,23-10,24.9-9.9c1.8,0.2,15.7,1.6,24.2,12.9c0.5,0.7,1,1.4,1.5,2.2c1.2,1.9,2.1,3.9,2.9,6
			c1,2.8,1.6,5.7,1.7,8.7C171,60.2,168.9,68.2,164.3,75z"/>
		<path class="st5" d="M146.6,84.8c-0.1,0-0.3,0-0.4,0c-0.6,0-1.1,0-1.6,0l-0.1,0c-1.5,0-2.6-0.2-4.1-0.4c-0.2,0-0.4,0-0.6-0.1
			l-0.2,0c-2.8-0.4-5.9-1-8.9-1.8c-2.2-0.6-3.8-1.2-5-1.6c-0.6-0.2-1.2-0.5-1.9-0.7c-0.4-0.1-3.6-1.4-7-3c-1.6-0.8-3-1.5-4.2-2.2
			c-1-0.6-1.9-1.2-2.8-1.9c-0.7-0.5-1.6-1.2-2.6-2.3c-0.6-0.6-1.1-1.3-1.6-2c-0.2-0.3-0.4-0.6-0.6-0.9c-0.5-0.8-1.3-2-2-3.8
			c-0.8-2.3-1-4.2-1-5.1c0-1.8,0.3-3.3,0.6-4.3c0.7-2.4,2-4,2.8-5.1c0.7-0.9,1.5-1.7,2.3-2.5c0.3-0.3,0.5-0.6,0.6-1
			c0.7-3.6,2.3-8.9,6.5-13.7c2.1-2.5,4.7-4.6,7.7-6.2c2.4-1.3,5-2.3,7.8-3c4.6-1.1,8.5-1,9.9-0.9l0,0c2.6,0.2,16.2,2,24.6,13.2
			c0.5,0.7,1.1,1.5,1.5,2.2c1.2,1.9,2.2,4,2.9,6.1c1,2.8,1.6,5.8,1.8,8.8c0.2,3.9-0.2,7.8-1.2,11.7c-1.1,3.9-2.8,7.7-5.1,11.1
			c-0.3,0.5-0.7,1-1,1.5c0,0-0.1,0.1-0.1,0.1c-1.6,2.2-3.6,3.9-5.9,5.2c-0.1,0-0.1,0.1-0.2,0.1c-2.3,1.2-4.8,2-7.6,2.3
			C148.9,84.7,147.8,84.8,146.6,84.8z M138.7,23.4c-4.4,0-15.3,1-22.8,9.7c-4,4.6-5.6,9.7-6.2,13.1c-0.1,0.7-0.5,1.3-1,1.7
			c-0.8,0.7-1.5,1.5-2.2,2.3c-0.8,1.1-2,2.5-2.6,4.7c-0.4,1.2-0.6,2.6-0.6,3.9c0,0.7,0.1,2.5,0.9,4.7c0.6,1.6,1.3,2.7,1.8,3.5
			c0.2,0.3,0.4,0.5,0.6,0.8c0.5,0.7,1,1.3,1.5,1.9c1,1,1.8,1.7,2.5,2.2c0.8,0.7,1.7,1.2,2.7,1.8c1.2,0.7,2.5,1.4,4.1,2.2
			c3.4,1.6,6.6,2.9,6.9,3c0.7,0.2,1.3,0.5,1.9,0.7c1.2,0.4,2.8,1,4.9,1.6c2.9,0.8,5.9,1.4,8.7,1.8l0.2,0c0.2,0,0.4,0.1,0.6,0.1
			c1.4,0.2,2.6,0.3,4,0.3l0.1,0c0.5,0,1,0,1.6,0c1.3,0,2.4,0,3.5-0.2c2.7-0.3,5-1,7.1-2.2c0.1,0,0.1-0.1,0.2-0.1
			c2.1-1.2,4-2.9,5.5-4.9l0,0c0,0,0.1-0.1,0.1-0.1c0.4-0.5,0.7-0.9,1-1.4v0c4.4-6.6,6.6-14.4,6.1-22c-0.2-2.9-0.8-5.8-1.7-8.5
			c-0.7-2.1-1.7-4.1-2.8-5.9c-0.5-0.7-1-1.5-1.5-2.1c-8.1-10.8-21.2-12.4-23.7-12.7C139.9,23.4,139.3,23.4,138.7,23.4z"/>
		<g class="st2">
			<path class="st5" d="M170.5,52.6c-0.2-3.8-1.1-7.4-2.6-10.9c0.2,1.3,0.4,2.7,0.5,4c0.5,8.1-1.9,16.7-7.3,23.8
				c0,0-0.1,0.1-0.1,0.1c-1.6,2.1-3.5,3.8-5.7,5.1c-0.1,0-0.1,0.1-0.2,0.1c-3.9,2.2-8,2.4-11,2.4c-0.6,0-1.2,0-1.7,0
				c-1.8,0-3.1-0.2-4.8-0.4c-1.3-0.2-4.6-0.7-8.8-1.8c-2.8-0.8-4.9-1.6-6.9-2.3c-0.4-0.2-6.7-2.5-11.1-5.2c-0.9-0.5-1.8-1.1-2.7-1.9
				c-0.7-0.5-1.6-1.2-2.6-2.3c-0.3-0.3-1.2-1.3-2.2-2.8c-0.2-0.3-0.5-0.7-0.7-1.1c0,0.9,0.2,2.5,0.9,4.3c0.6,1.6,1.3,2.8,1.9,3.6
				c1,1.5,1.9,2.4,2.2,2.8c1,1,1.9,1.7,2.6,2.3c1,0.7,1.9,1.3,2.7,1.9c4.5,2.7,10.7,5.1,11.1,5.2c2,0.8,4,1.5,6.9,2.3
				c4.2,1.2,7.5,1.6,8.8,1.8c1.7,0.2,3,0.4,4.8,0.4c0.5,0,1.1,0,1.7,0c3,0,7-0.2,11-2.4c0.1,0,0.1-0.1,0.2-0.1
				c2.2-1.3,4.2-3,5.7-5.1c0,0,0.1-0.1,0.1-0.1C168.6,69.3,171,60.8,170.5,52.6z"/>
		</g>
		<path class="st11" d="M124.4,45c-0.4,1.1-1.4,3.4-3.6,5.3c-2.4,2.1-4.9,2.9-6.1,3.2c0,0-5.5,1.4-9.9-2c1.2-1.9,2.6-3.2,3.5-4
			c0.4-0.4,0.7-0.9,0.8-1.4c0.4-2.6,1.5-6.9,4.5-11.2c0.1-0.1,0.2-0.3,0.3-0.4c1.5,0.1,3.1,0.4,4.8,1C127,38.5,124.4,45,124.4,45z"
			/>
		<path class="st11" d="M131.9,48.1c0,0,1.9-6.8,10.3-4.1c3.7,1.2,6,3.1,7.5,5c2.2,2.8,3.1,6.4,2.2,9.9c-0.6,2.3-2.1,4.7-5.4,5.8
			c-7.2,2.2-12-3.9-12-3.9c-0.8-0.9-2.3-3.1-2.9-6.2C131,51.6,131.6,49.2,131.9,48.1z"/>
		<path class="st5" d="M146.6,84.8c-0.1,0-0.2,0-0.4,0c-0.6,0-1.1,0-1.6,0l-0.1,0c-1.8,0-3.1-0.2-4.8-0.5l0,0
			c-2.8-0.4-5.9-1-8.9-1.8c-2.9-0.8-4.9-1.6-6.9-2.3c-0.3-0.1-6.7-2.5-11.2-5.3c-1-0.6-1.9-1.2-2.8-1.9c-0.7-0.5-1.6-1.2-2.6-2.3
			c-0.8-0.8-1.6-1.8-2.2-2.8c-0.5-0.8-1.3-2-2-3.8c-0.8-2.3-1-4.2-1-5.1c0-1.8,0.3-3.3,0.6-4.3c0.7-2.4,2-4,2.8-5.1
			c0.7-0.9,1.5-1.7,2.3-2.5c0.3-0.3,0.5-0.6,0.6-1c0.7-3.6,2.3-8.9,6.5-13.7c2.1-2.5,4.7-4.6,7.7-6.2c2.4-1.3,5-2.3,7.8-3
			c4.6-1.1,8.5-1,9.9-0.9l0,0c2.6,0.2,16.2,2,24.6,13.2c0.5,0.7,1.1,1.5,1.5,2.2c1.4,2.2,2.5,4.7,3.3,7.2c0.8,2.5,1.3,5.1,1.4,7.8
			c0.5,8.5-2.1,17.1-7.4,24.2c0,0-0.1,0.1-0.1,0.1l0,0c-1.6,2.2-3.6,3.9-5.9,5.2c-0.1,0-0.1,0.1-0.2,0.1
			C153.6,84.5,149.5,84.8,146.6,84.8z M138.7,23.4c-4.4,0-15.3,1-22.8,9.7c-4,4.6-5.6,9.7-6.2,13.1c-0.1,0.7-0.5,1.3-1,1.7
			c-0.8,0.7-1.5,1.5-2.2,2.3c-0.8,1.1-2,2.5-2.6,4.7c-0.4,1.2-0.6,2.6-0.6,3.9c0,0.7,0.1,2.5,0.9,4.7c0.6,1.6,1.3,2.7,1.8,3.5
			c0.6,1,1.4,1.9,2.1,2.7c1,1,1.8,1.7,2.5,2.2c0.8,0.7,1.7,1.2,2.7,1.8c4.5,2.7,10.8,5.1,11,5.2c2.1,0.8,4,1.5,6.8,2.3
			c2.9,0.8,5.9,1.4,8.7,1.8l0,0c1.7,0.2,3,0.4,4.7,0.4l0.1,0c0.5,0,1,0,1.5,0c3,0,6.9-0.2,10.7-2.3c0.1,0,0.1-0.1,0.2-0.1
			c2.1-1.2,4-2.9,5.5-4.9l0,0c0,0,0.1-0.1,0.1-0.1l0,0c5.1-6.9,7.7-15.2,7.2-23.4c-0.3-5.2-1.9-10.2-4.5-14.4
			c-0.5-0.7-1-1.5-1.5-2.1c-8.1-10.8-21.2-12.4-23.7-12.7C139.9,23.4,139.3,23.4,138.7,23.4z"/>
		<path class="st11" d="M115.3,25.5c-0.1,2.4,0.4,4.4,1.1,6c2.8-2.7,6.1-5,9.7-6.5c4.7-2,9.2-2.5,13.3-2.3c-0.8-2.2-2.4-5.5-6.1-7.5
			c-0.8-0.5-5.3-2.7-10.2-0.9c-3.6,1.4-5.4,4.2-6,5.1C116.8,20.1,115.5,22.3,115.3,25.5z"/>
		<path class="st5" d="M116.2,32.6l-0.4-0.9c-0.9-2-1.2-4.1-1.1-6.2c0.2-3,1.3-5.3,1.9-6.3c1.9-3.2,4.5-4.7,6.3-5.4
			c2.2-0.8,4.5-1,7-0.5c1.8,0.4,3.1,1,3.7,1.4c3.8,2,5.6,5.4,6.4,7.8l0.3,0.9l-0.9,0c-4.6-0.2-9,0.5-13.1,2.2
			c-3.5,1.5-6.7,3.6-9.5,6.4L116.2,32.6z M116,25.5c-0.1,1.6,0.1,3.2,0.7,4.8c2.7-2.5,5.8-4.5,9.2-6c4-1.7,8.2-2.5,12.6-2.4
			c-0.9-2.1-2.5-4.6-5.5-6.2c-1.1-0.6-5.2-2.5-9.7-0.8c-1.6,0.6-3.9,1.9-5.6,4.8C117.1,20.8,116.1,22.8,116,25.5z"/>
		<g class="st6">
			<path class="st7" d="M122.7,14.9c-1.7,0.5-3.2,1.3-4.4,2.5c1.4-1.6,3.3-2.9,5.5-3.5c6.4-1.9,13.6,2.1,15.5,9.2c0.1,0,0.2,0,0.4,0
				c0,0-0.1,0.1-0.1,0.1c-0.5,0-1,0.1-1.5,0.2C135.8,16.7,128.8,13.1,122.7,14.9z"/>
			<path class="st5" d="M137.9,23.3L137.9,23.3c-2.1-6.5-8.9-10.3-15.2-8.4c-1.6,0.5-3.1,1.3-4.4,2.5l0,0c1.5-1.7,3.4-2.9,5.5-3.5
				c1.5-0.5,3.2-0.6,4.8-0.3c1.6,0.2,3.1,0.7,4.6,1.5c1.5,0.8,2.8,1.9,3.8,3.3c1.1,1.4,1.9,3,2.3,4.7c0.1,0,0.2,0,0.4,0l0.1,0
				l-0.2,0.1l0,0C138.9,23.2,138.4,23.3,137.9,23.3L137.9,23.3z M125.9,14.4c0.5,0,1,0,1.5,0.1c1.6,0.2,3.1,0.7,4.5,1.4
				c2.9,1.6,5.1,4.2,6.1,7.4c0.5-0.1,1-0.1,1.5-0.2l0.1,0c-0.1,0-0.2,0-0.3,0l0,0l0,0c-0.9-3.4-3.1-6.2-6.1-8
				c-2.9-1.6-6.3-2.1-9.3-1.2c-1.9,0.6-3.7,1.7-5.2,3.2c1.2-1,2.6-1.8,4.1-2.2C123.7,14.5,124.8,14.4,125.9,14.4z"/>
		</g>
		<path class="st5" d="M116.2,32.6l-0.4-0.9c-0.9-2-1.2-4.1-1.1-6.2c0.2-3,1.3-5.3,1.9-6.3c1.9-3.2,4.5-4.7,6.3-5.4
			c2.2-0.8,4.5-1,7-0.5c1.8,0.4,3.1,1,3.7,1.4c3.8,2,5.6,5.4,6.4,7.8l0.3,0.9l-0.9,0c-4.6-0.2-9,0.5-13.1,2.2
			c-3.5,1.5-6.7,3.6-9.5,6.4L116.2,32.6z M116,25.5c-0.1,1.6,0.1,3.2,0.7,4.8c2.7-2.5,5.8-4.5,9.2-6c4-1.7,8.2-2.5,12.6-2.4
			c-0.9-2.1-2.5-4.6-5.5-6.2c-1.1-0.6-5.2-2.5-9.7-0.8c-1.6,0.6-3.9,1.9-5.6,4.8C117.1,20.8,116.1,22.8,116,25.5z"/>
		<path class="st12" d="M130.2,23.4c0.6-0.2,0.9-0.9,0.6-1.4c-1.5-2.8-4.8-4.1-7.5-3.1c-2.9,1-4.7,4.6-3.6,8
			c0.2,0.6,0.9,0.9,1.4,0.6c1.3-0.8,2.8-1.5,4.5-2.2C127.2,24.4,128.8,23.9,130.2,23.4z"/>
		<path class="st5" d="M120.6,28.2c-0.2,0-0.4,0-0.6-0.1c-0.5-0.2-0.8-0.6-1-1c-0.6-1.8-0.4-3.6,0.3-5.3c0.8-1.6,2.1-2.9,3.7-3.4
			c1.4-0.5,3.1-0.5,4.6,0.2c1.5,0.6,2.8,1.8,3.6,3.2c0.2,0.4,0.3,0.9,0.1,1.4c-0.2,0.5-0.6,0.8-1,1c-1.5,0.5-3.1,1.1-4.6,1.7
			c-1.5,0.7-3,1.4-4.4,2.2C121.2,28.1,120.9,28.2,120.6,28.2z M125.1,19.2c-0.5,0-1.1,0.1-1.6,0.3c-2.7,1-4.1,4.2-3.2,7.2
			c0,0.1,0.2,0.2,0.2,0.2c0.1,0,0.2,0.1,0.3,0c1.5-0.8,3-1.6,4.5-2.3c1.5-0.7,3.1-1.3,4.7-1.8c0.1,0,0.2-0.1,0.2-0.2
			c0-0.1,0.1-0.2,0-0.3C129.1,20.4,127.1,19.2,125.1,19.2z"/>
		<g class="st2">
			<path class="st5" d="M124,18.7c0,0-3,3.4-1.8,8.1l8-3.5l0.6-1.5c-0.4-0.5-1.4-1.9-3.3-2.7C126,18.5,124.6,18.6,124,18.7z"/>
		</g>
		<g class="st2">
			<path class="st5" d="M118.6,29.3c-0.5-1-1.4-3.4-1-6.4c0.5-3.9,2.8-6.4,3.6-7.1c0,0-8.9,4.9-5,15.7
				C117,30.8,117.8,30.1,118.6,29.3z"/>
			<path class="st5" d="M116.2,31.5L116.2,31.5c-0.9-2.5-1.2-4.9-0.9-7.1c0.3-1.8,0.9-3.4,1.9-4.9c1.7-2.6,3.9-3.8,4-3.8l0.2-0.1
				l-0.1,0.1c-1.1,1.1-3.1,3.5-3.6,7.1c-0.3,2.8,0.3,5,1,6.4l0,0L116.2,31.5z M121,15.9c-0.6,0.3-2.3,1.6-3.8,3.7
				c-1.6,2.3-3,6.3-1,11.9l2.4-2.1c-0.6-1.4-1.3-3.7-1-6.4C118,19.4,119.9,17.1,121,15.9z"/>
		</g>
		<path class="st11" d="M174.4,44.6c-1.3,2-2.9,3.4-4.3,4.2c-0.7-3.8-2.1-7.5-4.2-10.9c-2.7-4.3-6.1-7.4-9.6-9.6
			c1.9-1.4,5.2-3.1,9.3-2.6c1,0.1,5.9,0.8,8.8,5.2c2.2,3.2,2,6.6,1.9,7.6C176.3,39.3,176.1,41.9,174.4,44.6z"/>
		<path class="st5" d="M169.6,49.9l-0.2-0.9c-0.7-3.8-2.1-7.4-4.1-10.7c-2.3-3.8-5.5-6.9-9.4-9.4l-0.8-0.5l0.8-0.5
			c2.1-1.5,5.5-3.2,9.7-2.7c0.7,0.1,2.2,0.3,3.8,1c2.3,1,4.1,2.5,5.4,4.4c1.1,1.6,2.3,4.3,2,8c-0.1,1.2-0.5,3.7-2.1,6.3
			c-1.1,1.8-2.6,3.3-4.5,4.4L169.6,49.9z M157.5,28.4c3.7,2.5,6.7,5.6,9,9.2c1.9,3.1,3.3,6.5,4.1,10.2c1.3-1,2.5-2.2,3.3-3.5
			c1.5-2.3,1.8-4.6,1.9-5.7c0.2-3.4-0.9-5.8-1.8-7.2c-2.6-3.9-7.1-4.8-8.4-4.9C162.2,26,159.4,27.2,157.5,28.4z"/>
		<g class="st6">
			<path class="st7" d="M174.5,31.7c1.1,1.4,1.8,2.9,2.2,4.6c-0.2-2.2-1-4.3-2.4-6c-4.1-5.2-12.4-6.1-17.9-1.5
				c-0.1-0.1-0.2-0.1-0.3-0.2c0,0,0,0.1,0.1,0.1c0.4,0.3,0.7,0.6,1.1,1C162.8,25.6,170.6,26.7,174.5,31.7z"/>
			<path class="st5" d="M176.7,36.2c-0.4-1.7-1.1-3.2-2.2-4.6c-4.1-5.1-11.8-6-17.3-1.9l0,0l0,0c-0.4-0.3-0.7-0.7-1.1-1l0,0
				l-0.1-0.2l0.1,0c0.1,0.1,0.2,0.1,0.3,0.2c1.4-1.1,2.9-2,4.6-2.5c1.6-0.5,3.3-0.6,5-0.5c1.6,0.2,3.2,0.6,4.6,1.4
				c1.5,0.8,2.7,1.8,3.7,3.1C175.7,31.9,176.5,34,176.7,36.2L176.7,36.2z M164.9,27.1c0.5,0,1,0,1.6,0.1c1.6,0.2,3.1,0.7,4.5,1.4
				c1.4,0.8,2.6,1.8,3.6,3c1,1.2,1.7,2.6,2.1,4.2c-0.3-2.1-1.1-4-2.4-5.6c-2-2.5-5-4.1-8.3-4.4c-3.5-0.4-6.9,0.7-9.6,3l0,0l0,0
				c-0.1-0.1-0.2-0.1-0.3-0.2l0,0.1c0.4,0.3,0.7,0.6,1.1,1C159.4,28,162.1,27.1,164.9,27.1z"/>
		</g>
		<path class="st5" d="M169.6,49.9l-0.2-0.9c-0.7-3.8-2.1-7.4-4.1-10.7c-2.3-3.8-5.5-6.9-9.4-9.4l-0.8-0.5l0.8-0.5
			c2.1-1.5,5.5-3.2,9.7-2.7c0.7,0.1,2.2,0.3,3.8,1c2.3,1,4.1,2.5,5.4,4.4c1.1,1.6,2.3,4.3,2,8c-0.1,1.2-0.5,3.7-2.1,6.3
			c-1.1,1.8-2.6,3.3-4.5,4.4L169.6,49.9z M157.5,28.4c3.7,2.5,6.7,5.6,9,9.2c1.9,3.1,3.3,6.5,4.1,10.2c1.3-1,2.5-2.2,3.3-3.5
			c1.5-2.3,1.8-4.6,1.9-5.7c0.2-3.4-0.9-5.8-1.8-7.2c-2.6-3.9-7.1-4.8-8.4-4.9C162.2,26,159.4,27.2,157.5,28.4z"/>
		<path class="st12" d="M163.5,34.3c-0.4-0.5-0.2-1.2,0.4-1.5c2.9-1.4,6.3-0.5,7.9,1.8c1.8,2.5,1.1,6.5-1.7,8.6
			c-0.5,0.4-1.2,0.2-1.5-0.4c-0.6-1.4-1.4-2.9-2.3-4.4C165.3,36.8,164.4,35.5,163.5,34.3z"/>
		<path class="st5" d="M169.5,44c-0.1,0-0.3,0-0.4,0c-0.5-0.1-0.9-0.4-1.1-0.9c-0.7-1.5-1.5-3-2.3-4.4c-0.8-1.4-1.7-2.7-2.7-4
			c-0.3-0.4-0.4-0.9-0.3-1.4c0.1-0.5,0.4-0.9,0.9-1.1c1.5-0.7,3.2-0.9,4.8-0.5c1.6,0.4,3,1.3,3.9,2.5c1,1.4,1.3,3.2,1,4.9
			c-0.3,1.8-1.3,3.4-2.8,4.5C170.2,43.9,169.8,44,169.5,44z M164,33.9c1,1.3,1.9,2.7,2.8,4.1c0.9,1.4,1.7,2.9,2.4,4.5
			c0.1,0.1,0.2,0.2,0.2,0.2c0.1,0,0.2,0,0.3-0.1c2.5-1.9,3.2-5.4,1.5-7.7c-1.5-2.1-4.6-2.8-7.1-1.6c-0.1,0.1-0.2,0.2-0.2,0.2
			C163.9,33.7,163.9,33.8,164,33.9z"/>
		<g class="st2">
			<path class="st5" d="M171.3,34.4c0,0,0.4,4.5-3.2,7.7l-4.5-7.5l0.4-1.5c0.6-0.2,2.2-0.8,4.2-0.3C169.7,33.1,170.8,34,171.3,34.4z
				"/>
		</g>
		<g class="st2">
			<path class="st5" d="M169.5,45.8c1-0.6,3.1-2,4.5-4.7c1.9-3.5,1.4-6.8,1.2-7.9c0,0,4.4,9.1-5,15.7
				C170,47.9,169.7,46.8,169.5,45.8z"/>
		</g>
		<path class="st5" d="M149.1,50.8c-0.1,0.1-0.3,0.2-0.4,0.2c-0.1,0.1-0.3,0.1-0.4,0.2c-0.3,0.1-0.5,0.2-0.8,0.2
			c-0.5,0.1-1.1,0.2-1.6,0.3c-0.5,0.1-1.1,0.2-1.6,0.3c-0.6,0.1-1.1,0.1-1.7,0.2l-0.1-1.3c0.6-0.1,1.1-0.1,1.7-0.2
			c0.6,0,1.1-0.1,1.7-0.1c0.6,0,1.1,0,1.7,0c0.3,0,0.6,0,0.8,0c0.1,0,0.3,0,0.4,0.1C148.8,50.7,148.9,50.7,149.1,50.8z"/>
		<path class="st5" d="M132.6,50c0,0.1-0.1,0.3-0.1,0.4c0,0.1,0,0.3,0.1,0.4c0,0.1,0.1,0.2,0.2,0.3c0.1,0.1,0.1,0.2,0.2,0.2
			c0,0,0,0,0.1,0c0,0,0,0,0.1,0c0,0,0.1,0,0.1,0c0.1,0,0.2,0,0.3,0l0.1,0l0,0l0.1,0c0.1,0,0.1,0,0.2,0c0.1,0,0.2,0,0.3-0.1l0.1,1.3
			c-0.2,0-0.3,0-0.5-0.1c-0.1,0-0.2,0-0.2-0.1c0,0-0.1,0-0.1,0l-0.1,0l-0.1,0c-0.1-0.1-0.3-0.1-0.5-0.2c-0.1,0-0.2-0.1-0.2-0.2
			c0,0-0.1-0.1-0.1-0.1c0,0-0.1-0.1-0.1-0.1c-0.1-0.1-0.2-0.3-0.2-0.5c0-0.2-0.1-0.3-0.1-0.5C132.2,50.5,132.4,50.2,132.6,50z"/>
		<path class="st13" d="M145.5,51.3c-0.1,2.9-2.5,5.4-5.4,5.5c-2.9,0.2-5.6-1.9-6.1-4.8C137.8,51.8,141.6,51.5,145.5,51.3z"/>
		<path class="st5" d="M139.7,57.5c-1.4,0-2.8-0.5-4-1.4c-1.3-1-2.1-2.4-2.4-4l-0.1-0.7l12.9-0.8l0,0.7c-0.1,1.6-0.7,3.1-1.8,4.2
			c-1.1,1.1-2.6,1.8-4.2,1.9C139.9,57.5,139.8,57.5,139.7,57.5z M134.8,52.6c0.7,2.2,2.9,3.8,5.3,3.6c2.4-0.2,4.3-2,4.7-4.2
			L134.8,52.6z"/>
		<g class="st6">
			<path class="st7" d="M135.4,51.9c0.1,0.4,0.4,2,1.7,3.2c1.5,1.3,3.2,1.4,3.6,1.4c-1.9,0.6-4,0.1-5.2-1.3c-1-1.1-1.2-2.4-1.2-2.9
				C134.7,52.2,135.1,52,135.4,51.9z"/>
		</g>
		<path class="st5" d="M139.7,57.5c-1.4,0-2.8-0.5-4-1.4c-1.3-1-2.1-2.4-2.4-4l-0.1-0.7l12.9-0.8l0,0.7c-0.1,1.6-0.7,3.1-1.8,4.2
			c-1.1,1.1-2.6,1.8-4.2,1.9C139.9,57.5,139.8,57.5,139.7,57.5z M134.8,52.6c0.7,2.2,2.9,3.8,5.3,3.6c2.4-0.2,4.3-2,4.7-4.2
			L134.8,52.6z"/>
		<g class="st2">
			<path class="st5" d="M142.9,51.4c0,0.2,0,2.6-2.1,3.9c-1.4,0.9-2.9,0.6-3.2,0.5c0.2,0.1,2.5,1.4,4.9,0.2c1.8-0.9,2.9-2.8,2.8-4.8
				C144.5,51.3,143.7,51.4,142.9,51.4z"/>
		</g>
		<path class="st5" d="M122.2,46.2c0.1,0.3,0,0.6-0.2,0.9c-0.1,0.1-0.2,0.3-0.4,0.3c-0.1,0.1-0.3,0.2-0.5,0.2c0,0-0.1,0-0.1,0
			c0,0-0.1,0-0.1,0c-0.1,0-0.2,0-0.3,0c-0.2,0-0.4-0.1-0.5-0.1l-0.1,0l-0.1,0c0,0-0.1,0-0.1-0.1c-0.1,0-0.2-0.1-0.2-0.1
			c-0.1-0.1-0.3-0.2-0.4-0.3l0.9-0.9c0.1,0.1,0.1,0.2,0.2,0.3c0,0,0.1,0.1,0.1,0.1l0.1,0.1l0,0l0,0c0.1,0.1,0.2,0.2,0.3,0.2
			c0,0,0.1,0,0.1,0.1c0,0,0,0,0.1,0c0,0,0,0,0.1,0c0.1,0,0.2,0,0.3,0c0.1,0,0.2-0.1,0.3-0.1c0.1-0.1,0.2-0.1,0.3-0.2
			C122.1,46.4,122.2,46.3,122.2,46.2z"/>
		<path class="st13" d="M111.7,38.8c-1.8,2.3-1.6,5.7,0.5,7.7c2.1,2.1,5.5,2.2,7.8,0.3C117.2,44.1,114.4,41.5,111.7,38.8z"/>
		<path class="st5" d="M116.2,48.8c-0.1,0-0.2,0-0.3,0c-1.6-0.1-3.1-0.7-4.2-1.8c-1.1-1.1-1.8-2.6-1.9-4.2c-0.1-1.6,0.4-3.2,1.4-4.4
			l0.4-0.6l9.3,9l-0.5,0.5C119.2,48.3,117.7,48.8,116.2,48.8z M111.8,39.8c-1.2,2-0.8,4.7,0.8,6.3c1,1,2.3,1.4,3.6,1.4
			c0.9,0,1.9-0.3,2.7-0.8L111.8,39.8z"/>
		<g class="st6">
			<path class="st7" d="M118.9,45.8c-0.3,0.3-1.6,1.3-3.4,1.3c-2,0-3.4-1-3.7-1.3c1.1,1.7,3,2.6,4.8,2.4c1.5-0.2,2.5-1.1,2.9-1.4
				C119.3,46.4,119.1,46.1,118.9,45.8z"/>
		</g>
		<path class="st5" d="M116.2,48.8c-0.1,0-0.2,0-0.3,0c-1.6-0.1-3.1-0.7-4.2-1.8c-1.1-1.1-1.8-2.6-1.9-4.2c-0.1-1.6,0.4-3.2,1.4-4.4
			l0.4-0.6l9.3,9l-0.5,0.5C119.2,48.3,117.7,48.8,116.2,48.8z M111.8,39.8c-1.2,2-0.8,4.7,0.8,6.3c1,1,2.3,1.4,3.6,1.4
			c0.9,0,1.9-0.3,2.7-0.8L111.8,39.8z"/>
		<g class="st2">
			<path class="st5" d="M113.5,40.6c-0.1,0.1-1.7,2-0.9,4.3c0.5,1.6,1.8,2.3,2.1,2.5c-0.2,0-2.8-0.6-3.8-3.1c-0.8-1.8-0.4-4,1-5.5
				C112.4,39.4,113,40,113.5,40.6z"/>
		</g>
		<path class="st5" d="M131.2,65.7c-0.2,0.1-0.3,0.2-0.4,0.3c-0.1,0.1-0.3,0.2-0.4,0.3c-0.2,0.2-0.4,0.5-0.5,0.7l0,0.1
			c0,0,0,0.1,0,0.1l0,0.1c0,0,0,0,0,0.1l0,0.1c0,0.1-0.1,0.3-0.1,0.4c0,0.2,0,0.3,0,0.5c0,0.2,0,0.4,0,0.6c-0.1-0.1-0.2-0.1-0.2-0.2
			c-0.1-0.1-0.1-0.2-0.2-0.2c-0.1-0.2-0.2-0.4-0.2-0.6c-0.1-0.2-0.1-0.4,0-0.6c0-0.1,0-0.1,0-0.2c0,0,0-0.1,0-0.1l0-0.1
			c0-0.1,0-0.1,0-0.2c0,0,0-0.1,0.1-0.1c0.2-0.4,0.5-0.7,0.9-0.9C130.4,65.6,130.8,65.6,131.2,65.7z"/>
		<path class="st5" d="M119.5,56.1c-0.6,1,0.8,3.7,2.9,4.4c2,0.6,4.5-0.5,4.7-1.7c0.2-1.4-2.9-2.6-3.1-2.6
			C122.7,55.7,120.1,55.1,119.5,56.1z"/>
		<path class="st5" d="M122.3,60.6c0,0,0.1,0,0.2,0.1c1.4,0.5,3.1,0,4-0.6c0.5-0.4,0.8-0.8,0.9-1.2c0.2-1.4-2.9-2.6-3.2-2.8
			c-1-0.4-3.9-1.2-4.6,0c-0.2,0.4-0.2,0.9,0,1.6C119.8,58.7,120.8,60,122.3,60.6z M123.8,56.2c0.1,0,0.1,0,0.2,0.1
			c1.1,0.4,3.2,1.5,3.1,2.5c0,0.3-0.3,0.7-0.8,1c-0.8,0.6-2.4,1-3.8,0.6c-1.4-0.4-2.5-1.8-2.8-2.8c-0.2-0.6-0.2-1.1,0-1.3
			C120.1,55.3,122.3,55.7,123.8,56.2z"/>
		<path class="st7" d="M120.6,56.2c-0.1,0.2,0.5,0.8,1.3,1.1c0.7,0.2,1.6,0.1,1.6-0.1c0.1-0.3-1.2-0.7-1.3-0.7
			C122,56.4,120.7,55.9,120.6,56.2z"/>
		<path class="st5" d="M122.1,58.8l-1.2,3.4l1.2,0.4l1.2-3.4L122.1,58.8z"/>
		<path class="st5" d="M129.2,67.4c-0.1-0.1-0.3-0.2-0.4-0.3l-0.4-0.3c-0.3-0.2-0.5-0.4-0.8-0.6c-0.5-0.4-1.1-0.7-1.6-1.1
			c-0.6-0.3-1.1-0.7-1.7-1c-0.6-0.3-1.2-0.6-1.8-0.9c-0.6-0.3-1.2-0.5-1.8-0.7c-0.1,0-0.2,0-0.2-0.1l-0.2-0.1l-0.2,0
			c-0.1,0-0.2,0-0.2,0c-0.3-0.1-0.6-0.1-1-0.1c-0.3,0-0.6,0-0.9,0c-0.2,0-0.3,0-0.4,0.1c-0.1,0-0.3,0.1-0.4,0.1l0,0l0,0
			c0,0-0.1,0-0.1,0.1c0,0-0.1,0.1-0.1,0.1l0,0l0,0c0,0,0,0.1-0.1,0.1c0,0.1-0.1,0.1-0.1,0.2c0,0.1-0.1,0.3-0.1,0.5
			c0,0.2,0,0.3,0,0.5c-0.1-0.1-0.2-0.3-0.2-0.5c-0.1-0.2-0.1-0.3-0.1-0.5c0-0.2,0-0.4,0.1-0.6c0.1-0.2,0.2-0.3,0.4-0.5
			c0.2-0.1,0.3-0.2,0.5-0.3c0.2-0.1,0.4-0.1,0.5-0.1c0.4,0,0.7,0,1.1,0c0.3,0,0.7,0.1,1,0.1c0.1,0,0.2,0,0.3,0l0.3,0
			c0.2,0,0.3,0.1,0.5,0.1c0.7,0.2,1.3,0.4,2,0.6c0.2,0.1,0.3,0.1,0.5,0.2c0.2,0.1,0.3,0.1,0.5,0.2c0.2,0.1,0.3,0.1,0.5,0.2l0.5,0.2
			c0.6,0.3,1.2,0.7,1.8,1c0.6,0.4,1.1,0.7,1.7,1.1c0.3,0.2,0.5,0.4,0.8,0.6c0.1,0.1,0.3,0.2,0.4,0.3c0.1,0.1,0.3,0.2,0.4,0.3
			L129.2,67.4z"/>
		<path class="st13" d="M120.4,28.5c0.4,0.2,0.8,0.4,1.3,0.6c0.4,0.2,0.8,0.4,1.2,0.7l0.1,0.1c0,0,0.1,0,0.1,0.1l0.1,0l0.1,0
			c0,0,0.1,0,0.1,0c0.2,0.1,0.4,0.1,0.6,0.1c0,0,0.1,0,0.1,0l0.1,0c0.1,0,0.2,0,0.3,0c0.1,0,0.2,0,0.3,0l0.1,0c0,0,0.1,0,0.1,0
			c0.7-0.2,1.3-0.7,1.7-1.4c0.1-0.2,0.2-0.4,0.2-0.5c0,0,0-0.1,0-0.1c0,0,0-0.1,0-0.1c0,0,0-0.1,0-0.1c0,0,0-0.1,0-0.2
			c0-0.1,0-0.1,0-0.2c0-0.1,0-0.1,0-0.2c0-0.1,0-0.2,0-0.3c0-0.2,0.1-0.5,0.1-0.7c0.1,0.2,0.2,0.4,0.3,0.6c0,0.1,0.1,0.2,0.1,0.3
			c0,0.1,0,0.1,0,0.2c0,0.1,0,0.1,0,0.2c0,0.3,0,0.5,0,0.8c0,0.1,0,0.1,0,0.2c0,0.1,0,0.1,0,0.2c0,0.1,0,0.1-0.1,0.2
			c0,0.1,0,0.1-0.1,0.2l-0.1,0.2c0,0.1-0.1,0.1-0.1,0.2c0,0.1-0.1,0.1-0.1,0.2c0,0.1-0.1,0.1-0.1,0.2c0,0.1-0.1,0.1-0.1,0.2L127,30
			c0,0.1-0.1,0.1-0.1,0.1c0,0-0.1,0.1-0.1,0.1c-0.4,0.4-0.9,0.6-1.4,0.8c-1,0.3-2.2,0-3-0.6c-0.4-0.3-0.7-0.6-1-0.9
			C121,29.2,120.7,28.9,120.4,28.5z"/>
		<path class="st13" d="M134.3,34.4c-0.5,0.1-0.9,0.2-1.4,0.3c-0.1,0-0.2,0-0.3,0l-0.2,0l-0.1,0l-0.1,0c-0.3,0-0.5,0-0.8,0
			c-1-0.2-2-0.8-2.5-1.8c0,0,0-0.1-0.1-0.1l0-0.1c0-0.1-0.1-0.1-0.1-0.2c0-0.1-0.1-0.2-0.1-0.4c-0.1-0.3-0.1-0.5-0.1-0.8l0-0.2
			c0-0.1,0-0.1,0-0.2c0-0.1,0-0.3,0-0.4l0-0.2c0,0,0-0.1,0-0.1l0-0.1c0-0.1,0-0.1,0.1-0.2l0.1-0.2c0.1-0.2,0.2-0.5,0.4-0.7
			c0.1-0.1,0.2-0.2,0.2-0.3c0,0,0.1-0.1,0.1-0.1c0,0,0.1-0.1,0.1-0.1l0.1-0.1c0,0,0.1-0.1,0.1-0.1c0.1-0.1,0.2-0.1,0.3-0.2
			c0.2-0.1,0.4-0.3,0.6-0.4c-0.1,0.2-0.2,0.4-0.3,0.6c-0.1,0.1-0.1,0.2-0.2,0.3l-0.1,0.1l-0.1,0.1c0,0,0,0,0,0.1l0,0.1
			c0,0,0,0.1-0.1,0.1c0,0.1-0.1,0.2-0.1,0.3c0,0,0,0.1,0,0.1c0,0,0,0.1,0,0.1c0,0,0,0.1,0,0.1c0,0,0,0.1,0,0.1
			c0,0.2-0.1,0.4-0.1,0.6c0,0.2,0,0.4,0,0.6c0,0.2,0.1,0.4,0.1,0.5c0,0.1,0.1,0.2,0.1,0.3c0,0,0,0.1,0.1,0.1c0,0,0,0.1,0.1,0.1
			c0.2,0.3,0.4,0.6,0.7,0.9c0.1,0.1,0.3,0.2,0.5,0.3c0,0,0.1,0,0.1,0.1l0.1,0l0.1,0c0,0,0.1,0,0.1,0.1c0,0,0.1,0,0.1,0.1
			c0,0,0.1,0,0.1,0c0,0,0.1,0,0.1,0l0.1,0c0,0,0.1,0,0.1,0l0.1,0l0.1,0l0.2,0c0.1,0,0.2,0,0.3,0.1C133.4,34.2,133.9,34.3,134.3,34.4
			z"/>
		<path class="st13" d="M129.1,38.2c-0.2-0.5-0.3-0.9-0.4-1.4c0-0.1,0-0.2-0.1-0.4l0-0.2l0-0.1l0-0.1c0-0.1,0-0.1,0-0.2l0-0.2
			c0-0.1,0-0.1-0.1-0.1c0,0,0-0.1-0.1-0.1c0,0,0-0.1-0.1-0.1c0,0,0-0.1-0.1-0.1l0-0.1l0-0.1c0,0-0.1-0.1-0.1-0.1
			c-0.1-0.2-0.2-0.3-0.4-0.5c-0.3-0.3-0.6-0.5-1-0.7c0,0-0.1,0-0.1-0.1c0,0-0.1,0-0.1-0.1c-0.1,0-0.2-0.1-0.3-0.1
			c-0.2-0.1-0.4-0.1-0.6-0.1l-0.1,0c0,0-0.1,0-0.1,0l-0.1,0c0,0,0,0-0.1,0l-0.2,0c-0.2,0-0.4,0-0.6,0.1c0,0-0.1,0-0.1,0l-0.1,0l0,0
			l0,0c0,0-0.1,0-0.1,0.1c0,0-0.1,0-0.1,0.1c-0.1,0-0.2,0.1-0.3,0.1c0,0-0.1,0.1-0.1,0.1l-0.1,0c0,0,0,0-0.1,0l-0.1,0.1l-0.2,0.1
			c-0.1,0.1-0.2,0.1-0.3,0.2c-0.2,0.1-0.4,0.3-0.6,0.4c0.1-0.2,0.2-0.4,0.4-0.6c0.1-0.1,0.1-0.2,0.2-0.3c0-0.1,0.1-0.1,0.1-0.2
			l0.1-0.2c0-0.1,0.1-0.1,0.1-0.1c0,0,0.1-0.1,0.1-0.1c0.1-0.1,0.2-0.2,0.3-0.3c0.2-0.2,0.5-0.3,0.7-0.4l0.2-0.1
			c0.1,0,0.1,0,0.2-0.1l0.1,0c0,0,0.1,0,0.1,0l0.2,0c0.1,0,0.3,0,0.4-0.1c0.1,0,0.1,0,0.2,0l0.2,0c0.3,0,0.6,0,0.8,0.1
			c0.1,0,0.3,0.1,0.4,0.1c0.1,0,0.1,0.1,0.2,0.1l0.1,0c0,0,0.1,0,0.1,0c1,0.5,1.7,1.5,1.9,2.6c0.1,0.3,0.1,0.5,0.1,0.8l0,0.1l0,0.1
			l0,0.2c0,0.1,0,0.2,0,0.4C129.2,37.2,129.2,37.7,129.1,38.2z"/>
		<g class="st2">
			<path d="M130,93.8L130,93.8L130,93.8L130,93.8L130,93.8z"/>
		</g>
		<g class="st2">
			<path d="M132.7,96.5C132.7,96.5,132.7,96.5,132.7,96.5L132.7,96.5C132.7,96.5,132.7,96.5,132.7,96.5L132.7,96.5z"/>
		</g>
		<path class="st14" d="M133.4,99.2c-0.8-3.6-3.7-4.8-4.5-5c-0.1,0-0.1,0-0.1,0.1c0.5,0.8,1.1,1.8,2,2.8c0.9,0.9,1.7,1.6,2.4,2.2
			C133.3,99.3,133.4,99.2,133.4,99.2z"/>
		<path class="st15" d="M133.3,99.5c-0.1,0-0.1,0-0.2-0.1c-0.9-0.6-1.7-1.4-2.5-2.2c-0.8-0.9-1.5-1.8-2.1-2.8
			c-0.1-0.1-0.1-0.3,0-0.4c0.1-0.1,0.2-0.1,0.4-0.1c0.4,0.1,1.3,0.5,2.3,1.3c1.2,1,2,2.3,2.4,3.9c0,0.1,0,0.3-0.1,0.3
			C133.4,99.5,133.4,99.5,133.3,99.5z M133.1,99.2C133.1,99.2,133.1,99.2,133.1,99.2L133.1,99.2z M129.3,94.6
			c0.5,0.8,1.1,1.6,1.7,2.3c0.6,0.7,1.3,1.3,2,1.8C132.3,96.1,130.3,95,129.3,94.6z"/>
		<path class="st14" d="M133.4,99.2c-0.8-3.6-3.7-4.8-4.5-5c-0.1,0-0.1,0-0.1,0.1c0.5,0.8,1.1,1.8,2,2.8c0.9,0.9,1.7,1.6,2.4,2.2
			C133.3,99.3,133.4,99.2,133.4,99.2z"/>
		<path class="st15" d="M133.3,99.5c-0.1,0-0.1,0-0.2-0.1c-0.9-0.6-1.7-1.4-2.5-2.2c-0.8-0.9-1.5-1.8-2.1-2.8
			c-0.1-0.1-0.1-0.3,0-0.4c0.1-0.1,0.2-0.1,0.4-0.1c0.4,0.1,1.3,0.5,2.3,1.3c1.2,1,2,2.3,2.4,3.9c0,0.1,0,0.3-0.1,0.3
			C133.4,99.5,133.4,99.5,133.3,99.5z M133.1,99.2C133.1,99.2,133.1,99.2,133.1,99.2L133.1,99.2z M129.3,94.6
			c0.5,0.8,1.1,1.6,1.7,2.3c0.6,0.7,1.3,1.3,2,1.8C132.3,96.1,130.3,95,129.3,94.6z"/>
		<path class="st15" d="M133.3,99.5c-0.1,0-0.1,0-0.2-0.1c-0.9-0.6-1.7-1.4-2.5-2.2c-0.8-0.9-1.5-1.8-2.1-2.8
			c-0.1-0.1-0.1-0.3,0-0.4c0.1-0.1,0.2-0.1,0.4-0.1c0.4,0.1,1.3,0.5,2.3,1.3c1.2,1,2,2.3,2.4,3.9c0,0.1,0,0.3-0.1,0.3
			C133.4,99.5,133.4,99.5,133.3,99.5z M133.1,99.2C133.1,99.2,133.1,99.2,133.1,99.2L133.1,99.2z M129.3,94.6
			c0.5,0.8,1.1,1.6,1.7,2.3c0.6,0.7,1.3,1.3,2,1.8C132.3,96.1,130.3,95,129.3,94.6z"/>
		<path class="st14" d="M133.3,99.4c0,0,0.7,1.8,0.6,3.2c0.1-0.1,0.2-0.2,0.2-0.2c0.1-0.1,0.1-0.1,0.2-0.1c0.1-0.1,0.2-0.1,0.2-0.2
			c-0.1-0.4-0.2-0.8-0.4-1.2c-0.2-0.7-0.5-1.2-0.8-1.7c-0.1,0-0.1,0-0.2,0.1C133.2,99.3,133.2,99.4,133.3,99.4z"/>
		<path class="st15" d="M133.6,103.2l0-0.7c0.1-1.2-0.5-2.7-0.6-3c-0.1-0.1-0.1-0.3,0-0.4c0.1-0.2,0.3-0.2,0.4-0.2l0.1,0l0.1,0.1
			c0.3,0.6,0.6,1.1,0.8,1.7c0.1,0.4,0.3,0.8,0.4,1.2l0,0.1l-0.1,0.1c-0.1,0.1-0.2,0.1-0.2,0.2c-0.1,0-0.1,0.1-0.1,0.1
			c0,0-0.1,0-0.1,0.1c-0.1,0-0.1,0.1-0.2,0.2L133.6,103.2z M134,101.2c0.1,0.3,0.1,0.6,0.1,0.8c0,0,0,0,0.1,0c0,0,0,0,0.1-0.1
			C134.2,101.7,134.1,101.5,134,101.2z"/>
		<path class="st15" d="M129.7,95.1c0.3,0.2,0.6,0.4,0.9,0.6c0.1,0.1,0.1,0.1,0.2,0.2c0.1,0.1,0.1,0.1,0.2,0.2
			c0.1,0.1,0.3,0.2,0.4,0.4c0.2,0.3,0.5,0.5,0.7,0.8c0.2,0.3,0.4,0.6,0.5,0.9c-0.2-0.3-0.4-0.6-0.6-0.9c-0.1-0.1-0.1-0.1-0.2-0.2
			c0,0-0.1-0.1-0.1-0.1l-0.1-0.1c-0.1-0.1-0.1-0.1-0.2-0.2l-0.2-0.2c-0.1-0.1-0.2-0.2-0.4-0.4c-0.1-0.1-0.3-0.2-0.4-0.4
			C130.2,95.6,130,95.3,129.7,95.1z"/>
		<path class="st14" d="M133.3,99.2c-2.9-2.3-5.9-1.3-6.6-1c-0.1,0-0.1,0.1,0,0.1c0.9,0.3,2,0.7,3.3,0.9c1.3,0.2,2.4,0.2,3.3,0.2
			C133.3,99.3,133.4,99.2,133.3,99.2z"/>
		<path class="st15" d="M132.4,99.6c-0.8,0-1.6-0.1-2.4-0.2c-1.2-0.2-2.3-0.5-3.4-0.9c-0.1,0-0.2-0.2-0.2-0.3c0-0.1,0.1-0.3,0.2-0.3
			c0.4-0.1,1.3-0.5,2.6-0.5c1.6,0,3,0.5,4.3,1.6c0.1,0.1,0.1,0.2,0.1,0.4c0,0.1-0.2,0.2-0.3,0.2C133,99.6,132.7,99.6,132.4,99.6z
			 M127.3,98.2c0.9,0.3,1.9,0.6,2.8,0.7c0.9,0.1,1.8,0.2,2.7,0.2C130.5,97.5,128.3,97.9,127.3,98.2z"/>
		<path class="st14" d="M133.3,99.2c-2.9-2.3-5.9-1.3-6.6-1c-0.1,0-0.1,0.1,0,0.1c0.9,0.3,2,0.7,3.3,0.9c1.3,0.2,2.4,0.2,3.3,0.2
			C133.3,99.3,133.4,99.2,133.3,99.2z"/>
		<path class="st15" d="M132.4,99.6c-0.8,0-1.6-0.1-2.4-0.2c-1.2-0.2-2.3-0.5-3.4-0.9c-0.1,0-0.2-0.2-0.2-0.3c0-0.1,0.1-0.3,0.2-0.3
			c0.4-0.1,1.3-0.5,2.6-0.5c1.6,0,3,0.5,4.3,1.6c0.1,0.1,0.1,0.2,0.1,0.4c0,0.1-0.2,0.2-0.3,0.2C133,99.6,132.7,99.6,132.4,99.6z
			 M127.3,98.2c0.9,0.3,1.9,0.6,2.8,0.7c0.9,0.1,1.8,0.2,2.7,0.2C130.5,97.5,128.3,97.9,127.3,98.2z"/>
		<path class="st15" d="M132.4,99.6c-0.8,0-1.6-0.1-2.4-0.2c-1.2-0.2-2.3-0.5-3.4-0.9c-0.1,0-0.2-0.2-0.2-0.3c0-0.1,0.1-0.3,0.2-0.3
			c0.4-0.1,1.3-0.5,2.6-0.5c1.6,0,3,0.5,4.3,1.6c0.1,0.1,0.1,0.2,0.1,0.4c0,0.1-0.2,0.2-0.3,0.2C133,99.6,132.7,99.6,132.4,99.6z
			 M127.3,98.2c0.9,0.3,1.9,0.6,2.8,0.7c0.9,0.1,1.8,0.2,2.7,0.2C130.5,97.5,128.3,97.9,127.3,98.2z"/>
		<path class="st15" d="M127.9,98.2c0.3-0.1,0.7-0.1,1-0.1c0.1,0,0.2,0,0.3,0c0.1,0,0.2,0,0.3,0c0.2,0,0.4,0,0.5,0
			c0.3,0,0.7,0.1,1,0.2c0.3,0.1,0.7,0.2,1,0.4c-0.3-0.1-0.7-0.2-1-0.3c-0.1,0-0.2,0-0.3-0.1c0,0-0.1,0-0.1,0l-0.1,0
			c-0.1,0-0.2,0-0.3,0l-0.3,0c-0.2,0-0.3,0-0.5-0.1c-0.2,0-0.3,0-0.5,0C128.6,98.2,128.3,98.2,127.9,98.2z"/>
		<path class="st14" d="M125.5,104.9c-0.2,0.1-0.5,0.3-0.7,0.3c-2.9,0.8-4,0.8-4.4,0.6c0,0-0.7-0.3-1.2-0.1
			c-0.1,0.1-0.2,0.1-0.2,0.1c-0.1,0-0.1,0.1-0.1,0.1c-0.1,0.2-0.2,0.4-0.2,0.6c0,0.3,0,1.1,0.4,2.1c0.6,1.2,1,1.7,1,1.7c0,0,0,0,0,0
			c0.1,0.1,0.7,0.7,1.1,0c0.4-0.6,1.1-0.9,1.3-1c0.1,0,0.1-0.1,0.2-0.1c0.6-0.2,3-1.2,3.9-0.9c1,0.3,2.1,0.6,2.4-0.7
			c0.3-1.3-1.3-5.2-2.6-3.6C126.1,104.4,125.9,104.6,125.5,104.9C125.5,104.9,125.5,104.9,125.5,104.9z"/>
		<path class="st15" d="M120.6,111.1c-0.4,0-0.7-0.3-0.8-0.4l0,0c-0.1-0.1-0.5-0.6-1.1-1.8c-0.5-1-0.5-1.8-0.5-2.2
			c0-0.3,0.1-0.5,0.3-0.7c0.1-0.1,0.1-0.1,0.2-0.2c0,0,0.1-0.1,0.3-0.2c0.6-0.2,1.3,0,1.4,0.1c0.4,0.1,1.4,0.1,4.3-0.7
			c0.2-0.1,0.5-0.2,0.7-0.3l0,0c0.3-0.2,0.5-0.4,0.7-0.7c0.5-0.7,1.1-0.5,1.3-0.4c0.7,0.4,1.2,1.4,1.4,1.9c0.3,0.9,0.5,1.8,0.3,2.3
			c-0.1,0.5-0.3,0.8-0.6,1c-0.6,0.3-1.3,0.1-1.9-0.1l-0.1,0c-0.6-0.2-2.4,0.4-3.7,0.9c-0.1,0-0.1,0.1-0.2,0.1
			c-0.2,0.1-0.8,0.3-1.2,0.9C121.1,111,120.9,111.1,120.6,111.1C120.7,111.1,120.6,111.1,120.6,111.1z M119.6,106
			c-0.1,0-0.3,0-0.4,0.1c-0.1,0-0.2,0.1-0.2,0.1c0,0-0.1,0.1-0.1,0.1c-0.1,0.1-0.2,0.3-0.2,0.4c0,0.3,0,1,0.4,1.9
			c0.6,1.2,1,1.6,1,1.7c0,0,0,0,0,0c0.1,0.1,0.3,0.3,0.5,0.2c0.1,0,0.2-0.1,0.3-0.2c0.4-0.7,1.1-1,1.4-1.1c0.1,0,0.1-0.1,0.2-0.1
			c0.9-0.4,3.2-1.2,4.1-1l0.1,0c0.6,0.2,1.2,0.3,1.5,0.1c0.2-0.1,0.3-0.3,0.4-0.7c0.2-0.9-0.6-3.2-1.4-3.6c-0.2-0.1-0.4-0.1-0.7,0.3
			c-0.2,0.3-0.5,0.6-0.8,0.8l0,0c-0.2,0.2-0.5,0.3-0.8,0.4c-3.2,0.9-4.2,0.8-4.6,0.6C120.1,106.1,119.9,106,119.6,106z"/>
		<path class="st15" d="M120.6,111.1c-0.4,0-0.7-0.3-0.8-0.4l0,0c-0.1-0.1-0.5-0.6-1.1-1.8c-0.5-1-0.5-1.8-0.5-2.2
			c0-0.3,0.1-0.5,0.3-0.7c0.1-0.1,0.1-0.1,0.2-0.2c0,0,0.1-0.1,0.3-0.2c0.6-0.2,1.3,0,1.4,0.1c0.4,0.1,1.4,0.1,4.3-0.7
			c0.2-0.1,0.5-0.2,0.7-0.3l0,0c0.3-0.2,0.5-0.4,0.7-0.7c0.5-0.7,1.1-0.5,1.3-0.4c0.7,0.4,1.2,1.4,1.4,1.9c0.3,0.9,0.5,1.8,0.3,2.3
			c-0.1,0.5-0.3,0.8-0.6,1c-0.6,0.3-1.3,0.1-1.9-0.1l-0.1,0c-0.6-0.2-2.4,0.4-3.7,0.9c-0.1,0-0.1,0.1-0.2,0.1
			c-0.2,0.1-0.8,0.3-1.2,0.9C121.1,111,120.9,111.1,120.6,111.1C120.7,111.1,120.6,111.1,120.6,111.1z M119.6,106
			c-0.1,0-0.3,0-0.4,0.1c-0.1,0-0.2,0.1-0.2,0.1c0,0-0.1,0.1-0.1,0.1c-0.1,0.1-0.2,0.3-0.2,0.4c0,0.3,0,1,0.4,1.9
			c0.6,1.2,1,1.6,1,1.7c0,0,0,0,0,0c0.1,0.1,0.3,0.3,0.5,0.2c0.1,0,0.2-0.1,0.3-0.2c0.4-0.7,1.1-1,1.4-1.1c0.1,0,0.1-0.1,0.2-0.1
			c0.9-0.4,3.2-1.2,4.1-1l0.1,0c0.6,0.2,1.2,0.3,1.5,0.1c0.2-0.1,0.3-0.3,0.4-0.7c0.2-0.9-0.6-3.2-1.4-3.6c-0.2-0.1-0.4-0.1-0.7,0.3
			c-0.2,0.3-0.5,0.6-0.8,0.8l0,0c-0.2,0.2-0.5,0.3-0.8,0.4c-3.2,0.9-4.2,0.8-4.6,0.6C120.1,106.1,119.9,106,119.6,106z"/>
		<path class="st14" d="M127.3,103.8C127.3,103.8,127.3,103.8,127.3,103.8c0.2,0,2.2,0.5,3.9,0c1.5-0.4,3-1.6,3.5-2
			c0.3-0.2,0.7-0.2,1,0c0.2,0.2,0.5,0.6,0.8,1.3c0.7,1.9,0.5,3.6-0.7,3.4c-1.2-0.2-5.8,0-7.2,1.8c0,0,0.5-0.6,0.3-1.7
			s-0.6-1.8-0.6-1.8c-0.1-0.2-0.2-0.3-0.3-0.5c-0.1-0.1-0.2-0.3-0.4-0.4C127.5,103.9,127.4,103.9,127.3,103.8z"/>
		<path class="st15" d="M128.8,108.5l-0.4-0.3c0,0,0,0,0,0c0.1-0.1,0.4-0.6,0.2-1.4c-0.2-1.1-0.6-1.7-0.6-1.7
			c-0.1-0.2-0.2-0.3-0.3-0.4c-0.1-0.1-0.2-0.2-0.3-0.3c-0.1-0.1-0.2-0.1-0.2-0.2l-0.2-0.1l0.2-0.4l0.2,0.1c0.2,0.1,2.1,0.5,3.8,0
			c1.4-0.4,2.9-1.5,3.4-1.9c0.4-0.3,0.9-0.3,1.3,0c0.3,0.3,0.6,0.7,0.8,1.4c0.5,1.5,0.5,2.8,0,3.4c-0.2,0.2-0.5,0.4-1,0.3
			C134.6,106.5,130.2,106.8,128.8,108.5C128.8,108.5,128.8,108.5,128.8,108.5z M128.1,104.2C128.2,104.2,128.2,104.2,128.1,104.2
			c0.1,0.2,0.2,0.3,0.3,0.5c0,0,0.4,0.7,0.6,1.9c0.1,0.3,0.1,0.6,0.1,0.9c0.9-0.6,2.1-0.9,3-1.1c1.5-0.3,3-0.3,3.6-0.1
			c0.2,0.1,0.4,0,0.6-0.1c0.4-0.4,0.3-1.6-0.1-2.9c-0.2-0.6-0.4-1-0.7-1.2c-0.2-0.2-0.5-0.2-0.7,0c-0.6,0.5-2.1,1.6-3.6,2
			C130.2,104.4,129,104.3,128.1,104.2z"/>
		<path class="st15" d="M128.8,108.5l-0.4-0.3c0,0,0,0,0,0c0.1-0.1,0.4-0.6,0.2-1.4c-0.2-1.1-0.6-1.7-0.6-1.7
			c-0.1-0.2-0.2-0.3-0.3-0.4c-0.1-0.1-0.2-0.2-0.3-0.3c-0.1-0.1-0.2-0.1-0.2-0.2l-0.2-0.1l0.2-0.4l0.2,0.1c0.2,0.1,2.1,0.5,3.8,0
			c1.4-0.4,2.9-1.5,3.4-1.9c0.4-0.3,0.9-0.3,1.3,0c0.3,0.3,0.6,0.7,0.8,1.4c0.5,1.5,0.5,2.8,0,3.4c-0.2,0.2-0.5,0.4-1,0.3
			C134.6,106.5,130.2,106.8,128.8,108.5C128.8,108.5,128.8,108.5,128.8,108.5z M128.1,104.2C128.2,104.2,128.2,104.2,128.1,104.2
			c0.1,0.2,0.2,0.3,0.3,0.5c0,0,0.4,0.7,0.6,1.9c0.1,0.3,0.1,0.6,0.1,0.9c0.9-0.6,2.1-0.9,3-1.1c1.5-0.3,3-0.3,3.6-0.1
			c0.2,0.1,0.4,0,0.6-0.1c0.4-0.4,0.3-1.6-0.1-2.9c-0.2-0.6-0.4-1-0.7-1.2c-0.2-0.2-0.5-0.2-0.7,0c-0.6,0.5-2.1,1.6-3.6,2
			C130.2,104.4,129,104.3,128.1,104.2z"/>
		<path class="st15" d="M119.2,106.3c0.1,0,0.2,0,0.3,0c0,0,0.1,0,0.1,0.1c0,0,0.1,0,0.1,0.1c0.2,0.1,0.3,0.2,0.4,0.4
			c0.2,0.3,0.4,0.6,0.5,1c0,0.1,0.1,0.2,0.1,0.3c0,0,0,0.1,0,0.1c0,0,0,0.1,0,0.1c0,0.1,0,0.2,0,0.3c0,0.1,0,0.2,0,0.3
			c0,0.2,0,0.4-0.1,0.6c0,0.1-0.1,0.2-0.1,0.3c0,0.1-0.1,0.2-0.2,0.2c0-0.2,0-0.4,0-0.5c0-0.2,0-0.3-0.1-0.5c-0.1-0.3-0.2-0.7-0.3-1
			c-0.1-0.3-0.2-0.6-0.4-0.9c-0.1-0.1-0.2-0.3-0.3-0.4l-0.1-0.1c0,0-0.1-0.1-0.1-0.1C119.3,106.4,119.2,106.4,119.2,106.3z"/>
	</g>
</g>
</svg>
