<?xml version="1.0" encoding="utf-8"?>
<!-- Generator: Adobe Illustrator 27.8.1, SVG Export Plug-In . SVG Version: 6.00 Build 0)  -->
<svg version="1.1" id="レイヤー_1" xmlns="http://www.w3.org/2000/svg" xmlns:xlink="http://www.w3.org/1999/xlink" x="0px"
	 y="0px" viewBox="0 0 295 174" style="enable-background:new 0 0 295 174;" xml:space="preserve">
<style type="text/css">
	.st0{fill:#864DFF;filter:url(#Adobe_OpacityMaskFilter);}
	.st1{mask:url(#mask0_0_1_00000150806801066862208040000000120100562887412146_);}
	.st2{fill:none;}
	.st3{fill:#F8A2CB;fill-opacity:0.87;}
	.st4{fill:#2A0049;}
	.st5{opacity:0.25;}
	.st6{opacity:0.5;}
	.st7{fill:#FFFFFF;}
	.st8{fill:#FEC260;}
	.st9{fill:#744325;}
	.st10{fill:#2E0249;}
	.st11{fill:#FF2442;}
</style>
<defs>
	<filter id="Adobe_OpacityMaskFilter" filterUnits="userSpaceOnUse" x="-1209" y="-1547" width="2000" height="3000">
		<feColorMatrix  type="matrix" values="1 0 0 0 0  0 1 0 0 0  0 0 1 0 0  0 0 0 1 0"/>
	</filter>
</defs>
<mask maskUnits="userSpaceOnUse" x="-1209" y="-1547" width="2000" height="3000" id="mask0_0_1_00000150806801066862208040000000120100562887412146_">
	<path class="st0" d="M-1159-1516l1920,149v3058h-1920V-1516z"/>
</mask>
<g class="st1">
	<rect x="-1209" y="-1547" class="st2" width="2000" height="3000"/>
</g>
<path class="st3" d="M10,0h275c5.5,0,10,4.5,10,10v154c0,5.5-4.5,10-10,10H10c-5.5,0-10-4.5-10-10V10C0,4.5,4.5,0,10,0z"/>
<path class="st4" d="M111.1,155.6c-0.1-0.3-0.2-0.5-0.3-0.8c-0.1-0.3-0.1-0.6-0.2-0.8c-0.1-0.6,0-1.2,0.2-1.7
	c0.2-0.5,0.4-1.1,0.8-1.5c0.2-0.2,0.4-0.4,0.6-0.5c0.2-0.1,0.5-0.2,0.7-0.3c-0.2,0.2-0.4,0.4-0.5,0.5c-0.1,0.2-0.2,0.4-0.3,0.6
	c-0.1,0.2-0.2,0.4-0.2,0.6c0,0.2-0.1,0.4-0.1,0.6c0,0.4,0,0.8,0.2,1.3c0.1,0.4,0.3,0.8,0.5,1.2L111.1,155.6z"/>
<g class="st5">
	<path class="st4" d="M197.9,37.3c0.2,0.4,0.3,0.7,0.3,0.7c-0.1-1.1-0.5-2.2-0.9-3.2c0-0.1,0-0.2-0.1-0.3c-0.5-1.8-1.5-3.5-2.7-4.9
		c-0.1-0.1-0.2-0.3-0.4-0.4c0,0,0,0,0,0c0,0,0,0,0,0c-3.5-3.6-7.8-5.6-12-6.6c-5.6-1.5-10.8-1.2-14-0.8c-1.6,0.2-2.9,0.4-3.6,0.6
		c-2.3-1.1-4.8-1.9-7.4-2.5c-1.1-0.3-2.2-0.5-3.4-0.6c-1.8-0.2-3.6-0.4-5.5-0.4c0,0-0.1,0-0.2,0c-0.6,0-3.2,0-6.8,0.7
		c1.3-0.3,2-0.4,2-0.4s-3.3-0.2-7.9,1.6c-0.2,0.1-1,0.4-2,0.9c-0.4,0.1-0.7,0.3-1.1,0.4l0,0c0,0-1.6-0.4-4.1-0.7
		c-3.3-0.5-8.4-0.8-14,0.7c-4.2,1-8.5,3-12.1,6.6c0,0,0,0,0,0c0,0,0,0,0,0c-0.1,0.1-0.2,0.3-0.4,0.4c-1.3,1.4-2.2,3-2.8,4.8
		c0,0.1-0.1,0.2-0.1,0.3c-0.4,1-0.7,2.1-0.9,3.2c0,0,0.1-0.2,0.3-0.7c-0.3,1.8-0.4,4.1-0.3,6.9c0,0.2,0,0.3,0,0.5
		c0.1,4.1,1.1,13.3,5,14.2c0,0,0,0,0,0c0.9,0.3,1.8,0.1,2.8-0.4c0.1,0.8,0.3,1.6,0.4,2.4v0c-0.1,1-0.2,2-0.2,3c0,0-0.1,0.5-0.1,1.4
		c-0.2,3.7,0.1,14.5,8.8,22c3.6,3.4,7.5,5,9.8,5.6c0,0,0,0,0,0c-0.2-0.1-0.5-0.1-0.7-0.2c-0.7,0.6-1.4,1.1-2.2,1.7
		c-4.1,2.3-8.7,5.7-12.1,10.8c-1.2,1.8-3.4,5.1-4.2,9.1c-0.7,3.1-0.4,6.1,1,8.5c0.4,0.7,0.9,1.4,1.6,2.1c1.1,1.1,2.3,1.7,3.3,2
		c0.5,0.2,1,0.4,1.4,0.5c-0.8,1.4-1.2,3-1.4,4.7c0,0.1,0,0.1,0,0.2c0,0,0,0,0,0c-0.1,1.4-0.1,3,0.2,4.5c0.4,2.7,1.5,4.8,2.2,6
		c0,0.1,0.1,0.1,0.1,0.2c0,0,0,0,0,0c0.1,0.1,0.1,0.2,0.2,0.3c-0.2,0.2-0.3,0.3-0.3,0.3l0.1,0c-0.3,0.3-1,0.9-1.6,1.6
		c-1.8,2-4.1,5.2-3,7.9c0.3,0.6,0.6,1.1,0.9,1.4c0.5,0.6,1.1,1.1,2.3,1.4c0,0,0,0,0,0l0,0c1.4,0.5,3.7,0.8,7.5,0.9
		c3.1,0.1,8.2,0,11.1-1.6c1.2-0.7,2.3-1.7,2.7-2.4c0.3-0.7,0.6-1.5,0.6-1.5c0,0,0,0,0,0l0,0c0,0,0-0.1,0.1-0.3c0,0,0,0,0-0.1
		c3.1,1.4,8.8,3.6,16.3,3.7c8,0,14.1-2.4,17.3-4c0,0,0,0,0,0.1c0.1,0.2,0.1,0.3,0.1,0.3l0,0c0,0,0,0,0,0c0,0,0.3,0.9,0.7,1.5
		c0.4,0.7,1.5,1.7,2.7,2.4c3,1.5,8.1,1.5,11.2,1.3c3.8-0.2,6.1-0.6,7.5-1.1l0,0c0,0,0,0,0,0c1.1-0.4,1.7-0.9,2.2-1.5
		c0.3-0.3,0.6-0.8,0.9-1.4c1-2.7-1.4-5.8-3.2-7.8c-0.7-0.7-1.3-1.3-1.7-1.6l0.1,0c0,0-0.1-0.1-0.4-0.3c0.7-1.1,1.9-3.4,2.3-6.5
		c0.6-3.5,0-6.8-1.4-9.3c0,0,0-0.1-0.1-0.1c0.4-0.1,0.9-0.3,1.4-0.5c1-0.4,2.2-1,3.2-2.1c0.7-0.7,1.1-1.4,1.5-2.1
		c1.3-2.4,1.6-5.5,0.8-8.6c-0.8-4-3.1-7.3-4.4-9c-3.2-4.5-7.3-7.6-11.1-9.8c0,0,0,0,0,0c-1.6-0.9-3.3-1.8-4.9-2.7
		c10.2-4.6,13.5-12.5,14.6-17.3c0.4-1.7,0.7-3.6,0.7-5.6c0.1-2.5-0.1-5.1-0.4-7.9c0.1-0.7,0.2-1.3,0.3-2c0.9,0.5,1.9,0.7,2.8,0.5
		c0,0,0,0,0,0c3.9-0.9,4.9-10.1,5-14.2c0-0.2,0-0.3,0-0.5C198.3,41.4,198.1,39.1,197.9,37.3z"/>
</g>
<g class="st6">
	<path class="st7" d="M115,141.2c-0.9-1.6-3.3-6.7-1.7-12.2c0.3-1.2,1-3.7,3.1-5.5c2.2-1.9,4.8-2.2,4.8-2.2c0,0.1-4.6,0.5-7.2,3.2
		c-4,4-4.4,11.5-0.4,18.1L115,141.2z"/>
</g>
<path class="st4" d="M137.2,131.6c-0.6-1.1-1.3-2.1-2-3l-0.3-0.4l-0.3-0.3l-0.1-0.2l-0.1-0.2l-0.3-0.3c-0.2-0.2-0.4-0.4-0.6-0.7
	c-0.1-0.1-0.2-0.2-0.3-0.3l-0.3-0.3c-0.1-0.1-0.2-0.2-0.3-0.3c-0.1-0.1-0.2-0.2-0.3-0.3l-0.3-0.3l-0.3-0.3c-0.5-0.4-0.9-0.7-1.4-1
	c-0.5-0.3-1-0.6-1.5-0.9c-0.1-0.1-0.3-0.1-0.4-0.2c-0.1-0.1-0.3-0.1-0.4-0.2l-0.4-0.2l-0.4-0.1c-0.5-0.2-1.1-0.3-1.7-0.5
	c-0.6-0.1-1.1-0.2-1.7-0.2c-0.6,0-1.1,0-1.7,0c-0.6,0.1-1.1,0.1-1.7,0.3c-0.6,0.1-1.1,0.3-1.6,0.5c-0.5,0.2-1,0.5-1.5,0.7
	c-0.5,0.3-1,0.6-1.4,1c-0.2,0.2-0.4,0.4-0.6,0.6c-0.1,0.1-0.2,0.2-0.3,0.3c0,0.1-0.1,0.1-0.1,0.1l-0.1,0.1l0,0l0,0l0,0
	c0,0-0.1,0.2-0.3,0.2c-0.1,0.1-0.3,0.1-0.4,0.1l0.6-0.3c-0.4,0.4-0.7,0.9-1,1.4c-0.3,0.5-0.5,1-0.8,1.6l-1.5-0.6
	c0.2-0.6,0.5-1.2,0.9-1.8c0.3-0.6,0.7-1.1,1.2-1.6l0.6-0.3c-0.1,0-0.2,0-0.4,0.1c-0.1,0-0.2,0.2-0.2,0.2l0,0l0,0l0-0.1l0.1-0.1
	c0.1-0.1,0.1-0.1,0.2-0.2c0.1-0.1,0.2-0.2,0.4-0.3c0.2-0.2,0.5-0.4,0.7-0.6c0.5-0.4,1.1-0.8,1.6-1.1c1.1-0.6,2.3-1.1,3.6-1.4
	c0.6-0.1,1.3-0.2,1.9-0.3c0.6,0,1.3,0,1.9,0c0.6,0.1,1.3,0.2,1.9,0.3c0.6,0.2,1.2,0.3,1.8,0.6l0.4,0.2l0.4,0.2
	c0.1,0.1,0.3,0.1,0.4,0.2c0.1,0.1,0.3,0.1,0.4,0.2c0.6,0.3,1.1,0.6,1.6,1c1,0.7,2,1.6,2.8,2.5c0.4,0.5,0.8,1,1.2,1.5l0.3,0.4
	l0.1,0.2l0.1,0.2c0.1,0.1,0.2,0.3,0.2,0.4l0.2,0.4c0.1,0.1,0.2,0.3,0.2,0.4c0.1,0.1,0.1,0.3,0.2,0.4c0.1,0.3,0.3,0.6,0.4,0.8
	c0.1,0.1,0.1,0.3,0.2,0.4l0.2,0.4c0,0.1,0.1,0.1,0.1,0.2l0.1,0.2C137.1,131.3,137.1,131.5,137.2,131.6z"/>
<path class="st8" d="M195.7,117.2c-0.2,1.4-0.5,4-2.5,6.1c-1.7,1.7-3.8,2.3-4.7,2.5c0.7,1.4,1.6,3.7,1.7,6.8
	c0.2,4.6-1.6,7.9-2.5,9.3c0.1,0.1,1,0.8,2,1.8c1.9,1.9,4.2,5.1,3.2,7.8c-0.2,0.7-0.6,1.1-0.9,1.4c-1.1,1.3-2.9,2.3-9.7,2.6
	c-3.1,0.1-8.2,0.2-11.2-1.3c-1.2-0.6-2.4-1.7-2.7-2.4c-0.4-0.7-0.7-1.5-0.7-1.5c-0.1-0.2-0.1-0.3-0.1-0.4c-3.1,1.5-9.2,4-17.3,4
	c-7.5,0-13.2-2.2-16.3-3.7c0,0.1,0,0.1-0.1,0.2c0,0.1,0,0.1-0.1,0.2c0,0-0.3,0.9-0.6,1.5c-0.3,0.7-1.5,1.8-2.7,2.4
	c-2.9,1.6-8.1,1.7-11.1,1.6c-6.8-0.1-8.7-1.1-9.8-2.4c-0.3-0.3-0.7-0.7-0.9-1.4c-1-2.7,1.2-5.9,3-7.9c1-1.1,1.8-1.8,1.9-1.9
	c-0.9-1.4-2.7-4.7-2.7-9.3c0-3.1,0.9-5.4,1.5-6.8c-1-0.2-3.1-0.7-4.8-2.4c-2.1-2.1-2.5-4.6-2.7-6c-0.8-6,2.7-11.3,4.3-13.7
	c4.4-6.4,10.4-10.2,15.2-12.4c0.5,0.2,1.1,0.3,1.6,0.5c23.4,6.9,44.8,0,44.8,0s1.5-0.4,3.7-1.4c5,2,11.7,5.7,16.5,12.4
	C192.7,105.9,196.3,111.1,195.7,117.2z"/>
<path class="st4" d="M120.7,157c-0.5,0-0.9,0-1.4,0c-6.8-0.1-9-1.1-10.4-2.6c-0.3-0.3-0.8-0.8-1.1-1.6c-1.2-3,1.1-6.4,3.2-8.7
	c0.6-0.6,1.1-1.1,1.5-1.5c-1.2-2.1-2.5-5.2-2.5-9.1c0-2.1,0.4-4.2,1.2-6.2c-1.3-0.4-2.9-1-4.2-2.4c-2.3-2.3-2.7-5.1-2.9-6.5
	c-0.4-2.7,0.1-5.6,1.3-8.6c1-2.5,2.4-4.6,3.1-5.6c2-3,4.6-5.7,7.6-8c2.4-1.8,5-3.4,7.9-4.7c0.2-0.1,0.4-0.1,0.6,0
	c0.5,0.2,1,0.3,1.6,0.5c12,3.5,23.4,3.3,30.8,2.6c8.1-0.8,13.5-2.5,13.5-2.6c0,0,0,0,0,0c0,0,1.5-0.4,3.6-1.4c0.2-0.1,0.4-0.1,0.6,0
	c3.1,1.2,5.9,2.7,8.5,4.5c3.3,2.3,6.1,5.1,8.4,8.2c0.8,1.1,2.2,3,3.3,5.6c1.3,3,1.8,5.8,1.5,8.6c-0.2,1.4-0.5,4.2-2.8,6.6
	c-1.3,1.4-2.9,2.1-4.2,2.5c0.8,2,1.3,4.1,1.4,6.2c0.1,3.9-1.1,7.1-2.2,9.2c0.4,0.3,0.9,0.8,1.5,1.5c2.2,2.3,4.5,5.6,3.4,8.6
	c-0.3,0.8-0.8,1.3-1,1.7c-1.4,1.6-3.5,2.6-10.3,2.9c-5.4,0.3-9.2-0.2-11.6-1.4c-1.3-0.7-2.6-1.8-3.1-2.7c-0.2-0.4-0.4-0.9-0.5-1.2
	c-5.2,2.4-10.9,3.7-16.6,3.7c-0.1,0-0.1,0-0.2,0c-5.4,0-10.8-1.2-15.8-3.4c-0.1,0.3-0.3,0.8-0.5,1.2c-0.5,0.9-1.7,2.1-3,2.8
	C128.7,156.4,125.4,157,120.7,157z M124.4,93c-6.2,2.9-11.2,6.9-14.6,12c-1.5,2.2-5,7.3-4.2,13.1c0.2,1.3,0.5,3.7,2.5,5.6
	c1.5,1.4,3.2,2,4.4,2.2c0.2,0,0.5,0.2,0.6,0.4c0.1,0.2,0.1,0.5,0,0.7c-0.9,2.1-1.4,4.3-1.5,6.5c0,3.9,1.4,7,2.6,8.8
	c0.2,0.3,0.1,0.8-0.2,1.1c-0.1,0.1-0.9,0.8-1.8,1.8c-1.5,1.6-3.8,4.7-2.9,7c0.2,0.5,0.5,0.9,0.8,1.2c0.9,1,2.3,2,9.2,2.1
	c5.1,0.1,8.7-0.4,10.7-1.5c1.2-0.6,2.1-1.6,2.4-2.1c0.3-0.6,0.6-1.4,0.6-1.4c0-0.1,0.1-0.1,0.1-0.2c0-0.1,0-0.1,0.1-0.2
	c0.1-0.2,0.2-0.4,0.4-0.5c0.2-0.1,0.5-0.1,0.7,0c5,2.3,10.5,3.6,15.9,3.6c5.8,0,11.7-1.3,16.9-3.9c0.2-0.1,0.4-0.1,0.7,0
	c0.2,0.1,0.4,0.3,0.5,0.5c0,0.1,0.1,0.2,0.1,0.4c0,0,0.3,0.8,0.6,1.4c0.2,0.5,1.2,1.4,2.4,2c2.1,1.1,5.7,1.5,10.8,1.2
	c6.9-0.3,8.3-1.3,9.2-2.3c0.2-0.3,0.5-0.6,0.7-1.2c0.9-2.4-1.5-5.4-3.1-6.9c-1-1.1-1.9-1.7-1.9-1.8c-0.3-0.3-0.4-0.7-0.2-1
	c1.1-1.9,2.5-5,2.3-8.9c-0.1-2.2-0.6-4.4-1.6-6.5c-0.1-0.2-0.1-0.5,0-0.7c0.1-0.2,0.3-0.4,0.6-0.4c1.2-0.2,2.9-0.8,4.3-2.3
	c1.9-2,2.2-4.3,2.3-5.6l0,0c0.7-5.9-2.9-10.9-4.5-13c-4.6-6.5-11.1-10.1-15.8-12c-2,0.9-3.3,1.3-3.5,1.3c-0.4,0.1-5.7,1.8-13.8,2.6
	c-4.8,0.5-9.7,0.6-14.4,0.3c-5.9-0.4-11.7-1.4-17.1-2.9C125.3,93.2,124.9,93.1,124.4,93z"/>
<path class="st7" d="M168.3,123c0,0.5,0,1.1-0.1,1.6c-0.8,0.9-1.5,1.7-2.1,2.3c-2.8,3-1.9,7.4-15.9,8c-6,0.2-9.8-1.2-12.2-2.9
	c-0.7-0.5-1.3-1.2-1.7-1.9c-1.7-3.2-3.5-5-4.4-5.7c0-0.5,0-0.9,0-1.4c0-2.2,0.3-4.2,0.8-6.2c2.3-8.8,9.2-15.1,17.4-15.1
	c8.1,0,15,6.3,17.3,14.9C168,118.6,168.3,120.8,168.3,123z"/>
<g class="st6">
	<path class="st7" d="M186.1,140.5c0.8-1.6,3.1-6.7,1.4-12.3c-0.4-1.2-1.1-3.6-3.3-5.4c-2.2-1.8-4.9-2.1-4.9-2c0,0.1,4.6,0.4,7.3,3
		c4.1,3.9,4.7,11.4,0.9,18.1C187.1,141.4,186.6,140.9,186.1,140.5z"/>
</g>
<g class="st6">
	<path class="st7" d="M114.8,140.9c-0.8-1.6-3.1-6.7-1.5-12.3c0.4-1.2,1.1-3.6,3.3-5.4c2.2-1.8,4.9-2.1,4.9-2c0,0.1-4.6,0.4-7.3,3
		c-4.1,3.9-4.7,11.4-0.9,18.1C113.8,141.9,114.3,141.4,114.8,140.9z"/>
</g>
<path class="st4" d="M120.7,157c-0.5,0-0.9,0-1.4,0c-6.8-0.1-9-1.1-10.4-2.6c-0.3-0.3-0.8-0.8-1.1-1.6c-1.2-3,1.1-6.4,3.2-8.7
	c0.6-0.6,1.1-1.1,1.5-1.5c-1.2-2.1-2.5-5.2-2.5-9.1c0-2.1,0.4-4.2,1.2-6.2c-1.3-0.4-2.9-1-4.2-2.4c-2.3-2.3-2.7-5.1-2.9-6.5
	c-0.4-2.7,0.1-5.6,1.3-8.6c1-2.5,2.4-4.6,3.1-5.6c2-3,4.6-5.7,7.6-8c2.4-1.8,5-3.4,7.9-4.7c0.2-0.1,0.4-0.1,0.6,0
	c0.5,0.2,1,0.3,1.6,0.5c12,3.5,23.4,3.3,30.8,2.6c8.1-0.8,13.5-2.5,13.5-2.6c0,0,0,0,0,0c0,0,1.5-0.4,3.6-1.4c0.2-0.1,0.4-0.1,0.6,0
	c3.1,1.2,5.9,2.7,8.5,4.5c3.3,2.3,6.1,5.1,8.4,8.2c0.8,1.1,2.2,3,3.3,5.6c1.3,3,1.8,5.8,1.5,8.6c-0.2,1.4-0.5,4.2-2.8,6.6
	c-1.3,1.4-2.9,2.1-4.2,2.5c0.8,2,1.3,4.1,1.4,6.2c0.1,3.9-1.1,7.1-2.2,9.2c0.4,0.3,0.9,0.8,1.5,1.5c2.2,2.3,4.5,5.6,3.4,8.6
	c-0.3,0.8-0.8,1.3-1,1.7c-1.4,1.6-3.5,2.6-10.3,2.9c-5.4,0.3-9.2-0.2-11.6-1.4c-1.3-0.7-2.6-1.8-3.1-2.7c-0.2-0.4-0.4-0.9-0.5-1.2
	c-5.2,2.4-10.9,3.7-16.6,3.7c-0.1,0-0.1,0-0.2,0c-5.4,0-10.8-1.2-15.8-3.4c-0.1,0.3-0.3,0.8-0.5,1.2c-0.5,0.9-1.7,2.1-3,2.8
	C128.7,156.4,125.4,157,120.7,157z M124.4,93c-6.2,2.9-11.2,6.9-14.6,12c-1.5,2.2-5,7.3-4.2,13.1c0.2,1.3,0.5,3.7,2.5,5.6
	c1.5,1.4,3.2,2,4.4,2.2c0.2,0,0.5,0.2,0.6,0.4c0.1,0.2,0.1,0.5,0,0.7c-0.9,2.1-1.4,4.3-1.5,6.5c0,3.9,1.4,7,2.6,8.8
	c0.2,0.3,0.1,0.8-0.2,1.1c-0.1,0.1-0.9,0.8-1.8,1.8c-1.5,1.6-3.8,4.7-2.9,7c0.2,0.5,0.5,0.9,0.8,1.2c0.9,1,2.3,2,9.2,2.1
	c5.1,0.1,8.7-0.4,10.7-1.5c1.2-0.6,2.1-1.6,2.4-2.1c0.3-0.6,0.6-1.4,0.6-1.4c0-0.1,0.1-0.1,0.1-0.2c0-0.1,0-0.1,0.1-0.2
	c0.1-0.2,0.2-0.4,0.4-0.5c0.2-0.1,0.5-0.1,0.7,0c5,2.3,10.5,3.6,15.9,3.6c5.8,0,11.7-1.3,16.9-3.9c0.2-0.1,0.4-0.1,0.7,0
	c0.2,0.1,0.4,0.3,0.5,0.5c0,0.1,0.1,0.2,0.1,0.4c0,0,0.3,0.8,0.6,1.4c0.2,0.5,1.2,1.4,2.4,2c2.1,1.1,5.7,1.5,10.8,1.2
	c6.9-0.3,8.3-1.3,9.2-2.3c0.2-0.3,0.5-0.6,0.7-1.2c0.9-2.4-1.5-5.4-3.1-6.9c-1-1.1-1.9-1.7-1.9-1.8c-0.3-0.3-0.4-0.7-0.2-1
	c1.1-1.9,2.5-5,2.3-8.9c-0.1-2.2-0.6-4.4-1.6-6.5c-0.1-0.2-0.1-0.5,0-0.7c0.1-0.2,0.3-0.4,0.6-0.4c1.2-0.2,2.9-0.8,4.3-2.3
	c1.9-2,2.2-4.3,2.3-5.6l0,0c0.7-5.9-2.9-10.9-4.5-13c-4.6-6.5-11.1-10.1-15.8-12c-2,0.9-3.3,1.3-3.5,1.3c-0.4,0.1-5.7,1.8-13.8,2.6
	c-4.8,0.5-9.7,0.6-14.4,0.3c-5.9-0.4-11.7-1.4-17.1-2.9C125.3,93.2,124.9,93.1,124.4,93z"/>
<path class="st4" d="M137.2,131.8c-0.6-1.1-1.2-2.1-1.9-3.1l-0.3-0.4l-0.3-0.4l-0.1-0.2l-0.1-0.2l-0.3-0.3c-0.2-0.2-0.4-0.5-0.6-0.7
	c-0.1-0.1-0.2-0.2-0.3-0.3L133,126c-0.1-0.1-0.2-0.2-0.3-0.3c-0.1-0.1-0.2-0.2-0.3-0.3l-0.3-0.3l-0.3-0.3c-0.5-0.4-0.9-0.7-1.4-1.1
	c-0.5-0.3-1-0.6-1.5-0.9c-0.1-0.1-0.3-0.1-0.4-0.2c-0.1-0.1-0.3-0.1-0.4-0.2l-0.4-0.2l-0.4-0.2c-0.5-0.2-1.1-0.4-1.7-0.5
	c-0.6-0.1-1.1-0.2-1.7-0.3c-0.6,0-1.1,0-1.7,0c-0.6,0-1.1,0.1-1.7,0.2c-0.6,0.1-1.1,0.3-1.6,0.5c-0.5,0.2-1.1,0.4-1.5,0.7
	c-0.5,0.3-1,0.6-1.4,0.9c-0.2,0.2-0.4,0.3-0.7,0.5c-0.1,0.1-0.2,0.2-0.3,0.3c0,0-0.1,0.1-0.1,0.1l-0.1,0.1l0,0l0,0l0,0
	c0,0-0.2,0.2-0.3,0.2c-0.1,0.1-0.3,0.1-0.4,0.1l0.6-0.3c-0.4,0.4-0.7,0.9-1,1.4c-0.3,0.5-0.6,1-0.8,1.5l-1.5-0.6
	c0.2-0.6,0.5-1.2,0.9-1.8c0.4-0.6,0.8-1.1,1.2-1.6l0.6-0.3c-0.1,0-0.2,0-0.4,0.1c-0.1,0-0.2,0.2-0.3,0.2l0,0l0,0l0,0l0.1-0.1
	c0.1-0.1,0.1-0.1,0.2-0.2c0.1-0.1,0.2-0.2,0.4-0.3c0.2-0.2,0.5-0.4,0.8-0.6c0.5-0.4,1.1-0.7,1.6-1c1.1-0.6,2.4-1,3.6-1.3
	c0.6-0.1,1.3-0.2,1.9-0.2c0.6,0,1.3,0,1.9,0.1c0.6,0.1,1.3,0.2,1.9,0.4c0.6,0.2,1.2,0.4,1.8,0.6l0.4,0.2l0.4,0.2
	c0.1,0.1,0.3,0.1,0.4,0.2c0.1,0.1,0.3,0.1,0.4,0.2c0.6,0.3,1.1,0.7,1.6,1c1,0.7,1.9,1.6,2.7,2.6c0.4,0.5,0.8,1,1.1,1.5l0.3,0.4
	l0.1,0.2l0.1,0.2c0.1,0.1,0.2,0.3,0.2,0.4l0.2,0.4c0.1,0.1,0.1,0.3,0.2,0.4c0.1,0.1,0.1,0.3,0.2,0.4c0.1,0.3,0.3,0.6,0.4,0.8
	c0.1,0.1,0.1,0.3,0.2,0.4l0.2,0.4c0,0.1,0.1,0.1,0.1,0.2l0.1,0.2C137.1,131.5,137.2,131.7,137.2,131.8z"/>
<path class="st4" d="M133,150.3L133,150.3L133,150.3l0-0.1c0-0.1,0-0.1,0-0.2l0-0.2l0-0.2l0-0.2l0-0.2c0-0.1,0.1-0.2,0.1-0.4
	l0.1-0.4l0.1-0.4c0-0.2,0.1-0.5,0.1-0.7c0-0.2,0.1-0.5,0.1-0.7l0.1-0.4l0-0.4c0-0.3,0.1-0.5,0.1-0.8l0.1-0.8c0.1-0.5,0.1-1,0.1-1.5
	l0.1-1.5l0.1-1.5c0-0.5,0.1-1,0.1-1.5c0.1,0.5,0.1,1,0.2,1.5c0.1,0.5,0.1,1,0.2,1.5c0,0.3,0,0.5,0.1,0.8l0.1,0.8c0,0.3,0,0.5,0,0.8
	l0,0.4c0,0.1,0,0.3,0,0.4c0,1,0,2.1,0,3.1c0,0.3,0,0.5-0.1,0.8l0,0.4l0,0.4c0,0.1,0,0.3-0.1,0.4l0,0.2c0,0.1,0,0.1,0,0.2l0,0.2
	l0,0.2c0,0.1,0,0.1-0.1,0.2l0,0.1l0,0.1l0,0.1l0,0l0,0l0,0L133,150.3z"/>
<path class="st8" d="M111,120.1c0,0.4,0,0.9,0.1,1.4c0.4,1.5,1.3,2.5,1.5,2.7c0.9,0.9,1.8,1.2,2.3,1.4c2.9,1.1,11.8,2.3,15.7-2.5
	c0,0,0-0.1,0.1-0.1c1.2-1.5,1.6-3.4,1.2-5.2c-0.2-1.2-0.7-2.4-1.7-3.6c-3.5-4-11.3-4-15.8-1.1c-1.4,0.9-2.3,1.9-2.8,2.6L111,120.1z"
	/>
<path class="st4" d="M111,120.1c0.1,0.3,0.2,0.6,0.3,0.8c0.1,0.3,0.2,0.5,0.3,0.7c0.1,0.2,0.2,0.5,0.4,0.7c0.1,0.2,0.3,0.4,0.4,0.7
	c0.1,0.2,0.3,0.4,0.5,0.6c0.1,0.1,0.2,0.2,0.3,0.3c0,0,0.1,0.1,0.1,0.1c0,0,0.1,0.1,0.1,0.1c0.4,0.3,0.8,0.6,1.3,0.8
	c0.1,0.1,0.2,0.1,0.4,0.1c0.1,0,0.2,0.1,0.4,0.1c0.1,0,0.3,0.1,0.4,0.1l0.2,0.1l0.2,0.1c0.5,0.1,1.1,0.2,1.6,0.3
	c1.1,0.2,2.2,0.2,3.3,0.2c0.5,0,1.1,0,1.6-0.1c0.1,0,0.3,0,0.4,0c0.1,0,0.3,0,0.4-0.1l0.4-0.1l0.4-0.1c0.5-0.1,1.1-0.2,1.6-0.4
	c0.5-0.2,1-0.4,1.5-0.6c0.5-0.2,0.9-0.5,1.3-0.8c0.4-0.3,0.8-0.7,1.1-1c0,0,0.1-0.1,0.1-0.1c0,0,0.1-0.1,0.1-0.1l0.1-0.1l0.1-0.2
	c0.1-0.1,0.1-0.2,0.2-0.3c0-0.1,0.1-0.1,0.1-0.2c0-0.1,0.1-0.1,0.1-0.2c0.2-0.5,0.4-0.9,0.4-1.4c0.1-0.5,0.1-1,0.1-1.5l0-0.2l0-0.1
	l0-0.1l0-0.2c0-0.1,0-0.1,0-0.2c-0.1-0.3-0.1-0.5-0.2-0.7c-0.1-0.2-0.2-0.5-0.3-0.7c-0.1-0.2-0.2-0.5-0.4-0.7
	c-0.1-0.2-0.3-0.4-0.4-0.6c-0.1-0.1-0.2-0.2-0.2-0.3l-0.3-0.3c-0.7-0.7-1.6-1.3-2.6-1.7l-0.2-0.1l-0.2-0.1l-0.2-0.1l-0.1,0l-0.1,0
	l-0.4-0.1l-0.4-0.1c-0.5-0.1-1-0.2-1.6-0.3c-0.5-0.1-1.1-0.1-1.6-0.1c-0.5,0-1.1,0-1.6,0.1c-1.1,0.1-2.2,0.3-3.2,0.6
	c-0.1,0-0.3,0.1-0.4,0.1l-0.4,0.1c-0.2,0.1-0.5,0.2-0.7,0.3c-0.5,0.2-1,0.5-1.4,0.8c-0.4,0.3-0.9,0.6-1.3,0.9l-0.7,0.5
	c-0.2,0.2-0.5,0.3-0.8,0.5c0.1-0.3,0.2-0.6,0.3-0.9c0.1-0.3,0.3-0.5,0.5-0.8c0.4-0.5,0.8-0.9,1.3-1.3c0.1,0,0.1-0.1,0.2-0.1l0.2-0.1
	c0.1-0.1,0.3-0.2,0.4-0.2c0.1-0.1,0.3-0.1,0.4-0.2l0.2-0.1l0.2-0.1c0.3-0.1,0.5-0.3,0.8-0.4l0.4-0.2c0.1-0.1,0.3-0.1,0.4-0.2
	c2.3-0.8,4.7-1,7-0.8c1.2,0.1,2.4,0.4,3.5,0.9c1.1,0.5,2.2,1.1,3.1,2l0.3,0.3c0.1,0.1,0.2,0.2,0.3,0.4c0.2,0.2,0.4,0.5,0.5,0.8
	c0.2,0.3,0.3,0.5,0.4,0.8c0.1,0.3,0.2,0.6,0.3,0.9c0.1,0.3,0.2,0.6,0.2,0.9c0,0.1,0,0.2,0,0.2l0,0.2l0,0.1l0,0.1l0,0.2
	c0.1,0.6,0,1.3-0.1,1.9c-0.1,0.6-0.3,1.2-0.6,1.8c0,0.1-0.1,0.1-0.1,0.2c0,0.1-0.1,0.1-0.1,0.2c-0.1,0.1-0.2,0.3-0.3,0.4l-0.1,0.2
	l-0.1,0.2c0,0.1-0.1,0.1-0.1,0.2c-0.1,0.1-0.1,0.1-0.2,0.2c-0.4,0.5-0.9,0.9-1.4,1.3c-0.5,0.4-1,0.7-1.6,0.9
	c-0.5,0.3-1.1,0.5-1.7,0.7c-0.6,0.2-1.2,0.3-1.7,0.4c-1.2,0.2-2.4,0.3-3.5,0.2c-1.2,0-2.3-0.1-3.5-0.3c-0.6-0.1-1.2-0.2-1.7-0.4
	l-0.2-0.1l-0.2-0.1c-0.1,0-0.3-0.1-0.4-0.1c-0.1,0-0.3-0.1-0.4-0.2c-0.1-0.1-0.3-0.1-0.4-0.2c-0.6-0.3-1.1-0.6-1.6-1
	c-0.1-0.1-0.1-0.1-0.2-0.2c-0.1-0.1-0.1-0.1-0.2-0.2c-0.1-0.1-0.2-0.2-0.3-0.3c-0.2-0.2-0.4-0.5-0.6-0.8c-0.2-0.3-0.3-0.5-0.4-0.8
	c-0.1-0.3-0.2-0.6-0.2-0.9c0-0.3,0-0.6,0-0.9c0-0.2,0-0.3,0.1-0.5C110.9,120.4,111,120.2,111,120.1z"/>
<g class="st6">
	<path class="st7" d="M112,115.4c1.3-1.3,2.5-2.1,3.4-2.6c2.3-1.2,4.5-1.4,5.9-1.5c1.4-0.1,2.6-0.2,4.1,0.3c0.9,0.3,3.1,0.9,4.6,3
		c0.8,1.1,1.1,2.1,1.3,2.8c-0.7-0.8-1.9-1.8-3.6-2.7c-0.2-0.1-2.2-1.1-4.7-1.5C117.9,112.4,113.4,114.6,112,115.4z"/>
</g>
<path class="st4" d="M111,120.1c0.1,0.3,0.2,0.6,0.3,0.8c0.1,0.3,0.2,0.5,0.3,0.7c0.1,0.2,0.2,0.5,0.4,0.7c0.1,0.2,0.3,0.4,0.4,0.7
	c0.1,0.2,0.3,0.4,0.5,0.6c0.1,0.1,0.2,0.2,0.3,0.3c0,0,0.1,0.1,0.1,0.1c0,0,0.1,0.1,0.1,0.1c0.4,0.3,0.8,0.6,1.3,0.8
	c0.1,0.1,0.2,0.1,0.4,0.1c0.1,0,0.2,0.1,0.4,0.1c0.1,0,0.3,0.1,0.4,0.1l0.2,0.1l0.2,0.1c0.5,0.1,1.1,0.2,1.6,0.3
	c1.1,0.2,2.2,0.2,3.3,0.2c0.5,0,1.1,0,1.6-0.1c0.1,0,0.3,0,0.4,0c0.1,0,0.3,0,0.4-0.1l0.4-0.1l0.4-0.1c0.5-0.1,1.1-0.2,1.6-0.4
	c0.5-0.2,1-0.4,1.5-0.6c0.5-0.2,0.9-0.5,1.3-0.8c0.4-0.3,0.8-0.7,1.1-1c0,0,0.1-0.1,0.1-0.1c0,0,0.1-0.1,0.1-0.1l0.1-0.1l0.1-0.2
	c0.1-0.1,0.1-0.2,0.2-0.3c0-0.1,0.1-0.1,0.1-0.2c0-0.1,0.1-0.1,0.1-0.2c0.2-0.5,0.4-0.9,0.4-1.4c0.1-0.5,0.1-1,0.1-1.5l0-0.2l0-0.1
	l0-0.1l0-0.2c0-0.1,0-0.1,0-0.2c-0.1-0.3-0.1-0.5-0.2-0.7c-0.1-0.2-0.2-0.5-0.3-0.7c-0.1-0.2-0.2-0.5-0.4-0.7
	c-0.1-0.2-0.3-0.4-0.4-0.6c-0.1-0.1-0.2-0.2-0.2-0.3l-0.3-0.3c-0.7-0.7-1.6-1.3-2.6-1.7l-0.2-0.1l-0.2-0.1l-0.2-0.1l-0.1,0l-0.1,0
	l-0.4-0.1l-0.4-0.1c-0.5-0.1-1-0.2-1.6-0.3c-0.5-0.1-1.1-0.1-1.6-0.1c-0.5,0-1.1,0-1.6,0.1c-1.1,0.1-2.2,0.3-3.2,0.6
	c-0.1,0-0.3,0.1-0.4,0.1l-0.4,0.1c-0.2,0.1-0.5,0.2-0.7,0.3c-0.5,0.2-1,0.5-1.4,0.8c-0.4,0.3-0.9,0.6-1.3,0.9l-0.7,0.5
	c-0.2,0.2-0.5,0.3-0.8,0.5c0.1-0.3,0.2-0.6,0.3-0.9c0.1-0.3,0.3-0.5,0.5-0.8c0.4-0.5,0.8-0.9,1.3-1.3c0.1,0,0.1-0.1,0.2-0.1l0.2-0.1
	c0.1-0.1,0.3-0.2,0.4-0.2c0.1-0.1,0.3-0.1,0.4-0.2l0.2-0.1l0.2-0.1c0.3-0.1,0.5-0.3,0.8-0.4l0.4-0.2c0.1-0.1,0.3-0.1,0.4-0.2
	c2.3-0.8,4.7-1,7-0.8c1.2,0.1,2.4,0.4,3.5,0.9c1.1,0.5,2.2,1.1,3.1,2l0.3,0.3c0.1,0.1,0.2,0.2,0.3,0.4c0.2,0.2,0.4,0.5,0.5,0.8
	c0.2,0.3,0.3,0.5,0.4,0.8c0.1,0.3,0.2,0.6,0.3,0.9c0.1,0.3,0.2,0.6,0.2,0.9c0,0.1,0,0.2,0,0.2l0,0.2l0,0.1l0,0.1l0,0.2
	c0.1,0.6,0,1.3-0.1,1.9c-0.1,0.6-0.3,1.2-0.6,1.8c0,0.1-0.1,0.1-0.1,0.2c0,0.1-0.1,0.1-0.1,0.2c-0.1,0.1-0.2,0.3-0.3,0.4l-0.1,0.2
	l-0.1,0.2c0,0.1-0.1,0.1-0.1,0.2c-0.1,0.1-0.1,0.1-0.2,0.2c-0.4,0.5-0.9,0.9-1.4,1.3c-0.5,0.4-1,0.7-1.6,0.9
	c-0.5,0.3-1.1,0.5-1.7,0.7c-0.6,0.2-1.2,0.3-1.7,0.4c-1.2,0.2-2.4,0.3-3.5,0.2c-1.2,0-2.3-0.1-3.5-0.3c-0.6-0.1-1.2-0.2-1.7-0.4
	l-0.2-0.1l-0.2-0.1c-0.1,0-0.3-0.1-0.4-0.1c-0.1,0-0.3-0.1-0.4-0.2c-0.1-0.1-0.3-0.1-0.4-0.2c-0.6-0.3-1.1-0.6-1.6-1
	c-0.1-0.1-0.1-0.1-0.2-0.2c-0.1-0.1-0.1-0.1-0.2-0.2c-0.1-0.1-0.2-0.2-0.3-0.3c-0.2-0.2-0.4-0.5-0.6-0.8c-0.2-0.3-0.3-0.5-0.4-0.8
	c-0.1-0.3-0.2-0.6-0.2-0.9c0-0.3,0-0.6,0-0.9c0-0.2,0-0.3,0.1-0.5C110.9,120.4,111,120.2,111,120.1z"/>
<path class="st4" d="M123.2,111.6L123.2,111.6l0-0.2c0-0.1,0-0.1,0-0.2c0-0.1,0-0.2,0-0.3c0-0.2,0-0.4,0-0.7c0-0.2,0-0.4,0-0.7
	c0-0.2,0-0.4,0.1-0.7c0.1-0.4,0.1-0.9,0.2-1.3c0.1-0.4,0.2-0.8,0.4-1.3c0.3-0.8,0.7-1.6,1.3-2.3c0.3-0.3,0.6-0.7,0.9-0.9
	c0.3-0.3,0.7-0.5,1-0.8c-0.5,0.7-1,1.3-1.3,2.1l-0.1,0.3c0,0.1-0.1,0.2-0.1,0.3l-0.1,0.1l-0.1,0.1c0,0.1-0.1,0.2-0.1,0.3
	c-0.1,0.4-0.2,0.8-0.3,1.1c-0.2,0.8-0.3,1.5-0.3,2.3l0,0.3c0,0.1,0,0.2,0,0.3c0,0.2,0,0.4,0,0.6s0,0.4,0.1,0.6c0,0.1,0,0.2,0,0.3
	c0,0,0,0.1,0,0.1l0,0.1l0,0.1L123.2,111.6z"/>
<path class="st4" d="M123.3,111.6L123.3,111.6c-0.1-0.1-0.1-0.1-0.2-0.2c-0.1-0.1-0.1-0.1-0.2-0.2c-0.1-0.1-0.3-0.3-0.4-0.4
	c-0.1-0.1-0.3-0.2-0.4-0.4c-0.1-0.1-0.1-0.1-0.2-0.2l-0.2-0.2c-0.3-0.2-0.6-0.4-0.9-0.6c-0.3-0.2-0.7-0.4-1-0.5
	c-0.3-0.2-0.7-0.3-1.1-0.4c-0.1,0-0.2-0.1-0.3-0.1l-0.1,0l-0.1,0c-0.1,0-0.2-0.1-0.3-0.1l-0.3-0.1c-0.8-0.2-1.5-0.2-2.3-0.2
	c0.4-0.1,0.8-0.3,1.2-0.3c0.2,0,0.4-0.1,0.6-0.1c0.1,0,0.2,0,0.3,0c0.1,0,0.2,0,0.3,0l0.3,0c0.1,0,0.2,0,0.3,0c0.1,0,0.1,0,0.2,0
	l0.2,0c0.1,0,0.2,0,0.3,0c0.4,0.1,0.8,0.2,1.2,0.3c0.8,0.2,1.6,0.6,2.3,1c0.2,0.1,0.4,0.2,0.5,0.3c0.2,0.1,0.4,0.2,0.5,0.4
	c0.2,0.1,0.3,0.3,0.5,0.4c0.1,0.1,0.2,0.1,0.2,0.2c0,0,0.1,0.1,0.1,0.1l0.1,0.1l0.1,0.1L123.3,111.6z"/>
<path class="st4" d="M112.6,142.4L112.6,142.4l0.1-0.1c0,0,0.1-0.1,0.1-0.1c0.1-0.1,0.2-0.1,0.3-0.2c0.2-0.1,0.4-0.3,0.5-0.4
	c0.2-0.1,0.4-0.2,0.6-0.3c0.2-0.1,0.4-0.2,0.6-0.3c0.4-0.2,0.8-0.4,1.2-0.5c0.4-0.1,0.8-0.3,1.3-0.4c0.9-0.2,1.7-0.3,2.6-0.2
	c0.4,0,0.9,0.1,1.3,0.2c0.4,0.1,0.8,0.3,1.2,0.4c-0.8-0.1-1.7-0.1-2.4,0l-0.3,0c-0.1,0-0.2,0-0.3,0.1l-0.1,0l-0.1,0
	c-0.1,0-0.2,0-0.3,0.1c-0.4,0.1-0.8,0.2-1.1,0.4c-0.7,0.3-1.4,0.6-2.1,1.1l-0.2,0.2c-0.1,0.1-0.2,0.1-0.2,0.2
	c-0.2,0.1-0.3,0.2-0.5,0.3c-0.2,0.1-0.3,0.2-0.4,0.4c-0.1,0.1-0.1,0.1-0.2,0.2c0,0-0.1,0.1-0.1,0.1l0,0l0,0L112.6,142.4z"/>
<path class="st4" d="M123,156.2c-0.1-0.3-0.2-0.5-0.3-0.8c-0.1-0.3-0.1-0.6-0.2-0.8c-0.1-0.6,0-1.2,0.2-1.7c0.2-0.5,0.4-1.1,0.8-1.5
	c0.2-0.2,0.4-0.4,0.6-0.5c0.2-0.1,0.5-0.2,0.7-0.3c-0.2,0.2-0.4,0.4-0.5,0.5c-0.1,0.2-0.2,0.4-0.3,0.6c-0.1,0.2-0.2,0.4-0.2,0.6
	c0,0.2-0.1,0.4-0.1,0.6c0,0.4,0,0.9,0.2,1.3c0.1,0.4,0.3,0.8,0.5,1.2L123,156.2z"/>
<path class="st4" d="M116.2,125.8c0.2-0.4,0.4-0.7,0.5-1.1c0.1-0.4,0.2-0.8,0.2-1.3c0-0.2,0-0.4-0.1-0.6c0-0.2-0.1-0.4-0.2-0.6
	c-0.1-0.2-0.2-0.4-0.3-0.6c-0.1-0.2-0.3-0.4-0.5-0.6c0.3,0,0.5,0.1,0.7,0.3c0.2,0.1,0.4,0.3,0.6,0.5c0.4,0.4,0.6,0.9,0.8,1.5
	c0.2,0.5,0.2,1.1,0.1,1.7c0,0.3-0.1,0.6-0.2,0.8c-0.1,0.3-0.2,0.5-0.3,0.8L116.2,125.8z"/>
<path class="st4" d="M127.6,124.6c0.2-0.4,0.4-0.7,0.5-1.1c0.1-0.4,0.2-0.8,0.2-1.3c0-0.2,0-0.4-0.1-0.6c0-0.2-0.1-0.4-0.2-0.6
	c-0.1-0.2-0.2-0.4-0.3-0.6c-0.1-0.2-0.3-0.4-0.5-0.6c0.3,0,0.5,0.1,0.7,0.3c0.2,0.1,0.5,0.3,0.6,0.5c0.4,0.4,0.6,0.9,0.8,1.5
	c0.2,0.5,0.2,1.1,0.1,1.7c0,0.3-0.1,0.6-0.2,0.8c-0.1,0.3-0.2,0.5-0.3,0.8L127.6,124.6z"/>
<g class="st5">
	<path class="st4" d="M192.8,151.5c-0.2,0.7-0.6,1.1-0.9,1.4c-1.1,1.3-2.9,2.3-9.7,2.6c-3.1,0.1-8.2,0.2-11.2-1.3
		c-1.2-0.6-2.4-1.7-2.7-2.4c-0.4-0.7-0.7-1.5-0.7-1.5c-0.1-0.2-0.1-0.3-0.1-0.4c-3.1,1.5-9.2,4-17.3,4c-7.5,0-13.2-2.2-16.3-3.7
		c0,0.1,0,0.1-0.1,0.2c0,0.1,0,0.1-0.1,0.2c0,0-0.3,0.9-0.6,1.5c-0.3,0.7-1.5,1.8-2.7,2.4c-2.9,1.6-8.1,1.7-11.1,1.6
		c-6.8-0.1-8.7-1.1-9.8-2.4c-0.3-0.3-0.7-0.7-0.9-1.4c-1-2.7,1.2-5.9,3-7.9l0.3,0.2c0,0-4.5,6.5,3.8,7.1c7.6,0.5,16.3,3.2,17-13.4
		c0.1-1.7,2.1-2.4,3.2-1.2c2.5,2.6,6.5,5.4,12.1,5.8l2.8,0c2,0,7.6-0.3,12.6-4.4c0.7-0.6,1.3-1.1,1.9-1.7c1.1-1.2,3.1-0.5,3.2,1.2
		c1.1,16.7,9.7,13.8,17.3,13.1c8.3-0.8,3.6-7.2,3.6-7.2l0.2-0.3C191.4,145.6,193.8,148.8,192.8,151.5z"/>
	<path class="st4" d="M120.6,156.2c-0.4,0-0.9,0-1.3,0c-6.5-0.1-8.6-1-9.8-2.4c-0.3-0.3-0.7-0.7-0.9-1.4c-1-2.6,1.1-5.7,3-7.9
		c0,0,0,0,0,0c0,0,0,0,0,0l0.3,0.2c0,0,0,0,0,0c0,0-1.9,2.8-1,4.8c0.6,1.3,2.2,2,4.7,2.2c0.8,0.1,1.5,0.1,2.3,0.2
		c3.9,0.4,7.9,0.8,10.7-1.7c2.4-2.1,3.7-6,3.9-11.9c0-0.8,0.5-1.4,1.2-1.7c0.7-0.3,1.5-0.1,2.1,0.5c2.4,2.4,6.4,5.4,12.1,5.7l2.8,0
		c2.7,0,7.9-0.6,12.6-4.4c0.7-0.5,1.3-1.1,1.9-1.7c0.5-0.6,1.3-0.7,2-0.5c0.7,0.3,1.2,0.9,1.2,1.7c0.4,6,1.8,9.8,4.2,11.9
		c2.9,2.4,6.9,1.9,10.8,1.4c0.8-0.1,1.5-0.2,2.3-0.3c2.5-0.2,4.1-1,4.7-2.3c0.9-2.1-1.1-4.8-1.1-4.8c0,0,0,0,0,0l0.2-0.3
		c0,0,0,0,0,0c0,0,0,0,0,0c2,2.1,4.2,5.2,3.2,7.8c-0.2,0.7-0.6,1.1-0.9,1.4c-1.2,1.4-3.3,2.3-9.8,2.6c-5.3,0.2-9-0.2-11.2-1.3
		c-1.3-0.7-2.4-1.7-2.8-2.4c-0.4-0.7-0.7-1.5-0.7-1.5c-0.1-0.1-0.1-0.3-0.1-0.4c-5.3,2.6-11.2,3.9-17.1,3.9c-0.1,0-0.1,0-0.2,0
		c-5.6,0-11.2-1.3-16.3-3.7c0,0,0,0.1,0,0.1c0,0.1,0,0.1-0.1,0.2c0,0-0.3,0.9-0.6,1.5c-0.3,0.7-1.4,1.8-2.7,2.5
		C128.5,155.7,125.2,156.2,120.6,156.2z M111.6,144.6c-1.9,2.1-4,5.2-3,7.8c0.3,0.7,0.7,1.1,0.9,1.4c1.2,1.4,3.3,2.2,9.8,2.4
		c5.2,0.1,9-0.4,11.1-1.6c1.3-0.7,2.3-1.8,2.7-2.4c0.3-0.7,0.6-1.5,0.6-1.5c0-0.1,0.1-0.2,0.1-0.2c0-0.1,0-0.1,0.1-0.2c0,0,0,0,0,0
		c0,0,0,0,0,0c5.1,2.4,10.7,3.6,16.3,3.7c0.1,0,0.1,0,0.2,0c5.9,0,11.8-1.4,17.1-4c0,0,0,0,0,0c0,0,0,0,0,0c0,0.1,0.1,0.2,0.1,0.4
		c0,0,0.3,0.9,0.7,1.5c0.3,0.7,1.5,1.7,2.7,2.4c2.2,1.1,6,1.6,11.2,1.3c6.5-0.3,8.5-1.2,9.7-2.6c0.3-0.3,0.6-0.7,0.9-1.4
		c0.9-2.6-1.2-5.6-3.2-7.7l-0.2,0.2c0.2,0.3,2,2.9,1.1,4.9c-0.6,1.3-2.2,2.1-4.7,2.3c-0.8,0.1-1.5,0.2-2.3,0.3
		c-3.9,0.5-7.9,1-10.8-1.4c-2.4-2-3.8-5.9-4.2-11.9c0-0.7-0.5-1.4-1.2-1.6c-0.7-0.3-1.4-0.1-2,0.5c-0.6,0.6-1.2,1.2-1.9,1.7
		c-4.7,3.8-9.9,4.4-12.6,4.4l-2.8,0c-5.7-0.3-9.8-3.3-12.1-5.8c-0.5-0.5-1.3-0.7-2-0.4c-0.7,0.3-1.2,0.9-1.2,1.6
		c-0.2,6-1.5,9.9-3.9,12c-2.8,2.5-6.9,2.1-10.8,1.7c-0.8-0.1-1.5-0.2-2.3-0.2c-2.5-0.2-4.1-0.9-4.8-2.2c-0.9-2,0.8-4.6,0.9-4.9
		L111.6,144.6z"/>
</g>
<g class="st5">
	<path class="st4" d="M130.9,116.4c0.1,0.7,0.1,2.4-1,3.8c-0.6,0.8-1.4,1.3-2.3,1.6c-1.9,0.8-7,2.9-12,0.2c-2.4-1.3-3.8-3.2-4.5-4.4
		c-0.8,0-2.3-0.2-3.5-1.2c-1.9-1.8-2-5.4,0.2-8.6c-3.7,5.1-4.1,11.2-1.2,15.2c1.8,2.5,4.4,3.4,5.8,3.8c0.3-0.6,0.7-1.1,1-1.7
		c8.1,3.5,15.4,1.8,17.5-2.2C131.2,122.2,132.2,120.1,130.9,116.4z"/>
</g>
<g class="st5">
	<path class="st4" d="M112.6,114c3.6-1.5,6-3.6,5.8-5.4c0-0.3-0.1-0.6-0.3-0.9c0.8,0.1,1.9,0.1,3.1-0.3c2.8-0.9,4.2-3.1,4.5-3.8
		c-0.5,0.6-1.4,1.7-1.9,3.4c-0.6,2-0.3,3.7-0.1,4.5c-1.2-0.2-3.1-0.3-5.2,0.1C115.9,112,113.8,113.2,112.6,114z"/>
	<path class="st4" d="M112.6,114C112.6,114,112.6,114,112.6,114C112.6,114,112.6,114,112.6,114c1-0.7,2.1-1.3,3.2-1.7
		c1.8-1.2,2.8-2.5,2.6-3.7c0-0.3-0.1-0.6-0.3-0.9c0,0,0,0,0,0c0,0,0,0,0,0c1.1,0.1,2.1,0,3.1-0.3c1.6-0.5,2.7-1.4,3.5-2.3
		c0.3-0.5,0.6-1,1-1.4c0,0,0,0,0,0c0,0,0,0,0,0c-0.2,0.4-0.6,0.9-1,1.4c-0.4,0.6-0.6,1.3-0.8,1.9c-0.5,1.8-0.3,3.5-0.1,4.5
		c0,0,0,0,0,0c0,0,0,0,0,0c-1.7-0.3-3.5-0.2-5.2,0.1c-1,0.2-2,0.4-2.9,0.8C114.9,113,113.9,113.5,112.6,114
		C112.6,114,112.6,114,112.6,114z M115.5,112.5c-0.9,0.4-1.8,0.8-2.6,1.3C113.9,113.4,114.8,113,115.5,112.5z M118.2,107.7
		c0.2,0.3,0.3,0.6,0.3,0.9c0.1,1.2-0.8,2.5-2.5,3.6c0.9-0.3,1.8-0.6,2.7-0.7c1.7-0.3,3.4-0.3,5.2-0.1c-0.3-1-0.4-2.6,0.1-4.5
		c0.2-0.6,0.4-1.2,0.7-1.7c-0.8,0.8-1.9,1.7-3.3,2.1C120.3,107.7,119.3,107.8,118.2,107.7z M125.6,103.9c-0.2,0.2-0.4,0.5-0.5,0.8
		C125.3,104.4,125.4,104.1,125.6,103.9z"/>
</g>
<path class="st4" d="M163.7,131.4c0-0.1,0.1-0.3,0.1-0.4l0.1-0.2c0-0.1,0.1-0.1,0.1-0.2l0.2-0.4c0.1-0.1,0.1-0.3,0.2-0.4
	c0.1-0.3,0.2-0.6,0.4-0.8c0.1-0.1,0.1-0.3,0.2-0.4c0.1-0.1,0.1-0.3,0.2-0.4l0.2-0.4c0.1-0.1,0.2-0.3,0.2-0.4l0.1-0.2l0.1-0.2
	l0.3-0.4c0.4-0.5,0.7-1,1.1-1.5c0.8-0.9,1.7-1.8,2.7-2.6c0.5-0.4,1-0.7,1.6-1c0.1-0.1,0.3-0.2,0.4-0.2c0.1-0.1,0.3-0.2,0.4-0.2
	l0.4-0.2l0.4-0.2c0.6-0.2,1.2-0.5,1.8-0.6c0.6-0.2,1.2-0.3,1.9-0.4c0.6-0.1,1.3-0.1,1.9-0.1c0.6,0,1.3,0.1,1.9,0.2
	c1.3,0.2,2.5,0.7,3.6,1.3c0.6,0.3,1.1,0.6,1.6,1c0.3,0.2,0.5,0.4,0.8,0.6c0.1,0.1,0.2,0.2,0.4,0.3c0.1,0.1,0.1,0.1,0.2,0.2l0.1,0.1
	l0,0l0,0l0,0c0,0-0.1-0.1-0.3-0.2c-0.1-0.1-0.3-0.1-0.4-0.1l0.6,0.3c0.5,0.5,0.9,1,1.2,1.6c0.4,0.6,0.6,1.2,0.9,1.8l-1.5,0.6
	c-0.2-0.5-0.5-1.1-0.8-1.5c-0.3-0.5-0.7-0.9-1-1.4l0.6,0.3c-0.1,0-0.2,0-0.4-0.1c-0.1,0-0.3-0.2-0.3-0.2l0,0l0,0l0,0l-0.1-0.1
	c0,0-0.1-0.1-0.1-0.1c-0.1-0.1-0.2-0.2-0.3-0.3c-0.2-0.2-0.4-0.4-0.7-0.5c-0.5-0.3-0.9-0.7-1.4-0.9c-0.5-0.3-1-0.5-1.6-0.7
	c-0.5-0.2-1.1-0.4-1.6-0.5c-0.6-0.1-1.1-0.2-1.7-0.2c-0.6,0-1.1,0-1.7,0c-0.6,0-1.1,0.1-1.7,0.3c-0.6,0.1-1.1,0.3-1.7,0.5l-0.4,0.2
	l-0.4,0.2c-0.1,0.1-0.3,0.1-0.4,0.2c-0.1,0.1-0.3,0.1-0.4,0.2c-0.5,0.3-1,0.6-1.5,0.9c-0.5,0.3-1,0.7-1.4,1.1l-0.3,0.3l-0.3,0.3
	c-0.1,0.1-0.2,0.2-0.3,0.3c-0.1,0.1-0.2,0.2-0.3,0.3l-0.3,0.3c-0.1,0.1-0.2,0.2-0.3,0.3c-0.2,0.2-0.4,0.4-0.6,0.7l-0.3,0.3l-0.1,0.2
	l-0.1,0.2l-0.3,0.4l-0.3,0.4C164.9,129.3,164.3,130.3,163.7,131.4z"/>
<path class="st4" d="M166.8,150.6L166.8,150.6L166.8,150.6L166.8,150.6l0-0.1l0-0.1l0-0.1c0-0.1,0-0.1-0.1-0.2l-0.1-0.2l0-0.2
	c0-0.1,0-0.1,0-0.2l0-0.2c0-0.1,0-0.3-0.1-0.4l-0.1-0.4l0-0.4c0-0.3-0.1-0.5-0.1-0.8c-0.1-1-0.1-2.1-0.1-3.1c0-0.1,0-0.3,0-0.4
	l0-0.4c0-0.3,0-0.5,0-0.8l0-0.8c0-0.3,0-0.5,0-0.8c0-0.5,0.1-1,0.1-1.5c0.1-0.5,0.1-1,0.2-1.5c0.1,0.5,0.1,1,0.2,1.5l0.2,1.5
	l0.2,1.5c0.1,0.5,0.1,1,0.2,1.5l0.1,0.8c0,0.3,0.1,0.5,0.1,0.8l0.1,0.4l0.1,0.4c0,0.2,0.1,0.5,0.1,0.7c0,0.2,0.1,0.5,0.1,0.7
	l0.1,0.4l0.1,0.4c0,0.1,0.1,0.2,0.1,0.4l0,0.2l0,0.2l0,0.2l0.1,0.2c0,0.1,0,0.1,0,0.2l0,0l0,0l0,0L166.8,150.6z"/>
<path class="st8" d="M189.6,119.3c0,0.4,0,0.9-0.1,1.4c-0.3,1.6-1.2,2.5-1.4,2.7c-0.8,0.9-1.8,1.3-2.3,1.5
	c-2.9,1.2-11.7,2.6-15.8-2.1c0,0,0,0-0.1-0.1c-1.2-1.4-1.7-3.3-1.4-5.2c0.2-1.2,0.7-2.5,1.6-3.6c3.4-4.1,11.2-4.3,15.8-1.5
	c1.4,0.8,2.3,1.8,2.9,2.6L189.6,119.3z"/>
<path class="st4" d="M189.6,119.3c0.1,0.1,0.1,0.3,0.2,0.4c0,0.1,0.1,0.3,0.1,0.5c0,0.3,0,0.6,0,0.9c0,0.3-0.1,0.6-0.2,0.9
	c-0.1,0.3-0.2,0.6-0.4,0.9c-0.2,0.3-0.3,0.5-0.5,0.8c-0.1,0.1-0.2,0.2-0.3,0.4c-0.1,0.1-0.1,0.1-0.2,0.2c-0.1,0.1-0.1,0.1-0.2,0.2
	c-0.5,0.4-1,0.8-1.6,1c-0.1,0.1-0.3,0.1-0.4,0.2c-0.1,0.1-0.3,0.1-0.4,0.2c-0.1,0.1-0.3,0.1-0.4,0.2l-0.2,0.1l-0.2,0.1
	c-0.6,0.2-1.1,0.3-1.7,0.4c-1.1,0.2-2.3,0.4-3.5,0.4c-1.2,0-2.4,0-3.5-0.2c-0.6-0.1-1.2-0.2-1.8-0.4c-0.6-0.2-1.2-0.4-1.7-0.6
	c-0.6-0.3-1.1-0.5-1.6-0.9c-0.5-0.4-1-0.8-1.4-1.2c-0.1-0.1-0.1-0.1-0.2-0.2c-0.1-0.1-0.1-0.1-0.2-0.2l-0.2-0.2l-0.1-0.2
	c-0.1-0.1-0.2-0.3-0.3-0.4c0-0.1-0.1-0.1-0.1-0.2c0-0.1-0.1-0.1-0.1-0.2c-0.3-0.6-0.5-1.2-0.6-1.8c-0.1-0.6-0.2-1.3-0.1-1.9l0-0.2
	l0-0.1l0-0.1l0-0.2c0-0.1,0-0.2,0-0.2c0.1-0.3,0.1-0.6,0.2-0.9c0.1-0.3,0.2-0.6,0.3-0.9s0.3-0.6,0.4-0.8c0.2-0.3,0.3-0.5,0.5-0.8
	c0.1-0.1,0.2-0.2,0.3-0.4l0.3-0.3c0.9-0.9,1.9-1.6,3-2.1c1.1-0.5,2.3-0.8,3.5-1c2.4-0.3,4.8-0.1,7,0.6c0.1,0,0.3,0.1,0.4,0.1
	l0.4,0.2c0.3,0.1,0.6,0.2,0.8,0.4l0.2,0.1l0.2,0.1c0.1,0.1,0.3,0.1,0.4,0.2c0.1,0.1,0.3,0.1,0.4,0.2l0.2,0.1c0.1,0,0.1,0.1,0.2,0.1
	c0.5,0.3,0.9,0.8,1.3,1.2c0.2,0.2,0.3,0.5,0.5,0.8c0.1,0.3,0.3,0.6,0.3,0.9c-0.3-0.1-0.5-0.3-0.8-0.5l-0.7-0.5
	c-0.5-0.3-0.9-0.6-1.4-0.9c-0.4-0.3-0.9-0.5-1.4-0.8c-0.2-0.1-0.5-0.2-0.7-0.3l-0.4-0.1c-0.1,0-0.3-0.1-0.4-0.1
	c-1-0.3-2.1-0.5-3.2-0.6c-0.5,0-1.1,0-1.6,0c-0.5,0-1.1,0.1-1.6,0.2c-0.5,0.1-1.1,0.2-1.6,0.4l-0.4,0.1l-0.4,0.1l-0.1,0l-0.1,0
	l-0.2,0.1l-0.2,0.1l-0.2,0.1c-1,0.4-1.8,1-2.5,1.8l-0.3,0.3c-0.1,0.1-0.2,0.2-0.2,0.3c-0.2,0.2-0.3,0.4-0.4,0.6
	c-0.1,0.2-0.2,0.4-0.3,0.7c-0.1,0.2-0.2,0.5-0.3,0.7c-0.1,0.2-0.1,0.5-0.2,0.7c0,0.1,0,0.1,0,0.2l0,0.2l0,0.1l0,0.1l0,0.2
	c0,0.5,0,1,0.1,1.5c0.1,0.5,0.3,1,0.5,1.4c0,0.1,0.1,0.1,0.1,0.2c0,0.1,0.1,0.1,0.1,0.2c0.1,0.1,0.1,0.2,0.2,0.3l0.1,0.2l0.1,0.1
	c0,0,0.1,0.1,0.1,0.1c0,0,0.1,0.1,0.1,0.1c0.3,0.4,0.7,0.7,1.1,1c0.4,0.3,0.9,0.6,1.3,0.8c0.5,0.2,1,0.4,1.5,0.6
	c0.5,0.2,1,0.3,1.6,0.4l0.4,0.1l0.4,0c0.1,0,0.3,0,0.4,0c0.1,0,0.3,0,0.4,0c0.5,0,1.1,0,1.6,0c1.1,0,2.2-0.1,3.3-0.3
	c0.5-0.1,1.1-0.2,1.6-0.4l0.2-0.1l0.2-0.1c0.1,0,0.3-0.1,0.4-0.1c0.1,0,0.2-0.1,0.4-0.1c0.1-0.1,0.2-0.1,0.4-0.2
	c0.5-0.2,0.9-0.5,1.3-0.8c0,0,0.1-0.1,0.1-0.1c0,0,0.1-0.1,0.1-0.1c0.1-0.1,0.2-0.2,0.3-0.3c0.2-0.2,0.3-0.4,0.5-0.6
	c0.1-0.2,0.3-0.4,0.4-0.7c0.1-0.2,0.2-0.5,0.3-0.7c0.1-0.2,0.2-0.5,0.3-0.8C189.4,119.8,189.5,119.5,189.6,119.3z"/>
<g class="st6">
	<path class="st7" d="M188.7,114.9c-1.2-1.4-2.5-2.2-3.3-2.7c-2.3-1.3-4.4-1.5-5.8-1.6c-1.4-0.1-2.6-0.2-4.1,0.2
		c-0.9,0.2-3.1,0.8-4.7,2.8c-0.8,1.1-1.2,2.1-1.3,2.8c0.7-0.8,2-1.8,3.7-2.6c0.2-0.1,2.2-1.1,4.7-1.4
		C182.9,111.8,187.3,114.1,188.7,114.9z"/>
</g>
<path class="st4" d="M189.6,119.3c0.1,0.1,0.1,0.3,0.2,0.4c0,0.1,0.1,0.3,0.1,0.5c0,0.3,0,0.6,0,0.9c0,0.3-0.1,0.6-0.2,0.9
	c-0.1,0.3-0.2,0.6-0.4,0.9c-0.2,0.3-0.3,0.5-0.5,0.8c-0.1,0.1-0.2,0.2-0.3,0.4c-0.1,0.1-0.1,0.1-0.2,0.2c-0.1,0.1-0.1,0.1-0.2,0.2
	c-0.5,0.4-1,0.8-1.6,1c-0.1,0.1-0.3,0.1-0.4,0.2c-0.1,0.1-0.3,0.1-0.4,0.2c-0.1,0.1-0.3,0.1-0.4,0.2l-0.2,0.1l-0.2,0.1
	c-0.6,0.2-1.1,0.3-1.7,0.4c-1.1,0.2-2.3,0.4-3.5,0.4c-1.2,0-2.4,0-3.5-0.2c-0.6-0.1-1.2-0.2-1.8-0.4c-0.6-0.2-1.2-0.4-1.7-0.6
	c-0.6-0.3-1.1-0.5-1.6-0.9c-0.5-0.4-1-0.8-1.4-1.2c-0.1-0.1-0.1-0.1-0.2-0.2c-0.1-0.1-0.1-0.1-0.2-0.2l-0.2-0.2l-0.1-0.2
	c-0.1-0.1-0.2-0.3-0.3-0.4c0-0.1-0.1-0.1-0.1-0.2c0-0.1-0.1-0.1-0.1-0.2c-0.3-0.6-0.5-1.2-0.6-1.8c-0.1-0.6-0.2-1.3-0.1-1.9l0-0.2
	l0-0.1l0-0.1l0-0.2c0-0.1,0-0.2,0-0.2c0.1-0.3,0.1-0.6,0.2-0.9c0.1-0.3,0.2-0.6,0.3-0.9s0.3-0.6,0.4-0.8c0.2-0.3,0.3-0.5,0.5-0.8
	c0.1-0.1,0.2-0.2,0.3-0.4l0.3-0.3c0.9-0.9,1.9-1.6,3-2.1c1.1-0.5,2.3-0.8,3.5-1c2.4-0.3,4.8-0.1,7,0.6c0.1,0,0.3,0.1,0.4,0.1
	l0.4,0.2c0.3,0.1,0.6,0.2,0.8,0.4l0.2,0.1l0.2,0.1c0.1,0.1,0.3,0.1,0.4,0.2c0.1,0.1,0.3,0.1,0.4,0.2l0.2,0.1c0.1,0,0.1,0.1,0.2,0.1
	c0.5,0.3,0.9,0.8,1.3,1.2c0.2,0.2,0.3,0.5,0.5,0.8c0.1,0.3,0.3,0.6,0.3,0.9c-0.3-0.1-0.5-0.3-0.8-0.5l-0.7-0.5
	c-0.5-0.3-0.9-0.6-1.4-0.9c-0.4-0.3-0.9-0.5-1.4-0.8c-0.2-0.1-0.5-0.2-0.7-0.3l-0.4-0.1c-0.1,0-0.3-0.1-0.4-0.1
	c-1-0.3-2.1-0.5-3.2-0.6c-0.5,0-1.1,0-1.6,0c-0.5,0-1.1,0.1-1.6,0.2c-0.5,0.1-1.1,0.2-1.6,0.4l-0.4,0.1l-0.4,0.1l-0.1,0l-0.1,0
	l-0.2,0.1l-0.2,0.1l-0.2,0.1c-1,0.4-1.8,1-2.5,1.8l-0.3,0.3c-0.1,0.1-0.2,0.2-0.2,0.3c-0.2,0.2-0.3,0.4-0.4,0.6
	c-0.1,0.2-0.2,0.4-0.3,0.7c-0.1,0.2-0.2,0.5-0.3,0.7c-0.1,0.2-0.1,0.5-0.2,0.7c0,0.1,0,0.1,0,0.2l0,0.2l0,0.1l0,0.1l0,0.2
	c0,0.5,0,1,0.1,1.5c0.1,0.5,0.3,1,0.5,1.4c0,0.1,0.1,0.1,0.1,0.2c0,0.1,0.1,0.1,0.1,0.2c0.1,0.1,0.1,0.2,0.2,0.3l0.1,0.2l0.1,0.1
	c0,0,0.1,0.1,0.1,0.1c0,0,0.1,0.1,0.1,0.1c0.3,0.4,0.7,0.7,1.1,1c0.4,0.3,0.9,0.6,1.3,0.8c0.5,0.2,1,0.4,1.5,0.6
	c0.5,0.2,1,0.3,1.6,0.4l0.4,0.1l0.4,0c0.1,0,0.3,0,0.4,0c0.1,0,0.3,0,0.4,0c0.5,0,1.1,0,1.6,0c1.1,0,2.2-0.1,3.3-0.3
	c0.5-0.1,1.1-0.2,1.6-0.4l0.2-0.1l0.2-0.1c0.1,0,0.3-0.1,0.4-0.1c0.1,0,0.2-0.1,0.4-0.1c0.1-0.1,0.2-0.1,0.4-0.2
	c0.5-0.2,0.9-0.5,1.3-0.8c0,0,0.1-0.1,0.1-0.1c0,0,0.1-0.1,0.1-0.1c0.1-0.1,0.2-0.2,0.3-0.3c0.2-0.2,0.3-0.4,0.5-0.6
	c0.1-0.2,0.3-0.4,0.4-0.7c0.1-0.2,0.2-0.5,0.3-0.7c0.1-0.2,0.2-0.5,0.3-0.8C189.4,119.8,189.5,119.5,189.6,119.3z"/>
<path class="st4" d="M175.7,110.8L175.7,110.8l0-0.1c0,0,0-0.1,0-0.1c0-0.1,0-0.2,0-0.3c0-0.2,0-0.4,0-0.6c0-0.2,0-0.4,0-0.6
	c0-0.1,0-0.2,0-0.3l0-0.3c0-0.8-0.1-1.6-0.3-2.3c-0.1-0.4-0.2-0.8-0.4-1.1c0-0.1-0.1-0.2-0.1-0.3l-0.1-0.1l-0.1-0.1
	c0-0.1-0.1-0.2-0.1-0.3l-0.1-0.3c-0.4-0.7-0.8-1.4-1.4-2c0.4,0.2,0.7,0.5,1,0.7c0.3,0.3,0.6,0.6,0.9,0.9c0.6,0.7,1,1.4,1.3,2.2
	c0.2,0.4,0.3,0.8,0.4,1.2c0.1,0.4,0.2,0.9,0.3,1.3c0,0.2,0.1,0.4,0.1,0.7c0,0.2,0,0.4,0,0.7c0,0.2,0,0.4,0,0.7c0,0.1,0,0.2,0,0.3
	c0,0.1,0,0.1,0,0.2l0,0.1l0,0.1L175.7,110.8z"/>
<path class="st4" d="M175.6,110.1L175.6,110.1l0.1-0.1c0,0,0.1-0.1,0.1-0.1c0.1-0.1,0.2-0.2,0.2-0.2c0.2-0.2,0.3-0.3,0.5-0.4
	c0.2-0.1,0.3-0.3,0.5-0.4c0.2-0.1,0.4-0.2,0.5-0.4c0.4-0.2,0.8-0.4,1.2-0.6c0.4-0.2,0.8-0.3,1.2-0.5c0.8-0.3,1.7-0.4,2.6-0.4
	c0.4,0,0.9,0,1.3,0.1c0.4,0.1,0.8,0.2,1.2,0.3c-0.8,0-1.7,0.1-2.4,0.3l-0.3,0.1c-0.1,0-0.2,0.1-0.3,0.1l-0.1,0l-0.1,0
	c-0.1,0-0.2,0.1-0.3,0.1c-0.4,0.1-0.7,0.3-1.1,0.5c-0.7,0.3-1.4,0.8-2,1.2l-0.2,0.2c-0.1,0.1-0.2,0.1-0.2,0.2
	c-0.1,0.1-0.3,0.3-0.4,0.4c-0.1,0.1-0.3,0.3-0.4,0.4c-0.1,0.1-0.1,0.1-0.2,0.2c0,0-0.1,0.1-0.1,0.1l0,0l0,0L175.6,110.1z"/>
<path class="st4" d="M187.4,142.7L187.4,142.7L187.4,142.7c-0.1-0.1-0.2-0.1-0.2-0.2c-0.1-0.1-0.1-0.1-0.2-0.2
	c-0.1-0.1-0.3-0.2-0.5-0.4c-0.2-0.1-0.3-0.2-0.5-0.3c-0.1-0.1-0.2-0.1-0.2-0.2l-0.2-0.2c-0.7-0.4-1.4-0.7-2.1-1
	c-0.4-0.1-0.7-0.2-1.1-0.3c-0.1,0-0.2,0-0.3-0.1l-0.1,0l-0.1,0c-0.1,0-0.2,0-0.3,0l-0.3,0c-0.8-0.1-1.6-0.1-2.4,0
	c0.4-0.2,0.8-0.3,1.2-0.5c0.4-0.1,0.8-0.2,1.3-0.2c0.9-0.1,1.7,0,2.6,0.1c0.4,0.1,0.9,0.2,1.3,0.3c0.4,0.1,0.8,0.3,1.2,0.5
	c0.2,0.1,0.4,0.2,0.6,0.3c0.2,0.1,0.4,0.2,0.6,0.3c0.2,0.1,0.4,0.2,0.6,0.4c0.1,0.1,0.2,0.1,0.3,0.2c0,0,0.1,0.1,0.1,0.1l0.1,0.1
	l0.1,0.1L187.4,142.7z"/>
<path class="st4" d="M177.1,155c0.2-0.4,0.3-0.8,0.4-1.2c0.1-0.4,0.1-0.8,0.1-1.3c0-0.2,0-0.4-0.1-0.6c-0.1-0.2-0.1-0.4-0.2-0.6
	s-0.2-0.4-0.3-0.6c-0.1-0.2-0.3-0.4-0.5-0.5c0.3,0,0.5,0.1,0.8,0.2c0.2,0.1,0.5,0.3,0.7,0.5c0.4,0.4,0.7,0.9,0.9,1.4
	c0.2,0.5,0.2,1.1,0.2,1.7c0,0.3-0.1,0.6-0.1,0.8c-0.1,0.3-0.2,0.6-0.3,0.8L177.1,155z"/>
<path class="st4" d="M189,154.1c0.2-0.4,0.3-0.8,0.4-1.2c0.1-0.4,0.1-0.8,0.1-1.3c0-0.2,0-0.4-0.1-0.6c-0.1-0.2-0.1-0.4-0.2-0.6
	c-0.1-0.2-0.2-0.4-0.3-0.6c-0.1-0.2-0.3-0.4-0.5-0.5c0.3,0,0.5,0.1,0.8,0.2s0.5,0.3,0.7,0.5c0.4,0.4,0.7,0.9,0.9,1.4
	c0.2,0.5,0.2,1.1,0.2,1.7c0,0.3-0.1,0.6-0.1,0.8c-0.1,0.3-0.2,0.6-0.3,0.8L189,154.1z"/>
<path class="st4" d="M183.2,125.9c-0.1-0.3-0.3-0.5-0.3-0.8c-0.1-0.3-0.2-0.6-0.2-0.8c-0.1-0.6,0-1.2,0.1-1.7
	c0.1-0.5,0.4-1.1,0.8-1.5c0.2-0.2,0.4-0.4,0.6-0.5c0.2-0.1,0.5-0.2,0.7-0.3c-0.2,0.2-0.3,0.4-0.5,0.6c-0.1,0.2-0.2,0.4-0.3,0.6
	s-0.1,0.4-0.2,0.6c0,0.2-0.1,0.4-0.1,0.6c0,0.4,0.1,0.8,0.2,1.2c0.1,0.4,0.3,0.8,0.5,1.1L183.2,125.9z"/>
<path class="st4" d="M171.7,125c-0.1-0.3-0.3-0.5-0.3-0.8c-0.1-0.3-0.2-0.6-0.2-0.8c-0.1-0.6,0-1.2,0.1-1.7c0.1-0.6,0.4-1.1,0.8-1.5
	c0.2-0.2,0.4-0.4,0.6-0.5c0.2-0.1,0.5-0.2,0.7-0.3c-0.2,0.2-0.3,0.4-0.5,0.6c-0.1,0.2-0.2,0.4-0.3,0.6c-0.1,0.2-0.1,0.4-0.2,0.6
	c0,0.2-0.1,0.4-0.1,0.6c0,0.4,0.1,0.8,0.2,1.2c0.1,0.4,0.3,0.8,0.5,1.1L171.7,125z"/>
<g class="st5">
	<path class="st4" d="M169.6,116c0,0.7,0,2.4,1.1,3.8c0.6,0.8,1.5,1.2,2.4,1.6c1.9,0.8,7.1,2.8,12-0.1c2.3-1.3,3.7-3.2,4.4-4.5
		c0.8,0,2.3-0.2,3.4-1.3c1.8-1.8,1.9-5.5-0.4-8.6c3.8,5,4.4,11.1,1.6,15.1c-1.7,2.5-4.3,3.5-5.7,3.9c-0.4-0.6-0.7-1.1-1.1-1.7
		c-8,3.7-15.3,2.2-17.5-1.7C169.4,121.9,168.4,119.8,169.6,116z"/>
</g>
<g class="st5">
	<path class="st4" d="M187.8,113.2c-3.7-1.4-6.1-3.4-6-5.3c0-0.3,0.1-0.6,0.3-0.9c-0.7,0.1-1.9,0.1-3.1-0.2c-2.8-0.8-4.2-3-4.6-3.7
		c0.5,0.6,1.4,1.7,1.9,3.4c0.6,2,0.3,3.7,0.2,4.5c1.2-0.2,3.1-0.4,5.2-0.1C184.5,111.3,186.6,112.4,187.8,113.2z"/>
</g>
<path d="M168.3,48.2c-0.2,0.1-0.4,0-0.5-0.1c-0.1-0.1,0-0.4,0.3-0.4c-0.2,0.1-1,0.4-0.9,0.6C167.2,48.4,168.1,48.3,168.3,48.2z"/>
<g class="st5">
	<path class="st4" d="M119.6,95c5.9,2.5,15.7,5.7,28.2,5.8c14.8,0.1,26.1-4.2,32.2-7c-1.8-0.9-3.5-1.9-5.3-2.8
		c-5.9,2-14.4,4.2-25,4.5c-11.1,0.3-20.2-1.7-26.3-3.5C122.2,92.9,120.9,94,119.6,95z"/>
</g>
<path class="st8" d="M190.4,68.2c-0.4,13.9-10.3,20.4-15.8,23c-2.2,1-3.7,1.4-3.7,1.4s-21.4,6.9-44.8,0c-0.5-0.2-1.1-0.3-1.6-0.5
	c-21.7-7.4-18.6-29-18.6-29c2.7-45.3,42.4-44.3,42.4-44.3C178.2,19.2,190.9,48.8,190.4,68.2z"/>
<path class="st4" d="M148,96.5c-1.7,0-3.5-0.1-5.2-0.2c-5.9-0.4-11.7-1.4-17.1-2.9c-0.6-0.2-1.1-0.3-1.6-0.5
	c-5.1-1.7-9.2-4.4-12.4-7.9c-2.5-2.8-4.4-6.1-5.6-9.9c-1.9-6.2-1.3-11.5-1.2-12c0.6-10.5,3.3-19.3,7.9-26.4
	c3.7-5.7,8.7-10.2,14.7-13.4c5.4-2.9,10.7-4.1,14.2-4.7c3.7-0.6,6.2-0.6,6.4-0.6c5.9,0.1,11.4,1.3,16.5,3.6
	c4.6,2.1,8.7,5.1,12.3,8.9c4.7,5,8.6,11.4,11.1,18.5c2.2,6.4,3.4,13.2,3.2,19.3c-0.2,6.3-2.3,11.7-6.2,16.2
	c-3.3,3.8-7.3,6.2-10.1,7.5c-2.1,1-3.6,1.4-3.8,1.5c-0.4,0.1-5.7,1.8-13.8,2.6C154.2,96.3,151.1,96.5,148,96.5z M147.9,19.6
	c-0.6,0-2.9,0-6,0.6c-3.4,0.6-8.5,1.8-13.7,4.6c-13.3,7.1-20.6,20-21.7,38.5l0,0.1c0,0.1-0.7,5.3,1.2,11.4
	c2.5,8.1,8.2,13.7,16.9,16.7c0.5,0.2,1,0.3,1.6,0.5c12,3.5,23.4,3.3,30.9,2.6c8.1-0.8,13.4-2.5,13.5-2.6l0,0c0,0,1.5-0.4,3.6-1.4
	c5.6-2.6,15-8.9,15.4-22.3c0.3-9.9-3.1-25.5-13.8-36.7c-7.4-7.8-16.7-11.8-27.7-11.9l0,0C148.1,19.6,148,19.6,147.9,19.6z"/>
<g class="st6">
	<path class="st7" d="M122.3,30.9c0.3-0.1,9.4-9.5,26.4-9.3c16.9,0.1,25.2,9.7,25.2,9.7s-9.2-13.3-25.2-12.2c-16,1.1-20,5.4-20,5.4
		L122.3,30.9z"/>
</g>
<path class="st4" d="M148.1,96.5c-1.7,0-3.5-0.1-5.2-0.2c-5.9-0.4-11.7-1.4-17.1-2.9c-5.5-1.6-10-4.2-13.4-7.7
	c-2.7-2.8-4.8-6.2-6-10.1c-2.1-6.4-1.4-11.9-1.4-12.5c0.6-10.5,3.3-19.3,7.9-26.4c3.7-5.7,8.7-10.2,14.7-13.4
	c5.4-2.9,10.7-4.1,14.2-4.7c3.7-0.6,6.2-0.6,6.4-0.6c5.9,0.1,11.4,1.3,16.5,3.6c4.6,2.1,8.7,5.1,12.3,8.8c4.7,5,8.6,11.4,11.1,18.5
	c2.2,6.4,3.4,13.2,3.2,19.3c-0.1,4.5-1.3,8.7-3.4,12.4c-1.7,2.9-4,5.5-6.9,7.7c-4.8,3.7-9.4,5-9.8,5.1c-0.4,0.1-5.7,1.8-13.8,2.6
	C154.3,96.3,151.2,96.5,148.1,96.5z M148,19.6c-0.6,0-2.9,0-6,0.6c-3.4,0.6-8.5,1.8-13.7,4.6c-13.3,7.1-20.6,20-21.7,38.5l0,0.1
	c0,0.1-0.7,5.6,1.3,11.8c2.8,8.3,8.9,14,18.3,16.7c12,3.5,23.4,3.3,30.8,2.6c8.1-0.8,13.5-2.5,13.5-2.6l0,0c0,0,4.7-1.3,9.3-4.8
	c6.2-4.7,9.4-11.1,9.6-18.8c0.3-9.9-3.1-25.5-13.8-36.7c-7.4-7.8-16.7-11.8-27.7-11.9l0,0C148.2,19.6,148.1,19.6,148,19.6z"/>
<path class="st9" d="M132.2,22c0,0-19.4-4.9-30.6,7c-1.3,1.4-2.2,3-2.8,4.8c-0.9,3.3-1.7,9.2,0.4,18.3c3.5,14.9,13-1.8,13-1.8
	s3.5-5.4,6-11.5C120.6,32.9,126.1,25.4,132.2,22z"/>
<path class="st4" d="M103.7,59.1c-0.2,0-0.4,0-0.5,0c-1.1-0.2-2-0.8-2.8-1.9c-0.8-1.1-1.4-2.8-1.9-4.9C96.2,43.2,97,37.1,98,33.6
	c0.6-1.9,1.6-3.7,2.9-5.2c2.6-2.8,5.9-4.9,9.8-6.3c3.1-1.1,6.5-1.7,10.2-1.9c6.3-0.3,11.1,0.9,11.4,1l2,0.5l-1.8,1
	c-6.1,3.4-11.3,10.9-13.7,16.5c-2.4,5.9-5.8,11.2-6.1,11.6c-0.1,0.2-1.3,2.3-3,4.3C107.6,57.8,105.5,59.1,103.7,59.1z M122.8,21.8
	c-0.6,0-1.1,0-1.7,0c-5.5,0.2-13.3,1.8-18.9,7.7c-1.2,1.3-2.1,2.8-2.6,4.5c-1,3.3-1.7,9.1,0.4,17.9c0.6,2.4,1.6,5.3,3.4,5.5
	c1.3,0.2,3.2-1,5.2-3.4c1.7-2,2.8-4.1,2.9-4.1l0,0c0-0.1,3.5-5.5,5.9-11.3c2.2-5.3,7-12.3,12.6-16.2
	C128.4,22.2,125.8,21.8,122.8,21.8z"/>
<g class="st6">
	<path class="st7" d="M97.8,37.3c0,0,7.3-17.1,31.7-13.6l2-1.7c0,0-16.7-5.3-29.7,6.5C101.9,28.6,98.4,32.7,97.8,37.3z"/>
</g>
<path class="st4" d="M103.7,59.1c-0.2,0-0.4,0-0.5,0c-1.1-0.2-2-0.8-2.8-1.9c-0.8-1.1-1.4-2.8-1.9-4.9C96.2,43.2,97,37.1,98,33.6
	c0.6-1.9,1.6-3.7,2.9-5.2c2.6-2.8,5.9-4.9,9.8-6.3c3.1-1.1,6.5-1.7,10.2-1.9c6.3-0.3,11.1,0.9,11.4,1l2,0.5l-1.8,1
	c-6.1,3.4-11.3,10.9-13.7,16.5c-2.4,5.9-5.8,11.2-6.1,11.6c-0.1,0.2-1.3,2.3-3,4.3C107.6,57.8,105.5,59.1,103.7,59.1z M122.8,21.8
	c-0.6,0-1.1,0-1.7,0c-5.5,0.2-13.3,1.8-18.9,7.7c-1.2,1.3-2.1,2.8-2.6,4.5c-1,3.3-1.7,9.1,0.4,17.9c0.6,2.4,1.6,5.3,3.4,5.5
	c1.3,0.2,3.2-1,5.2-3.4c1.7-2,2.8-4.1,2.9-4.1l0,0c0-0.1,3.5-5.5,5.9-11.3c2.2-5.3,7-12.3,12.6-16.2
	C128.4,22.2,125.8,21.8,122.8,21.8z"/>
<path class="st7" d="M144.9,63.5c0,0.4,1.5,1,3.1,1c1.6,0,3.1-0.7,3-1.1C151,63,148.4,63,148,63C147.7,63,144.9,63.1,144.9,63.5z"/>
<path class="st7" d="M166.7,59.3c0.8,0,1.4-1.1,1.4-2.4c0-1.3-0.6-2.4-1.4-2.4c-0.8,0-1.4,1.1-1.4,2.4
	C165.3,58.3,165.9,59.3,166.7,59.3z"/>
<g class="st5">
	<path class="st4" d="M105.6,64.5c0,0,0.6,26.3,41.7,26.6s42.9-21.4,42.9-21.4s0.1,19.7-24.2,24.1c-24.3,4.4-39.8-1.2-39.8-1.2
		S107,90.3,105.6,64.5z"/>
</g>
<g class="st5">
	<path class="st4" d="M106,60.2c0,0,9.9-4.3,14.7-21.7c4.7-17.4,22.5-19.4,22.5-19.4s-3.3-0.2-7.9,1.6c-0.8,0.3-11.4,4.4-15.5,13.8
		c-0.7,1.7-1.1,3.2-2.7,6.7c-1.3,2.9-2.5,5-3.3,6.4c-2.1,3.7-3.2,5.6-5.3,7.7c-1.1,1.1-2.1,1.8-2.8,2.3
		C105.7,58.5,105.8,59.4,106,60.2z"/>
</g>
<path class="st7" d="M147.7,86.8c11.7,0,21.3-6,21.3-13.3c0-7.4-9.5-13.3-21.3-13.3c-11.7,0-21.3,6-21.3,13.3
	C126.4,80.8,136,86.8,147.7,86.8z"/>
<path class="st10" d="M141.3,64.1c-0.4,1.9,3.3,5.3,7,5.1c3.4-0.2,6.7-3.3,6.3-5.2c-0.5-2.2-5.9-2.3-6.3-2.3
	C145.9,61.6,141.7,62.2,141.3,64.1z"/>
<path class="st10" d="M148,69.4c0.1,0,0.2,0,0.3,0c2.5-0.1,4.7-1.7,5.8-3.2c0.6-0.8,0.8-1.7,0.7-2.3c-0.5-2.3-5.9-2.5-6.5-2.5
	c-1.8,0-6.7,0.4-7.1,2.6c-0.1,0.7,0.2,1.6,0.9,2.4C143.1,67.9,145.5,69.4,148,69.4z M147.9,61.9c0.1,0,0.2,0,0.3,0
	c1.9,0,5.7,0.5,6.1,2.1c0.1,0.5-0.1,1.2-0.6,2c-1,1.4-3.1,2.9-5.4,3c-2.5,0.1-4.8-1.3-6-2.8c-0.6-0.8-0.9-1.5-0.8-2.1
	C141.8,62.6,145.3,61.9,147.9,61.9z"/>
<path class="st7" d="M145.7,63.2c0,0.3,1.1,0.9,2.2,0.9c1.1,0,2.2-0.6,2.1-1c0-0.4-1.9-0.4-2.1-0.4
	C147.7,62.7,145.8,62.7,145.7,63.2z"/>
<path class="st4" d="M135.2,70.4c0.5,0.6,1,1.1,1.6,1.5c0.6,0.4,1.2,0.8,1.9,1c1.3,0.5,2.7,0.5,4,0.2c1.2-0.4,2.3-1.1,3.1-2.2
	c0.4-0.5,0.7-1.1,0.9-1.7l0-0.1l0-0.1l0.1-0.2c0-0.1,0-0.2,0.1-0.2l0.1-0.2c0-0.2,0.1-0.3,0.1-0.5l0-0.5l0,0l0,0c0,0,0,0,0-0.1
	c0.1-0.2-0.3,0.3,0.4-0.7c2.7-0.1,1.4,1,1.8,0.6c0,0,0,0,0,0.1l0,0l0,0.1l0,0l0,0.1c0,0.1,0,0.2,0,0.3c0,0.2,0,0.3,0.1,0.5
	c0.1,0.3,0.1,0.7,0.2,1c0.1,0.3,0.2,0.6,0.3,0.9c0,0.1,0.1,0.1,0.1,0.2c0,0.1,0.1,0.1,0.1,0.2c0,0.1,0.1,0.1,0.1,0.2
	c0,0.1,0.1,0.1,0.1,0.2l0.1,0.1l0.1,0.1c0,0.1,0.1,0.1,0.2,0.2c0.1,0.1,0.1,0.1,0.2,0.2c0.1,0.1,0.1,0.1,0.2,0.2
	c0.2,0.2,0.5,0.4,0.8,0.6l0.1,0.1l0.1,0.1c0.1,0,0.1,0.1,0.2,0.1c0.1,0.1,0.3,0.2,0.4,0.2c0.3,0.1,0.6,0.3,0.9,0.3
	c0.3,0.1,0.6,0.2,1,0.2c0.3,0,0.7,0.1,1,0.1c0.7,0,1.3-0.1,2-0.4l0.2-0.1l0.2-0.1l0.1-0.1c0,0,0.1,0,0.1-0.1c0.1,0,0.2-0.1,0.2-0.1
	c0.3-0.2,0.6-0.4,0.9-0.6c0.6-0.5,1.1-1,1.5-1.6c-0.2,0.7-0.6,1.4-1.1,2c-0.2,0.3-0.5,0.6-0.8,0.9c-0.1,0.1-0.2,0.1-0.2,0.2
	c0,0-0.1,0.1-0.1,0.1l-0.1,0.1l-0.2,0.2l-0.3,0.2c-0.2,0.1-0.4,0.2-0.5,0.3c-0.1,0-0.2,0.1-0.3,0.1c-0.1,0-0.2,0.1-0.3,0.1
	c-0.4,0.1-0.8,0.3-1.2,0.3c-0.4,0.1-0.8,0.1-1.2,0.1c-0.4,0-0.8,0-1.2-0.1c-0.4-0.1-0.8-0.2-1.2-0.3c-0.2-0.1-0.4-0.1-0.6-0.2
	c-0.1,0-0.2-0.1-0.3-0.1c0,0-0.1,0-0.1-0.1l-0.1-0.1c-0.4-0.2-0.7-0.4-1.1-0.7c-0.3-0.3-0.7-0.6-1-0.9c-0.1-0.1-0.1-0.2-0.2-0.3
	c-0.1-0.1-0.1-0.2-0.2-0.3c-0.1-0.1-0.1-0.2-0.2-0.3c-0.1-0.1-0.1-0.2-0.2-0.3c-0.2-0.4-0.4-0.8-0.5-1.2c-0.1-0.4-0.2-0.8-0.3-1.2
	c0-0.2-0.1-0.4-0.1-0.6c0-0.1,0-0.2,0-0.3l0-0.1l0,0l0,0c0,0,0,0,0,0l0,0c0,0,0,0,0,0c0.4-0.3-1,0.7,1.8,0.6c0.7-1,0.2-0.5,0.4-0.7
	l0,0l0,0c0,0,0,0,0,0l0,0.3c0,0.1,0,0.2,0,0.3l-0.1,0.3c0,0.1,0,0.2-0.1,0.3L149,69c0,0.1,0,0.2-0.1,0.3l-0.1,0.3l-0.1,0.2l-0.1,0.1
	c-0.3,0.8-0.8,1.6-1.3,2.2c-0.5,0.7-1.2,1.2-2,1.7c-0.2,0.1-0.4,0.2-0.6,0.3l-0.3,0.1c-0.1,0-0.2,0.1-0.3,0.1
	c-0.4,0.2-0.8,0.3-1.2,0.3c-0.4,0.1-0.8,0.1-1.3,0.1c-0.4,0-0.8,0-1.2-0.1c-0.4-0.1-0.8-0.2-1.2-0.3c-0.4-0.1-0.8-0.3-1.1-0.5
	c-0.7-0.4-1.3-0.9-1.8-1.5C135.9,71.7,135.5,71.1,135.2,70.4z"/>
<path class="st10" d="M155.4,74c-0.3,4.3-3.9,7.5-8,7.4c-3.8-0.2-7-3.3-7.3-7.2c0.3,0.1,3.6,0.6,6-1.9c2.1-2.1,2-4.9,2-5.3
	c0,0.4-0.3,3.1,1.9,5.3C152.3,74.3,155.1,74,155.4,74z"/>
<path class="st10" d="M147.8,82.1c-0.1,0-0.2,0-0.3,0c-2-0.1-4-0.9-5.5-2.4c-1.5-1.5-2.4-3.5-2.6-5.6l-0.1-1l1,0.2
	c0.3,0.1,3.2,0.5,5.3-1.7c1.3-1.3,1.7-2.9,1.8-3.9c0-0.5,0-0.8,0-1l1.6,0c0,0.2,0,0.5,0,1c0.1,1,0.4,2.5,1.7,3.8
	c1.9,1.8,4.2,1.6,4.7,1.6l1-0.1l-0.1,1C155.9,78.6,152.2,82.1,147.8,82.1z M141.1,75c0.7,3.1,3.3,5.4,6.4,5.6c3.4,0.1,6.4-2.4,7-5.7
	c-1.2,0-3.3-0.4-5-2.1c-0.6-0.6-1.1-1.3-1.4-1.9c-0.3,0.7-0.8,1.3-1.4,1.9C144.8,74.7,142.4,75,141.1,75z"/>
<path class="st11" d="M152.3,78.7c-0.7-0.4-1.5-0.8-2.5-1.1c-3.6-1-6.9,0.3-8.1,0.9c0.4,0.4,0.9,0.8,1.3,1.1c0.4,0.3,1.1,0.7,2,0.9
	c1.5,0.5,2.7,0.3,3,0.3C150.3,80.6,151.8,79.2,152.3,78.7z"/>
<path class="st10" d="M147.8,82.1c-0.1,0-0.2,0-0.3,0c-2-0.1-4-0.9-5.5-2.4c-1.5-1.5-2.4-3.5-2.6-5.6l-0.1-1l1,0.2
	c0.3,0.1,3.2,0.5,5.3-1.7c1.3-1.3,1.7-2.9,1.8-3.9c0-0.5,0-0.8,0-1l1.6,0c0,0.2,0,0.5,0,1c0.1,1,0.4,2.5,1.7,3.8
	c1.9,1.8,4.2,1.6,4.7,1.6l1-0.1l-0.1,1C155.9,78.6,152.2,82.1,147.8,82.1z M141.1,75c0.7,3.1,3.3,5.4,6.4,5.6c3.4,0.1,6.4-2.4,7-5.7
	c-1.2,0-3.3-0.4-5-2.1c-0.6-0.6-1.1-1.3-1.4-1.9c-0.3,0.7-0.8,1.3-1.4,1.9C144.8,74.7,142.4,75,141.1,75z"/>
<path class="st4" d="M131.1,63.1c2.9,0,5.2-2.9,5.2-6.5c0-3.6-2.3-6.5-5.2-6.5c-2.9,0-5.2,2.9-5.2,6.5
	C126,60.2,128.3,63.1,131.1,63.1z"/>
<path class="st7" d="M133.3,58.7c0.9,0,1.7-0.9,1.7-2.1s-0.8-2.1-1.7-2.1s-1.7,0.9-1.7,2.1S132.4,58.7,133.3,58.7z"/>
<path class="st4" d="M163.8,63c2.9,0,5.2-2.9,5.2-6.5c0-3.6-2.3-6.5-5.2-6.5c-2.9,0-5.2,2.9-5.2,6.5C158.6,60,160.9,63,163.8,63z"/>
<path class="st7" d="M161.5,58.7c0.9,0,1.7-0.9,1.7-2.1s-0.8-2.1-1.7-2.1s-1.7,0.9-1.7,2.1S160.6,58.7,161.5,58.7z"/>
<g class="st5">
	<path class="st4" d="M98.6,37c-1.3,5.6-0.6,10.8,2,12.2c3.4,1.9,9.8-2.6,12.9-6.8c1.7-2.4,2-4,4.8-7.7c1.7-2.2,3.4-3.9,4.5-5
		c-2.1,4.3-4.1,8.5-6.2,12.8c0,0-1.9,4.2-4.5,8.2c-2.3,3.5-6.1,8.2-9.2,7.5c-3.8-0.9-4.9-10.1-5-14.2C97.8,41.2,98.2,38.8,98.6,37z"
		/>
</g>
<path class="st9" d="M163.9,22.5c0,0,19.5-4.8,30.6,7.1c1.3,1.4,2.2,3,2.7,4.9c0.9,3.3,1.7,9.2-0.5,18.3c-3.5,14.9-13-1.8-13-1.8
	s-3.5-5.5-6-11.5C175.4,33.4,169.9,25.8,163.9,22.5z"/>
<path class="st4" d="M192.3,59.7c-1.8,0-3.9-1.4-6.2-4.1c-1.7-2-2.9-4.1-3-4.3c-0.2-0.3-3.6-5.7-6-11.6c-2.3-5.6-7.6-13.2-13.6-16.6
	l-1.8-1l2-0.5c0.2-0.1,5.1-1.2,11.4-0.9c3.7,0.2,7.2,0.8,10.2,1.9c3.9,1.4,7.2,3.5,9.8,6.3c1.4,1.5,2.4,3.3,2.9,5.2
	c1,3.5,1.7,9.6-0.5,18.7c-0.5,2.1-1.2,3.7-2,4.9c-0.8,1.1-1.7,1.7-2.8,1.9C192.6,59.7,192.5,59.7,192.3,59.7z M166.1,22.9
	c5.6,3.9,10.4,10.9,12.5,16.2c2.4,5.9,5.9,11.3,5.9,11.4l0,0c0,0,1.2,2.1,2.8,4.1c2,2.4,3.9,3.6,5.2,3.5c1.8-0.3,2.9-3.2,3.4-5.5
	c2.1-8.8,1.4-14.6,0.5-17.9c-0.5-1.7-1.4-3.2-2.6-4.5c-5.6-6-13.4-7.5-18.9-7.8C171.3,22.2,168,22.6,166.1,22.9z"/>
<g class="st6">
	<path class="st7" d="M198.2,37.9c0,0-7.3-17.1-31.7-13.7l-2-1.7c0,0,16.7-5.2,29.6,6.7C194.2,29.2,197.6,33.3,198.2,37.9z"/>
</g>
<path class="st4" d="M192.3,59.7c-1.8,0-3.9-1.4-6.2-4.1c-1.7-2-2.9-4.1-3-4.3c-0.2-0.3-3.6-5.7-6-11.6c-2.3-5.6-7.6-13.2-13.6-16.6
	l-1.8-1l2-0.5c0.2-0.1,5.1-1.2,11.4-0.9c3.7,0.2,7.2,0.8,10.2,1.9c3.9,1.4,7.2,3.5,9.8,6.3c1.4,1.5,2.4,3.3,2.9,5.2
	c1,3.5,1.7,9.6-0.5,18.7c-0.5,2.1-1.2,3.7-2,4.9c-0.8,1.1-1.7,1.7-2.8,1.9C192.6,59.7,192.5,59.7,192.3,59.7z M166.1,22.9
	c5.6,3.9,10.4,10.9,12.5,16.2c2.4,5.9,5.9,11.3,5.9,11.4l0,0c0,0,1.2,2.1,2.8,4.1c2,2.4,3.9,3.6,5.2,3.5c1.8-0.3,2.9-3.2,3.4-5.5
	c2.1-8.8,1.4-14.6,0.5-17.9c-0.5-1.7-1.4-3.2-2.6-4.5c-5.6-6-13.4-7.5-18.9-7.8C171.3,22.2,168,22.6,166.1,22.9z"/>
<g class="st5">
	<path class="st4" d="M189.9,60.7c0,0-9.9-4.3-14.6-21.7c-4.7-17.4-22.4-19.5-22.4-19.5s3.3-0.2,7.9,1.7c0.8,0.3,11.4,4.4,15.4,13.9
		c0.7,1.7,1.1,3.2,2.7,6.8c1.3,2.9,2.5,5,3.3,6.4c2.1,3.7,3.2,5.6,5.3,7.7c1.1,1.1,2.1,1.9,2.8,2.4
		C190.2,59.1,190.1,59.9,189.9,60.7z"/>
</g>
<g class="st5">
	<path class="st4" d="M197.4,37.6c1.3,5.6,0.6,10.8-2.1,12.2c-3.4,1.9-9.7-2.6-12.8-6.9c-1.7-2.4-2-4.1-4.8-7.7
		c-1.7-2.2-3.3-3.9-4.5-5c2,4.3,4.1,8.5,6.1,12.8c0,0,1.8,4.2,4.5,8.2c2.3,3.5,6.1,8.3,9.2,7.6c3.9-0.9,4.9-10.1,5-14.2
		C198.2,41.8,197.8,39.4,197.4,37.6z"/>
</g>
<path class="st4" d="M143.2,134.3c0.3,0,0.6,0,0.9,0l0.9,0l1.7,0.1c1.2,0,2.3,0.1,3.4,0c1.1,0,2.3,0,3.4-0.1c0.6,0,1.2-0.1,1.7-0.1
	c0.6,0,1.2-0.1,1.7-0.1c-0.5,0.2-1.1,0.4-1.7,0.6c-0.6,0.2-1.1,0.3-1.7,0.4c-1.2,0.2-2.3,0.3-3.5,0.3c-1.2,0-2.4-0.1-3.5-0.2
	c-0.6-0.1-1.2-0.2-1.7-0.3c-0.3-0.1-0.6-0.2-0.8-0.2C143.7,134.5,143.5,134.4,143.2,134.3z"/>
<g class="st5">
	<path class="st4" d="M169.4,121.6c0.2,0.3,0.8,1,0.5,1.6c-0.1,0.3-0.5,0.4-0.7,0.5c-0.1,0.1-0.3,0.2-0.4,0.4
		c-0.2,0.2-0.3,0.4-0.4,0.5c-0.8,0.9-1.5,1.7-2.1,2.3c-2.8,3-1.9,7.4-15.9,8c-6,0.2-9.8-1.2-12.2-2.9c-1-0.7-1.7-1.9-1.7-1.9
		c-1.3-1.6-1.6-2.4-2.4-3.6c-0.6-0.8-1.5-1.9-3-3c0.3-0.5,0.7-1,1-1.7c0.8-2.1,0.5-4,0.3-5c2.7,7.7,9.9,12.8,18,12.8
		c8.2,0,15.4-5.3,18-13.1C168.2,119.4,168.8,120.8,169.4,121.6z"/>
</g>
<g class="st5">
	<path class="st4" d="M132.6,125c0,0-7.9,7.8-19,0.4c0,0,9.9,4.8,17-2.3L132.6,125z"/>
</g>
<g class="st5">
	<path class="st4" d="M167.9,124.7c0,0,8.8,7.3,20.1-0.8c0,0-10.2,5.4-18.1-1.2L167.9,124.7z"/>
</g>
</svg>
