<?xml version="1.0" encoding="utf-8"?>
<!-- Generator: Adobe Illustrator 27.8.1, SVG Export Plug-In . SVG Version: 6.00 Build 0)  -->
<svg version="1.1" id="レイヤー_1" xmlns="http://www.w3.org/2000/svg" xmlns:xlink="http://www.w3.org/1999/xlink" x="0px"
	 y="0px" viewBox="0 0 295 174" style="enable-background:new 0 0 295 174;" xml:space="preserve">
<style type="text/css">
	.st0{fill:#5880E7;}
	.st1{clip-path:url(#SVGID_00000076588455846312879850000011655115997449429636_);}
	.st2{fill:#95BDFF;}
	.st3{fill:#2E0249;}
	.st4{fill:#FFFAFF;}
	.st5{opacity:0.5;}
	.st6{fill:#FFFFFF;}
	.st7{fill:#F7437F;}
	.st8{opacity:0.25;}
	.st9{fill:#FF94CC;}
	.st10{fill:#FF7396;}
</style>
<path class="st0" d="M10,0h275c5.5,0,10,4.5,10,10v154c0,5.5-4.5,10-10,10H10c-5.5,0-10-4.5-10-10V10C0,4.5,4.5,0,10,0z"/>
<g>
	<defs>
		<rect id="SVGID_1_" x="83" y="16" width="128.2" height="143"/>
	</defs>
	<clipPath id="SVGID_00000054240598535380691200000006196929743295496863_">
		<use xlink:href="#SVGID_1_"  style="overflow:visible;"/>
	</clipPath>
	<g style="clip-path:url(#SVGID_00000054240598535380691200000006196929743295496863_);">
		<path class="st2" d="M172.6,149.4c-0.6,2.7-1.3,5.3-3.4,6.6c-1.9,1.1-4.1,0.6-5,0.4c-2.9-0.6-7.6-1-15.7-0.2
			c-4.9,0.5-9.8,0.7-14.7,0.7c0,0-0.1,0-0.1,0c-0.5,0-1,0-1.5,0c-4.9,0-9.8-0.1-14.7-0.2c-3.8-0.1-6.8,0-9.3,0.2c-0.1,0-0.2,0-0.3,0
			c-0.2,0-0.4,0-0.5,0c0,0-0.1,0-0.1,0c-0.1,0-0.2,0-0.3,0c-0.1,0-0.1,0-0.2,0c-0.1,0-0.2,0-0.3,0c-0.1,0-0.2,0-0.3,0
			c-0.2,0-0.3,0-0.5,0.1c-0.1,0-0.1,0-0.2,0c-0.1,0-0.1,0-0.2,0c-0.1,0-0.2,0-0.3,0c-0.1,0-0.1,0-0.2,0c-0.1,0-0.2,0-0.2,0
			c-0.1,0-0.1,0-0.2,0c0,0-0.1,0-0.1,0c-0.3,0-0.6,0.1-0.8,0.1c0,0-0.1,0-0.1,0c-0.1,0-0.1,0-0.2,0c-0.1,0-0.2,0-0.3,0.1h0
			c-0.1,0-0.1,0-0.2,0c-0.2,0-0.4,0.1-0.6,0.1c-0.1,0-0.1,0-0.2,0c-0.2,0-0.4,0.1-0.5,0.1c-0.1,0-0.1,0-0.2,0s-0.1,0-0.2,0
			c-0.8,0.2-3,0.9-5-0.1c-2.3-1.1-3.1-3.7-3.9-6.3c-1-3.2-3.1-10.2,0.2-12.8c1.7-1.4,4.2-0.9,4.5-0.8c0.1,0,0.1,0,0.2,0
			c0,0,0.1,0,0.1,0c0,0,0,0,0.1,0c0,0,0.1,0,0.1,0c0,0,0,0,0,0c0,0,0.1,0,0.1,0c0,0,0,0,0,0c0,0,0.1,0,0.1,0c0.1,0,0.1,0,0.2,0
			c0,0,0.1,0,0.1,0c0,0,0,0,0,0c0,0,0.1,0,0.1,0c0,0,0,0,0,0c0,0,0.1,0,0.1,0c0,0,0,0,0,0c0,0,0.1,0,0.1,0.1c0,0,0,0,0,0
			c0,0,0.1,0,0.1,0c0.2,0.1,0.3,0.2,0.5,0.2c0,0,0.1,0,0.1,0.1c0,0,0,0,0,0c0,0,0.1,0,0.1,0.1c0,0,0,0,0,0c0,0,0.1,0,0.1,0.1
			c0,0,0,0,0,0c0,0,0.1,0.1,0.1,0.1c0,0,0,0,0,0c0,0,0.1,0,0.1,0.1c0,0,0.1,0,0.1,0.1c0,0,0.1,0,0.1,0.1c0,0,0.1,0,0.1,0.1
			c0,0,0.1,0,0.1,0.1c0.1,0.1,0.1,0.1,0.2,0.2c0,0,0,0,0,0c0,0,0,0,0.1,0.1c0,0,0.1,0.1,0.1,0.1c0,0,0,0,0.1,0.1
			c0,0,0.1,0.1,0.1,0.1c0,0,0,0,0.1,0.1c0,0,0,0,0.1,0.1c0.1,0.1,0.1,0.1,0.2,0.2c0,0,0,0,0,0c0,0,0.1,0.1,0.1,0.1c0,0,0,0,0.1,0.1
			c0,0,0.1,0.1,0.1,0.1c0,0,0,0,0,0.1c0,0,0,0,0,0c0,0.1,0.1,0.1,0.1,0.2c0,0,0,0,0,0c0,0,0.1,0.1,0.1,0.1c0,0,0,0,0,0
			c0.1,0.1,0.1,0.2,0.2,0.2c0,0,0,0,0,0c0,0,0,0.1,0.1,0.1c0,0.1,0.1,0.1,0.1,0.2c0,0,0,0,0,0c0,0.1,0.1,0.1,0.1,0.2c0,0,0,0,0,0.1
			c0.1,0.2,0.1,0.3,0.2,0.4c0,0,0,0,0,0c0,0,0,0,0,0c0,0,0,0,0,0c0,0,0,0,0,0s0,0,0,0c0,0,0,0,0,0c0.9-1,2.2-2.3,3.9-3.4
			c2.3-1.6,4.5-2.5,6.2-3c0,0-2.6-5.8-3-12c0-0.1,0-0.1,0-0.2c0-0.1,0-0.2,0-0.3c0,0,0-0.1,0-0.1c0-0.1,0-0.2,0-0.3
			c0-0.1,0-0.1,0-0.2c0-0.1,0-0.3,0-0.4c0,0,0-0.1,0-0.1c0-0.1,0-0.2,0-0.2c0,0,0-0.1,0-0.1c0-0.1,0-0.2,0-0.3c0,0,0-0.1,0-0.1
			c0-0.1,0-0.2,0-0.3c0-0.1,0-0.2,0-0.3c0,0,0-0.1,0-0.1c0,0,0,0,0-0.1c0,0,0-0.1,0-0.1c0-0.1,0-0.2,0-0.3c0-0.1,0-0.2,0-0.2
			c0,0,0,0,0,0c0-0.1,0-0.2,0-0.3c0-0.3,0.1-0.7,0.2-1c0,0,0,0,0,0c0,0,0-0.1,0-0.1c0,0,0-0.1,0-0.1c0,0,0-0.1,0-0.1c0,0,0,0,0,0
			c0-0.1,0-0.1,0-0.2c0,0,0-0.1,0-0.1c0-0.1,0-0.1,0.1-0.2c0,0,0-0.1,0-0.1c0,0,0-0.1,0-0.1c0,0,0-0.1,0-0.1
			c0.1-0.4,0.3-0.8,0.4-1.1c0-0.1,0.1-0.1,0.1-0.2c0.1-0.1,0.1-0.3,0.2-0.4c0.1-0.1,0.1-0.2,0.2-0.3c0.1,0,0.2,0.1,0.3,0.1
			c5.5,1.2,11,0.9,14.9,0.3c0,0,0.1,0,0.1,0c0,0,0.1,0,0.1,0c2-0.3,3.5-0.6,4.3-0.8c2.4-0.5,9.6-2.2,16-6.8c0,0,0,0,0,0
			c0,0,0,0,0.1,0c0.1,0,0.1,0.1,0.2,0.1c0.1,0,0.1,0.1,0.2,0.1c0,0,0,0,0.1,0c0.1,0,0.2,0.1,0.4,0.1c0.2,0.1,0.4,0.2,0.6,0.2
			c0.1,0,0.1,0,0.2,0.1c0.1,0,0.2,0.1,0.3,0.1c0.1,0,0.2,0.1,0.3,0.1c0.1,0,0.2,0.1,0.3,0.1c0,0,0,0,0,0c0,0,0.1,0,0.1,0
			c0.1,0,0.3,0.1,0.4,0.1c0.1,0,0.1,0,0.2,0.1c0,0,0.1,0,0.1,0c0,0,0.1,0,0.1,0c0.1,0,0.2,0.1,0.3,0.1c0,0,0.1,0,0.1,0
			c0.1,0,0.1,0,0.2,0c0,0,0,0,0.1,0c0.1,0,0.1,0,0.2,0c0.1,0,0.3,0.1,0.4,0.1c0.1,0,0.2,0.1,0.3,0.1c0.1,0,0.1,0,0.2,0
			c0.1,0,0.3,0.1,0.4,0.1c0.1,0,0.1,0,0.2,0c0,0,0.1,0,0.1,0c0,0,0.1,0,0.1,0c0.1,0,0.1,0,0.2,0c5.5,0.9,10.1-0.2,12.5-0.9
			c0.3-0.5,2.6-3.6,6-3.7c0.5,0,1.7,0,2.8,0.7c1.7,1.1,2.1,3.1,2.2,3.6c0.8,4.1-4.3,9-7.3,11.1c-7.5,5.4-16.5,4.3-19.9,3.8
			c0.7,1.7,1.3,3.7,1.8,6c0.3,1.5,0.6,2.9,0.7,4.3c1.7,0.4,3.9,1.1,6.4,2.6c1.7,1,3.1,2.2,4.1,3.2c0.1-0.3,1.3-3.8,4.7-4.8
			c0.4-0.1,2.8-0.8,4.6,0.5C174.9,139,173.3,146.2,172.6,149.4z"/>
		<path class="st3" d="M98.6,159c-0.8,0-1.7-0.1-2.6-0.6c-2.6-1.2-3.4-4.1-4.2-6.7c-0.5-1.6-1.3-4.2-1.5-6.7c-0.3-3.2,0.4-5.5,2-6.7
			c1.8-1.4,4.1-1.1,5-0.9c0.1,0,0.1,0,0.2,0l0,0c0,0,0.1,0,0.1,0l0.1,0l0.2,0.1l0,0c0,0,0,0,0,0c0,0,0.1,0,0.1,0
			c0.1,0,0.1,0,0.2,0.1l0,0c0,0,0.1,0,0.1,0c0,0,0,0,0,0c0,0,0.1,0,0.1,0.1c0,0,0,0,0,0c0,0,0.1,0,0.1,0l0,0c0,0,0.1,0,0.1,0.1
			c0,0,0,0,0,0c0,0,0.1,0,0.1,0.1c0.2,0.1,0.3,0.2,0.5,0.3c0,0,0.1,0,0.1,0.1l0,0c0,0,0,0,0,0c0,0,0.1,0,0.1,0.1c0,0,0,0,0.1,0
			c0,0,0.1,0,0.1,0.1c0,0,0,0,0,0l0,0c0,0,0.1,0.1,0.1,0.1c0,0,0,0,0,0c0,0,0,0,0.1,0.1c0,0,0.1,0,0.1,0.1c0,0,0.1,0,0.1,0.1
			c0,0,0,0,0,0l0,0c0,0,0.1,0,0.1,0.1c0.1,0.1,0.2,0.1,0.2,0.2c0,0,0,0,0,0l0.1,0.1c0,0,0.1,0.1,0.1,0.1c0,0,0,0.1,0.1,0.1
			c0,0,0.1,0.1,0.1,0.1c0,0,0,0.1,0.1,0.1l0,0c0,0,0,0,0.1,0.1c0,0.1,0.1,0.1,0.2,0.2c0,0,0,0,0,0l0,0c0,0,0.1,0.1,0.1,0.1
			c0,0,0,0.1,0.1,0.1c0,0,0.1,0.1,0.1,0.1c0,0,0,0.1,0.1,0.1l0,0.1c0,0,0.1,0.1,0.1,0.1c0,0,0,0,0,0l0,0c0,0,0.1,0.1,0.1,0.1l0,0
			c0,0.1,0.1,0.1,0.2,0.2c0,0,0,0,0,0c0,0,0,0.1,0.1,0.1c0,0.1,0.1,0.1,0.1,0.2l0,0c0,0,0,0.1,0,0.1c1-1.1,2.2-2,3.4-2.9
			c1.8-1.2,3.7-2.2,5.7-2.9c-0.7-1.7-2.5-6.5-2.8-11.6c0-0.1,0-0.2,0-0.2c0-0.1,0-0.2,0-0.3l0-0.1c0-0.1,0-0.2,0-0.3
			c0,0,0-0.1,0-0.1l0-0.1c0-0.1,0-0.3,0-0.4c0,0,0-0.1,0-0.1v0c0-0.1,0-0.2,0-0.2v0c0,0,0-0.1,0-0.1c0-0.1,0-0.2,0-0.3l0-0.1
			c0-0.1,0-0.2,0-0.3c0-0.1,0-0.2,0-0.3l0-0.2c0,0,0-0.1,0-0.1v0c0-0.1,0-0.2,0-0.3c0-0.1,0-0.1,0-0.2v0l0,0c0-0.1,0-0.2,0-0.3
			c0.1-0.4,0.1-0.7,0.2-1.1c0,0,0,0,0,0l0,0c0,0,0-0.1,0-0.1l0,0c0,0,0-0.1,0-0.1l0,0c0,0,0-0.1,0-0.1l0,0c0-0.1,0-0.1,0-0.2l0,0
			c0,0,0-0.1,0-0.1c0-0.1,0-0.1,0.1-0.2c0,0,0-0.1,0-0.1c0,0,0-0.1,0-0.1c0,0,0-0.1,0-0.1l0,0c0.1-0.4,0.3-0.8,0.4-1.2
			c0-0.1,0.1-0.2,0.1-0.2c0.1-0.1,0.1-0.3,0.2-0.4l0,0c0.1-0.1,0.1-0.2,0.2-0.3l0.2-0.4l0.4,0.1c0.1,0,0.2,0.1,0.3,0.1
			c5.4,1.2,11,0.8,14.7,0.3l0,0c0,0,0,0,0.1,0l0.1,0c1.5-0.2,2.9-0.5,4.2-0.8c2.3-0.5,9.5-2.1,15.8-6.7l0.3-0.2l0.3,0.2l0,0
			c0.1,0,0.1,0,0.2,0.1l0,0c0.1,0,0.1,0.1,0.2,0.1l0,0c0,0,0,0,0,0l0,0c0.1,0,0.2,0.1,0.3,0.1c0.2,0.1,0.4,0.1,0.6,0.2
			c0,0,0.1,0,0.1,0l0.1,0c0.1,0,0.2,0.1,0.3,0.1c0.1,0,0.2,0.1,0.3,0.1c0.1,0,0.2,0.1,0.3,0.1c0,0,0,0,0,0l0,0c0,0,0.1,0,0.1,0l0,0
			c0.1,0,0.3,0.1,0.4,0.1l0,0c0.1,0,0.1,0,0.2,0.1c0,0,0.1,0,0.1,0c0,0,0.1,0,0.1,0c0.1,0,0.2,0,0.3,0.1l0.1,0c0.1,0,0.1,0,0.2,0
			c0,0,0,0,0.1,0l0.2,0c0.1,0,0.3,0.1,0.4,0.1c0.1,0,0.2,0.1,0.3,0.1c0.1,0,0.1,0,0.2,0c0.1,0,0.3,0.1,0.4,0.1l0.1,0
			c0,0,0.1,0,0.1,0l0,0c0,0,0.1,0,0.1,0l0,0c0,0,0.1,0,0.1,0l0,0c0.1,0,0.1,0,0.2,0c4,0.6,8.1,0.3,12.1-0.9c0.8-1.1,3-3.7,6.4-3.8
			c0.5,0,1.8,0,3.1,0.8c1.2,0.8,2.1,2.2,2.4,4c0.4,2-0.4,4.3-2.3,6.8c-1.3,1.7-3.3,3.6-5.2,4.9c-3.3,2.4-7.3,3.8-11.8,4.2
			c-2.4,0.2-5,0.2-7.6-0.2c0.6,1.7,1.1,3.4,1.4,5.1c0.3,1.3,0.5,2.6,0.7,3.9c2.2,0.6,4.2,1.4,6.1,2.6c1.3,0.8,2.5,1.6,3.6,2.6
			c0.6-1.3,2-3.6,4.8-4.3c0.9-0.2,3.2-0.7,5.1,0.6c1.7,1.1,2.5,3.3,2.4,6.6c-0.1,2.5-0.7,5.2-1,6.8c-0.6,2.6-1.3,5.6-3.7,7
			c-2.1,1.2-4.4,0.7-5.3,0.5l-0.1,0c-3.6-0.8-8.8-0.8-15.5-0.2c-4.8,0.4-9.8,0.7-14.8,0.7h0c0,0,0,0,0,0h0c-0.5,0-1,0-1.4,0
			c-4.7,0-9.5-0.1-14.8-0.2c-3.5-0.1-6.6,0-9.2,0.2l-0.3,0c-0.2,0-0.4,0-0.5,0l-0.2,0c-0.1,0-0.2,0-0.3,0l-0.2,0c-0.1,0-0.1,0-0.2,0
			l-0.1,0c-0.1,0-0.2,0-0.3,0c-0.1,0-0.3,0-0.5,0.1l-0.2,0c-0.1,0-0.1,0-0.2,0l-0.1,0c-0.1,0-0.1,0-0.2,0c-0.1,0-0.1,0-0.2,0
			c-0.1,0-0.2,0-0.2,0l0,0c0,0-0.1,0-0.1,0l0,0c0,0-0.1,0-0.1,0l-0.1,0c-0.3,0-0.5,0.1-0.8,0.1l0,0c0,0-0.1,0-0.1,0l0,0
			c-0.1,0-0.1,0-0.2,0c-0.1,0-0.2,0-0.3,0.1l0,0l0,0c-0.1,0-0.1,0-0.2,0l0,0c-0.2,0-0.4,0.1-0.6,0.1l-0.1,0c0,0-0.1,0-0.1,0
			c-0.2,0-0.3,0.1-0.5,0.1l-0.2,0c-0.1,0-0.1,0-0.2,0l-0.1,0C100.8,158.7,99.8,159,98.6,159z M95.6,138.4c-0.9,0-1.9,0.2-2.7,0.8
			c-3,2.4-0.9,9.2,0,12.2c0.7,2.4,1.5,5,3.6,6c1.7,0.8,3.7,0.3,4.5,0.1l0.1,0c0.1,0,0.1,0,0.2,0l0.2,0c0.2,0,0.4-0.1,0.5-0.1l0,0
			c0,0,0.1,0,0.1,0l0.1,0c0.2,0,0.4-0.1,0.6-0.1c0.1,0,0.1,0,0.2,0l0,0c0.1,0,0.2,0,0.3-0.1c0.1,0,0.1,0,0.2,0c0,0,0.1,0,0.1,0
			c0.3,0,0.5-0.1,0.8-0.1l0.1,0c0,0,0.1,0,0.1,0l0,0c0,0,0.1,0,0.1,0c0.1,0,0.2,0,0.2,0c0.1,0,0.1,0,0.2,0c0.1,0,0.1,0,0.2,0l0.1,0
			c0.1,0,0.1,0,0.2,0l0.2,0c0.2,0,0.3,0,0.5-0.1c0.1,0,0.2,0,0.3,0l0.1,0c0.1,0,0.1,0,0.2,0l0.2,0c0.1,0,0.2,0,0.3,0l0.2,0
			c0.2,0,0.4,0,0.5,0l0.3,0c2.7-0.2,5.8-0.3,9.3-0.2c5.3,0.1,10.1,0.2,14.7,0.2c0.5,0,1,0,1.4,0c0,0,0,0,0.1,0h0
			c5,0,9.9-0.2,14.6-0.7c6.8-0.6,12.2-0.6,15.9,0.2l0.1,0c0.8,0.2,2.8,0.6,4.5-0.4c2-1.2,2.6-3.7,3.2-6.2c0.7-3,2.3-10-0.9-12.1
			c-1.4-1-3.3-0.6-4.1-0.4c-1.3,0.4-2.4,1.2-3.3,2.4c-0.7,1-1,1.9-1,2l-0.3,0.9l-0.7-0.7c-1.2-1.2-2.6-2.2-4-3.1
			c-1.9-1.1-4-2-6.2-2.5l-0.4-0.1l0-0.4c-0.2-1.4-0.4-2.8-0.7-4.2c-0.4-2-1-4-1.7-5.9l-0.4-1l1,0.2c4.3,0.7,12.6,1.2,19.5-3.7
			c1.8-1.3,3.7-3.1,4.9-4.7c1.2-1.5,2.5-3.8,2.1-5.8c-0.1-0.6-0.5-2.3-1.9-3.2c-1-0.6-2-0.6-2.5-0.6c-3,0-5.1,2.9-5.5,3.4l-0.1,0.2
			l-0.2,0.1c-4.2,1.3-8.6,1.6-12.8,1c-0.1,0-0.1,0-0.2,0c0,0-0.1,0-0.1,0c0,0-0.1,0-0.1,0c0,0-0.1,0-0.1,0l-0.1,0
			c-0.1,0-0.3-0.1-0.4-0.1c-0.1,0-0.1,0-0.2,0c-0.1,0-0.2-0.1-0.4-0.1c-0.1,0-0.3-0.1-0.4-0.1l-0.2,0c0,0,0,0-0.1,0l0,0
			c-0.1,0-0.1,0-0.2,0l-0.1,0c-0.1,0-0.2-0.1-0.3-0.1c0,0-0.1,0-0.1,0c0,0-0.1,0-0.1,0c-0.1,0-0.2,0-0.2-0.1c-0.1,0-0.3-0.1-0.4-0.1
			l0,0c0,0-0.1,0-0.1,0c0,0,0,0,0,0l0,0c-0.1,0-0.2-0.1-0.3-0.1c-0.1,0-0.2-0.1-0.3-0.1c-0.1,0-0.2-0.1-0.3-0.1l-0.1,0
			c0,0-0.1,0-0.1,0c-0.2-0.1-0.4-0.2-0.6-0.2c-0.1,0-0.2-0.1-0.3-0.1c0,0,0,0-0.1,0c-0.1,0-0.1,0-0.2-0.1c-6.5,4.5-13.6,6.1-16,6.7
			c-1.4,0.3-2.8,0.6-4.3,0.8l0,0c0,0,0,0-0.1,0l0,0c0,0,0,0,0,0l0,0c-3.8,0.5-9.5,0.9-15-0.3c0,0.1-0.1,0.2-0.1,0.2
			c0,0.1-0.1,0.1-0.1,0.2c-0.1,0.3-0.3,0.7-0.4,1.1l0,0c0,0,0,0.1,0,0.1l0,0c0,0,0,0.1,0,0.1l0,0c0,0,0,0.1,0,0.1l0,0
			c0,0.1,0,0.1-0.1,0.2c0,0,0,0.1,0,0.1l0,0c0,0.1,0,0.1,0,0.2c0,0,0,0,0,0c0,0,0,0.1,0,0.1l0,0c0,0,0,0.1,0,0.1l0,0
			c0,0,0,0.1,0,0.1l0,0c0,0,0,0,0,0l0,0c-0.1,0.3-0.1,0.7-0.2,1c0,0.1,0,0.1,0,0.2v0l0,0c0,0.1,0,0.2,0,0.2c0,0.1,0,0.2,0,0.2
			c0,0,0,0.1,0,0.1c0,0,0,0,0,0l0,0.2c0,0.1,0,0.2,0,0.3l0,0c0,0.1,0,0.2,0,0.3l0,0.1c0,0.1,0,0.2,0,0.3l0,0c0,0,0,0.1,0,0.1v0
			c0,0.1,0,0.1,0,0.2v0c0,0,0,0.1,0,0.1v0c0,0.1,0,0.3,0,0.4l0,0.1c0,0,0,0.1,0,0.1c0,0.1,0,0.2,0,0.3l0,0.1c0,0.1,0,0.2,0,0.2
			c0,0.1,0,0.1,0,0.2v0c0.4,6,2.9,11.7,2.9,11.8l0.3,0.6l-0.6,0.2c-2.1,0.7-4.2,1.7-6,2.9c-1.4,1-2.6,2.1-3.8,3.3l-0.6,0.7l-0.4-0.9
			c0,0,0,0,0,0l0,0c0,0,0,0,0,0c0,0,0,0,0,0l0,0c-0.1-0.1-0.1-0.2-0.2-0.4l0-0.1c0,0-0.1-0.1-0.1-0.2c0,0,0,0,0,0l0,0
			c0,0-0.1-0.1-0.1-0.2c0,0,0-0.1-0.1-0.1c0,0,0,0,0,0c-0.1-0.1-0.1-0.2-0.1-0.2l0,0c0,0,0,0,0-0.1l0,0l0,0c0,0-0.1-0.1-0.1-0.1l0,0
			c0,0,0,0,0,0c0,0,0,0,0-0.1l0,0c0,0-0.1-0.1-0.1-0.1l0,0c0,0,0,0,0,0l0,0c0,0,0-0.1-0.1-0.1c0,0,0,0,0,0l0,0
			c-0.1-0.1-0.1-0.1-0.1-0.2c0,0,0,0-0.1-0.1l0,0c0,0,0,0,0,0c0,0-0.1-0.1-0.1-0.1c0,0,0,0-0.1-0.1l0,0c0,0-0.1-0.1-0.1-0.1
			l-0.1-0.1c-0.1-0.1-0.1-0.1-0.2-0.2c0,0,0,0-0.1-0.1l0,0c0,0,0,0,0,0l0,0c0,0,0,0,0,0l0,0c0,0,0,0-0.1-0.1c0,0-0.1,0-0.1-0.1l0,0
			c0,0,0,0,0,0h0l-0.1-0.1c0,0-0.1,0-0.1-0.1l0,0c0,0,0,0-0.1,0l0,0c0,0-0.1,0-0.1,0c-0.1-0.1-0.3-0.2-0.4-0.2c0,0-0.1,0-0.1,0l0,0
			c0,0,0,0,0,0l0,0c0,0-0.1,0-0.1,0c0,0,0,0,0,0c0,0-0.1,0-0.1,0l0,0c0,0-0.1,0-0.1,0l0,0c0,0-0.1,0-0.1,0l0,0c0,0-0.1,0-0.1,0
			c0,0-0.1,0-0.1,0l-0.1,0c0,0,0,0,0,0c0,0,0,0-0.1,0c0,0-0.1,0-0.1,0c0,0-0.1,0-0.1,0C96.7,138.5,96.2,138.4,95.6,138.4z"/>
		<path class="st4" d="M98.8,138.8c0,0,5.2,2.1,3.8,10.6c-1.4,8.6,3.5,7.3,3.5,7.3l-6.6,1.7c0,0-4.2,0.5-5.7-2.9
			c-0.8-1.7-1.7-4-2.3-6.8c-0.6-2.7-0.7-5-0.7-6.9c0.1-0.5,0.5-2.1,2-3.1C94.5,137.5,96.9,137.5,98.8,138.8z"/>
		<path class="st4" d="M165.3,136.9c0,0-5,2.4-3.1,10.9c1.9,8.5-3.1,7.5-3.1,7.5l6.7,1.3c0,0,4.3,0.2,5.5-3.3
			c0.7-1.8,1.4-4.1,1.8-6.9c0.4-2.7,0.4-5,0.2-6.9c-0.1-0.5-0.6-2.1-2.1-3C169.5,135.4,167.2,135.6,165.3,136.9z"/>
		<g class="st5">
			<path class="st6" d="M92.7,140.5c1.7-1.4,4.2-0.9,4.5-0.8c0.1,0,0.1,0,0.2,0c0,0,0.1,0,0.1,0c0,0,0,0,0.1,0c0,0,0.1,0,0.1,0
				c0,0,0,0,0,0c0,0,0.1,0,0.1,0c0,0,0,0,0,0c0,0,0.1,0,0.1,0c0.1,0,0.1,0,0.2,0.1c0,0,0.1,0,0.1,0c0,0,0,0,0,0c0,0,0.1,0,0.1,0
				c0,0,0,0,0,0c0,0,0.1,0,0.1,0c0,0,0,0,0,0c0,0,0.1,0,0.1,0.1c0,0,0,0,0,0c0,0,0.1,0,0.1,0c0.2,0.1,0.3,0.2,0.5,0.2
				c0,0,0.1,0,0.1,0.1c0,0,0,0,0,0c0,0,0.1,0,0.1,0.1c0,0,0,0,0,0c0,0,0.1,0,0.1,0.1c0,0,0,0,0,0c0,0,0.1,0.1,0.1,0.1c0,0,0,0,0,0
				c0,0,0.1,0,0.1,0.1c0,0,0.1,0,0.1,0.1c0,0,0.1,0,0.1,0.1c0,0,0.1,0,0.1,0.1c0,0,0.1,0,0.1,0.1c0.1,0.1,0.1,0.1,0.2,0.2
				c0,0,0,0,0,0c0,0,0,0,0.1,0.1c0,0,0.1,0.1,0.1,0.1c0,0,0,0,0.1,0.1c0,0,0.1,0.1,0.1,0.1c0,0,0,0,0.1,0.1c0,0,0,0,0.1,0.1
				c0.1,0.1,0.1,0.1,0.2,0.2c0,0,0,0,0,0.1c0,0,0.1,0.1,0.1,0.1c0,0,0,0,0.1,0.1c0,0,0.1,0.1,0.1,0.1c0,0,0,0,0,0.1c0,0,0,0,0,0
				c0,0.1,0.1,0.1,0.1,0.2c0,0,0,0,0,0c0,0,0.1,0.1,0.1,0.1c0,0,0,0,0,0c0.1,0.1,0.1,0.2,0.2,0.2c0,0,0,0,0,0c0,0,0,0.1,0.1,0.1
				c0,0.1,0.1,0.1,0.1,0.2c0,0,0,0,0,0c0,0.1,0.1,0.1,0.1,0.2c0,0,0,0,0,0.1c0.1,0.2,0.1,0.3,0.2,0.4c0,0,0,0,0,0c0,0,0,0,0,0
				c0,0,0,0,0,0c0,0,0,0,0,0c0,0,0,0,0,0c0,0,0,0,0,0c1.2-1.1,2.4-2.3,3.9-3.4c2-1.6,4-3,5.8-4.1c0.1,0.2,0.2,0.4,0.2,0.4
				c0,0-0.1-0.3-0.4-0.9c-1.5,0.5-3.5,1.4-5.7,2.9c-1.7,1.2-2.9,2.4-3.9,3.4c0,0,0,0,0,0c0,0,0,0,0,0c0,0,0,0,0,0c0,0,0,0,0,0
				c0,0,0,0,0,0c0,0,0,0,0,0c0-0.1-0.1-0.2-0.2-0.4c0,0,0,0,0-0.1c0-0.1-0.1-0.1-0.1-0.2c0,0,0,0,0,0c0-0.1-0.1-0.1-0.1-0.2
				c0,0,0-0.1-0.1-0.1c0,0,0,0,0,0c0-0.1-0.1-0.2-0.2-0.2c0,0,0,0,0,0c0,0-0.1-0.1-0.1-0.1c0,0,0,0,0,0c0-0.1-0.1-0.1-0.1-0.2
				c0,0,0,0,0,0c0,0,0,0,0-0.1c0,0-0.1-0.1-0.1-0.1c0,0,0,0-0.1-0.1c0,0-0.1-0.1-0.1-0.1c0,0,0,0,0,0c0-0.1-0.1-0.1-0.2-0.2
				c0,0,0,0-0.1-0.1c0,0,0,0-0.1-0.1c0,0-0.1-0.1-0.1-0.1c0,0,0,0-0.1-0.1c0,0-0.1-0.1-0.1-0.1c0,0,0,0-0.1-0.1c0,0,0,0,0,0
				c-0.1-0.1-0.1-0.1-0.2-0.2c0,0-0.1,0-0.1-0.1c0,0-0.1,0-0.1-0.1c0,0-0.1,0-0.1-0.1c0,0-0.1,0-0.1-0.1c0,0-0.1,0-0.1-0.1
				c0,0,0,0,0,0c0,0-0.1-0.1-0.1-0.1c0,0,0,0,0,0c0,0-0.1-0.1-0.1-0.1c0,0,0,0,0,0c0,0-0.1,0-0.1-0.1c0,0,0,0,0,0c0,0-0.1,0-0.1-0.1
				c-0.1-0.1-0.3-0.2-0.5-0.2c0,0-0.1,0-0.1,0c0,0,0,0,0,0c0,0-0.1,0-0.1-0.1c0,0,0,0,0,0c0,0-0.1,0-0.1,0c0,0,0,0,0,0
				c0,0-0.1,0-0.1,0c0,0,0,0,0,0c0,0-0.1,0-0.1,0c0,0-0.1,0-0.2,0c0,0-0.1,0-0.1,0c0,0,0,0,0,0c0,0-0.1,0-0.1,0c0,0,0,0,0,0
				c0,0-0.1,0-0.1,0c0,0,0,0-0.1,0c0,0-0.1,0-0.1,0c-0.1,0-0.1,0-0.2,0c-0.4-0.1-2.8-0.6-4.5,0.8c-1.8,1.4-2,4-1.7,6.7
				C90.8,143.4,91.3,141.6,92.7,140.5z"/>
		</g>
		<path class="st6" d="M176.4,111.5c-0.2-0.8-0.7-2.4-2.1-3.3c-0.1,0-0.1-0.1-0.2-0.1l0.6-1.2c1.2,1.1,1.5,2.7,1.6,3.2
			C176.4,110.5,176.4,111,176.4,111.5z"/>
		<g class="st5">
			<path class="st6" d="M171.4,136.7c-1.8-1.2-4.2-0.6-4.6-0.5c-3.5,0.9-4.6,4.5-4.7,4.8c-1-1-2.4-2.1-4.1-3.2
				c-2.4-1.4-4.7-2.2-6.4-2.6c-0.2-1.3-0.4-2.8-0.7-4.3c-0.3-1.5-0.7-2.9-1.1-4.2c-0.2,0-0.4-0.1-0.5-0.1c1,2.9,1.5,4.8,1.8,6
				c0.1,0.3,0.6,2.5,0.6,2.5s-1.3-0.1-3.8-0.2c2.8,0.7,6.5,2.1,10.2,4.5c1.6,1,2.9,2.1,4.1,3.2c0.1-0.3,1.3-3.8,4.7-4.8
				c0.4-0.1,2.8-0.8,4.6,0.5c1.2,0.8,1.8,2.2,2,3.8C173.6,139.9,173.1,137.8,171.4,136.7z"/>
		</g>
		<path class="st3" d="M161.9,134.3c0.9-0.3,1.7-0.7,2.4-1.2c0.8-0.5,1.5-1,2-1.7c0.6-0.6,1.1-1.4,1.5-2.1c0.4-0.8,0.6-1.6,0.7-2.5
			c0.3-1.7,0.1-3.5-0.5-5.1c0-0.1-0.1-0.2-0.1-0.3c0-0.1-0.1-0.2-0.1-0.3l-0.1-0.3l-0.1-0.3l-0.1-0.3l-0.1-0.3l-0.1-0.3l-0.1-0.3
			c-0.3-0.9-0.5-1.8-0.6-2.8c-0.2-1.9-0.1-3.8,0.3-5.7l0-0.2c0-0.1,0-0.1,0-0.2l0.1-0.3l0.1-0.2c0-0.1,0-0.1,0.1-0.2l0.1-0.3
			l0.1-0.3c0-0.1,0.1-0.2,0.1-0.3c0.1-0.2,0.2-0.4,0.3-0.7c0.4-0.9,0.8-1.7,1.2-2.5c0.4-0.8,0.9-1.6,1.4-2.4
			c0.5-0.8,1.1-1.5,1.7-2.2c0.3-0.4,0.6-0.7,1-1c0.4-0.3,0.7-0.6,1.1-0.9c0.4-0.3,0.8-0.6,1.3-0.8c0.2-0.1,0.5-0.2,0.7-0.3
			c0.1,0,0.2-0.1,0.4-0.1l0.1,0l0.1,0c0.1,0,0.1,0,0.2,0c0.5-0.1,1-0.1,1.6,0c0.3,0,0.5,0.1,0.8,0.2c0.2,0.1,0.5,0.2,0.7,0.3
			c0.5,0.2,0.9,0.6,1.3,1c0.2,0.2,0.3,0.4,0.5,0.7c0.1,0.3,0.2,0.5,0.3,0.8c0.1,0.5,0.1,1,0.1,1.5c0,0.4,0.1,0.8,0.2,1.2
			c0.1,0.2,0.1,0.3,0.2,0.5s0.2,0.3,0.3,0.4l0.1,0.1c0,0,0.1,0.1,0.1,0.1l0.1,0c0,0,0,0,0.1,0l0.1,0.1c0,0,0.1,0.1,0.1,0.1l0.1,0.1
			l0.1,0.1l0.1,0l0.1,0c0.4,0.2,0.8,0.3,1.1,0.3c0.1,0,0.1,0,0.1,0c0,0,0.1,0,0.1,0c0.1,0,0.2,0,0.3,0c0.2,0,0.4,0,0.6,0
			c0.4-0.1,0.8-0.2,1.1-0.4c0.2-0.1,0.4-0.2,0.5-0.3c0.1-0.1,0.2-0.1,0.3-0.2c0,0,0.1-0.1,0.1-0.1c0,0,0.1-0.1,0.1-0.1
			c0.6-0.5,1.1-1.2,1.4-2l0.1-0.1l0-0.1l0-0.1l0-0.1l0.1-0.2c0.1-0.2,0.1-0.4,0.2-0.6c0.1-0.4,0.2-0.9,0.3-1.3
			c0.2-0.9,0.4-1.8,0.5-2.6c0.1-0.9,0.3-1.8,0.3-2.7c0.1-0.9,0.1-1.8,0.1-2.7l0-0.3l0-0.3l0-0.7c0-0.1,0-0.2,0-0.3l0-0.3l0-0.3
			l0-0.2l0-0.2c0-0.4-0.1-0.9-0.1-1.3l0-0.3c0-0.1,0-0.2,0-0.3l-0.1-0.7c-0.1-0.9-0.3-1.8-0.5-2.7c-0.2-0.9-0.4-1.8-0.7-2.6
			c-0.3-0.9-0.6-1.7-0.9-2.6l1.1-0.4c0.3,0.9,0.6,1.7,0.9,2.6c0.3,0.9,0.5,1.8,0.7,2.7c0.2,0.9,0.4,1.8,0.5,2.8l0.1,0.7
			c0,0.1,0,0.2,0,0.3l0,0.3c0.1,0.5,0.1,0.9,0.1,1.4l0,0.2l0,0.2l0,0.3l0,0.3c0,0.1,0,0.2,0,0.3l0,0.7l0,0.3l0,0.3
			c0,0.9-0.1,1.9-0.1,2.8c-0.2,1.9-0.5,3.7-0.9,5.5c-0.1,0.5-0.2,0.9-0.4,1.4c-0.1,0.2-0.1,0.4-0.2,0.7l-0.1,0.2l0,0.1l0,0.1
			l-0.1,0.2l-0.1,0.2c-0.4,0.9-1,1.8-1.8,2.5c0,0-0.1,0.1-0.1,0.1c-0.1,0-0.1,0.1-0.2,0.1c-0.1,0.1-0.2,0.1-0.3,0.2
			c-0.2,0.1-0.4,0.3-0.7,0.4c-0.5,0.2-1,0.4-1.5,0.5c-0.3,0-0.5,0.1-0.8,0.1c-0.1,0-0.3,0-0.4,0c-0.1,0-0.1,0-0.2,0
			c-0.1,0-0.1,0-0.2,0c-0.5-0.1-1-0.2-1.5-0.4l-0.1,0l-0.1,0l-0.2-0.1l-0.2-0.1c-0.1,0-0.1-0.1-0.2-0.1l-0.2-0.1c0,0-0.1,0-0.1-0.1
			l-0.1-0.1c-0.1,0-0.1-0.1-0.2-0.1L182,105c-0.2-0.2-0.4-0.4-0.5-0.6c-0.1-0.2-0.3-0.5-0.3-0.8s-0.1-0.5-0.2-0.8
			c0-0.3-0.1-0.5-0.1-0.7c0-0.5,0-0.9-0.1-1.3c-0.1-0.4-0.2-0.7-0.5-1c-0.2-0.3-0.5-0.5-0.9-0.7c-0.2-0.1-0.4-0.2-0.5-0.2
			c-0.2-0.1-0.4-0.1-0.6-0.1c-0.4-0.1-0.8,0-1.2,0c-0.1,0-0.1,0-0.2,0l-0.1,0l-0.1,0c-0.1,0-0.2,0-0.3,0.1c-0.2,0.1-0.4,0.1-0.6,0.2
			c-0.4,0.2-0.7,0.4-1.1,0.6c-0.7,0.5-1.3,1.1-1.9,1.8c-0.6,0.7-1.1,1.4-1.6,2.1c-0.5,0.7-1,1.5-1.4,2.3c-0.4,0.8-0.8,1.6-1.2,2.4
			c-0.1,0.2-0.2,0.4-0.2,0.6c0,0.1-0.1,0.2-0.1,0.3l-0.1,0.3l-0.1,0.3c0,0.1,0,0.1,0,0.2l0,0.2l-0.1,0.3c0,0.1,0,0.1,0,0.2l0,0.2
			c-0.4,1.7-0.5,3.5-0.3,5.2c0.1,0.9,0.3,1.7,0.6,2.6l0.1,0.3l0.1,0.3l0.1,0.3l0.1,0.3l0.1,0.3l0.1,0.3c0,0.1,0.1,0.2,0.1,0.3
			c0,0.1,0.1,0.2,0.1,0.3c0.3,0.9,0.5,1.9,0.6,2.8c0.1,1,0.1,1.9-0.1,2.9c-0.2,1-0.5,1.9-0.9,2.8c-0.5,0.9-1.1,1.6-1.8,2.3
			c0,0-0.1,0.1-0.1,0.1l-0.1,0.1c-0.1,0.1-0.2,0.2-0.3,0.2c-0.2,0.1-0.4,0.3-0.6,0.4c-0.4,0.3-0.8,0.5-1.3,0.7
			C163.7,134,162.8,134.2,161.9,134.3z"/>
		<path class="st4" d="M176.3,109.6c0.2,3.5-1.6,6.6-4.4,7.7c-2.7,1.1-5.3-0.1-5.8-0.3c-0.9-0.7-1.3-1.4-1.5-1.9
			c-1-2.5,0.4-5.8,3.4-8.4c1.6-1.2,3.8-1.5,5.5-0.6C175.7,107.2,176.3,109.3,176.3,109.6z"/>
		<g class="st5">
			<path class="st6" d="M146.7,119.8c0,0,3.1,10.4,2.9,15.1l2,0.3C151.6,135.1,150.3,126.3,146.7,119.8z"/>
		</g>
		<g class="st5">
			<path class="st6" d="M164.8,111.5c0,0-10.4,3.2-19.4-3.4c0,0,8,5,20.3,1.2L164.8,111.5z"/>
		</g>
		<path class="st6" d="M134.7,145.6c5.6-0.6,9.6-6.7,8.8-13.7c-0.8-6.9-5.9-12-11.6-11.4c-5.6,0.6-9.6,6.7-8.8,13.7
			C123.9,141.1,129.1,146.2,134.7,145.6z"/>
		<path class="st6" d="M133.1,150.3c0.7-2.4-0.4-5-2.7-6.1c-2.9-1.4-6-1.2-7.9,0.4c-1.9,1.6-2,4.2-2.1,4.9c1,3.7,4.4,6,7.5,5.5
			c2.5-0.4,4.5-2.5,5.2-4.7C133.1,150.3,133.1,150.3,133.1,150.3z"/>
		<g class="st5">
			<path class="st6" d="M123,126c0,0,1,10.2,6.6,16.7c5.6,6.6,2.5,9,2.5,9s3.1-3.3-0.5-8.2C127.9,138.5,124.2,131.6,123,126z"/>
		</g>
		<g class="st5">
			<path class="st6" d="M174.8,108c-0.2-0.5-0.6-1.2-1.4-1.7c-2-1.3-4.9,0-6.5,1.5c-1.8,1.6-3,4.5-2.1,6.9c0.2,0.6,0.5,1.1,0.8,1.4
				c-0.1-0.6-0.6-3.8,1.5-6.4c0.5-0.6,1.9-2.4,4.3-2.6C173.1,106.9,174.3,107.7,174.8,108z"/>
		</g>
		<path class="st3" d="M112.3,134.7c0.4,1.1,0.9,2.2,1.5,3.3c0.3,0.5,0.6,1,0.9,1.5c0.1,0.1,0.2,0.2,0.3,0.4s0.2,0.2,0.3,0.4
			l0.3,0.4l0.3,0.4c1.5,1.9,3.2,3.6,5.2,4.9l0,0l0.4,0.3l-0.2,0.4c-0.1,0.2-0.1,0.4-0.2,0.7c-0.1,0.2-0.1,0.5-0.1,0.7
			c-0.1,0.5-0.1,0.9-0.1,1.4c0,0.5,0.1,0.9,0.2,1.4c0,0.1,0,0.1,0.1,0.2c0,0.1,0,0.1,0.1,0.2c0,0.1,0.1,0.2,0.1,0.3
			c0,0.1,0.1,0.2,0.1,0.3c0,0.1,0.1,0.1,0.1,0.1c0,0,0.1,0.1,0.1,0.1c0.5,0.8,1.2,1.4,2,1.9c0.8,0.4,1.7,0.7,2.7,0.8l0.2,0l0.1,0
			h0.1l0.2,0l0.2,0l0.1,0l0.1,0l0.2,0l0.2,0l0.1,0l0.1,0l0.2,0l0.2,0l0.1,0l0.1,0l0.2,0l0.2,0l0.1,0l0.1,0l0.2-0.1l0.2-0.1
			c0.9-0.3,1.6-0.9,2.2-1.6c0.2-0.2,0.3-0.4,0.4-0.6c0.1-0.2,0.3-0.4,0.4-0.6c0.2-0.4,0.4-0.8,0.5-1.3c0.3-0.9,0.3-1.9,0.2-2.8
			c-0.1-0.9-0.4-1.8-0.9-2.6c-0.1-0.2-0.3-0.4-0.4-0.6l-0.2-0.3c-0.1-0.1-0.2-0.2-0.2-0.3c-0.3-0.4-0.6-0.8-0.9-1.2
			c-1.2-1.7-2.3-3.4-3.2-5.3c-0.1-0.2-0.2-0.5-0.4-0.7l-0.3-0.7c-0.2-0.5-0.4-0.9-0.6-1.4c-0.4-0.9-0.8-1.9-1.1-2.9
			c-0.3-1-0.6-2-0.9-2.9c-0.3-1-0.5-2-0.6-3c0.4,1,0.7,1.9,1.1,2.8c0.4,0.9,0.8,1.9,1.2,2.8c0.4,0.9,0.8,1.8,1.3,2.7l0.2,0.3
			c0.1,0.1,0.1,0.2,0.2,0.3l0.3,0.7l0.3,0.7c0.1,0.2,0.2,0.4,0.4,0.7c1,1.8,2,3.5,3.2,5.1c0.3,0.4,0.6,0.8,0.9,1.2l0.5,0.6
			c0.2,0.2,0.3,0.4,0.5,0.7c0.6,0.9,0.9,2,1.1,3.1c0.1,1.1,0.1,2.2-0.2,3.3c-0.2,0.5-0.4,1-0.6,1.5c-0.1,0.2-0.3,0.5-0.4,0.7
			c-0.2,0.2-0.3,0.4-0.5,0.7c-0.4,0.4-0.8,0.8-1.2,1.1l-0.1,0.1l-0.1,0.1c-0.1,0-0.1,0.1-0.2,0.1c-0.1,0.1-0.2,0.1-0.4,0.2
			c-0.1,0.1-0.2,0.1-0.4,0.2c-0.1,0-0.1,0.1-0.2,0.1c-0.1,0-0.1,0.1-0.2,0.1l-0.2,0.1l-0.2,0.1l-0.1,0l-0.1,0l-0.2,0.1l-0.2,0
			l-0.1,0l-0.1,0l-0.2,0l-0.2,0l-0.1,0l-0.1,0l-0.2,0l-0.2,0l-0.1,0l-0.1,0l-0.2,0h-0.2h-0.1l-0.1,0l-0.2,0
			c-1.1-0.1-2.2-0.4-3.2-0.9c-1-0.5-1.8-1.3-2.4-2.3c0-0.1-0.1-0.1-0.1-0.2c0-0.1-0.1-0.1-0.1-0.2c-0.1-0.1-0.1-0.2-0.2-0.4
			c-0.1-0.1-0.1-0.3-0.2-0.4c0-0.1,0-0.1-0.1-0.2c0-0.1,0-0.1-0.1-0.2c-0.2-0.5-0.2-1.1-0.3-1.6c0-0.6,0-1.1,0.1-1.6
			c0-0.3,0.1-0.5,0.2-0.8c0.1-0.3,0.1-0.5,0.2-0.8l0.2,0.7h0c-2.1-1.4-3.9-3.2-5.5-5.2l-0.3-0.4l-0.3-0.4c-0.1-0.1-0.2-0.3-0.3-0.4
			c-0.1-0.1-0.2-0.3-0.3-0.4c-0.4-0.5-0.7-1.1-1-1.6c-0.6-1.1-1.2-2.2-1.6-3.4L112.3,134.7z"/>
		<path class="st3" d="M101.2,139.8c0.6,0.7,1,1.5,1.4,2.4c0.2,0.4,0.3,0.9,0.4,1.3c0,0.1,0.1,0.2,0.1,0.3l0,0.2c0,0.1,0,0.1,0,0.2
			l0.1,0.3c0,0.1,0,0.2,0,0.3l0,0.2l0,0.1l0,0.1l0,0.3c0,0.1,0,0.1,0,0.2l0,0.2l0,0.3c0,0.5-0.1,0.9-0.1,1.4
			c-0.1,0.4-0.2,0.9-0.3,1.3c0,0.1-0.1,0.2-0.1,0.3c0,0.1-0.1,0.2-0.1,0.3c-0.1,0.2-0.2,0.4-0.3,0.6c0.1-0.9,0.2-1.7,0.2-2.6
			c0-0.8-0.1-1.7-0.2-2.5c0-0.1,0-0.2-0.1-0.3l-0.1-0.3c0,0,0-0.1,0-0.1l0-0.1c0-0.1-0.1-0.2-0.1-0.3c-0.1-0.2-0.1-0.4-0.2-0.6
			c0-0.1-0.1-0.2-0.1-0.3l-0.1-0.3c-0.2-0.4-0.4-0.7-0.6-1.1c-0.1-0.1-0.1-0.2-0.2-0.3c-0.1-0.1-0.1-0.2-0.2-0.3
			c-0.1-0.2-0.2-0.3-0.4-0.5L101.2,139.8z"/>
		<path class="st3" d="M119.8,147.4c0-0.1,0.1-0.2,0.1-0.3c0-0.1,0.1-0.2,0.1-0.3c0.1-0.2,0.2-0.4,0.3-0.6c0.1-0.2,0.2-0.4,0.4-0.6
			c0.1-0.2,0.3-0.3,0.5-0.5c0.1-0.1,0.2-0.1,0.3-0.2c0,0,0.1-0.1,0.1-0.1l0.1-0.1c0.2-0.1,0.4-0.2,0.6-0.3c0.2-0.1,0.4-0.2,0.6-0.2
			c0.2,0,0.4-0.1,0.6-0.1l-0.5,0.4c-0.2,0.1-0.3,0.3-0.4,0.4c-0.1,0.1-0.3,0.3-0.4,0.4l-0.1,0.1c0,0-0.1,0.1-0.1,0.1
			c-0.1,0.1-0.1,0.1-0.2,0.2c-0.1,0.1-0.2,0.3-0.3,0.5c-0.1,0.2-0.2,0.3-0.2,0.5c-0.1,0.3-0.3,0.7-0.4,1L119.8,147.4z"/>
		<path class="st3" d="M148.8,125.6c-0.2-0.5-0.4-1-0.6-1.5c-0.2-0.5-0.4-1-0.6-1.5l-0.2-0.4c-0.1-0.1-0.1-0.3-0.2-0.4
			c-0.1-0.3-0.2-0.5-0.3-0.8c-0.1-0.3-0.2-0.5-0.3-0.8c-0.1-0.3-0.2-0.5-0.3-0.8c0.2,0.2,0.4,0.4,0.6,0.6c0.2,0.2,0.4,0.4,0.5,0.7
			c0.2,0.2,0.3,0.5,0.5,0.7c0.1,0.1,0.2,0.2,0.2,0.4c0.1,0.1,0.1,0.2,0.2,0.4c0.3,0.5,0.5,1,0.8,1.5c0.2,0.5,0.5,1.1,0.6,1.6
			L148.8,125.6z"/>
		<path class="st3" d="M153.2,136.3c-0.5-0.1-1.1-0.3-1.6-0.4c-0.5-0.1-1.1-0.3-1.6-0.4l-0.4-0.1c-0.1,0-0.3-0.1-0.4-0.1
			c-0.3-0.1-0.5-0.1-0.8-0.2c-0.3-0.1-0.5-0.1-0.8-0.2c-0.3-0.1-0.5-0.2-0.8-0.3c0.3-0.1,0.6-0.1,0.9-0.1c0.3,0,0.6,0,0.9-0.1
			c0.3,0,0.6,0,0.9,0c0.1,0,0.3,0,0.4,0c0.1,0,0.3,0,0.4,0c0.6,0.1,1.1,0.1,1.7,0.2c0.6,0.1,1.1,0.2,1.7,0.4L153.2,136.3z"/>
		<path class="st3" d="M163.8,139c-0.1,0.2-0.2,0.4-0.3,0.5c-0.1,0.1-0.1,0.2-0.1,0.3c-0.1,0.1-0.1,0.2-0.1,0.3
			c-0.2,0.4-0.4,0.7-0.5,1.1l-0.1,0.3c0,0.1-0.1,0.2-0.1,0.3c-0.1,0.2-0.1,0.4-0.2,0.6c0,0.1,0,0.2-0.1,0.3l0,0.2c0,0.1,0,0.1,0,0.2
			l-0.1,0.3c0,0.1,0,0.2,0,0.3c-0.1,0.8-0.1,1.7-0.1,2.5c0.1,0.8,0.2,1.7,0.4,2.6c-0.1-0.2-0.2-0.4-0.4-0.6
			c-0.1-0.1-0.1-0.2-0.2-0.3c0-0.1-0.1-0.2-0.1-0.3c-0.2-0.4-0.3-0.8-0.4-1.3c-0.1-0.4-0.2-0.9-0.2-1.3l0-0.3l0-0.2
			c0-0.1,0-0.1,0-0.2l0-0.3v-0.1l0-0.1l0-0.2c0-0.1,0-0.2,0-0.3l0-0.3c0-0.1,0-0.1,0-0.2l0-0.2c0-0.1,0-0.2,0.1-0.3
			c0.1-0.5,0.2-0.9,0.3-1.3c0.3-0.9,0.7-1.7,1.2-2.5L163.8,139z"/>
		<path class="st3" d="M175.6,109.4c-0.1-0.5-0.3-0.9-0.6-1.3c-0.1-0.2-0.3-0.4-0.5-0.6c-0.1-0.1-0.2-0.2-0.3-0.2
			c-0.1-0.1-0.2-0.2-0.3-0.2c-0.4-0.3-0.8-0.5-1.3-0.6c-0.5-0.1-1-0.1-1.5-0.1c-0.5,0-1,0.2-1.5,0.3c-0.2,0.1-0.5,0.2-0.7,0.3
			c-0.1,0-0.1,0.1-0.2,0.1l-0.2,0.1c-0.1,0-0.1,0.1-0.2,0.1l-0.2,0.1c-0.9,0.5-1.6,1.3-2.1,2.2c-0.3,0.4-0.5,0.9-0.7,1.4
			c-0.2,0.5-0.3,1-0.5,1.5c-0.1,0.5-0.2,1-0.1,1.5c0,0.1,0,0.2,0,0.4c0,0.1,0,0.1,0,0.2l0,0.2c0,0,0,0.1,0,0.1l0,0.1
			c0,0.1,0,0.1,0,0.2c0,0.1,0.1,0.2,0.1,0.3l0,0.1l0,0l0,0l0.1,0.2c0,0.1,0.1,0.1,0.1,0.1l0,0.1l0,0.1c0.1,0.2,0.3,0.4,0.5,0.5
			c0.3,0.3,0.7,0.6,1.2,0.8c0.5,0.2,1,0.3,1.5,0.3c0.5,0,1.1-0.1,1.6-0.3c-0.2,0.2-0.4,0.4-0.7,0.5c-0.3,0.1-0.5,0.2-0.8,0.3
			c-0.3,0.1-0.6,0.1-0.9,0.1c-0.1,0-0.2,0-0.2,0c-0.1,0-0.2,0-0.2,0c0,0-0.1,0-0.1,0l-0.1,0c-0.1,0-0.2,0-0.2,0
			c-0.6-0.1-1.2-0.4-1.7-0.8c-0.1-0.1-0.1-0.1-0.2-0.2c-0.1-0.1-0.1-0.1-0.2-0.2c-0.1-0.1-0.2-0.2-0.3-0.4l-0.1-0.1l-0.1-0.1
			c0-0.1-0.1-0.1-0.1-0.2l-0.1-0.2l0-0.1l0-0.1l0-0.1c-0.3-0.6-0.3-1.2-0.4-1.8c0-0.1,0-0.2,0-0.2c0-0.1,0-0.2,0-0.2l0-0.2l0-0.1
			l0-0.1l0-0.2c0-0.1,0-0.1,0-0.2c0-0.1,0-0.1,0-0.2l0-0.2c0.2-1.2,0.7-2.3,1.3-3.3c0.3-0.5,0.7-1,1.1-1.4c0.4-0.4,0.9-0.8,1.4-1.1
			l0.2-0.1c0.1,0,0.1-0.1,0.2-0.1l0.2-0.1c0.1,0,0.1-0.1,0.2-0.1c0.3-0.1,0.5-0.2,0.8-0.3c0.6-0.2,1.2-0.3,1.8-0.4
			c0.6-0.1,1.2,0,1.8,0.1c0.6,0.1,1.2,0.4,1.7,0.8c0.1,0.1,0.3,0.2,0.4,0.3c0.1,0.1,0.2,0.2,0.3,0.3c0.2,0.2,0.4,0.5,0.6,0.7
			c0.3,0.5,0.6,1.1,0.8,1.7L175.6,109.4z"/>
		<path class="st3" d="M90.8,140.5c0.3-0.3,0.7-0.4,1.1-0.6c0.4-0.1,0.8-0.2,1.2-0.2c0.4,0,0.8,0.1,1.2,0.2c0.2,0.1,0.4,0.2,0.5,0.3
			c0.2,0.1,0.3,0.2,0.4,0.4c-0.4,0-0.7,0-1.1,0c-0.2,0-0.3,0-0.5,0c0,0-0.1,0-0.1,0c0,0-0.1,0-0.1,0l-0.1,0c0,0-0.1,0-0.1,0
			c-0.3,0.1-0.6,0.2-0.9,0.3c-0.3,0.1-0.5,0.3-0.8,0.4L90.8,140.5z"/>
		<path class="st3" d="M91,147.7c0.3-0.2,0.7-0.4,1.1-0.6c0.4-0.1,0.8-0.2,1.2-0.2c0.4,0,0.8,0.1,1.2,0.2c0.2,0.1,0.4,0.2,0.5,0.3
			c0.2,0.1,0.3,0.2,0.4,0.4c-0.4,0-0.7,0-1.1,0c-0.2,0-0.3,0-0.5,0c0,0-0.1,0-0.1,0c0,0-0.1,0-0.1,0l-0.1,0c0,0-0.1,0-0.1,0
			c-0.3,0.1-0.6,0.2-0.9,0.3c-0.3,0.1-0.5,0.3-0.8,0.4L91,147.7z"/>
		<path class="st3" d="M173.2,140.3c-0.3-0.2-0.5-0.3-0.8-0.5c-0.3-0.1-0.6-0.3-0.9-0.3c0,0-0.1,0-0.1,0l-0.1,0c0,0-0.1,0-0.1,0
			c0,0-0.1,0-0.1,0c-0.2,0-0.3,0-0.5-0.1c-0.3,0-0.7-0.1-1.1-0.1c0.1-0.1,0.3-0.3,0.5-0.4c0.2-0.1,0.3-0.2,0.5-0.2
			c0.4-0.1,0.8-0.2,1.2-0.1c0.4,0,0.8,0.1,1.2,0.2c0.4,0.1,0.7,0.3,1.1,0.6L173.2,140.3z"/>
		<path class="st3" d="M172.6,147.4c-0.3-0.2-0.5-0.3-0.8-0.5c-0.3-0.1-0.6-0.3-0.9-0.3c0,0-0.1,0-0.1,0l-0.1,0c0,0-0.1,0-0.1,0
			c0,0-0.1,0-0.1,0c-0.2,0-0.3,0-0.5-0.1c-0.3,0-0.7-0.1-1.1-0.1c0.1-0.1,0.3-0.3,0.5-0.4c0.2-0.1,0.3-0.2,0.5-0.2
			c0.4-0.1,0.8-0.2,1.2-0.1c0.4,0,0.8,0.1,1.2,0.2c0.4,0.1,0.7,0.3,1.1,0.6L172.6,147.4z"/>
		<path class="st3" d="M170,105.3c0.4,0.1,0.8,0.2,1.1,0.4c0.4,0.2,0.7,0.5,0.9,0.8s0.5,0.6,0.6,1c0.1,0.2,0.1,0.4,0.2,0.6
			c0,0.2,0,0.4,0,0.6c-0.3-0.3-0.5-0.5-0.7-0.8c-0.1-0.1-0.2-0.2-0.4-0.3c0,0-0.1-0.1-0.1-0.1c0,0-0.1-0.1-0.1-0.1l-0.1-0.1
			c0,0-0.1,0-0.1-0.1c-0.3-0.2-0.5-0.3-0.8-0.5c-0.3-0.1-0.6-0.2-0.9-0.3L170,105.3z"/>
		<path class="st3" d="M164.9,110.2c0.4,0.1,0.8,0.2,1.1,0.4c0.4,0.2,0.7,0.5,0.9,0.8c0.3,0.3,0.5,0.6,0.6,1
			c0.1,0.2,0.1,0.4,0.2,0.6c0,0.2,0,0.4,0,0.6c-0.3-0.3-0.5-0.5-0.7-0.8c-0.1-0.1-0.2-0.2-0.4-0.3c0,0-0.1-0.1-0.1-0.1
			c0,0-0.1-0.1-0.1-0.1l-0.1-0.1c0,0-0.1,0-0.1-0.1c-0.3-0.2-0.5-0.3-0.8-0.5c-0.3-0.1-0.6-0.2-0.9-0.3L164.9,110.2z"/>
		<path class="st3" d="M129.2,154.2c0.2-0.2,0.4-0.5,0.5-0.8c0.2-0.3,0.3-0.5,0.4-0.8c0,0,0-0.1,0-0.1l0-0.1c0,0,0-0.1,0-0.1
			c0,0,0-0.1,0-0.1c0-0.2,0.1-0.3,0.1-0.5c0.1-0.3,0.1-0.7,0.1-1.1c0.1,0.1,0.2,0.3,0.3,0.5c0.1,0.2,0.2,0.4,0.2,0.5
			c0.1,0.4,0.1,0.8,0.1,1.2c0,0.4-0.1,0.8-0.3,1.2c-0.2,0.4-0.4,0.7-0.7,1L129.2,154.2z"/>
		<path class="st3" d="M122.2,153.3c0.2-0.2,0.4-0.5,0.5-0.8c0.2-0.3,0.3-0.5,0.4-0.8c0,0,0-0.1,0-0.1l0-0.1c0,0,0-0.1,0-0.1
			c0,0,0-0.1,0-0.1c0-0.2,0.1-0.3,0.1-0.5c0.1-0.3,0.1-0.7,0.1-1.1c0.1,0.1,0.2,0.3,0.3,0.5c0.1,0.2,0.2,0.4,0.2,0.5
			c0.1,0.4,0.1,0.8,0.1,1.2c0,0.4-0.1,0.8-0.3,1.2c-0.2,0.4-0.4,0.7-0.7,1L122.2,153.3z"/>
		<path class="st7" d="M189.2,80.6l-0.6,3.9c-0.1,0.8,0.6,1.5,1.4,1.3l2.9-0.7c0.8-0.2,1.1-1.1,0.6-1.8l-2.3-3.1
			C190.6,79.3,189.3,79.6,189.2,80.6z"/>
		<path class="st3" d="M189.7,86.3c-0.4,0-0.8-0.2-1.2-0.4c-0.4-0.4-0.6-1-0.5-1.5l0.6-3.9c0.1-0.7,0.6-1.3,1.3-1.4
			c0.7-0.2,1.4,0.1,1.8,0.7l2.3,3.1c0.3,0.5,0.4,1.1,0.2,1.6c-0.2,0.5-0.6,0.9-1.2,1.1l-2.9,0.7C190,86.3,189.8,86.3,189.7,86.3z
			 M189.7,80.7l-0.6,3.9c0,0.2,0,0.4,0.2,0.5s0.3,0.2,0.5,0.1l2.9-0.7c0.2,0,0.3-0.2,0.4-0.3c0.1-0.2,0-0.3-0.1-0.5l-2.3-3.1
			c-0.2-0.3-0.5-0.2-0.6-0.2C190.1,80.3,189.8,80.3,189.7,80.7z"/>
		<path class="st7" d="M182.6,45.2c0,0-8.5-5.5-17.4,1.1c-1.9,1.4-3.4,3.2-4.4,5.2c-1.3,2.6-2.6,6.7-1.4,10.9
			c0.1,0.7,0.4,1.6,0.9,2.6c0.9,2.1,2.4,4,5.9,6.8c0,0,0.1,0.1,0.1,0.1c4.5,3.6,9.6,6.4,15,8.2c2.6,0.9,5.5,1.7,7.6,1.7
			c0.1,0,0.2,0,0.3,0c0.6,0,3.7-0.2,9.1-5.7c6.1-6.3,9.6-12.5,9.6-12.5c0.7-1.2,3.4-5.7,2.5-11.7c-0.7-4.8-3.4-7.9-4.4-9
			c-0.8-0.8-2.2-2-4.1-2.9c-1.4-0.7-4.7-2.1-8.9-1.6c-1.4,0.2-4.3,0.6-7.1,2.8C184.1,42.6,183.1,44.2,182.6,45.2z"/>
		<path class="st3" d="M189.3,82.4c0,0-0.1,0-0.1,0c-0.1,0-0.2,0-0.3,0c-1.8,0-4.5-0.6-7.8-1.7c-5.6-1.9-10.7-4.7-15.2-8.3l-0.1-0.1
			c-3.3-2.6-5-4.6-6-7c-0.4-0.9-0.7-1.8-0.9-2.7c-1.3-4.4,0.1-8.5,1.5-11.3c1.1-2.1,2.7-4,4.6-5.5c2.1-1.5,4.4-2.6,6.7-3
			c1.9-0.4,3.8-0.4,5.8-0.1c2.4,0.4,4.2,1.2,5,1.7c0.8-1.4,1.9-2.6,3.1-3.6c2.9-2.3,6-2.7,7.3-2.9c4-0.5,7.3,0.6,9.3,1.6
			c1.6,0.8,3,1.8,4.3,3.1l0,0c0.9,1,1.7,2.1,2.4,3.2c1.1,1.9,1.8,3.9,2.2,6.1c0.4,2.6,0.2,5.3-0.6,7.9c-0.5,1.5-1.1,2.9-1.9,4.1
			c-0.2,0.3-3.8,6.5-9.7,12.6C193.5,81.9,190.3,82.4,189.3,82.4z M174.6,43.6c-3.2,0-6.2,1-9.1,3.1c-1.8,1.3-3.3,3-4.2,5
			c-1.3,2.5-2.5,6.4-1.4,10.4l0,0c0.2,0.9,0.5,1.7,0.8,2.5c0.8,1.8,2.1,3.7,5.7,6.5l0.1,0.1c4.4,3.5,9.4,6.3,14.9,8.1
			c3.2,1.1,5.8,1.7,7.4,1.7c0.1,0,0.2,0,0.4,0c0.2,0,1.1,0,2.5-0.7c1.9-0.9,3.9-2.5,6.1-4.8c5.9-6.1,9.5-12.3,9.5-12.4l0,0
			c1-1.6,3.2-5.8,2.4-11.3c-0.7-4.3-2.9-7.3-4.3-8.7c-1.2-1.2-2.5-2.1-4-2.8c-1.9-0.9-4.9-2-8.6-1.5c-1.2,0.2-4.1,0.5-6.8,2.6
			c-1.3,1-2.3,2.3-3.1,3.8l-0.3,0.6l-0.5-0.4c0,0-2.1-1.3-5.2-1.8C176.2,43.7,175.4,43.6,174.6,43.6z"/>
		<g class="st5">
			<path class="st6" d="M209.9,50.7c0,0-0.2-0.5-0.6-1.4c0,0-0.4-0.9-0.8-1.7c-1.7-3-4.5-4.9-4.5-4.9c-0.3-0.2-1.3-0.8-2.6-1.4
				c-1.4-0.6-5-2-9.2-1.2c-6.5,1.2-9.8,6.7-10.3,7.6c0.1-0.9,0.5-2.1,1.2-3.4c2.2-3.9,6.1-5.2,7-5.5c4.9-1.6,11.4,0.4,15.5,4.2
				c1.7,1.6,2.5,3,2.8,3.4C209.6,48.5,209.9,50.7,209.9,50.7z"/>
		</g>
		<g class="st5">
			<path class="st6" d="M159,61c0.4-7.3,4.8-13.5,10.9-15.6c5.8-1.9,10.9,0.6,12.1,1.2l0.4-1.4c-0.4-0.2-8.2-4.3-15.8,0.1
				C161.3,48.4,158.3,54.6,159,61z"/>
		</g>
		<path class="st3" d="M189.3,82.4c0,0-0.1,0-0.1,0c-0.1,0-0.2,0-0.3,0c-1.8,0-4.5-0.6-7.8-1.7c-5.6-1.9-10.7-4.7-15.2-8.3l-0.1-0.1
			c-3.3-2.6-5-4.6-6-7c-0.4-0.9-0.7-1.8-0.9-2.7c-1.3-4.4,0.1-8.5,1.5-11.3c1.1-2.1,2.7-4,4.6-5.5c2.1-1.5,4.4-2.6,6.7-3
			c1.9-0.4,3.8-0.4,5.8-0.1c2.4,0.4,4.2,1.2,5,1.7c0.8-1.4,1.9-2.6,3.1-3.6c2.9-2.3,6-2.7,7.3-2.9c4-0.5,7.3,0.6,9.3,1.6
			c1.6,0.8,3,1.8,4.3,3.1l0,0c0.9,1,1.7,2.1,2.4,3.2c1.1,1.9,1.8,3.9,2.2,6.1c0.4,2.6,0.2,5.3-0.6,7.9c-0.5,1.5-1.1,2.9-1.9,4.1
			c-0.2,0.3-3.8,6.5-9.7,12.6C193.5,81.9,190.3,82.4,189.3,82.4z M174.6,43.6c-3.2,0-6.2,1-9.1,3.1c-1.8,1.3-3.3,3-4.2,5
			c-1.3,2.5-2.5,6.4-1.4,10.4l0,0c0.2,0.9,0.5,1.7,0.8,2.5c0.8,1.8,2.1,3.7,5.7,6.5l0.1,0.1c4.4,3.5,9.4,6.3,14.9,8.1
			c3.2,1.1,5.8,1.7,7.4,1.7c0.1,0,0.2,0,0.4,0c0.2,0,1.1,0,2.5-0.7c1.9-0.9,3.9-2.5,6.1-4.8c5.9-6.1,9.5-12.3,9.5-12.4l0,0
			c1-1.6,3.2-5.8,2.4-11.3c-0.7-4.3-2.9-7.3-4.3-8.7c-1.2-1.2-2.5-2.1-4-2.8c-1.9-0.9-4.9-2-8.6-1.5c-1.2,0.2-4.1,0.5-6.8,2.6
			c-1.3,1-2.3,2.3-3.1,3.8l-0.3,0.6l-0.5-0.4c0,0-2.1-1.3-5.2-1.8C176.2,43.7,175.4,43.6,174.6,43.6z"/>
		<g class="st8">
			<path class="st3" d="M161,66.6c0,0,30.5,28.5,49.5-11.4c-0.1,1.3-0.4,3.2-1.1,5.4c-0.4,1.1-1.2,3.1-4.4,7.5c-3,4.1-5,6.8-8.7,9.8
				c-2.2,1.8-4.1,3-5.5,3.8c-5.2-0.4-14.9-2-23.7-9C164.6,70.6,162.6,68.5,161,66.6z"/>
		</g>
		<path class="st3" d="M184.7,42.8c-0.2,0.3-0.3,0.5-0.5,0.8c-0.2,0.3-0.3,0.5-0.5,0.8c-0.3,0.6-0.6,1.1-0.9,1.7
			c-0.3,0.6-0.5,1.2-0.7,1.8c-0.1,0.3-0.2,0.6-0.3,1c-0.1,0.3-0.2,0.7-0.2,1c0-0.3-0.1-0.7-0.1-1c0-0.3,0-0.7,0-1
			c0.1-0.7,0.2-1.4,0.4-2c0-0.1,0.1-0.2,0.1-0.2c0-0.1,0.1-0.2,0.1-0.2c0-0.1,0.1-0.2,0.1-0.2l0.1-0.2c0.1-0.3,0.3-0.6,0.5-0.9
			c0.2-0.3,0.4-0.6,0.6-0.9c0.2-0.3,0.4-0.6,0.7-0.8L184.7,42.8z"/>
		<g class="st8">
			<path class="st3" d="M171.8,137c0,0,2,15.7-7.6,15.3c0,0-15-2.2-27.4-0.6c-1.1,0.1-2.1-0.7-2.2-1.8c-0.1-1.4-0.5-3.3-1.5-5.3
				c0,0,2.1,7.1-3.6,10c0,0,0,0,0,0c-1,0.5-3.3,1.3-5.7,0.1c-3.4-1.6-3.6-5.6-3.6-5.9c0-1,0.2-1.8,0.3-2.4c-4.5-3.5-8.7-9.8-8.7-9.8
				c0.4,2.6,1.8,5.2,3.1,7.2c0.5,0.9,1.1,1.6,1.6,2.3c0.4,0.6,0.6,1.3,0.5,2c-0.1,0.4-0.2,0.9-0.2,1.4c0,0.1,0,0.2,0,0.4
				c0,0.9-0.7,1.7-1.7,1.7c-2.2,0.1-6.6,0.6-13.3,2.3c-10.4,2.5-9.8-13.8-9.8-13.8c-3.2,3.6,0.9,13.8,0.9,13.8c0,0,1.2,2.9,3.3,4.1
				c1.2,0.7,2.5,0.6,4.1,0.4c2-0.2,2.6-0.7,4.8-1.1c1.1-0.2,2.6-0.4,4.7-0.4c5.6,0,10.1,0.1,13.4,0.2c2.5,0.1,5.1,0.2,6.5-0.2
				c0,0,0,0,0,0c3,0.1,6.2,0.1,9.6-0.1c3-0.1,5.8-0.3,8.5-0.5c1.8-0.2,3.9-0.4,6.1-0.4c1.2,0,2.4,0,3.5,0.1c3.1,0.4,6.1,0.7,9.2,1.1
				c0,0,4.2,0.2,5.6-6.1C173.7,144.5,174,142.1,171.8,137z"/>
		</g>
		<g class="st8">
			<path class="st3" d="M132.8,149c-0.2,2.5-1.5,4.4-3.2,5.6c-0.8,0.3-2.4,0.7-4.5,0.4c-1.6-0.3-2.8-1-3.4-1.4
				c-1.5-1.8-2.2-4.5-1.2-7.1c-2-1.5-5.7-4.7-8.2-10.1c-2.8-6-2.8-11.4-2.6-13.9c2,8.7,5.3,14.1,8.1,17.3c1.6,1.9,3.4,3.2,5.1,4.3
				c-1.3,3,0.1,6.4,2.9,7.6C128.3,152.7,131.4,151.6,132.8,149z"/>
		</g>
		<g class="st8">
			<path class="st3" d="M174.8,108c0.1,0.7,0.3,1.8-0.1,3.2c-0.9,3.3-3.8,4.6-4,4.7c-2.4,1-4.6,0.3-5.1,0.1c0.5,0.6,1,1.3,1.4,1.9
				c0,0-7.8,6.2-20.4,1.9l3.1,5.2c3.2,0.6,9.1,1.2,15.3-1.7c3.9-1.8,11.7-6.7,11.1-12.3C176,109.8,175.4,108.7,174.8,108z"/>
		</g>
		<path d="M153.5,88.9c0,0,0.1-0.1,0.1-0.1C153.6,88.8,153.5,88.9,153.5,88.9z"/>
		<path class="st3" d="M153.9,89.4l-0.8-0.9c0.1-0.1,0.1-0.1,0.2-0.1l0.8,0.9C154,89.3,153.9,89.3,153.9,89.4z"/>
		<path d="M94.9,111.7c-0.1,0-0.2,0-0.2,0C94.8,111.7,94.8,111.7,94.9,111.7z"/>
		<path d="M158,97.5c0.1,0,0.1-0.1,0.2-0.1C158.1,97.4,158.1,97.4,158,97.5z"/>
		<g class="st8">
			<path d="M113.8,117.3C113.8,117.3,113.8,117.3,113.8,117.3L113.8,117.3C113.8,117.3,113.8,117.3,113.8,117.3L113.8,117.3z"/>
			<path class="st3" d="M113.8,117.3L113.8,117.3L113.8,117.3L113.8,117.3L113.8,117.3L113.8,117.3L113.8,117.3L113.8,117.3
				L113.8,117.3z"/>
		</g>
		<path class="st2" d="M113.6,62.9c-0.9,0.4-1.8,0.8-2.6,1.2c0,0,0,0,0,0c-0.7,0.4-1.4,0.8-2.1,1.2c-0.8,0.5-1.6,1.1-2.4,1.7
			c-0.4,0.3-0.8,0.6-1.2,0.9c-0.1,0.1-0.2,0.2-0.3,0.3c-0.3,0.2-0.5,0.5-0.8,0.7c0,0,0,0,0,0c-1.6-0.9-3.6-2.1-5.7-3.7c0,0,0,0,0,0
			c-2.6-2-5.3-4.6-7.7-8c-0.2-0.3-0.4-0.6-0.6-0.8c-3.1-4.5-4.7-9-5.5-12.5c-0.5-2.2-0.8-4.1-0.9-5.4c0-0.2-0.1-0.9-0.1-1.7
			c0.1-2,0.6-5.3,3.1-8.2c0.3-0.3,0.6-0.6,0.9-0.9c3.5-3.2,8.5-4,12.8-2.1c1,0.5,2.1,1.1,3.1,2c3.9,3.5,4,8.3,3.9,10
			c-0.1,1.1-0.1,2.1,0,3.2c0.1,1.7,0.2,3.7,0.6,5.9c0.4,2.3,1,6.3,3.1,11.1C111.6,59.2,112.5,61,113.6,62.9z"/>
		<path class="st3" d="M104.2,69.6l-0.4-0.2c-2-1.1-4-2.3-5.8-3.7c0,0,0,0,0,0c-3-2.3-5.6-5.1-7.8-8.2c-0.2-0.3-0.4-0.6-0.6-0.8
			C87,52.8,85.1,48.6,84,44c-0.4-1.8-0.8-3.6-0.9-5.5C83,38,83,37.4,83,36.8c0.1-2.3,0.7-5.6,3.3-8.5c0.3-0.3,0.6-0.7,0.9-1
			c1.8-1.6,4-2.7,6.4-3.1c2.4-0.4,4.8-0.1,7,0.9c1.2,0.5,2.3,1.2,3.2,2.1c4,3.6,4.2,8.5,4.1,10.5c-0.1,1-0.1,2.1,0,3.2
			c0.1,1.9,0.3,3.9,0.6,5.8c0.3,2.1,1,6.1,3,10.9c0.7,1.7,1.6,3.4,2.5,4.9l0.4,0.6l-0.7,0.3c-0.9,0.4-1.8,0.8-2.6,1.2l0,0
			c-0.7,0.4-1.4,0.8-2.1,1.2c-0.8,0.5-1.6,1.1-2.3,1.6c-0.4,0.3-0.8,0.6-1.1,0.9c-0.1,0.1-0.2,0.2-0.3,0.2c-0.3,0.2-0.5,0.5-0.8,0.7
			l0,0L104.2,69.6z M98.8,64.8c1.6,1.3,3.4,2.4,5.2,3.4c0.2-0.2,0.3-0.3,0.5-0.5c0.1-0.1,0.2-0.2,0.3-0.3c0.4-0.3,0.8-0.7,1.2-1
			c0.8-0.6,1.6-1.2,2.4-1.7c0.7-0.4,1.4-0.9,2.2-1.3c0,0,0,0,0,0c0.7-0.3,1.4-0.7,2-1c-0.8-1.5-1.6-3-2.3-4.5c-2.1-5-2.8-9-3.1-11.2
			c-0.3-2-0.5-4-0.6-5.9c0-1.1,0-2.2,0-3.3c0.1-1.8-0.1-6.2-3.7-9.5c-0.9-0.8-1.9-1.4-2.9-1.9c-4.1-1.8-8.8-1.1-12.1,2
			c-0.3,0.3-0.6,0.6-0.8,0.9c-2.3,2.7-2.9,5.7-3,7.8c0,0.6,0,1.1,0.1,1.6c0.2,1.8,0.5,3.5,0.9,5.3c1.1,4.4,2.9,8.6,5.5,12.3
			c0.2,0.3,0.4,0.5,0.6,0.8C93.3,59.8,95.9,62.5,98.8,64.8C98.8,64.8,98.8,64.8,98.8,64.8z M98.8,64.8L98.8,64.8
			C98.8,64.8,98.8,64.8,98.8,64.8z"/>
		<g class="st5">
			<path class="st6" d="M84.4,34.7c1.5-5.7,7.2-9.4,12.9-8.4c5.5,0.9,9.6,5.9,9.5,11.6c0.9-6.1-2.8-11.8-8-13.2
				C92.7,23,85.6,27.4,84.4,34.7z"/>
		</g>
		<path class="st3" d="M104.2,69.6l-0.4-0.2c-2-1.1-4-2.3-5.8-3.7c0,0,0,0,0,0c-3-2.3-5.6-5.1-7.8-8.2c-0.2-0.3-0.4-0.6-0.6-0.8
			C87,52.8,85.1,48.6,84,44c-0.4-1.8-0.8-3.6-0.9-5.5C83,38,83,37.4,83,36.8c0.1-2.3,0.7-5.6,3.3-8.5c0.3-0.3,0.6-0.7,0.9-1
			c1.8-1.6,4-2.7,6.4-3.1c2.4-0.4,4.8-0.1,7,0.9c1.2,0.5,2.3,1.2,3.2,2.1c4,3.6,4.2,8.5,4.1,10.5c-0.1,1-0.1,2.1,0,3.2
			c0.1,1.9,0.3,3.9,0.6,5.8c0.3,2.1,1,6.1,3,10.9c0.7,1.7,1.6,3.4,2.5,4.9l0.4,0.6l-0.7,0.3c-0.9,0.4-1.8,0.8-2.6,1.2l0,0
			c-0.7,0.4-1.4,0.8-2.1,1.2c-0.8,0.5-1.6,1.1-2.3,1.6c-0.4,0.3-0.8,0.6-1.1,0.9c-0.1,0.1-0.2,0.2-0.3,0.2c-0.3,0.2-0.5,0.5-0.8,0.7
			l0,0L104.2,69.6z M98.8,64.8c1.6,1.3,3.4,2.4,5.2,3.4c0.2-0.2,0.3-0.3,0.5-0.5c0.1-0.1,0.2-0.2,0.3-0.3c0.4-0.3,0.8-0.7,1.2-1
			c0.8-0.6,1.6-1.2,2.4-1.7c0.7-0.4,1.4-0.9,2.2-1.3c0,0,0,0,0,0c0.7-0.3,1.4-0.7,2-1c-0.8-1.5-1.6-3-2.3-4.5c-2.1-5-2.8-9-3.1-11.2
			c-0.3-2-0.5-4-0.6-5.9c0-1.1,0-2.2,0-3.3c0.1-1.8-0.1-6.2-3.7-9.5c-0.9-0.8-1.9-1.4-2.9-1.9c-4.1-1.8-8.8-1.1-12.1,2
			c-0.3,0.3-0.6,0.6-0.8,0.9c-2.3,2.7-2.9,5.7-3,7.8c0,0.6,0,1.1,0.1,1.6c0.2,1.8,0.5,3.5,0.9,5.3c1.1,4.4,2.9,8.6,5.5,12.3
			c0.2,0.3,0.4,0.5,0.6,0.8C93.3,59.8,95.9,62.5,98.8,64.8C98.8,64.8,98.8,64.8,98.8,64.8z M98.8,64.8L98.8,64.8
			C98.8,64.8,98.8,64.8,98.8,64.8z"/>
		<path class="st9" d="M110.9,64.1C110.9,64.1,110.9,64.1,110.9,64.1c-0.8,0.4-1.5,0.8-2.2,1.2c-0.8,0.5-1.6,1.1-2.4,1.7
			c-3.8-2.3-8.3-5.7-12.1-10.9c0,0-5.8-8-5.7-15.2c0,0,0-0.1,0-0.1c0-0.7,0-1.8,0.3-2.9c0.3-1.1,0.8-2.3,1.7-3.4
			c0.2-0.2,0.4-0.4,0.6-0.6c2.2-2.1,5.5-2.6,8.3-1.3c0.4,0.2,0.7,0.4,1.1,0.6c0,0,0.5,0.3,0.9,0.7c0.6,0.6,1.4,1.8,1.9,3.5
			c0.3,1.2,0.4,2.2,0.5,4.2c0,0.8,0,1.3,0.1,2.4c0,0,0.1,1.1,0.2,2.4c0.6,4.7,2,8.6,2.1,9c0,0,0,0,0,0c1,2.5,2.1,4.8,3.3,6.6
			c0,0,0,0,0,0C110,62.8,110.5,63.4,110.9,64.1z"/>
		<path class="st3" d="M106.4,67.7l-0.3-0.2c-4.9-2.9-9-6.6-12.3-11.1c-0.1-0.1-1.5-2.1-3-5c-2-3.9-2.9-7.5-2.9-10.6l0,0
			c0,0,0,0,0,0v0c0-0.6,0-1.8,0.3-3.1c0.3-1.4,0.9-2.6,1.8-3.6c0.2-0.2,0.4-0.4,0.6-0.6c2.4-2.2,5.9-2.8,8.9-1.5
			c0.4,0.2,0.8,0.4,1.2,0.6c0,0,0.5,0.4,1,0.8c0.9,0.8,1.6,2.1,2,3.7c0.3,1.3,0.4,2.3,0.5,4.4c0,0.3,0,0.5,0,0.8
			c0,0.5,0,0.9,0.1,1.6c0,0,0.1,1.1,0.2,2.3c0.6,4.6,1.9,8.4,2.1,8.9l0,0l0,0c0.8,2.3,1.9,4.5,3.3,6.5l0,0c0.4,0.7,0.9,1.4,1.4,2
			l0.4,0.6l-0.7,0.3c-0.7,0.4-1.4,0.8-2.1,1.2c-0.8,0.5-1.6,1.1-2.3,1.6L106.4,67.7z M89.2,40.8C89.2,40.8,89.2,40.8,89.2,40.8
			L89.2,40.8c0,3.7,1.5,7.5,2.8,10.1c1.4,2.8,2.8,4.8,2.9,4.8c3.1,4.2,6.9,7.7,11.6,10.5c0.7-0.5,1.4-1,2.1-1.4
			c0.5-0.3,1.1-0.6,1.6-0.9c-0.3-0.5-0.7-1-1-1.5c0,0,0,0,0,0c-1.4-2.1-2.5-4.4-3.4-6.7c0,0,0,0,0,0c-0.2-0.4-1.5-4.4-2.2-9.1
			c-0.2-1.2-0.2-2.3-0.2-2.4c-0.1-0.7-0.1-1.2-0.1-1.7c0-0.2,0-0.5,0-0.8c-0.1-2-0.1-3-0.4-4.1c-0.6-2-1.4-2.9-1.7-3.2
			c-0.4-0.3-0.8-0.7-0.8-0.7c-0.3-0.2-0.7-0.4-1-0.6c-2.6-1.2-5.6-0.7-7.6,1.2c-0.2,0.2-0.4,0.4-0.5,0.5c-0.7,0.8-1.3,1.9-1.6,3.1
			C89.2,39.1,89.2,40.2,89.2,40.8z"/>
		<g class="st8">
			<path class="st3" d="M110.9,64.1c-0.7,0.4-1.4,0.8-2.1,1.2c-6.8-7.3-8.1-19.1-8.3-24.3c-0.2-3.5-3.4-6-6.8-5.3c0,0-0.1,0-0.1,0
				c-2.7,0.6-4.6,2.9-5,5.6c0-0.2,0-0.4-0.1-0.5c-0.1-1,0-2,0.3-2.9c0.9-3.3,3.8-5.7,7-5.8c3.4-0.1,6.8,2.5,7.7,6.4
				c-0.2,3.7,0,9.9,2.7,16.9c0,0,0,0,0,0c1,2.5,2.1,4.8,3.3,6.6c0,0,0,0,0,0C110,62.8,110.5,63.4,110.9,64.1z"/>
		</g>
		<g class="st8">
			<path class="st3" d="M105.3,67.9c-0.1,0.1-0.2,0.2-0.3,0.3c-0.3,0.2-0.5,0.5-0.8,0.7c-1.7-0.9-3.7-2.1-5.7-3.7c0,0,0,0,0,0
				c-2.9-2.2-6-5.1-8.3-8.9C90,56.3,90,56.1,89.9,56c-1.8-3-3.1-6.3-4-8.5c-0.5-1.4-1-2.6-1.4-3.7c-0.8-2.3-1.2-4-1.1-6.1
				c0-0.3,0-0.6,0.1-0.9c0.4-3.1,1.7-5.5,2.7-7.1c0,0.1-2.6,6.6,0.3,15.3C89.3,53.2,93.8,61.4,105.3,67.9z"/>
		</g>
		<path class="st2" d="M140.6,30.8c0.6,3.6,0.9,8.3-0.1,13.7c-0.1,0.3-0.1,0.6-0.2,1c-0.9,4.1-2.3,7.6-3.9,10.5c0,0,0,0,0,0
			c-1.4,2.5-2.8,4.4-4,5.9c0,0,0,0,0,0c-0.1,0-0.2-0.1-0.3-0.1c-0.1,0-0.2-0.1-0.3-0.1c-0.3-0.1-0.5-0.1-0.8-0.2
			c-0.5-0.1-1-0.2-1.5-0.3c-0.9-0.2-1.8-0.3-2.8-0.4c-0.8-0.1-1.6-0.1-2.4-0.1c0,0,0,0,0,0c-1,0-1.9,0.1-2.9,0.2
			c0.4-2.7,0.5-5,0.5-6.7c0-5.2-1-9.1-1.6-11.4c-0.6-2.1-1.2-4-1.8-5.6c-0.4-1-0.8-2-1.3-2.9c-0.8-1.6-2.5-6-0.4-10.7
			c0.6-1.2,1.3-2.2,2-3.1c3.2-3.5,8.1-4.7,12.5-3.2c0.4,0.1,0.8,0.3,1.2,0.5c3.5,1.6,5.3,4.4,6.1,6.2c0.4,0.8,0.5,1.3,0.6,1.6
			C139.7,26.8,140.2,28.6,140.6,30.8z"/>
		<path class="st3" d="M132.7,62.6l-0.4-0.1c-0.1,0-0.2-0.1-0.3-0.1c-0.1,0-0.2,0-0.2-0.1l0,0c-0.3-0.1-0.5-0.1-0.8-0.2
			c-0.5-0.1-1-0.2-1.5-0.3c-0.9-0.2-1.8-0.3-2.7-0.3c-0.8-0.1-1.6-0.1-2.3-0.1l0,0l0,0l0,0c-0.9,0-1.9,0.1-2.8,0.2l-0.8,0.1l0.1-0.8
			c0.3-2.2,0.5-4.4,0.5-6.6c0-5.3-1-9.1-1.6-11.2c-0.5-1.9-1.1-3.7-1.8-5.6c-0.4-1-0.8-2-1.3-2.9c-0.9-1.7-2.6-6.3-0.4-11.2
			c0.5-1.2,1.3-2.3,2.1-3.2c1.6-1.8,3.7-3,6.1-3.6c2.4-0.6,4.8-0.5,7.1,0.3c0.4,0.1,0.8,0.3,1.2,0.5c3.5,1.7,5.4,4.5,6.4,6.5
			c0.3,0.6,0.5,1.1,0.7,1.6c0.6,1.7,1,3.5,1.3,5.4v0c0.8,4.6,0.8,9.3-0.1,13.9c-0.1,0.3-0.1,0.7-0.2,1c-0.8,3.7-2.1,7.3-4,10.6
			c0,0,0,0,0,0c-1.2,2.1-2.5,4.1-4,6L132.7,62.6z M124.5,60.2c0.8,0,1.5,0,2.3,0.1c0.9,0.1,1.9,0.2,2.8,0.4c0.5,0.1,1,0.2,1.5,0.3
			c0.3,0.1,0.6,0.1,0.8,0.2l0.1,0c0.1,0,0.2,0,0.3,0.1c1.4-1.7,2.6-3.6,3.7-5.5c0,0,0,0,0,0c1.8-3.2,3.1-6.7,3.8-10.3
			c0.1-0.3,0.1-0.6,0.2-1c0.8-4.5,0.9-9,0.1-13.5v0c-0.3-1.8-0.7-3.5-1.3-5.2c-0.2-0.5-0.4-1-0.6-1.5c-0.9-1.9-2.6-4.4-5.8-5.9
			c-0.4-0.2-0.7-0.3-1.1-0.5c-4.2-1.5-8.9-0.3-11.9,3c-0.8,0.9-1.4,1.9-1.9,2.9c-2,4.5-0.4,8.6,0.4,10.2c0.5,1,0.9,2,1.3,3
			c0.7,1.9,1.3,3.8,1.8,5.7c0.6,2.1,1.6,6.1,1.6,11.5c0,2-0.1,4.1-0.4,6.1c0.7-0.1,1.4-0.1,2.2-0.1c0,0,0,0,0.1,0
			C124.4,60.2,124.4,60.2,124.5,60.2z"/>
		<g class="st5">
			<path class="st6" d="M137.1,22.3c-3.7-4.7-10.3-5.7-15.2-2.6c-4.7,3-6.5,9.2-4.1,14.4c-3.3-5.3-2.1-11.9,2.1-15.3
				C124.9,14.9,133.2,16.1,137.1,22.3z"/>
		</g>
		<path class="st3" d="M132.7,62.6l-0.4-0.1c-0.1,0-0.2-0.1-0.3-0.1c-0.1,0-0.2,0-0.2-0.1l0,0c-0.3-0.1-0.5-0.1-0.8-0.2
			c-0.5-0.1-1-0.2-1.5-0.3c-0.9-0.2-1.8-0.3-2.7-0.3c-0.8-0.1-1.6-0.1-2.3-0.1l0,0l0,0l0,0c-0.9,0-1.9,0.1-2.8,0.2l-0.8,0.1l0.1-0.8
			c0.3-2.2,0.5-4.4,0.5-6.6c0-5.3-1-9.1-1.6-11.2c-0.5-1.9-1.1-3.7-1.8-5.6c-0.4-1-0.8-2-1.3-2.9c-0.9-1.7-2.6-6.3-0.4-11.2
			c0.5-1.2,1.3-2.3,2.1-3.2c1.6-1.8,3.7-3,6.1-3.6c2.4-0.6,4.8-0.5,7.1,0.3c0.4,0.1,0.8,0.3,1.2,0.5c3.5,1.7,5.4,4.5,6.4,6.5
			c0.3,0.6,0.5,1.1,0.7,1.6c0.6,1.7,1,3.5,1.3,5.4v0c0.8,4.6,0.8,9.3-0.1,13.9c-0.1,0.3-0.1,0.7-0.2,1c-0.8,3.7-2.1,7.3-4,10.6
			c0,0,0,0,0,0c-1.2,2.1-2.5,4.1-4,6L132.7,62.6z M124.5,60.2c0.8,0,1.5,0,2.3,0.1c0.9,0.1,1.9,0.2,2.8,0.4c0.5,0.1,1,0.2,1.5,0.3
			c0.3,0.1,0.6,0.1,0.8,0.2l0.1,0c0.1,0,0.2,0,0.3,0.1c1.4-1.7,2.6-3.6,3.7-5.5c0,0,0,0,0,0c1.8-3.2,3.1-6.7,3.8-10.3
			c0.1-0.3,0.1-0.6,0.2-1c0.8-4.5,0.9-9,0.1-13.5v0c-0.3-1.8-0.7-3.5-1.3-5.2c-0.2-0.5-0.4-1-0.6-1.5c-0.9-1.9-2.6-4.4-5.8-5.9
			c-0.4-0.2-0.7-0.3-1.1-0.5c-4.2-1.5-8.9-0.3-11.9,3c-0.8,0.9-1.4,1.9-1.9,2.9c-2,4.5-0.4,8.6,0.4,10.2c0.5,1,0.9,2,1.3,3
			c0.7,1.9,1.3,3.8,1.8,5.7c0.6,2.1,1.6,6.1,1.6,11.5c0,2-0.1,4.1-0.4,6.1c0.7-0.1,1.4-0.1,2.2-0.1c0,0,0,0,0.1,0
			C124.4,60.2,124.4,60.2,124.5,60.2z"/>
		<path class="st9" d="M136.6,45.9c-1.5,6.5-4.4,11.7-7.1,15.3c-0.9-0.2-1.8-0.3-2.8-0.4c-0.8-0.1-1.6-0.1-2.4-0.1c0,0,0,0,0,0
			c0.2-1,0.5-2.1,0.7-3.3c0,0,0,0,0,0c0.3-2.2,0.5-4.7,0.4-7.4c0,0,0,0,0,0c0-0.2-0.3-4.4-1.6-9.1c-0.3-1.2-0.7-2.3-0.7-2.3
			c-0.4-1-0.6-1.5-0.9-2.3c-0.7-1.9-1.1-2.9-1.3-4.1c-0.2-1.7,0-3.1,0.3-3.9c0.2-0.5,0.6-1,0.6-1c0.2-0.4,0.5-0.7,0.8-1
			c2.1-2.3,5.3-3.1,8.2-2.1c0.3,0.1,0.5,0.2,0.8,0.3c1.3,0.6,2.2,1.5,2.9,2.4c0.7,1,1.2,2,1.5,2.6c0,0,0,0,0,0.1
			C138.7,36.3,136.6,45.9,136.6,45.9z"/>
		<path class="st3" d="M129.7,61.8l-0.4-0.1c-0.9-0.2-1.8-0.3-2.7-0.3c-0.8-0.1-1.6-0.1-2.3-0.1l0,0l0,0l0,0l-0.8,0l0.2-0.8
			c0.3-1.1,0.5-2.2,0.6-3.2l0,0c0.4-2.4,0.5-4.9,0.4-7.3v0c0-0.2-0.3-4.4-1.6-9c-0.3-1.1-0.7-2.2-0.7-2.2c-0.2-0.7-0.4-1.1-0.6-1.5
			c-0.1-0.2-0.2-0.5-0.3-0.7c-0.7-1.9-1.1-2.9-1.3-4.2c-0.2-1.6-0.1-3.2,0.4-4.2c0.2-0.6,0.6-1.1,0.6-1.1c0.2-0.4,0.5-0.7,0.8-1.1
			c2.2-2.4,5.7-3.3,8.8-2.2c0.3,0.1,0.6,0.2,0.8,0.3c1.2,0.6,2.2,1.4,3.1,2.6c0.8,1,1.3,2.1,1.5,2.7c0,0,0,0,0,0.1
			c1.3,2.8,1.8,6.5,1.5,10.9c-0.2,3.2-0.7,5.6-0.7,5.7c-1.2,5.5-3.7,10.7-7.2,15.5L129.7,61.8z M125,60.2c0.6,0,1.2,0,1.7,0.1
			c0.8,0.1,1.6,0.2,2.5,0.3c3.3-4.5,5.6-9.5,6.8-14.8c0,0,0.5-2.4,0.7-5.6c0.2-2.9,0-7-1.4-10.3l0,0c0,0,0,0,0-0.1
			c-0.3-0.6-0.7-1.5-1.4-2.5c-0.8-1-1.6-1.8-2.7-2.2c-0.2-0.1-0.5-0.2-0.7-0.3c-2.7-0.9-5.6-0.2-7.5,1.9c-0.3,0.3-0.5,0.6-0.7,0.9
			c0,0-0.3,0.5-0.5,0.9c-0.1,0.3-0.6,1.5-0.3,3.6c0.2,1.2,0.5,2.1,1.2,3.9c0.1,0.3,0.2,0.5,0.3,0.7c0.2,0.4,0.4,0.9,0.6,1.6
			c0,0,0.4,1.1,0.7,2.3c1.3,4.6,1.6,8.9,1.6,9.2c0,0,0,0,0,0c0.1,2.5,0,5-0.4,7.5c0,0,0,0,0,0C125.4,58.4,125.2,59.3,125,60.2z"/>
		<g class="st8">
			<path class="st3" d="M135.9,30.1c-1.4-2.4-4.1-3.6-6.8-3.1c0,0-0.1,0-0.1,0c-3.4,0.7-5.3,4.3-4.1,7.6c1.9,5,5.5,16.8,1.8,26.3
				c-0.8-0.1-1.6-0.1-2.4-0.1c0.2-1,0.4-2.1,0.6-3.3c0,0,0,0,0,0c0.3-2.2,0.5-4.7,0.4-7.4c0,0,0,0,0,0c-0.3-7.5-2.6-13.3-4.3-16.6
				c-0.7-3.9,1.3-7.7,4.5-8.9c2.9-1.2,6.5-0.1,8.7,2.6c0.6,0.7,1.1,1.6,1.5,2.6C135.8,29.8,135.9,30,135.9,30.1z"/>
		</g>
		<g class="st8">
			<path class="st3" d="M140.6,30.8c0.1,1.1,0.1,2.4,0.2,3.9c0.1,2.3,0.2,5.9-0.2,9.4c0,0.1,0,0.3-0.1,0.4
				c-0.7,4.3-2.3,8.2-4.1,11.4c0,0,0,0,0,0c-1.3,2.3-2.8,4.3-4,5.9c-0.1,0-0.2-0.1-0.3-0.1c-0.1,0-0.2-0.1-0.3-0.1
				c-0.3-0.1-0.5-0.1-0.8-0.2c8.2-10.7,9.1-20.1,8.3-28.8c-0.9-9.2-5.8-14.1-5.9-14.2c1.6,1,3.8,2.7,5.3,5.4
				c0.2,0.3,0.3,0.6,0.5,0.8C140.1,26.7,140.4,28.4,140.6,30.8z"/>
		</g>
		<path class="st2" d="M156.8,93.8c-0.2,1.4-0.6,2.6-1.1,3.6c0,0,0,0,0,0c-0.1,0.2-0.5,1.1-1.2,2.4c0,0,0,0,0,0
			c-0.2,0.4-0.4,0.7-0.6,1c-0.2,0.3-0.4,0.6-0.6,0.9c-1.6,2.3-3.6,4.3-5.6,5.9c-6.7,5.3-14.7,7.1-17.3,7.7c-2.3,0.5-11,2.3-19.4,0.5
			c-3.2-0.7-6.4-1.9-9.1-4c-0.8-0.6-2.4-1.8-4-3.8c-0.5-0.6-1-1.3-1.4-2c-2.5-4.1-2.8-8.1-2.9-11.2c-0.1-2.8-0.1-12,6.2-21
			c1.6-2.2,3.3-4,5-5.6c7.3-6.5,17.4-9,26.8-6.5c0.1,0,0.2,0.1,0.3,0.1c1.4,0.4,6.8,1.9,12,5.8c2.6,1.9,9,7.3,11.8,16.3
			C156.5,86.1,157.5,89.5,156.8,93.8z"/>
		<path class="st3" d="M119.1,117.1c-2.6,0-5.4-0.2-8.2-0.8c-3.6-0.8-6.8-2.2-9.3-4.1c-0.7-0.5-2.4-1.8-4.1-3.9
			c-0.5-0.7-1-1.4-1.5-2.1c-2.5-4.1-2.8-7.9-3-11.5c-0.1-2.7,0.1-5.5,0.7-8.3c1-4.7,2.9-9.1,5.7-13c1.5-2.1,3.2-4,5.1-5.7
			c3.7-3.2,8.1-5.6,12.9-6.7c4.8-1.2,9.8-1.1,14.5,0.1c0.1,0,0.2,0.1,0.3,0.1l0,0c2,0.6,7.3,2.2,12.2,5.9c1.5,1.1,3.7,3,5.9,5.6
			c2.8,3.3,4.8,7,6.1,11c0.7,2.2,1.8,5.8,1,10.2l0,0c-0.2,1.3-0.6,2.5-1.1,3.7c0,0,0,0,0,0c-0.1,0.2-0.5,1.2-1.2,2.4l0,0
			c-0.2,0.4-0.4,0.7-0.6,1l0,0c-0.2,0.3-0.4,0.6-0.6,1c-1.5,2.2-3.5,4.2-5.7,6c-6.8,5.4-14.9,7.2-17.5,7.8
			C128.5,116.3,124.1,117.1,119.1,117.1z M124.4,61.4c-6.9,0-13.7,2.5-19.1,7.3c-1.8,1.6-3.5,3.5-4.9,5.5c-5.7,8-6.3,16.3-6.1,20.6
			c0.1,2.7,0.3,6.8,2.8,10.9c0.4,0.7,0.9,1.3,1.4,2c1.6,2,3.2,3.2,3.9,3.7c2.4,1.8,5.4,3.1,8.9,3.9c7.8,1.7,16,0.3,19.1-0.5
			c2.6-0.6,10.4-2.4,17-7.6c2.2-1.7,4-3.7,5.5-5.8c0.2-0.3,0.4-0.6,0.6-0.9l0,0c0.2-0.2,0.4-0.6,0.6-0.9c0,0,0,0,0,0
			c0.7-1.2,1.1-2.1,1.2-2.3l0,0c0.5-1.1,0.8-2.3,1-3.5l0,0c0.8-4.2-0.3-7.5-0.9-9.7c-2.6-8.3-8.3-13.6-11.6-16
			c-4.7-3.5-9.8-5.2-11.8-5.7l0,0c-0.1,0-0.2,0-0.3-0.1C129.2,61.7,126.8,61.4,124.4,61.4z"/>
		<path class="st6" d="M96.7,106c-2.5-4.1,0.7-9.3,5.5-8.9c0.7,0.1,1.5,0.1,2.3,0.1c6.3-0.1,10.9-2.8,12.8-4.1
			c0.1-0.1,0.2-0.1,0.3-0.2c1.2-0.9,3.1-2.2,5.8-2.9c3-0.9,5.7-0.7,7.3-0.5c0.2,0,0.5,0.1,0.7,0.1c2,0.5,6.4,1.4,11.4-0.3
			c1.9-0.6,3.6-1.5,5-2.5c4.1-2.9,9.8,0.3,9.3,5.3c0,0.1,0,0.2,0,0.3c-1,10-10,18.9-22.5,22c-0.2,0-0.3,0.1-0.5,0.1
			c-15.2,5.1-30,1.9-36.5-7.3C97.2,106.8,97,106.4,96.7,106z"/>
		<g class="st8">
			<path class="st6" d="M94.1,96.5c-0.1-2.8-0.1-12,6.2-21c1.6-2.2,3.3-4,5-5.6c7.3-6.5,17.4-9,26.8-6.5c0.1,0,0.2,0.1,0.3,0.1
				c1.4,0.4,6.8,1.9,12,5.8c2.6,1.9,9,7.3,11.8,16.3c0.2,0.6,0.4,1.3,0.6,2c-0.3-1.5-0.6-2.8-1-3.9c-2.8-9-9.2-14.3-11.8-16.3
				c-5.2-3.8-10.6-5.4-12-5.8c-0.1,0-0.2,0-0.3-0.1c-9.4-2.5-19.5,0-26.8,6.5c-1.7,1.5-3.5,3.4-5,5.6c-6.4,8.9-6.4,18.1-6.2,21
				c0.1,1.8,0.2,4,0.8,6.2C94.2,99.4,94.1,97.9,94.1,96.5z"/>
		</g>
		<path class="st3" d="M119.1,117.1c-0.1,0-0.3,0-0.4,0c-3.1,0-6.1-0.4-8.7-1.1c-3.2-0.8-6.1-2.1-8.4-3.9c-1-0.7-3.5-2.6-5.5-6
			c-2.5-4.1-2.8-7.9-3-11.5c-0.1-2.7,0.1-5.5,0.7-8.3c1-4.7,2.9-9.1,5.7-13c1.5-2.1,3.2-4,5.1-5.7c3.7-3.2,8.1-5.6,12.9-6.7
			c4.8-1.2,9.8-1.1,14.5,0.1c0.1,0,0.2,0.1,0.3,0.1c2,0.6,7.3,2.2,12.2,5.9c1.5,1.1,3.7,3,5.9,5.6c2.8,3.3,4.8,7,6.1,11
			c0.7,2.2,1.8,5.8,1,10.2c-0.6,3.5-2.2,6-2.9,7.2l0,0c-2.9,4.7-7.4,8.4-13.2,11.2c-4.7,2.2-8.8,3.2-10.6,3.6
			C128.4,116.3,124.1,117.1,119.1,117.1z M124.4,61.4c-6.9,0-13.7,2.5-19.1,7.3c-1.8,1.6-3.5,3.5-4.9,5.5c-5.7,8-6.3,16.3-6.1,20.6
			c0.1,3.4,0.5,7.1,2.8,10.9c1.9,3.2,4.3,5,5.2,5.6c4.9,3.7,11.3,4.7,16.8,4.7c4.9,0,9.2-0.8,11.2-1.3c13.6-3.1,20.1-9.5,23.1-14.3
			l0,0c0.8-1.2,2.2-3.4,2.8-6.7c0.8-4.2-0.3-7.5-0.9-9.7c-2.6-8.3-8.3-13.6-11.6-16c-4.7-3.5-9.8-5.2-11.8-5.7c-0.1,0-0.2,0-0.3-0.1
			C129.2,61.7,126.8,61.4,124.4,61.4z"/>
		<g class="st8">
			<path class="st3" d="M156,89.9c-0.6,3.4-2.1,5.8-2.9,7c-6.8,10.7-20,13.7-23.5,14.5c-3.1,0.7-18.6,3.9-28.5-3.5
				c-1.1-0.8-3.5-2.6-5.4-5.8c-0.8-1.4-1.4-2.7-1.8-4c0.3,2.4,1,5.1,2.6,7.9c1.9,3.2,4.3,5,5.4,5.8c9.9,7.4,25.3,4.2,28.5,3.5
				c3.4-0.8,16.7-3.8,23.5-14.5c0.7-1.2,2.2-3.5,2.9-7c0.7-3.7,0-6.8-0.7-9C156.3,86.3,156.3,88,156,89.9z"/>
		</g>
		<g class="st8">
			<path class="st3" d="M150.5,109.9c-7,6.5-16.3,8.6-19.1,9.3c-2.5,0.6-12.8,2.7-21.9-0.2c0,0,0,0,0,0c0,0,0-0.1,0-0.1
				c0,0,0-0.1,0-0.1c0,0,0-0.1,0-0.1c0,0,0,0,0,0c0-0.1,0-0.1,0-0.2c0,0,0-0.1,0-0.1c0-0.1,0-0.1,0.1-0.2c0,0,0-0.1,0-0.1
				c0,0,0-0.1,0-0.1c0,0,0-0.1,0-0.1c0.1-0.4,0.3-0.8,0.4-1.1c0-0.1,0.1-0.1,0.1-0.2c0.1-0.1,0.1-0.3,0.2-0.4
				c0.1-0.1,0.1-0.2,0.2-0.3c0.1,0,0.2,0.1,0.3,0.1c5.5,1.2,11,0.9,14.9,0.3c0,0,0.1,0,0.1,0c0,0,0.1,0,0.1,0
				c2.1-0.3,3.6-0.6,4.4-0.8c2.4-0.5,9.6-2.2,16-6.7c0.1,0,0.1,0.1,0.2,0.1c0.1,0,0.1,0.1,0.2,0.1c0,0,0,0,0.1,0
				c0.1,0,0.2,0.1,0.4,0.1c0.2,0.1,0.4,0.1,0.6,0.2c0.1,0,0.1,0,0.2,0.1c0.1,0,0.2,0.1,0.3,0.1c0.1,0,0.2,0.1,0.3,0.1
				c0.1,0,0.2,0.1,0.3,0.1c0,0,0,0,0,0c0,0,0.1,0,0.1,0c0.1,0,0.3,0.1,0.4,0.1c0.1,0,0.1,0,0.2,0.1c0,0,0.1,0,0.1,0c0,0,0.1,0,0.1,0
				C150.2,109.8,150.3,109.8,150.5,109.9C150.4,109.9,150.5,109.9,150.5,109.9z"/>
		</g>
		<path class="st10" d="M141.6,92.4c-1.6,0.4-3.2,1.2-3,2.3c0.2,1,2.1,1.1,3.7,0.7s3.2-1.2,3-2.3C145,92.1,143.2,92,141.6,92.4z"/>
		<path class="st10" d="M108.8,99.3c-1.6,0.4-3.2,1.2-3,2.3c0.2,1,2.1,1.1,3.7,0.7c1.6-0.4,3.2-1.2,3-2.3
			C112.3,98.9,110.5,98.9,108.8,99.3z"/>
		<path class="st3" d="M120.9,94.6c0,1.2,2.6,2.7,4.7,2.2c2-0.5,3.6-2.8,3.1-3.8c-0.6-1.2-3.8-0.7-4-0.6
			C123.3,92.6,120.9,93.4,120.9,94.6z"/>
		<path class="st6" d="M122.8,93.9c0,0.2,1,0.4,1.9,0.2c0.9-0.2,1.7-0.7,1.6-0.9c-0.1-0.2-1.5,0.1-1.8,0.1
			C124.4,93.3,122.8,93.6,122.8,93.9z"/>
		<path class="st3" d="M123.9,94.2c-0.5,0-0.9-0.1-1-0.2c0,0-0.1-0.1-0.1-0.1c0-0.2,1.1-0.5,1.7-0.7c0.6-0.1,1.7-0.3,1.8-0.1
			c0,0,0,0.1,0,0.1c-0.1,0.2-0.8,0.7-1.6,0.8C124.4,94.2,124.2,94.2,123.9,94.2z M126,93.1c-0.3,0-0.8,0.1-1.4,0.2
			c-1,0.2-1.7,0.5-1.7,0.6c0,0,0,0,0.1,0.1c0.2,0.2,1,0.3,1.8,0.1c0.8-0.2,1.4-0.6,1.6-0.8c0,0,0-0.1,0-0.1
			C126.3,93.1,126.1,93.1,126,93.1z"/>
		<g class="st8">
			<path d="M139.2,109C139.2,109,139.2,109,139.2,109L139.2,109C139.2,109,139.2,109,139.2,109L139.2,109z"/>
			<path class="st3" d="M139.2,109.1L139.2,109.1L139.2,109.1L139.2,109.1L139.2,109.1L139.2,109.1L139.2,109.1z"/>
		</g>
		<path d="M152.7,98.9c0.1,0,0.1-0.1,0.2-0.1C152.8,98.8,152.8,98.8,152.7,98.9z"/>
		<path class="st3" d="M152.7,98.9L152.7,98.9c0-0.1,0.1-0.1,0.2-0.2l0,0C152.8,98.8,152.8,98.8,152.7,98.9z"/>
		<path class="st3" d="M134.5,86.9c2.3-0.5,3.6-3.1,3-5.7c-0.6-2.6-2.9-4.3-5.2-3.7s-3.6,3.1-3,5.7
			C129.9,85.8,132.2,87.5,134.5,86.9z"/>
		<path class="st6" d="M132,84.3c0.6-0.1,0.9-1,0.7-1.9s-0.9-1.5-1.5-1.4c-0.6,0.1-0.9,1-0.7,1.9C130.7,83.8,131.4,84.4,132,84.3z"
			/>
		<path class="st3" d="M131.8,84.3c-0.2,0-0.5-0.1-0.7-0.3c-0.3-0.3-0.5-0.7-0.6-1.1c-0.2-0.9,0.1-1.8,0.8-1.9
			c0.3-0.1,0.6,0,0.9,0.3c0.3,0.3,0.5,0.7,0.6,1.1c0.2,0.9-0.1,1.8-0.8,1.9C132,84.3,131.9,84.3,131.8,84.3z M131.4,81
			c-0.1,0-0.1,0-0.2,0c-0.6,0.1-0.9,1-0.7,1.9c0.1,0.4,0.3,0.8,0.6,1.1c0.3,0.3,0.6,0.4,0.9,0.3c0.6-0.1,0.9-1,0.7-1.9
			c-0.1-0.4-0.3-0.8-0.6-1.1C131.9,81.1,131.7,81,131.4,81z"/>
		<path class="st3" d="M112.7,92.1c2.3-0.4,3.7-2.9,3.2-5.5c-0.5-2.6-2.8-4.4-5-4c-2.3,0.4-3.7,2.9-3.2,5.5
			C108.1,90.7,110.4,92.5,112.7,92.1z"/>
		<path class="st6" d="M113.6,88.8c0.6-0.1,1-1,0.8-1.9c-0.2-0.9-0.8-1.6-1.4-1.5c-0.6,0.1-1,1-0.8,1.9
			C112.3,88.3,112.9,88.9,113.6,88.8z"/>
		<path class="st3" d="M113.4,88.8c-0.3,0-0.5-0.1-0.8-0.4c-0.3-0.3-0.5-0.7-0.6-1.1c-0.2-0.9,0.2-1.8,0.8-1.9
			c0.6-0.1,1.3,0.5,1.5,1.5c0.2,0.9-0.2,1.8-0.8,1.9C113.5,88.8,113.5,88.8,113.4,88.8z M113.1,85.5c0,0-0.1,0-0.1,0
			c-0.6,0.1-1,0.9-0.8,1.9c0.1,0.4,0.3,0.8,0.5,1.1c0.3,0.3,0.6,0.4,0.9,0.3c0.6-0.1,1-0.9,0.8-1.9
			C114.2,86.1,113.6,85.5,113.1,85.5z"/>
		<path class="st3" d="M117.7,97.5c0.3,0.3,0.5,0.6,0.9,0.9c0.3,0.3,0.7,0.5,1,0.6c0.7,0.3,1.5,0.4,2.3,0.2c0.1,0,0.2,0,0.3-0.1
			c0.1,0,0.2-0.1,0.3-0.1l0.3-0.1c0.1,0,0.2-0.1,0.2-0.1c0.3-0.2,0.6-0.4,0.9-0.7c0.5-0.5,0.9-1.2,1-1.9L125,95l0.8,1.1
			c0.4,0.6,1,1,1.7,1.3c0.3,0.1,0.7,0.2,1.1,0.2c0.1,0,0.2,0,0.3,0c0.1,0,0.2,0,0.3,0l0.1,0l0.1,0l0.1,0c0,0,0.1,0,0.1,0l0.1,0
			c0.7-0.2,1.4-0.6,2-1.1c0.3-0.3,0.5-0.6,0.7-1c0.2-0.4,0.3-0.8,0.4-1.2c0.1,0.9-0.2,1.8-0.7,2.5c0,0-0.1,0.1-0.1,0.1L132,97
			l-0.1,0.1l-0.1,0.1l-0.1,0.1c0,0-0.1,0.1-0.1,0.1l-0.1,0.1c0,0-0.1,0.1-0.1,0.1l-0.1,0.1c0,0-0.1,0.1-0.1,0.1
			c-0.1,0.1-0.2,0.1-0.3,0.2c-0.1,0.1-0.2,0.1-0.3,0.2l-0.2,0.1l-0.1,0l-0.1,0c-0.9,0.3-1.9,0.3-2.8,0c-0.9-0.3-1.7-0.9-2.3-1.7
			l1.1-0.2c-0.2,1-0.7,1.8-1.4,2.5c-0.7,0.6-1.6,1.1-2.6,1.1c-0.1,0-0.2,0-0.4,0l-0.4,0l-0.3,0c-0.1,0-0.2,0-0.3-0.1
			c-0.5-0.1-0.9-0.3-1.3-0.5C118.5,99,117.9,98.3,117.7,97.5z"/>
		<path class="st3" d="M98.6,159c-0.8,0-1.7-0.1-2.6-0.6c-2.6-1.2-3.4-4.1-4.2-6.7c-0.5-1.6-1.3-4.2-1.5-6.7c-0.3-3.2,0.4-5.5,2-6.7
			c1.8-1.4,4.1-1.1,5-0.9c0.1,0,0.1,0,0.2,0l0,0c0,0,0.1,0,0.1,0l0.1,0l0.2,0.1l0,0c0,0,0,0,0,0c0,0,0.1,0,0.1,0
			c0.1,0,0.1,0,0.2,0.1l0,0c0,0,0.1,0,0.1,0c0,0,0,0,0,0c0,0,0.1,0,0.1,0.1c0,0,0,0,0,0c0,0,0.1,0,0.1,0l0,0c0,0,0.1,0,0.1,0.1
			c0,0,0,0,0,0c0,0,0.1,0,0.1,0.1c0.2,0.1,0.3,0.2,0.5,0.3c0,0,0.1,0,0.1,0.1l0,0c0,0,0,0,0,0c0,0,0.1,0,0.1,0.1c0,0,0,0,0.1,0
			c0,0,0.1,0,0.1,0.1c0,0,0,0,0,0l0,0c0,0,0.1,0.1,0.1,0.1c0,0,0,0,0,0c0,0,0,0,0.1,0.1c0,0,0.1,0,0.1,0.1c0,0,0.1,0,0.1,0.1
			c0,0,0,0,0,0l0,0c0,0,0.1,0,0.1,0.1c0.1,0.1,0.2,0.1,0.2,0.2c0,0,0,0,0,0l0.1,0.1c0,0,0.1,0.1,0.1,0.1c0,0,0,0.1,0.1,0.1
			c0,0,0.1,0.1,0.1,0.1c0,0,0,0.1,0.1,0.1l0,0c0,0,0,0,0.1,0.1c0,0.1,0.1,0.1,0.2,0.2c0,0,0,0,0,0l0,0c0,0,0.1,0.1,0.1,0.1
			c0,0,0,0.1,0.1,0.1c0,0,0.1,0.1,0.1,0.1c0,0,0,0.1,0.1,0.1l0,0.1c0,0,0.1,0.1,0.1,0.1c0,0,0,0,0,0l0,0c0,0,0.1,0.1,0.1,0.1l0,0
			c0,0.1,0.1,0.1,0.2,0.2c0,0,0,0,0,0c0,0,0,0.1,0.1,0.1c0,0.1,0.1,0.1,0.1,0.2l0,0c0,0,0,0.1,0,0.1c1-1.1,2.2-2,3.4-2.9
			c1.8-1.2,3.7-2.2,5.7-2.9c-0.7-1.7-2.5-6.5-2.8-11.6c0-0.1,0-0.2,0-0.2c0-0.1,0-0.2,0-0.3l0-0.1c0-0.1,0-0.2,0-0.3
			c0,0,0-0.1,0-0.1l0-0.1c0-0.1,0-0.3,0-0.4c0,0,0-0.1,0-0.1v0c0-0.1,0-0.2,0-0.2v0c0,0,0-0.1,0-0.1c0-0.1,0-0.2,0-0.3l0-0.1
			c0-0.1,0-0.2,0-0.3c0-0.1,0-0.2,0-0.3l0-0.2c0,0,0-0.1,0-0.1v0c0-0.1,0-0.2,0-0.3c0-0.1,0-0.1,0-0.2v0l0,0c0-0.1,0-0.2,0-0.3
			c0.1-0.4,0.1-0.8,0.2-1.1l0,0c0,0,0-0.1,0-0.1l0,0c0,0,0-0.1,0-0.1l0,0c0,0,0-0.1,0-0.1l0,0c0-0.1,0-0.1,0-0.2l0,0
			c0,0,0-0.1,0-0.1c0-0.1,0-0.1,0.1-0.2c0,0,0-0.1,0-0.1c0,0,0-0.1,0-0.1c0,0,0-0.1,0-0.1l0,0c0.1-0.4,0.3-0.8,0.4-1.2
			c0-0.1,0.1-0.2,0.1-0.2c0.1-0.1,0.1-0.3,0.2-0.4l0,0c0.1-0.1,0.1-0.2,0.2-0.3l0.2-0.4l0.4,0.1c0.1,0,0.2,0.1,0.3,0.1
			c7.8,1.7,16,0.3,19.1-0.5c2.3-0.5,9.5-2.1,15.8-6.7l0.3-0.2l0.3,0.2l0,0c0.1,0,0.1,0.1,0.2,0.1l0,0c0.1,0,0.1,0.1,0.2,0.1l0,0
			c0,0,0,0,0,0l0,0c0.1,0,0.2,0.1,0.3,0.1c0.2,0.1,0.4,0.1,0.6,0.2c0,0,0.1,0,0.1,0l0.1,0c0.1,0,0.2,0.1,0.3,0.1
			c0.1,0,0.2,0.1,0.3,0.1c0.1,0,0.2,0.1,0.3,0.1c0,0,0,0,0,0l0,0c0,0,0.1,0,0.1,0l0,0c0.1,0,0.3,0.1,0.4,0.1l0,0
			c0.1,0,0.1,0,0.2,0.1c0,0,0.1,0,0.1,0c0,0,0.1,0,0.1,0c0.1,0,0.2,0,0.3,0.1c0.1,0,0.2,0,0.3,0.1c0,0,0,0,0.1,0l0.2,0
			c0.1,0,0.3,0.1,0.4,0.1c0.1,0,0.2,0.1,0.3,0.1c0.1,0,0.1,0,0.2,0c0.1,0,0.3,0.1,0.4,0.1l0.1,0c0,0,0.1,0,0.1,0l0,0
			c0,0,0.1,0,0.1,0l0,0c0,0,0.1,0,0.1,0l0,0c0.1,0,0.1,0,0.2,0c4,0.6,8.1,0.3,12.1-0.9c0.8-1.1,3-3.7,6.4-3.8c0.5,0,1.8,0,3.1,0.8
			c1.2,0.8,2.1,2.2,2.4,4c0.4,2-0.4,4.3-2.3,6.8c-1.3,1.7-3.3,3.6-5.2,4.9c-3.3,2.4-7.3,3.8-11.8,4.2c-2.4,0.2-5,0.2-7.6-0.2
			c0.6,1.7,1.1,3.4,1.4,5.1c0.3,1.3,0.5,2.6,0.7,3.9c2.2,0.6,4.2,1.4,6.1,2.6c1.3,0.8,2.5,1.6,3.6,2.6c0.6-1.3,2-3.6,4.8-4.3
			c0.9-0.2,3.2-0.7,5.1,0.6c1.7,1.1,2.5,3.3,2.4,6.6c-0.1,2.5-0.7,5.2-1,6.8c-0.6,2.6-1.3,5.6-3.7,7c-2.1,1.2-4.4,0.7-5.3,0.5
			l-0.1,0c-3.6-0.8-8.8-0.8-15.5-0.2c-4.8,0.4-9.8,0.7-14.8,0.7h0c0,0,0,0,0,0h0c-0.5,0-1,0-1.4,0c-4.7,0-9.5-0.1-14.8-0.2
			c-3.5-0.1-6.6,0-9.2,0.2l-0.3,0c-0.2,0-0.4,0-0.5,0l-0.2,0c-0.1,0-0.2,0-0.3,0l-0.2,0c-0.1,0-0.1,0-0.2,0l-0.1,0
			c-0.1,0-0.2,0-0.3,0c-0.1,0-0.3,0-0.5,0.1l-0.2,0c-0.1,0-0.1,0-0.2,0l-0.1,0c-0.1,0-0.1,0-0.2,0c-0.1,0-0.1,0-0.2,0
			c-0.1,0-0.2,0-0.2,0l0,0c0,0-0.1,0-0.1,0l0,0c0,0-0.1,0-0.1,0l-0.1,0c-0.3,0-0.5,0.1-0.8,0.1l0,0c0,0-0.1,0-0.1,0l0,0
			c-0.1,0-0.1,0-0.2,0c-0.1,0-0.2,0-0.3,0.1l0,0l0,0c-0.1,0-0.1,0-0.2,0l0,0c-0.2,0-0.4,0.1-0.6,0.1l-0.1,0c0,0-0.1,0-0.1,0
			c-0.2,0-0.3,0.1-0.5,0.1l-0.2,0c-0.1,0-0.1,0-0.2,0l-0.1,0C100.8,158.7,99.8,159,98.6,159z M95.6,138.4c-0.9,0-1.9,0.2-2.7,0.8
			c-3,2.4-0.9,9.2,0,12.2c0.7,2.4,1.5,5,3.6,6c1.7,0.8,3.7,0.3,4.5,0.1l0.1,0c0.1,0,0.1,0,0.2,0l0.2,0c0.2,0,0.4-0.1,0.5-0.1l0,0
			c0,0,0.1,0,0.1,0l0.1,0c0.2,0,0.4-0.1,0.6-0.1c0.1,0,0.1,0,0.2,0l0,0c0.1,0,0.2,0,0.3-0.1c0.1,0,0.1,0,0.2,0c0,0,0.1,0,0.1,0
			c0.3,0,0.5-0.1,0.8-0.1l0.1,0c0,0,0.1,0,0.1,0l0,0c0,0,0.1,0,0.1,0c0.1,0,0.2,0,0.2,0c0.1,0,0.1,0,0.2,0c0.1,0,0.1,0,0.2,0l0.1,0
			c0.1,0,0.1,0,0.2,0l0.2,0c0.2,0,0.3,0,0.5-0.1c0.1,0,0.2,0,0.3,0l0.1,0c0.1,0,0.1,0,0.2,0l0.2,0c0.1,0,0.2,0,0.3,0l0.2,0
			c0.2,0,0.4,0,0.5,0l0.3,0c2.7-0.2,5.8-0.3,9.3-0.2c5.3,0.1,10.1,0.2,14.7,0.2c0.5,0,1,0,1.4,0c0,0,0,0,0.1,0h0
			c5,0,9.9-0.2,14.6-0.7c6.8-0.6,12.2-0.6,15.9,0.2l0.1,0c0.8,0.2,2.8,0.6,4.5-0.4c2-1.2,2.6-3.7,3.2-6.2c0.7-3,2.3-10-0.9-12.1
			c-1.4-1-3.3-0.6-4.1-0.4c-1.3,0.4-2.4,1.2-3.3,2.4c-0.7,1-1,1.9-1,2l-0.3,0.9l-0.7-0.7c-1.2-1.2-2.6-2.2-4-3.1
			c-1.9-1.1-4-2-6.2-2.5l-0.4-0.1l0-0.4c-0.2-1.4-0.4-2.8-0.7-4.2c-0.4-2-1-4-1.7-5.9l-0.4-1l1,0.2c4.3,0.7,12.6,1.2,19.5-3.7
			c1.8-1.3,3.7-3.1,4.9-4.7c1.2-1.5,2.5-3.8,2.1-5.8c-0.1-0.6-0.5-2.3-1.9-3.2c-1-0.6-2-0.6-2.5-0.6c-3,0-5.1,2.9-5.5,3.4l-0.1,0.2
			l-0.2,0.1c-4.2,1.3-8.6,1.6-12.8,1c-0.1,0-0.1,0-0.2,0c0,0-0.1,0-0.1,0c0,0-0.1,0-0.1,0c0,0-0.1,0-0.1,0l-0.1,0
			c-0.1,0-0.3-0.1-0.4-0.1c-0.1,0-0.1,0-0.2,0c-0.1,0-0.2-0.1-0.4-0.1c-0.1,0-0.3-0.1-0.4-0.1l-0.2,0c0,0,0,0-0.1,0l0,0
			c-0.1,0-0.2,0-0.3-0.1l0,0c-0.1,0-0.2-0.1-0.3-0.1c0,0-0.1,0-0.1,0c0,0-0.1,0-0.1,0c-0.1,0-0.2,0-0.2-0.1c-0.1,0-0.3-0.1-0.4-0.1
			l0,0c0,0-0.1,0-0.1,0c0,0,0,0,0,0l0,0c-0.1,0-0.2-0.1-0.3-0.1c-0.1,0-0.2-0.1-0.3-0.1c-0.1,0-0.2-0.1-0.3-0.1l-0.1,0
			c0,0-0.1,0-0.1,0c-0.2-0.1-0.4-0.2-0.6-0.2c-0.1,0-0.2-0.1-0.3-0.1c0,0,0,0-0.1,0c-0.1,0-0.1,0-0.2-0.1c-6.5,4.5-13.6,6.1-16,6.7
			c-3.2,0.7-11.5,2.2-19.6,0.5c0,0.1-0.1,0.2-0.1,0.2c0,0.1-0.1,0.1-0.1,0.2c-0.1,0.3-0.3,0.7-0.4,1.1l0,0c0,0,0,0.1,0,0.1l0,0
			c0,0,0,0.1,0,0.1l0,0c0,0,0,0.1,0,0.1l0,0c0,0.1,0,0.1-0.1,0.2c0,0,0,0.1,0,0.1l0,0c0,0.1,0,0.1,0,0.2c0,0,0,0,0,0
			c0,0,0,0.1,0,0.1l0,0c0,0,0,0.1,0,0.1l0,0c0,0,0,0.1,0,0.1l0,0c-0.1,0.3-0.1,0.7-0.2,1c0,0.1,0,0.1,0,0.2v0l0,0c0,0.1,0,0.2,0,0.2
			c0,0.1,0,0.2,0,0.2c0,0,0,0.1,0,0.1c0,0,0,0,0,0l0,0.2c0,0.1,0,0.2,0,0.3l0,0c0,0.1,0,0.2,0,0.3l0,0.1c0,0.1,0,0.2,0,0.3l0,0
			c0,0,0,0.1,0,0.1v0c0,0.1,0,0.1,0,0.2v0c0,0,0,0.1,0,0.1v0c0,0.1,0,0.3,0,0.4l0,0.1c0,0,0,0.1,0,0.1c0,0.1,0,0.2,0,0.3l0,0.1
			c0,0.1,0,0.2,0,0.2c0,0.1,0,0.1,0,0.2v0c0.4,6,2.9,11.7,2.9,11.8l0.3,0.6l-0.6,0.2c-2.1,0.7-4.2,1.7-6,2.9c-1.4,1-2.6,2.1-3.8,3.3
			l-0.6,0.7l-0.4-0.9c0,0,0,0,0,0l0,0c0,0,0,0,0,0c0,0,0,0,0,0l0,0c-0.1-0.1-0.1-0.2-0.2-0.4l0-0.1c0,0-0.1-0.1-0.1-0.2c0,0,0,0,0,0
			l0,0c0,0-0.1-0.1-0.1-0.2c0,0,0-0.1-0.1-0.1c0,0,0,0,0,0c-0.1-0.1-0.1-0.2-0.1-0.2l0,0c0,0,0,0,0-0.1l0,0l0,0c0,0-0.1-0.1-0.1-0.1
			l0,0c0,0,0,0,0,0c0,0,0,0,0-0.1l0,0c0,0-0.1-0.1-0.1-0.1l0,0c0,0,0,0,0,0l0,0c0,0,0-0.1-0.1-0.1c0,0,0,0,0,0l0,0
			c-0.1-0.1-0.1-0.1-0.1-0.2c0,0,0,0-0.1-0.1l0,0c0,0,0,0,0,0c0,0-0.1-0.1-0.1-0.1c0,0,0,0-0.1-0.1l0,0c0,0-0.1-0.1-0.1-0.1
			l-0.1-0.1c-0.1-0.1-0.1-0.1-0.2-0.2c0,0,0,0-0.1-0.1l0,0c0,0,0,0,0,0l0,0c0,0,0,0,0,0l0,0c0,0,0,0-0.1-0.1c0,0-0.1,0-0.1-0.1l0,0
			c0,0,0,0,0,0h0l-0.1-0.1c0,0-0.1,0-0.1-0.1l0,0c0,0,0,0-0.1,0l0,0c0,0-0.1,0-0.1,0c-0.1-0.1-0.3-0.2-0.4-0.2c0,0-0.1,0-0.1,0l0,0
			c0,0,0,0,0,0l0,0c0,0-0.1,0-0.1,0c0,0,0,0,0,0c0,0-0.1,0-0.1,0l0,0c0,0-0.1,0-0.1,0l0,0c0,0-0.1,0-0.1,0l0,0c0,0-0.1,0-0.1,0
			c0,0-0.1,0-0.1,0l-0.1,0c0,0,0,0,0,0c0,0,0,0-0.1,0c0,0-0.1,0-0.1,0c0,0-0.1,0-0.1,0C96.7,138.5,96.2,138.4,95.6,138.4z"/>
	</g>
</g>
</svg>
