<?xml version="1.0" encoding="utf-8"?>
<!-- Generator: Adobe Illustrator 27.8.1, SVG Export Plug-In . SVG Version: 6.00 Build 0)  -->
<svg version="1.1" id="レイヤー_1" xmlns="http://www.w3.org/2000/svg" xmlns:xlink="http://www.w3.org/1999/xlink" x="0px"
	 y="0px" viewBox="0 0 295 174" style="enable-background:new 0 0 295 174;" xml:space="preserve">
<style type="text/css">
	.st0{fill:#D67FFF;}
	.st1{clip-path:url(#SVGID_00000059992528424715137990000013304422224850657677_);}
	.st2{fill:#FFFFFF;}
	.st3{fill:#FF71D4;}
	.st4{opacity:0.25;}
	.st5{fill:#F1C27D;}
	.st6{opacity:0.5;}
	.st7{fill:#E70054;}
	.st8{fill:#F900BF;}
</style>
<path class="st0" d="M10,0h275c5.5,0,10,4.5,10,10v154c0,5.5-4.5,10-10,10H10c-5.5,0-10-4.5-10-10V10C0,4.5,4.5,0,10,0z"/>
<g>
	<defs>
		<rect id="SVGID_1_" x="109" y="22" width="76.7" height="130.3"/>
	</defs>
	<clipPath id="SVGID_00000005950636855462723910000006006960167448086669_">
		<use xlink:href="#SVGID_1_"  style="overflow:visible;"/>
	</clipPath>
	<g style="clip-path:url(#SVGID_00000005950636855462723910000006006960167448086669_);">
		<path class="st2" d="M113.3,41.3c-0.7-1.1-2.9-4.7-2.5-9.7c0.3-4.1,2.2-7,3.5-8.6c0.4-0.5,1.1-0.3,1.2,0.3
			c0.3,1.5,0.8,3.3,1.7,5.3c1.1,2.4,2.5,4.2,3.6,5.4c-1.1,0.6-2.4,1.4-3.7,2.6C115.3,38.3,114.1,40,113.3,41.3z"/>
		<path d="M113.4,42.7l0.6-1c1-1.7,2.2-3.2,3.6-4.6c1.1-1,2.3-1.8,3.6-2.5l0.8-0.4l-0.6-0.7c-1.4-1.6-2.6-3.3-3.4-5.2
			c-0.8-1.6-1.3-3.3-1.6-5.1c-0.1-0.5-0.5-1-1-1.1c-0.5-0.1-1.1,0-1.4,0.5c-1.5,1.8-3.3,4.8-3.7,9c-0.4,4.8,1.5,8.5,2.6,10.2
			L113.4,42.7z M119.7,33.8c-1.1,0.7-2.1,1.4-3.1,2.3c-1.3,1.1-2.4,2.4-3.3,3.9c-1-1.8-2.1-4.7-1.8-8.3c0.3-3.7,2-6.5,3.3-8.2
			c0.3,1.9,0.9,3.7,1.7,5.4C117.4,30.6,118.5,32.3,119.7,33.8z"/>
		<path class="st3" d="M115.2,38.6c-0.5-0.9-1.1-2.1-1.4-3.7c-0.4-1.8-0.3-3.5,0-4.7c0.1-0.7,1-0.8,1.3-0.2c0,0,0,0,0,0
			c1,2.3,2.4,4,3.6,5.3C118.7,35.3,116.3,37.2,115.2,38.6z"/>
		<path d="M115.2,39.9l0.6-0.9c1-1.3,3.3-3.1,3.3-3.1l0.6-0.5l-0.5-0.6c-1.4-1.5-2.6-3.2-3.4-5.1l0,0c-0.3-0.6-0.8-0.9-1.4-0.8
			c-0.6,0.1-1.1,0.5-1.2,1.1c-0.3,1.7-0.3,3.4,0,5c0.3,1.4,0.8,2.7,1.5,3.9L115.2,39.9z M117.6,35.2c-0.6,0.5-1.5,1.3-2.3,2.1
			c-0.4-0.8-0.7-1.7-0.9-2.6c-0.3-1.4-0.3-2.9,0-4.4C115.3,32.1,116.3,33.8,117.6,35.2z"/>
		<g class="st4">
			<path d="M115.4,30.7c0,0-0.8,3.6,1.1,6.6l2-2L115.4,30.7z"/>
		</g>
		<g class="st4">
			<path d="M112.5,27.4c0,0-0.7,8.4,2.8,11.4l-2.1,2.2C113.1,41,109.3,32.7,112.5,27.4z"/>
		</g>
		<g class="st4">
			<path d="M115.5,29.4c0,0,2.5,3.7,5.3,4.6l-2.3,1.2L115.5,29.4z"/>
		</g>
		<path class="st2" d="M147,42.8c0.8-1,3.4-4.4,3.5-9.4c0.1-4.1-1.5-7.2-2.6-8.9c-0.3-0.5-1.1-0.4-1.2,0.2c-0.4,1.5-1.1,3.2-2.2,5.1
			c-1.4,2.3-2.9,3.9-4.1,5c1,0.7,2.2,1.7,3.4,3C145.4,39.6,146.4,41.4,147,42.8z"/>
		<path d="M146.8,44.1l0.7-0.9c1.3-1.6,3.5-5,3.6-9.9c0.1-4.2-1.4-7.4-2.7-9.3c-0.3-0.5-0.8-0.7-1.4-0.6c-0.5,0.1-1,0.5-1.1,1
			c-0.5,1.7-1.2,3.4-2.1,4.9c-1.1,1.8-2.4,3.4-4,4.8l-0.7,0.6l0.8,0.5c1.2,0.8,2.3,1.8,3.3,2.9c1.3,1.5,2.4,3.1,3.1,4.9L146.8,44.1z
			 M147.3,24.9c1.2,1.8,2.5,4.7,2.5,8.5c-0.1,3.6-1.5,6.4-2.6,8.1c-0.8-1.5-1.7-2.9-2.9-4.2c-0.9-1-1.8-1.8-2.8-2.6
			c1.4-1.4,2.6-2.9,3.6-4.6C146,28.5,146.8,26.7,147.3,24.9z"/>
		<path class="st3" d="M145.4,39.9c0.6-0.8,1.3-2,1.8-3.5c0.6-1.8,0.6-3.4,0.5-4.7c-0.1-0.7-0.9-0.9-1.3-0.3c0,0,0,0,0,0
			c-1.3,2.2-2.8,3.8-4.1,4.9C142.3,36.3,144.5,38.4,145.4,39.9z"/>
		<path d="M145.4,41.2l0.6-0.9c0.8-1.1,1.5-2.4,1.9-3.7c0.5-1.6,0.7-3.3,0.5-5c-0.1-0.6-0.5-1.1-1.1-1.3c-0.6-0.1-1.2,0.1-1.5,0.7
			l0,0c-1,1.8-2.4,3.3-3.9,4.7l-0.6,0.5l0.6,0.5c0,0,2.1,2.1,3,3.5L145.4,41.2z M147,31.8c0.1,1.5,0,3-0.5,4.4
			c-0.3,0.9-0.6,1.7-1.1,2.5c-0.7-0.9-1.5-1.8-2-2.3C144.8,35,146,33.5,147,31.8z"/>
		<g class="st4">
			<path d="M146,32c0,0,0.5,3.6-1.8,6.4l-1.8-2.2L146,32z"/>
		</g>
		<g class="st4">
			<path d="M149.3,29.1c0,0-0.1,8.4-3.9,11l1.8,2.4C147.3,42.5,151.9,34.6,149.3,29.1z"/>
		</g>
		<g class="st4">
			<path d="M146.1,30.7c0,0-2.8,3.4-5.8,4l2.1,1.5L146.1,30.7z"/>
		</g>
		<path class="st2" d="M110.4,62.5c0.7,1.1,0.8,2.4,0.5,3.7c-1,3.5-0.1,4.6,1,4.8c2,0.3,1.9,1.6,2.3,3c0.5,1.7-0.7,2.2-0.8,4.9
			c-0.1,2.8,1.1,3.5,0.4,5.2c-0.7,1.6-2.1,1.9-2,2.9c0.1,0.8,1.4,0.7,2,1.6c1.4,1.9-1.9,4.5-1,8c0.5,2,1.9,2.2,2.1,4.4
			c0.1,1,0.4,1.3-0.6,3.2c-1.1,1.9-1.1,4.2,0,5.8c0.6,1,1.5,1.5,2.2,1.9c0.8,0.4,1.3,1.2,1.3,2.1c0,0.6,0.1,1.4,0.6,2.1
			c0.4,0.6,1,1.1,1.6,1.3c0.9,0.4,1.4,1.5,0.9,2.4c-0.6,1.2-0.6,2.4-0.1,3.3c0,0,0,0,0,0c0.4,0.6,1,0.9,1.6,1.1
			c0.7,0.2,1.3,0.7,1.7,1.4c0.6,1.1,1.6,2.5,2.9,3.9c2,2.1,4.2,3.2,5.6,3.8c0,0,0,0,0,0c0.2,0.1,0.3,0.2,0.3,0.4
			c-0.1,6.9,1.8,12.6,3.3,16c0.8,1.8,3.3,2.1,4.5,0.5c4.8-6.4,5.1-15.3,5.1-15.3c4.2,1.5,8.5,1.9,12.2,1.9
			c6.6-0.1,11.5-1.8,11.7-1.9c0,0,0,0,0,0c-0.6,2.1-1.5,6.1-0.5,11c0.3,1.6,0.8,3.1,1.3,4.3c0.7,1.6,2.8,2,4,0.6
			c1.1-1.2,2.2-2.9,2.9-5.1c0.3-0.9,0.5-1.7,0.6-2.5c0.1-0.6,0.5-1.1,1.1-1.2c0.7-0.1,0.9-1.6,1-2.9c0-0.6,0.6-1,1.2-0.8
			c2.6,0.9,1.7-8.5,1.7-8.5c4-12,1.2-19.5-0.7-22.8c-0.7-1.3-0.7-2.8,0-4.1c2.5-4-2.5-3.7-5.4-3.2c-0.5,0.1-0.8-0.5-0.5-0.9
			c1.6-2-2.9-1.8-5.5-1.5c-1,0.1-2,0.1-3-0.2c-3.2-0.9-6.9-0.9-10-0.8c-3.4,0.2-7.7-3.5-7.7-6.3c0-1.2,0.8-2.5,0-4.2
			c-0.3-0.7-0.7-1-0.6-1.6c0.1-1.2,1.4-1.5,1.3-2.4c-0.1-0.8-1-0.7-1.5-1.7c-0.6-1.2,0.8-2.1,0.8-4.2c0.1-2.1-1.2-3.3-0.5-4.1
			c0.5-0.6,1.7-0.3,1.9-0.7c0.1-0.4-0.8-0.7-1.3-1.6c-0.9-1.7,1.3-3.6-0.1-4.9c-1.3-1.1-1.3-2.1-1-2.9c0.3-0.9,1.3-0.7,1.6-1.5
			c0.5-1.3-1.7-2.9-1.2-3.9c0.3-0.6,1.3-0.3,1.7-0.9c0.6-0.9-0.9-2.8-1.9-4.4c-2.3-3.7-1.1-5.1-2.8-8.8c-2-4.4-5.7-6.8-6.8-7.5
			c-5.1-3.1-10.2-2.6-12.2-2.4c-16.8,1.7-16.9,17.3-16.5,22.7c0.1,1.1-0.2,2.1-0.8,3C109.2,59.6,109.7,61.3,110.4,62.5z"/>
		<path d="M172.8,152.3c0.9,0,1.7-0.4,2.3-1.1c1.4-1.6,2.4-3.4,3-5.3c0.3-0.8,0.5-1.7,0.6-2.6c0-0.3,0.3-0.5,0.5-0.6
			c1.3-0.2,1.5-2.1,1.6-3.6c0-0.1,0.1-0.1,0.1-0.1c0,0,0.1,0,0.1,0c0.6,0.2,1.1,0.1,1.5-0.2c0.5-0.4,1.2-1.4,1.3-5.2
			c0-1.7-0.1-3.2-0.2-3.7c4-12.2,1.2-19.8-0.8-23.3c-0.6-1-0.6-2.3,0-3.3c0.9-1.4,1-2.5,0.5-3.3c-0.5-0.8-1.5-1.2-3.1-1.2
			c-0.9,0-1.9,0-3.1,0.2c0.4-0.6,0.3-1.1,0.1-1.5c-0.4-0.7-1.5-1.4-6.4-0.8c-0.9,0.1-1.9,0-2.7-0.2c-2.8-0.7-6.2-1-10.2-0.8
			c-1.5,0.1-3.5-0.8-5-2.3c-1.2-1.1-1.9-2.4-1.9-3.4c0-0.3,0.1-0.7,0.1-1.1c0.2-0.9,0.4-2.1-0.2-3.4c-0.1-0.2-0.2-0.4-0.3-0.6
			c-0.2-0.3-0.3-0.4-0.2-0.7c0-0.3,0.2-0.6,0.5-0.9c0.4-0.4,0.8-0.9,0.8-1.6c-0.1-0.7-0.6-1.1-0.9-1.3c-0.3-0.2-0.5-0.3-0.6-0.6
			c-0.2-0.3-0.1-0.6,0.2-1.3c0.3-0.7,0.6-1.5,0.7-2.6c0-1.2-0.3-2.1-0.5-2.7c-0.1-0.4-0.3-0.8-0.2-0.9c0.1-0.1,0.4-0.2,0.7-0.2
			c0.4-0.1,1.1-0.1,1.3-0.8c0.2-0.7-0.3-1.1-0.7-1.4c-0.2-0.2-0.5-0.4-0.7-0.8c-0.3-0.5-0.1-1,0.1-1.9c0.2-0.5,0.3-1,0.3-1.5
			c0-0.7-0.2-1.2-0.7-1.7c-1-0.9-1-1.5-0.8-2.1c0.1-0.2,0.2-0.2,0.5-0.4c0.4-0.2,0.9-0.5,1.1-1.1c0.4-1-0.2-2-0.7-2.8
			c-0.2-0.3-0.4-0.6-0.5-0.8c-0.1-0.1-0.1-0.2,0-0.2c0,0,0,0,0,0c0.1,0,0.3-0.1,0.4-0.1c0.4-0.1,1-0.2,1.3-0.8
			c0.8-1.2-0.3-2.8-1.3-4.3c-0.2-0.3-0.4-0.6-0.6-0.9c-1.2-1.9-1.4-3.2-1.6-4.6c-0.2-1.1-0.4-2.4-1.2-4.2c-0.9-2-2.2-3.8-3.9-5.4
			c-1-0.9-2.1-1.8-3.2-2.4c-5.3-3.2-10.7-2.7-12.7-2.5c-4,0.4-7.4,1.6-10.1,3.6c-2.3,1.7-4,4-5.2,6.7c-2.1,4.9-2.1,10.3-1.9,13.1
			c0.1,0.9-0.2,1.8-0.7,2.5c-0.6,1-0.9,2-0.8,3.1c0.1,0.8,0.3,1.6,0.8,2.4c0.6,0.9,0.7,2.1,0.4,3.1c-0.6,2.2-0.6,3.8,0,4.7
			c0.3,0.5,0.9,0.9,1.6,1c1.2,0.2,1.3,0.6,1.5,1.7c0.1,0.3,0.1,0.5,0.2,0.8c0.2,0.7,0.1,1.1-0.2,1.8c-0.3,0.7-0.6,1.5-0.6,2.9
			c-0.1,1.4,0.2,2.3,0.4,3.1c0.2,0.8,0.3,1.2,0.1,1.8c-0.3,0.6-0.7,1-1.1,1.4c-0.5,0.5-1.1,1-0.9,1.9c0.1,0.8,0.8,1.1,1.3,1.3
			c0.3,0.2,0.7,0.3,0.9,0.6c0.4,0.6,0.1,1.3-0.4,2.6c-0.6,1.4-1.3,3.1-0.7,5.1c0.3,1,0.7,1.6,1.1,2.2c0.5,0.6,0.8,1.1,0.9,2.1
			c0,0.2,0,0.4,0.1,0.6c0.1,0.6,0.1,0.9-0.6,2.3c-0.6,1.1-0.9,2.2-0.9,3.4c0,1.2,0.3,2.3,0.9,3.2c0.6,0.9,1.5,1.6,2.6,2.1
			c0.5,0.2,0.9,0.8,0.9,1.4c0,0.9,0.2,1.8,0.7,2.5c0.5,0.7,1.1,1.3,2,1.6c0.3,0.1,0.5,0.4,0.6,0.6c0.1,0.3,0.1,0.6,0,0.8
			c-0.7,1.4-0.7,2.9,0,3.9c0,0,0,0,0,0.1c0.4,0.7,1.1,1.1,2,1.4c0.6,0.2,1,0.5,1.3,1c0.8,1.5,1.8,2.8,3,4c1.6,1.6,3.5,2.9,5.7,3.9
			c0,6.8,1.8,12.5,3.3,16.1c0.5,1.1,1.5,1.8,2.7,2c1.2,0.1,2.3-0.3,3-1.3c1.1-1.5,2.1-3.3,2.9-5.3c0.6-1.6,1.2-3.3,1.5-5.1
			c0.4-1.9,0.6-3.5,0.7-4.4c3.6,1.1,7.5,1.7,11.6,1.6c4.8-0.1,8.8-1,10.7-1.5c-0.8,3.3-0.9,6.8-0.2,10.1c0.3,1.5,0.8,3,1.4,4.4
			c0.4,1,1.3,1.7,2.3,1.8C172.5,152.3,172.6,152.3,172.8,152.3z M179,141.3c-0.9,0.2-1.5,0.9-1.7,1.8c-0.1,0.8-0.3,1.6-0.5,2.4
			c-0.6,1.8-1.5,3.4-2.7,4.8c-0.4,0.4-0.9,0.6-1.5,0.6c-0.6-0.1-1-0.5-1.3-1c-0.6-1.3-1-2.7-1.3-4.1c-0.7-3.5-0.5-7.2,0.5-10.7
			l0.4-1.4l-1.3,0.5c-0.2,0.1-5,1.7-11.5,1.8c-4.3,0.1-8.4-0.5-12-1.8l-0.9-0.3l0,1c0,0-0.1,2.2-0.7,5.1c-0.6,2.7-1.8,6.5-4.2,9.7
			c-0.4,0.5-1.1,0.8-1.7,0.7c-0.7-0.1-1.2-0.5-1.5-1.1c-1.5-3.5-3.3-9.1-3.2-15.7c0-0.5-0.3-0.9-0.7-1.1l0,0c-2-0.9-3.8-2.1-5.4-3.6
			c-1.1-1.1-2-2.3-2.8-3.7c-0.5-0.8-1.2-1.4-2.1-1.7c-0.6-0.2-1-0.4-1.2-0.8l0,0c0,0,0,0,0,0c-0.4-0.6-0.4-1.6,0.1-2.6
			c0.3-0.6,0.3-1.3,0.1-2c-0.2-0.7-0.8-1.2-1.4-1.5c-0.6-0.2-1-0.6-1.3-1.1c-0.3-0.5-0.5-1.1-0.5-1.7c0-1.2-0.7-2.3-1.7-2.8
			c-0.8-0.4-1.5-0.9-1.9-1.6c-0.9-1.4-0.9-3.4,0.1-5.1c0.9-1.6,0.9-2.3,0.8-3.2c0-0.2,0-0.3-0.1-0.5c-0.1-1.4-0.7-2.2-1.2-2.9
			c-0.4-0.5-0.7-0.9-0.9-1.7c-0.4-1.5,0.1-2.9,0.7-4.2c0.5-1.4,1.1-2.8,0.2-4c-0.4-0.6-1-0.9-1.5-1.1c-0.2-0.1-0.4-0.2-0.5-0.2
			c0,0,0,0,0,0c0-0.1,0.3-0.4,0.5-0.6c0.4-0.4,1-1,1.4-1.9c0.5-1.1,0.3-1.9,0-2.8c-0.2-0.7-0.4-1.4-0.4-2.6c0.1-1.1,0.3-1.8,0.6-2.5
			c0.3-0.8,0.6-1.6,0.2-2.7c-0.1-0.2-0.1-0.5-0.2-0.7c-0.3-1.1-0.6-2.4-2.7-2.8c-0.3,0-0.5-0.2-0.6-0.4c-0.2-0.3-0.5-1.2,0.2-3.6
			c0.4-1.4,0.2-3-0.6-4.3v0c-0.8-1.3-0.8-2.7,0-3.9c0.7-1,1-2.3,0.9-3.5c-0.5-6.1,0-20.3,15.9-21.9c1.9-0.2,6.9-0.7,11.8,2.3
			c1.3,0.8,4.7,3.2,6.5,7.2c0.7,1.6,0.9,2.7,1.1,3.8c0.2,1.4,0.5,2.9,1.8,5.1c0.2,0.3,0.4,0.6,0.6,0.9c0.4,0.6,0.9,1.3,1.1,1.9
			c0.3,0.6,0.2,0.8,0.2,0.8c0,0.1-0.3,0.1-0.4,0.2c-0.4,0.1-1,0.2-1.3,0.8c-0.5,0.9,0.1,1.7,0.6,2.5c0.3,0.5,0.7,1.1,0.6,1.5
			c-0.1,0.1-0.2,0.2-0.5,0.4c-0.4,0.2-0.9,0.5-1.2,1.2c-0.5,1.3-0.1,2.6,1.2,3.7c0.3,0.3,0.3,0.6,0,1.6c-0.3,0.9-0.6,2,0,3
			c0.2,0.4,0.5,0.7,0.7,0.9c-0.4,0.1-0.9,0.2-1.2,0.6c-0.6,0.7-0.3,1.5-0.1,2.3c0.2,0.6,0.5,1.3,0.4,2.2c0,0.9-0.3,1.5-0.5,2.1
			c-0.3,0.8-0.7,1.5-0.2,2.5c0.3,0.6,0.8,0.9,1.1,1.2c0.1,0.1,0.3,0.2,0.3,0.2c0,0,0,0,0,0c0,0.1-0.2,0.3-0.4,0.5
			c-0.4,0.4-0.9,0.9-0.9,1.8c0,0.7,0.2,1.1,0.4,1.5c0.1,0.2,0.2,0.3,0.3,0.5c0.4,0.9,0.3,1.7,0.1,2.5c-0.1,0.4-0.2,0.9-0.2,1.4
			c0,1.4,0.9,3,2.4,4.4c1.8,1.7,4.2,2.7,6.1,2.6c3.8-0.2,7.1,0,9.8,0.7c1.1,0.3,2.1,0.4,3.3,0.2c3.7-0.4,4.7-0.1,5,0.1
			c0,0.1-0.1,0.1-0.2,0.2c-0.3,0.4-0.4,1-0.1,1.4c0.3,0.4,0.8,0.7,1.3,0.6c3.3-0.5,4.9-0.1,5.2,0.4c0.2,0.3,0,1-0.5,1.8
			c-0.9,1.5-0.9,3.3-0.1,4.8c1.9,3.3,4.6,10.5,0.7,22.3l0,0.1l0,0.2c0,0,0.2,1.8,0.2,3.7c0,3.4-0.6,4-0.7,4.1c0,0-0.1,0-0.2,0
			c-0.5-0.2-1-0.1-1.4,0.2c-0.4,0.3-0.7,0.7-0.7,1.3C179.3,140.8,179.1,141.3,179,141.3z"/>
		<path class="st2" d="M121.4,135.4c0.6,3.3,1.6,6.2,2.7,8.4c0.7,1.5,2.7,1.8,3.7,0.5c2.4-3,4-7.3,5-10.6c0.1-0.2,0-0.5-0.3-0.6
			c-1.4-0.6-3.3-1.7-5.2-3.6c-1.3-1.3-2.3-2.7-2.9-3.9c-0.4-0.7-1-1.1-1.7-1.4c-0.6-0.2-1.2-0.5-1.6-1.1
			C120.6,126,120.4,130.3,121.4,135.4z"/>
		<path d="M126,145.8c0.9,0,1.7-0.4,2.2-1.1c2.5-3.1,4.2-7.7,5.1-10.9c0.2-0.6-0.1-1.2-0.7-1.4c-1.9-0.8-3.6-2-5-3.5
			c-1.1-1.1-2-2.3-2.8-3.7c-0.5-0.8-1.2-1.4-2.1-1.7c-0.6-0.2-1-0.4-1.2-0.8l-1.1-1.6l-0.2,1.9c-0.5,4.2-0.4,8.4,0.4,12.5
			c0.6,2.9,1.5,5.8,2.7,8.6c0.4,0.9,1.3,1.6,2.3,1.7C125.8,145.8,125.9,145.8,126,145.8z M132,133.6c-0.9,3.1-2.5,7.3-4.8,10.2
			c-0.3,0.4-0.8,0.6-1.3,0.5c-0.5-0.1-0.9-0.4-1.2-0.9c-1.2-2.6-2.1-5.4-2.6-8.3c-0.7-3.5-0.9-7.1-0.5-10.7c0.3,0.1,0.5,0.3,0.9,0.4
			c0.6,0.2,1,0.5,1.3,1c0.8,1.5,1.8,2.8,3,4C128.2,131.5,130,132.7,132,133.6z"/>
		<path class="st2" d="M158.1,136.8c0,0.2,0.1,0.5,0.1,0.7c0.7,3.4,1.7,6.3,2.7,8.6c0.6,1.4,2.5,1.7,3.5,0.5
			c2.7-3.3,4.4-8.1,5.3-11.6C169.6,135,164.7,136.6,158.1,136.8z"/>
		<path d="M162.9,148c0.8,0,1.6-0.4,2.1-1c2.7-3.3,4.5-8.3,5.5-11.9l0.4-1.3l-1.3,0.4c-0.2,0.1-5,1.7-11.5,1.8l-0.8,0l0.1,0.8
			c0,0.2,0.1,0.5,0.1,0.7c0.6,3,1.5,5.9,2.8,8.7c0.4,0.9,1.2,1.5,2.2,1.6C162.6,148,162.8,148,162.9,148z M168.8,136
			c-1,3.3-2.6,7.3-4.8,10.1c-0.3,0.4-0.7,0.5-1.2,0.5c-0.5-0.1-0.9-0.4-1.1-0.8c-1.2-2.7-2.1-5.5-2.7-8.3
			C163.4,137.3,167,136.5,168.8,136z"/>
		<path class="st5" d="M120,41.2c-2,0.8-3,2.5-3.6,3.5c-2.8,4.7-2.2,12.1,2.1,16.9c4.3,4.8,10.5,4.9,11.9,4.9c1,0,8-0.3,12.3-6
			c3.8-5.1,4.3-13.1,0.5-17c-1.7-1.8-3.9-2.3-4.2-2.4c-3.7-0.9-4.7,1.4-9,1.5C124.9,42.7,123.3,39.8,120,41.2z"/>
		<path d="M130.1,67.2c0.1,0,0.2,0,0.3,0c0.8,0,2.8-0.1,5.1-0.9c1.4-0.5,2.8-1.1,4-1.9c1.5-1,2.7-2.1,3.8-3.5c1.9-2.6,3.1-6,3.2-9.4
			c0.1-3.5-0.8-6.6-2.8-8.6c-1.8-1.9-4.1-2.5-4.6-2.6c-2.2-0.5-3.6,0-5.1,0.6c-1.1,0.4-2.3,0.9-4.1,0.9c-2.2,0.1-3.7-0.5-5-1
			c-1.6-0.6-3.1-1.2-5.2-0.3c-2.2,0.9-3.4,2.9-4,3.8c-1.5,2.4-2.1,5.6-1.7,8.9c0.4,3.4,1.8,6.5,3.9,8.9c1.9,2.2,4.4,3.7,7.4,4.5
			C127.2,67.1,128.9,67.2,130.1,67.2z M137.4,41.5c0.4,0,0.9,0.1,1.4,0.2c0.4,0.1,2.3,0.6,3.9,2.2c3.4,3.6,3.1,11.1-0.6,16.1
			c-3.9,5.3-10.5,5.7-11.7,5.7c-2.1,0-7.5-0.3-11.3-4.7c-3.9-4.4-4.8-11.5-2.1-16.1c0.5-0.9,1.5-2.5,3.3-3.2
			c1.5-0.6,2.6-0.2,4.1,0.3c1.4,0.5,3.1,1.2,5.6,1.1c2.1-0.1,3.4-0.6,4.6-1C135.5,41.9,136.3,41.5,137.4,41.5z"/>
		<g class="st6">
			<path class="st2" d="M143.6,55.8c0,0-3.2,9.6-13.1,10c0,0,11.9,1.1,15.1-12.3L143.6,55.8z"/>
		</g>
		<path d="M130.1,67.2c0.1,0,0.2,0,0.3,0c0.8,0,2.8-0.1,5.1-0.9c1.4-0.5,2.8-1.1,4-1.9c1.5-1,2.7-2.1,3.8-3.5c1.9-2.6,3.1-6,3.2-9.4
			c0.1-3.5-0.8-6.6-2.8-8.6c-1.8-1.9-4.1-2.5-4.6-2.6c-2.2-0.5-3.6,0-5.1,0.6c-1.1,0.4-2.3,0.9-4.1,0.9c-2.2,0.1-3.7-0.5-5-1
			c-1.6-0.6-3.1-1.2-5.2-0.3c-2.2,0.9-3.4,2.9-4,3.8c-1.5,2.4-2.1,5.6-1.7,8.9c0.4,3.4,1.8,6.5,3.9,8.9c1.9,2.2,4.4,3.7,7.4,4.5
			C127.2,67.1,128.9,67.2,130.1,67.2z M137.4,41.5c0.4,0,0.9,0.1,1.4,0.2c0.4,0.1,2.3,0.6,3.9,2.2c3.4,3.6,3.1,11.1-0.6,16.1
			c-3.9,5.3-10.5,5.7-11.7,5.7c-2.1,0-7.5-0.3-11.3-4.7c-3.9-4.4-4.8-11.5-2.1-16.1c0.5-0.9,1.5-2.5,3.3-3.2
			c1.5-0.6,2.6-0.2,4.1,0.3c1.4,0.5,3.1,1.2,5.6,1.1c2.1-0.1,3.4-0.6,4.6-1C135.5,41.9,136.3,41.5,137.4,41.5z"/>
		<g class="st4">
			<path d="M182.3,106.9c2.6,5.2,3,9.3,2.8,12.2c-0.2,3.3-1.2,5.2-2,10.6c-0.5,3.5-0.6,6.3-0.7,8.2l-1.8,0.5l-0.4,1
				c0.1,2.3-1.9,3.2-1.9,3.2s0.5-0.5-1.6,5.1c-2.1,5.6-5.3,3.3-5.3,3.3c-4.6-7.9-1.5-16.2-1.5-16.2c-10.4,3.4-23.8,0.4-23.8,0.4
				c-0.9,8.3-5.1,14.9-5.1,14.9s-2.4,2.8-5-1.6c-2.6-4.5-3.1-15.3-3.1-15.3c-5.4-1.8-9.3-8.6-9.3-8.6c-2.9-0.7-3.3-3.5-3.3-3.5
				c1.6-2.8,0.4-3.4,0.4-3.4s-2.6-1.4-2.8-3.5c-0.3-2.1-1.3-2.5-1.3-2.5c-4.7-3.3-1.8-7.1-1.8-7.1c0,0.4,0.2,2.7,2.1,4.4
				c0.8,0.7,1.6,1,2.3,1.2c0.8,0.2,1.4,1,1.4,1.8c0,1.8,0.7,3.4,2,4.3c0.2,0.1,0.5,0.3,0.8,0.4c0.6,0.2,1.1,0.7,1.1,1.4
				c0.1,0.6,0.3,1.3,0.8,1.7c0.5,0.5,1.1,0.8,1.8,0.8c0.7,0.1,1.3,0.6,1.5,1.4c0.2,1.3,0.7,2.7,1.8,3.8c1.7,1.6,3.2,0.9,4.7,2.4
				c1.5,1.6,0.6,3.2,1.5,8.1c0.1,0.4,1.2,6.8,2.6,6.7c0.2,0,0.8-0.2,1.9-4c1.9-6.6,1.1-9.1,2.6-9.9c1.6-0.8,3.2,1.8,8.8,2.8
				c1.2,0.2,2.2,0.3,3,0.3c9.4,0.5,15.7-3.8,17.2-1.9c0.3,0.5,0,0.7-0.1,2.7c-0.4,4.7,0.9,8.6,1.6,8.6c0.6,0,0.8-3.3,2.2-3.6
				c0.4-0.1,0.7,0.1,1-0.1c0.5-0.4,0-1.3,0.4-2.3c0.4-1.1,1.2-1.1,1.9-1.9c1.1-1.5-0.3-3.2-0.5-6.1c-0.2-2.6,0.8-2.6,1.7-7.1
				c0.4-2.3,0.9-4.5,0.5-7.1c-0.2-1.4-0.8-3.9-2.8-6.7c-0.5-0.7-0.7-1.6-0.5-2.4c0.3-1.1,0.1-2.4-3.2-1.9c-0.5,0.1-1-0.3-1-0.9
				c0-1.1-0.4-2.5-3.4-1.8c-1.4,0.4-3,0.4-4.4,0.2c-2.2-0.3-5.3-0.7-8.2-0.6c-2,0.1-4-0.6-5.5-1.9c-1.8-1.6-3.4-4.3-2.4-8.3
				c0,0,0.6,8.1,14,7.2l5,0.9l7.1-0.4c0,0,1.3,0.7,0.2,2.2l5.3,0.5c0,0,0.8,0.2,1.1,0.9c0.4,0.7-0.1,1.6-0.4,2.4
				C182,103.8,181.8,105.1,182.3,106.9z"/>
		</g>
		<g class="st4">
			<path d="M158.6,139.1c0,0,9.4,1.2,2,6l1,1.7l2.4,0.5c0,0,5-7.4,6.4-12.4c0,0-6.7,1.5-12.2,1.9L158.6,139.1z"/>
		</g>
		<g class="st4">
			<path d="M120.7,129.4c0,0,12.1,5.8,2.6,12.7l1.7,2.7c0,0,1.9,1,3.2-1.3c1.3-2.3,4.5-10.2,4.5-10.2s-4.4-2.5-8-7.4
				c0,0-1.2-1.6-3.8-2.8L120.7,129.4z"/>
		</g>
		<path d="M135.1,50.9c0-1.6,1-2.9,2.3-2.9s2.4,1.3,2.4,2.9c0,1.6-1,2.9-2.3,2.9C136.2,53.8,135.1,52.5,135.1,50.9z"/>
		<path d="M137.5,54.3C137.5,54.3,137.5,54.3,137.5,54.3c0.8,0,1.5-0.4,2.1-1.1c0.5-0.6,0.8-1.5,0.8-2.4c0-0.9-0.3-1.7-0.8-2.4
			c-0.5-0.7-1.3-1-2-1c0,0,0,0,0,0c-1.6,0-2.8,1.6-2.8,3.5c0,0.9,0.3,1.7,0.8,2.4C136,54,136.7,54.3,137.5,54.3z M137.4,48.5
			c0.5,0,0.9,0.2,1.3,0.7c0.4,0.5,0.6,1.1,0.6,1.7c0,0.7-0.2,1.3-0.6,1.7c-0.3,0.4-0.8,0.7-1.3,0.7c-0.5,0-0.9-0.2-1.3-0.7
			c-0.4-0.5-0.6-1.1-0.6-1.7C135.6,49.6,136.4,48.5,137.4,48.5C137.4,48.5,137.4,48.5,137.4,48.5z"/>
		<path class="st2" d="M135.8,50.1c0,0.7,0.5,1.3,1,1.3c0.6,0,1-0.6,1-1.3c0-0.7-0.5-1.3-1-1.3C136.2,48.8,135.8,49.4,135.8,50.1z"
			/>
		<path d="M123.1,53.7c-1.3-0.1-2.3-1.4-2.2-3c0.1-1.6,1.2-2.9,2.5-2.8c1.3,0.1,2.3,1.4,2.2,3C125.5,52.5,124.4,53.8,123.1,53.7z"/>
		<path d="M123.2,54.3c0.7,0,1.4-0.3,2-1c0.5-0.6,0.9-1.5,0.9-2.3c0.1-1.9-1.1-3.5-2.7-3.5c-0.8,0-1.5,0.3-2.1,1
			c-0.5,0.6-0.9,1.5-0.9,2.3c-0.1,1.9,1.1,3.5,2.7,3.5C123.2,54.2,123.2,54.3,123.2,54.3z M123.3,48.4
			C123.3,48.4,123.3,48.4,123.3,48.4c1.1,0,1.9,1.2,1.8,2.5c0,0.7-0.3,1.3-0.6,1.7c-0.4,0.4-0.8,0.6-1.3,0.6c-1,0-1.8-1.2-1.7-2.5
			c0-0.7,0.3-1.3,0.6-1.7C122.4,48.6,122.9,48.4,123.3,48.4z"/>
		<path class="st2" d="M125,50.1c0,0.7-0.5,1.3-1.1,1.2c-0.6,0-1-0.6-1-1.3c0-0.7,0.5-1.3,1.1-1.2C124.6,48.8,125,49.4,125,50.1z"/>
		<path d="M133.1,54.9c0.2,0.8-1.4,2.3-3,2.2c-1.5-0.1-2.9-1.4-2.7-2.2c0.2-0.9,2.5-1,2.7-1C131.1,53.9,132.9,54.1,133.1,54.9z"/>
		<path d="M130.2,57.3c0,0-0.1,0-0.1,0c-1.1,0-2-0.7-2.5-1.3c-0.3-0.4-0.4-0.7-0.3-1c0.2-1,2.5-1.1,2.8-1.1c0.8,0,2.9,0.1,3.1,1.1
			c0.1,0.3-0.1,0.7-0.4,1.1C132.3,56.6,131.3,57.3,130.2,57.3z M130.2,54c0,0-0.1,0-0.1,0c-0.8,0-2.5,0.3-2.6,1
			c-0.1,0.2,0,0.5,0.3,0.8c0.4,0.6,1.3,1.2,2.4,1.3c1.1,0,2.1-0.6,2.6-1.2c0.3-0.3,0.4-0.7,0.3-0.9C132.8,54.3,131.3,54,130.2,54z"
			/>
		<path d="M129.8,59.1L129.8,59.1c0,0.1,0,0.1,0,0.1c0,0,0,0.1,0,0.1c0,0.1,0,0.1,0,0.2c0,0.1,0,0.1,0,0.2l0,0.1l0,0.1
			c0.1,0.3,0.1,0.5,0.3,0.8c0.1,0.1,0.1,0.3,0.2,0.4l0.1,0.1l0,0l0,0c0,0,0,0.1,0.1,0.1c0,0,0.1,0.1,0.1,0.1
			c0.1,0.1,0.2,0.2,0.4,0.3c0,0,0.1,0,0.1,0.1c0,0,0.1,0,0.1,0.1l0.1,0c0,0,0.1,0,0.1,0l0.1,0l0.1,0c0,0,0,0,0.1,0l0.1,0l0.1,0
			c0,0,0,0,0.1,0c0,0,0.1,0,0.1,0c0,0,0.1,0,0.1,0c0.1,0,0.1,0,0.2,0c0.1,0,0.1,0,0.2,0c0,0,0.1,0,0.1,0l0.1,0l0.1,0l0,0l0,0l0,0
			c0,0,0.1,0,0.1,0c0.1,0,0.1,0,0.2-0.1c0.1-0.1,0.3-0.1,0.4-0.2c0.1-0.1,0.2-0.2,0.3-0.3c0.2-0.3,0.2-0.5,0.2-0.8
			c-0.1,0.1-0.2,0.2-0.3,0.3c-0.1,0.1-0.2,0.2-0.3,0.2c-0.2,0.1-0.4,0.2-0.6,0.3c0,0-0.1,0-0.1,0c0,0,0,0-0.1,0c0,0,0,0,0,0
			c0,0,0,0,0,0l0,0l0,0l0,0l-0.1,0c0,0-0.1,0-0.1,0c-0.1,0-0.1,0-0.2,0c-0.1,0-0.1,0-0.2,0c0,0-0.1,0-0.1,0c0,0-0.1,0-0.1,0
			c0,0,0,0,0,0l0,0l-0.1,0c0,0,0,0,0,0l0,0l-0.1,0c-0.2-0.1-0.3-0.2-0.5-0.3c0,0,0,0-0.1-0.1c0,0,0,0-0.1-0.1l0,0l0,0l0-0.1
			c-0.1-0.1-0.1-0.2-0.2-0.3c0,0,0-0.1-0.1-0.1c0,0,0,0,0-0.1c0,0,0,0,0-0.1c0-0.1-0.1-0.2-0.1-0.3c0-0.1-0.1-0.2-0.1-0.3
			c0-0.1,0-0.1,0-0.2l0-0.2l0,0c0-0.2-0.2-0.3-0.4-0.3C130,58.9,129.9,59,129.8,59.1z"/>
		<path d="M129.8,59.2l0,0.2c0,0.1,0,0.1,0,0.2c0,0.1,0,0.1,0,0.2c0,0.1,0,0.1,0,0.2c0,0,0,0.1,0,0.1c0,0,0,0.1,0,0.1l0,0.1l0,0.1
			c0,0,0,0.1,0,0.1l0,0.1c0,0,0,0.1-0.1,0.1c0,0.1-0.1,0.2-0.2,0.3c0,0,0,0,0,0.1c0,0,0,0,0,0.1c0,0-0.1,0.1-0.1,0.1
			c0,0,0,0-0.1,0.1l-0.1,0l0,0c0,0,0,0,0,0c0,0,0,0-0.1,0c0,0,0,0-0.1,0l-0.1,0l-0.1,0c0,0,0,0-0.1,0c-0.2,0.1-0.4,0.1-0.6,0.1
			l-0.2,0c0,0-0.1,0-0.1,0l-0.1,0l0,0l0,0c0,0,0,0,0,0c0,0,0,0,0,0c0,0,0,0-0.1,0c0,0-0.1,0-0.1,0c-0.2-0.1-0.4-0.1-0.5-0.2
			c-0.1-0.1-0.2-0.1-0.3-0.2l-0.1-0.1l-0.1-0.1c0,0,0,0-0.1-0.1c0,0,0,0-0.1-0.1c-0.1,0.3,0,0.6,0.1,0.8c0.1,0.1,0.2,0.2,0.3,0.3
			c0.1,0.1,0.2,0.2,0.4,0.2c0.1,0,0.1,0.1,0.2,0.1c0,0,0.1,0,0.1,0l0,0l0,0l0,0l0.1,0l0.1,0c0,0,0.1,0,0.1,0l0.2,0
			c0.3,0,0.6-0.1,0.9-0.2c0,0,0.1,0,0.1,0l0.1,0l0.1-0.1c0,0,0.1,0,0.1-0.1c0,0,0.1,0,0.1-0.1c0,0,0,0,0,0l0,0l0.1-0.1
			c0,0,0.1-0.1,0.1-0.1c0.1-0.1,0.2-0.2,0.3-0.3c0,0,0-0.1,0.1-0.1l0,0l0,0l0.1-0.1l0-0.1c0,0,0-0.1,0-0.1l0-0.1c0,0,0-0.1,0-0.1
			l0,0l0,0c0-0.1,0.1-0.3,0.1-0.4l0-0.1l0-0.1c0-0.1,0-0.1,0-0.2c0-0.1,0-0.1,0-0.2c0,0,0-0.1,0-0.1c0,0,0,0,0-0.1l0-0.1
			c0-0.2-0.2-0.3-0.3-0.3C130,58.9,129.9,59,129.8,59.2L129.8,59.2z"/>
		<path d="M130.1,60.3c-0.6,2-2.5,1.6-2.5,1.6s0,1.4,1.1,2.2c0.2,0.1,0.8,0.5,1.6,0.5c1.2-0.1,2.1-1.1,2.4-2.1
			c0.1-0.2,0.1-0.4,0.1-0.6c-0.2,0-0.8,0.1-1.5-0.4c-0.6-0.4-0.8-1-0.8-1.2L130.1,60.3z"/>
		<path d="M130.1,65.1c0.1,0,0.1,0,0.2,0c1.5-0.1,2.6-1.4,2.8-2.5c0.1-0.2,0.1-0.4,0.1-0.7l0-0.6l-0.6,0.1c-0.2,0-0.7,0-1.1-0.3
			c-0.4-0.3-0.6-0.7-0.6-0.9c-0.1-0.3-0.3-0.4-0.6-0.4c0,0,0,0-0.1,0c-0.3-0.1-0.6,0.1-0.6,0.3c-0.2,0.7-0.6,1.1-1.1,1.2
			c-0.4,0.1-0.7,0.1-0.7,0.1l-0.6-0.1l0,0.6c0,0.1,0.1,1.7,1.3,2.6C128.7,64.7,129.3,65.1,130.1,65.1z M132.1,62.4
			c-0.2,0.8-1,1.6-1.9,1.7c-0.6,0-1.1-0.3-1.2-0.4c-0.5-0.3-0.7-0.9-0.8-1.2c0.2,0,0.3,0,0.5-0.1c0.5-0.1,1-0.4,1.5-1.1
			c0.2,0.3,0.4,0.5,0.7,0.7C131.3,62.2,131.7,62.4,132.1,62.4z"/>
		<path class="st7" d="M131.8,63.5c0,0-0.8-0.9-1.8-0.9c-1,0.1-1.6,0.8-1.6,0.8S129.7,65.2,131.8,63.5z"/>
		<path d="M130.1,65c0,0,0.1,0,0.1,0c1.3-0.1,2.2-1.1,2.6-2c0.1-0.3,0.2-0.7,0.2-1.1l0-0.5l-0.5,0.1c-0.2,0-0.7,0-1.2-0.3
			c-0.5-0.3-0.6-0.8-0.7-1c-0.1-0.2-0.3-0.3-0.5-0.3c0,0,0,0,0,0c0,0-0.1,0-0.1,0c-0.2-0.1-0.4,0.1-0.5,0.3
			c-0.2,0.7-0.6,1.1-1.2,1.3c-0.4,0.1-0.8,0.1-0.8,0.1l-0.5-0.1l0,0.5c0,0.1,0,1.6,1.2,2.5C128.7,64.7,129.3,65,130.1,65z
			 M132.2,62.3c0,0.1-0.1,0.2-0.1,0.4c-0.3,0.7-1,1.4-1.9,1.5c-0.6,0-1.1-0.3-1.3-0.4c-0.5-0.4-0.8-1-0.8-1.4c0.2,0,0.4,0,0.6-0.1
			c0.5-0.1,1.1-0.5,1.5-1.3c0.2,0.3,0.4,0.6,0.8,0.9C131.4,62.2,131.9,62.3,132.2,62.3z"/>
		<path class="st2" d="M131.4,54.7c0,0.1-0.6,0.4-1.3,0.4c-0.6,0-1.3-0.3-1.2-0.4c0-0.2,1.1-0.2,1.2-0.2
			C130.3,54.5,131.4,54.5,131.4,54.7z"/>
		<path class="st8" d="M126.1,46.7c0.8-0.4,2.5-1,4.7-1c2,0.1,3.6,0.7,4.4,1.2c0.1,0.9,0.2,1.8,0.3,2.8c-0.6-0.4-2.4-1.7-5.1-1.7
			c-2.3,0-4,1.1-4.6,1.5C125.8,48.6,126,47.6,126.1,46.7z"/>
		<path d="M136,50.8l-0.4-4.2l-0.2-0.1c-1.4-0.7-3-1.2-4.6-1.2c-1.7-0.1-3.4,0.3-4.9,1l-0.2,0.1l-0.7,4.3l1-0.7
			c0.7-0.5,2.2-1.4,4.3-1.4c2.3,0,4,1,4.8,1.6L136,50.8z M134.7,47.2l0.1,1.4c-1-0.6-2.6-1.2-4.5-1.2c-1.6,0-3,0.5-3.9,1l0.2-1.4
			c1-0.4,2.4-0.9,4.2-0.8C132.1,46.3,133.4,46.6,134.7,47.2z"/>
		<g class="st6">
			<path class="st2" d="M134.3,47.5c0,0-3.8-1.9-8,0.1l-0.5-0.7c0,0,4.7-2.1,9.2,0L134.3,47.5z"/>
		</g>
		<path d="M136,50.8l-0.4-4.2l-0.2-0.1c-1.4-0.7-3-1.2-4.6-1.2c-1.7-0.1-3.4,0.3-4.9,1l-0.2,0.1l-0.7,4.3l1-0.7
			c0.7-0.5,2.2-1.4,4.3-1.4c2.3,0,4,1,4.8,1.6L136,50.8z M134.7,47.2l0.1,1.4c-1-0.6-2.6-1.2-4.5-1.2c-1.6,0-3,0.5-3.9,1l0.2-1.4
			c1-0.4,2.4-0.9,4.2-0.8C132.1,46.3,133.4,46.6,134.7,47.2z"/>
		<path class="st8" d="M135.3,55.4c-2.4-2.4-2.4-6.4,0-8.8c2.4-2.4,6.3-2.4,8.7,0c2.4,2.4,2.4,6.4,0,8.8
			C141.6,57.9,137.7,57.9,135.3,55.4z"/>
		<path d="M139.7,57.8c1.7,0,3.4-0.7,4.6-1.9c1.3-1.2,2-2.9,2-4.7c0-1.8-0.6-3.5-1.9-4.8c-1.2-1.3-2.9-2-4.7-2
			c-3.7-0.1-6.7,2.9-6.8,6.6c-0.1,3.7,2.9,6.8,6.6,6.8C139.6,57.8,139.7,57.8,139.7,57.8z M139.7,45.3
			C139.7,45.3,139.7,45.3,139.7,45.3c1.6,0,3,0.6,4.1,1.7s1.6,2.5,1.6,4.1c0,1.5-0.6,2.9-1.7,4c-1.1,1.1-2.5,1.6-4,1.6
			c-3.1-0.1-5.6-2.6-5.6-5.8C134.1,47.8,136.6,45.3,139.7,45.3z"/>
		<g class="st6">
			<path class="st2" d="M135.6,46.9c2.1-1.7,5-1.8,7.2-0.2c2.1,1.6,2.9,4.4,2.1,7c1.3-2.6,0.7-5.7-1.3-7.4
				C141.3,44.4,137.7,44.6,135.6,46.9z"/>
		</g>
		<path d="M139.7,57.8c3.6,0,6.6-2.9,6.7-6.6c0.1-3.7-2.9-6.8-6.6-6.8c0,0-0.1,0-0.1,0c-3.6,0-6.6,2.9-6.7,6.6
			c0,1.8,0.6,3.5,1.9,4.8c1.2,1.3,2.9,2,4.7,2C139.6,57.8,139.7,57.8,139.7,57.8z M139.7,45.3C139.7,45.3,139.8,45.3,139.7,45.3
			c3.2,0.1,5.7,2.6,5.7,5.8c0,3.1-2.6,5.6-5.7,5.6c0,0-0.1,0-0.1,0c-1.5,0-2.9-0.6-4-1.7c-1.1-1.1-1.6-2.5-1.6-4.1
			C134.1,47.8,136.6,45.3,139.7,45.3z"/>
		<path d="M136.9,54c-1.6-1.6-1.6-4.2,0-5.8c1.6-1.6,4.1-1.6,5.7,0c1.6,1.6,1.6,4.2,0,5.8C141,55.6,138.4,55.6,136.9,54z"/>
		<path d="M139.7,55.7c1.2,0,2.3-0.5,3.2-1.3c0.9-0.9,1.4-2,1.4-3.2c0-1.2-0.4-2.4-1.3-3.3c-0.8-0.9-2-1.4-3.2-1.4
			c-1.2,0-2.4,0.4-3.2,1.3c-0.9,0.9-1.4,2-1.4,3.2C135.1,53.6,137.1,55.6,139.7,55.7C139.7,55.7,139.7,55.7,139.7,55.7z M139.7,47.5
			C139.7,47.5,139.8,47.5,139.7,47.5c1,0,1.9,0.4,2.5,1.1c0.7,0.7,1,1.6,1,2.5c0,1-0.4,1.8-1.1,2.5c-0.7,0.7-1.6,1-2.5,1
			c-2,0-3.5-1.7-3.5-3.6c0-1,0.4-1.8,1.1-2.5C137.9,47.9,138.8,47.5,139.7,47.5z"/>
		<g class="st6">
			<path class="st2" d="M141.5,47.1l1.7,6.4l-1.8,1.4l-2-8.1L141.5,47.1z"/>
		</g>
		<g class="st6">
			<path class="st2" d="M138.1,47.3l2,7.8l-1.4-0.1l-1.6-7.1L138.1,47.3z"/>
		</g>
		<path d="M139.7,55.7c2.5,0,4.5-2,4.6-4.5c0-1.2-0.4-2.4-1.3-3.3c-0.8-0.9-2-1.4-3.2-1.4c-2.5,0-4.6,2-4.6,4.5
			C135.1,53.5,137.1,55.6,139.7,55.7C139.7,55.7,139.7,55.7,139.7,55.7z M139.7,47.5C139.7,47.5,139.7,47.5,139.7,47.5
			c1,0,1.9,0.4,2.5,1.1c0.7,0.7,1,1.6,1,2.5c0,2-1.6,3.5-3.6,3.5c-2,0-3.5-1.7-3.5-3.6C136.2,49.1,137.8,47.5,139.7,47.5z"/>
		<path d="M118,53.5c-1.6-1.6-1.6-4.2,0-5.8c1.6-1.6,4.1-1.6,5.7,0c1.6,1.6,1.6,4.2,0,5.8C122.2,55.1,119.6,55.1,118,53.5z"/>
		<g class="st4">
			<path d="M135.8,47c-1.9,2.7-1.2,6.5,1.3,8.1c2.6,1.8,6.6,0.8,8.2-2.5c-0.1,0.4-0.6,2.8-2.8,4c-2.4,1.3-5,0.4-6.6-0.8
				c-0.4-0.3-3-2.4-2.6-5.4C133.7,48.4,135.4,47.2,135.8,47z"/>
		</g>
		<path class="st8" d="M121,56.8c-3.4,0-6.2-2.8-6.2-6.2c0-3.4,2.8-6.2,6.2-6.2c3.4,0,6.2,2.8,6.2,6.2C127.1,54,124.4,56.8,121,56.8
			z"/>
		<path d="M121,57.3c1.7,0,3.4-0.7,4.6-1.9c1.3-1.2,2-2.9,2-4.7c0-1.8-0.6-3.5-1.9-4.8c-1.2-1.3-2.9-2-4.7-2c-1.8,0-3.5,0.6-4.8,1.9
			c-1.3,1.2-2,2.9-2,4.7c0,1.8,0.6,3.5,1.9,4.8c1.2,1.3,2.9,2,4.7,2C120.9,57.3,120.9,57.3,121,57.3z M121,44.9
			C121,44.9,121,44.9,121,44.9c1.6,0,3,0.6,4.1,1.7c1.1,1.1,1.6,2.5,1.6,4.1c0,1.5-0.6,2.9-1.7,4c-1.1,1-2.5,1.6-3.9,1.6
			c0,0-0.1,0-0.1,0c-1.5,0-2.9-0.6-4-1.7c-1.1-1.1-1.6-2.5-1.6-4.1c0-1.5,0.6-2.9,1.7-4C118.1,45.4,119.5,44.9,121,44.9z"/>
		<g class="st6">
			<path class="st2" d="M116.9,46.5c2.1-1.7,5.1-1.8,7.2-0.2c2.1,1.6,2.9,4.4,2.1,6.9c1.3-2.5,0.7-5.6-1.3-7.3
				C122.6,44,119.1,44.2,116.9,46.5z"/>
		</g>
		<path d="M121,57.3c3.6,0,6.6-2.9,6.7-6.6c0.1-3.7-2.9-6.8-6.6-6.8c-1.8,0-3.5,0.6-4.8,1.9c-1.3,1.2-2,2.9-2,4.7
			c0,1.8,0.6,3.5,1.9,4.8c1.2,1.3,2.9,2,4.7,2C120.9,57.3,120.9,57.3,121,57.3z M121,44.9C121,44.9,121,44.9,121,44.9
			c3.2,0.1,5.7,2.6,5.7,5.8c-0.1,3.1-2.6,5.6-5.7,5.6c0,0-0.1,0-0.1,0c-1.5,0-2.9-0.6-4-1.7c-1.1-1.1-1.6-2.5-1.6-4.1
			c0-1.5,0.6-2.9,1.7-4C118.1,45.4,119.5,44.9,121,44.9z"/>
		<path d="M118.1,53.5c-1.6-1.6-1.6-4.2,0-5.8c1.6-1.6,4.1-1.6,5.7,0c1.6,1.6,1.6,4.2,0,5.8C122.3,55.1,119.7,55.1,118.1,53.5z"/>
		<path d="M121,55.2c1.2,0,2.3-0.5,3.2-1.3c0.9-0.9,1.4-2,1.4-3.2c0-1.2-0.4-2.4-1.3-3.3c-0.8-0.9-2-1.4-3.2-1.4
			c-1.2,0-2.4,0.4-3.2,1.3s-1.4,2-1.4,3.2c0,1.2,0.4,2.4,1.3,3.3C118.6,54.7,119.7,55.2,121,55.2C121,55.2,121,55.2,121,55.2z
			 M121,47.1C121,47.1,121,47.1,121,47.1c1,0,1.9,0.4,2.5,1.1c0.7,0.7,1,1.6,1,2.5c0,1-0.4,1.8-1.1,2.5c-0.7,0.7-1.6,1-2.5,1
			c-0.9,0-1.8-0.4-2.5-1.1c-0.7-0.7-1-1.6-1-2.5c0-1,0.4-1.8,1.1-2.5C119.2,47.4,120.1,47.1,121,47.1z"/>
		<g class="st6">
			<path class="st2" d="M122.8,46.7l1.7,6.4l-1.8,1.4l-2-8.1L122.8,46.7z"/>
		</g>
		<g class="st6">
			<path class="st2" d="M119.3,46.9l2,7.8l-1.4-0.1l-1.6-7.1L119.3,46.9z"/>
		</g>
		<path d="M121,55.2c2.5,0,4.5-2,4.6-4.5c0-1.2-0.4-2.4-1.3-3.3c-0.8-0.9-2-1.4-3.2-1.4c-1.2,0-2.4,0.4-3.2,1.3
			c-0.9,0.9-1.4,2-1.4,3.2C116.4,53.1,118.4,55.2,121,55.2C120.9,55.2,121,55.2,121,55.2z M121,47.1C121,47.1,121,47.1,121,47.1
			c1,0,1.9,0.4,2.5,1.1c0.7,0.7,1,1.6,1,2.5c0,1.9-1.6,3.5-3.5,3.5c0,0,0,0-0.1,0c-2,0-3.5-1.7-3.5-3.6c0-1,0.4-1.8,1.1-2.5
			C119.2,47.4,120.1,47.1,121,47.1z"/>
		<g class="st4">
			<path d="M117,46.5c-1.9,2.7-1.2,6.5,1.3,8.1c2.6,1.8,6.6,0.8,8.2-2.5c-0.1,0.4-0.6,2.8-2.8,4c-2.4,1.3-5,0.4-6.6-0.8
				c-0.4-0.3-3-2.4-2.6-5.4C114.9,47.9,116.7,46.7,117,46.5z"/>
		</g>
		<path d="M131.8,56.8c0,0-2,1.6-0.7,3.9h-1.8c0,0,1.6-2.4-0.7-3.9H131.8z"/>
		<g class="st4">
			<path d="M141.4,40.5c0,0.2-0.1,1.6-1.3,2.6c-0.8,0.7-1.6,0.8-2.2,0.8c-0.3,0-0.6,0.2-0.7,0.5c-0.2,0.6-0.7,1-1.3,1.1
				c-0.7,0.2-1.5-0.2-2-0.9c-0.2-0.2-0.5-0.3-0.7-0.1c-0.3,0.2-0.6,0.3-1,0.3c-0.4,0-0.8-0.2-1-0.5c-0.2-0.2-0.6-0.2-0.7,0.1
				c-0.5,0.8-1.2,1.3-2.1,1.5c-1.2,0.2-2.4-0.3-3.1-1.4c-0.2-0.3-0.6-0.4-0.9-0.3c-1.2,0.4-2.4,0.2-3.2-0.6c-1.3-1.1-1.5-3.3-0.3-5
				c0.2-0.2,0.2-0.5,0.1-0.7c-0.2-0.6-0.4-1.6,0.1-2.5c0.8-1.5,3.1-2.1,5.3-1.1L141.4,40.5z"/>
			<path d="M141.4,40.5c-0.1,0.1-0.1,0.2-0.2,0.3l-0.2,0.3l-0.3,0.5c-0.2,0.3-0.4,0.6-0.7,0.9c-0.1,0.1-0.1,0.1-0.2,0.2l-0.1,0.1
				c0,0-0.1,0.1-0.1,0.1c-0.1,0.1-0.3,0.2-0.5,0.3c-0.3,0.2-0.7,0.3-1,0.3c-0.1,0-0.2,0-0.3,0l-0.1,0l0,0l0,0c0,0,0,0-0.1,0
				c-0.1,0-0.2,0-0.3,0.1c-0.3,0.1-0.6,0.4-0.8,0.7l0,0l0,0l0,0l0,0c0,0,0,0,0,0c0,0,0,0.1-0.1,0.1c0,0.1-0.1,0.1-0.1,0.2
				c0,0.1-0.1,0.1-0.2,0.1c-0.1,0-0.1,0.1-0.2,0.1c-0.2,0.1-0.5,0.2-0.8,0.1c-0.3,0-0.5-0.2-0.7-0.4l0,0l0,0l0,0l0,0l0-0.1
				c0,0-0.1-0.1-0.1-0.1c-0.1-0.1-0.2-0.2-0.3-0.2c-0.1-0.1-0.2-0.1-0.3-0.1c-0.1,0-0.2,0-0.4,0c-0.1,0-0.2,0.1-0.3,0.1
				c0,0-0.1,0-0.1,0c0,0-0.1,0-0.1,0.1l-0.1,0c-0.1,0.1-0.2,0.1-0.3,0.1c-0.1,0-0.2,0-0.4,0c-0.1,0-0.2-0.1-0.3-0.1
				c-0.1,0-0.1-0.1-0.1-0.1l0,0c0,0,0,0-0.1-0.1c0,0,0,0-0.1-0.1c0,0-0.1,0-0.1-0.1c-0.1-0.1-0.2-0.1-0.3-0.1c-0.1,0-0.2,0-0.4,0
				c-0.1,0-0.2,0.1-0.4,0.1c-0.1,0.1-0.2,0.1-0.3,0.2c0,0-0.1,0.1-0.1,0.1l0,0l0,0l0,0c-0.1,0.1-0.2,0.3-0.3,0.4
				c-0.2,0.2-0.5,0.4-0.8,0.6c-0.1,0.1-0.3,0.1-0.4,0.1c-0.1,0-0.3,0-0.5,0c-0.6,0-1.2-0.3-1.7-0.7l-0.1-0.1l-0.1-0.1c0,0,0,0,0,0
				l0,0c0,0,0,0,0,0l0,0l0,0l0,0c-0.1-0.2-0.3-0.3-0.4-0.4c-0.2-0.1-0.3-0.2-0.5-0.2c-0.2,0-0.4,0-0.6,0c0,0-0.1,0-0.1,0l-0.1,0
				l-0.1,0l-0.1,0l-0.1,0l-0.1,0l-0.1,0l-0.1,0c0,0-0.1,0-0.1,0c0,0-0.1,0-0.1,0c-0.1,0-0.2,0-0.3,0c-0.1,0-0.2,0-0.2,0l-0.1,0
				c0,0-0.1,0-0.1,0c0,0-0.1,0-0.1,0l-0.1,0c0,0-0.1,0-0.1,0l-0.1,0l-0.1,0c0,0-0.1,0-0.1-0.1l-0.1-0.1c0,0-0.1,0-0.1-0.1l0,0l0,0
				c-0.2-0.2-0.5-0.4-0.6-0.7c-0.2-0.3-0.3-0.6-0.3-1c0-0.3,0-0.7,0-1c0.1-0.3,0.2-0.7,0.3-1c0.1-0.2,0.2-0.3,0.3-0.5l0,0
				c0,0,0,0,0-0.1c0,0,0-0.1,0.1-0.1c0-0.1,0.1-0.2,0.1-0.2c0-0.2,0.1-0.3,0-0.5c0-0.1,0-0.2-0.1-0.3l0-0.1c0,0,0,0,0-0.1
				c0,0,0-0.1,0-0.1l0-0.1l0-0.1c0,0,0-0.1,0-0.1c0,0,0-0.1,0-0.1c0,0,0-0.1,0-0.1c0,0,0-0.1,0-0.1c0-0.3,0.1-0.7,0.2-1
				c0.1-0.3,0.3-0.5,0.6-0.7c0.2-0.2,0.5-0.4,0.9-0.5c0.2-0.1,0.3-0.1,0.5-0.2c0.2,0,0.3-0.1,0.5-0.1c0.4-0.1,0.7-0.1,1.1-0.1
				c0.2,0,0.4,0,0.6,0c0.2,0,0.4,0,0.6,0c0,0-0.1-0.1-0.1-0.1c0,0-0.1-0.1-0.1-0.1c-0.1-0.1-0.2-0.1-0.3-0.2
				c-0.2-0.1-0.4-0.2-0.6-0.3c-0.2-0.1-0.4-0.2-0.6-0.2c-0.2,0-0.4-0.1-0.7-0.1c-0.2,0-0.5,0-0.7,0c-0.1,0-0.1,0-0.2,0
				c-0.1,0-0.1,0-0.2,0c-0.1,0-0.1,0-0.2,0c-0.1,0-0.1,0-0.2,0.1c-0.4,0.1-0.9,0.4-1.3,0.7c-0.2,0.2-0.4,0.3-0.5,0.6
				c-0.1,0.2-0.3,0.4-0.4,0.7c0,0.1,0,0.1-0.1,0.2l-0.1,0.2l0,0.2c0,0.1,0,0.1,0,0.2c0,0.2,0,0.5,0,0.7c0,0.1,0,0.1,0,0.2
				c0,0.1,0,0.1,0,0.2c0,0.1,0,0.1,0,0.2c0,0.1,0,0.1,0,0.2c0,0.1,0,0.2,0.1,0.3c0,0,0,0.1,0,0.1l0,0l0,0l0,0l0,0c0,0,0,0,0,0
				c0,0,0,0.1,0,0.1c0,0,0,0,0,0c0,0,0,0,0,0c0,0,0,0,0,0l0,0c-0.1,0.2-0.3,0.4-0.4,0.6c-0.2,0.4-0.4,0.9-0.5,1.3
				c-0.1,0.5-0.1,0.9-0.1,1.4c0.1,0.5,0.2,0.9,0.4,1.4c0.2,0.4,0.5,0.8,0.9,1.2l0.1,0.1c0,0,0.1,0,0.1,0.1c0.1,0,0.1,0.1,0.2,0.1
				l0.2,0.1c0.1,0,0.1,0.1,0.2,0.1l0.1,0l0.1,0c0.1,0,0.1,0,0.2,0.1l0.2,0.1c0.1,0,0.1,0,0.2,0.1c0.1,0,0.1,0,0.2,0
				c0.1,0,0.1,0,0.2,0c0.1,0,0.2,0,0.4,0c0.1,0,0.2,0,0.4,0c0.1,0,0.1,0,0.2,0c0.1,0,0.1,0,0.2,0l0.2,0c0.1,0,0.1,0,0.2,0l0.1,0
				l0.1,0l0.2,0l0.2,0l0.1,0c0,0,0,0,0,0c0,0,0,0,0,0c0,0,0,0,0,0c0,0,0,0,0,0l0,0.1l0.1,0.1l0.1,0.1c0,0,0,0,0.1,0.1l0.1,0.1
				c0,0,0.1,0.1,0.1,0.1l0.1,0.1l0.1,0.1l0.1,0.1l0.1,0.1c0,0,0,0,0.1,0.1l0.1,0.1c0.2,0.1,0.4,0.3,0.7,0.4l0.2,0.1
				c0.1,0,0.1,0,0.2,0.1l0.1,0c0,0,0.1,0,0.1,0l0.2,0l0.2,0c0,0,0.1,0,0.1,0l0.1,0c0.1,0,0.1,0,0.2,0l0.2,0c0.3,0,0.5,0,0.8-0.1
				c0.2-0.1,0.5-0.1,0.7-0.3c0.5-0.2,0.9-0.5,1.2-0.9c0.2-0.2,0.3-0.4,0.4-0.6l0,0l0,0l0,0c0,0,0,0,0,0c0,0,0,0,0,0c0,0,0,0-0.1,0
				c0,0,0,0-0.1,0c0,0,0,0-0.1,0c0,0,0,0-0.1,0c0,0,0,0,0,0c0,0,0,0,0,0c0,0,0,0,0,0c0,0,0,0,0,0l0,0l0,0c0.1,0.1,0.2,0.2,0.3,0.3
				c0.2,0.2,0.5,0.3,0.8,0.3c0.3,0,0.6,0,0.9,0c0.3-0.1,0.5-0.2,0.8-0.4l0,0c0,0,0,0,0,0c0,0,0,0,0,0c0,0,0,0,0,0c0,0,0,0-0.1,0
				c0,0,0,0,0,0c0,0,0,0,0,0c0,0,0,0,0,0c0,0,0,0,0,0c0,0,0,0,0,0l0,0l0,0l0.1,0.1l0.1,0.1c0,0,0,0.1,0.1,0.1l0.1,0.1
				c0.4,0.4,0.9,0.7,1.4,0.7c0.3,0,0.6,0,0.8,0l0.1,0l0.1,0c0,0,0.1,0,0.1,0c0.1,0,0.1,0,0.2-0.1c0.1-0.1,0.3-0.1,0.4-0.2
				c0.1-0.1,0.2-0.2,0.3-0.2c0.1-0.1,0.2-0.2,0.3-0.3c0.1-0.1,0.2-0.2,0.2-0.3c0-0.1,0.1-0.1,0.1-0.2c0,0,0-0.1,0-0.1l0,0l0,0l0,0
				c0,0,0.1-0.1,0.1-0.1c0,0,0,0,0,0c0,0,0,0,0,0l0,0c0,0,0,0,0,0l0,0l0.1,0c0.1,0,0.2,0,0.3,0c0.5-0.1,0.9-0.2,1.3-0.5
				c0.2-0.1,0.4-0.2,0.6-0.4c0,0,0.1-0.1,0.1-0.1l0.1-0.1c0.1-0.1,0.2-0.2,0.2-0.3c0.3-0.4,0.5-0.8,0.6-1.2c0.1-0.2,0.1-0.4,0.1-0.7
				c0-0.1,0-0.2,0-0.3C141.4,40.7,141.4,40.6,141.4,40.5z"/>
		</g>
		<path class="st2" d="M141.4,40c0,0.2-0.1,1.6-1.3,2.6c-0.8,0.7-1.6,0.8-2.2,0.8c-0.3,0-0.6,0.2-0.7,0.5c-0.2,0.6-0.7,1-1.3,1.1
			c-0.7,0.2-1.5-0.2-2-0.9c-0.2-0.2-0.5-0.3-0.7-0.1c-0.3,0.2-0.6,0.3-1,0.3c-0.4,0-0.8-0.2-1-0.5c-0.2-0.2-0.6-0.2-0.7,0.1
			c-0.5,0.8-1.2,1.3-2.1,1.5c-1.2,0.2-2.4-0.3-3.1-1.4c-0.2-0.3-0.6-0.4-0.9-0.3c-1.2,0.4-2.4,0.2-3.2-0.6c-1.3-1.1-1.5-3.3-0.3-5
			c0.2-0.2,0.2-0.5,0.1-0.7c-0.2-0.6-0.4-1.6,0.1-2.5c0.8-1.5,3.1-2.1,5.3-1.1L141.4,40z"/>
		<path d="M141.4,40c-0.1,0.1-0.1,0.2-0.2,0.3l-0.2,0.3l-0.3,0.5c-0.2,0.3-0.4,0.6-0.7,0.9c-0.1,0.1-0.1,0.1-0.2,0.2l-0.1,0.1
			c0,0-0.1,0.1-0.1,0.1c-0.1,0.1-0.3,0.2-0.5,0.3c-0.3,0.2-0.7,0.3-1,0.3c-0.1,0-0.2,0-0.3,0l-0.1,0l0,0l0,0c0,0,0,0-0.1,0
			c-0.1,0-0.2,0-0.3,0.1c-0.3,0.1-0.6,0.4-0.8,0.7l0,0l0,0l0,0l0,0c0,0,0,0,0,0c0,0,0,0.1-0.1,0.1c0,0.1-0.1,0.1-0.1,0.2
			c0,0.1-0.1,0.1-0.2,0.1c-0.1,0-0.1,0.1-0.2,0.1c-0.2,0.1-0.5,0.2-0.8,0.1c-0.3,0-0.5-0.2-0.7-0.4l0,0l0,0l0,0l0,0l0-0.1
			c0,0-0.1-0.1-0.1-0.1c-0.1-0.1-0.2-0.2-0.3-0.2c-0.1-0.1-0.2-0.1-0.3-0.1c-0.1,0-0.2,0-0.4,0c-0.1,0-0.2,0.1-0.3,0.1
			c0,0-0.1,0-0.1,0c0,0-0.1,0-0.1,0.1l-0.1,0c-0.1,0.1-0.2,0.1-0.3,0.1c-0.1,0-0.2,0-0.4,0c-0.1,0-0.2-0.1-0.3-0.1
			c-0.1,0-0.1-0.1-0.1-0.1l0,0c0,0,0,0-0.1-0.1c0,0,0,0-0.1-0.1c0,0-0.1,0-0.1-0.1c-0.1-0.1-0.2-0.1-0.3-0.1c-0.1,0-0.2,0-0.4,0
			c-0.1,0-0.2,0.1-0.4,0.1c-0.1,0.1-0.2,0.1-0.3,0.2c0,0-0.1,0.1-0.1,0.1l0,0l0,0l0,0c-0.1,0.1-0.2,0.3-0.3,0.4
			c-0.2,0.2-0.5,0.4-0.8,0.6c-0.1,0.1-0.3,0.1-0.4,0.1c-0.1,0-0.3,0-0.5,0c-0.6,0-1.2-0.3-1.7-0.7l-0.1-0.1l-0.1-0.1c0,0,0,0,0,0
			l0,0c0,0,0,0,0,0l0,0l0,0l0,0c-0.1-0.2-0.3-0.3-0.4-0.4c-0.2-0.1-0.3-0.2-0.5-0.2c-0.2,0-0.4,0-0.6,0c0,0-0.1,0-0.1,0l-0.1,0
			l-0.1,0l-0.1,0l-0.1,0l-0.1,0l-0.1,0l-0.1,0c0,0-0.1,0-0.1,0c0,0-0.1,0-0.1,0c-0.1,0-0.2,0-0.3,0c-0.1,0-0.2,0-0.2,0l-0.1,0
			c0,0-0.1,0-0.1,0c0,0-0.1,0-0.1,0l-0.1,0c0,0-0.1,0-0.1,0l-0.1,0l-0.1,0c0,0-0.1,0-0.1-0.1l-0.1-0.1c0,0-0.1,0-0.1-0.1l0,0l0,0
			c-0.2-0.2-0.5-0.4-0.6-0.7c-0.2-0.3-0.3-0.6-0.3-1c0-0.3,0-0.7,0-1c0.1-0.3,0.2-0.7,0.3-1c0.1-0.2,0.2-0.3,0.3-0.5l0,0
			c0,0,0,0,0-0.1c0,0,0-0.1,0.1-0.1c0-0.1,0.1-0.2,0.1-0.2c0-0.2,0.1-0.3,0-0.5c0-0.1,0-0.2-0.1-0.3l0-0.1c0,0,0,0,0-0.1
			c0,0,0-0.1,0-0.1l0-0.1l0-0.1c0,0,0-0.1,0-0.1c0,0,0-0.1,0-0.1c0,0,0-0.1,0-0.1c0,0,0-0.1,0-0.1c0-0.3,0.1-0.7,0.2-1
			c0.1-0.3,0.3-0.5,0.6-0.7c0.2-0.2,0.5-0.4,0.9-0.5c0.2-0.1,0.3-0.1,0.5-0.2c0.2,0,0.3-0.1,0.5-0.1c0.4-0.1,0.7-0.1,1.1-0.1
			c0.2,0,0.4,0,0.6,0c0.2,0,0.4,0,0.6,0c0,0-0.1-0.1-0.1-0.1c0,0-0.1-0.1-0.1-0.1c-0.1-0.1-0.2-0.1-0.3-0.2
			c-0.2-0.1-0.4-0.2-0.6-0.3c-0.2-0.1-0.4-0.2-0.6-0.2c-0.2,0-0.4-0.1-0.7-0.1c-0.2,0-0.5,0-0.7,0c-0.1,0-0.1,0-0.2,0
			c-0.1,0-0.1,0-0.2,0c-0.1,0-0.1,0-0.2,0s-0.1,0-0.2,0.1c-0.4,0.1-0.9,0.4-1.3,0.7c-0.2,0.2-0.4,0.3-0.5,0.6
			c-0.1,0.2-0.3,0.4-0.4,0.7c0,0.1,0,0.1-0.1,0.2l-0.1,0.2l0,0.2c0,0.1,0,0.1,0,0.2c0,0.2,0,0.5,0,0.7c0,0.1,0,0.1,0,0.2
			c0,0.1,0,0.1,0,0.2c0,0.1,0,0.1,0,0.2c0,0.1,0,0.1,0,0.2c0,0.1,0,0.2,0.1,0.3c0,0,0,0.1,0,0.1l0,0l0,0l0,0l0,0c0,0,0,0,0,0
			c0,0,0,0.1,0,0.1c0,0,0,0,0,0c0,0,0,0,0,0c0,0,0,0,0,0l0,0c-0.1,0.2-0.3,0.4-0.4,0.6c-0.2,0.4-0.4,0.9-0.5,1.3
			c-0.1,0.5-0.1,0.9-0.1,1.4c0.1,0.5,0.2,0.9,0.4,1.4c0.2,0.4,0.5,0.8,0.9,1.2l0.1,0.1c0,0,0.1,0,0.1,0.1c0.1,0,0.1,0.1,0.2,0.1
			l0.2,0.1c0.1,0,0.1,0.1,0.2,0.1l0.1,0l0.1,0c0.1,0,0.1,0,0.2,0.1l0.2,0.1c0.1,0,0.1,0,0.2,0.1c0.1,0,0.1,0,0.2,0
			c0.1,0,0.1,0,0.2,0c0.1,0,0.2,0,0.4,0c0.1,0,0.2,0,0.4,0c0.1,0,0.1,0,0.2,0c0.1,0,0.1,0,0.2,0l0.2,0c0.1,0,0.1,0,0.2,0l0.1,0
			l0.1,0l0.2,0l0.2,0l0.1,0c0,0,0,0,0,0c0,0,0,0,0,0c0,0,0,0,0,0c0,0,0,0,0,0l0,0.1l0.1,0.1l0.1,0.1c0,0,0,0,0.1,0.1l0.1,0.1
			c0,0,0.1,0.1,0.1,0.1l0.1,0.1l0.1,0.1l0.1,0.1l0.1,0.1c0,0,0,0,0.1,0.1l0.1,0.1c0.2,0.1,0.4,0.3,0.7,0.4l0.2,0.1
			c0.1,0,0.1,0,0.2,0.1l0.1,0c0,0,0.1,0,0.1,0l0.2,0l0.2,0c0,0,0.1,0,0.1,0l0.1,0c0.1,0,0.1,0,0.2,0l0.2,0c0.3,0,0.5,0,0.8-0.1
			c0.2-0.1,0.5-0.1,0.7-0.3c0.5-0.2,0.9-0.5,1.2-0.9c0.2-0.2,0.3-0.4,0.4-0.6l0,0l0,0l0,0c0,0,0,0,0,0c0,0,0,0,0,0c0,0,0,0-0.1,0
			c0,0,0,0-0.1,0c0,0,0,0-0.1,0c0,0,0,0-0.1,0c0,0,0,0,0,0c0,0,0,0,0,0c0,0,0,0,0,0c0,0,0,0,0,0l0,0l0,0c0.1,0.1,0.2,0.2,0.3,0.3
			c0.2,0.2,0.5,0.3,0.8,0.3c0.3,0,0.6,0,0.9,0c0.3-0.1,0.5-0.2,0.8-0.4l0,0c0,0,0,0,0,0c0,0,0,0,0,0c0,0,0,0,0,0c0,0,0,0-0.1,0
			c0,0,0,0,0,0c0,0,0,0,0,0c0,0,0,0,0,0c0,0,0,0,0,0c0,0,0,0,0,0l0,0l0,0l0.1,0.1l0.1,0.1c0,0,0,0.1,0.1,0.1l0.1,0.1
			c0.4,0.4,0.9,0.7,1.4,0.7c0.3,0,0.6,0,0.8,0l0.1,0l0.1,0c0,0,0.1,0,0.1,0c0.1,0,0.1,0,0.2-0.1c0.1-0.1,0.3-0.1,0.4-0.2
			c0.1-0.1,0.2-0.2,0.3-0.2c0.1-0.1,0.2-0.2,0.3-0.3c0.1-0.1,0.2-0.2,0.2-0.3c0-0.1,0.1-0.1,0.1-0.2c0,0,0-0.1,0-0.1l0,0l0,0l0,0
			c0,0,0.1-0.1,0.1-0.1c0,0,0,0,0,0c0,0,0,0,0,0l0,0c0,0,0,0,0,0l0,0l0.1,0c0.1,0,0.2,0,0.3,0c0.5-0.1,0.9-0.2,1.3-0.5
			c0.2-0.1,0.4-0.2,0.6-0.4c0,0,0.1-0.1,0.1-0.1l0.1-0.1c0.1-0.1,0.2-0.2,0.2-0.3c0.3-0.4,0.5-0.8,0.6-1.2c0.1-0.2,0.1-0.4,0.1-0.7
			c0-0.1,0-0.2,0-0.3C141.4,40.2,141.4,40.1,141.4,40z"/>
		<g class="st4">
			<path d="M122.8,34c-0.2,0.4-0.7,1.4-0.5,2.6c0,0.2,0.1,0.4,0.1,0.6c0.1,0.4,0.1,0.9-0.1,1.3c-0.7,1.3-0.3,2.7,0.4,3.2
				c0.5,0.3,1.2,0.3,1.9,0c0.6-0.3,1.3,0,1.6,0.5c0.3,0.6,0.9,1,1.5,1.1c0.9,0.2,2-0.2,2.6-1c0.2-0.3,0.7-0.3,0.9-0.1
				c0.3,0.3,0.8,0.5,1.2,0.4c0.3,0,0.5-0.1,0.7-0.3c0.3-0.3,0.8-0.2,1,0.1c0.3,0.4,0.8,0.6,1.3,0.6c0.5,0,1-0.2,1.4-0.6
				c0.3-0.3,0.7-0.4,1.1-0.4c0.9,0.1,2.4,0.1,3.6-1.6c0,0-0.4,3-3.8,3.2c0,0-1.1,3.1-3.7,0.5c0,0-1.6,0.8-2.9-0.4c0,0-3,3.8-5.8,0.1
				c-0.1,0-2.1,0.9-3.6-0.3c-0.8-0.6-1-1.6-1.1-2c-0.4-1.7,0.4-3.1,0.6-3.5c-0.1-0.1-0.7-1.4,0-2.7C121.7,34.3,122.5,34,122.8,34z"
				/>
			<path d="M127.9,45.3c1.6,0,3-1.5,3.1-1.7c1.2,1.1,2.7,0.5,2.9,0.4c0.8,0.8,1.6,1.2,2.3,1c0.9-0.2,1.4-1.3,1.4-1.5
				c1.8-0.1,2.7-1,3.2-1.7c0.5-0.8,0.6-1.5,0.6-1.5l0-0.1l0,0.1c-1.2,1.7-2.8,1.8-3.6,1.6c-0.4-0.1-0.8,0.1-1.1,0.4
				c-0.4,0.4-0.9,0.6-1.4,0.6c-0.5,0-1-0.2-1.3-0.6c-0.3-0.3-0.7-0.3-1.1-0.1c-0.2,0.2-0.4,0.3-0.7,0.3c-0.4,0.1-0.8-0.1-1.2-0.4
				c-0.1-0.1-0.3-0.2-0.5-0.2c-0.2,0-0.3,0.1-0.5,0.3c-0.6,0.8-1.6,1.2-2.5,1c-0.6-0.1-1.1-0.5-1.5-1.1c-0.3-0.5-1-0.8-1.6-0.5
				c-0.7,0.3-1.4,0.3-1.8,0c-0.8-0.5-1.1-1.9-0.4-3.2c0.2-0.4,0.3-0.9,0.1-1.3c-0.1-0.2-0.1-0.4-0.1-0.6c-0.2-1.2,0.2-2.1,0.5-2.6
				l0,0l0,0c-0.3,0.1-1.1,0.4-1.6,1.3c-0.7,1.2-0.1,2.5,0,2.7c-0.3,0.5-1,1.9-0.6,3.5c0.1,0.4,0.3,1.4,1.1,2
				c1.4,1.1,3.4,0.4,3.6,0.3C126,44.8,126.9,45.3,127.9,45.3C127.8,45.3,127.8,45.3,127.9,45.3z M131,43.6L131,43.6
				c0,0-1.4,1.8-3.2,1.7c-0.9,0-1.8-0.6-2.6-1.6l0,0l0,0c-0.1,0-2.1,0.9-3.5-0.3c-0.8-0.6-1-1.6-1.1-2c-0.4-1.6,0.3-3,0.6-3.5l0,0
				l0,0c0-0.1-0.7-1.4,0-2.7c0.4-0.8,1.2-1.1,1.5-1.2c-0.3,0.5-0.6,1.4-0.5,2.6c0,0.2,0.1,0.4,0.1,0.6c0.1,0.4,0.1,0.9-0.1,1.2
				c-0.7,1.3-0.3,2.8,0.4,3.2c0.5,0.3,1.2,0.3,1.9,0c0.6-0.3,1.2,0,1.6,0.5c0.3,0.6,0.9,1,1.5,1.1c0.9,0.2,2-0.2,2.6-1
				c0.1-0.1,0.3-0.2,0.4-0.2c0.2,0,0.3,0,0.5,0.2c0.3,0.3,0.8,0.5,1.2,0.4c0.3,0,0.5-0.1,0.7-0.3c0.3-0.3,0.7-0.2,1,0.1
				c0.3,0.4,0.8,0.6,1.3,0.6c0.5,0,1.1-0.2,1.4-0.6c0.3-0.3,0.7-0.4,1-0.4c0.8,0.1,2.3,0.1,3.5-1.6c0,0.2-0.2,0.8-0.6,1.4
				c-0.5,0.7-1.4,1.6-3.2,1.7l0,0l0,0c0,0-0.4,1.2-1.4,1.5c-0.7,0.2-1.4-0.2-2.2-1l0,0l0,0C133.8,44,132.2,44.7,131,43.6L131,43.6z"
				/>
		</g>
		<path d="M166.3,136.3c0.1,0,0.1,0,0.1,0l0.1,0c0.1,0,0.2,0,0.3,0c0.1,0,0.2,0,0.3,0c0.1,0,0.2,0,0.3-0.1c0.3-0.1,0.7-0.2,1-0.2
			c0.3-0.1,0.7-0.2,1-0.3c0.2-0.1,0.3-0.1,0.5-0.2c0.2-0.1,0.3-0.1,0.5-0.2c0.3-0.1,0.6-0.3,0.9-0.5c0.3-0.2,0.6-0.4,0.9-0.6
			c0,0,0.1,0,0.1-0.1c0,0,0.1-0.1,0.1-0.1s0.1-0.1,0.1-0.1l0,0l0,0c0.1-0.1,0.1-0.1,0.2-0.2c0.1-0.1,0.1-0.1,0.2-0.2
			c0.1-0.1,0.1-0.1,0.2-0.2l0.1-0.1c0,0,0-0.1,0.1-0.1c0.1-0.2,0.2-0.3,0.2-0.5c-0.1,0-0.2,0.1-0.2,0.1l-0.1,0l-0.1,0l-0.1,0.1
			c-0.1,0-0.1,0.1-0.2,0.1c-0.1,0-0.1,0.1-0.2,0.1c-0.1,0-0.1,0.1-0.2,0.1c-0.1,0-0.1,0.1-0.2,0.1s-0.1,0.1-0.2,0.1
			c0,0-0.1,0-0.1,0.1l-0.1,0.1c-0.3,0.2-0.6,0.3-0.9,0.4c-0.1,0.1-0.3,0.1-0.4,0.2c-0.1,0.1-0.3,0.1-0.4,0.2
			c-0.6,0.2-1.2,0.4-1.8,0.6c-0.3,0.1-0.6,0.2-0.9,0.3l-0.5,0.1l-0.5,0.1L166.3,136.3z"/>
		<path d="M146.1,137.9c0-0.1,0-0.1,0-0.1l0-0.1c0-0.1,0-0.2,0-0.3c0-0.1,0-0.2,0-0.3c0-0.1,0-0.2,0-0.3c0-0.3,0.1-0.7,0.1-1
			c0-0.3,0-0.7,0-1c0-0.2,0-0.3,0-0.5c0-0.2,0-0.3,0-0.5c0-0.3-0.1-0.7-0.1-1c-0.1-0.3-0.1-0.7-0.2-1c0,0,0-0.1,0-0.1
			c0,0,0-0.1,0-0.1c0,0,0-0.1,0-0.1l0-0.1l0-0.1c0-0.1-0.1-0.2-0.1-0.2c0-0.1-0.1-0.2-0.1-0.2c0-0.1-0.1-0.1-0.2-0.2l-0.1-0.1
			c0,0-0.1-0.1-0.1-0.1c-0.1-0.1-0.3-0.3-0.4-0.4c0,0.1,0,0.2,0,0.3l0,0.1l0,0.1l0,0.1c0,0.1,0,0.2,0,0.2c0,0.1,0,0.2,0,0.2
			c0,0.1,0,0.2,0,0.2c0,0.1,0,0.2,0,0.2c0,0.1,0,0.2,0,0.2c0,0,0,0.1,0,0.1l0,0.1c0.1,0.3,0.1,0.6,0.1,1c0,0.2,0,0.3,0,0.5
			c0,0.2,0,0.3,0,0.5c0,0.6,0,1.3,0,1.9c0,0.3,0,0.7-0.1,1l0,0.5l0,0.5L146.1,137.9z"/>
		<g class="st4">
			<path d="M118.5,56.3c0,0,2.2,8.5,10.1,9.8c0,0-11.2-0.2-13.8-12.9C114.8,53.2,116.9,55.9,118.5,56.3z"/>
		</g>
	</g>
</g>
</svg>
