<?xml version="1.0" encoding="utf-8"?>
<!-- Generator: Adobe Illustrator 27.8.1, SVG Export Plug-In . SVG Version: 6.00 Build 0)  -->
<svg version="1.1" id="レイヤー_1" xmlns="http://www.w3.org/2000/svg" xmlns:xlink="http://www.w3.org/1999/xlink" x="0px"
	 y="0px" viewBox="0 0 295 174" style="enable-background:new 0 0 295 174;" xml:space="preserve">
<style type="text/css">
	.st0{fill:#FF9393;}
	.st1{clip-path:url(#SVGID_00000116924732547405482940000004119210318297085853_);}
	.st2{fill:#9A6A39;}
	.st3{fill:#330066;}
	.st4{opacity:0.5;}
	.st5{fill:#FFFFFF;}
	.st6{fill:#FFD38C;}
	.st7{opacity:0.25;}
	.st8{opacity:0.7;}
	.st9{fill:#FF3366;}
	.st10{fill:#FDFF00;}
</style>
<path class="st0" d="M10,0h275c5.5,0,10,4.5,10,10v154c0,5.5-4.5,10-10,10H10c-5.5,0-10-4.5-10-10V10C0,4.5,4.5,0,10,0z"/>
<g>
	<defs>
		<rect id="SVGID_1_" x="80" y="31" width="134.9" height="111.8"/>
	</defs>
	<clipPath id="SVGID_00000109731529977726503070000014697419050197676185_">
		<use xlink:href="#SVGID_1_"  style="overflow:visible;"/>
	</clipPath>
	<g style="clip-path:url(#SVGID_00000109731529977726503070000014697419050197676185_);">
		<path class="st2" d="M154.2,65.6c4.8-0.6,8.3-4.2,8.5-8.1c0.1-2.5-1.1-5.1-3.2-6.6c-2.9-2.1-7-2-10.2,0.3c1,1.3,2.3,3.1,3.2,5.5
			C154,60.4,154.2,63.6,154.2,65.6z"/>
		<path class="st3" d="M153.6,66.3l0-0.7c0-3-0.5-5.9-1.6-8.6c-0.8-1.9-1.8-3.8-3.1-5.4l-0.4-0.5l0.5-0.4c1.7-1.2,3.6-1.9,5.5-1.9
			c2,0,3.8,0.5,5.3,1.6c1.1,0.8,2,1.9,2.6,3.1c0.6,1.3,0.9,2.6,0.8,4c-0.1,2.1-1.1,4.1-2.7,5.7c-1.7,1.6-3.9,2.7-6.3,3L153.6,66.3z
			 M150.2,51.4c1.2,1.6,2.2,3.4,2.9,5.2c1.1,2.7,1.6,5.5,1.7,8.4c4.1-0.8,7.2-3.9,7.4-7.4c0.1-2.3-1-4.7-3-6.1
			C156.7,49.6,153,49.6,150.2,51.4z"/>
		<g class="st4">
			<path class="st5" d="M160.2,52.4c1,0.7,1.8,1.7,2.4,2.8c-0.4-1.7-1.5-3.3-3-4.4c-2.9-2.1-7-2-10.2,0.3c0.3,0.4,0.6,0.8,1,1.3
				C153.5,50.4,157.4,50.4,160.2,52.4z"/>
		</g>
		<path class="st6" d="M150.9,53.9c0.6,1.1,1.2,2.5,1.8,4.1c0.6,1.7,0.9,3.3,1.1,4.6c1.9-0.2,3.5-1.2,4.4-2.5c0,0,0,0,0,0
			c0.4-0.7,0.7-1.4,0.8-2.1c0-0.2,0.1-1.2-0.3-2.3c-0.2-0.4-0.6-1.5-1.9-2.3c-1.4-0.9-2.9-0.6-3.5-0.5
			C152.2,53,151.3,53.6,150.9,53.9z"/>
		<path class="st3" d="M153.2,63.2l-0.1-0.6c-0.2-1.5-0.6-3.1-1.1-4.5c-0.5-1.4-1-2.7-1.7-4l-0.2-0.4l0.4-0.3c0.8-0.6,1.7-1,2.7-1.2
			c0.6-0.1,2.2-0.4,3.9,0.6c1,0.6,1.7,1.4,2.1,2.6c0.5,1.2,0.4,2.3,0.4,2.6c-0.1,0.8-0.4,1.6-0.9,2.3c0,0,0,0,0,0.1
			c-1.1,1.5-2.8,2.5-4.8,2.8L153.2,63.2z M151.6,54.1c0.6,1.2,1.1,2.4,1.6,3.7c0.4,1.3,0.8,2.7,1,4.1c1.5-0.3,2.7-1.1,3.5-2.2l0,0
			c0.4-0.6,0.6-1.2,0.7-1.9c0-0.2,0.1-1-0.3-2c-0.4-0.9-0.9-1.6-1.7-2c-1.3-0.8-2.6-0.5-3.1-0.4C152.8,53.5,152.2,53.7,151.6,54.1z"
			/>
		<g class="st7">
			<path class="st3" d="M150.8,54c0.6,1.1,1.3,2.5,1.9,4.1c0.6,1.7,0.9,3.2,1.1,4.5c0.3-0.1,0.6-0.2,0.9-0.4
				c0.9-0.5,1.5-1.2,1.8-1.6c0,0,0,0,0,0c0.4-0.6,0.7-1.3,0.8-2c0-0.2,0.1-1.1-0.3-2.2c-0.1-0.4-0.6-1.5-1.8-2.2
				c-1.3-0.8-2.7-0.6-3.3-0.5C151.4,53.8,151.1,53.9,150.8,54z"/>
		</g>
		<path class="st3" d="M153.6,66.3l0-0.6c0-3-0.5-5.9-1.6-8.6c-0.8-1.9-1.8-3.8-3.1-5.4l-0.4-0.5l0.4-0.4c1.4-1.1,3.2-1.8,5-2
			c1.8-0.1,3.6,0.3,5.1,1.2c2.7,1.6,4.3,4.6,4.2,7.6c-0.1,2.1-1,4.1-2.7,5.7c-1.7,1.6-3.9,2.6-6.3,2.9L153.6,66.3z M150.1,51.3
			c1.2,1.6,2.2,3.4,2.9,5.2c1.1,2.7,1.6,5.5,1.7,8.4c4.1-0.7,7.2-3.8,7.4-7.4c0.1-2.6-1.3-5.2-3.6-6.6
			C155.9,49.5,152.7,49.6,150.1,51.3z"/>
		<path class="st2" d="M114.8,44.9c-2.3-4.2-1.5-9.2,1.5-11.6c2-1.6,4.8-2.1,7.2-1.3c3.4,1.1,5.8,4.5,5.8,8.4
			c-1.7-0.1-3.9,0-6.4,0.6C119.2,41.9,116.5,43.7,114.8,44.9z"/>
		<path class="st3" d="M114.7,45.7l-0.3-0.6c-1.2-2.1-1.6-4.6-1.3-6.8c0.3-2.3,1.4-4.2,3-5.5c1-0.8,2.3-1.4,3.7-1.7
			c1.4-0.2,2.8-0.2,4.1,0.3c1.8,0.6,3.3,1.7,4.5,3.3c1.1,1.6,1.7,3.6,1.7,5.6v0.6l-0.6,0c-2.1-0.1-4.2,0.1-6.2,0.6
			c-2.9,0.7-5.5,2-7.9,3.8L114.7,45.7z M121.2,32.2c-1.6,0-3.3,0.5-4.5,1.5c-2.8,2.2-3.5,6.6-1.7,10.3c2.4-1.7,5-2.9,7.8-3.6
			c1.9-0.5,3.9-0.7,5.9-0.7c-0.2-3.4-2.4-6.3-5.3-7.3C122.7,32.3,122,32.2,121.2,32.2z"/>
		<g class="st4">
			<path class="st5" d="M128.4,37.6c-1-4.3-5.2-6.9-9-5.9c-3.2,0.8-5.6,3.9-5.5,7.6c0.7-3.1,3-5.4,6-6
				C123.3,32.5,126.8,34.3,128.4,37.6z"/>
		</g>
		<path class="st3" d="M114.7,45.7l-0.3-0.6c-1.2-2.1-1.6-4.6-1.3-6.8c0.3-2.3,1.4-4.2,3-5.5c1-0.8,2.3-1.4,3.7-1.7
			c1.4-0.2,2.8-0.2,4.1,0.3c1.8,0.6,3.3,1.7,4.5,3.3c1.1,1.6,1.7,3.6,1.7,5.6v0.6l-0.6,0c-2.1-0.1-4.2,0.1-6.2,0.6
			c-2.9,0.7-5.5,2-7.9,3.8L114.7,45.7z M121.2,32.2c-1.6,0-3.3,0.5-4.5,1.5c-2.8,2.2-3.5,6.6-1.7,10.3c2.4-1.7,5-2.9,7.8-3.6
			c1.9-0.5,3.9-0.7,5.9-0.7c-0.2-3.4-2.4-6.3-5.3-7.3C122.7,32.3,122,32.2,121.2,32.2z"/>
		<g class="st8">
			<path class="st9" d="M126.2,40.5c-1.1,0.1-2.3,0.4-3.6,0.7c-2,0.6-3.7,1.3-5.1,2c-0.2-0.5-0.5-1.2-0.6-2.2
				c-0.1-1.1,0.1-1.9,0.3-2.4c0,0,0,0,0,0c0.3-0.7,0.7-1.4,1.2-1.8c0.2-0.2,0.9-0.8,2-1.1c1.3-0.3,2.3,0,2.5,0.1
				c1.7,0.6,2.5,2.1,2.7,2.5C126.1,39.2,126.2,40,126.2,40.5z"/>
			<path class="st3" d="M117.2,43.9l-0.3-0.5c-0.4-0.7-0.6-1.5-0.6-2.4c-0.1-0.9,0-1.8,0.3-2.6c0,0,0-0.1,0-0.1
				c0.3-0.8,0.8-1.5,1.3-2c0.3-0.3,1-0.9,2.3-1.2c1.3-0.3,2.4,0,2.9,0.1c1.3,0.4,2.3,1.4,3,2.8c0.4,0.7,0.6,1.6,0.6,2.4l0,0.5
				l-0.5,0.1c-1.2,0.2-2.4,0.4-3.5,0.7c-1.7,0.5-3.4,1.1-5,1.9L117.2,43.9z M117.7,38.8c-0.2,0.7-0.3,1.4-0.2,2.2
				c0,0.5,0.1,1,0.3,1.4c1.5-0.7,3.1-1.3,4.7-1.7c1-0.3,2.1-0.5,3.1-0.7c-0.1-0.5-0.2-1-0.5-1.4c-0.6-1.1-1.4-1.9-2.4-2.2
				c-0.3-0.1-1.2-0.3-2.2-0.1c-1,0.2-1.6,0.8-1.7,0.9C118.4,37.6,118,38.1,117.7,38.8z"/>
		</g>
		<path class="st6" d="M126.2,40.5c-1.1,0.1-2.3,0.4-3.6,0.7c-2,0.6-3.7,1.3-5.1,2c-0.2-0.5-0.5-1.2-0.6-2.2
			c-0.1-1.1,0.1-1.9,0.3-2.4c0,0,0,0,0,0c0.3-0.7,0.7-1.4,1.2-1.8c0.2-0.2,0.9-0.8,2-1.1c1.3-0.3,2.3,0,2.5,0.1
			c1.7,0.6,2.5,2.1,2.7,2.5C126.1,39.2,126.2,40,126.2,40.5z"/>
		<path class="st3" d="M117.2,43.9l-0.3-0.5c-0.4-0.7-0.6-1.5-0.6-2.4c-0.1-0.9,0-1.8,0.3-2.6c0,0,0-0.1,0-0.1
			c0.3-0.8,0.8-1.5,1.3-2c0.3-0.3,1-0.9,2.3-1.2c1.3-0.3,2.4,0,2.9,0.1c1.3,0.4,2.3,1.4,3,2.8c0.4,0.7,0.6,1.6,0.6,2.4l0,0.5
			l-0.5,0.1c-1.2,0.2-2.4,0.4-3.5,0.7c-1.7,0.5-3.4,1.1-5,1.9L117.2,43.9z M117.7,38.8c-0.2,0.7-0.3,1.4-0.2,2.2
			c0,0.5,0.1,1,0.3,1.4c1.5-0.7,3.1-1.3,4.7-1.7c1-0.3,2.1-0.5,3.1-0.7c-0.1-0.5-0.2-1-0.5-1.4c-0.6-1.1-1.4-1.9-2.4-2.2
			c-0.3-0.1-1.2-0.3-2.2-0.1c-1,0.2-1.6,0.8-1.7,0.9C118.4,37.6,118,38.1,117.7,38.8z"/>
		<path class="st3" d="M114.7,45.7l-0.3-0.6c-1.2-2.1-1.7-4.5-1.4-6.8c0.3-2.3,1.4-4.2,3.1-5.6c2.4-1.9,5.7-2.3,8.6-1.1
			c1.6,0.7,3,1.9,4,3.4c1,1.6,1.4,3.4,1.3,5.2l0,0.6l-0.6,0c-2.1-0.1-4.2,0.1-6.2,0.6c-2.9,0.7-5.5,2-7.9,3.8L114.7,45.7z
			 M121.2,32.2c-1.6,0-3.2,0.5-4.5,1.5c-2.9,2.3-3.6,6.6-1.7,10.3c2.4-1.7,5-2.9,7.8-3.6c1.9-0.5,3.9-0.7,6-0.7
			c-0.1-3.1-1.9-5.8-4.6-7C123.2,32.4,122.2,32.2,121.2,32.2z"/>
		<g class="st7">
			<path class="st3" d="M126.1,40.6c-1.2,0.1-2.6,0.3-4.2,0.8c-1.6,0.5-2.9,1-4,1.6c-0.1-0.3-0.2-0.6-0.3-0.9
				c-0.2-0.9,0-1.7,0.2-2.2c0,0,0,0,0,0c0.2-0.6,0.6-1.2,1.1-1.7c0.2-0.1,0.8-0.7,1.8-0.9c0.4-0.1,1.5-0.3,2.7,0.2
				c1.4,0.6,2.1,1.7,2.3,2.2C125.9,40.1,126,40.4,126.1,40.6z"/>
		</g>
		<path class="st2" d="M106.1,93.2c-1.8-1.1-3.9-2.5-6.1-4.3c-1-0.8-1.9-1.7-2.9-2.7c-4.8-4.9-7.5-10.1-8.9-13.5c-0.1,0-0.1,0-0.2,0
			c-0.8,0.1-2.9,0.2-4.8-1.3c-0.1-0.1-0.1-0.1-0.2-0.2c-1.6-1.4-2.6-3.6-2.3-5.9c0.2-1.2,0.7-2.4,1.5-3.5c0.5-0.7,1.2-1.3,1.9-1.7
			c0,0,0.1-0.1,0.2-0.1c3.6-1.8,8.7,1.2,13.1,5c0.1,0.1,0.2,0.2,0.4,0.3c0,0,0,0,0.1,0.1c0,0,0,0,0,0c-0.2,0.5-0.4,1-0.6,1.6
			c-0.1,0.3-0.2,0.5-0.2,0.8c0,0.1,0,0.2-0.1,0.3c0,0.1,0,0.2-0.1,0.3c0,0,0,0,0,0.1c0,0.1,0,0.2,0,0.2c0,0,0,0.1,0,0.1
			c0,0.1,0,0.1,0,0.2c0,0,0,0,0,0c0,0.1,0,0.2,0,0.3c0,0.2-0.1,0.4-0.1,0.6c0,0,0,0.1,0,0.1c0,0.2,0,0.5,0,0.7c0,0,0,0.1,0,0.1
			c0,0.1,0,0.2,0,0.3c0,0.1,0,0.1,0,0.2c0,0.1,0,0.3,0,0.4c0,0.1,0,0.2,0,0.3c0,0,0,0,0,0c0,0.1,0,0.2,0,0.3c0,0.1,0,0.2,0,0.3
			c0,0.1,0,0.2,0,0.2c0,0.1,0,0.2,0,0.3c0,0,0,0.1,0,0.1c0,0.1,0,0.2,0,0.3c0,0.1,0,0.2,0,0.3c0,0,0,0.1,0,0.1c0,0.1,0,0.2,0,0.3
			c0,0.1,0,0.2,0,0.3c0.1,0.4,0.2,0.8,0.3,1.2c0,0,0,0.1,0,0.1c0,0.1,0,0.1,0.1,0.2c0,0,0,0.1,0,0.1c0,0.1,0.1,0.3,0.1,0.4
			c0,0.1,0.1,0.2,0.1,0.3c0,0,0,0,0,0c0,0.1,0.1,0.2,0.1,0.3c0,0.1,0.1,0.2,0.1,0.3c0,0.1,0,0.1,0.1,0.2c0,0.1,0,0.1,0.1,0.2
			c0,0.1,0,0.1,0.1,0.2c0,0.1,0.1,0.1,0.1,0.2c0,0.1,0,0.1,0.1,0.2c0,0,0,0,0,0c0,0.1,0.1,0.2,0.1,0.3c0,0.1,0.1,0.2,0.2,0.3
			c0,0,0,0,0,0c0,0.1,0.1,0.2,0.1,0.3c0,0,0,0,0,0.1c0.1,0.1,0.1,0.2,0.2,0.3c0.1,0.1,0.1,0.2,0.2,0.3c0,0,0,0,0,0.1
			c0.1,0.1,0.1,0.2,0.2,0.3c0.1,0.1,0.1,0.2,0.2,0.3c0,0,0,0,0,0c0.1,0.1,0.1,0.2,0.2,0.3c0.2,0.4,0.5,0.8,0.7,1.1
			c0.1,0.1,0.1,0.2,0.2,0.3c0.1,0.1,0.1,0.2,0.2,0.3c0,0,0,0,0,0.1c0.1,0.1,0.1,0.2,0.2,0.3c0.1,0.1,0.1,0.2,0.2,0.3
			c0,0,0.1,0.1,0.1,0.1c0,0,0,0,0,0c0,0.1,0.1,0.1,0.1,0.2c0,0.1,0.1,0.1,0.1,0.2c0,0,0.1,0.1,0.1,0.1c0.1,0.1,0.1,0.2,0.2,0.2
			c0,0,0,0,0.1,0.1c0.1,0.1,0.1,0.1,0.2,0.2c0,0,0.1,0.1,0.1,0.1c0,0.1,0.1,0.1,0.1,0.2c0.1,0.1,0.1,0.1,0.2,0.2
			c0,0,0.1,0.1,0.1,0.1c0.1,0.1,0.1,0.1,0.2,0.2c0,0,0.1,0.1,0.1,0.1c0,0,0,0,0.1,0.1c0.1,0.1,0.1,0.2,0.2,0.2
			c0.2,0.2,0.4,0.4,0.6,0.6c0.2,0.2,0.4,0.4,0.6,0.5c0,0,0.1,0.1,0.1,0.1c0,0,0,0,0,0.1c0.1,0.3,0.1,0.6,0.2,0.9
			c0.2,0.6,0.3,1.2,0.5,1.8c0.3,1,0.6,1.8,0.8,2.5C105.9,92.7,106,93,106.1,93.2z"/>
		<path class="st3" d="M107.2,94.5l-1.4-0.8c-2.2-1.3-4.3-2.8-6.2-4.4c-1-0.9-2-1.8-2.9-2.7c-3.8-3.8-6.7-8.3-8.9-13.3
			c-1,0.1-3.1,0.1-5-1.4c-0.1,0-0.1-0.1-0.2-0.2c-1.9-1.6-2.8-4-2.5-6.4c0.2-1.3,0.7-2.6,1.6-3.7c0.6-0.8,1.3-1.4,2.1-1.8
			c0.1,0,0.1-0.1,0.2-0.1c4.1-2,9.8,1.6,13.8,5c0.1,0.1,0.2,0.2,0.4,0.3l0,0c0,0,0,0,0,0c0,0,0,0,0,0l0.3,0.3l-0.2,0.4
			c-0.2,0.5-0.4,1-0.6,1.5c-0.1,0.2-0.2,0.5-0.2,0.7l0,0c0,0.1,0,0.2-0.1,0.2l0,0c0,0.1,0,0.2-0.1,0.3l0,0c0,0.1,0,0.2,0,0.2l0,0
			c0,0,0,0,0,0l0,0.1c0,0.1,0,0.1,0,0.2l0,0.1c0,0.1,0,0.1,0,0.2c0,0.2-0.1,0.4-0.1,0.6l0,0c0,0,0,0.1,0,0.1l0,0c0,0.2,0,0.5,0,0.7
			c0,0,0,0.1,0,0.1c0,0.1,0,0.2,0,0.3c0,0.1,0,0.1,0,0.2c0,0.1,0,0.3,0,0.4c0,0.1,0,0.2,0,0.3l0,0c0,0.1,0,0.2,0,0.3
			c0,0.1,0,0.2,0,0.3c0,0.1,0,0.2,0,0.2l0,0c0,0.1,0,0.2,0,0.2l0,0c0,0,0,0.1,0,0.1l0,0c0,0.1,0,0.2,0,0.3c0,0.1,0,0.2,0,0.2l0,0
			c0,0,0,0.1,0,0.1c0,0.1,0,0.2,0,0.3l0,0c0,0.1,0,0.2,0,0.2l0,0c0.1,0.4,0.2,0.8,0.3,1.2l0,0c0,0,0,0.1,0,0.1l0,0
			c0,0.1,0,0.1,0.1,0.2l0,0.1c0,0.1,0.1,0.3,0.1,0.4c0,0.1,0.1,0.2,0.1,0.3l0,0l0,0c0,0.1,0.1,0.2,0.1,0.3l0,0
			c0,0.1,0.1,0.2,0.1,0.3l0,0c0,0,0,0.1,0,0.1l0,0.1c0,0.1,0,0.1,0.1,0.2l0,0c0,0,0,0.1,0,0.1c0,0,0,0.1,0,0.1c0,0.1,0,0.1,0.1,0.2
			l0,0c0,0.1,0,0.1,0.1,0.2l0,0c0.1,0.1,0.1,0.2,0.1,0.3c0,0.1,0.1,0.2,0.1,0.3c0,0,0,0,0,0c0,0.1,0.1,0.2,0.1,0.3c0,0,0,0,0,0l0,0
			c0.1,0.1,0.1,0.2,0.2,0.3c0.1,0.1,0.1,0.2,0.2,0.3c0,0,0,0,0,0l0,0c0.1,0.1,0.1,0.2,0.2,0.3c0,0.1,0.1,0.2,0.2,0.3c0,0,0,0,0,0
			l0,0c0,0.1,0.1,0.2,0.1,0.2c0.2,0.4,0.5,0.7,0.7,1.1l0,0.1c0,0.1,0.1,0.1,0.1,0.2l0,0c0.1,0.1,0.1,0.2,0.2,0.3l0,0c0,0,0,0,0,0
			l0,0c0.1,0.1,0.1,0.2,0.2,0.3l0,0c0.1,0.1,0.1,0.2,0.2,0.3l0,0c0,0,0,0.1,0.1,0.1c0,0,0,0,0,0l0,0c0,0,0.1,0.1,0.1,0.1l0,0
			c0,0,0.1,0.1,0.1,0.1l0.1,0.1c0,0,0,0,0.1,0.1l0,0c0,0.1,0.1,0.1,0.1,0.2l0.1,0.1c0,0,0,0,0,0.1l0,0c0.1,0.1,0.1,0.1,0.2,0.2
			c0,0,0.1,0.1,0.1,0.1l0,0c0,0.1,0.1,0.1,0.1,0.2c0.1,0.1,0.1,0.1,0.2,0.2l0,0c0,0,0,0,0.1,0.1l0,0c0.1,0.1,0.1,0.1,0.2,0.2l0,0
			c0,0,0.1,0.1,0.1,0.1l0,0c0,0,0,0,0,0l0,0c0.1,0.1,0.1,0.2,0.2,0.2c0.2,0.2,0.4,0.4,0.6,0.6c0.2,0.2,0.4,0.4,0.6,0.5l0.3,0.2
			l0.1,0.2c0.1,0.3,0.1,0.6,0.2,0.9c0.2,0.6,0.3,1.2,0.5,1.8c0.2,0.8,0.5,1.7,0.8,2.5c0.1,0.3,0.2,0.6,0.3,0.9L107.2,94.5z M88.5,72
			l0.2,0.4c2.1,5,5.1,9.5,8.8,13.3c0.9,0.9,1.9,1.8,2.9,2.7c1.5,1.2,3,2.4,4.7,3.4c-0.2-0.6-0.4-1.3-0.6-1.9
			c-0.2-0.6-0.3-1.2-0.5-1.9c-0.1-0.2-0.1-0.5-0.2-0.8l0,0c-0.2-0.2-0.4-0.4-0.6-0.6c-0.2-0.2-0.4-0.4-0.6-0.6
			c-0.1-0.1-0.2-0.2-0.2-0.2c0,0,0,0-0.1-0.1c0,0-0.1-0.1-0.1-0.1c-0.1-0.1-0.1-0.1-0.2-0.2c0,0,0,0-0.1-0.1l0,0
			c-0.1-0.1-0.1-0.1-0.2-0.2c0-0.1-0.1-0.1-0.1-0.2c0,0-0.1-0.1-0.1-0.1c-0.1-0.1-0.1-0.1-0.2-0.2l0,0c0,0,0,0,0,0l-0.1-0.1
			c0-0.1-0.1-0.1-0.1-0.2c0,0,0-0.1-0.1-0.1l-0.1-0.1c0,0-0.1-0.1-0.1-0.1l0,0c0,0-0.1-0.1-0.1-0.1c0,0,0,0,0,0l0,0
			c0,0-0.1-0.1-0.1-0.1c-0.1-0.1-0.1-0.2-0.2-0.3c-0.1-0.1-0.1-0.2-0.2-0.3c0,0,0,0,0,0l0,0c-0.1-0.1-0.1-0.2-0.2-0.3
			c0-0.1-0.1-0.1-0.1-0.2l0-0.1c-0.3-0.4-0.5-0.8-0.7-1.2c-0.1-0.1-0.1-0.2-0.2-0.3l0,0c-0.1-0.1-0.1-0.2-0.2-0.3
			c-0.1-0.1-0.1-0.2-0.2-0.3c0,0,0,0,0,0l0,0c-0.1-0.1-0.1-0.2-0.2-0.3c-0.1-0.1-0.1-0.2-0.2-0.3c0,0,0,0,0,0c0,0,0,0,0,0l0,0
			c0-0.1-0.1-0.2-0.1-0.3l0,0c0,0,0,0,0,0c-0.1-0.1-0.1-0.2-0.2-0.3c0-0.1-0.1-0.2-0.2-0.3l0,0c0-0.1,0-0.1-0.1-0.2
			c0-0.1-0.1-0.1-0.1-0.2l0,0c0,0,0,0,0-0.1c0,0,0-0.1,0-0.1c0-0.1,0-0.1-0.1-0.2l0,0c0,0,0-0.1,0-0.1c0-0.1-0.1-0.2-0.1-0.3
			c0-0.1-0.1-0.2-0.1-0.3c0,0,0,0,0,0c0-0.1-0.1-0.2-0.1-0.3c0-0.1-0.1-0.3-0.1-0.4l0-0.1c0-0.1,0-0.1-0.1-0.2c0,0,0-0.1,0-0.1
			c-0.1-0.4-0.2-0.9-0.3-1.3c0-0.1,0-0.2-0.1-0.3c0-0.1,0-0.2,0-0.3c0,0,0-0.1,0-0.1c0-0.1,0-0.2,0-0.3c0-0.1,0-0.2,0-0.3l0,0
			c0,0,0-0.1,0-0.1c0-0.1,0-0.2,0-0.3l0,0c0-0.1,0-0.2,0-0.3c0-0.1,0-0.2,0-0.3c0-0.1,0-0.2,0-0.3l0-0.1c0-0.1,0-0.2,0-0.3
			c0-0.1,0-0.3,0-0.4c0-0.1,0-0.1,0-0.2c0-0.1,0-0.2,0-0.3c0,0,0-0.1,0-0.1c0-0.2,0-0.5,0-0.7c0,0,0-0.1,0-0.1c0-0.2,0-0.4,0.1-0.6
			c0-0.1,0-0.2,0-0.3l0,0c0,0,0,0,0,0c0-0.1,0-0.1,0-0.2l0-0.1c0,0,0,0,0-0.1c0-0.1,0-0.2,0-0.2l0,0c0,0,0,0,0,0
			c0-0.1,0-0.2,0.1-0.3c0-0.1,0-0.2,0.1-0.3l0,0c0.1-0.3,0.2-0.6,0.2-0.8c0.1-0.4,0.3-0.9,0.5-1.3c0,0-0.1-0.1-0.1-0.1
			c-2.5-2.1-4.7-3.6-6.8-4.5c-2.3-1-4.3-1.2-5.8-0.4c0,0-0.1,0-0.1,0.1l0,0c-0.6,0.3-1.2,0.9-1.7,1.5c-0.7,0.9-1.2,2.1-1.3,3.2
			c-0.3,2,0.5,4,2.1,5.4c0.1,0.1,0.1,0.1,0.2,0.1c1.7,1.3,3.6,1.2,4.4,1.1c0.1,0,0.1,0,0.2,0L88.5,72z M97.2,69.2L97.2,69.2
			C97.2,69.2,97.2,69.2,97.2,69.2z"/>
		<g class="st4">
			<path class="st5" d="M97.7,65.6c-0.2,0.5-0.4,1-0.6,1.6c-1.2-1.1-2.6-2.2-4.2-3.3c-4.8-3.5-8.5-3-10.8-1.9
				c0.5-0.7,1.2-1.3,1.9-1.7c0,0,0.1-0.1,0.2-0.1c3.6-1.8,8.7,1.2,13.1,5C97.4,65.3,97.6,65.4,97.7,65.6z"/>
		</g>
		<path class="st3" d="M107.2,94.5l-1.4-0.8c-2.2-1.3-4.3-2.8-6.2-4.4c-1-0.9-2-1.8-2.9-2.7c-3.8-3.8-6.7-8.3-8.9-13.3
			c-1,0.1-3.1,0.1-5-1.4c-0.1-0.1-0.2-0.1-0.2-0.2c-1.9-1.6-2.8-4-2.5-6.4c0.3-2.3,1.8-4.6,3.6-5.6c0.1,0,0.1-0.1,0.2-0.1
			c1.8-0.9,4.2-0.7,6.9,0.5c2.2,1,4.6,2.6,7.2,4.9l0,0c0,0,0,0,0,0l0.3,0.3l-0.2,0.4c-0.4,0.7-0.6,1.5-0.8,2.3l0,0
			c0,0.1,0,0.2-0.1,0.3l0,0c0,0.1,0,0.2-0.1,0.3l0,0.1c0,0.1,0,0.1,0,0.2l0,0c0,0,0,0,0,0.1c0,0.1,0,0.1,0,0.2l0,0
			c0,0.1,0,0.2,0,0.2c0,0.2-0.1,0.4-0.1,0.6l0,0c0,0,0,0.1,0,0.1l0,0c0,0.2,0,0.5,0,0.7l0,0c0,0,0,0.1,0,0.1c0,0.1,0,0.2,0,0.3
			c0,0.1,0,0.1,0,0.2c0,0.1,0,0.2,0,0.4c0,0.1,0,0.2,0,0.3l0,0c0,0.1,0,0.2,0,0.3c0,0.1,0,0.2,0,0.3c0,0.1,0,0.2,0,0.2l0,0
			c0,0.1,0,0.2,0,0.3l0,0c0,0,0,0.1,0,0.1l0,0c0,0.1,0,0.2,0,0.3l0,0c0,0.1,0,0.1,0,0.2l0,0c0,0,0,0.1,0,0.1c0,0.1,0,0.2,0,0.3l0,0
			c0,0.1,0,0.1,0,0.2l0,0c0.1,0.4,0.2,0.8,0.3,1.2l0,0c0,0,0,0.1,0,0.1c0,0.1,0,0.1,0.1,0.2l0,0.1c0,0.1,0.1,0.3,0.1,0.4
			c0,0.1,0.1,0.2,0.1,0.3l0,0c0,0.1,0.1,0.2,0.1,0.3l0,0c0,0.1,0.1,0.2,0.1,0.3l0,0c0,0,0,0.1,0,0.1l0,0c0,0.1,0,0.1,0.1,0.1l0,0
			c0,0,0,0.1,0,0.1l0,0.1c0,0.1,0,0.1,0.1,0.2l0,0c0,0.1,0,0.1,0.1,0.2l0,0c0,0.1,0.1,0.2,0.1,0.3c0,0.1,0.1,0.2,0.1,0.3
			c0,0,0,0,0,0c0,0.1,0.1,0.2,0.1,0.3c0,0,0,0,0,0l0,0c0.1,0.1,0.1,0.2,0.2,0.3c0.1,0.1,0.1,0.2,0.2,0.3l0,0
			c0.1,0.1,0.1,0.2,0.2,0.3c0.1,0.1,0.1,0.2,0.2,0.3c0,0,0,0,0,0l0,0c0,0.1,0.1,0.2,0.2,0.3c0.2,0.4,0.5,0.7,0.7,1.1l0,0
			c0,0.1,0.1,0.1,0.1,0.2c0.1,0.1,0.1,0.2,0.2,0.3l0,0c0,0,0,0,0,0.1l0,0c0.1,0.1,0.1,0.2,0.2,0.3l0,0c0.1,0.1,0.1,0.2,0.2,0.3l0,0
			c0,0,0,0.1,0.1,0.1l0,0c0,0,0.1,0.1,0.1,0.1l0,0c0,0,0.1,0.1,0.1,0.1l0,0c0,0,0,0.1,0.1,0.1l0,0c0,0.1,0.1,0.1,0.1,0.2l0.1,0.1
			c0,0,0,0,0,0c0,0,0,0,0,0l0,0c0.1,0.1,0.1,0.1,0.2,0.2l0,0c0,0,0.1,0.1,0.1,0.1l0,0c0,0.1,0.1,0.1,0.1,0.2l0,0
			c0,0.1,0.1,0.1,0.2,0.2l0,0c0,0,0,0.1,0.1,0.1l0,0c0.1,0.1,0.1,0.1,0.2,0.2l0,0c0,0,0.1,0.1,0.1,0.1l0,0c0,0,0,0,0,0l0,0
			c0.1,0.1,0.1,0.2,0.2,0.2c0.2,0.2,0.4,0.4,0.6,0.6c0.2,0.2,0.4,0.4,0.6,0.5c0,0,0.1,0.1,0.1,0.1l0.1,0.1l0,0.2c0,0,0,0,0,0l0,0
			c0.1,0.3,0.1,0.6,0.2,0.9c0.2,0.6,0.3,1.2,0.5,1.8c0.2,0.8,0.5,1.7,0.8,2.5c0.1,0.3,0.2,0.6,0.3,0.9L107.2,94.5z M88.5,72l0.2,0.4
			c2.1,5,5.1,9.5,8.8,13.3c0.9,0.9,1.9,1.8,2.9,2.7c1.5,1.2,3,2.4,4.7,3.4c-0.2-0.6-0.4-1.3-0.6-1.9c-0.2-0.6-0.3-1.2-0.5-1.9
			c-0.1-0.2-0.1-0.5-0.2-0.8c0,0,0,0,0,0c-0.2-0.2-0.4-0.4-0.6-0.6c-0.2-0.2-0.4-0.4-0.6-0.6c-0.1-0.1-0.2-0.2-0.2-0.2
			c0,0,0,0-0.1-0.1c0,0-0.1-0.1-0.1-0.1c-0.1-0.1-0.1-0.1-0.2-0.2c0,0,0-0.1-0.1-0.1l0,0c-0.1-0.1-0.1-0.1-0.2-0.2l0,0
			c0-0.1-0.1-0.1-0.1-0.2c0,0-0.1-0.1-0.1-0.1l0,0c-0.1-0.1-0.1-0.1-0.2-0.2c0,0,0,0,0,0c0,0,0,0,0,0l-0.1-0.1
			c0-0.1-0.1-0.1-0.1-0.2c0,0-0.1-0.1-0.1-0.1l0,0c0-0.1-0.1-0.1-0.1-0.2l0,0c0,0-0.1-0.1-0.1-0.1l0,0c0,0-0.1-0.1-0.1-0.1
			c-0.1-0.1-0.1-0.2-0.2-0.3c-0.1-0.1-0.1-0.2-0.2-0.3c0,0,0,0-0.1-0.1c-0.1-0.1-0.2-0.2-0.2-0.3c0-0.1-0.1-0.1-0.1-0.2l0,0
			c-0.3-0.4-0.5-0.8-0.7-1.2c-0.1-0.1-0.1-0.2-0.2-0.3c0,0,0,0,0,0l0,0c-0.1-0.1-0.1-0.2-0.2-0.3c-0.1-0.1-0.1-0.2-0.2-0.3l0-0.1
			c-0.1-0.1-0.1-0.2-0.2-0.3c-0.1-0.1-0.1-0.2-0.2-0.3l0,0c0,0,0,0,0,0l0,0c0-0.1-0.1-0.2-0.1-0.3l0,0c0,0,0,0,0,0l0,0
			c-0.1-0.1-0.1-0.2-0.2-0.3c-0.1-0.1-0.1-0.2-0.2-0.3l0,0c0-0.1,0-0.1-0.1-0.2c0-0.1-0.1-0.1-0.1-0.2l0-0.1c0,0,0-0.1,0-0.1
			c0-0.1,0-0.1-0.1-0.2l0,0c0,0,0-0.1-0.1-0.1c0-0.1-0.1-0.2-0.1-0.3c0-0.1-0.1-0.2-0.1-0.3c0,0,0,0,0,0c0-0.1-0.1-0.2-0.1-0.3
			c0-0.1-0.1-0.3-0.1-0.4l0-0.1c0-0.1,0-0.1-0.1-0.2c0,0,0-0.1,0-0.1l0,0c-0.1-0.4-0.2-0.9-0.3-1.3c0-0.1,0-0.2-0.1-0.3
			c0-0.1,0-0.2,0-0.3c0,0,0-0.1,0-0.1c0-0.1,0-0.2,0-0.3c0-0.1,0-0.2,0-0.3l0,0c0,0,0-0.1,0-0.1c0-0.1,0-0.2,0-0.3l0,0
			c0-0.1,0-0.2,0-0.3c0-0.1,0-0.2,0-0.3c0-0.1,0-0.2,0-0.3l0-0.1c0-0.1,0-0.2,0-0.3c0-0.2,0-0.3,0-0.4c0-0.1,0-0.1,0-0.2
			c0-0.1,0-0.2,0-0.3c0-0.1,0-0.1,0-0.1c0-0.2,0-0.5,0-0.7c0,0,0-0.1,0-0.1c0-0.2,0-0.4,0.1-0.6c0-0.1,0-0.2,0-0.3c0,0,0,0,0,0
			c0-0.1,0-0.1,0-0.2c0,0,0-0.1,0-0.1c0-0.1,0-0.2,0-0.2l0-0.1c0-0.1,0-0.2,0.1-0.3c0-0.1,0-0.2,0.1-0.3l0,0
			c0.2-0.7,0.4-1.4,0.7-2.1c-3.2-2.8-8.9-6.8-12.6-5c0,0-0.1,0-0.1,0.1l0,0c-1.5,0.8-2.8,2.8-3.1,4.7c-0.3,2,0.5,4,2.1,5.4
			c0.1,0,0.1,0.1,0.2,0.1c1.7,1.3,3.6,1.2,4.4,1.1c0.1,0,0.1,0,0.2,0L88.5,72z"/>
		<path class="st3" d="M80.1,66.8c0-0.2,0.1-0.4,0.2-0.6c0.1-0.2,0.2-0.4,0.3-0.5c0.1-0.2,0.2-0.3,0.4-0.5c0.1-0.2,0.3-0.3,0.4-0.4
			c0.1-0.1,0.3-0.2,0.5-0.3c0.1-0.1,0.2-0.1,0.2-0.1l0.1-0.1l0.1-0.1c0.3-0.2,0.7-0.3,1-0.4c-0.3,0.2-0.6,0.5-0.8,0.7
			c-0.2,0.3-0.5,0.5-0.6,0.8c-0.2,0.3-0.3,0.6-0.4,0.9c-0.1,0.1-0.1,0.3-0.1,0.4c0,0.1-0.1,0.3-0.1,0.4L80.1,66.8z"/>
		<path class="st3" d="M82.7,71.3c0.1-0.4,0.3-0.8,0.5-1.2c0.1-0.2,0.2-0.4,0.4-0.5c0.1-0.2,0.3-0.3,0.4-0.4
			c0.2-0.1,0.3-0.3,0.5-0.4c0.1-0.1,0.2-0.1,0.3-0.2l0.1-0.1c0,0,0.1,0,0.1-0.1c0.4-0.2,0.7-0.3,1.1-0.4c-0.3,0.2-0.6,0.5-0.9,0.8
			c-0.3,0.3-0.5,0.6-0.7,0.8c-0.2,0.3-0.3,0.6-0.5,0.9c-0.1,0.3-0.2,0.6-0.3,1L82.7,71.3z"/>
		<g class="st7">
			<path class="st3" d="M105.8,92.3c-1.7-0.2-2.9-1.2-5.4-3.1c-0.1-0.1-0.3-0.2-0.4-0.3c-1.3-1-4-3.4-6.9-7.4
				c-1.5-2.1-3.4-5-5.2-8.8c0-0.1-0.1-0.2-0.1-0.3c-0.5,0.1-2.8,0.4-4.9-1.1c-0.1,0-0.1-0.1-0.2-0.1c-1.7-1.3-2.8-3.7-2.5-6
				c0.3-2.1,1.6-4.3,3.5-5.2c0.2-0.1,0.4-0.2,0.6-0.2c-0.1,0.2-0.3,0.4-0.4,0.6c-0.5,0.9-0.9,1.9-1,2.8c-0.3,2.4,0.8,4.7,2.5,6
				c2.1,1.6,4.5,1.3,5,1.2c1.1,2.9,3.9,9.3,10.6,13.3c0,0,0,0,0,0c0,0.1,0.1,0.1,0.1,0.2c0,0.1,0.1,0.1,0.1,0.1c0,0,0.1,0.1,0.1,0.1
				c0.1,0.1,0.1,0.2,0.2,0.2c0,0,0,0,0.1,0.1c0.1,0.1,0.1,0.1,0.2,0.2c0,0,0.1,0.1,0.1,0.1c0,0.1,0.1,0.1,0.1,0.2
				c0.1,0.1,0.1,0.1,0.2,0.2c0,0,0.1,0.1,0.1,0.1c0.1,0.1,0.1,0.1,0.2,0.2c0,0,0.1,0.1,0.1,0.1c0,0,0,0,0.1,0.1
				c0.1,0.1,0.1,0.2,0.2,0.2c0.2,0.2,0.4,0.4,0.6,0.6c0.2,0.2,0.4,0.4,0.6,0.5c0,0,0.1,0.1,0.1,0.1c0,0,0,0,0,0.1
				c0.1,0.3,0.1,0.6,0.2,0.9c0.2,0.6,0.3,1.2,0.5,1.8C105.2,90.8,105.5,91.6,105.8,92.3z"/>
		</g>
		<path class="st2" d="M171.8,140.9c-0.2,0.2-0.4,0.3-0.6,0.4c-0.6,0.4-1.2,0.7-1.8,0.8c-2.1,0.4-4.1-0.8-4.5-3.2
			c0-0.2-0.1-0.4-0.1-0.6c-0.2-1.3-0.1-3.3,0.6-6.2c-2.3-0.5-5.8-1.5-9.4-4.1c-1.5-1-2.7-2.1-3.7-3.2c0.6-0.2,1.3-0.4,1.9-0.7
			c3-1.3,5.4-3,7.1-4.3c0.3-0.2,0.7-0.2,1,0c2.1,1.8,5.5,4.2,10.3,5.6c1.4,0.4,2.7,0.7,3.9,0.8c1,3.6-0.2,7.2-0.5,8.2
			C175.8,135.5,174.7,138.5,171.8,140.9z"/>
		<path class="st3" d="M168.6,142.8c-0.8,0-1.7-0.2-2.3-0.7c-1-0.7-1.7-1.7-1.9-3c0-0.2-0.1-0.4-0.1-0.6c-0.1-1.1-0.2-3.1,0.5-5.9
			c-3.3-0.8-6.3-2.1-9-4.1c-1.4-1-2.6-2.1-3.8-3.3l-0.6-0.7l0.9-0.3c0.6-0.2,1.3-0.4,1.9-0.7c2.4-1,4.8-2.4,7-4.2
			c0.5-0.4,1.2-0.4,1.7,0c3,2.6,6.4,4.4,10.1,5.5c1.2,0.4,2.5,0.6,3.8,0.8l0.4,0.1l0.1,0.4c0.4,1.6,0.5,3.4,0.3,5.3
			c-0.2,1.1-0.4,2.2-0.8,3.2c-0.5,1.5-1.7,4.4-4.5,6.7c-0.2,0.2-0.4,0.3-0.6,0.5c-0.6,0.5-1.3,0.8-2,0.9
			C169.2,142.8,168.9,142.8,168.6,142.8z M153.4,125.1c0.9,0.9,2,1.8,3,2.5c2.8,2,5.9,3.3,9.2,4l0.6,0.1l-0.2,0.6
			c-0.8,2.9-0.8,4.9-0.6,6c0,0.2,0.1,0.4,0.1,0.6c0.2,1,0.7,1.8,1.4,2.3c0.7,0.5,1.6,0.6,2.4,0.4c0.6-0.1,1.1-0.4,1.6-0.7
			c0.2-0.1,0.4-0.3,0.5-0.4v0c2.5-2.1,3.6-4.7,4.1-6.1l0,0c0.4-1.2,1.3-4.4,0.6-7.5c-1.2-0.2-2.4-0.5-3.6-0.8
			c-3.9-1.1-7.4-3.1-10.5-5.7c-0.1-0.1-0.2-0.1-0.2,0c-2.3,1.9-4.7,3.4-7.3,4.4C154.1,124.8,153.8,124.9,153.4,125.1z"/>
		<g class="st7">
			<path class="st3" d="M172,139.7c0.7-1.7,1.2-3.1,1.6-4.1c1.2-3.8,0.9-4.8,0.8-5.2c-0.1-0.2-0.5-2.2-2.1-2.5
				c-0.6-0.1-1.2-0.3-1.8-0.4c-1.3-0.3-2.1-0.6-3.6-1.3c-0.4-0.2-2.2-1-4.3-2.6c-0.8-0.6-1.2-0.9-1.7-1.4c-0.3-0.3-0.6-0.7-0.9-1
				c0.6-0.4,1.2-0.8,1.7-1.3c2.3,1.7,5.4,3.6,9.3,4.9c2,0.7,3.9,1.1,5.6,1.4c0.3,1,1.1,4.5-0.5,8.2C174.9,137.3,172.9,139,172,139.7
				z"/>
		</g>
		<path class="st10" d="M109.6,91c0,0-0.1,0-0.1,0C109.4,91,109.5,91,109.6,91L109.6,91c0.3,0.2,0.6,0.4,1,0.5
			C110.2,91.3,109.9,91.2,109.6,91z M201.3,105.2c-6.9-4.4-9.3-3.5-14.8-7.7c-6-4.5-4.6-6.6-10.4-12.1c-7.7-7.3-18-11-22.6-12.4
			c-0.3,1.3-0.7,2.5-1,3.6c0,0.1-0.1,0.2-0.1,0.3c0,0.1-0.1,0.2-0.1,0.2c0,0.1-0.1,0.2-0.1,0.3c0,0.1-0.1,0.1-0.1,0.2
			c-0.1,0.3-0.2,0.5-0.3,0.7c0,0,0,0.1-0.1,0.1c-0.1,0.2-0.1,0.3-0.2,0.5c0,0.1,0,0.1-0.1,0.1c0,0,0,0,0,0c0,0,0,0.1-0.1,0.1
			c0,0,0,0,0,0c0,0,0,0,0,0.1c-0.1,0.2-0.2,0.4-0.3,0.6c0,0,0,0.1,0,0.1c-0.4,0.9-1,2.5-2.1,4.3c0.4,0.2,0.7,0.4,1.1,0.5
			c0.9,0.4,1.7,0.9,2.4,1.4c1.6,1,3,1.9,4.3,3c0.5,0.3,1,0.7,2.7,2.2c1.5,1.4,2.6,2.5,2.8,2.7c5.9,6.1,5.8,6,6.3,6.5
			c3.6,3.3,5.6,4.5,6,4.7h0c0,0,0,0,0.1,0c0,0,0,0,0.1,0c0.1,0,0.1,0,0.2,0c1.7-0.2,5.2-0.3,8.5,1.6c0.3,0.2,0.6,0.4,0.9,0.6
			c0.7,0.5,1.5,0.8,2.3,1l0,0c0.5,0.1,1,0.2,1.5,0.2c1.8,0,3.2,0.7,4.2,1.6c1.7,1.5,4.4,0.6,5.4,0.5c3.6-0.5,8.4,2.4,12,4.6
			c2.4,1.5,4.2,2.8,4.5,2.5C214.8,117.2,209.8,110.5,201.3,105.2z"/>
		<path class="st3" d="M214.1,118.4c-0.4,0-0.9-0.3-1.2-0.4c-0.6-0.3-1.4-0.8-2.3-1.4c-0.4-0.2-0.8-0.5-1.2-0.8
			c-3.7-2.3-8.3-4.9-11.6-4.5c-0.1,0-0.3,0.1-0.6,0.1c-1.3,0.2-3.7,0.7-5.3-0.7c-1.1-1-2.4-1.5-3.8-1.5c-0.6,0-1.1-0.1-1.7-0.2
			l-0.1,0c-0.9-0.2-1.7-0.6-2.4-1.1c-0.3-0.2-0.6-0.4-0.9-0.6c-3-1.7-6.1-1.8-8.2-1.5c-0.2,0-0.3,0-0.5-0.1c-0.1,0-0.1-0.1-0.2-0.1
			l0,0c0,0-0.1-0.1-0.1-0.1c-0.7-0.4-2.7-1.7-5.9-4.7c-0.3-0.3-0.4-0.4-2-2c-0.9-0.9-2.2-2.3-4.3-4.5c-0.3-0.3-1.3-1.4-2.7-2.6
			c-1.7-1.5-2.1-1.9-2.6-2.2l0,0l0,0c-1.4-1.1-2.8-2-4.3-2.9c-0.8-0.5-1.6-0.9-2.4-1.4c-0.3-0.2-0.7-0.4-1.1-0.5l-0.6-0.3l0.3-0.5
			c0.8-1.3,1.5-2.7,2-4.2l0,0l0-0.1c0,0,0,0,0,0l0,0c0.1-0.2,0.2-0.4,0.3-0.5l0,0c0,0,0,0,0,0l0,0c0,0,0,0,0,0c0,0,0-0.1,0-0.1l0,0
			c0,0,0,0,0,0c0,0,0-0.1,0.1-0.1l0,0c0.1-0.1,0.1-0.3,0.2-0.5l0,0c0,0,0-0.1,0-0.1l0,0c0.1-0.2,0.2-0.5,0.3-0.7l0-0.1
			c0,0,0-0.1,0-0.1c0-0.1,0.1-0.1,0.1-0.2l0-0.1c0-0.1,0.1-0.1,0.1-0.2l0,0c0-0.1,0.1-0.2,0.1-0.3c0.4-1.1,0.7-2.3,1-3.5l0.1-0.6
			l0.6,0.2c2.4,0.7,6.1,2,10.2,4.1c5,2.4,9.2,5.3,12.6,8.5c2.7,2.6,3.9,4.5,4.9,6.1c1.2,1.9,2.2,3.5,5.4,5.9
			c2.8,2.1,4.8,2.9,7.1,3.8c2.1,0.8,4.4,1.7,7.7,3.8c4.4,2.8,7.6,5.7,9.5,7.7c2.1,2.2,3.6,4.3,3.7,5.2c0.1,0.3-0.1,0.6-0.2,0.7
			C214.5,118.4,214.3,118.4,214.1,118.4z M198.6,110.1c3.5,0,7.7,2.4,11.4,4.7c0.4,0.3,0.8,0.5,1.2,0.8c0.7,0.5,1.5,1,2.1,1.3
			c-0.5-0.8-1.5-2.1-3-3.7c-1.8-1.9-5-4.8-9.3-7.6c-3.2-2-5.4-2.9-7.5-3.7c-2.3-0.9-4.4-1.7-7.4-4c-3.3-2.5-4.5-4.3-5.7-6.2
			c-1-1.7-2.1-3.4-4.8-5.9c-7.4-7-17.3-10.7-21.8-12.1c-0.2,1-0.5,2-0.9,3c0,0.1-0.1,0.2-0.1,0.3l0,0c0,0.1-0.1,0.1-0.1,0.2l0,0.1
			c0,0.1-0.1,0.2-0.1,0.2l0,0c0,0,0,0.1,0,0.1c0,0,0,0.1,0,0.1c-0.1,0.2-0.2,0.5-0.3,0.7c0,0,0,0.1,0,0.1l0,0
			c-0.1,0.2-0.2,0.3-0.2,0.5c0,0.1,0,0.1-0.1,0.2l0,0c0,0,0,0,0,0l0,0c0,0,0,0.1-0.1,0.1l0,0c0,0,0,0,0,0c0,0,0,0,0,0.1
			c-0.1,0.2-0.2,0.4-0.3,0.6c0,0,0,0,0,0.1c-0.5,1.3-1.1,2.6-1.8,3.8c0.2,0.1,0.4,0.2,0.5,0.3c0.8,0.4,1.7,0.9,2.5,1.4
			c1.5,0.9,2.9,1.9,4.3,3c0.6,0.3,1.1,0.8,2.8,2.3c1.4,1.3,2.5,2.4,2.8,2.7c2.1,2.2,3.4,3.6,4.3,4.5c1.5,1.6,1.6,1.7,1.9,2
			c3.2,3,5.1,4.2,5.8,4.6c0.1,0,0.1,0.1,0.1,0.1l0,0c0,0,0,0,0,0c2.3-0.3,5.6-0.2,8.8,1.7c0.3,0.2,0.7,0.4,1,0.6
			c0.6,0.4,1.3,0.7,2.1,0.9l0.1,0c0.4,0.1,0.9,0.1,1.4,0.1c1.7,0,3.3,0.6,4.6,1.8c1.2,1,3.2,0.7,4.3,0.5c0.2,0,0.4-0.1,0.6-0.1
			C198,110.2,198.3,110.1,198.6,110.1z M174.2,105.6C174.2,105.6,174.2,105.6,174.2,105.6C174.2,105.6,174.2,105.6,174.2,105.6
			L174.2,105.6z M152,79.2L152,79.2C152,79.2,152,79.2,152,79.2z M110.3,92c-0.3-0.1-0.7-0.3-1-0.5l-0.1,0c0,0,0,0,0,0l-1.8-0.8
			l2-0.2c0,0,0,0,0.1,0c0,0,0.1,0,0.1,0l0.2,0l0.2,0.1c0.3,0.2,0.6,0.4,0.9,0.5L110.3,92z"/>
		<path class="st2" d="M193.9,133.1c-0.2,0.2-0.3,0.4-0.5,0.7c-0.5,0.7-1.1,1.1-1.8,1.5c-2.2,1.2-4.8,0.6-5.9-1.7
			c-0.1-0.2-0.2-0.4-0.3-0.6c-0.5-1.2-1.1-3.4-1-6.6c-2,0.2-4.7,0.4-7.7-0.1c-1.2-0.2-2.6-0.4-3.9-0.8c-4.8-1.4-8.3-3.8-10.4-5.7
			c-0.2-0.2-0.6-0.2-0.9,0c-1.7,1.4-4.1,3.1-7.2,4.4c-0.6,0.3-1.3,0.5-1.9,0.7c-18.4,5.9-35.3-13.4-37-15.4c-2.5-2.9-4.5-6-6.1-9.1
			c-0.6-1.2-1.2-2.5-1.8-3.7c-0.1-0.2-0.2-0.5-0.3-0.7c-0.4-0.9-0.7-1.8-1-2.7c-0.4-1.2-0.8-2.3-1.1-3.4c-0.2-0.7-0.4-1.3-0.6-2
			c0,0,0,0,0,0c0.1,0.1,0.1,0.1,0.2,0.2c1.4,1.1,3,2.1,4.7,3c0,0,0.1,0,0.1,0.1c0,0,0,0,0.1,0l0,0c0.3,0.2,0.6,0.3,1,0.5
			c0,0,0,0,0,0c0.3,0.2,0.6,0.3,0.8,0.4c0.1,0,0.1,0.1,0.2,0.1l0,0c1.1,0.5,2.2,1,3.4,1.5c0.7,0.3,5.7,2.6,12.1,2.7
			c3.2,0.1,6.8-0.4,10.4-2l0,0c1-0.4,2-1,3.1-1.6c3.9-2.4,6.4-5.4,8.1-8.1c0.1-0.1,0.1-0.2,0.2-0.3c0-0.1,0.1-0.1,0.1-0.2
			c0.4,0.2,0.7,0.4,1.1,0.5c0.9,0.4,1.7,0.9,2.4,1.4c1.6,1,3,1.9,4.3,3c2,1.6,3.8,3.3,5.4,4.9c0.4,0.4,0.7,0.7,1.1,1.1
			c0.1,0.1,0.1,0.1,0.2,0.2c2.6,2.7,5,5.4,8.1,7.8c2,1.6,4,2.9,5.8,4.1c2,1.2,3.8,2.2,5.5,2.9c3.2,1.5,5.7,2.2,7,2.5
			c1.6,0.4,3,1.2,4.1,2.4c0,0,0.1,0.1,0.1,0.1c3.2,3.5,2.8,8.6,2.7,9.9C196.7,126.2,196.4,129.7,193.9,133.1z"/>
		<path class="st3" d="M189.3,136.4c-0.5,0-1-0.1-1.4-0.2c-1.2-0.4-2.1-1.2-2.7-2.4c-0.1-0.2-0.2-0.4-0.3-0.6
			c-0.5-1.1-1-3.1-1.1-6.2c-2.4,0.2-4.9,0.2-7.2-0.2c-1.4-0.2-2.7-0.5-4-0.9c-3.9-1.1-7.5-3.1-10.6-5.8c0,0-0.1,0-0.1,0
			c-2.3,1.9-4.8,3.4-7.3,4.5c-0.6,0.3-1.3,0.5-2,0.7c-4.3,1.4-8.9,1.5-13.6,0.4c-3.8-0.9-7.7-2.7-11.6-5.2
			c-6.6-4.2-11.1-9.3-12.4-10.8c-2.4-2.8-4.4-5.9-6.2-9.2c-0.6-1.2-1.2-2.4-1.8-3.7c-0.1-0.2-0.2-0.5-0.3-0.8
			c-0.4-0.9-0.7-1.8-1-2.7c-0.4-1.1-0.8-2.3-1.1-3.5c-0.2-0.6-0.4-1.3-0.6-2c0,0,0,0,0,0l-0.4-1.6l1.3,1.1c0.1,0.1,0.1,0.1,0.2,0.2
			c1.4,1.1,2.9,2.1,4.6,2.9c0,0,0.1,0,0.1,0.1c0,0,0,0,0.1,0l0.1,0c0.3,0.2,0.6,0.3,1,0.5l0.1,0c0.3,0.1,0.5,0.3,0.8,0.4
			c0.1,0,0.1,0.1,0.2,0.1l0,0c1.1,0.5,2.2,1,3.3,1.5l0,0c0.5,0.3,5.5,2.5,11.9,2.6c3.6,0.1,7.1-0.6,10.2-1.9l0.2-0.1
			c1-0.4,1.9-0.9,2.8-1.5c3.2-2,5.8-4.6,7.9-7.9l0,0c0.1-0.1,0.1-0.2,0.2-0.3l0,0c0-0.1,0.1-0.1,0.1-0.2l0.3-0.5l0.5,0.2
			c0.4,0.2,0.7,0.4,1.1,0.5c0.8,0.4,1.7,0.9,2.5,1.4c1.5,0.9,3,1.9,4.4,3c1.8,1.4,3.5,2.9,5.5,5c0.3,0.3,0.7,0.7,1.1,1.1
			c0,0,0.1,0.1,0.1,0.1l0.1,0.1c0.4,0.4,0.8,0.9,1.2,1.3c2.2,2.3,4.3,4.5,6.8,6.5c1.9,1.5,3.8,2.8,5.7,4c1.8,1.1,3.6,2.1,5.4,2.9
			c3.2,1.5,5.7,2.2,6.9,2.5c1.7,0.4,3.2,1.3,4.4,2.5c0,0.1,0.1,0.1,0.1,0.2c3.1,3.4,3,8.3,2.9,10.3c-0.1,1.7-0.7,5.1-3.1,8.4
			c-0.2,0.2-0.3,0.4-0.5,0.7c-0.6,0.7-1.2,1.2-2,1.6C191,136.2,190.1,136.4,189.3,136.4z M184.9,125.7l0,0.7c-0.1,3.3,0.5,5.3,1,6.4
			c0.1,0.2,0.2,0.4,0.3,0.6c0.4,0.9,1.2,1.5,2,1.8c1,0.3,2.1,0.2,3.1-0.4c0.6-0.3,1.1-0.8,1.6-1.4c0.2-0.2,0.3-0.4,0.5-0.6l0,0
			c2.2-3,2.7-6.2,2.9-7.8l0,0c0.2-1.8,0.2-6.3-2.6-9.4c0,0-0.1-0.1-0.1-0.1c-1-1.1-2.3-1.8-3.8-2.2c-1.2-0.3-3.8-1-7.1-2.6
			c-1.9-0.9-3.7-1.9-5.6-3c-2-1.2-4-2.6-5.9-4.1c-2.6-2.1-4.7-4.3-6.9-6.6c-0.4-0.4-0.8-0.9-1.2-1.3l-0.1-0.1c0,0-0.1-0.1-0.1-0.1
			c-0.4-0.4-0.7-0.8-1.1-1.1c-2-2-3.6-3.5-5.4-4.9c-1.4-1.1-2.8-2-4.3-2.9c-0.8-0.5-1.6-0.9-2.4-1.4c-0.2-0.1-0.4-0.2-0.6-0.3
			c0,0,0,0,0,0c-2.2,3.5-5,6.2-8.3,8.3c-1,0.6-2.1,1.2-3.1,1.6l-0.2,0.1l0,0c-3.2,1.3-6.7,2-10.4,1.9c-2.8-0.1-5.6-0.5-8.4-1.3
			c-2.1-0.6-3.5-1.2-3.9-1.4c-1.2-0.4-2.3-1-3.4-1.5l-0.1,0c-0.1,0-0.1-0.1-0.2-0.1l0,0c-0.3-0.1-0.6-0.3-0.8-0.4
			c-0.3-0.1-0.6-0.3-1-0.5l-0.1,0c0,0,0,0,0,0l0,0c0,0-0.1,0-0.1-0.1l0,0c-1.3-0.7-2.5-1.4-3.6-2.2c0,0.1,0.1,0.3,0.1,0.4
			c0.3,1.1,0.7,2.3,1.1,3.4c0.3,0.9,0.7,1.8,1,2.7c0.1,0.3,0.2,0.5,0.3,0.7c0.5,1.2,1.1,2.5,1.7,3.6c1.7,3.3,3.7,6.3,6,9
			c1.8,2.2,18.5,20.9,36.4,15.2c0.6-0.2,1.3-0.4,1.9-0.7c2.4-1,4.8-2.5,7-4.3c0.5-0.4,1.1-0.4,1.6,0c3,2.6,6.4,4.5,10.2,5.5
			c1.2,0.4,2.5,0.6,3.8,0.8c2.5,0.4,5,0.4,7.6,0.1L184.9,125.7z"/>
		<path class="st3" d="M189.3,136.4c-0.5,0-1-0.1-1.4-0.2c-1.2-0.4-2.1-1.2-2.7-2.4c-0.1-0.2-0.2-0.4-0.3-0.6
			c-0.5-1.1-1-3.1-1.1-6.2c-2.4,0.2-4.9,0.2-7.2-0.2c-1.4-0.2-2.7-0.5-4-0.9c-3.9-1.1-7.5-3.1-10.6-5.8c0,0-0.1,0-0.1,0
			c-2.3,1.9-4.8,3.4-7.3,4.5c-0.6,0.3-1.3,0.5-2,0.7c-4.3,1.4-8.9,1.5-13.6,0.4c-3.8-0.9-7.7-2.7-11.6-5.2
			c-6.6-4.2-11.1-9.3-12.4-10.8c-2.4-2.8-4.4-5.9-6.2-9.2c-0.6-1.2-1.2-2.4-1.8-3.7c-0.1-0.2-0.2-0.5-0.3-0.8
			c-0.4-0.9-0.7-1.8-1-2.7c-0.4-1.1-0.8-2.3-1.1-3.5c-0.2-0.6-0.4-1.3-0.6-2c0,0,0,0,0,0l-0.4-1.6l1.3,1.1c0.1,0.1,0.1,0.1,0.2,0.2
			c1.4,1.1,2.9,2.1,4.6,2.9c0,0,0.1,0,0.1,0.1c0,0,0,0,0.1,0l0.1,0c0.3,0.2,0.6,0.3,1,0.5l0.1,0c0.3,0.1,0.5,0.3,0.8,0.4
			c0.1,0,0.1,0.1,0.2,0.1l0,0c1.1,0.5,2.2,1,3.3,1.5l0,0c0.5,0.3,5.5,2.5,11.9,2.6c3.6,0.1,7.1-0.6,10.2-1.9l0.2-0.1
			c1-0.4,1.9-0.9,2.8-1.5c3.2-2,5.8-4.6,7.9-7.9l0,0c0.1-0.1,0.1-0.2,0.2-0.3l0,0c0-0.1,0.1-0.1,0.1-0.2l0.3-0.5l0.5,0.2
			c0.4,0.2,0.7,0.4,1.1,0.5c0.8,0.4,1.7,0.9,2.5,1.4c1.5,0.9,3,1.9,4.4,3c1.8,1.4,3.5,2.9,5.5,5c0.3,0.3,0.7,0.7,1.1,1.1
			c0,0,0.1,0.1,0.1,0.1l0.1,0.1c0.4,0.4,0.8,0.9,1.2,1.3c2.2,2.3,4.3,4.5,6.8,6.5c1.9,1.5,3.8,2.8,5.7,4c1.8,1.1,3.6,2.1,5.4,2.9
			c3.2,1.5,5.7,2.2,6.9,2.5c1.7,0.4,3.2,1.3,4.4,2.5c0,0.1,0.1,0.1,0.1,0.2c3.1,3.4,3,8.3,2.9,10.3c-0.1,1.7-0.7,5.1-3.1,8.4
			c-0.2,0.2-0.3,0.4-0.5,0.7c-0.6,0.7-1.2,1.2-2,1.6C191,136.2,190.1,136.4,189.3,136.4z M184.9,125.7l0,0.7c-0.1,3.3,0.5,5.3,1,6.4
			c0.1,0.2,0.2,0.4,0.3,0.6c0.4,0.9,1.2,1.5,2,1.8c1,0.3,2.1,0.2,3.1-0.4c0.6-0.3,1.1-0.8,1.6-1.4c0.2-0.2,0.3-0.4,0.5-0.6l0,0
			c2.2-3,2.7-6.2,2.9-7.8l0,0c0.2-1.8,0.2-6.3-2.6-9.4c0,0-0.1-0.1-0.1-0.1c-1-1.1-2.3-1.8-3.8-2.2c-1.2-0.3-3.8-1-7.1-2.6
			c-1.9-0.9-3.7-1.9-5.6-3c-2-1.2-4-2.6-5.9-4.1c-2.6-2.1-4.7-4.3-6.9-6.6c-0.4-0.4-0.8-0.9-1.2-1.3l-0.1-0.1c0,0-0.1-0.1-0.1-0.1
			c-0.4-0.4-0.7-0.8-1.1-1.1c-2-2-3.6-3.5-5.4-4.9c-1.4-1.1-2.8-2-4.3-2.9c-0.8-0.5-1.6-0.9-2.4-1.4c-0.2-0.1-0.4-0.2-0.6-0.3
			c0,0,0,0,0,0c-2.2,3.5-5,6.2-8.3,8.3c-1,0.6-2.1,1.2-3.1,1.6l-0.2,0.1l0,0c-3.2,1.3-6.7,2-10.4,1.9c-2.8-0.1-5.6-0.5-8.4-1.3
			c-2.1-0.6-3.5-1.2-3.9-1.4c-1.2-0.4-2.3-1-3.4-1.5l-0.1,0c-0.1,0-0.1-0.1-0.2-0.1l0,0c-0.3-0.1-0.6-0.3-0.8-0.4
			c-0.3-0.1-0.6-0.3-1-0.5l-0.1,0c0,0,0,0,0,0l0,0c0,0-0.1,0-0.1-0.1l0,0c-1.3-0.7-2.5-1.4-3.6-2.2c0,0.1,0.1,0.3,0.1,0.4
			c0.3,1.1,0.7,2.3,1.1,3.4c0.3,0.9,0.7,1.8,1,2.7c0.1,0.3,0.2,0.5,0.3,0.7c0.5,1.2,1.1,2.5,1.7,3.6c1.7,3.3,3.7,6.3,6,9
			c1.8,2.2,18.5,20.9,36.4,15.2c0.6-0.2,1.3-0.4,1.9-0.7c2.4-1,4.8-2.5,7-4.3c0.5-0.4,1.1-0.4,1.6,0c3,2.6,6.4,4.5,10.2,5.5
			c1.2,0.4,2.5,0.6,3.8,0.8c2.5,0.4,5,0.4,7.6,0.1L184.9,125.7z"/>
		<path class="st3" d="M110.7,92.2l-0.5-0.2c-0.3-0.1-0.6-0.3-1-0.5l-0.1,0c0,0,0,0,0,0l0,0c0,0-0.1,0-0.1-0.1
			c-0.3-0.1-0.6-0.4-0.9-0.7l-3.7-3.8l4.4,2.9c0,0,0.1,0,0.1,0.1l0.1,0c0.1,0.1,0.2,0.2,0.4,0.2l0,0c0,0,0,0,0.1,0l0,0
			c0.1,0.1,0.3,0.2,0.4,0.2c0.1,0,0.1,0.1,0.1,0.1l0.1,0.1c0.1,0.1,0.4,0.2,0.5,0.3l1.2,0.7l-1,0.3L110.7,92.2z"/>
		<path class="st10" d="M214.3,117.8c-3.9-3.1-8.8-6.3-14.5-9.4c-2.9-1.5-5.7-2.8-8.4-3.9c-1.8-0.8-4.2-2-6.5-4.1
			c-1.6-1.4-2.8-2.9-3.7-4.1c-1-1.7-2.2-3.5-3.8-5.3c-4.6-4.9-10.2-7.3-14.8-8.6c-3.8-1-7.9,0.6-10.1,3.9c-0.6,0.9-1.2,1.7-1.8,2.6
			c0,0,0,0-0.1,0.1c0,0,0,0.1-0.1,0.1c-0.7,0.9-1.4,1.8-2.2,2.6c-4.5,4.6-10.5,7.6-17,8.2c-1.7,0.2-3.6,0.2-5.6,0
			c-8.8-0.8-14.9-5.4-18.3-8.7c-1.5-1.4-2.4-2.7-2.9-3.2c-0.1-0.3-0.2-0.6-0.2-0.9c0.2,0.2,0.4,0.3,0.5,0.5c0.3,0.2,1.6,1.3,3.2,2.4
			c0.8,0.5,1.3,0.8,1.6,1c0.2,0.1,0.9,0.5,1.8,1c0.1,0,0.1,0.1,0.2,0.1l0,0c1.1,0.5,2.2,1,3.4,1.5c0.7,0.3,5.7,2.6,12.1,2.7
			c3.2,0.1,6.8-0.4,10.4-2l0,0c1-0.4,2-1,3.1-1.6c3.9-2.4,6.4-5.4,8.1-8.1c0.1-0.1,0.1-0.2,0.2-0.3c1.1-1.8,1.8-3.5,2.2-4.4
			c0,0,0-0.1,0-0.1c0.1-0.1,0.2-0.3,0.3-0.6c0,0,0,0,0-0.1c0,0,0,0,0,0c0,0,0-0.1,0.1-0.1c0,0,0,0,0,0c0,0,0-0.1,0.1-0.1
			c0.1-0.1,0.1-0.3,0.2-0.5c0,0,0-0.1,0.1-0.1c0.1-0.2,0.2-0.5,0.3-0.7c0-0.1,0-0.1,0.1-0.2c0-0.1,0.1-0.2,0.1-0.3
			c0-0.1,0.1-0.2,0.1-0.2c0-0.1,0.1-0.2,0.1-0.3c0.4-1,0.7-2.2,1-3.6c4.6,1.4,14.9,5.2,22.6,12.4c5.8,5.5,4.4,7.5,10.4,12.1
			c5.5,4.2,7.9,3.3,14.8,7.7C209.8,110.5,214.8,117.2,214.3,117.8z"/>
		<path class="st3" d="M214.3,118.6l-0.4-0.3c-4.5-3.5-9.4-6.6-14.4-9.3c-2.7-1.4-5.5-2.7-8.4-3.9l0,0c-2.5-1.1-4.7-2.5-6.7-4.2
			c-1.4-1.2-2.7-2.6-3.8-4.2l0,0l0,0c-1.1-1.9-2.3-3.6-3.8-5.2c-3.7-4-8.6-6.8-14.5-8.4c-3.6-0.9-7.4,0.5-9.4,3.7
			c-0.6,0.9-1.2,1.8-1.8,2.6l0,0c0,0,0,0,0,0.1l-0.1,0.1c-0.7,0.9-1.5,1.8-2.3,2.6c-4.6,4.8-10.8,7.7-17.4,8.4
			c-1.9,0.2-3.8,0.2-5.7,0c-4-0.4-7.8-1.6-11.4-3.5c-2.6-1.4-5.1-3.2-7.3-5.4c-1.4-1.4-2.4-2.5-3-3.3l-0.1-0.1l0-0.1
			c-0.1-0.3-0.1-0.6-0.2-0.9l-0.4-1.8l1.4,1.2c0.2,0.2,0.3,0.3,0.5,0.4c0.2,0.2,1.5,1.2,3.1,2.4c0.8,0.5,1.3,0.8,1.6,1l0,0
			c0.2,0.1,0.9,0.5,1.7,1c0.1,0,0.1,0.1,0.2,0.1l0,0c1.1,0.5,2.2,1,3.3,1.5l0,0c0.5,0.3,5.5,2.5,11.9,2.6c3.6,0.1,7.1-0.6,10.2-1.9
			l0.2-0.1c1-0.4,1.9-0.9,2.8-1.5c3.2-2,5.8-4.6,7.9-7.9l0,0c0.1-0.1,0.1-0.2,0.2-0.3l0,0c0.8-1.4,1.6-2.8,2.1-4.4l0,0l0-0.1
			c0,0,0,0,0,0l0,0c0.1-0.2,0.2-0.4,0.3-0.5l0,0c0,0,0,0,0,0l0,0c0,0,0,0,0,0c0,0,0-0.1,0-0.1l0,0c0,0,0,0,0,0c0,0,0-0.1,0.1-0.1
			l0,0c0.1-0.1,0.1-0.3,0.2-0.5l0,0c0,0,0-0.1,0-0.1l0,0c0.1-0.2,0.2-0.5,0.3-0.7l0-0.1c0,0,0-0.1,0-0.1c0-0.1,0.1-0.1,0.1-0.2
			l0-0.1c0-0.1,0.1-0.1,0.1-0.2l0,0c0-0.1,0.1-0.2,0.1-0.3c0.4-1.1,0.7-2.3,1-3.5l0.1-0.6l0.6,0.2c2.4,0.7,6.1,2,10.2,4.1
			c5,2.4,9.2,5.3,12.6,8.5c2.7,2.6,3.9,4.5,4.9,6.1c1.2,1.9,2.2,3.5,5.4,5.9c2.8,2.1,4.8,2.9,7.1,3.8c2.1,0.8,4.4,1.7,7.7,3.8
			c4.4,2.8,7.6,5.7,9.5,7.7c2.1,2.2,3.6,4.3,3.7,5.2c0.1,0.3-0.1,0.6-0.2,0.7L214.3,118.6z M191.6,104c2.9,1.2,5.7,2.5,8.5,3.9
			c4.4,2.3,8.6,4.9,12.6,7.9c-0.5-0.7-1.3-1.6-2.3-2.6c-1.8-1.9-5-4.8-9.3-7.6c-3.2-2-5.4-2.9-7.5-3.7c-2.3-0.9-4.4-1.7-7.4-4
			c-3.3-2.5-4.5-4.3-5.7-6.2c-1-1.7-2.1-3.4-4.8-5.9c-7.4-7-17.3-10.7-21.8-12.1c-0.2,1-0.5,2-0.9,3c0,0.1-0.1,0.2-0.1,0.3l0,0
			c0,0.1-0.1,0.1-0.1,0.2l0,0.1c0,0.1-0.1,0.2-0.1,0.2l0,0c0,0,0,0.1,0,0.1c0,0,0,0.1,0,0.1c-0.1,0.2-0.2,0.5-0.3,0.7
			c0,0,0,0.1,0,0.1l0,0c-0.1,0.2-0.2,0.3-0.2,0.5c0,0.1,0,0.1-0.1,0.2l0,0c0,0,0,0,0,0l0,0c0,0,0,0.1-0.1,0.1l0,0c0,0,0,0,0,0
			c0,0,0,0,0,0.1c-0.1,0.2-0.2,0.4-0.3,0.6c0,0,0,0,0,0.1c-0.6,1.6-1.3,3.1-2.2,4.5l0,0c-0.1,0.1-0.1,0.2-0.2,0.3
			c-2.2,3.5-5,6.2-8.3,8.3c-1,0.6-2.1,1.2-3.1,1.6l-0.2,0.1l0,0c-3,1.3-6.4,1.9-9.9,1.9c-0.2,0-0.3,0-0.5,0
			c-2.8-0.1-5.6-0.5-8.4-1.3c-2.1-0.6-3.5-1.2-3.9-1.4c-1.2-0.4-2.3-1-3.4-1.5l-0.1,0c-0.1,0-0.1-0.1-0.2-0.1
			c-0.9-0.5-1.6-0.9-1.8-1l0,0c-0.3-0.2-0.8-0.5-1.6-1.1c-0.3-0.2-0.6-0.4-0.9-0.6c0.3,0.3,0.6,0.7,1,1c3.6,3.5,9.6,7.8,18,8.6
			c1.8,0.2,3.7,0.2,5.5,0c6.3-0.6,12.2-3.5,16.6-8c0.8-0.8,1.5-1.6,2.2-2.5l0.1-0.1c0.6-0.8,1.2-1.7,1.8-2.6
			c1.1-1.7,2.7-3.1,4.7-3.8c1.9-0.7,4-0.9,6-0.3c2.7,0.7,5.2,1.7,7.5,2.9c2.9,1.5,5.4,3.5,7.5,5.8c1.5,1.6,2.8,3.4,3.9,5.4
			c1.1,1.5,2.3,2.8,3.6,4C187.1,101.7,189.2,103,191.6,104z M152,79.2L152,79.2C152,79.2,152,79.2,152,79.2z"/>
		<g class="st7">
			<path class="st3" d="M214.3,117.8c-0.1,0.1-0.8-0.2-1.4-0.5c-0.8-0.5-1.8-1.2-3.1-1.9c-0.7-0.4-1.4-0.9-2.2-1.3
				c-1.7-1.2-3.3-1.9-4.4-2.3c-1.7-0.7-2.6-1-3.9-1c-1.2,0-1.6,0.3-3.8,0.3c-1.2,0-1.7,0-2.3-0.3c-0.8-0.3-0.7-0.6-1.7-1.2
				c-0.4-0.3-1.3-0.7-2.4-0.9c-0.6-0.1-0.6,0-1.4-0.1c-1-0.1-1.8-0.4-2.3-0.6c-1.9-0.7-2.1-1.2-4-2c-0.4-0.2-1.9-0.8-4-0.9
				c-1.2-0.1-2.2-0.1-2.9,0c-0.4-0.2-2.4-1.4-6-4.7c-0.5-0.5-0.4-0.4-6.3-6.5c-0.2-0.2-1.2-1.3-2.8-2.7c-1.7-1.5-2.2-1.9-2.7-2.2
				c-1.2-0.9-2.5-1.8-3.9-2.7c0.6-0.7,1.1-1.4,2-2c0.6-0.5,1.5-1,2.7-1.4c6-2,12.3,2.3,14.6,3.8c1.6,1,2.7,2.1,3.5,2.9
				c0.8,0.8,2.1,2.2,3.5,3.9c2.8,3.5,2.7,4.3,4.7,6.3c2.4,2.4,5.1,3.7,6.3,4.3c1.3,0.6,1.2,0.5,3.7,1.6c1,0.4,3.3,1.5,6.1,3
				c2.8,1.5,4.8,2.8,6.8,4C209.8,114.5,214.4,117.6,214.3,117.8z"/>
		</g>
		<g class="st4">
			<path class="st5" d="M214.3,117.8c0,0-0.1-0.1-0.1-0.1c-2-2.6-6-6.6-11.5-10.1c-6.9-4.4-9.3-3.5-14.8-7.7
				c-4.6-3.5-4.9-5.5-7.3-8.7c-1.1-1.5-2.1-2.4-3-3.3c-4.2-4.1-9.3-6.8-11.7-8.1c-3.1-1.6-7.3-3.5-12.6-5c0.2-0.6,0.3-1.2,0.5-1.8
				c4.6,1.4,14.9,5.2,22.6,12.4c5.8,5.5,4.4,7.5,10.4,12.1c5.5,4.2,7.9,3.3,14.8,7.7C209.8,110.5,214.8,117.2,214.3,117.8z"/>
		</g>
		<path class="st3" d="M214.3,118.6l-0.4-0.3c-4.5-3.5-9.4-6.6-14.4-9.3c-2.7-1.4-5.5-2.7-8.4-3.9l0,0c-2.5-1.1-4.7-2.5-6.7-4.2
			c-1.4-1.2-2.7-2.6-3.8-4.2l0,0l0,0c-1.1-1.9-2.3-3.6-3.8-5.2c-3.7-4-8.6-6.8-14.5-8.4c-3.6-0.9-7.4,0.5-9.4,3.7
			c-0.6,0.9-1.2,1.8-1.8,2.6l0,0c0,0,0,0,0,0.1l-0.1,0.1c-0.7,0.9-1.5,1.8-2.3,2.6c-4.6,4.8-10.8,7.7-17.4,8.4
			c-1.9,0.2-3.8,0.2-5.7,0c-4-0.4-7.8-1.6-11.4-3.5c-2.6-1.4-5.1-3.2-7.3-5.4c-1.4-1.4-2.4-2.5-3-3.3l-0.1-0.1l0-0.1
			c-0.1-0.3-0.1-0.6-0.2-0.9l-0.4-1.8l1.4,1.2c0.2,0.2,0.3,0.3,0.5,0.4c0.2,0.2,1.5,1.2,3.1,2.4c0.8,0.5,1.3,0.8,1.6,1l0,0
			c0.2,0.1,0.9,0.5,1.7,1c0.1,0,0.1,0.1,0.2,0.1l0,0c1.1,0.5,2.2,1,3.3,1.5l0,0c0.5,0.3,5.5,2.5,11.9,2.6c3.6,0.1,7.1-0.6,10.2-1.9
			l0.2-0.1c1-0.4,1.9-0.9,2.8-1.5c3.2-2,5.8-4.6,7.9-7.9l0,0c0.1-0.1,0.1-0.2,0.2-0.3l0,0c0.8-1.4,1.6-2.8,2.1-4.4l0,0l0-0.1
			c0,0,0,0,0,0l0,0c0.1-0.2,0.2-0.4,0.3-0.5l0,0c0,0,0,0,0,0l0,0c0,0,0,0,0,0c0,0,0-0.1,0-0.1l0,0c0,0,0,0,0,0c0,0,0-0.1,0.1-0.1
			l0,0c0.1-0.1,0.1-0.3,0.2-0.5l0,0c0,0,0-0.1,0-0.1l0,0c0.1-0.2,0.2-0.5,0.3-0.7l0-0.1c0,0,0-0.1,0-0.1c0-0.1,0.1-0.1,0.1-0.2
			l0-0.1c0-0.1,0.1-0.1,0.1-0.2l0,0c0-0.1,0.1-0.2,0.1-0.3c0.4-1.1,0.7-2.3,1-3.5l0.1-0.6l0.6,0.2c2.4,0.7,6.1,2,10.2,4.1
			c5,2.4,9.2,5.3,12.6,8.5c2.7,2.6,3.9,4.5,4.9,6.1c1.2,1.9,2.2,3.5,5.4,5.9c2.8,2.1,4.8,2.9,7.1,3.8c2.1,0.8,4.4,1.7,7.7,3.8
			c4.4,2.8,7.6,5.7,9.5,7.7c2.1,2.2,3.6,4.3,3.7,5.2c0.1,0.3-0.1,0.6-0.2,0.7L214.3,118.6z M191.6,104c2.9,1.2,5.7,2.5,8.5,3.9
			c4.4,2.3,8.6,4.9,12.6,7.9c-0.5-0.7-1.3-1.6-2.3-2.6c-1.8-1.9-5-4.8-9.3-7.6c-3.2-2-5.4-2.9-7.5-3.7c-2.3-0.9-4.4-1.7-7.4-4
			c-3.3-2.5-4.5-4.3-5.7-6.2c-1-1.7-2.1-3.4-4.8-5.9c-7.4-7-17.3-10.7-21.8-12.1c-0.2,1-0.5,2-0.9,3c0,0.1-0.1,0.2-0.1,0.3l0,0
			c0,0.1-0.1,0.1-0.1,0.2l0,0.1c0,0.1-0.1,0.2-0.1,0.2l0,0c0,0,0,0.1,0,0.1c0,0,0,0.1,0,0.1c-0.1,0.2-0.2,0.5-0.3,0.7
			c0,0,0,0.1,0,0.1l0,0c-0.1,0.2-0.2,0.3-0.2,0.5c0,0.1,0,0.1-0.1,0.2l0,0c0,0,0,0,0,0l0,0c0,0,0,0.1-0.1,0.1l0,0c0,0,0,0,0,0
			c0,0,0,0,0,0.1c-0.1,0.2-0.2,0.4-0.3,0.6c0,0,0,0,0,0.1c-0.6,1.6-1.3,3.1-2.2,4.5l0,0c-0.1,0.1-0.1,0.2-0.2,0.3
			c-2.2,3.5-5,6.2-8.3,8.3c-1,0.6-2.1,1.2-3.1,1.6l-0.2,0.1l0,0c-3,1.3-6.4,1.9-9.9,1.9c-0.2,0-0.3,0-0.5,0
			c-2.8-0.1-5.6-0.5-8.4-1.3c-2.1-0.6-3.5-1.2-3.9-1.4c-1.2-0.4-2.3-1-3.4-1.5l-0.1,0c-0.1,0-0.1-0.1-0.2-0.1
			c-0.9-0.5-1.6-0.9-1.8-1l0,0c-0.3-0.2-0.8-0.5-1.6-1.1c-0.3-0.2-0.6-0.4-0.9-0.6c0.3,0.3,0.6,0.7,1,1c3.6,3.5,9.6,7.8,18,8.6
			c1.8,0.2,3.7,0.2,5.5,0c6.3-0.6,12.2-3.5,16.6-8c0.8-0.8,1.5-1.6,2.2-2.5l0.1-0.1c0.6-0.8,1.2-1.7,1.8-2.6
			c1.1-1.7,2.7-3.1,4.7-3.8c1.9-0.7,4-0.9,6-0.3c2.7,0.7,5.2,1.7,7.5,2.9c2.9,1.5,5.4,3.5,7.5,5.8c1.5,1.6,2.8,3.4,3.9,5.4
			c1.1,1.5,2.3,2.8,3.6,4C187.1,101.7,189.2,103,191.6,104z M152,79.2L152,79.2C152,79.2,152,79.2,152,79.2z"/>
		<path class="st3" d="M165.3,131.5c0.6,0.1,1.1,0.2,1.7,0.2c0.3,0,0.6,0,0.9-0.1c0.3,0,0.6-0.1,0.9-0.2c0.3-0.1,0.6-0.2,0.8-0.3
			c0.3-0.1,0.6-0.3,0.8-0.4c0.5-0.3,1.1-0.6,1.6-1c-0.4,0.5-0.8,1-1.3,1.4c-0.2,0.2-0.5,0.4-0.8,0.6c-0.1,0.1-0.3,0.2-0.4,0.3
			c-0.1,0.1-0.3,0.2-0.4,0.2c-0.3,0.1-0.6,0.3-0.9,0.3c-0.3,0.1-0.7,0.2-1,0.2c-0.7,0.1-1.4,0-2-0.1L165.3,131.5z"/>
		<path class="st3" d="M184.5,125.8c0.6-0.1,1.1-0.3,1.7-0.5c0.3-0.1,0.5-0.2,0.8-0.4c0.3-0.1,0.5-0.3,0.7-0.5
			c0.2-0.2,0.5-0.4,0.7-0.6c0.2-0.2,0.4-0.4,0.6-0.7c0.4-0.5,0.8-1,1.1-1.5c-0.2,0.6-0.4,1.2-0.7,1.8c-0.2,0.3-0.3,0.6-0.5,0.8
			c-0.1,0.1-0.2,0.3-0.3,0.4c-0.1,0.1-0.2,0.3-0.3,0.4c-0.2,0.2-0.5,0.5-0.7,0.7c-0.3,0.2-0.6,0.4-0.9,0.5c-0.6,0.3-1.2,0.5-1.9,0.7
			L184.5,125.8z"/>
		<g class="st7">
			<path class="st3" d="M141,92c1.4-0.8,2.6-1.8,3.6-2.7c-1.2,1.8-2.7,3.8-4.9,5.2c-1.2,0.8-2.3,1.3-3.1,1.6l0,0
				c-3.6,1.5-7.2,2-10.4,2c-6.4-0.1-11.4-2.4-12.1-2.7c-1.2-0.4-2.3-0.9-3.4-1.5l0,0c-0.1,0-0.1-0.1-0.2-0.1
				c-0.3-0.1-0.6-0.3-0.8-0.4l0,0c-0.3-0.2-0.7-0.3-1-0.5l0,0c0,0,0,0-0.1,0c0,0-0.1,0-0.1-0.1c-0.8-0.4-1.6-0.9-2.3-1.3
				c-0.3-0.8-0.5-1.5-0.7-2.3c-0.2-0.7-0.4-1.3-0.6-2c0,0,0,0,0,0c0.1,0.1,0.1,0.1,0.2,0.2c1.4,1.1,3,2.1,4.7,3c0,0,0.1,0,0.1,0.1
				c0,0,0,0,0.1,0l0,0c0.3,0.2,0.6,0.3,1,0.5l0,0c0.3,0.2,0.6,0.3,0.8,0.4c0.1,0,0.1,0.1,0.2,0.1l0,0c1.1,0.5,2.2,1,3.4,1.5
				c0.7,0.3,5.7,2.6,12.1,2.7c3.2,0.1,6.8-0.4,10.4-2l0,0C138.9,93.1,139.9,92.6,141,92z"/>
		</g>
		<path class="st3" d="M188.7,136.2c-0.2-0.1-0.3-0.2-0.5-0.4c-0.1-0.1-0.3-0.3-0.4-0.5c-0.1-0.2-0.2-0.3-0.3-0.5
			c-0.1-0.2-0.2-0.4-0.2-0.5c-0.1-0.2-0.1-0.4-0.1-0.6c0-0.1,0-0.2,0-0.3l0-0.1l0-0.1c0-0.4,0-0.7,0-1.1c0.1,0.4,0.2,0.7,0.4,1
			c0.1,0.3,0.3,0.6,0.5,0.9c0.2,0.3,0.4,0.5,0.6,0.7c0.1,0.1,0.2,0.2,0.4,0.3c0.1,0.1,0.2,0.2,0.4,0.3L188.7,136.2z"/>
		<path class="st3" d="M193.6,133.4c-0.1-0.1-0.3-0.2-0.4-0.4c-0.1-0.1-0.2-0.3-0.3-0.4c-0.1-0.2-0.2-0.3-0.2-0.5
			c-0.1-0.2-0.1-0.3-0.2-0.5c0-0.2-0.1-0.3-0.1-0.5c0-0.1,0-0.2,0-0.3l0-0.1l0-0.1c0-0.3,0-0.7,0.1-1c0.1,0.3,0.2,0.6,0.3,0.9
			c0.1,0.3,0.2,0.6,0.4,0.8c0.2,0.2,0.3,0.5,0.5,0.7c0.1,0.1,0.2,0.2,0.3,0.3c0.1,0.1,0.2,0.2,0.3,0.3L193.6,133.4z"/>
		<path class="st3" d="M167.5,142.4c-0.2-0.1-0.3-0.3-0.4-0.4c-0.1-0.2-0.2-0.3-0.3-0.5c-0.1-0.2-0.2-0.4-0.3-0.5
			c-0.1-0.2-0.1-0.4-0.2-0.6c0-0.2-0.1-0.4-0.1-0.6c0-0.1,0-0.2,0-0.3l0-0.1l0-0.1c0-0.4,0.1-0.7,0.2-1.1c0.1,0.4,0.1,0.7,0.2,1
			c0.1,0.3,0.2,0.7,0.4,0.9c0.2,0.3,0.3,0.5,0.6,0.8c0.1,0.1,0.2,0.2,0.3,0.3c0.1,0.1,0.2,0.2,0.3,0.3L167.5,142.4z"/>
		<path class="st3" d="M172.6,140.1c-0.1-0.1-0.3-0.3-0.4-0.4c-0.1-0.2-0.2-0.3-0.3-0.5c-0.1-0.2-0.1-0.3-0.2-0.5
			c0-0.2-0.1-0.4-0.1-0.5c0-0.2,0-0.4,0-0.5c0-0.1,0-0.2,0-0.3l0-0.1l0-0.1c0-0.3,0.1-0.7,0.3-1c0,0.3,0.1,0.6,0.2,0.9
			c0.1,0.3,0.2,0.6,0.3,0.9c0.1,0.3,0.3,0.5,0.4,0.7c0.1,0.1,0.2,0.2,0.3,0.3c0.1,0.1,0.2,0.2,0.3,0.3L172.6,140.1z"/>
		<path class="st3" d="M88,72.1c0.1,0,0.3-0.1,0.4-0.1c0.1,0,0.3-0.1,0.4-0.1c0.3-0.1,0.6-0.2,0.9-0.4c0.3-0.2,0.5-0.4,0.8-0.6
			c0.3-0.2,0.5-0.5,0.7-0.8c-0.1,0.4-0.2,0.7-0.4,1l-0.1,0.1l-0.1,0.1c0,0.1-0.1,0.2-0.1,0.2c-0.1,0.2-0.2,0.3-0.4,0.5
			c-0.1,0.1-0.3,0.3-0.4,0.4c-0.2,0.1-0.3,0.2-0.5,0.4c-0.2,0.1-0.4,0.2-0.5,0.3c-0.2,0.1-0.4,0.1-0.6,0.2L88,72.1z"/>
		<path class="st10" d="M118.4,98c0.6,2.1,1.1,4.5,1.5,7.2c0.2,1.3,0.3,2.6,0.4,3.8c0.1,0.8-0.9,1.2-1.4,0.7
			c-1.8-1.8-4.7-5.2-6.4-9.8c-0.6-1.6,0.2-3.4,1.8-4c0.1-0.1,0.3-0.1,0.5-0.1C116.2,95.4,117.9,96.4,118.4,98z"/>
		<path class="st3" d="M119.5,110.5c-0.4,0-0.7-0.1-1-0.4c-1.7-1.7-4.8-5.2-6.6-10c-0.7-1.9,0.2-4,2.1-4.7c0.2-0.1,0.4-0.1,0.5-0.2
			c0.9-0.2,1.9,0,2.7,0.5c0.8,0.5,1.4,1.2,1.7,2.2l0,0c0.7,2.4,1.2,4.8,1.5,7.3c0.2,1.3,0.3,2.6,0.4,3.9c0,0.6-0.3,1.1-0.8,1.4
			C119.9,110.4,119.7,110.5,119.5,110.5z M115.3,96.3c-0.2,0-0.3,0-0.5,0.1c-0.1,0-0.3,0.1-0.4,0.1c-1.3,0.5-1.9,1.9-1.4,3.2
			c1.7,4.6,4.7,8,6.3,9.6c0.1,0.1,0.2,0.1,0.3,0.1c0.1,0,0.2-0.1,0.2-0.3c-0.1-1.3-0.2-2.5-0.4-3.8c-0.3-2.4-0.8-4.8-1.5-7.1
			C117.5,97,116.4,96.3,115.3,96.3z"/>
		<g class="st4">
			<path class="st5" d="M116.9,100.2c0,0,2.2,4.2,3,9.6c0,0,0.1-7.3-1.7-11.8L116.9,100.2z"/>
		</g>
		<path class="st3" d="M119.5,110.5c-0.4,0-0.7-0.1-1-0.4c-1.7-1.7-4.8-5.2-6.6-10c-0.7-1.9,0.2-4,2.1-4.7c0.2-0.1,0.4-0.1,0.5-0.2
			c0.9-0.2,1.9,0,2.7,0.5c0.8,0.5,1.4,1.2,1.7,2.2l0,0c0.7,2.4,1.2,4.8,1.5,7.3c0.2,1.3,0.3,2.6,0.4,3.9c0,0.6-0.3,1.1-0.8,1.4
			C119.9,110.4,119.7,110.5,119.5,110.5z M115.3,96.3c-0.2,0-0.3,0-0.5,0.1c-0.1,0-0.3,0.1-0.4,0.1c-1.3,0.5-1.9,1.9-1.4,3.2
			c1.7,4.6,4.7,8,6.3,9.6c0.1,0.1,0.2,0.1,0.3,0.1c0.1,0,0.2-0.1,0.2-0.3c-0.1-1.3-0.2-2.5-0.4-3.8c-0.3-2.4-0.8-4.8-1.5-7.1
			C117.5,97,116.4,96.3,115.3,96.3z"/>
		<path class="st10" d="M112.5,101c-1.8,0.5-3.8,0.9-6,1.2c-1,0.1-2,0.2-2.9,0.3c-0.7,0.1-1.1-0.9-0.6-1.4c1.5-1.5,4.3-3.8,8.1-5.1
			c1.3-0.5,2.8,0.2,3.3,1.4c0.1,0.1,0.1,0.3,0.1,0.4C114.7,99.2,113.9,100.5,112.5,101z"/>
		<path class="st3" d="M103.5,103.1c-0.5,0-1-0.3-1.2-0.8c-0.2-0.5-0.1-1.1,0.3-1.6c1.7-1.7,4.5-3.9,8.3-5.3
			c0.8-0.3,1.6-0.2,2.4,0.1c0.8,0.3,1.3,0.9,1.6,1.7c0.1,0.2,0.1,0.3,0.2,0.5c0.2,0.8,0,1.6-0.4,2.3c-0.4,0.7-1.1,1.2-1.9,1.5l0,0
			c-2,0.5-4,1-6.1,1.2c-1,0.1-2,0.2-3,0.3C103.6,103.1,103.6,103.1,103.5,103.1z M111.9,96.4c-0.2,0-0.5,0-0.7,0.1
			c-3.6,1.3-6.2,3.4-7.9,5c-0.1,0.1-0.1,0.2,0,0.3c0,0.1,0.1,0.1,0.2,0.1c1-0.1,1.9-0.2,2.9-0.3c2-0.3,4-0.7,5.9-1.2
			c1-0.3,1.7-1.4,1.5-2.5c0-0.1-0.1-0.2-0.1-0.3C113.5,96.9,112.7,96.4,111.9,96.4z"/>
		<g class="st4">
			<path class="st5" d="M111.3,97.3c-0.8,0.3-1.6,0.7-2.5,1.1c-2.4,1.1-4.4,2.3-6.1,3.5c0.8-0.9,1.8-1.9,3.1-2.9
				c2.2-1.6,4.2-2.6,5.9-3.2C111.6,96.3,111.5,96.8,111.3,97.3z"/>
		</g>
		<path class="st3" d="M103.5,103.1c-0.5,0-1-0.3-1.2-0.8c-0.2-0.5-0.1-1.1,0.3-1.6c1.7-1.7,4.5-3.9,8.3-5.3
			c0.8-0.3,1.6-0.2,2.4,0.1c0.8,0.3,1.3,0.9,1.6,1.7c0.1,0.2,0.1,0.3,0.2,0.5c0.2,0.8,0,1.6-0.4,2.3c-0.4,0.7-1.1,1.2-1.9,1.5l0,0
			c-2,0.5-4,1-6.1,1.2c-1,0.1-2,0.2-3,0.3C103.6,103.1,103.6,103.1,103.5,103.1z M111.9,96.4c-0.2,0-0.5,0-0.7,0.1
			c-3.6,1.3-6.2,3.4-7.9,5c-0.1,0.1-0.1,0.2,0,0.3c0,0.1,0.1,0.1,0.2,0.1c1-0.1,1.9-0.2,2.9-0.3c2-0.3,4-0.7,5.9-1.2
			c1-0.3,1.7-1.4,1.5-2.5c0-0.1-0.1-0.2-0.1-0.3C113.5,96.9,112.7,96.4,111.9,96.4z"/>
		<path class="st10" d="M118.1,96.8c0.3,1.6-0.5,3.1-1.9,3.8c-0.3,0.1-0.5,0.2-0.8,0.3c-1.9,0.4-3.7-0.8-4-2.7c0-0.1,0-0.2-0.1-0.3
			c-0.2-1.7,1-3.4,2.7-3.7C115.9,93.7,117.7,95,118.1,96.8z"/>
		<path class="st3" d="M114.7,101.5c-1.9,0-3.6-1.3-3.9-3.2c0-0.1,0-0.3-0.1-0.4c-0.1-1,0.2-2,0.8-2.8c0.6-0.8,1.5-1.4,2.4-1.6
			c2.2-0.4,4.3,1,4.7,3.1c0.4,1.8-0.5,3.6-2.2,4.4c-0.3,0.1-0.6,0.3-1,0.3C115.2,101.5,115,101.5,114.7,101.5z M114.7,94.6
			c-0.2,0-0.4,0-0.6,0.1c-1.4,0.3-2.4,1.6-2.3,3.1c0,0.1,0,0.2,0,0.3c0.3,1.5,1.8,2.6,3.4,2.2c0.2,0,0.5-0.1,0.7-0.2
			c1.2-0.6,1.8-1.9,1.6-3.1C117.3,95.6,116.1,94.6,114.7,94.6z"/>
		<path class="st10" d="M117.5,95.5c0.2,0.2,0,0.5-0.3,0.4c-1.2-0.3-2.5,0-3.3,1c-0.1,0.1-0.2,0.3-0.3,0.4c-0.6,0.9-0.6,2-0.2,2.9
			c0.1,0.2-0.1,0.4-0.3,0.3c-0.9-0.5-1.6-1.4-1.8-2.5c-0.3-1.7,0.9-3.4,2.6-3.8C115.3,93.8,116.7,94.4,117.5,95.5z"/>
		<path class="st3" d="M113.2,101.1c-0.1,0-0.3,0-0.4-0.1c-1.1-0.6-1.9-1.7-2.1-2.9c-0.3-2,1-4,3-4.5c1.6-0.4,3.3,0.2,4.2,1.6
			c0.2,0.3,0.2,0.7,0,1c-0.2,0.3-0.6,0.4-0.9,0.3c-1-0.3-2.1,0-2.8,0.8c-0.1,0.1-0.2,0.2-0.3,0.4c-0.4,0.7-0.5,1.6-0.1,2.4
			c0.1,0.3,0.1,0.7-0.2,0.9C113.6,101,113.4,101.1,113.2,101.1z M114.7,94.6c-0.2,0-0.5,0-0.7,0.1c-1.4,0.3-2.4,1.8-2.1,3.2
			c0.1,0.6,0.3,1.1,0.7,1.5c-0.1-0.8,0.1-1.6,0.5-2.3c0.1-0.2,0.2-0.4,0.4-0.5c0.8-0.9,1.9-1.3,3.1-1.3
			C116,94.8,115.4,94.6,114.7,94.6z M117.1,95.8C117.1,95.8,117.1,95.8,117.1,95.8C117.1,95.8,117.1,95.8,117.1,95.8z"/>
		<path class="st10" d="M118.1,96.8c0.4,1.9-0.8,3.7-2.7,4c-0.4,0.1-0.7,0.1-1.1,0c-0.4,0-0.7-0.3-0.9-0.6c-0.4-0.9-0.4-2,0.1-2.9
			c0.1-0.2,0.2-0.3,0.3-0.4c0.8-1,2.2-1.3,3.4-0.9C117.7,96.1,118,96.4,118.1,96.8C118.1,96.8,118.1,96.8,118.1,96.8z"/>
		<path class="st3" d="M114.7,101.5c-0.2,0-0.3,0-0.5,0c-0.6-0.1-1.1-0.4-1.3-1c-0.5-1.1-0.5-2.4,0.2-3.5c0.1-0.2,0.2-0.4,0.4-0.5
			c1-1.1,2.6-1.6,4-1.1c0.6,0.2,1,0.7,1.2,1.3l0,0c0.4,2.2-1,4.3-3.1,4.7C115.3,101.5,115,101.5,114.7,101.5z M116.3,96.4
			c-0.8,0-1.5,0.3-2,0.9c-0.1,0.1-0.2,0.2-0.3,0.4c-0.4,0.7-0.5,1.6-0.1,2.4c0.1,0.2,0.2,0.3,0.4,0.3c0.3,0,0.6,0,0.9,0
			c1.5-0.3,2.6-1.8,2.2-3.4l0,0c0-0.2-0.2-0.3-0.4-0.4C116.9,96.4,116.6,96.4,116.3,96.4z"/>
		<path class="st10" d="M116.2,100.6c-0.3,0.1-0.5,0.2-0.8,0.3c-1.9,0.4-3.7-0.8-4-2.7c0-0.1,0-0.2-0.1-0.3c0.5-0.4,1.1-0.6,1.8-0.5
			c0.2,0,0.3,0,0.5,0.1C114.9,97.8,116.1,99.1,116.2,100.6z"/>
		<path class="st3" d="M114.7,101.5c-1.9,0-3.6-1.3-3.9-3.2c0-0.1,0-0.3-0.1-0.4l0-0.3l0.2-0.2c0.6-0.5,1.4-0.7,2.2-0.6
			c0.2,0,0.4,0.1,0.6,0.1c1.6,0.4,2.9,2,3.1,3.7l0,0.4l-0.4,0.2c-0.3,0.1-0.6,0.3-1,0.3C115.2,101.5,115,101.5,114.7,101.5z
			 M111.9,98.1c0.3,1.5,1.8,2.5,3.4,2.2c0.1,0,0.2,0,0.3-0.1c-0.3-1.1-1.1-2-2.2-2.2c-0.1,0-0.3-0.1-0.4-0.1
			C112.6,97.9,112.2,97.9,111.9,98.1z"/>
		<g class="st7">
			<path class="st3" d="M173.2,87.5c0,0-17.3-16.7-25.8-1l-6.1,5.8l3,2.9c0,0,7.5-5.8,9.8-10.6C156.3,79.8,168.3,83,173.2,87.5z"/>
		</g>
		<g class="st7">
			<path class="st3" d="M180.1,125.9c0,0-10.3,0-18.5-8c-0.8-0.7-1.9-0.8-2.8-0.3c-5,3.3-22.1,11.9-43.2-8.4
				c0,0,22.2,27.7,45.8,10.9C161.2,120.1,173.4,128.3,180.1,125.9z"/>
		</g>
		<g class="st7">
			<path class="st3" d="M119.7,109.9c-0.4-0.6-0.9-1.4-1.5-2.5c-1.8-3-1.9-3.6-1.9-4.1c0-0.4,0.1-2,2.5-3.7c-0.7-1.2-1.1-2-1.1-2
				c0,0-1.6,1.1-2.8,1.2c-0.7,0-1.6-0.2-2.8-1.3l-1.1-0.4c-0.2,0.5-0.6,1.4-1.3,2.2c-0.7,0.7-1.3,1.1-1.9,1.4
				c-0.7,0.4-1.8,0.9-3.3,1.2c1.1,0.1,2.5,0.1,4.1,0c1.4-0.2,2.6-0.5,3.6-0.8c0.6,0.2,1.3,0.4,1.9,0.6
				C113.9,101.7,115.1,107.6,119.7,109.9z"/>
		</g>
		<path class="st2" d="M148.8,84.4C148.8,84.4,148.7,84.4,148.8,84.4c-0.1,0.1-0.2,0.2-0.2,0.3c-0.1,0.2-0.2,0.3-0.3,0.5
			c-1.7,2.5-4.2,5.4-7.8,7.6c-1,0.6-2,1.1-3.1,1.6l0,0c-3.6,1.5-7.2,2-10.4,1.9c-6.4-0.1-11.4-2.4-12.1-2.8c-1.2-0.5-2.3-1-3.4-1.5
			l0,0c-0.1,0-0.1-0.1-0.2-0.1c-0.1-0.1-0.2-0.1-0.3-0.2c0,0,0,0-0.1,0c-0.1-0.1-0.2-0.1-0.3-0.2c-0.1,0-0.1-0.1-0.2-0.1
			c0,0-0.1,0-0.1,0c0,0-0.1,0-0.1-0.1c-0.1,0-0.2-0.1-0.2-0.1c-0.1,0-0.1-0.1-0.2-0.1c0,0-0.1-0.1-0.1-0.1c-0.1,0-0.1-0.1-0.2-0.1
			c-0.1-0.1-0.3-0.2-0.4-0.2c0,0,0,0-0.1,0c-0.1-0.1-0.2-0.2-0.4-0.2c-0.7-0.4-1.3-0.9-2-1.4l0,0c-0.1-0.1-0.2-0.2-0.4-0.3
			c-0.1-0.1-0.1-0.1-0.2-0.2c-0.1-0.1-0.2-0.2-0.3-0.2c-0.1-0.1-0.1-0.1-0.2-0.2c0,0-0.1-0.1-0.1-0.1c-0.1,0-0.1-0.1-0.2-0.1
			c-0.1,0-0.1-0.1-0.2-0.1c0,0-0.1-0.1-0.1-0.1c0,0,0,0,0,0c-0.1-0.1-0.2-0.1-0.2-0.2c0,0-0.1-0.1-0.1-0.1c-0.1-0.1-0.2-0.2-0.3-0.3
			c-0.1-0.1-0.2-0.2-0.3-0.3c-0.2-0.2-0.4-0.4-0.6-0.5c-0.2-0.2-0.4-0.4-0.6-0.6c-0.1-0.1-0.2-0.2-0.2-0.2c0,0,0,0-0.1-0.1
			c0,0-0.1-0.1-0.1-0.1c-0.1-0.1-0.1-0.1-0.2-0.2c0,0-0.1-0.1-0.1-0.1c-0.1-0.1-0.1-0.1-0.2-0.2c0-0.1-0.1-0.1-0.1-0.2
			c0,0-0.1-0.1-0.1-0.1c-0.1-0.1-0.1-0.1-0.2-0.2c0,0,0,0-0.1-0.1c-0.1-0.1-0.1-0.2-0.2-0.2c0,0-0.1-0.1-0.1-0.1
			c0-0.1-0.1-0.1-0.1-0.2c0-0.1-0.1-0.1-0.1-0.2c0,0-0.1-0.1-0.1-0.1c-0.1-0.1-0.1-0.2-0.2-0.3c-0.1-0.1-0.1-0.2-0.2-0.3
			c0,0,0,0,0-0.1c-0.1-0.1-0.1-0.2-0.2-0.3c-0.1-0.1-0.1-0.2-0.2-0.3c-0.3-0.4-0.5-0.7-0.7-1.1c-0.1-0.1-0.1-0.2-0.2-0.3
			c0,0,0,0,0,0c-0.1-0.1-0.1-0.2-0.2-0.3c-0.1-0.1-0.1-0.2-0.2-0.3c0,0,0,0,0-0.1c-0.1-0.1-0.1-0.2-0.2-0.3
			c-0.1-0.1-0.1-0.2-0.2-0.3c0,0,0,0,0-0.1c0-0.1-0.1-0.2-0.1-0.3c0,0,0,0,0,0c-0.1-0.1-0.1-0.2-0.1-0.3c-0.1-0.1-0.1-0.2-0.1-0.3
			c0,0,0,0,0,0c0-0.1,0-0.1-0.1-0.2c0-0.1-0.1-0.1-0.1-0.2c0-0.1,0-0.1-0.1-0.2c0-0.1,0-0.1-0.1-0.2c0-0.1,0-0.1-0.1-0.2
			c0-0.1-0.1-0.2-0.1-0.3c0-0.1-0.1-0.2-0.1-0.3c0,0,0,0,0,0c0-0.1-0.1-0.2-0.1-0.3c0-0.1-0.1-0.3-0.1-0.4c0,0,0-0.1,0-0.1
			c0-0.1,0-0.1-0.1-0.2c0,0,0-0.1,0-0.1c-0.1-0.4-0.2-0.8-0.3-1.2c0-0.1,0-0.2,0-0.3c0-0.1,0-0.2,0-0.3c0,0,0-0.1,0-0.1
			c0-0.1,0-0.2,0-0.3c0-0.1,0-0.2,0-0.3c0,0,0-0.1,0-0.1c0-0.1,0-0.2,0-0.3c0-0.1,0-0.2,0-0.2c0-0.1,0-0.2,0-0.3c0-0.1,0-0.2,0-0.3
			c0,0,0,0,0,0c0-0.1,0-0.2,0-0.3c0-0.1,0-0.3,0-0.4c0-0.1,0-0.1,0-0.2c0-0.1,0-0.2,0-0.3c0,0,0-0.1,0-0.1c0-0.2,0-0.5,0-0.7
			c0,0,0-0.1,0-0.1c0-0.2,0-0.4,0.1-0.6c0-0.1,0-0.2,0-0.3c0,0,0,0,0,0c0-0.1,0-0.1,0-0.2c0,0,0-0.1,0-0.1c0-0.1,0-0.2,0-0.2
			c0,0,0,0,0-0.1c0-0.1,0-0.2,0.1-0.3c0-0.1,0-0.2,0.1-0.3c0.2-0.9,0.5-1.6,0.9-2.4c2.1-4.3,6.1-6.9,8.2-8.1
			c0.3-1.1,4.1-12.3,15.7-15.9c8.3-2.6,15.4,0.3,18,1.6c0,0,0,0,0.1,0c0.1,0.1,0.2,0.1,0.3,0.2c0,0,0.1,0,0.1,0
			c0.1,0.1,0.3,0.1,0.4,0.2c0.8,0.5,2.4,1.4,4.1,2.9c2.7,2.2,5.8,5.8,7.8,10.8c2.4,6.1,2,11.8,1.1,16c-0.1,0.4-0.2,0.8-0.3,1.2
			c-0.1,0.2-0.1,0.5-0.2,0.7c-0.2,0.6-0.4,1.1-0.5,1.7c0,0.1-0.1,0.2-0.1,0.3c0,0.1-0.1,0.2-0.1,0.2c0,0.1-0.1,0.2-0.1,0.3
			c0,0.1-0.1,0.1-0.1,0.2c-0.1,0.3-0.2,0.5-0.3,0.7c0,0,0,0.1-0.1,0.1c-0.1,0.2-0.1,0.3-0.2,0.5c0,0.1,0,0.1-0.1,0.1c0,0,0,0,0,0
			c0,0,0,0.1-0.1,0.1c0,0,0,0,0,0c0,0,0,0,0,0.1c-0.1,0.2-0.2,0.4-0.3,0.6c0,0,0,0.1,0,0.1C150.6,81,149.9,82.5,148.8,84.4z"/>
		<path class="st3" d="M127.6,96.8c-0.2,0-0.4,0-0.7,0c-2.8-0.1-5.6-0.5-8.4-1.3c-2.1-0.6-3.5-1.3-3.9-1.5c-1.2-0.4-2.3-1-3.4-1.5
			l-0.1,0c-0.1,0-0.1-0.1-0.2-0.1c-0.1-0.1-0.2-0.1-0.3-0.2c0,0-0.1,0-0.1,0c-0.1-0.1-0.2-0.1-0.3-0.2c-0.1,0-0.1-0.1-0.2-0.1
			c0,0-0.1,0-0.1,0c0,0-0.1,0-0.1,0l0,0c-0.1,0-0.2-0.1-0.3-0.1c-0.1,0-0.1-0.1-0.2-0.1c0,0-0.1-0.1-0.1-0.1c-0.1,0-0.1-0.1-0.2-0.1
			c-0.1-0.1-0.3-0.2-0.4-0.2c0,0-0.1,0-0.1,0c-0.1-0.1-0.3-0.2-0.4-0.2c-0.7-0.4-1.3-0.9-2-1.4l0,0l0,0c-0.1-0.1-0.3-0.2-0.4-0.3
			c-0.1-0.1-0.1-0.1-0.2-0.2l0,0c-0.1-0.1-0.2-0.2-0.3-0.2c-0.1-0.1-0.1-0.1-0.2-0.2c0,0-0.1-0.1-0.1-0.1c-0.1,0-0.1-0.1-0.2-0.1
			c-0.1,0-0.1-0.1-0.2-0.2c0,0-0.1-0.1-0.1-0.1l0,0c-0.1-0.1-0.2-0.1-0.2-0.2c0,0-0.1-0.1-0.1-0.1c-0.1-0.1-0.2-0.2-0.3-0.3
			l-0.1-0.1c-0.1-0.1-0.1-0.1-0.2-0.2c-0.2-0.2-0.4-0.4-0.6-0.6c-0.2-0.2-0.4-0.4-0.6-0.6c-0.1-0.1-0.2-0.2-0.2-0.2c0,0,0,0-0.1-0.1
			c0,0-0.1-0.1-0.1-0.1c-0.1-0.1-0.1-0.1-0.2-0.2c0,0-0.1-0.1-0.1-0.1l0,0c-0.1-0.1-0.1-0.1-0.2-0.2c-0.1-0.1-0.1-0.1-0.1-0.2
			c0,0-0.1-0.1-0.1-0.1l0,0c-0.1-0.1-0.1-0.1-0.2-0.2c0,0,0,0,0,0c0,0,0,0,0,0l-0.1-0.1c0-0.1-0.1-0.1-0.1-0.2c0,0-0.1-0.1-0.1-0.1
			l0,0c0-0.1-0.1-0.1-0.1-0.2l0,0c0,0-0.1-0.1-0.1-0.1c0-0.1-0.1-0.1-0.1-0.1c-0.1-0.1-0.1-0.2-0.2-0.3c-0.1-0.1-0.1-0.2-0.2-0.3
			c0,0,0,0,0-0.1c-0.1-0.1-0.2-0.2-0.2-0.3c0-0.1-0.1-0.1-0.1-0.2l0,0c-0.3-0.4-0.5-0.8-0.7-1.2c-0.1-0.1-0.1-0.2-0.2-0.3
			c0,0,0,0,0,0l0,0c-0.1-0.1-0.1-0.2-0.2-0.3c-0.1-0.1-0.1-0.2-0.2-0.3c0,0,0,0,0,0l0,0c-0.1-0.1-0.1-0.2-0.2-0.3
			C98,80,98,79.9,97.9,79.8l0,0c0,0,0,0,0,0l0,0c0-0.1-0.1-0.2-0.1-0.3l0,0c0,0,0,0,0,0l0,0c-0.1-0.1-0.1-0.2-0.2-0.3
			c-0.1-0.1-0.1-0.2-0.2-0.3c0,0,0,0,0,0c0-0.1,0-0.1-0.1-0.2c0-0.1-0.1-0.1-0.1-0.2l0-0.1c0,0,0-0.1,0-0.1c0-0.1,0-0.1-0.1-0.2
			c0-0.1,0-0.1-0.1-0.2c0-0.1-0.1-0.2-0.1-0.4c0-0.1-0.1-0.2-0.1-0.3c0,0,0,0,0,0c0-0.1-0.1-0.2-0.1-0.3c0-0.1-0.1-0.3-0.1-0.4
			l0-0.1c0-0.1,0-0.1-0.1-0.2c0,0,0-0.1,0-0.1c-0.1-0.4-0.2-0.9-0.3-1.3c0-0.1,0-0.2-0.1-0.3c0-0.1,0-0.2,0-0.3c0,0,0-0.1,0-0.1
			c0-0.1,0-0.2,0-0.3c0-0.1,0-0.2,0-0.3l0,0c0,0,0-0.1,0-0.1c0-0.1,0-0.2,0-0.3c0-0.1,0-0.2,0-0.3c0-0.1,0-0.2,0-0.3
			c0-0.1,0-0.2,0-0.3l0-0.1c0-0.1,0-0.2,0-0.3c0-0.2,0-0.3,0-0.4c0-0.1,0-0.1,0-0.2c0-0.1,0-0.2,0-0.3c0-0.1,0-0.1,0-0.1
			c0-0.2,0-0.5,0-0.7c0,0,0-0.1,0-0.1c0-0.2,0-0.4,0.1-0.6c0-0.1,0-0.2,0-0.3c0,0,0,0,0,0c0-0.1,0-0.1,0-0.2c0,0,0-0.1,0-0.1
			c0-0.1,0-0.2,0-0.2l0-0.1c0-0.1,0-0.2,0.1-0.3c0-0.1,0-0.2,0.1-0.3l0,0c0.2-0.9,0.5-1.7,0.9-2.5c1.9-4,5.5-6.7,8.2-8.3
			c0.7-2,4.7-12.5,16-16.1c3.7-1.2,7.5-1.4,11.4-0.7c3.1,0.5,5.5,1.5,7,2.3l0,0c0,0,0,0,0,0c0,0,0,0,0,0l0,0
			c0.1,0.1,0.2,0.1,0.3,0.2c0,0,0,0,0,0c0,0,0,0,0,0l0,0c0.1,0.1,0.3,0.1,0.4,0.2l0,0c1.5,0.8,2.9,1.8,4.2,3c1.6,1.3,3,2.8,4.2,4.4
			c1.6,2,2.8,4.2,3.7,6.6c1.1,2.8,1.7,5.8,1.8,8.9c0.1,2.5-0.2,5-0.7,7.5c-0.1,0.4-0.2,0.8-0.3,1.2c-0.1,0.3-0.1,0.5-0.2,0.7
			c-0.2,0.6-0.4,1.1-0.6,1.7c0,0.1-0.1,0.2-0.1,0.3l0,0c0,0.1-0.1,0.1-0.1,0.2l0,0.1c0,0.1-0.1,0.1-0.1,0.2l0,0c0,0,0,0.1,0,0.1
			l0,0.1c-0.1,0.2-0.2,0.5-0.3,0.7c0,0,0,0.1,0,0.1l0,0c-0.1,0.2-0.2,0.3-0.2,0.5c0,0.1,0,0.1-0.1,0.1l0,0c0,0,0,0,0,0l0,0
			c0,0,0,0.1-0.1,0.1l0,0c0,0,0,0,0,0c0,0,0,0,0,0.1c-0.1,0.2-0.2,0.4-0.3,0.6c0,0,0,0,0,0.1c-0.6,1.5-1.3,3-2.2,4.4c0,0,0,0,0,0.1
			l0,0c-0.1,0.1-0.1,0.2-0.2,0.3c-0.1,0.2-0.2,0.3-0.3,0.5c-2.1,3.2-4.8,5.8-8,7.8c-1,0.6-2.1,1.2-3.1,1.6l-0.3,0.1l0,0
			C134.3,96.2,131,96.8,127.6,96.8z M111.7,91.5L111.7,91.5c1.1,0.6,2.2,1.1,3.4,1.5l0,0c0.5,0.3,5.5,2.5,11.9,2.7
			c3.6,0.1,7.1-0.5,10.2-1.9l0.2-0.1c1-0.4,1.9-0.9,2.8-1.5c3-1.8,5.6-4.3,7.7-7.4c0.1-0.2,0.2-0.3,0.3-0.5l0,0
			c0.1-0.1,0.1-0.2,0.2-0.3l0,0c0,0,0,0,0,0l0,0c0.8-1.4,1.6-2.8,2.1-4.3l0,0l0-0.1c0,0,0,0,0,0l0,0c0.1-0.2,0.2-0.4,0.3-0.5l0,0
			c0,0,0,0,0,0l0,0c0,0,0,0,0,0c0,0,0-0.1,0-0.1l0,0c0,0,0,0,0,0v0c0,0,0-0.1,0.1-0.1l0,0c0.1-0.1,0.1-0.3,0.2-0.5l0,0
			c0,0,0-0.1,0-0.1l0,0c0.1-0.2,0.2-0.5,0.3-0.7l0-0.1c0,0,0-0.1,0-0.1c0-0.1,0.1-0.1,0.1-0.2l0-0.1c0-0.1,0.1-0.1,0.1-0.2l0,0
			c0-0.1,0.1-0.2,0.1-0.3c0.2-0.5,0.4-1.1,0.5-1.6c0.1-0.2,0.1-0.5,0.2-0.7c0.1-0.4,0.2-0.8,0.3-1.1c1.2-5.5,0.9-10.7-1-15.7
			c-1.6-4.1-4.2-7.7-7.6-10.6c-1.3-1.1-2.6-2-4.1-2.8c-0.1,0-0.2-0.1-0.3-0.2c0,0,0,0,0,0c0,0,0,0,0,0l0,0c-0.1,0-0.2-0.1-0.3-0.1
			l0,0c0,0,0,0,0,0c-2.6-1.3-9.6-4-17.6-1.5c-11.2,3.5-15,14.3-15.4,15.5l-0.1,0.2l-0.2,0.1c-2.6,1.5-6.1,4-8,7.9
			c-0.4,0.7-0.6,1.5-0.8,2.3l0,0c0,0.1,0,0.2-0.1,0.3l0,0c0,0.1,0,0.2-0.1,0.3l0,0.1c0,0.1,0,0.1,0,0.2l0,0c0,0,0,0,0,0.1
			c0,0.1,0,0.1,0,0.2l0,0c0,0.1,0,0.2,0,0.2c0,0.2-0.1,0.4-0.1,0.6l0,0c0,0,0,0.1,0,0.1l0,0c0,0.2,0,0.5,0,0.7l0,0c0,0,0,0.1,0,0.1
			c0,0.1,0,0.2,0,0.3c0,0.1,0,0.1,0,0.2c0,0.1,0,0.2,0,0.4c0,0.1,0,0.2,0,0.3l0,0c0,0.1,0,0.2,0,0.3c0,0.1,0,0.2,0,0.3
			c0,0.1,0,0.2,0,0.2c0,0.1,0,0.2,0,0.3l0,0c0,0,0,0.1,0,0.1l0,0c0,0.1,0,0.2,0,0.3l0,0c0,0.1,0,0.1,0,0.2l0,0c0,0,0,0.1,0,0.1
			c0,0.1,0,0.2,0,0.3l0,0c0,0.1,0,0.1,0,0.2l0,0c0.1,0.4,0.2,0.8,0.3,1.2c0,0,0,0.1,0,0.1l0,0c0,0.1,0,0.1,0.1,0.2l0,0.1
			c0,0.1,0.1,0.3,0.1,0.4c0,0.1,0.1,0.2,0.1,0.3l0,0c0,0.1,0.1,0.2,0.1,0.3l0,0c0,0.1,0.1,0.2,0.1,0.3l0,0c0,0.1,0,0.1,0.1,0.2l0,0
			c0,0.1,0,0.1,0.1,0.1l0,0c0,0,0,0.1,0,0.1l0,0.1c0,0.1,0,0.1,0.1,0.2l0,0c0,0.1,0,0.1,0.1,0.2l0,0c0,0.1,0.1,0.2,0.1,0.3
			c0,0.1,0.1,0.2,0.1,0.3c0,0,0,0,0,0c0,0.1,0.1,0.2,0.1,0.3c0,0,0,0,0,0l0,0c0.1,0.1,0.1,0.2,0.2,0.3c0.1,0.1,0.1,0.2,0.2,0.3l0,0
			c0.1,0.1,0.1,0.2,0.2,0.3c0.1,0.1,0.1,0.2,0.2,0.3c0,0,0,0,0,0l0,0c0,0.1,0.1,0.2,0.1,0.3c0.2,0.4,0.5,0.7,0.7,1.1l0,0
			c0,0.1,0.1,0.1,0.1,0.2c0.1,0.1,0.1,0.2,0.2,0.3l0,0c0,0,0,0,0,0.1l0,0c0.1,0.1,0.1,0.2,0.2,0.3l0,0c0.1,0.1,0.1,0.2,0.2,0.3l0,0
			c0,0,0.1,0.1,0.1,0.1l0,0c0,0,0.1,0.1,0.1,0.1l0,0c0,0,0.1,0.1,0.1,0.1l0,0c0,0,0,0.1,0.1,0.1l0,0c0,0.1,0.1,0.1,0.1,0.2l0.1,0.1
			c0,0,0,0,0,0c0,0,0,0,0,0l0,0c0.1,0.1,0.1,0.1,0.2,0.2l0,0c0,0,0.1,0.1,0.1,0.1l0,0c0,0.1,0.1,0.1,0.1,0.2
			c0.1,0.1,0.1,0.1,0.2,0.2l0,0c0,0,0,0.1,0.1,0.1l0,0c0.1,0.1,0.1,0.1,0.2,0.2l0,0c0,0,0.1,0.1,0.1,0.1l0,0c0,0,0,0,0,0l0,0
			c0.1,0.1,0.1,0.2,0.2,0.2c0.2,0.2,0.4,0.4,0.6,0.6c0.2,0.2,0.4,0.4,0.6,0.5c0.1,0.1,0.1,0.1,0.2,0.2l0.1,0.1
			c0.1,0.1,0.2,0.2,0.3,0.3c0,0,0.1,0.1,0.1,0.1l0,0c0.1,0.1,0.2,0.1,0.2,0.2l0,0c0,0,0.1,0.1,0.1,0.1l0,0c0.1,0,0.1,0.1,0.2,0.1
			l0,0c0.1,0,0.1,0.1,0.2,0.1c0,0,0.1,0,0.1,0.1l0,0c0.1,0,0.1,0.1,0.2,0.1c0.1,0.1,0.2,0.2,0.3,0.2l0,0c0.1,0.1,0.1,0.1,0.2,0.2
			c0.1,0.1,0.2,0.2,0.3,0.3l0,0c0.6,0.5,1.3,0.9,1.9,1.3c0.1,0.1,0.2,0.2,0.4,0.2l0,0c0,0,0,0,0.1,0l0,0c0.1,0.1,0.3,0.2,0.4,0.2
			c0.1,0,0.1,0.1,0.1,0.1l0,0c0,0,0.1,0,0.1,0.1l0,0c0,0,0.1,0.1,0.1,0.1l0,0c0.1,0,0.2,0.1,0.2,0.1l0,0c0,0,0.1,0,0.1,0l0,0
			c0,0,0,0,0.1,0l0,0c0.1,0,0.1,0.1,0.2,0.1l0,0c0.1,0.1,0.2,0.1,0.3,0.2l0,0c0,0,0,0,0.1,0l0,0c0.1,0.1,0.2,0.1,0.3,0.2
			C111.5,91.4,111.6,91.4,111.7,91.5z"/>
		<g class="st4">
			<path class="st5" d="M99.1,80.8C99.1,80.8,99.1,80.8,99.1,80.8c-0.1-0.1-0.1-0.3-0.2-0.4c-0.1-0.1-0.1-0.2-0.1-0.3c0,0,0,0,0,0
				c0-0.1,0-0.1-0.1-0.2c0-0.1-0.1-0.1-0.1-0.2c0-0.1,0-0.1-0.1-0.2c0-0.1,0-0.1-0.1-0.2c0-0.1,0-0.1-0.1-0.2c0-0.1-0.1-0.2-0.1-0.3
				c0-0.1-0.1-0.2-0.1-0.3c0,0,0,0,0,0c0-0.1-0.1-0.2-0.1-0.3c0-0.1-0.1-0.3-0.1-0.4c0,0,0-0.1,0-0.1c0-0.1,0-0.1-0.1-0.2
				c0,0,0-0.1,0-0.1c-0.1-0.4-0.2-0.8-0.3-1.2c0-0.1,0-0.2,0-0.3c0-0.1,0-0.2,0-0.3c0,0,0-0.1,0-0.1c0-0.1,0-0.2,0-0.3
				c0-0.1,0-0.2,0-0.3c0,0,0-0.1,0-0.1c0-0.1,0-0.2,0-0.3c0-0.1,0-0.2,0-0.2c0-0.1,0-0.2,0-0.3c0-0.1,0-0.2,0-0.3c0,0,0,0,0,0
				c0-0.1,0-0.2,0-0.3c0-0.1,0-0.3,0-0.4c0-0.1,0-0.1,0-0.2c0-0.1,0-0.2,0-0.3c0,0,0-0.1,0-0.1c0-0.2,0-0.5,0-0.7c0,0,0-0.1,0-0.1
				c0-0.2,0-0.4,0.1-0.6c0-0.1,0-0.2,0-0.3c0,0,0,0,0,0c0-0.1,0-0.1,0-0.2c0,0,0-0.1,0-0.1c0-0.1,0-0.2,0-0.2c0,0,0,0,0-0.1
				c0-0.1,0-0.2,0.1-0.3c0-0.1,0-0.2,0.1-0.3c0.2-0.9,0.5-1.6,0.9-2.4c2.1-4.3,6.1-7,8.2-8.1c0.3-1.1,4.1-12.3,15.7-15.9
				c8.3-2.6,15.4,0.3,18,1.6c0,0,0,0,0.1,0c0.1,0.1,0.2,0.1,0.3,0.2c0,0,0.1,0,0.1,0c0.1,0.1,0.3,0.1,0.4,0.2
				c0.8,0.5,2.4,1.4,4.1,2.9c2,1.7,4.2,4,6.1,7.2c-2-4-4.6-6.9-6.9-8.8c-1.8-1.5-3.3-2.4-4.1-2.9c-0.1-0.1-0.2-0.1-0.4-0.2
				c0,0-0.1,0-0.1,0c-0.1,0-0.2-0.1-0.3-0.2c0,0,0,0-0.1,0c-2.6-1.3-9.7-4.2-18-1.6c-11.6,3.6-15.4,14.8-15.7,15.9
				c-2.1,1.2-6.1,3.8-8.2,8.1c-0.4,0.7-0.7,1.5-0.9,2.4c0,0.1-0.1,0.2-0.1,0.3c0,0.1,0,0.2-0.1,0.3c0,0,0,0,0,0.1c0,0.1,0,0.2,0,0.2
				c0,0,0,0.1,0,0.1c0,0.1,0,0.1,0,0.2c0,0,0,0,0,0c0,0.1,0,0.2,0,0.3c0,0.2-0.1,0.4-0.1,0.6c0,0,0,0.1,0,0.1c0,0.2,0,0.5,0,0.7
				c0,0,0,0.1,0,0.1c0,0.1,0,0.2,0,0.3c0,0.1,0,0.1,0,0.2c0,0.1,0,0.3,0,0.4c0,0.1,0,0.2,0,0.3c0,0,0,0,0,0c0,0.1,0,0.2,0,0.3
				c0,0.1,0,0.2,0,0.3c0,0.1,0,0.2,0,0.2c0,0.1,0,0.2,0,0.3c0,0,0,0.1,0,0.1c0,0.1,0,0.2,0,0.3c0,0.1,0,0.2,0,0.3c0,0,0,0.1,0,0.1
				c0,0.1,0,0.2,0,0.3c0,0.1,0,0.2,0,0.3c0.1,0.4,0.2,0.8,0.3,1.2c0,0,0,0.1,0,0.1c0,0.1,0,0.1,0.1,0.2c0,0,0,0.1,0,0.1
				c0,0.1,0.1,0.3,0.1,0.4c0,0.1,0.1,0.2,0.1,0.3c0,0,0,0,0,0c0,0.1,0.1,0.2,0.1,0.3c0,0.1,0.1,0.2,0.1,0.3c0,0.1,0,0.1,0.1,0.2
				c0,0.1,0,0.1,0.1,0.2c0,0.1,0,0.1,0.1,0.2c0,0.1,0,0.1,0.1,0.2c0,0.1,0,0.1,0.1,0.2c0,0,0,0,0,0c0,0.1,0.1,0.2,0.1,0.3
				c0,0.1,0.1,0.2,0.1,0.3c0,0,0,0,0,0c0,0.1,0.1,0.2,0.1,0.3c0,0,0,0,0,0.1c0.1,0.1,0.1,0.2,0.2,0.3c0.1,0.1,0.1,0.2,0.2,0.3
				c0,0,0,0,0,0.1c0.1,0.1,0.1,0.2,0.2,0.3C99,80.6,99,80.7,99.1,80.8C99.1,80.8,99.1,80.8,99.1,80.8C99.1,80.8,99.1,80.8,99.1,80.8
				C99.1,80.8,99.1,80.8,99.1,80.8z"/>
		</g>
		<path class="st3" d="M127.6,96.8c-0.2,0-0.4,0-0.7,0c-2.8-0.1-5.6-0.5-8.4-1.3c-2.1-0.6-3.5-1.3-3.9-1.5c-1.2-0.4-2.3-1-3.4-1.5
			l-0.1,0c-0.1,0-0.1-0.1-0.2-0.1c-0.1-0.1-0.2-0.1-0.3-0.2c0,0-0.1,0-0.1,0c-0.1-0.1-0.2-0.1-0.3-0.2c-0.1,0-0.1-0.1-0.2-0.1
			c0,0-0.1,0-0.1,0c0,0-0.1,0-0.1,0l0,0c-0.1,0-0.2-0.1-0.3-0.1c-0.1,0-0.1-0.1-0.2-0.1c0,0-0.1-0.1-0.1-0.1c-0.1,0-0.1-0.1-0.2-0.1
			c-0.1-0.1-0.3-0.2-0.4-0.2c0,0-0.1,0-0.1,0c-0.1-0.1-0.3-0.2-0.4-0.2c-0.7-0.4-1.3-0.9-2-1.4l0,0l0,0c-0.1-0.1-0.3-0.2-0.4-0.3
			c-0.1-0.1-0.1-0.1-0.2-0.2l0,0c-0.1-0.1-0.2-0.2-0.3-0.2c-0.1-0.1-0.1-0.1-0.2-0.2c0,0-0.1-0.1-0.1-0.1c-0.1,0-0.1-0.1-0.2-0.1
			c-0.1,0-0.1-0.1-0.2-0.2c0,0-0.1-0.1-0.1-0.1l0,0c-0.1-0.1-0.2-0.1-0.2-0.2c0,0-0.1-0.1-0.1-0.1c-0.1-0.1-0.2-0.2-0.3-0.3
			l-0.1-0.1c-0.1-0.1-0.1-0.1-0.2-0.2c-0.2-0.2-0.4-0.4-0.6-0.6c-0.2-0.2-0.4-0.4-0.6-0.6c-0.1-0.1-0.2-0.2-0.2-0.2c0,0,0,0-0.1-0.1
			c0,0-0.1-0.1-0.1-0.1c-0.1-0.1-0.1-0.1-0.2-0.2c0,0-0.1-0.1-0.1-0.1l0,0c-0.1-0.1-0.1-0.1-0.2-0.2c-0.1-0.1-0.1-0.1-0.1-0.2
			c0,0-0.1-0.1-0.1-0.1l0,0c-0.1-0.1-0.1-0.1-0.2-0.2c0,0,0,0,0,0c0,0,0,0,0,0l-0.1-0.1c0-0.1-0.1-0.1-0.1-0.2c0,0-0.1-0.1-0.1-0.1
			l0,0c0-0.1-0.1-0.1-0.1-0.2l0,0c0,0-0.1-0.1-0.1-0.1c0-0.1-0.1-0.1-0.1-0.1c-0.1-0.1-0.1-0.2-0.2-0.3c-0.1-0.1-0.1-0.2-0.2-0.3
			c0,0,0,0,0-0.1c-0.1-0.1-0.2-0.2-0.2-0.3c0-0.1-0.1-0.1-0.1-0.2l0,0c-0.3-0.4-0.5-0.8-0.7-1.2c-0.1-0.1-0.1-0.2-0.2-0.3
			c0,0,0,0,0,0l0,0c-0.1-0.1-0.1-0.2-0.2-0.3c-0.1-0.1-0.1-0.2-0.2-0.3c0,0,0,0,0,0l0,0c-0.1-0.1-0.1-0.2-0.2-0.3
			C98,80,98,79.9,97.9,79.8l0,0c0,0,0,0,0,0l0,0c0-0.1-0.1-0.2-0.1-0.3l0,0c0,0,0,0,0,0l0,0c-0.1-0.1-0.1-0.2-0.2-0.3
			c-0.1-0.1-0.1-0.2-0.2-0.3c0,0,0,0,0,0c0-0.1,0-0.1-0.1-0.2c0-0.1-0.1-0.1-0.1-0.2l0-0.1c0,0,0-0.1,0-0.1c0-0.1,0-0.1-0.1-0.2
			c0-0.1,0-0.1-0.1-0.2c0-0.1-0.1-0.2-0.1-0.4c0-0.1-0.1-0.2-0.1-0.3c0,0,0,0,0,0c0-0.1-0.1-0.2-0.1-0.3c0-0.1-0.1-0.3-0.1-0.4
			l0-0.1c0-0.1,0-0.1-0.1-0.2c0,0,0-0.1,0-0.1c-0.1-0.4-0.2-0.9-0.3-1.3c0-0.1,0-0.2-0.1-0.3c0-0.1,0-0.2,0-0.3c0,0,0-0.1,0-0.1
			c0-0.1,0-0.2,0-0.3c0-0.1,0-0.2,0-0.3l0,0c0,0,0-0.1,0-0.1c0-0.1,0-0.2,0-0.3c0-0.1,0-0.2,0-0.3c0-0.1,0-0.2,0-0.3
			c0-0.1,0-0.2,0-0.3l0-0.1c0-0.1,0-0.2,0-0.3c0-0.2,0-0.3,0-0.4c0-0.1,0-0.1,0-0.2c0-0.1,0-0.2,0-0.3c0-0.1,0-0.1,0-0.1
			c0-0.2,0-0.5,0-0.7c0,0,0-0.1,0-0.1c0-0.2,0-0.4,0.1-0.6c0-0.1,0-0.2,0-0.3c0,0,0,0,0,0c0-0.1,0-0.1,0-0.2c0,0,0-0.1,0-0.1
			c0-0.1,0-0.2,0-0.2l0-0.1c0-0.1,0-0.2,0.1-0.3c0-0.1,0-0.2,0.1-0.3l0,0c0.2-0.9,0.5-1.7,0.9-2.5c1.9-4,5.5-6.7,8.2-8.3
			c0.7-2,4.7-12.5,16-16.1c3.7-1.2,7.5-1.4,11.4-0.7c3.1,0.5,5.5,1.5,7,2.3l0,0c0,0,0,0,0,0c0,0,0,0,0,0l0,0
			c0.1,0.1,0.2,0.1,0.3,0.2c0,0,0,0,0,0c0,0,0,0,0,0l0,0c0.1,0.1,0.3,0.1,0.4,0.2l0,0c1.5,0.8,2.9,1.8,4.2,3c1.6,1.3,3,2.8,4.2,4.4
			c1.6,2,2.8,4.2,3.7,6.6c1.1,2.8,1.7,5.8,1.8,8.9c0.1,2.5-0.2,5-0.7,7.5c-0.1,0.4-0.2,0.8-0.3,1.2c-0.1,0.3-0.1,0.5-0.2,0.7
			c-0.2,0.6-0.4,1.1-0.6,1.7c0,0.1-0.1,0.2-0.1,0.3l0,0c0,0.1-0.1,0.1-0.1,0.2l0,0.1c0,0.1-0.1,0.1-0.1,0.2l0,0c0,0,0,0.1,0,0.1
			l0,0.1c-0.1,0.2-0.2,0.5-0.3,0.7c0,0,0,0.1,0,0.1l0,0c-0.1,0.2-0.2,0.3-0.2,0.5c0,0.1,0,0.1-0.1,0.1l0,0c0,0,0,0,0,0l0,0
			c0,0,0,0.1-0.1,0.1l0,0c0,0,0,0,0,0c0,0,0,0,0,0.1c-0.1,0.2-0.2,0.4-0.3,0.6c0,0,0,0,0,0.1c-0.6,1.5-1.3,3-2.2,4.4c0,0,0,0,0,0.1
			l0,0c-0.1,0.1-0.1,0.2-0.2,0.3c-0.1,0.2-0.2,0.3-0.3,0.5c-2.1,3.2-4.8,5.8-8,7.8c-1,0.6-2.1,1.2-3.1,1.6l-0.3,0.1l0,0
			C134.3,96.2,131,96.8,127.6,96.8z M111.7,91.5L111.7,91.5c1.1,0.6,2.2,1.1,3.4,1.5l0,0c0.5,0.3,5.5,2.5,11.9,2.7
			c3.6,0.1,7.1-0.5,10.2-1.9l0.2-0.1c1-0.4,1.9-0.9,2.8-1.5c3-1.8,5.6-4.3,7.7-7.4c0.1-0.2,0.2-0.3,0.3-0.5l0,0
			c0.1-0.1,0.1-0.2,0.2-0.3l0,0c0,0,0,0,0,0l0,0c0.8-1.4,1.6-2.8,2.1-4.3l0,0l0-0.1c0,0,0,0,0,0l0,0c0.1-0.2,0.2-0.4,0.3-0.5l0,0
			c0,0,0,0,0,0l0,0c0,0,0,0,0,0c0,0,0-0.1,0-0.1l0,0c0,0,0,0,0,0v0c0,0,0-0.1,0.1-0.1l0,0c0.1-0.1,0.1-0.3,0.2-0.5l0,0
			c0,0,0-0.1,0-0.1l0,0c0.1-0.2,0.2-0.5,0.3-0.7l0-0.1c0,0,0-0.1,0-0.1c0-0.1,0.1-0.1,0.1-0.2l0-0.1c0-0.1,0.1-0.1,0.1-0.2l0,0
			c0-0.1,0.1-0.2,0.1-0.3c0.2-0.5,0.4-1.1,0.5-1.6c0.1-0.2,0.1-0.5,0.2-0.7c0.1-0.4,0.2-0.8,0.3-1.1c1.2-5.5,0.9-10.7-1-15.7
			c-1.6-4.1-4.2-7.7-7.6-10.6c-1.3-1.1-2.6-2-4.1-2.8c-0.1,0-0.2-0.1-0.3-0.2c0,0,0,0,0,0c0,0,0,0,0,0l0,0c-0.1,0-0.2-0.1-0.3-0.1
			l0,0c0,0,0,0,0,0c-2.6-1.3-9.6-4-17.6-1.5c-11.2,3.5-15,14.3-15.4,15.5l-0.1,0.2l-0.2,0.1c-2.6,1.5-6.1,4-8,7.9
			c-0.4,0.7-0.6,1.5-0.8,2.3l0,0c0,0.1,0,0.2-0.1,0.3l0,0c0,0.1,0,0.2-0.1,0.3l0,0.1c0,0.1,0,0.1,0,0.2l0,0c0,0,0,0,0,0.1
			c0,0.1,0,0.1,0,0.2l0,0c0,0.1,0,0.2,0,0.2c0,0.2-0.1,0.4-0.1,0.6l0,0c0,0,0,0.1,0,0.1l0,0c0,0.2,0,0.5,0,0.7l0,0c0,0,0,0.1,0,0.1
			c0,0.1,0,0.2,0,0.3c0,0.1,0,0.1,0,0.2c0,0.1,0,0.2,0,0.4c0,0.1,0,0.2,0,0.3l0,0c0,0.1,0,0.2,0,0.3c0,0.1,0,0.2,0,0.3
			c0,0.1,0,0.2,0,0.2c0,0.1,0,0.2,0,0.3l0,0c0,0,0,0.1,0,0.1l0,0c0,0.1,0,0.2,0,0.3l0,0c0,0.1,0,0.1,0,0.2l0,0c0,0,0,0.1,0,0.1
			c0,0.1,0,0.2,0,0.3l0,0c0,0.1,0,0.1,0,0.2l0,0c0.1,0.4,0.2,0.8,0.3,1.2c0,0,0,0.1,0,0.1l0,0c0,0.1,0,0.1,0.1,0.2l0,0.1
			c0,0.1,0.1,0.3,0.1,0.4c0,0.1,0.1,0.2,0.1,0.3l0,0c0,0.1,0.1,0.2,0.1,0.3l0,0c0,0.1,0.1,0.2,0.1,0.3l0,0c0,0.1,0,0.1,0.1,0.2l0,0
			c0,0.1,0,0.1,0.1,0.1l0,0c0,0,0,0.1,0,0.1l0,0.1c0,0.1,0,0.1,0.1,0.2l0,0c0,0.1,0,0.1,0.1,0.2l0,0c0,0.1,0.1,0.2,0.1,0.3
			c0,0.1,0.1,0.2,0.1,0.3c0,0,0,0,0,0c0,0.1,0.1,0.2,0.1,0.3c0,0,0,0,0,0l0,0c0.1,0.1,0.1,0.2,0.2,0.3c0.1,0.1,0.1,0.2,0.2,0.3l0,0
			c0.1,0.1,0.1,0.2,0.2,0.3c0.1,0.1,0.1,0.2,0.2,0.3c0,0,0,0,0,0l0,0c0,0.1,0.1,0.2,0.1,0.3c0.2,0.4,0.5,0.7,0.7,1.1l0,0
			c0,0.1,0.1,0.1,0.1,0.2c0.1,0.1,0.1,0.2,0.2,0.3l0,0c0,0,0,0,0,0.1l0,0c0.1,0.1,0.1,0.2,0.2,0.3l0,0c0.1,0.1,0.1,0.2,0.2,0.3l0,0
			c0,0,0.1,0.1,0.1,0.1l0,0c0,0,0.1,0.1,0.1,0.1l0,0c0,0,0.1,0.1,0.1,0.1l0,0c0,0,0,0.1,0.1,0.1l0,0c0,0.1,0.1,0.1,0.1,0.2l0.1,0.1
			c0,0,0,0,0,0c0,0,0,0,0,0l0,0c0.1,0.1,0.1,0.1,0.2,0.2l0,0c0,0,0.1,0.1,0.1,0.1l0,0c0,0.1,0.1,0.1,0.1,0.2
			c0.1,0.1,0.1,0.1,0.2,0.2l0,0c0,0,0,0.1,0.1,0.1l0,0c0.1,0.1,0.1,0.1,0.2,0.2l0,0c0,0,0.1,0.1,0.1,0.1l0,0c0,0,0,0,0,0l0,0
			c0.1,0.1,0.1,0.2,0.2,0.2c0.2,0.2,0.4,0.4,0.6,0.6c0.2,0.2,0.4,0.4,0.6,0.5c0.1,0.1,0.1,0.1,0.2,0.2l0.1,0.1
			c0.1,0.1,0.2,0.2,0.3,0.3c0,0,0.1,0.1,0.1,0.1l0,0c0.1,0.1,0.2,0.1,0.2,0.2l0,0c0,0,0.1,0.1,0.1,0.1l0,0c0.1,0,0.1,0.1,0.2,0.1
			l0,0c0.1,0,0.1,0.1,0.2,0.1c0,0,0.1,0,0.1,0.1l0,0c0.1,0,0.1,0.1,0.2,0.1c0.1,0.1,0.2,0.2,0.3,0.2l0,0c0.1,0.1,0.1,0.1,0.2,0.2
			c0.1,0.1,0.2,0.2,0.3,0.3l0,0c0.6,0.5,1.3,0.9,1.9,1.3c0.1,0.1,0.2,0.2,0.4,0.2l0,0c0,0,0,0,0.1,0l0,0c0.1,0.1,0.3,0.2,0.4,0.2
			c0.1,0,0.1,0.1,0.1,0.1l0,0c0,0,0.1,0,0.1,0.1l0,0c0,0,0.1,0.1,0.1,0.1l0,0c0.1,0,0.2,0.1,0.2,0.1l0,0c0,0,0.1,0,0.1,0l0,0
			c0,0,0,0,0.1,0l0,0c0.1,0,0.1,0.1,0.2,0.1l0,0c0.1,0.1,0.2,0.1,0.3,0.2l0,0c0,0,0,0,0.1,0l0,0c0.1,0.1,0.2,0.1,0.3,0.2
			C111.5,91.4,111.6,91.4,111.7,91.5z"/>
		<g class="st7">
			<path class="st3" d="M150.9,80C151,80,151,79.9,150.9,80c0.1-0.2,0.2-0.4,0.3-0.6c0,0,0,0,0-0.1c0,0,0,0,0,0c0,0,0-0.1,0.1-0.1
				c0,0,0,0,0,0c0,0,0-0.1,0.1-0.1c0.1-0.1,0.1-0.3,0.2-0.5c0,0,0-0.1,0.1-0.1c0.1-0.2,0.2-0.5,0.3-0.7c0-0.1,0-0.1,0.1-0.2
				c0-0.1,0.1-0.2,0.1-0.3c0-0.1,0.1-0.2,0.1-0.2c0-0.1,0.1-0.2,0.1-0.3c0.2-0.5,0.4-1.1,0.5-1.7c0.1-0.2,0.1-0.5,0.2-0.7
				c0.1-0.4,0.2-0.8,0.3-1.2c0.7-3.3,1.1-7.4,0.2-12c0,2.1-0.3,4.1-0.7,5.8c-0.1,0.4-0.2,0.8-0.3,1.2c-0.1,0.2-0.1,0.5-0.2,0.7
				c-0.2,0.6-0.4,1.1-0.5,1.7c0,0.1-0.1,0.2-0.1,0.3c0,0.1-0.1,0.2-0.1,0.2c0,0.1-0.1,0.2-0.1,0.3c0,0.1-0.1,0.1-0.1,0.2
				c-0.1,0.3-0.2,0.5-0.3,0.7c0,0,0,0.1-0.1,0.1c-0.1,0.2-0.1,0.3-0.2,0.5c0,0.1,0,0.1-0.1,0.1c0,0,0,0,0,0c0,0,0,0.1-0.1,0.1
				c0,0,0,0,0,0c0,0,0,0,0,0.1c-0.1,0.2-0.2,0.4-0.3,0.6c0,0,0,0.1,0,0.1c-0.4,1-1.1,2.6-2.2,4.4c0,0,0,0,0,0.1
				c-0.1,0.1-0.1,0.2-0.2,0.3c-0.1,0.2-0.2,0.3-0.3,0.5c-1.7,2.5-4.2,5.4-7.8,7.6c-1,0.6-2,1.1-3.1,1.6l0,0c-3.6,1.5-7.2,2-10.4,1.9
				c-6.4-0.1-11.4-2.4-12.1-2.7c-1.2-0.5-2.3-1-3.4-1.5l0,0c-0.1,0-0.1-0.1-0.2-0.1c-0.1-0.1-0.2-0.1-0.3-0.2c0,0,0,0-0.1,0
				c-0.1-0.1-0.2-0.1-0.3-0.2c-0.1,0-0.1-0.1-0.2-0.1c0,0-0.1,0-0.1,0c0,0-0.1,0-0.1-0.1c-0.1,0-0.2-0.1-0.2-0.1
				c-0.1,0-0.1-0.1-0.2-0.1c0,0-0.1-0.1-0.1-0.1c-0.1,0-0.1-0.1-0.2-0.1c-0.1-0.1-0.3-0.2-0.4-0.2c0,0,0,0-0.1,0
				c-0.1-0.1-0.2-0.2-0.4-0.2c-0.7-0.4-1.3-0.9-2-1.4l0,0c-0.1-0.1-0.2-0.2-0.4-0.3c-0.1-0.1-0.1-0.1-0.2-0.2
				c-0.1-0.1-0.2-0.2-0.3-0.2c-0.1-0.1-0.1-0.1-0.2-0.2c0,0-0.1-0.1-0.1-0.1c-0.1,0-0.1-0.1-0.2-0.1c-0.1,0-0.1-0.1-0.2-0.1
				c0,0-0.1-0.1-0.1-0.1c0,0,0,0,0,0c-0.1-0.1-0.2-0.1-0.2-0.2c0,0-0.1-0.1-0.1-0.1c-0.1-0.1-0.2-0.2-0.3-0.3
				c-0.1-0.1-0.2-0.2-0.3-0.3c-0.2-0.2-0.4-0.4-0.6-0.5c-0.2-0.2-0.4-0.4-0.6-0.6c-0.1-0.1-0.2-0.2-0.2-0.2c0,0,0,0-0.1-0.1
				c0,0-0.1-0.1-0.1-0.1c-0.1-0.1-0.1-0.1-0.2-0.2c0,0-0.1-0.1-0.1-0.1c-0.1-0.1-0.1-0.1-0.2-0.2c-0.1-0.1-0.1-0.1-0.1-0.2
				c0,0-0.1-0.1-0.1-0.1c-0.1-0.1-0.1-0.1-0.2-0.2c0,0,0,0-0.1-0.1c-0.1-0.1-0.1-0.2-0.2-0.2c0,0-0.1-0.1-0.1-0.1
				c0-0.1-0.1-0.1-0.1-0.2c0-0.1-0.1-0.1-0.1-0.2c0,0-0.1-0.1-0.1-0.1c-0.1-0.1-0.1-0.2-0.2-0.3c-0.1-0.1-0.1-0.2-0.2-0.3
				c0,0,0,0,0-0.1c-0.1-0.1-0.1-0.2-0.2-0.3c-0.1-0.1-0.1-0.2-0.2-0.3c-0.3-0.4-0.5-0.7-0.7-1.1c-0.1-0.1-0.1-0.2-0.2-0.3
				c0,0,0,0,0,0c-0.1-0.1-0.1-0.2-0.2-0.3c-0.1-0.1-0.1-0.2-0.2-0.3c0,0,0,0,0-0.1c-0.1-0.1-0.1-0.2-0.2-0.3
				c-0.1-0.1-0.1-0.2-0.2-0.3c0,0,0,0,0-0.1c0-0.1-0.1-0.2-0.1-0.3c0,0,0,0,0,0c-0.1-0.1-0.1-0.2-0.2-0.3c-0.1-0.1-0.1-0.2-0.1-0.3
				c0,0,0,0,0,0c0-0.1,0-0.1-0.1-0.2c0-0.1-0.1-0.1-0.1-0.2c0-0.1,0-0.1-0.1-0.2c0-0.1,0-0.1-0.1-0.2c0-0.1,0-0.1-0.1-0.2
				c0-0.1-0.1-0.2-0.1-0.3c0-0.1-0.1-0.2-0.1-0.3c0,0,0,0,0,0c0-0.1-0.1-0.2-0.1-0.3c0-0.1-0.1-0.3-0.1-0.4c0,0,0-0.1,0-0.1
				c0-0.1,0-0.1-0.1-0.2c0,0,0,0.1,0,0.1c0,0,0,0.1,0,0.1c0,0.2,0,0.5,0,0.7c0,0,0,0.1,0,0.1c0,0.1,0,0.2,0,0.3c0,0.1,0,0.1,0,0.2
				c0,0.1,0,0.3,0,0.4c0,0.1,0,0.2,0,0.3c0,0,0,0,0,0c0,0.1,0,0.2,0,0.3c0,0.1,0,0.2,0,0.3c0,0.1,0,0.2,0,0.2c0,0.1,0,0.2,0,0.3
				c0,0,0,0.1,0,0.1c0,0.1,0,0.2,0,0.3c0,0.1,0,0.2,0,0.3c0,0,0,0.1,0,0.1c0,0.1,0,0.2,0,0.3c0,0.1,0,0.2,0,0.3
				c0.1,0.4,0.2,0.8,0.3,1.2c0,0,0,0.1,0,0.1c0,0.1,0,0.1,0.1,0.2c0,0,0,0.1,0,0.1c0,0.1,0.1,0.3,0.1,0.4c0,0.1,0.1,0.2,0.1,0.3
				c0,0,0,0,0,0c0,0.1,0.1,0.2,0.1,0.3c0,0.1,0.1,0.2,0.1,0.3c0,0.1,0,0.1,0.1,0.2c0,0.1,0,0.1,0.1,0.2c0,0.1,0,0.1,0.1,0.2
				c0,0.1,0,0.1,0.1,0.2c0,0.1,0,0.1,0.1,0.2c0,0,0,0,0,0c0,0.1,0.1,0.2,0.1,0.3c0,0.1,0.1,0.2,0.2,0.3c0,0,0,0,0,0
				c0,0.1,0.1,0.2,0.1,0.3c0,0,0,0,0,0.1c0.1,0.1,0.1,0.2,0.2,0.3c0.1,0.1,0.1,0.2,0.2,0.3c0,0,0,0,0,0.1c0.1,0.1,0.1,0.2,0.2,0.3
				c0.1,0.1,0.1,0.2,0.2,0.3c0,0,0,0,0,0c0.1,0.1,0.1,0.2,0.2,0.3c0.2,0.4,0.5,0.8,0.7,1.1c0.1,0.1,0.1,0.2,0.2,0.3
				c0.1,0.1,0.1,0.2,0.2,0.3c0,0,0,0,0,0.1c0.1,0.1,0.1,0.2,0.2,0.3c0.1,0.1,0.1,0.2,0.2,0.3c0,0,0.1,0.1,0.1,0.1
				c0,0.1,0.1,0.1,0.1,0.2c0,0.1,0.1,0.1,0.1,0.2c0,0,0.1,0.1,0.1,0.1c0.1,0.1,0.1,0.2,0.2,0.2c0,0,0,0,0.1,0.1
				c0.1,0.1,0.1,0.1,0.2,0.2c0,0,0.1,0.1,0.1,0.1c0,0.1,0.1,0.1,0.1,0.2c0.1,0.1,0.1,0.1,0.2,0.2c0,0,0.1,0.1,0.1,0.1
				c0.1,0.1,0.1,0.1,0.2,0.2c0,0,0.1,0.1,0.1,0.1c0,0,0,0,0.1,0.1c0.1,0.1,0.1,0.2,0.2,0.2c0.2,0.2,0.4,0.4,0.6,0.6
				c0.2,0.2,0.4,0.4,0.6,0.5c0.1,0.1,0.2,0.2,0.3,0.3c0.1,0.1,0.2,0.2,0.3,0.3c0,0,0.1,0.1,0.1,0.1c0.1,0.1,0.2,0.1,0.2,0.2
				c0,0,0,0,0,0c0,0,0.1,0.1,0.1,0.1c0.1,0,0.1,0.1,0.2,0.1c0.1,0,0.1,0.1,0.2,0.1c0,0,0.1,0.1,0.1,0.1c0.1,0.1,0.1,0.1,0.2,0.2
				c0.1,0.1,0.2,0.2,0.3,0.2c0.1,0.1,0.1,0.1,0.2,0.2c0.1,0.1,0.2,0.2,0.4,0.3l0,0c0.6,0.5,1.3,0.9,2,1.4c0.1,0.1,0.2,0.2,0.4,0.2
				c0,0,0,0,0.1,0c0.1,0.1,0.3,0.2,0.4,0.2c0.1,0,0.1,0.1,0.2,0.1c0,0,0.1,0.1,0.1,0.1c0.1,0,0.1,0.1,0.2,0.1c0.1,0,0.2,0.1,0.2,0.1
				c0,0,0.1,0,0.1,0.1c0,0,0.1,0,0.1,0c0.1,0,0.1,0.1,0.2,0.1c0.1,0.1,0.2,0.1,0.3,0.2c0,0,0,0,0.1,0c0.1,0.1,0.2,0.1,0.3,0.2
				c0.1,0,0.1,0.1,0.2,0.1l0,0c1.1,0.5,2.2,1,3.4,1.5c0.7,0.3,5.7,2.6,12.1,2.7c3.2,0.1,6.8-0.4,10.4-1.9v0c1-0.4,2-1,3.1-1.6
				c3.7-2.2,6.2-5.1,7.8-7.6c0.1-0.2,0.2-0.3,0.3-0.5c0.1-0.1,0.1-0.2,0.2-0.3c0,0,0,0,0-0.1C149.9,82.5,150.6,80.9,150.9,80z"/>
		</g>
		<path class="st10" d="M111.7,47.6c3.1,0.8,5,2.1,6.2,3.1c2.4,2.1,2.9,4.2,6.3,6.5c1.2,0.8,2.2,1.2,2.7,1.5
			c2.2,0.9,4.1,1.1,4.7,1.1c4.9,0.5,11,4,12.2,4.7c2.5,1.4,6.2,4,9.9,8.4c0.2,0.7,0.5,2.5-0.1,4.5c-0.8,2.4-2.5,3.8-3.1,4.2
			c-4.3-4.7-8.5-6.4-11.3-7.5c-4.4-1.7-8.3-0.8-11.8-3c-2.4-1.4-3.9-3.6-4.9-5.6c-0.8-1.6-2.4-2.6-4.2-2.5
			c-3.2,0.1-8.4-0.6-12.3-5.6c-0.1-0.8-0.3-3.6,1.6-6.3C108.9,48.8,110.9,47.9,111.7,47.6z"/>
		<path class="st3" d="M150.3,82.3l-0.3-0.4c-4.4-4.8-8.8-6.5-11.1-7.4c-1.9-0.7-3.8-1-5.5-1.2c-2.2-0.3-4.4-0.6-6.4-1.8
			c-2.1-1.3-3.8-3.2-5.1-5.9c-0.7-1.4-2.1-2.3-3.7-2.2c-2.2,0.1-4.2-0.2-6.1-0.9c-2.6-1-4.8-2.6-6.6-4.9l-0.1-0.1l0-0.2
			c-0.1-1.1-0.2-4,1.7-6.7c1.5-2.2,3.5-3.2,4.6-3.6l0.2-0.1l0.2,0c2.6,0.6,4.7,1.7,6.4,3.3c1,0.9,1.7,1.8,2.4,2.7
			c1,1.3,1.9,2.5,3.8,3.8c0.8,0.6,1.7,1,2.6,1.4c2,0.9,3.8,1,4.4,1.1l0.1,0c4.3,0.4,9.6,3.1,12.4,4.7c3.7,2.1,7.1,5,10,8.5l0.1,0.1
			l0,0.1c0.3,1.1,0.5,2.9-0.1,4.8c-0.8,2.4-2.4,3.8-3.3,4.5L150.3,82.3z M118.3,62.3c1.9,0,3.7,1.1,4.6,2.9c1.2,2.4,2.7,4.2,4.6,5.4
			c1.8,1.1,3.8,1.4,5.9,1.6c1.8,0.2,3.8,0.5,5.8,1.3c1.6,0.6,3.3,1.3,5.2,2.5c2.2,1.3,4.1,2.9,6,4.8c0.8-0.6,1.9-1.8,2.5-3.6
			c0.5-1.6,0.4-3.1,0.1-4.1c-2.8-3.3-6-6.1-9.6-8.1c-4.6-2.7-8.9-4.3-12-4.6l-0.1,0c-0.7-0.1-2.6-0.2-4.8-1.2
			c-0.9-0.4-1.9-0.9-2.8-1.5c-2.1-1.4-3.1-2.7-4.1-4c-0.7-0.9-1.3-1.7-2.2-2.5c-1.5-1.4-3.5-2.4-5.7-3c-1,0.4-2.6,1.3-3.9,3.1
			c-1.6,2.3-1.6,4.7-1.5,5.8c3.6,4.6,8.3,5.4,11.7,5.3C118.2,62.3,118.2,62.3,118.3,62.3z"/>
		<g class="st4">
			<path class="st5" d="M107.2,52.4c1.5-2.2,3.5-3.1,4.3-3.4c3,0.8,4.9,2.1,6,3.1c2.3,2.1,2.8,4.2,6.1,6.4c1.2,0.8,2.1,1.2,2.6,1.4
				c2.2,0.9,4,1,4.6,1.1c4.8,0.4,10.8,3.9,12,4.5c2.4,1.4,6.1,3.9,9.6,8.3c0.2,0.7,0.5,2.5-0.2,4.5c-0.1,0.2-0.1,0.4-0.2,0.6
				c0.3-0.5,0.6-1.1,0.8-1.8c0.7-2,0.3-3.8,0.2-4.5c-3.6-4.4-7.2-6.9-9.6-8.3c-1.2-0.7-7.2-4.1-12-4.5c-0.6-0.1-2.4-0.2-4.6-1.1
				c-0.5-0.2-1.5-0.6-2.6-1.4c-3.3-2.2-3.8-4.3-6.1-6.4c-1.1-1-3-2.3-6-3.1c-0.8,0.3-2.8,1.2-4.3,3.4c-0.4,0.6-0.7,1.1-0.9,1.7
				C107,52.7,107.1,52.5,107.2,52.4z"/>
		</g>
		<path class="st3" d="M150.3,82.3l-0.3-0.4c-4.4-4.8-8.8-6.5-11.1-7.4c-1.9-0.7-3.8-1-5.5-1.2c-2.2-0.3-4.4-0.6-6.4-1.8
			c-2.1-1.3-3.8-3.2-5.1-5.9c-0.7-1.4-2.1-2.3-3.7-2.2c-2.2,0.1-4.2-0.2-6.1-0.9c-2.6-1-4.8-2.6-6.6-4.9l-0.1-0.1l0-0.2
			c-0.1-1.1-0.2-4,1.7-6.7c1.5-2.2,3.5-3.2,4.6-3.6l0.2-0.1l0.2,0c2.6,0.6,4.7,1.7,6.4,3.3c1,0.9,1.7,1.8,2.4,2.7
			c1,1.3,1.9,2.5,3.8,3.8c0.8,0.6,1.7,1,2.6,1.4c2,0.9,3.8,1,4.4,1.1l0.1,0c4.3,0.4,9.6,3.1,12.4,4.7c3.7,2.1,7.1,5,10,8.5l0.1,0.1
			l0,0.1c0.3,1.1,0.5,2.9-0.1,4.8c-0.8,2.4-2.4,3.8-3.3,4.5L150.3,82.3z M118.3,62.3c1.9,0,3.7,1.1,4.6,2.9c1.2,2.4,2.7,4.2,4.6,5.4
			c1.8,1.1,3.8,1.4,5.9,1.6c1.8,0.2,3.8,0.5,5.8,1.3c1.6,0.6,3.3,1.3,5.2,2.5c2.2,1.3,4.1,2.9,6,4.8c0.8-0.6,1.9-1.8,2.5-3.6
			c0.5-1.6,0.4-3.1,0.1-4.1c-2.8-3.3-6-6.1-9.6-8.1c-4.6-2.7-8.9-4.3-12-4.6l-0.1,0c-0.7-0.1-2.6-0.2-4.8-1.2
			c-0.9-0.4-1.9-0.9-2.8-1.5c-2.1-1.4-3.1-2.7-4.1-4c-0.7-0.9-1.3-1.7-2.2-2.5c-1.5-1.4-3.5-2.4-5.7-3c-1,0.4-2.6,1.3-3.9,3.1
			c-1.6,2.3-1.6,4.7-1.5,5.8c3.6,4.6,8.3,5.4,11.7,5.3C118.2,62.3,118.2,62.3,118.3,62.3z"/>
		<g class="st7">
			<path class="st3" d="M150.4,81.5c-4.3-4.7-8.5-6.4-11.3-7.5c-4.4-1.7-8.3-0.8-11.8-3c-2.4-1.4-3.9-3.6-4.9-5.6
				c-0.8-1.6-2.4-2.6-4.2-2.5c-3.2,0.1-8.4-0.6-12.3-5.6c-0.1-0.6-0.2-2.5,0.6-4.6c-1.6,2.6-1.4,5.3-1.3,6c3.8,5,9,5.7,12.3,5.6
				c1.8-0.1,3.5,0.9,4.2,2.5c1,2.1,2.5,4.2,4.9,5.6c3.5,2.1,7.4,1.3,11.8,3c2.9,1.1,7,2.9,11.3,7.5c0.5-0.4,2.1-1.6,2.9-3.7
				C151.8,80.5,150.8,81.2,150.4,81.5z"/>
		</g>
		<g class="st7">
			<path class="st3" d="M151.3,79.2c-0.4,0.4-1,0.3-1.4,0c-4-4.1-7.8-5.7-10.5-6.7c-4.3-1.7-8.2-0.8-11.6-2.9
				c-2.3-1.4-3.8-3.5-4.8-5.5c-0.8-1.6-2.4-2.6-4.2-2.5c-2.9,0.1-7.4-0.5-11.1-4.4c-0.7-0.7-1-1.7-1-2.7c0.1-0.8,0.2-1.8,0.7-2.9
				c-1.6,2.6-1.4,5.2-1.3,5.9c3.8,4.9,8.8,5.6,12,5.5c1.8-0.1,3.4,0.9,4.2,2.5c1,2,2.4,4.1,4.8,5.5c3.4,2.1,7.3,1.2,11.6,2.9
				c2.8,1.1,6.9,2.8,11.1,7.4c0.5-0.4,2-1.5,2.8-3.6C152.3,78.3,151.8,78.8,151.3,79.2z"/>
		</g>
		<path class="st3" d="M127.3,64.1c-1.2,2.1-0.8,4.7,0.9,5.7c1.8,1,4.2,0.1,5.4-2c0.7-1.2,0.9-2.5,0.6-3.6c-1.5-0.1-3.9-0.6-4.7-2.1
			C128.6,62.5,127.8,63.2,127.3,64.1z"/>
		<path class="st3" d="M129.5,61.1c0,0.2,0,0.4,0.1,0.6c0.1,0.2,0.1,0.4,0.2,0.5c0.1,0.1,0.1,0.1,0.2,0.2c0.1,0.1,0.1,0.1,0.2,0.1
			c0.1,0.1,0.3,0.1,0.5,0.2c0.3,0.1,0.7,0.1,1.1,0.1c0.2,0,0.4,0,0.6,0c0.2,0,0.4,0,0.7,0.1c0.9,0.1,1.7,0.4,2.5,0.9
			c0.4,0.2,0.7,0.5,1.1,0.7c0.1,0.1,0.2,0.1,0.2,0.2c0,0,0.1,0.1,0.1,0.1c0,0,0.1,0.1,0.1,0.1l0.1,0.1l0.1,0.1
			c0.1,0.1,0.1,0.2,0.2,0.3c-0.2-0.1-0.4-0.1-0.6-0.2l-0.6-0.2c-0.4-0.1-0.8-0.3-1.2-0.4c-0.8-0.2-1.5-0.5-2.3-0.6
			c-0.1,0-0.2,0-0.3-0.1c-0.1,0-0.2,0-0.3,0c-0.2,0-0.4-0.1-0.6-0.1c-0.2,0-0.4-0.1-0.6-0.1c-0.2-0.1-0.4-0.1-0.7-0.2
			c-0.2-0.1-0.4-0.2-0.6-0.4c-0.2-0.2-0.3-0.4-0.4-0.7c0-0.1-0.1-0.2-0.1-0.4c0-0.1,0-0.2,0-0.3C129.3,61.5,129.4,61.3,129.5,61.1z"
			/>
		<path class="st5" d="M130.7,66.4c-0.4,0.8-0.3,1.6,0.2,1.9c0.5,0.3,1.2-0.1,1.6-0.9c0.4-0.8,0.3-1.6-0.2-1.9
			C131.8,65.2,131.1,65.6,130.7,66.4z"/>
		<path class="st3" d="M117.6,57.5c-1.1,2.2-3.5,3.2-5.3,2.2c-1.8-0.9-2.3-3.5-1.2-5.6c0.6-1.2,1.7-2.1,2.7-2.4
			c0.9,1.2,2.6,3,4.3,2.9C118.3,55.5,118.1,56.5,117.6,57.5z"/>
		<path class="st3" d="M118.9,54c-0.1,0.2-0.2,0.4-0.4,0.5c-0.1,0.1-0.2,0.1-0.3,0.2c-0.1,0.1-0.2,0.1-0.3,0.1
			c-0.2,0.1-0.5,0.1-0.8,0c-0.3-0.1-0.5-0.2-0.7-0.3c-0.2-0.1-0.4-0.3-0.6-0.4c-0.2-0.2-0.3-0.3-0.5-0.5c-0.1-0.2-0.3-0.3-0.4-0.5
			c-0.1-0.1-0.1-0.1-0.2-0.2c-0.1-0.1-0.1-0.1-0.2-0.2c-0.5-0.6-1.1-1.1-1.7-1.6c-0.3-0.3-0.6-0.5-0.9-0.8l-0.5-0.4
			c-0.2-0.1-0.3-0.3-0.5-0.4c0.1,0,0.2,0,0.3,0l0.2,0l0.2,0c0.1,0,0.1,0,0.2,0c0.1,0,0.1,0,0.2,0c0.1,0,0.2,0.1,0.3,0.1
			c0.4,0.1,0.8,0.3,1.2,0.5c0.8,0.4,1.5,1,2.1,1.6c0.1,0.2,0.3,0.3,0.4,0.5c0.1,0.2,0.2,0.3,0.4,0.5c0.2,0.3,0.5,0.6,0.7,0.9
			c0.1,0.1,0.3,0.2,0.4,0.3c0.1,0,0.1,0.1,0.2,0.1c0.1,0,0.2,0,0.2,0c0.2,0,0.4,0,0.5-0.1C118.5,54.2,118.7,54.1,118.9,54z"/>
		<path class="st5" d="M116.2,57c-0.4,0.7-1.2,1.1-1.7,0.8c-0.5-0.3-0.5-1.1-0.1-1.9c0.4-0.7,1.2-1.1,1.7-0.8
			C116.6,55.4,116.7,56.2,116.2,57z"/>
		<path class="st6" d="M126.1,81c2.8-4,0.2-10.6-5.8-14.7c-6-4.2-13-4.3-15.8-0.3c-2.8,4-0.2,10.6,5.8,14.7
			C116.3,84.8,123.3,85,126.1,81z"/>
		<path class="st3" d="M119.2,80.2c-0.4-0.3-0.9-0.7-1.3-1.1c-0.4-0.4-0.8-0.7-1.2-1.1c-0.8-0.8-1.6-1.5-2.4-2.3
			c-0.2-0.2-0.4-0.4-0.6-0.6l-0.3-0.3c-0.1-0.1-0.1-0.1-0.1-0.1c0,0-0.1-0.1-0.1-0.1c-0.2-0.1-0.4-0.3-0.6-0.4
			c-0.2-0.1-0.4-0.2-0.6-0.2c-0.4-0.1-0.9-0.1-1.4,0c-0.2,0-0.5,0.1-0.7,0.2c-0.2,0.1-0.5,0.2-0.7,0.4c0.1-0.3,0.2-0.6,0.4-0.8
			c0.2-0.2,0.4-0.4,0.7-0.6c0.3-0.2,0.6-0.3,0.9-0.3c0.3-0.1,0.7-0.1,1,0c0.3,0,0.6,0.1,0.9,0.3c0.3,0.1,0.6,0.3,0.8,0.5
			c0.1,0.1,0.1,0.1,0.2,0.2c0.1,0.1,0.1,0.1,0.2,0.2l0.3,0.3c0.2,0.2,0.4,0.4,0.6,0.6c0.7,0.8,1.4,1.7,2.1,2.6
			c0.3,0.4,0.7,0.9,1,1.3C118.6,79.3,118.9,79.8,119.2,80.2z"/>
		<path class="st3" d="M113.8,72.7c0-0.2,0.1-0.4,0.1-0.6c0.1-0.2,0.1-0.4,0.2-0.6c0.1-0.4,0.3-0.8,0.5-1.1c0.1-0.2,0.2-0.4,0.3-0.5
			c0-0.1,0.1-0.2,0.1-0.3c0-0.1,0.1-0.2,0.2-0.3c0.1-0.2,0.3-0.3,0.4-0.5c0.1-0.1,0.2-0.1,0.3-0.2c0.1-0.1,0.2-0.1,0.4-0.1
			c0,0.1,0.1,0.3,0.1,0.4c0,0.1,0,0.2,0,0.3c0,0.2-0.1,0.4-0.2,0.6c0,0.1-0.1,0.2-0.1,0.3c0,0.1-0.1,0.2-0.2,0.3
			c-0.1,0.2-0.2,0.3-0.3,0.5c-0.2,0.3-0.5,0.7-0.8,1c-0.1,0.2-0.3,0.3-0.4,0.5C114.1,72.5,114,72.6,113.8,72.7z"/>
		<path class="st9" d="M113.2,66.2c0.2-1,1.3-1.6,2.3-1.2c0.5,0.2,0.9,0.4,1.4,0.7c1.1,0.6,2.1,1.2,2.9,1.8c0.8,0.6,0.9,1.9,0.1,2.6
			c0,0,0,0,0,0c-0.4,0.3-0.7,0.5-1,0.7c0,0,0,0,0,0c-0.6,0.3-1.3,0.4-2,0.4c-0.7,0-1.4-0.2-2-0.6c-0.1-0.1-0.7-0.4-1.1-1.2
			c-0.7-1.2-0.6-2.5-0.5-3C113.2,66.4,113.2,66.3,113.2,66.2z"/>
		<path class="st3" d="M116.8,71.8L116.8,71.8c-0.8,0-1.6-0.2-2.3-0.6c-0.2-0.2-0.8-0.6-1.3-1.4c-0.9-1.4-0.7-2.8-0.6-3.3
			c0-0.1,0-0.2,0.1-0.4c0.1-0.7,0.5-1.2,1.1-1.6c0.6-0.3,1.3-0.3,1.9-0.1c0.5,0.2,1,0.5,1.5,0.7c1,0.6,2,1.2,3,1.9
			c0.5,0.4,0.9,1,0.9,1.7c0,0.7-0.3,1.3-0.8,1.7l0,0c-0.3,0.3-0.7,0.5-1.1,0.7c0,0,0,0-0.1,0C118.3,71.6,117.6,71.8,116.8,71.8z
			 M113.8,66.3c0,0.1,0,0.2,0,0.3c-0.1,0.5-0.2,1.6,0.5,2.6c0.4,0.6,0.8,0.9,1,1c0.5,0.3,1.1,0.5,1.7,0.5h0c0.6,0,1.2-0.1,1.7-0.4
			l0,0c0.3-0.2,0.6-0.4,0.9-0.6l0,0c0.2-0.2,0.4-0.5,0.4-0.8c0-0.3-0.2-0.6-0.4-0.8c-0.9-0.7-1.8-1.3-2.8-1.8
			c-0.5-0.2-0.9-0.5-1.4-0.7c-0.3-0.1-0.6-0.1-0.9,0C114,65.7,113.8,65.9,113.8,66.3z"/>
		<path class="st3" d="M113.2,66.2c0.2-1,1.3-1.6,2.3-1.2c0.5,0.2,0.9,0.4,1.4,0.7c1.1,0.6,2.1,1.2,2.9,1.8c0.8,0.6,0.9,1.9,0.1,2.6
			c0,0,0,0,0,0c-0.4,0.3-0.7,0.5-1,0.7c0,0,0,0,0,0c-0.6,0.3-1.3,0.4-2,0.4c-0.7,0-1.4-0.2-2-0.6c-0.1-0.1-0.7-0.4-1.1-1.2
			c-0.7-1.2-0.6-2.5-0.5-3C113.2,66.4,113.2,66.3,113.2,66.2z"/>
		<path class="st3" d="M116.8,71.8L116.8,71.8c-0.8,0-1.6-0.2-2.3-0.6c-0.2-0.2-0.8-0.6-1.3-1.4c-0.9-1.4-0.7-2.8-0.6-3.3
			c0-0.1,0-0.2,0.1-0.4c0.1-0.7,0.5-1.2,1.1-1.6c0.6-0.3,1.3-0.3,1.9-0.1c0.5,0.2,1,0.5,1.5,0.7c1,0.6,2,1.2,3,1.9
			c0.5,0.4,0.9,1,0.9,1.7c0,0.7-0.3,1.3-0.8,1.7l0,0c-0.3,0.3-0.7,0.5-1.1,0.7c0,0,0,0-0.1,0C118.3,71.6,117.6,71.8,116.8,71.8z
			 M113.8,66.3c0,0.1,0,0.2,0,0.3c-0.1,0.5-0.2,1.6,0.5,2.6c0.4,0.6,0.8,0.9,1,1c0.5,0.3,1.1,0.5,1.7,0.5h0c0.6,0,1.2-0.1,1.7-0.4
			l0,0c0.3-0.2,0.6-0.4,0.9-0.6l0,0c0.2-0.2,0.4-0.5,0.4-0.8c0-0.3-0.2-0.6-0.4-0.8c-0.9-0.7-1.8-1.3-2.8-1.8
			c-0.5-0.2-0.9-0.5-1.4-0.7c-0.3-0.1-0.6-0.1-0.9,0C114,65.7,113.8,65.9,113.8,66.3z"/>
		<path class="st5" d="M116.2,66.1c0.7,0.4,1.2,0.9,1.1,1c-0.1,0.2-0.8,0-1.5-0.4c-0.7-0.4-1.2-0.9-1.1-1
			C114.8,65.5,115.5,65.7,116.2,66.1z"/>
		<path class="st2" d="M153.3,86.5c1.9,1.2,6.6,4.4,8.7,10.5c1.8,5,2,12.3-2,16.8c-0.6,0.7-2.2,2.4-4.8,3.1
			c-0.7,0.2-2.7,0.7-6.4-0.5c-5.9-1.9-9.6-6-12-8.7c-1.3-1.5-3.2-3.9-5-7.1c0,0-0.1,0-0.1,0c-2.3,0.6-4.3-0.6-4.8-0.8
			c-1.8-1.1-3.5-3.4-3.3-6.2c0.2-2.9,2.4-4.5,2.7-4.8c1-0.6,1.9-1,2.8-1.2c8.9-2.2,18.2,11,18.6,11.6c0.5-0.6,1-1.3,1.6-1.9
			c0.8-1.1,1.6-2.2,2.2-3.2L153.3,86.5z"/>
		<path class="st3" d="M153.6,86c1.2,0.7,2.4,1.6,3.5,2.6c1.1,1,2.1,2,2.9,3.2c0.9,1.2,1.6,2.4,2.2,3.8c0.6,1.3,1,2.7,1.3,4.2
			c0.3,1.4,0.4,2.9,0.4,4.3c0,0.7,0,1.5-0.1,2.2c-0.1,0.7-0.2,1.5-0.4,2.2c-0.3,1.4-0.9,2.8-1.6,4.1l-0.1,0.2c0,0,0,0.1-0.1,0.1
			l-0.1,0.1l-0.2,0.2l-0.1,0.1l-0.1,0.1l-0.2,0.2c-0.1,0.1-0.1,0.2-0.2,0.2l-0.2,0.2l-0.1,0.1c0,0-0.1,0.1-0.1,0.1
			c-0.2,0.3-0.5,0.5-0.8,0.8c-0.3,0.3-0.6,0.5-0.9,0.7c-0.1,0.1-0.1,0.1-0.2,0.2c-0.1,0.1-0.2,0.1-0.2,0.2c-0.2,0.1-0.3,0.2-0.5,0.3
			l-0.2,0.1l-0.2,0.1c-0.2,0.1-0.3,0.2-0.5,0.3c-0.1,0-0.2,0.1-0.3,0.1l-0.3,0.1c-0.2,0.1-0.4,0.1-0.5,0.2c-0.2,0.1-0.4,0.1-0.5,0.2
			c-0.1,0-0.2,0-0.3,0.1c-0.1,0-0.2,0-0.3,0.1c-0.8,0.1-1.5,0.2-2.3,0.1c-0.7,0-1.5-0.2-2.2-0.3c-0.7-0.2-1.4-0.4-2.1-0.6
			c-0.7-0.2-1.4-0.5-2-0.8c-1.3-0.6-2.6-1.3-3.8-2.2c-0.6-0.4-1.2-0.9-1.7-1.3c-0.6-0.5-1.1-1-1.6-1.5c-0.5-0.5-1-1-1.5-1.5
			c-0.2-0.3-0.5-0.5-0.7-0.8l-0.4-0.4l-0.4-0.4c-0.9-1.1-1.8-2.2-2.6-3.4c-0.8-1.2-1.6-2.4-2.3-3.6l0.8,0.3c-0.1,0-0.2,0.1-0.4,0.1
			c-0.1,0-0.3,0-0.4,0.1c-0.3,0-0.5,0.1-0.8,0.1c-0.5,0-1-0.1-1.5-0.2c-0.5-0.1-1-0.3-1.4-0.5c-0.2-0.1-0.5-0.2-0.7-0.3
			c-0.2-0.1-0.4-0.3-0.7-0.4c-0.8-0.6-1.5-1.3-2.1-2.2c-0.5-0.9-0.9-1.8-1.1-2.8c-0.2-1-0.1-2.1,0.2-3c0.3-1,0.8-1.9,1.5-2.6
			c0.3-0.4,0.7-0.7,1.1-1l0.1-0.1c0,0,0.1-0.1,0.1-0.1l0.2-0.1c0.1-0.1,0.2-0.1,0.3-0.2c0.2-0.1,0.4-0.2,0.7-0.4
			c0.4-0.2,0.9-0.4,1.4-0.5c0.1,0,0.1,0,0.2-0.1c0.1,0,0.1,0,0.2,0l0.1,0l0.1,0l0.2,0l0.2,0l0.2,0c0.1,0,0.2,0,0.4-0.1
			c0.5-0.1,1-0.1,1.5-0.1c0.5,0,1,0.1,1.5,0.2c0.5,0.1,1,0.2,1.4,0.3c0.5,0.1,0.9,0.3,1.4,0.5c0.1,0,0.2,0.1,0.3,0.1l0.3,0.2
			c0.2,0.1,0.4,0.2,0.6,0.3c0.4,0.2,0.8,0.5,1.2,0.7c0.8,0.5,1.6,1.1,2.3,1.6c1.5,1.2,2.8,2.5,4.1,3.9c0.6,0.7,1.2,1.4,1.8,2.1
			c0.3,0.4,0.6,0.7,0.9,1.1c0.1,0.2,0.3,0.4,0.4,0.6c0.1,0.2,0.3,0.4,0.4,0.6l-0.9,0c0.7-0.8,1.4-1.6,2.1-2.4c0.3-0.4,0.7-0.8,1-1.2
			c0.4-0.4,0.7-0.8,1.1-1.2c-0.2,0.5-0.4,1-0.7,1.5c-0.2,0.5-0.5,0.9-0.8,1.4c-0.6,0.9-1.2,1.8-1.9,2.6l-0.5,0.6l-0.4-0.6
			c-0.1-0.2-0.3-0.4-0.4-0.5c-0.1-0.2-0.3-0.4-0.4-0.5c-0.3-0.4-0.6-0.7-0.9-1.1c-0.6-0.7-1.2-1.4-1.8-2.1c-1.2-1.3-2.6-2.6-4-3.7
			c-0.7-0.6-1.4-1.1-2.2-1.5c-0.4-0.2-0.8-0.5-1.2-0.7c-0.2-0.1-0.4-0.2-0.6-0.3l-0.3-0.1c-0.1,0-0.2-0.1-0.3-0.1
			c-0.4-0.2-0.8-0.3-1.2-0.4c-0.4-0.1-0.8-0.2-1.3-0.3c-0.4-0.1-0.9-0.1-1.3-0.1c-0.4,0-0.9,0-1.3,0.1c-0.1,0-0.2,0-0.3,0l-0.2,0
			l-0.2,0l-0.2,0l-0.1,0l-0.1,0c-0.1,0-0.1,0-0.2,0c-0.1,0-0.1,0-0.2,0c-0.4,0.1-0.8,0.3-1.2,0.5c-0.2,0.1-0.4,0.2-0.6,0.3
			c-0.1,0.1-0.2,0.1-0.3,0.2l-0.1,0.1c0,0,0,0,0,0l-0.1,0c-0.3,0.3-0.6,0.6-0.9,0.9c-0.5,0.6-1,1.4-1.2,2.2
			c-0.2,0.8-0.3,1.6-0.2,2.4c0.1,0.8,0.4,1.6,0.9,2.3c0.5,0.7,1,1.3,1.7,1.8c0.2,0.1,0.3,0.2,0.5,0.3c0.2,0.1,0.4,0.2,0.6,0.3
			c0.4,0.2,0.8,0.3,1.2,0.4c0.4,0.1,0.8,0.1,1.2,0.1c0.2,0,0.4,0,0.6,0c0.1,0,0.2,0,0.3-0.1c0.1,0,0.2,0,0.3-0.1l0.5-0.1l0.3,0.5
			c0.7,1.2,1.4,2.4,2.2,3.5c0.8,1.1,1.6,2.2,2.6,3.3l0.3,0.4l0.3,0.4c0.2,0.3,0.5,0.5,0.7,0.8c0.5,0.5,1,1,1.4,1.5
			c1,1,2,1.9,3.1,2.6c1.1,0.8,2.3,1.5,3.5,2.1c0.6,0.3,1.2,0.5,1.9,0.8c0.2,0.1,0.3,0.1,0.5,0.2l0.5,0.1c0.1,0,0.2,0,0.2,0.1
			l0.2,0.1c0.1,0,0.2,0,0.2,0.1l0.2,0.1c0.7,0.1,1.3,0.2,2,0.3c0.7,0,1.3,0,1.9-0.1c0.1,0,0.2,0,0.2,0c0.1,0,0.2,0,0.2-0.1
			c0.2,0,0.3-0.1,0.5-0.1c0.2-0.1,0.3-0.1,0.5-0.2l0.2-0.1c0.1,0,0.1-0.1,0.2-0.1c0.1-0.1,0.3-0.1,0.4-0.2l0.2-0.1l0.2-0.1
			c0.1-0.1,0.3-0.2,0.4-0.3c0.1,0,0.1-0.1,0.2-0.1c0.1,0,0.1-0.1,0.2-0.1l0.2-0.2l0.2-0.2c0.1-0.1,0.1-0.1,0.2-0.2l0.1-0.1l0.1-0.1
			c0.2-0.2,0.5-0.5,0.7-0.7c0.4-0.5,0.8-1,1.2-1.6c0.7-1.1,1.2-2.4,1.5-3.7c0.2-0.7,0.3-1.3,0.3-2c0.1-0.7,0.1-1.4,0.1-2
			c0-1.4-0.1-2.7-0.4-4.1c-0.1-0.7-0.3-1.3-0.5-2c-0.2-0.7-0.4-1.3-0.7-1.9c-0.5-1.3-1.2-2.4-2-3.6c-1.6-2.2-3.6-4.1-6-5.6L153.6,86
			z"/>
		<g class="st4">
			<path class="st5" d="M124.7,92.1c0,0,5.2-6.1,13.4,0c8.2,6.1,12.2,11.4,12.2,11.4s-4.9-8.8-11.9-13.4
				C138.4,90.1,128.7,82.8,124.7,92.1z"/>
		</g>
		<path class="st3" d="M153.6,86c1.2,0.7,2.4,1.6,3.5,2.6c1.1,1,2.1,2,2.9,3.2c0.9,1.2,1.6,2.4,2.2,3.8c0.6,1.3,1,2.7,1.3,4.2
			c0.3,1.4,0.4,2.9,0.4,4.3c0,0.7,0,1.5-0.1,2.2c-0.1,0.7-0.2,1.5-0.4,2.2c-0.3,1.4-0.9,2.8-1.6,4.1l-0.1,0.2c0,0,0,0.1-0.1,0.1
			l-0.1,0.1l-0.2,0.2l-0.1,0.1l-0.1,0.1l-0.2,0.2c-0.1,0.1-0.1,0.2-0.2,0.2l-0.2,0.2l-0.1,0.1c0,0-0.1,0.1-0.1,0.1
			c-0.2,0.3-0.5,0.5-0.8,0.8c-0.3,0.3-0.6,0.5-0.9,0.7c-0.1,0.1-0.1,0.1-0.2,0.2c-0.1,0.1-0.2,0.1-0.2,0.2c-0.2,0.1-0.3,0.2-0.5,0.3
			l-0.2,0.1l-0.2,0.1c-0.2,0.1-0.3,0.2-0.5,0.3c-0.1,0-0.2,0.1-0.3,0.1l-0.3,0.1c-0.2,0.1-0.4,0.1-0.5,0.2c-0.2,0.1-0.4,0.1-0.5,0.2
			c-0.1,0-0.2,0-0.3,0.1c-0.1,0-0.2,0-0.3,0.1c-0.8,0.1-1.5,0.2-2.3,0.1c-0.7,0-1.5-0.2-2.2-0.3c-0.7-0.2-1.4-0.4-2.1-0.6
			c-0.7-0.2-1.4-0.5-2-0.8c-1.3-0.6-2.6-1.3-3.8-2.2c-0.6-0.4-1.2-0.9-1.7-1.3c-0.6-0.5-1.1-1-1.6-1.5c-0.5-0.5-1-1-1.5-1.5
			c-0.2-0.3-0.5-0.5-0.7-0.8l-0.4-0.4l-0.4-0.4c-0.9-1.1-1.8-2.2-2.6-3.4c-0.8-1.2-1.6-2.4-2.3-3.6l0.8,0.3c-0.1,0-0.2,0.1-0.4,0.1
			c-0.1,0-0.3,0-0.4,0.1c-0.3,0-0.5,0.1-0.8,0.1c-0.5,0-1-0.1-1.5-0.2c-0.5-0.1-1-0.3-1.4-0.5c-0.2-0.1-0.5-0.2-0.7-0.3
			c-0.2-0.1-0.4-0.3-0.7-0.4c-0.8-0.6-1.5-1.3-2.1-2.2c-0.5-0.9-0.9-1.8-1.1-2.8c-0.2-1-0.1-2.1,0.2-3c0.3-1,0.8-1.9,1.5-2.6
			c0.3-0.4,0.7-0.7,1.1-1l0.1-0.1c0,0,0.1-0.1,0.1-0.1l0.2-0.1c0.1-0.1,0.2-0.1,0.3-0.2c0.2-0.1,0.4-0.2,0.7-0.4
			c0.4-0.2,0.9-0.4,1.4-0.5c0.1,0,0.1,0,0.2-0.1c0.1,0,0.1,0,0.2,0l0.1,0l0.1,0l0.2,0l0.2,0l0.2,0c0.1,0,0.2,0,0.4-0.1
			c0.5-0.1,1-0.1,1.5-0.1c0.5,0,1,0.1,1.5,0.2c0.5,0.1,1,0.2,1.4,0.3c0.5,0.1,0.9,0.3,1.4,0.5c0.1,0,0.2,0.1,0.3,0.1l0.3,0.2
			c0.2,0.1,0.4,0.2,0.6,0.3c0.4,0.2,0.8,0.5,1.2,0.7c0.8,0.5,1.6,1.1,2.3,1.6c1.5,1.2,2.8,2.5,4.1,3.9c0.6,0.7,1.2,1.4,1.8,2.1
			c0.3,0.4,0.6,0.7,0.9,1.1c0.1,0.2,0.3,0.4,0.4,0.6c0.1,0.2,0.3,0.4,0.4,0.6l-0.9,0c0.7-0.8,1.4-1.6,2.1-2.4c0.3-0.4,0.7-0.8,1-1.2
			c0.4-0.4,0.7-0.8,1.1-1.2c-0.2,0.5-0.4,1-0.7,1.5c-0.2,0.5-0.5,0.9-0.8,1.4c-0.6,0.9-1.2,1.8-1.9,2.6l-0.5,0.6l-0.4-0.6
			c-0.1-0.2-0.3-0.4-0.4-0.5c-0.1-0.2-0.3-0.4-0.4-0.5c-0.3-0.4-0.6-0.7-0.9-1.1c-0.6-0.7-1.2-1.4-1.8-2.1c-1.2-1.3-2.6-2.6-4-3.7
			c-0.7-0.6-1.4-1.1-2.2-1.5c-0.4-0.2-0.8-0.5-1.2-0.7c-0.2-0.1-0.4-0.2-0.6-0.3l-0.3-0.1c-0.1,0-0.2-0.1-0.3-0.1
			c-0.4-0.2-0.8-0.3-1.2-0.4c-0.4-0.1-0.8-0.2-1.3-0.3c-0.4-0.1-0.9-0.1-1.3-0.1c-0.4,0-0.9,0-1.3,0.1c-0.1,0-0.2,0-0.3,0l-0.2,0
			l-0.2,0l-0.2,0l-0.1,0l-0.1,0c-0.1,0-0.1,0-0.2,0c-0.1,0-0.1,0-0.2,0c-0.4,0.1-0.8,0.3-1.2,0.5c-0.2,0.1-0.4,0.2-0.6,0.3
			c-0.1,0.1-0.2,0.1-0.3,0.2l-0.1,0.1c0,0,0,0,0,0l-0.1,0c-0.3,0.3-0.6,0.6-0.9,0.9c-0.5,0.6-1,1.4-1.2,2.2
			c-0.2,0.8-0.3,1.6-0.2,2.4c0.1,0.8,0.4,1.6,0.9,2.3c0.5,0.7,1,1.3,1.7,1.8c0.2,0.1,0.3,0.2,0.5,0.3c0.2,0.1,0.4,0.2,0.6,0.3
			c0.4,0.2,0.8,0.3,1.2,0.4c0.4,0.1,0.8,0.1,1.2,0.1c0.2,0,0.4,0,0.6,0c0.1,0,0.2,0,0.3-0.1c0.1,0,0.2,0,0.3-0.1l0.5-0.1l0.3,0.5
			c0.7,1.2,1.4,2.4,2.2,3.5c0.8,1.1,1.6,2.2,2.6,3.3l0.3,0.4l0.3,0.4c0.2,0.3,0.5,0.5,0.7,0.8c0.5,0.5,1,1,1.4,1.5
			c1,1,2,1.9,3.1,2.6c1.1,0.8,2.3,1.5,3.5,2.1c0.6,0.3,1.2,0.5,1.9,0.8c0.2,0.1,0.3,0.1,0.5,0.2l0.5,0.1c0.1,0,0.2,0,0.2,0.1
			l0.2,0.1c0.1,0,0.2,0,0.2,0.1l0.2,0.1c0.7,0.1,1.3,0.2,2,0.3c0.7,0,1.3,0,1.9-0.1c0.1,0,0.2,0,0.2,0c0.1,0,0.2,0,0.2-0.1
			c0.2,0,0.3-0.1,0.5-0.1c0.2-0.1,0.3-0.1,0.5-0.2l0.2-0.1c0.1,0,0.1-0.1,0.2-0.1c0.1-0.1,0.3-0.1,0.4-0.2l0.2-0.1l0.2-0.1
			c0.1-0.1,0.3-0.2,0.4-0.3c0.1,0,0.1-0.1,0.2-0.1c0.1,0,0.1-0.1,0.2-0.1l0.2-0.2l0.2-0.2c0.1-0.1,0.1-0.1,0.2-0.2l0.1-0.1l0.1-0.1
			c0.2-0.2,0.5-0.5,0.7-0.7c0.4-0.5,0.8-1,1.2-1.6c0.7-1.1,1.2-2.4,1.5-3.7c0.2-0.7,0.3-1.3,0.3-2c0.1-0.7,0.1-1.4,0.1-2
			c0-1.4-0.1-2.7-0.4-4.1c-0.1-0.7-0.3-1.3-0.5-2c-0.2-0.7-0.4-1.3-0.7-1.9c-0.5-1.3-1.2-2.4-2-3.6c-1.6-2.2-3.6-4.1-6-5.6L153.6,86
			z"/>
		<path class="st3" d="M131.3,100.3c0.1-0.1,0.3-0.1,0.4-0.2c0.1-0.1,0.3-0.1,0.4-0.2c0.3-0.2,0.5-0.3,0.8-0.5
			c0.2-0.2,0.5-0.5,0.7-0.8c0.2-0.3,0.4-0.6,0.6-0.9c0,0.4-0.1,0.7-0.2,1.1l0,0.1l0,0.1c0,0.1-0.1,0.2-0.1,0.3
			c-0.1,0.2-0.2,0.3-0.3,0.5c-0.1,0.2-0.2,0.3-0.3,0.5c-0.1,0.2-0.3,0.3-0.4,0.4c-0.2,0.1-0.3,0.3-0.5,0.4c-0.2,0.1-0.4,0.2-0.6,0.3
			L131.3,100.3z"/>
		<path class="st3" d="M122.9,95.1c0-0.2,0.1-0.4,0.2-0.6c0.1-0.2,0.2-0.4,0.3-0.5c0.1-0.2,0.2-0.3,0.4-0.5c0.1-0.2,0.3-0.3,0.4-0.4
			c0.1-0.1,0.3-0.2,0.5-0.3c0.1-0.1,0.2-0.1,0.2-0.1l0.1-0.1l0.1-0.1c0.3-0.2,0.7-0.3,1-0.4c-0.3,0.2-0.6,0.5-0.8,0.7
			c-0.2,0.3-0.5,0.5-0.6,0.8c-0.2,0.3-0.3,0.6-0.4,0.9c-0.1,0.1-0.1,0.3-0.1,0.4c0,0.1-0.1,0.3-0.1,0.4L122.9,95.1z"/>
		<path class="st3" d="M125.5,99.7c0.1-0.4,0.2-0.8,0.5-1.2c0.1-0.2,0.2-0.4,0.4-0.5c0.1-0.2,0.3-0.3,0.4-0.4
			c0.2-0.1,0.3-0.3,0.5-0.4c0.1-0.1,0.2-0.1,0.3-0.2l0.1-0.1c0,0,0.1,0,0.1-0.1c0.4-0.2,0.7-0.3,1.1-0.4c-0.3,0.2-0.6,0.5-0.9,0.8
			c-0.3,0.3-0.5,0.6-0.7,0.8c-0.2,0.3-0.3,0.6-0.5,0.9c-0.1,0.3-0.2,0.6-0.3,1L125.5,99.7z"/>
		<path class="st3" d="M147.9,98.7c0.3,0.4,0.6,0.8,0.8,1.3c0.3,0.4,0.5,0.9,0.7,1.3c0.2,0.5,0.4,0.9,0.7,1.4
			c0.2,0.5,0.4,0.9,0.6,1.4c-0.3-0.4-0.7-0.8-1-1.2c-0.3-0.4-0.6-0.8-1-1.2c-0.3-0.4-0.6-0.8-0.9-1.2c-0.3-0.4-0.6-0.8-0.9-1.2
			L147.9,98.7z"/>
		<g class="st7">
			<path class="st3" d="M150.6,117c1.1,0.1,4.6,0.5,7.9-1.7c4.6-3.2,4.6-9,4.6-9.6c-0.3,1.2-1.7,6.6-6.2,8.4c-4.9,2-10-1.8-13.6-4.3
				c-4.9-3.5-7.8-8-9.4-11.4c-0.5,0.1-2.9,0.4-5-1.2c-1.7-1.3-2.8-3.7-2.5-6c0.2-1.2,0.7-2.4,1.4-3.4c-0.2,0.1-0.4,0.2-0.6,0.2
				c-1.9,0.9-3.2,3.2-3.5,5.2c-0.3,2.4,0.8,4.7,2.5,6c2.1,1.6,4.5,1.3,5,1.2c1.9,3.2,4.7,7,8.9,10.7c1.6,1.4,3.2,2.5,4.7,3.5
				C145.8,115.4,147.8,116.7,150.6,117z"/>
		</g>
		<g class="st7">
			<path class="st3" d="M196.8,125c0.1-1.2,0.5-6.3-2.7-9.9c0,0-0.1-0.1-0.1-0.1c-1.1-1.2-2.5-2-4.1-2.4c-1.3-0.3-3.8-1-7-2.5
				c-1.7-0.8-3.5-1.7-5.5-2.9c-1.8-1.1-3.8-2.5-5.8-4.1c-3-2.4-5.4-5.1-8.1-7.8c-0.1-0.1-0.1-0.1-0.2-0.2c-0.4-0.4-0.7-0.7-1.1-1.1
				c-1.6-1.7-3.4-3.3-5.4-4.9c-0.6-0.4-1.1-0.9-1.7-1.3c-0.7-0.8-1.5-1.2-2.1-1.4c0,0,0,0,0,0c-0.5,0.7-1,1.5-1.6,2.3
				c-1,1.4-2.3,2.8-3.8,4.1c-1.1,1-2.2,1.8-3.2,2.5c2.2,3.6,3.9,5,3.9,5l0.9-2.6c2.6-7.2,5.4-6.7,6.7-5.9c0.3,0.2,0.5,0.4,0.7,0.6
				c1.6,1.3,3.1,2.7,4.4,4.1c0.4,0.4,0.7,0.7,1.1,1.1c0.1,0.1,0.1,0.1,0.2,0.2c2.6,2.7,5,5.4,8.1,7.8c2,1.6,4,2.9,5.8,4.1
				c2,1.2,3.8,2.2,5.5,2.9c3.2,1.5,5.8,2.2,7,2.5c1.6,0.4,3,1.2,4.1,2.4c0,0,0.1,0.1,0.1,0.1c3.2,3.5,2.8,8.6,2.7,9.9
				c-0.1,0.8-0.2,2.5-1.1,4.6C196.4,129,196.8,126.1,196.8,125z"/>
		</g>
	</g>
</g>
</svg>
