<svg width="962" height="586" viewBox="0 0 962 586" fill="none" xmlns="http://www.w3.org/2000/svg">
<path d="M193.885 209.5C193.885 230.267 186.769 247.3 172.535 260.6C159.235 273.2 141.268 280.9 118.635 283.7V322.9H83.2852V285.1C48.7518 283.933 21.2185 272.967 0.68515 252.2L32.1852 220.7C39.1852 227.7 47.7018 232.95 57.7351 236.45C66.6018 239.483 76.6352 241.233 87.8352 241.7V178.35L76.6352 176.95C55.6352 174.15 39.5352 167.15 28.3352 155.95C16.4352 144.05 10.4851 127.833 10.4851 107.3C10.4851 86.9999 16.9018 70.0832 29.7351 56.5499C42.8018 42.7832 60.6518 34.7332 83.2852 32.3999V0.899902H118.635V32.0499C146.635 33.6832 169.619 43.2499 187.585 60.7499L156.785 91.1999C151.418 86.0666 144.652 81.9832 136.485 78.9499C129.485 76.6166 121.902 75.0999 113.735 74.3999V135.3L127.035 137.4C148.268 140.667 164.135 147.2 174.635 157C187.468 169.133 193.885 186.633 193.885 209.5ZM146.285 210.9C146.285 201.8 143.719 194.8 138.585 189.9C135.552 186.867 131.702 184.65 127.035 183.25L117.235 181.15L113.735 180.8V241C135.435 238.433 146.285 228.4 146.285 210.9ZM87.8352 74.7499C67.5352 77.5499 57.3852 87.8166 57.3852 105.55C57.3852 112.783 59.8351 118.733 64.7351 123.4C70.1018 128.533 77.8018 131.8 87.8352 133.2V74.7499Z" fill="white"/>
<path d="M337.784 283V178.7H253.434V283H204.784V33.7999H253.434V135.65H337.784V33.7999H386.434V283H337.784Z" fill="white"/>
<path d="M409.384 283V33.7999H573.534V77.1999H458.034V135.65H556.384V179.05H458.034V239.6H573.534V283H409.384Z" fill="white"/>
<path d="M718.598 283L669.948 183.6H634.948V283H586.298V33.7999H683.948C708.681 33.7999 728.515 41.2666 743.448 56.1999C757.681 70.4332 764.798 88.3999 764.798 110.1C764.798 126.667 760.248 140.9 751.148 152.8C742.981 163.3 732.365 170.883 719.298 175.55L774.948 283H718.598ZM716.148 110.1C716.148 88.1666 704.365 77.1999 680.798 77.1999H634.948V143H680.798C704.365 143 716.148 132.033 716.148 110.1Z" fill="white"/>
<path d="M961.252 185C961.019 195.5 960.319 204.483 959.152 211.95C956.119 231.083 948.419 246.833 936.052 259.2C920.185 275.067 898.252 283 870.252 283H780.302V33.7999H870.252C898.252 33.7999 920.185 41.7332 936.052 57.5999C948.419 69.9666 956.119 85.3666 959.152 103.8C960.319 111.033 961.019 119.783 961.252 130.05V185ZM912.602 157.35C912.602 122.817 909.102 101.233 902.102 92.5999C893.702 82.3333 881.569 77.1999 865.702 77.1999H828.952V239.6H865.702C881.569 239.6 893.702 234.467 902.102 224.2C909.102 215.567 912.602 193.283 912.602 157.35Z" fill="white"/>
<path d="M136.127 377.2V583H87.477V377.2H22.3769V333.8H201.227V377.2H136.127Z" fill="white"/>
<path d="M360.786 491.65C360.786 524.55 353.903 548.233 340.136 562.7C333.836 569.233 326.369 574.483 317.736 578.45C307.469 582.883 296.036 585.1 283.436 585.1C270.836 585.1 259.519 582.883 249.486 578.45C240.853 574.717 233.386 569.467 227.086 562.7C213.319 548.233 206.436 524.55 206.436 491.65C206.436 458.983 213.319 435.417 227.086 420.95C233.386 414.183 240.853 408.933 249.486 405.2C259.519 400.767 270.836 398.55 283.436 398.55C296.036 398.55 307.469 400.767 317.736 405.2C326.369 409.167 333.836 414.417 340.136 420.95C353.903 435.417 360.786 458.983 360.786 491.65ZM315.286 491.65C315.286 480.45 314.703 471.933 313.536 466.1C311.903 457.933 308.986 451.75 304.786 447.55C299.419 442.183 292.303 439.5 283.436 439.5C274.803 439.5 267.803 442.183 262.436 447.55C258.236 451.75 255.319 457.933 253.686 466.1C252.519 471.933 251.936 480.45 251.936 491.65C251.936 502.85 252.519 511.483 253.686 517.55C255.319 525.717 258.236 531.9 262.436 536.1C267.803 541.467 274.803 544.15 283.436 544.15C292.303 544.15 299.419 541.467 304.786 536.1C308.986 531.9 311.903 525.717 313.536 517.55C314.703 511.483 315.286 502.85 315.286 491.65Z" fill="white"/>
<path d="M513.725 583L468.925 507.05L449.675 528.75V583H404.175V333.8H449.675V475.2L510.225 400.65H565.175L500.075 474.15L570.075 583H513.725Z" fill="white"/>
<path d="M632.99 506C632.99 533.067 646.29 546.6 672.89 546.6C688.99 546.6 702.757 540.883 714.19 529.45L741.84 556.4C731.807 566.433 722.007 573.55 712.44 577.75C701.474 582.65 688.174 585.1 672.54 585.1C660.874 585.1 650.374 583.7 641.04 580.9C630.54 577.633 621.557 572.733 614.09 566.2C605.924 558.733 599.624 549.167 595.19 537.5C590.524 524.667 588.19 509.383 588.19 491.65C588.19 462.483 595.54 439.5 610.24 422.7C624.474 406.6 643.607 398.55 667.64 398.55C692.374 398.55 711.974 406.833 726.44 423.4C740.207 439.267 747.09 460.033 747.09 485.7V506H632.99ZM702.29 474.85C702.057 467.617 700.657 461.083 698.09 455.25C692.49 442.65 682.34 436.35 667.64 436.35C652.94 436.35 642.79 442.65 637.19 455.25C634.624 461.083 633.224 467.617 632.99 474.85H702.29Z" fill="white"/>
<path d="M895.088 583V472.75C895.088 461.317 891.822 452.683 885.288 446.85C879.922 441.95 873.155 439.5 864.988 439.5C856.588 439.5 849.705 441.95 844.338 446.85C837.805 452.683 834.538 461.317 834.538 472.75V583H789.038V400.65H833.488V417.45C845.388 404.85 860.555 398.55 878.988 398.55C896.955 398.55 911.305 403.917 922.038 414.65C929.038 421.65 933.938 429.583 936.738 438.45C939.305 446.15 940.588 455.483 940.588 466.45V583H895.088Z" fill="white"/>
</svg>
